<svg xmlns="http://www.w3.org/2000/svg" xmlns:xlink="http://www.w3.org/1999/xlink" width="1080" zoomAndPan="magnify" viewBox="0 0 810 809.999993" height="1080" preserveAspectRatio="xMidYMid meet" version="1.0"><path fill="#a6201e" d="M 463.582031 620.773438 C 490.128906 610.519531 603.410156 566.765625 631.246094 461.253906 C 662.984375 340.9375 568.0625 199.292969 436.847656 173.195312 C 300.742188 146.121094 146.996094 209.757812 159.074219 308.359375 C 164.582031 353.347656 225.851562 366.953125 223.015625 419.9375 C 220.25 471.640625 155.117188 496.984375 161.9375 558.511719 C 162.367188 562.375 163.742188 573.953125 169.554688 585.527344 C 202.5625 651.265625 352.035156 663.859375 463.582031 620.773438 " fill-opacity="1" fill-rule="nonzero"/><path fill="#000000" d="M 196.972656 552.40625 L 581.019531 553.242188 L 587.6875 553.257812 L 600.085938 553.28125 C 603.613281 553.28125 606.507812 550.542969 606.953125 547.054688 L 639.066406 297.183594 C 639.847656 291.105469 635.394531 285.367188 629.253906 285.367188 L 231.351562 285.726562 L 196.972656 552.40625 " fill-opacity="1" fill-rule="nonzero"/><path fill="#ffbf23" d="M 614.324219 284.152344 C 621.25 284.152344 626.882812 291.125 625.996094 298.011719 L 593.65625 547.039062 C 593.203125 550.539062 590.230469 553.164062 586.710938 553.164062 L 583.675781 553.277344 L 191.644531 553.164062 C 187.421875 553.164062 184.160156 549.441406 184.699219 545.242188 L 217.691406 291.148438 C 218.144531 287.648438 220.835938 284.152344 224.359375 284.152344 L 614.324219 284.152344 " fill-opacity="1" fill-rule="nonzero"/><path fill="#000000" d="M 202.796875 405.414062 C 202.757812 405.414062 202.71875 405.414062 202.679688 405.40625 C 202.207031 405.34375 201.871094 404.910156 201.933594 404.4375 L 208.59375 353.757812 C 208.65625 353.28125 209.09375 352.945312 209.566406 353.007812 C 210.039062 353.074219 210.375 353.507812 210.3125 353.980469 L 203.65625 404.660156 C 203.597656 405.097656 203.222656 405.414062 202.796875 405.414062 " fill-opacity="1" fill-rule="nonzero"/><path fill="#000000" d="M 191.648438 554.03125 C 189.386719 554.03125 187.234375 553.054688 185.742188 551.359375 C 184.242188 549.65625 183.550781 547.382812 183.839844 545.132812 L 184.574219 536.757812 C 184.617188 536.28125 185.039062 535.925781 185.515625 535.972656 C 185.992188 536.011719 186.34375 536.433594 186.304688 536.910156 L 185.5625 545.320312 C 185.335938 547.109375 185.875 548.882812 187.042969 550.210938 C 188.207031 551.535156 189.886719 552.292969 191.644531 552.292969 L 321.96875 552.167969 C 322.449219 552.167969 322.835938 552.554688 322.835938 553.03125 C 322.835938 553.511719 322.449219 553.902344 321.96875 553.902344 L 191.648438 554.03125 " fill-opacity="1" fill-rule="nonzero"/><path fill="#000000" d="M 586.835938 553.316406 L 580.648438 553.316406 C 580.171875 553.316406 579.78125 552.925781 579.78125 552.445312 C 579.78125 551.96875 580.171875 551.582031 580.648438 551.582031 L 586.835938 551.582031 C 589.902344 551.582031 592.828125 548.949219 593.226562 545.835938 L 625.136719 297.902344 C 625.53125 294.859375 624.59375 291.796875 622.570312 289.496094 C 620.554688 287.207031 617.652344 285.894531 614.605469 285.894531 L 570.011719 285.894531 C 569.53125 285.894531 569.144531 285.503906 569.144531 285.027344 C 569.144531 284.546875 569.53125 284.15625 570.011719 284.15625 L 614.605469 284.15625 C 618.152344 284.15625 621.53125 285.6875 623.875 288.351562 C 626.226562 291.023438 627.3125 294.585938 626.859375 298.121094 L 594.949219 546.058594 C 594.433594 550.058594 590.792969 553.316406 586.835938 553.316406 " fill-opacity="1" fill-rule="nonzero"/><path fill="#ffffff" d="M 269.871094 346.617188 L 168.871094 346.617188 C 163.144531 346.617188 158.714844 341.601562 159.421875 335.917969 L 177.453125 189.132812 C 178.046875 184.367188 182.097656 180.785156 186.902344 180.785156 L 287.90625 180.785156 C 293.632812 180.785156 298.0625 185.800781 297.355469 191.484375 L 279.324219 338.269531 C 278.730469 343.039062 274.675781 346.617188 269.871094 346.617188 " fill-opacity="1" fill-rule="nonzero"/><path fill="#000000" d="M 186.902344 181.65625 C 182.542969 181.65625 178.851562 184.914062 178.3125 189.242188 L 160.28125 336.027344 C 159.976562 338.488281 160.742188 340.964844 162.382812 342.824219 C 164.027344 344.683594 166.390625 345.753906 168.871094 345.753906 L 269.871094 345.753906 C 274.230469 345.753906 277.921875 342.488281 278.460938 338.160156 L 296.496094 191.378906 C 296.800781 188.914062 296.035156 186.4375 294.394531 184.582031 C 292.75 182.71875 290.386719 181.65625 287.90625 181.65625 Z M 269.871094 347.484375 L 168.871094 347.484375 C 165.894531 347.484375 163.054688 346.207031 161.082031 343.972656 C 159.113281 341.742188 158.191406 338.765625 158.558594 335.8125 L 176.589844 189.03125 C 177.238281 183.835938 181.671875 179.917969 186.902344 179.917969 L 287.90625 179.917969 C 290.882812 179.917969 293.71875 181.199219 295.691406 183.429688 C 297.664062 185.660156 298.585938 188.636719 298.214844 191.59375 L 280.183594 338.375 C 279.539062 343.570312 275.105469 347.484375 269.871094 347.484375 " fill-opacity="1" fill-rule="nonzero"/><path fill="#a6201e" d="M 260.328125 280.253906 C 260.570312 278.339844 259.078125 276.644531 257.152344 276.644531 L 190.609375 276.644531 C 188.996094 276.644531 187.636719 277.84375 187.433594 279.441406 C 187.1875 281.355469 188.679688 283.050781 190.609375 283.050781 L 257.152344 283.050781 C 258.761719 283.050781 260.125 281.851562 260.328125 280.253906 " fill-opacity="1" fill-rule="nonzero"/><path fill="#a6201e" d="M 229.539062 296.402344 C 229.78125 294.488281 228.289062 292.792969 226.359375 292.792969 L 188.546875 292.792969 C 186.933594 292.792969 185.574219 293.992188 185.371094 295.589844 C 185.125 297.503906 186.617188 299.199219 188.546875 299.199219 L 226.359375 299.199219 C 227.972656 299.199219 229.332031 298 229.539062 296.402344 " fill-opacity="1" fill-rule="nonzero"/><path fill="#a6201e" d="M 237.003906 312.550781 C 237.246094 310.636719 235.753906 308.941406 233.824219 308.941406 L 186.488281 308.941406 C 184.875 308.941406 183.511719 310.140625 183.308594 311.738281 C 183.066406 313.652344 184.554688 315.347656 186.488281 315.347656 L 233.824219 315.347656 C 235.4375 315.347656 236.796875 314.148438 237.003906 312.550781 " fill-opacity="1" fill-rule="nonzero"/><path fill="#ffffff" d="M 256.925781 257.285156 L 200.632812 257.285156 C 195.992188 257.285156 192.40625 253.210938 193 248.609375 L 198.007812 209.707031 C 198.503906 205.867188 201.769531 202.992188 205.640625 202.992188 L 261.933594 202.992188 C 266.574219 202.992188 270.160156 207.066406 269.566406 211.671875 L 264.558594 250.574219 C 264.0625 254.410156 260.796875 257.285156 256.925781 257.285156 " fill-opacity="1" fill-rule="nonzero"/><path fill="#14697d" d="M 193.339844 249.949219 L 194.230469 242.265625 C 194.332031 241.390625 194.726562 240.574219 195.351562 239.957031 L 216.050781 219.375 C 217.570312 217.871094 220.023438 217.875 221.539062 219.386719 L 231.566406 229.402344 C 233.023438 230.855469 235.359375 230.921875 236.898438 229.550781 L 237.632812 228.894531 C 239.21875 227.480469 241.652344 227.605469 243.085938 229.175781 L 263.082031 251.070312 C 263.804688 251.863281 264.171875 252.914062 264.089844 253.980469 C 263.9375 256.019531 258.144531 257.59375 256.097656 257.578125 L 199.578125 257.019531 C 195.8125 256.984375 192.90625 253.695312 193.339844 249.949219 " fill-opacity="1" fill-rule="nonzero"/><path fill="#ffbf23" d="M 260.359375 218.320312 C 260.359375 221.574219 257.726562 224.207031 254.472656 224.207031 C 251.226562 224.207031 248.589844 221.574219 248.589844 218.320312 C 248.589844 215.074219 251.226562 212.4375 254.472656 212.4375 C 257.726562 212.4375 260.359375 215.074219 260.359375 218.320312 " fill-opacity="1" fill-rule="nonzero"/><path fill="#000000" d="M 205.238281 203.863281 C 202.042969 203.863281 199.328125 206.246094 198.921875 209.414062 L 193.792969 249.238281 C 193.558594 251.054688 194.117188 252.882812 195.328125 254.257812 C 196.535156 255.628906 198.277344 256.417969 200.109375 256.417969 L 257.328125 256.417969 C 260.523438 256.417969 263.238281 254.03125 263.644531 250.867188 L 268.773438 211.042969 C 269.007812 209.226562 268.449219 207.398438 267.238281 206.019531 C 266.03125 204.648438 264.289062 203.863281 262.457031 203.863281 Z M 257.328125 258.15625 L 200.109375 258.15625 C 197.78125 258.15625 195.5625 257.152344 194.023438 255.402344 C 192.484375 253.65625 191.773438 251.328125 192.070312 249.019531 L 197.199219 209.191406 C 197.71875 205.164062 201.171875 202.125 205.238281 202.125 L 262.457031 202.125 C 264.785156 202.125 267.003906 203.128906 268.542969 204.878906 C 270.082031 206.625 270.792969 208.953125 270.496094 211.261719 L 265.367188 251.089844 C 264.847656 255.117188 261.394531 258.15625 257.328125 258.15625 " fill-opacity="1" fill-rule="nonzero"/><path fill="#ffffff" d="M 172.902344 416.5625 C 173.039062 415.484375 173.953125 414.679688 175.035156 414.679688 L 363.902344 414.679688 C 366.03125 414.679688 367.671875 416.550781 367.402344 418.667969 L 352.417969 530.980469 C 352.28125 532.058594 351.367188 532.863281 350.285156 532.863281 L 159.601562 532.863281 C 158.425781 532.863281 157.519531 531.828125 157.675781 530.660156 L 172.902344 416.5625 " fill-opacity="1" fill-rule="nonzero"/><path fill="#a6201e" d="M 336.011719 453.042969 L 195.820312 453.042969 C 193.792969 453.042969 192.226562 451.257812 192.496094 449.246094 L 196.917969 415.039062 L 343.882812 415.039062 L 339.339844 450.128906 C 339.121094 451.796875 337.695312 453.042969 336.011719 453.042969 " fill-opacity="1" fill-rule="nonzero"/><path fill="#14697d" d="M 363.902344 414.679688 C 366.03125 414.679688 367.671875 416.550781 367.402344 418.667969 L 365.777344 428.097656 L 171.082031 428.066406 L 172.902344 416.5625 C 173.039062 415.484375 173.953125 414.679688 175.035156 414.679688 L 363.902344 414.679688 " fill-opacity="1" fill-rule="nonzero"/><path fill="#ffbf23" d="M 221.027344 464.304688 L 203.992188 464.304688 C 202.328125 464.304688 201.042969 462.84375 201.261719 461.191406 L 203.523438 444.109375 C 203.707031 442.738281 204.875 441.714844 206.257812 441.714844 L 223.289062 441.714844 C 224.957031 441.714844 226.242188 443.179688 226.019531 444.832031 L 223.761719 461.914062 C 223.578125 463.28125 222.410156 464.304688 221.027344 464.304688 " fill-opacity="1" fill-rule="nonzero"/><path fill="#a6201e" d="M 259.039062 489.820312 C 259.210938 488.476562 258.167969 487.289062 256.8125 487.289062 L 186.996094 487.289062 C 185.867188 487.289062 184.910156 488.125 184.769531 489.25 C 184.597656 490.589844 185.640625 491.777344 186.996094 491.777344 L 256.8125 491.777344 C 257.945312 491.777344 258.898438 490.9375 259.039062 489.820312 " fill-opacity="1" fill-rule="nonzero"/><path fill="#a6201e" d="M 268.730469 421.988281 C 268.902344 420.644531 267.855469 419.457031 266.503906 419.457031 L 196.6875 419.457031 C 195.554688 419.457031 194.601562 420.296875 194.457031 421.417969 C 194.285156 422.757812 195.332031 423.945312 196.6875 423.945312 L 266.503906 423.945312 C 267.632812 423.945312 268.585938 423.105469 268.730469 421.988281 " fill-opacity="1" fill-rule="nonzero"/><path fill="#a6201e" d="M 340.066406 421.988281 C 340.234375 420.644531 339.191406 419.457031 337.839844 419.457031 L 331.464844 419.457031 C 330.332031 419.457031 329.378906 420.296875 329.234375 421.417969 C 329.066406 422.757812 330.109375 423.945312 331.464844 423.945312 L 337.839844 423.945312 C 338.96875 423.945312 339.921875 423.105469 340.066406 421.988281 " fill-opacity="1" fill-rule="nonzero"/><path fill="#a6201e" d="M 255.832031 515.476562 C 256.003906 514.136719 254.957031 512.949219 253.605469 512.949219 L 183.789062 512.949219 C 182.65625 512.949219 181.703125 513.789062 181.558594 514.910156 C 181.390625 516.253906 182.433594 517.441406 183.789062 517.441406 L 253.605469 517.441406 C 254.734375 517.441406 255.6875 516.597656 255.832031 515.476562 " fill-opacity="1" fill-rule="nonzero"/><path fill="#a6201e" d="M 272.800781 500.117188 L 185.390625 500.117188 C 184.261719 500.117188 183.308594 500.957031 183.164062 502.082031 C 182.992188 503.421875 184.039062 504.609375 185.390625 504.609375 L 272.800781 504.609375 C 273.925781 504.609375 274.878906 503.773438 275.027344 502.660156 C 275.203125 501.3125 274.15625 500.117188 272.800781 500.117188 " fill-opacity="1" fill-rule="nonzero"/><path fill="#a6201e" d="M 276.203125 474.460938 L 188.597656 474.460938 C 187.46875 474.460938 186.515625 475.296875 186.371094 476.417969 C 186.199219 477.757812 187.246094 478.949219 188.597656 478.949219 L 276.203125 478.949219 C 277.328125 478.949219 278.28125 478.113281 278.429688 476.996094 C 278.605469 475.652344 277.5625 474.460938 276.203125 474.460938 " fill-opacity="1" fill-rule="nonzero"/><path fill="#000000" d="M 325.828125 533.730469 L 159.601562 533.730469 C 158.789062 533.730469 158.019531 533.378906 157.484375 532.769531 C 156.949219 532.160156 156.707031 531.351562 156.8125 530.546875 L 172.042969 416.445312 C 172.234375 414.945312 173.523438 413.8125 175.035156 413.8125 L 302.683594 413.8125 C 303.164062 413.8125 303.554688 414.199219 303.554688 414.679688 C 303.554688 415.160156 303.164062 415.550781 302.683594 415.550781 L 175.035156 415.550781 C 174.390625 415.550781 173.84375 416.03125 173.761719 416.671875 L 158.535156 530.777344 C 158.492188 531.085938 158.582031 531.390625 158.789062 531.628906 C 159 531.863281 159.285156 531.992188 159.601562 531.992188 L 325.828125 531.992188 C 326.304688 531.992188 326.695312 532.382812 326.695312 532.863281 C 326.695312 533.34375 326.304688 533.730469 325.828125 533.730469 " fill-opacity="1" fill-rule="nonzero"/><path fill="#000000" d="M 296.03125 512.636719 L 294.71875 512.636719 C 293.847656 512.636719 293.019531 512.265625 292.449219 511.609375 C 291.875 510.949219 291.617188 510.078125 291.734375 509.214844 L 297.105469 470.253906 C 297.308594 468.773438 298.589844 467.65625 300.085938 467.65625 L 330.0625 467.65625 C 330.933594 467.65625 331.757812 468.03125 332.332031 468.6875 C 332.902344 469.34375 333.164062 470.214844 333.042969 471.078125 L 332.925781 471.949219 C 332.859375 472.421875 332.417969 472.75 331.945312 472.6875 C 331.472656 472.625 331.140625 472.183594 331.203125 471.710938 L 331.324219 470.839844 C 331.375 470.472656 331.269531 470.109375 331.023438 469.828125 C 330.777344 469.546875 330.4375 469.390625 330.0625 469.390625 L 300.085938 469.390625 C 299.453125 469.390625 298.910156 469.863281 298.820312 470.492188 L 293.457031 509.457031 C 293.40625 509.824219 293.511719 510.183594 293.757812 510.46875 C 294.003906 510.75 294.34375 510.90625 294.71875 510.90625 L 296.03125 510.90625 C 296.511719 510.90625 296.898438 511.292969 296.898438 511.769531 C 296.898438 512.25 296.511719 512.636719 296.03125 512.636719 " fill-opacity="1" fill-rule="nonzero"/><path fill="#a6201e" d="M 329.941406 517.222656 L 299.699219 517.222656 C 298.480469 517.222656 297.539062 516.148438 297.707031 514.941406 L 303.109375 475.710938 C 303.25 474.714844 304.097656 473.976562 305.101562 473.976562 L 335.347656 473.976562 C 336.566406 473.976562 337.503906 475.054688 337.339844 476.261719 L 331.933594 515.488281 C 331.796875 516.484375 330.945312 517.222656 329.941406 517.222656 " fill-opacity="1" fill-rule="nonzero"/><path fill="#14697d" d="M 554.265625 522.699219 C 553.796875 522.699219 553.414062 522.324219 553.398438 521.851562 C 553.390625 521.375 553.765625 520.976562 554.246094 520.960938 L 596.050781 519.890625 L 619.570312 509.734375 C 620.015625 509.542969 620.523438 509.746094 620.714844 510.1875 C 620.902344 510.625 620.699219 511.136719 620.261719 511.328125 L 596.585938 521.550781 C 596.480469 521.59375 596.375 521.617188 596.261719 521.621094 L 554.289062 522.695312 C 554.28125 522.699219 554.273438 522.699219 554.265625 522.699219 " fill-opacity="1" fill-rule="nonzero"/><path fill="#14697d" d="M 555.878906 540.453125 C 555.40625 540.453125 555.019531 540.074219 555.015625 539.597656 C 555.007812 539.117188 555.390625 538.726562 555.871094 538.71875 L 597.304688 538.179688 C 597.804688 538.175781 598.179688 538.558594 598.183594 539.039062 C 598.191406 539.515625 597.808594 539.914062 597.328125 539.917969 L 555.894531 540.453125 C 555.890625 540.453125 555.886719 540.453125 555.878906 540.453125 " fill-opacity="1" fill-rule="nonzero"/><path fill="#14697d" d="M 604.316406 573.28125 C 604.128906 573.28125 603.957031 573.222656 603.808594 573.117188 L 588.976562 562.523438 L 556.972656 563.054688 C 556.492188 563.074219 556.101562 562.679688 556.089844 562.203125 C 556.082031 561.722656 556.464844 561.328125 556.945312 561.320312 L 589.234375 560.78125 C 589.425781 560.78125 589.601562 560.835938 589.753906 560.941406 L 604.582031 571.539062 L 625.816406 571.007812 C 626.304688 571.007812 626.695312 571.375 626.707031 571.851562 C 626.71875 572.332031 626.339844 572.730469 625.859375 572.742188 L 604.335938 573.28125 C 604.328125 573.28125 604.320312 573.28125 604.316406 573.28125 " fill-opacity="1" fill-rule="nonzero"/><path fill="#14697d" d="M 577.40625 591.578125 C 577.398438 591.578125 577.390625 591.578125 577.382812 591.574219 L 556.933594 591.039062 C 556.453125 591.023438 556.078125 590.628906 556.089844 590.148438 C 556.101562 589.667969 556.511719 589.273438 556.980469 589.300781 L 577.300781 589.839844 L 597.632812 584.488281 C 597.71875 584.464844 597.796875 584.457031 597.878906 584.460938 L 616.175781 585 C 616.65625 585.011719 617.03125 585.410156 617.015625 585.890625 C 617 586.371094 616.601562 586.773438 616.125 586.734375 L 597.953125 586.199219 L 577.625 591.546875 C 577.554688 591.566406 577.480469 591.578125 577.40625 591.578125 " fill-opacity="1" fill-rule="nonzero"/><path fill="#14697d" d="M 429.425781 530.769531 C 429.160156 530.769531 428.894531 530.648438 428.726562 530.417969 C 428.441406 530.027344 428.523438 529.484375 428.910156 529.199219 L 447.207031 515.75 C 447.367188 515.628906 447.566406 515.574219 447.769531 515.582031 L 477.363281 517.195312 C 477.84375 517.222656 478.207031 517.632812 478.183594 518.109375 C 478.160156 518.589844 477.75 518.953125 477.269531 518.929688 L 447.984375 517.332031 L 429.9375 530.601562 C 429.78125 530.714844 429.605469 530.769531 429.425781 530.769531 " fill-opacity="1" fill-rule="nonzero"/><path fill="#14697d" d="M 445.566406 535.613281 C 445.101562 535.613281 444.71875 535.242188 444.699219 534.773438 C 444.683594 534.296875 445.058594 533.894531 445.539062 533.875 L 475.132812 532.800781 C 475.601562 532.765625 476.015625 533.160156 476.035156 533.636719 C 476.050781 534.117188 475.675781 534.515625 475.195312 534.535156 L 445.601562 535.609375 C 445.589844 535.613281 445.578125 535.613281 445.566406 535.613281 " fill-opacity="1" fill-rule="nonzero"/><path fill="#14697d" d="M 473.550781 552.832031 C 473.546875 552.832031 473.542969 552.832031 473.539062 552.832031 L 438.558594 552.292969 C 438.082031 552.285156 437.699219 551.890625 437.703125 551.410156 C 437.710938 550.933594 438.085938 550.53125 438.585938 550.558594 L 473.566406 551.097656 C 474.042969 551.105469 474.425781 551.496094 474.417969 551.980469 C 474.410156 552.453125 474.023438 552.832031 473.550781 552.832031 " fill-opacity="1" fill-rule="nonzero"/><path fill="#14697d" d="M 428.347656 583.503906 C 427.890625 583.503906 427.507812 583.144531 427.480469 582.683594 C 427.457031 582.203125 427.824219 581.792969 428.304688 581.769531 L 438.269531 581.246094 L 448.28125 573.867188 C 448.445312 573.746094 448.644531 573.6875 448.851562 573.699219 L 474.144531 575.316406 C 474.621094 575.34375 474.984375 575.757812 474.957031 576.234375 C 474.925781 576.714844 474.515625 577.070312 474.035156 577.046875 L 449.058594 575.453125 L 439.085938 582.796875 C 438.949219 582.898438 438.789062 582.957031 438.617188 582.964844 L 428.394531 583.503906 C 428.378906 583.503906 428.363281 583.503906 428.347656 583.503906 " fill-opacity="1" fill-rule="nonzero"/><path fill="#14697d" d="M 476.242188 595.882812 C 476.234375 595.882812 476.230469 595.882812 476.222656 595.882812 L 449.855469 595.34375 C 449.375 595.332031 448.996094 594.9375 449.007812 594.457031 C 449.015625 593.984375 449.402344 593.605469 449.875 593.605469 C 449.878906 593.605469 449.882812 593.605469 449.890625 593.605469 L 476.261719 594.144531 C 476.738281 594.15625 477.117188 594.550781 477.109375 595.03125 C 477.101562 595.503906 476.710938 595.882812 476.242188 595.882812 " fill-opacity="1" fill-rule="nonzero"/><path fill="#14697d" d="M 624.222656 506.554688 C 622.328125 506.554688 620.789062 508.097656 620.789062 509.992188 C 620.789062 511.882812 622.328125 513.429688 624.222656 513.429688 C 626.117188 513.429688 627.660156 511.882812 627.660156 509.992188 C 627.660156 508.097656 626.117188 506.554688 624.222656 506.554688 Z M 624.222656 515.164062 C 621.371094 515.164062 619.050781 512.84375 619.050781 509.992188 C 619.050781 507.136719 621.371094 504.816406 624.222656 504.816406 C 627.078125 504.816406 629.394531 507.136719 629.394531 509.992188 C 629.394531 512.84375 627.078125 515.164062 624.222656 515.164062 " fill-opacity="1" fill-rule="nonzero"/><path fill="#14697d" d="M 618.492188 549.984375 C 616.597656 549.984375 615.054688 551.527344 615.054688 553.417969 C 615.054688 555.316406 616.597656 556.855469 618.492188 556.855469 C 620.386719 556.855469 621.933594 555.316406 621.933594 553.417969 C 621.933594 551.527344 620.386719 549.984375 618.492188 549.984375 Z M 618.492188 558.59375 C 615.640625 558.59375 613.320312 556.273438 613.320312 553.417969 C 613.320312 550.566406 615.640625 548.246094 618.492188 548.246094 C 621.34375 548.246094 623.664062 550.566406 623.664062 553.417969 C 623.664062 556.273438 621.34375 558.59375 618.492188 558.59375 " fill-opacity="1" fill-rule="nonzero"/><path fill="#14697d" d="M 601.625 535.070312 C 599.726562 535.070312 598.1875 536.617188 598.1875 538.511719 C 598.1875 540.40625 599.726562 541.949219 601.625 541.949219 C 603.519531 541.949219 605.0625 540.40625 605.0625 538.511719 C 605.0625 536.617188 603.519531 535.070312 601.625 535.070312 Z M 601.625 543.683594 C 598.769531 543.683594 596.449219 541.363281 596.449219 538.511719 C 596.449219 535.65625 598.769531 533.339844 601.625 533.339844 C 604.472656 533.339844 606.792969 535.65625 606.792969 538.511719 C 606.792969 541.363281 604.472656 543.683594 601.625 543.683594 " fill-opacity="1" fill-rule="nonzero"/><path fill="#14697d" d="M 629.605469 568.4375 C 627.707031 568.4375 626.167969 569.976562 626.167969 571.875 C 626.167969 573.769531 627.707031 575.3125 629.605469 575.3125 C 631.5 575.3125 633.042969 573.769531 633.042969 571.875 C 633.042969 569.976562 631.5 568.4375 629.605469 568.4375 Z M 629.605469 577.046875 C 626.753906 577.046875 624.433594 574.726562 624.433594 571.875 C 624.433594 569.023438 626.753906 566.699219 629.605469 566.699219 C 632.457031 566.699219 634.777344 569.023438 634.777344 571.875 C 634.777344 574.726562 632.457031 577.046875 629.605469 577.046875 " fill-opacity="1" fill-rule="nonzero"/><path fill="#14697d" d="M 619.917969 581.890625 C 618.019531 581.890625 616.480469 583.433594 616.480469 585.328125 C 616.480469 587.222656 618.019531 588.765625 619.917969 588.765625 C 621.8125 588.765625 623.351562 587.222656 623.351562 585.328125 C 623.351562 583.433594 621.8125 581.890625 619.917969 581.890625 Z M 619.917969 590.5 C 617.066406 590.5 614.746094 588.179688 614.746094 585.328125 C 614.746094 582.472656 617.066406 580.152344 619.917969 580.152344 C 622.769531 580.152344 625.089844 582.472656 625.089844 585.328125 C 625.089844 588.179688 622.769531 590.5 619.917969 590.5 " fill-opacity="1" fill-rule="nonzero"/><path fill="#14697d" d="M 445.570312 591.035156 C 443.671875 591.035156 442.132812 592.578125 442.132812 594.476562 C 442.132812 596.371094 443.671875 597.914062 445.570312 597.914062 C 447.464844 597.914062 449.007812 596.371094 449.007812 594.476562 C 449.007812 592.578125 447.464844 591.035156 445.570312 591.035156 Z M 445.570312 599.648438 C 442.71875 599.648438 440.394531 597.328125 440.394531 594.476562 C 440.394531 591.621094 442.71875 589.300781 445.570312 589.300781 C 448.417969 589.300781 450.742188 591.621094 450.742188 594.476562 C 450.742188 597.328125 448.417969 599.648438 445.570312 599.648438 " fill-opacity="1" fill-rule="nonzero"/><path fill="#14697d" d="M 434.269531 547.449219 C 432.371094 547.449219 430.832031 548.992188 430.832031 550.886719 C 430.832031 552.78125 432.371094 554.324219 434.269531 554.324219 C 436.164062 554.324219 437.703125 552.78125 437.703125 550.886719 C 437.703125 548.992188 436.164062 547.449219 434.269531 547.449219 Z M 434.269531 556.0625 C 431.414062 556.0625 429.09375 553.742188 429.09375 550.886719 C 429.09375 548.035156 431.414062 545.714844 434.269531 545.714844 C 437.121094 545.714844 439.441406 548.035156 439.441406 550.886719 C 439.441406 553.742188 437.121094 556.0625 434.269531 556.0625 " fill-opacity="1" fill-rule="nonzero"/><path fill="#14697d" d="M 441.261719 531.847656 C 439.367188 531.847656 437.824219 533.386719 437.824219 535.285156 C 437.824219 537.175781 439.367188 538.71875 441.261719 538.71875 C 443.160156 538.71875 444.699219 537.175781 444.699219 535.285156 C 444.699219 533.386719 443.160156 531.847656 441.261719 531.847656 Z M 441.261719 540.453125 C 438.414062 540.453125 436.089844 538.132812 436.089844 535.285156 C 436.089844 532.429688 438.414062 530.109375 441.261719 530.109375 C 444.113281 530.109375 446.4375 532.429688 446.4375 535.285156 C 446.4375 538.132812 444.113281 540.453125 441.261719 540.453125 " fill-opacity="1" fill-rule="nonzero"/><path fill="#14697d" d="M 425.65625 529.152344 C 423.765625 529.152344 422.21875 530.695312 422.21875 532.589844 C 422.21875 534.488281 423.765625 536.027344 425.65625 536.027344 C 427.554688 536.027344 429.09375 534.488281 429.09375 532.589844 C 429.09375 530.695312 427.554688 529.152344 425.65625 529.152344 Z M 425.65625 537.765625 C 422.804688 537.765625 420.484375 535.445312 420.484375 532.589844 C 420.484375 529.738281 422.804688 527.417969 425.65625 527.417969 C 428.511719 527.417969 430.832031 529.738281 430.832031 532.589844 C 430.832031 535.445312 428.511719 537.765625 425.65625 537.765625 " fill-opacity="1" fill-rule="nonzero"/><path fill="#14697d" d="M 424.042969 578.664062 C 422.148438 578.664062 420.605469 580.203125 420.605469 582.097656 C 420.605469 583.992188 422.148438 585.535156 424.042969 585.535156 C 425.941406 585.535156 427.480469 583.992188 427.480469 582.097656 C 427.480469 580.203125 425.941406 578.664062 424.042969 578.664062 Z M 424.042969 587.269531 C 421.191406 587.269531 418.871094 584.949219 418.871094 582.097656 C 418.871094 579.246094 421.191406 576.925781 424.042969 576.925781 C 426.894531 576.925781 429.21875 579.246094 429.21875 582.097656 C 429.21875 584.949219 426.894531 587.269531 424.042969 587.269531 " fill-opacity="1" fill-rule="nonzero"/><path fill="#14697d" d="M 615.277344 554.867188 C 615.273438 554.867188 615.265625 554.867188 615.261719 554.867188 L 560.300781 553.710938 C 559.824219 553.699219 559.441406 553.304688 559.449219 552.824219 C 559.460938 552.34375 559.863281 551.988281 560.339844 551.972656 L 615.296875 553.128906 C 615.777344 553.140625 616.15625 553.539062 616.144531 554.019531 C 616.136719 554.488281 615.75 554.867188 615.277344 554.867188 " fill-opacity="1" fill-rule="nonzero"/><path fill="#14697d" d="M 557.308594 601.917969 L 482.507812 601.917969 C 476.121094 601.917969 470.941406 596.738281 470.941406 590.351562 L 470.941406 517.28125 C 470.941406 510.890625 476.121094 505.710938 482.507812 505.710938 L 557.308594 505.710938 C 563.699219 505.710938 568.878906 510.890625 568.878906 517.28125 L 568.878906 590.351562 C 568.878906 596.738281 563.699219 601.917969 557.308594 601.917969 " fill-opacity="1" fill-rule="nonzero"/><path fill="#000000" d="M 482.511719 506.574219 C 476.613281 506.574219 471.808594 511.378906 471.808594 517.277344 L 471.808594 590.351562 C 471.808594 596.25 476.613281 601.050781 482.511719 601.050781 L 557.308594 601.050781 C 563.210938 601.050781 568.015625 596.25 568.015625 590.351562 L 568.015625 517.277344 C 568.015625 511.378906 563.210938 506.574219 557.308594 506.574219 Z M 557.308594 602.789062 L 482.511719 602.789062 C 475.65625 602.789062 470.074219 597.207031 470.074219 590.351562 L 470.074219 517.277344 C 470.074219 510.421875 475.65625 504.839844 482.511719 504.839844 L 557.308594 504.839844 C 564.167969 504.839844 569.75 510.421875 569.75 517.277344 L 569.75 590.351562 C 569.75 597.207031 564.167969 602.789062 557.308594 602.789062 " fill-opacity="1" fill-rule="nonzero"/><path fill="#ffbf23" d="M 545.8125 591.273438 L 493.160156 591.273438 C 486.765625 591.273438 481.589844 586.097656 481.589844 579.707031 L 481.589844 529.414062 C 481.589844 523.023438 486.765625 517.84375 493.160156 517.84375 L 545.8125 517.84375 C 552.207031 517.84375 557.382812 523.023438 557.382812 529.414062 L 557.382812 579.707031 C 557.382812 586.097656 552.207031 591.273438 545.8125 591.273438 " fill-opacity="1" fill-rule="nonzero"/><path fill="#000000" d="M 493.15625 518.710938 C 487.257812 518.710938 482.453125 523.515625 482.453125 529.414062 L 482.453125 579.707031 C 482.453125 585.605469 487.257812 590.410156 493.15625 590.410156 L 545.8125 590.410156 C 551.714844 590.410156 556.515625 585.605469 556.515625 579.707031 L 556.515625 529.414062 C 556.515625 523.515625 551.714844 518.710938 545.8125 518.710938 Z M 545.8125 592.144531 L 493.15625 592.144531 C 486.296875 592.144531 480.71875 586.566406 480.71875 579.707031 L 480.71875 529.414062 C 480.71875 522.558594 486.296875 516.976562 493.15625 516.976562 L 545.8125 516.976562 C 552.667969 516.976562 558.25 522.558594 558.25 529.414062 L 558.25 579.707031 C 558.25 586.566406 552.667969 592.144531 545.8125 592.144531 " fill-opacity="1" fill-rule="nonzero"/><path fill="#ffffff" d="M 504.445312 559.96875 L 513.535156 559.96875 L 508.976562 545.300781 Z M 515.976562 567.839844 L 502.003906 567.839844 L 499.566406 575.742188 L 488.667969 575.742188 L 504.179688 533.445312 L 513.769531 533.445312 L 529.398438 575.742188 L 518.445312 575.742188 L 515.976562 567.839844 " fill-opacity="1" fill-rule="nonzero"/><path fill="#ffffff" d="M 543.339844 575.742188 L 533.171875 575.742188 L 533.171875 533.445312 L 543.339844 533.445312 L 543.339844 575.742188 " fill-opacity="1" fill-rule="nonzero"/><path fill="#14697d" d="M 471.578125 466.289062 C 466.40625 467.707031 461.066406 464.65625 459.65625 459.484375 C 458.238281 454.308594 461.28125 448.96875 466.449219 447.550781 C 471.621094 446.136719 476.960938 449.183594 478.375 454.355469 C 479.792969 459.527344 476.746094 464.871094 471.578125 466.289062 Z M 488.324219 453.582031 L 487.328125 449.945312 L 483.214844 450.132812 C 482.832031 449.332031 482.390625 448.570312 481.890625 447.863281 L 484.070312 444.371094 L 481.390625 441.71875 L 477.917969 443.9375 C 477.195312 443.441406 476.4375 443.007812 475.640625 442.640625 L 475.785156 438.519531 L 472.132812 437.558594 L 470.242188 441.214844 C 469.378906 441.148438 468.5 441.15625 467.617188 441.234375 L 465.679688 437.597656 L 462.046875 438.59375 L 462.234375 442.710938 C 461.433594 443.089844 460.671875 443.535156 459.960938 444.03125 L 456.472656 441.855469 L 453.824219 444.535156 L 456.039062 448.007812 C 455.542969 448.730469 455.109375 449.492188 454.742188 450.289062 L 450.625 450.144531 L 449.671875 453.796875 L 453.320312 455.691406 C 453.253906 456.554688 453.261719 457.433594 453.339844 458.320312 L 449.707031 460.253906 L 450.699219 463.894531 L 454.816406 463.707031 C 455.195312 464.507812 455.636719 465.269531 456.132812 465.976562 L 453.960938 469.46875 L 456.636719 472.121094 L 460.109375 469.902344 C 460.832031 470.398438 461.59375 470.832031 462.386719 471.203125 L 462.246094 475.324219 L 465.890625 476.28125 L 467.785156 472.621094 C 468.648438 472.691406 469.53125 472.6875 470.414062 472.605469 L 472.347656 476.242188 L 475.984375 475.246094 L 475.796875 471.128906 C 476.597656 470.746094 477.355469 470.308594 478.066406 469.808594 L 481.554688 471.984375 L 484.207031 469.304688 L 481.984375 465.832031 C 482.480469 465.109375 482.917969 464.347656 483.289062 463.550781 L 487.402344 463.691406 L 488.359375 460.042969 L 484.707031 458.148438 C 484.777344 457.285156 484.769531 456.402344 484.6875 455.523438 L 488.324219 453.582031 " fill-opacity="1" fill-rule="nonzero"/><path fill="#ffffff" d="M 450.394531 304.078125 C 450.394531 317.816406 439.257812 328.957031 425.515625 328.957031 C 411.78125 328.957031 400.644531 317.816406 400.644531 304.078125 C 400.644531 290.339844 411.78125 279.203125 425.515625 279.203125 C 439.257812 279.203125 450.394531 290.339844 450.394531 304.078125 " fill-opacity="1" fill-rule="nonzero"/><path fill="#ffffff" d="M 418.003906 188.664062 C 353.40625 188.664062 300.851562 241.21875 300.851562 305.816406 C 300.851562 370.410156 353.40625 422.964844 418.003906 422.964844 C 482.597656 422.964844 535.152344 370.410156 535.152344 305.816406 C 535.152344 241.21875 482.597656 188.664062 418.003906 188.664062 Z M 418.003906 424.699219 C 352.449219 424.699219 299.117188 371.367188 299.117188 305.816406 C 299.117188 240.261719 352.449219 186.929688 418.003906 186.929688 C 483.554688 186.929688 536.886719 240.261719 536.886719 305.816406 C 536.886719 371.367188 483.554688 424.699219 418.003906 424.699219 " fill-opacity="1" fill-rule="nonzero"/><path fill="#ffffff" d="M 419.742188 222.785156 C 373.007812 222.785156 334.988281 260.808594 334.988281 307.539062 C 334.988281 354.273438 373.007812 392.292969 419.742188 392.292969 C 466.472656 392.292969 504.496094 354.273438 504.496094 307.539062 C 504.496094 260.808594 466.472656 222.785156 419.742188 222.785156 Z M 419.742188 394.027344 C 372.050781 394.027344 333.253906 355.230469 333.253906 307.539062 C 333.253906 259.851562 372.050781 221.050781 419.742188 221.050781 C 467.429688 221.050781 506.230469 259.851562 506.230469 307.539062 C 506.230469 355.230469 467.429688 394.027344 419.742188 394.027344 " fill-opacity="1" fill-rule="nonzero"/><path fill="#ffffff" d="M 424.660156 261.550781 C 401.054688 261.550781 381.851562 280.753906 381.851562 304.355469 C 381.851562 327.964844 401.054688 347.167969 424.660156 347.167969 C 448.265625 347.167969 467.46875 327.964844 467.46875 304.355469 C 467.46875 280.753906 448.265625 261.550781 424.660156 261.550781 Z M 424.660156 348.902344 C 400.097656 348.902344 380.117188 328.917969 380.117188 304.355469 C 380.117188 279.796875 400.097656 259.816406 424.660156 259.816406 C 449.222656 259.816406 469.203125 279.796875 469.203125 304.355469 C 469.203125 328.917969 449.222656 348.902344 424.660156 348.902344 " fill-opacity="1" fill-rule="nonzero"/><path fill="#14697d" d="M 517.195312 280.984375 C 507.144531 271.058594 506.996094 254.8125 516.863281 244.703125 C 526.730469 234.59375 542.878906 234.449219 552.929688 244.371094 C 562.980469 254.296875 563.128906 270.542969 553.265625 280.652344 C 543.394531 290.761719 527.246094 290.90625 517.195312 280.984375 " fill-opacity="1" fill-rule="nonzero"/><path fill="#ffffff" d="M 552.34375 261.304688 L 535.019531 279.050781 C 534.097656 279.992188 532.597656 280.007812 531.664062 279.085938 L 519.480469 267.050781 C 518.542969 266.125 518.53125 264.617188 519.445312 263.679688 L 536.777344 245.929688 C 537.691406 244.992188 539.191406 244.976562 540.128906 245.898438 L 552.3125 257.933594 C 553.25 258.855469 553.261719 260.363281 552.34375 261.304688 " fill-opacity="1" fill-rule="nonzero"/><path fill="#000000" d="M 538.464844 246.085938 C 538.457031 246.085938 538.457031 246.085938 538.453125 246.085938 C 538.050781 246.085938 537.671875 246.25 537.394531 246.535156 L 520.070312 264.285156 C 519.484375 264.882812 519.492188 265.847656 520.085938 266.433594 L 532.273438 278.46875 C 532.554688 278.746094 532.929688 278.902344 533.324219 278.902344 C 533.332031 278.902344 533.335938 278.902344 533.339844 278.902344 C 533.738281 278.898438 534.117188 278.738281 534.394531 278.449219 L 551.722656 260.703125 C 552.304688 260.101562 552.300781 259.136719 551.703125 258.550781 L 539.515625 246.519531 C 539.234375 246.238281 538.859375 246.085938 538.464844 246.085938 Z M 533.324219 280.636719 C 532.46875 280.636719 531.660156 280.304688 531.054688 279.703125 L 518.867188 267.667969 C 517.59375 266.414062 517.574219 264.351562 518.824219 263.074219 L 536.152344 245.324219 C 536.757812 244.703125 537.566406 244.359375 538.4375 244.347656 C 538.441406 244.347656 538.457031 244.347656 538.464844 244.347656 C 539.320312 244.347656 540.125 244.679688 540.734375 245.28125 L 552.925781 257.316406 C 554.191406 258.570312 554.210938 260.632812 552.964844 261.910156 L 535.640625 279.660156 C 535.03125 280.28125 534.222656 280.628906 533.355469 280.636719 C 533.34375 280.636719 533.335938 280.636719 533.324219 280.636719 " fill-opacity="1" fill-rule="nonzero"/><path fill="#000000" d="M 525.609375 266.382812 C 525.210938 266.382812 524.847656 266.105469 524.761719 265.699219 C 524.65625 265.234375 524.957031 264.769531 525.425781 264.667969 L 536.484375 262.246094 C 536.949219 262.140625 537.414062 262.441406 537.515625 262.910156 C 537.617188 263.378906 537.320312 263.839844 536.855469 263.941406 L 525.792969 266.363281 C 525.730469 266.375 525.667969 266.382812 525.609375 266.382812 " fill-opacity="1" fill-rule="nonzero"/><path fill="#000000" d="M 536.714844 263.914062 C 536.65625 263.914062 536.601562 263.910156 536.542969 263.898438 C 536.074219 263.804688 535.765625 263.347656 535.863281 262.878906 L 538.066406 251.714844 C 538.160156 251.246094 538.613281 250.933594 539.085938 251.03125 C 539.554688 251.125 539.859375 251.578125 539.765625 252.046875 L 537.566406 263.214844 C 537.484375 263.625 537.121094 263.914062 536.714844 263.914062 " fill-opacity="1" fill-rule="nonzero"/><path fill="#ffffff" d="M 476.792969 225.304688 C 466.261719 216.03125 465.195312 199.925781 474.417969 189.332031 C 483.636719 178.738281 499.652344 177.667969 510.179688 186.941406 C 520.714844 196.214844 521.78125 212.320312 512.558594 222.910156 C 503.34375 233.507812 487.328125 234.578125 476.792969 225.304688 " fill-opacity="1" fill-rule="nonzero"/><path fill="#000000" d="M 493.523438 181.496094 C 492.976562 181.496094 492.429688 181.515625 491.875 181.550781 C 485.347656 181.984375 479.382812 184.949219 475.070312 189.902344 C 466.179688 200.121094 467.210938 215.707031 477.371094 224.652344 C 482.285156 228.980469 488.585938 231.125 495.101562 230.691406 C 501.628906 230.253906 507.597656 227.289062 511.90625 222.339844 C 520.800781 212.121094 519.765625 196.53125 509.609375 187.59375 C 505.109375 183.628906 499.449219 181.496094 493.523438 181.496094 Z M 493.449219 232.484375 C 487.101562 232.484375 481.042969 230.199219 476.222656 225.953125 C 465.351562 216.382812 464.246094 199.695312 473.761719 188.765625 C 478.378906 183.460938 484.769531 180.285156 491.761719 179.820312 C 498.746094 179.351562 505.492188 181.652344 510.753906 186.285156 C 521.628906 195.859375 522.734375 212.546875 513.21875 223.480469 C 508.601562 228.785156 502.210938 231.957031 495.21875 232.421875 C 494.628906 232.464844 494.039062 232.484375 493.449219 232.484375 " fill-opacity="1" fill-rule="nonzero"/><path fill="#ffbf23" d="M 508.015625 206.179688 L 502.71875 205.464844 C 502.015625 205.386719 500.949219 205.855469 500.234375 207.222656 C 499.558594 208.503906 498.460938 210.539062 492.597656 208.785156 C 486.734375 207.035156 486.707031 204.6875 487.054688 203.285156 C 487.105469 203.070312 487.296875 201.191406 485.925781 200.441406 L 482.171875 198.640625 C 479.160156 197.332031 478.445312 200.480469 478.402344 200.660156 C 477.15625 205.695312 482.539062 211.347656 491.085938 213.902344 C 499.632812 216.457031 507.210938 214.679688 508.90625 209.777344 C 508.964844 209.605469 509.886719 206.515625 508.015625 206.179688 " fill-opacity="1" fill-rule="nonzero"/><path fill="#000000" d="M 480.820312 199.195312 C 480.613281 199.195312 480.425781 199.238281 480.257812 199.320312 C 479.566406 199.664062 479.292969 200.65625 479.246094 200.855469 C 478.117188 205.429688 483.3125 210.675781 491.335938 213.070312 C 499.347656 215.46875 506.550781 213.933594 508.082031 209.5 C 508.253906 208.976562 508.464844 207.730469 508.164062 207.226562 C 508.109375 207.136719 508.042969 207.074219 507.878906 207.039062 L 502.597656 206.324219 C 502.265625 206.292969 501.539062 206.601562 501 207.628906 C 499.921875 209.683594 498.125 211.351562 492.347656 209.621094 C 487.488281 208.167969 485.484375 206.027344 486.207031 203.078125 C 486.207031 203.078125 486.375 201.683594 485.507812 201.203125 L 481.796875 199.429688 C 481.441406 199.273438 481.109375 199.195312 480.820312 199.195312 Z M 498.605469 215.945312 C 496.207031 215.945312 493.574219 215.554688 490.835938 214.734375 C 481.769531 212.023438 476.1875 206.019531 477.558594 200.453125 C 477.699219 199.859375 478.171875 198.417969 479.484375 197.765625 C 480.363281 197.328125 481.382812 197.359375 482.515625 197.851562 L 486.300781 199.664062 C 488.148438 200.675781 488.019531 202.976562 487.894531 203.492188 C 487.707031 204.253906 487.207031 206.273438 492.84375 207.957031 C 498.050781 209.515625 498.867188 207.957031 499.460938 206.820312 C 500.410156 205.015625 501.859375 204.5 502.808594 204.601562 L 508.167969 205.328125 C 508.820312 205.445312 509.335938 205.800781 509.660156 206.351562 C 510.5 207.777344 509.730469 210.039062 509.722656 210.066406 C 508.417969 213.847656 504.148438 215.945312 498.605469 215.945312 " fill-opacity="1" fill-rule="nonzero"/><path fill="#ffffff" d="M 399.496094 211.449219 C 388.960938 202.175781 387.898438 186.070312 397.117188 175.480469 C 406.335938 164.882812 422.351562 163.8125 432.882812 173.085938 C 443.414062 182.359375 444.480469 198.464844 435.261719 209.058594 C 426.039062 219.648438 410.027344 220.71875 399.496094 211.449219 " fill-opacity="1" fill-rule="nonzero"/><path fill="#14697d" d="M 393.707031 203.414062 L 407 191.472656 C 408.09375 190.484375 409.765625 190.507812 410.835938 191.527344 L 420.898438 201.101562 L 426.878906 196.042969 C 427.800781 195.261719 429.113281 195.152344 430.152344 195.769531 L 439.414062 201.292969 C 433.628906 218.265625 407.59375 224.820312 393.707031 203.414062 " fill-opacity="1" fill-rule="nonzero"/><path fill="#000000" d="M 416.226562 167.644531 C 415.675781 167.644531 415.125 167.660156 414.574219 167.695312 C 408.046875 168.128906 402.082031 171.09375 397.773438 176.046875 C 388.878906 186.261719 389.910156 201.855469 400.066406 210.796875 C 404.984375 215.125 411.28125 217.269531 417.800781 216.835938 C 424.332031 216.402344 430.296875 213.4375 434.605469 208.484375 C 443.5 198.269531 442.46875 182.679688 432.308594 173.734375 C 427.808594 169.773438 422.148438 167.644531 416.226562 167.644531 Z M 416.152344 218.625 C 409.800781 218.625 403.742188 216.34375 398.921875 212.101562 C 388.046875 202.527344 386.945312 185.84375 396.464844 174.90625 C 401.074219 169.605469 407.46875 166.425781 414.460938 165.964844 C 421.441406 165.496094 428.191406 167.796875 433.457031 172.433594 C 444.328125 182.003906 445.429688 198.6875 435.914062 209.625 C 431.300781 214.929688 424.910156 218.105469 417.917969 218.566406 C 417.328125 218.609375 416.738281 218.625 416.152344 218.625 " fill-opacity="1" fill-rule="nonzero"/><path fill="#ffbf23" d="M 427.648438 185.867188 C 427.648438 188.101562 425.835938 189.914062 423.601562 189.914062 C 421.363281 189.914062 419.546875 188.101562 419.546875 185.867188 C 419.546875 183.628906 421.363281 181.816406 423.601562 181.816406 C 425.835938 181.816406 427.648438 183.628906 427.648438 185.867188 " fill-opacity="1" fill-rule="nonzero"/><path fill="#ffffff" d="M 485.515625 422.121094 C 474.984375 412.847656 473.917969 396.742188 483.136719 386.152344 C 492.355469 375.558594 508.371094 374.484375 518.902344 383.761719 C 529.433594 393.03125 530.5 409.136719 521.28125 419.730469 C 512.058594 430.324219 496.046875 431.394531 485.515625 422.121094 " fill-opacity="1" fill-rule="nonzero"/><path fill="#000000" d="M 502.242188 378.316406 C 501.695312 378.316406 501.144531 378.335938 500.59375 378.371094 C 494.066406 378.804688 488.097656 381.769531 483.789062 386.722656 C 474.898438 396.9375 475.925781 412.527344 486.089844 421.472656 C 491.003906 425.800781 497.304688 427.945312 503.820312 427.511719 C 510.347656 427.074219 516.316406 424.113281 520.625 419.160156 C 529.515625 408.945312 528.488281 393.351562 518.328125 384.410156 C 513.824219 380.449219 508.167969 378.316406 502.242188 378.316406 Z M 502.167969 429.300781 C 495.820312 429.300781 489.757812 427.019531 484.941406 422.777344 C 474.066406 413.203125 472.960938 396.519531 482.484375 385.578125 C 487.09375 380.28125 493.488281 377.101562 500.480469 376.640625 C 507.460938 376.175781 514.207031 378.46875 519.472656 383.105469 C 530.347656 392.679688 531.449219 409.367188 521.933594 420.300781 C 517.316406 425.601562 510.925781 428.777344 503.9375 429.242188 C 503.347656 429.28125 502.757812 429.300781 502.167969 429.300781 " fill-opacity="1" fill-rule="nonzero"/><path fill="#14697d" d="M 515.558594 397.914062 C 515.558594 404.171875 505.585938 419.210938 503.195312 422.726562 C 502.949219 423.085938 502.417969 423.085938 502.171875 422.726562 C 500.460938 420.210938 494.863281 411.785156 491.824219 404.90625 C 490.613281 402.179688 489.8125 399.691406 489.8125 397.914062 C 489.8125 390.804688 495.574219 385.042969 502.683594 385.042969 C 509.792969 385.042969 515.558594 390.804688 515.558594 397.914062 " fill-opacity="1" fill-rule="nonzero"/><path fill="#ffffff" d="M 508.570312 397.917969 C 508.570312 401.167969 505.933594 403.804688 502.683594 403.804688 C 499.429688 403.804688 496.796875 401.167969 496.796875 397.917969 C 496.796875 394.664062 499.429688 392.03125 502.683594 392.03125 C 505.933594 392.03125 508.570312 394.664062 508.570312 397.917969 " fill-opacity="1" fill-rule="nonzero"/><path fill="#000000" d="M 503.824219 403.992188 C 502.332031 403.992188 500.894531 403.5 499.695312 402.570312 C 498.269531 401.464844 497.363281 399.871094 497.136719 398.078125 C 497.074219 397.605469 497.414062 397.171875 497.886719 397.113281 C 498.367188 397.054688 498.796875 397.386719 498.855469 397.863281 C 499.023438 399.195312 499.699219 400.378906 500.761719 401.203125 C 501.816406 402.023438 503.132812 402.382812 504.464844 402.214844 C 505.792969 402.046875 506.976562 401.371094 507.800781 400.3125 C 508.625 399.257812 508.984375 397.941406 508.816406 396.609375 C 508.648438 395.277344 507.972656 394.09375 506.917969 393.273438 C 506.074219 392.617188 505.070312 392.257812 504.007812 392.21875 C 503.53125 392.203125 503.152344 391.800781 503.167969 391.324219 C 503.1875 390.84375 503.589844 390.46875 504.0625 390.484375 C 505.492188 390.535156 506.84375 391.023438 507.976562 391.898438 C 509.402344 393.007812 510.3125 394.601562 510.539062 396.390625 C 510.765625 398.183594 510.277344 399.953125 509.175781 401.378906 C 508.066406 402.800781 506.472656 403.710938 504.679688 403.9375 C 504.394531 403.972656 504.109375 403.992188 503.824219 403.992188 " fill-opacity="1" fill-rule="nonzero"/><path fill="#ffffff" d="M 526.703125 355.214844 C 516.167969 345.941406 515.101562 329.835938 524.324219 319.242188 C 533.542969 308.648438 549.554688 307.578125 560.085938 316.851562 C 570.617188 326.125 571.683594 342.226562 562.460938 352.820312 C 553.242188 363.414062 537.230469 364.484375 526.703125 355.214844 " fill-opacity="1" fill-rule="nonzero"/><path fill="#000000" d="M 543.429688 311.40625 C 542.878906 311.40625 542.335938 311.425781 541.78125 311.460938 C 535.253906 311.890625 529.285156 314.859375 524.976562 319.808594 C 516.085938 330.027344 517.117188 345.617188 527.273438 354.558594 C 532.191406 358.890625 538.496094 361.035156 545.011719 360.601562 C 551.539062 360.164062 557.503906 357.199219 561.8125 352.25 C 570.707031 342.035156 569.675781 326.441406 559.515625 317.5 C 555.011719 313.539062 549.355469 311.40625 543.429688 311.40625 Z M 543.359375 362.390625 C 537.007812 362.390625 530.949219 360.105469 526.128906 355.863281 C 515.253906 346.292969 514.152344 329.605469 523.667969 318.667969 C 528.28125 313.367188 534.675781 310.195312 541.664062 309.726562 C 548.65625 309.265625 555.394531 311.558594 560.660156 316.195312 C 571.535156 325.769531 572.640625 342.453125 563.121094 353.390625 C 558.503906 358.691406 552.117188 361.867188 545.125 362.328125 C 544.53125 362.371094 543.945312 362.390625 543.359375 362.390625 " fill-opacity="1" fill-rule="nonzero"/><path fill="#ffbf23" d="M 534.789062 348.492188 L 529.332031 348.492188 L 529.332031 324.558594 L 534.789062 324.558594 L 534.789062 348.492188 " fill-opacity="1" fill-rule="nonzero"/><path fill="#ffbf23" d="M 542.347656 348.074219 L 536.890625 348.074219 L 536.890625 330.71875 L 542.347656 330.71875 L 542.347656 348.074219 " fill-opacity="1" fill-rule="nonzero"/><path fill="#ffbf23" d="M 549.90625 347.65625 L 544.445312 347.65625 L 544.445312 335.898438 L 549.90625 335.898438 L 549.90625 347.65625 " fill-opacity="1" fill-rule="nonzero"/><path fill="#ffbf23" d="M 557.882812 347.65625 L 552.421875 347.65625 L 552.421875 324 L 557.882812 324 L 557.882812 347.65625 " fill-opacity="1" fill-rule="nonzero"/><path fill="#ffffff" d="M 572.390625 270.148438 C 572.078125 270.148438 571.78125 269.984375 571.625 269.695312 C 571.410156 269.296875 571.195312 268.917969 570.988281 268.558594 C 570.746094 268.148438 570.886719 267.613281 571.300781 267.375 C 571.714844 267.132812 572.25 267.273438 572.484375 267.683594 C 572.703125 268.054688 572.925781 268.449219 573.148438 268.863281 C 573.378906 269.285156 573.226562 269.8125 572.804688 270.042969 C 572.671875 270.113281 572.527344 270.148438 572.390625 270.148438 Z M 577.855469 282.902344 C 577.492188 282.902344 577.15625 282.675781 577.03125 282.316406 C 576.25 280.0625 575.421875 277.898438 574.570312 275.886719 C 574.386719 275.445312 574.59375 274.9375 575.035156 274.75 C 575.472656 274.566406 575.980469 274.769531 576.167969 275.210938 C 577.035156 277.257812 577.875 279.457031 578.671875 281.746094 C 578.832031 282.199219 578.589844 282.695312 578.136719 282.855469 C 578.042969 282.886719 577.945312 282.902344 577.855469 282.902344 Z M 581.710938 296.234375 C 581.316406 296.234375 580.960938 295.964844 580.867188 295.566406 C 580.328125 293.300781 579.738281 291.054688 579.117188 288.890625 C 578.984375 288.429688 579.25 287.949219 579.710938 287.816406 C 580.171875 287.6875 580.648438 287.949219 580.785156 288.410156 C 581.414062 290.601562 582.011719 292.871094 582.558594 295.167969 C 582.667969 295.632812 582.378906 296.097656 581.914062 296.210938 C 581.84375 296.226562 581.777344 296.234375 581.710938 296.234375 Z M 584.332031 309.867188 C 583.910156 309.867188 583.542969 309.554688 583.476562 309.125 C 583.132812 306.835938 582.746094 304.546875 582.316406 302.316406 C 582.226562 301.847656 582.53125 301.394531 583.007812 301.300781 C 583.476562 301.210938 583.929688 301.519531 584.019531 301.988281 C 584.453125 304.242188 584.84375 306.554688 585.195312 308.867188 C 585.265625 309.34375 584.9375 309.785156 584.464844 309.855469 C 584.421875 309.863281 584.375 309.867188 584.332031 309.867188 Z M 585.84375 323.664062 C 585.394531 323.664062 585.011719 323.316406 584.976562 322.859375 C 584.816406 320.5625 584.609375 318.246094 584.359375 315.976562 C 584.308594 315.5 584.65625 315.074219 585.128906 315.019531 C 585.601562 314.972656 586.035156 315.308594 586.085938 315.789062 C 586.335938 318.082031 586.546875 320.417969 586.710938 322.738281 C 586.746094 323.210938 586.382812 323.628906 585.90625 323.664062 C 585.886719 323.664062 585.863281 323.664062 585.84375 323.664062 Z M 586.308594 337.539062 C 586.308594 337.539062 586.308594 337.539062 586.304688 337.539062 C 585.824219 337.539062 585.4375 337.148438 585.441406 336.671875 L 585.441406 336.078125 C 585.441406 333.972656 585.40625 331.847656 585.335938 329.757812 C 585.320312 329.277344 585.695312 328.878906 586.175781 328.863281 C 586.636719 328.828125 587.058594 329.222656 587.074219 329.699219 C 587.140625 331.808594 587.175781 333.957031 587.175781 336.078125 L 587.175781 336.671875 C 587.175781 337.152344 586.789062 337.539062 586.308594 337.539062 Z M 585.773438 351.414062 C 585.757812 351.414062 585.734375 351.410156 585.710938 351.410156 C 585.234375 351.371094 584.875 350.957031 584.910156 350.480469 C 585.078125 348.1875 585.207031 345.863281 585.296875 343.578125 C 585.316406 343.097656 585.710938 342.730469 586.195312 342.746094 C 586.675781 342.765625 587.046875 343.167969 587.027344 343.644531 C 586.941406 345.949219 586.8125 348.292969 586.640625 350.605469 C 586.605469 351.0625 586.226562 351.414062 585.773438 351.414062 Z M 584.285156 365.210938 C 584.25 365.210938 584.203125 365.207031 584.164062 365.203125 C 583.691406 365.140625 583.359375 364.699219 583.429688 364.222656 C 583.75 361.949219 584.039062 359.640625 584.285156 357.363281 C 584.335938 356.886719 584.765625 356.542969 585.242188 356.59375 C 585.71875 356.648438 586.0625 357.074219 586.007812 357.546875 C 585.761719 359.84375 585.46875 362.171875 585.148438 364.46875 C 585.085938 364.902344 584.714844 365.210938 584.285156 365.210938 Z M 581.886719 378.882812 C 581.828125 378.882812 581.765625 378.878906 581.707031 378.867188 C 581.238281 378.765625 580.941406 378.308594 581.035156 377.839844 C 581.195312 377.085938 581.347656 376.332031 581.5 375.570312 C 581.796875 374.066406 582.078125 372.546875 582.34375 371.050781 C 582.425781 370.578125 582.878906 370.261719 583.347656 370.34375 C 583.820312 370.429688 584.132812 370.878906 584.050781 371.347656 C 583.789062 372.855469 583.503906 374.394531 583.203125 375.90625 C 583.054688 376.671875 582.898438 377.433594 582.734375 378.195312 C 582.648438 378.605469 582.289062 378.882812 581.886719 378.882812 Z M 578.472656 392.335938 C 578.390625 392.335938 578.304688 392.324219 578.222656 392.296875 C 577.765625 392.160156 577.5 391.679688 577.640625 391.21875 C 578.292969 389.039062 578.910156 386.800781 579.472656 384.5625 C 579.59375 384.101562 580.066406 383.820312 580.53125 383.9375 C 580.996094 384.054688 581.277344 384.527344 581.160156 384.992188 C 580.585938 387.25 579.964844 389.511719 579.304688 391.714844 C 579.191406 392.089844 578.847656 392.335938 578.472656 392.335938 Z M 573.910156 405.4375 C 573.804688 405.4375 573.691406 405.414062 573.582031 405.375 C 573.140625 405.191406 572.925781 404.691406 573.105469 404.25 C 573.949219 402.136719 574.761719 399.960938 575.519531 397.785156 C 575.675781 397.332031 576.167969 397.089844 576.625 397.25 C 577.074219 397.40625 577.316406 397.902344 577.160156 398.351562 C 576.394531 400.558594 575.570312 402.757812 574.714844 404.890625 C 574.578125 405.230469 574.253906 405.4375 573.910156 405.4375 Z M 568.128906 418.046875 C 567.992188 418.046875 567.859375 418.019531 567.730469 417.949219 C 567.304688 417.726562 567.140625 417.203125 567.359375 416.777344 C 568.410156 414.761719 569.425781 412.675781 570.386719 410.582031 C 570.585938 410.144531 571.101562 409.957031 571.535156 410.15625 C 571.96875 410.355469 572.164062 410.871094 571.960938 411.304688 C 570.992188 413.425781 569.964844 415.535156 568.902344 417.582031 C 568.746094 417.878906 568.445312 418.046875 568.128906 418.046875 Z M 561.109375 430 C 560.949219 430 560.78125 429.949219 560.632812 429.851562 C 560.230469 429.589844 560.121094 429.050781 560.386719 428.652344 C 561.644531 426.753906 562.863281 424.789062 564.023438 422.8125 C 564.269531 422.398438 564.800781 422.257812 565.214844 422.503906 C 565.625 422.746094 565.761719 423.277344 565.523438 423.691406 C 564.347656 425.691406 563.105469 427.683594 561.832031 429.609375 C 561.667969 429.859375 561.394531 430 561.109375 430 Z M 552.859375 441.136719 C 552.664062 441.136719 552.46875 441.070312 552.308594 440.9375 C 551.9375 440.632812 551.886719 440.082031 552.1875 439.714844 C 553.648438 437.953125 555.078125 436.128906 556.441406 434.292969 C 556.722656 433.902344 557.265625 433.824219 557.65625 434.109375 C 558.039062 434.394531 558.121094 434.9375 557.835938 435.324219 C 556.457031 437.1875 555.007812 439.035156 553.527344 440.820312 C 553.355469 441.03125 553.105469 441.136719 552.859375 441.136719 Z M 543.433594 451.332031 C 543.207031 451.332031 542.984375 451.246094 542.8125 451.066406 C 542.476562 450.726562 542.488281 450.175781 542.832031 449.839844 C 544.476562 448.246094 546.097656 446.582031 547.648438 444.902344 C 547.976562 444.550781 548.527344 444.53125 548.878906 444.855469 C 549.230469 445.179688 549.253906 445.730469 548.925781 446.082031 C 547.351562 447.785156 545.707031 449.464844 544.039062 451.085938 C 543.867188 451.25 543.652344 451.332031 543.433594 451.332031 Z M 532.984375 460.449219 C 532.722656 460.449219 532.46875 460.332031 532.300781 460.113281 C 532.003906 459.738281 532.070312 459.191406 532.445312 458.894531 C 534.25 457.484375 536.035156 456.007812 537.757812 454.503906 C 538.121094 454.191406 538.667969 454.230469 538.984375 454.589844 C 539.296875 454.953125 539.257812 455.5 538.898438 455.816406 C 537.15625 457.335938 535.34375 458.832031 533.515625 460.261719 C 533.359375 460.386719 533.171875 460.449219 532.984375 460.449219 Z M 521.644531 468.4375 C 521.355469 468.4375 521.078125 468.296875 520.910156 468.035156 C 520.65625 467.628906 520.777344 467.089844 521.179688 466.835938 C 523.121094 465.609375 525.054688 464.316406 526.914062 463.007812 C 527.304688 462.730469 527.84375 462.824219 528.125 463.21875 C 528.398438 463.609375 528.304688 464.148438 527.910156 464.425781 C 526.027344 465.753906 524.074219 467.058594 522.109375 468.304688 C 521.964844 468.390625 521.804688 468.4375 521.644531 468.4375 Z M 509.585938 475.296875 C 509.273438 475.296875 508.964844 475.125 508.8125 474.824219 C 508.59375 474.394531 508.765625 473.875 509.195312 473.65625 C 511.25 472.609375 513.292969 471.507812 515.265625 470.386719 C 515.679688 470.148438 516.214844 470.292969 516.449219 470.710938 C 516.6875 471.128906 516.542969 471.660156 516.121094 471.894531 C 514.128906 473.03125 512.058594 474.144531 509.980469 475.203125 C 509.855469 475.269531 509.71875 475.296875 509.585938 475.296875 Z M 496.96875 481.058594 C 496.625 481.058594 496.300781 480.855469 496.160156 480.519531 C 495.984375 480.078125 496.195312 479.570312 496.636719 479.390625 C 498.78125 478.519531 500.90625 477.597656 502.976562 476.65625 C 503.414062 476.457031 503.929688 476.648438 504.128906 477.085938 C 504.324219 477.519531 504.132812 478.035156 503.699219 478.234375 C 501.609375 479.1875 499.453125 480.117188 497.292969 480.996094 C 497.1875 481.039062 497.074219 481.058594 496.96875 481.058594 Z M 483.921875 485.796875 C 483.558594 485.796875 483.214844 485.5625 483.101562 485.195312 C 482.953125 484.738281 483.203125 484.246094 483.660156 484.101562 C 485.847656 483.398438 488.050781 482.644531 490.199219 481.867188 C 490.644531 481.707031 491.144531 481.941406 491.308594 482.390625 C 491.46875 482.839844 491.234375 483.339844 490.785156 483.5 C 488.621094 484.285156 486.402344 485.042969 484.191406 485.753906 C 484.101562 485.78125 484.015625 485.796875 483.921875 485.796875 Z M 470.574219 489.578125 C 470.183594 489.578125 469.828125 489.316406 469.734375 488.921875 C 469.617188 488.453125 469.902344 487.984375 470.367188 487.871094 C 472.617188 487.3125 474.863281 486.714844 477.042969 486.097656 C 477.507812 485.96875 477.988281 486.238281 478.117188 486.699219 C 478.246094 487.160156 477.976562 487.636719 477.519531 487.769531 C 475.320312 488.390625 473.050781 488.992188 470.78125 489.554688 C 470.710938 489.570312 470.644531 489.578125 470.574219 489.578125 Z M 457.007812 492.496094 C 456.597656 492.496094 456.230469 492.203125 456.152344 491.785156 C 456.066406 491.316406 456.378906 490.863281 456.851562 490.777344 C 459.125 490.359375 461.40625 489.902344 463.632812 489.421875 C 464.097656 489.324219 464.5625 489.621094 464.660156 490.089844 C 464.761719 490.558594 464.464844 491.019531 463.996094 491.121094 C 461.753906 491.601562 459.453125 492.0625 457.164062 492.484375 C 457.109375 492.492188 457.058594 492.496094 457.007812 492.496094 Z M 443.296875 494.632812 C 442.863281 494.632812 442.488281 494.316406 442.433594 493.878906 C 442.371094 493.40625 442.707031 492.96875 443.183594 492.90625 C 445.488281 492.609375 447.796875 492.28125 450.03125 491.933594 C 450.5 491.863281 450.949219 492.183594 451.023438 492.65625 C 451.09375 493.128906 450.773438 493.574219 450.300781 493.648438 C 448.046875 494 445.726562 494.328125 443.40625 494.628906 C 443.367188 494.632812 443.328125 494.632812 443.296875 494.632812 " fill-opacity="1" fill-rule="nonzero"/><path fill="#ffffff" d="M 270.425781 609.550781 C 263.195312 611.53125 255.726562 607.273438 253.746094 600.035156 C 251.769531 592.800781 256.023438 585.328125 263.253906 583.347656 C 270.484375 581.367188 277.953125 585.625 279.933594 592.863281 C 281.914062 600.097656 277.65625 607.570312 270.425781 609.550781 Z M 293.847656 591.785156 L 292.453125 586.695312 L 286.699219 586.957031 C 286.167969 585.835938 285.550781 584.773438 284.851562 583.78125 L 287.898438 578.894531 L 284.148438 575.1875 L 279.296875 578.292969 C 278.285156 577.597656 277.21875 576.988281 276.109375 576.472656 L 276.304688 570.714844 L 271.207031 569.375 L 268.558594 574.484375 C 267.347656 574.390625 266.121094 574.402344 264.886719 574.511719 L 262.179688 569.425781 L 257.09375 570.816406 L 257.355469 576.574219 C 256.234375 577.109375 255.171875 577.726562 254.179688 578.425781 L 249.300781 575.378906 L 245.59375 579.128906 L 248.695312 583.984375 C 248.003906 584.996094 247.394531 586.0625 246.878906 587.175781 L 241.121094 586.976562 L 239.785156 592.082031 L 244.890625 594.730469 C 244.796875 595.941406 244.808594 597.167969 244.917969 598.40625 L 239.835938 601.113281 L 241.226562 606.203125 L 246.980469 605.941406 C 247.511719 607.0625 248.128906 608.125 248.828125 609.117188 L 245.785156 614.003906 L 249.53125 617.710938 L 254.382812 614.605469 C 255.394531 615.300781 256.460938 615.910156 257.574219 616.425781 L 257.375 622.1875 L 262.472656 623.523438 L 265.121094 618.414062 C 266.332031 618.507812 267.558594 618.496094 268.796875 618.386719 L 271.5 623.472656 L 276.585938 622.082031 L 276.324219 616.324219 C 277.445312 615.789062 278.507812 615.171875 279.5 614.472656 L 284.378906 617.519531 L 288.085938 613.769531 L 284.984375 608.914062 C 285.675781 607.902344 286.285156 606.835938 286.800781 605.722656 L 292.558594 605.921875 L 293.894531 600.820312 L 288.789062 598.167969 C 288.882812 596.957031 288.875 595.730469 288.761719 594.492188 L 293.847656 591.785156 " fill-opacity="1" fill-rule="nonzero"/><path fill="#000000" d="M 335.707031 195.585938 C 334.3125 195.585938 332.972656 195.117188 331.871094 194.234375 C 330.589844 193.203125 329.789062 191.742188 329.609375 190.109375 C 329.242188 186.738281 331.683594 183.699219 335.050781 183.332031 C 335.523438 183.28125 335.957031 183.621094 336.007812 184.101562 C 336.0625 184.578125 335.714844 185.007812 335.238281 185.058594 C 332.820312 185.320312 331.070312 187.503906 331.335938 189.917969 C 331.460938 191.089844 332.039062 192.140625 332.957031 192.878906 C 333.875 193.617188 335.027344 193.957031 336.199219 193.824219 C 338.613281 193.558594 340.367188 191.378906 340.101562 188.960938 C 340.046875 188.484375 340.394531 188.054688 340.871094 188.003906 C 341.34375 187.953125 341.773438 188.296875 341.828125 188.773438 C 342.195312 192.140625 339.753906 195.179688 336.382812 195.550781 C 336.15625 195.574219 335.929688 195.585938 335.707031 195.585938 " fill-opacity="1" fill-rule="nonzero"/><path fill="#000000" d="M 222.503906 574.058594 C 221.914062 574.058594 221.328125 574.171875 220.765625 574.402344 C 219.640625 574.867188 218.761719 575.742188 218.292969 576.867188 C 217.824219 577.992188 217.820312 579.230469 218.285156 580.359375 C 218.746094 581.484375 219.621094 582.363281 220.746094 582.832031 C 221.871094 583.304688 223.113281 583.304688 224.238281 582.839844 C 225.367188 582.375 226.246094 581.5 226.714844 580.378906 C 227.683594 578.058594 226.582031 575.378906 224.257812 574.410156 C 223.691406 574.175781 223.097656 574.058594 222.503906 574.058594 Z M 222.503906 584.925781 C 221.679688 584.925781 220.859375 584.761719 220.078125 584.433594 C 218.527344 583.789062 217.320312 582.574219 216.679688 581.015625 C 216.039062 579.464844 216.042969 577.75 216.691406 576.199219 C 217.335938 574.644531 218.550781 573.4375 220.105469 572.796875 C 221.664062 572.160156 223.375 572.160156 224.925781 572.808594 C 228.132812 574.144531 229.652344 577.839844 228.316406 581.046875 C 227.667969 582.597656 226.457031 583.804688 224.898438 584.445312 C 224.125 584.761719 223.3125 584.925781 222.503906 584.925781 " fill-opacity="1" fill-rule="nonzero"/><path fill="#ffffff" d="M 326.78125 612.472656 L 322.574219 627.925781 L 334.289062 629.878906 L 338.191406 616.214844 L 326.78125 612.472656 " fill-opacity="1" fill-rule="nonzero"/><path fill="#000000" d="M 323.664062 627.226562 L 333.664062 628.894531 L 337.128906 616.777344 L 327.378906 613.582031 Z M 334.289062 630.746094 C 334.238281 630.746094 334.191406 630.742188 334.144531 630.734375 L 322.433594 628.78125 C 322.191406 628.742188 321.976562 628.601562 321.84375 628.394531 C 321.710938 628.191406 321.671875 627.9375 321.738281 627.699219 L 325.945312 612.242188 C 326.007812 612.011719 326.160156 611.820312 326.371094 611.707031 C 326.578125 611.59375 326.824219 611.570312 327.050781 611.648438 L 338.460938 615.390625 C 338.90625 615.535156 339.15625 616.003906 339.027344 616.453125 L 335.121094 630.117188 C 335.015625 630.496094 334.671875 630.746094 334.289062 630.746094 " fill-opacity="1" fill-rule="nonzero"/><path fill="#ffffff" d="M 395.496094 609.953125 L 394.765625 626.347656 L 407.507812 625.648438 L 411.109375 608.339844 L 395.496094 609.953125 " fill-opacity="1" fill-rule="nonzero"/><path fill="#000000" d="M 396.328125 610.738281 L 395.675781 625.425781 L 406.792969 624.820312 L 410.015625 609.324219 Z M 394.765625 627.210938 C 394.539062 627.210938 394.320312 627.121094 394.15625 626.960938 C 393.980469 626.789062 393.890625 626.550781 393.902344 626.304688 L 394.628906 609.914062 C 394.644531 609.484375 394.976562 609.132812 395.40625 609.089844 L 411.019531 607.476562 C 411.292969 607.449219 411.566406 607.550781 411.753906 607.757812 C 411.941406 607.964844 412.015625 608.246094 411.957031 608.519531 L 408.355469 625.824219 C 408.277344 626.210938 407.945312 626.496094 407.554688 626.515625 L 394.816406 627.210938 C 394.800781 627.210938 394.785156 627.210938 394.765625 627.210938 " fill-opacity="1" fill-rule="nonzero"/><path fill="#14697d" d="M 349.367188 441.867188 C 349.367188 441.867188 342.730469 458.453125 341.445312 475.457031 C 340.160156 492.457031 324.367188 604.394531 322.820312 614.859375 C 322.820312 614.859375 333.066406 619.941406 339.820312 618.851562 C 339.820312 618.851562 373.980469 550.515625 380.171875 493.929688 C 386.363281 437.347656 384.550781 441.867188 384.550781 441.867188 L 349.367188 441.867188 " fill-opacity="1" fill-rule="nonzero"/><path fill="#14697d" d="M 361.070312 448.234375 C 361.070312 448.234375 358.941406 478.882812 369.582031 500.546875 C 380.222656 522.214844 394.59375 593.335938 392.164062 615.15625 C 392.164062 615.15625 405.632812 618.714844 412.015625 616.214844 C 412.015625 616.214844 431.289062 507.492188 406.632812 447.800781 L 361.070312 448.234375 " fill-opacity="1" fill-rule="nonzero"/><path fill="#ffffff" d="M 321.273438 625.324219 L 319.554688 634.484375 C 318.957031 637.65625 320.695312 640.828125 323.714844 641.984375 C 327.882812 643.585938 334.238281 645.386719 341.445312 645.234375 C 347.976562 645.09375 353.449219 644.820312 357.234375 644.582031 C 359.234375 644.457031 360.011719 641.914062 358.425781 640.6875 L 336.890625 624.023438 L 332.011719 627.925781 L 321.273438 625.324219 " fill-opacity="1" fill-rule="nonzero"/><path fill="#000000" d="M 321.957031 626.382812 L 320.40625 634.644531 C 319.882812 637.421875 321.40625 640.167969 324.023438 641.175781 C 328.039062 642.714844 334.316406 644.523438 341.425781 644.367188 C 348.125 644.222656 353.691406 643.933594 357.179688 643.714844 C 358.011719 643.660156 358.28125 643 358.34375 642.796875 C 358.40625 642.59375 358.558594 641.890625 357.894531 641.375 L 336.902344 625.125 L 332.550781 628.605469 C 332.34375 628.769531 332.066406 628.832031 331.804688 628.769531 Z M 340.582031 646.109375 C 333.550781 646.109375 327.394531 644.324219 323.402344 642.796875 C 320 641.492188 318.023438 637.925781 318.699219 634.320312 L 320.421875 625.164062 C 320.464844 624.929688 320.601562 624.726562 320.804688 624.597656 C 321.003906 624.464844 321.246094 624.425781 321.476562 624.480469 L 331.800781 626.984375 L 336.347656 623.34375 C 336.660156 623.09375 337.105469 623.09375 337.421875 623.335938 L 358.953125 640 C 359.96875 640.785156 360.378906 642.082031 360.003906 643.308594 C 359.628906 644.527344 358.5625 645.367188 357.285156 645.449219 C 353.78125 645.667969 348.191406 645.957031 341.464844 646.101562 C 341.167969 646.105469 340.875 646.109375 340.582031 646.109375 " fill-opacity="1" fill-rule="nonzero"/><path fill="#000000" d="M 339.351562 635.5 C 339.21875 635.5 339.082031 635.46875 338.957031 635.402344 C 338.527344 635.179688 338.363281 634.660156 338.585938 634.230469 L 341.398438 628.828125 C 341.617188 628.402344 342.140625 628.238281 342.566406 628.457031 C 342.992188 628.679688 343.15625 629.203125 342.9375 629.628906 L 340.125 635.035156 C 339.96875 635.332031 339.667969 635.5 339.351562 635.5 " fill-opacity="1" fill-rule="nonzero"/><path fill="#000000" d="M 344.65625 637.871094 C 344.53125 637.871094 344.402344 637.847656 344.28125 637.785156 C 343.847656 637.578125 343.671875 637.058594 343.878906 636.625 L 346.328125 631.554688 C 346.535156 631.121094 347.054688 630.9375 347.484375 631.148438 C 347.917969 631.355469 348.097656 631.878906 347.890625 632.304688 L 345.441406 637.382812 C 345.289062 637.691406 344.980469 637.871094 344.65625 637.871094 " fill-opacity="1" fill-rule="nonzero"/><path fill="#ffffff" d="M 393.984375 622.859375 C 393.984375 622.859375 393.308594 628.585938 393.484375 634.285156 C 393.558594 636.75 395.480469 638.761719 397.9375 638.972656 C 404.867188 639.566406 418.878906 640.304688 432.09375 638.1875 C 433.507812 637.960938 434.15625 636.277344 433.25 635.171875 C 430.542969 631.871094 423.886719 625.886719 408.703125 620.6875 L 404.230469 624.023438 C 404.230469 624.023438 400.402344 621.410156 393.984375 622.859375 " fill-opacity="1" fill-rule="nonzero"/><path fill="#000000" d="M 394.78125 623.578125 C 394.617188 625.203125 394.214844 629.765625 394.351562 634.257812 C 394.414062 636.277344 395.988281 637.933594 398.011719 638.105469 C 405.089844 638.714844 418.910156 639.421875 431.957031 637.328125 C 432.3125 637.273438 432.605469 637.039062 432.734375 636.695312 C 432.792969 636.535156 432.902344 636.117188 432.578125 635.722656 C 430.074219 632.667969 423.667969 626.800781 408.855469 621.660156 L 404.75 624.71875 C 404.453125 624.9375 404.046875 624.945312 403.742188 624.738281 C 403.710938 624.71875 400.351562 622.527344 394.78125 623.578125 Z M 412.507812 640.464844 C 406.574219 640.464844 401.394531 640.136719 397.867188 639.835938 C 394.960938 639.585938 392.707031 637.210938 392.617188 634.3125 C 392.445312 628.613281 393.117188 622.8125 393.121094 622.753906 C 393.167969 622.390625 393.433594 622.089844 393.792969 622.011719 C 399.167969 620.796875 402.839844 622.285156 404.171875 622.984375 L 408.183594 619.992188 C 408.414062 619.820312 408.710938 619.773438 408.984375 619.867188 C 424.515625 625.183594 431.273438 631.394531 433.917969 634.621094 C 434.542969 635.382812 434.707031 636.386719 434.355469 637.3125 C 434.003906 638.242188 433.210938 638.890625 432.230469 639.042969 C 425.519531 640.121094 418.613281 640.464844 412.507812 640.464844 " fill-opacity="1" fill-rule="nonzero"/><path fill="#000000" d="M 411.109375 631.78125 C 410.90625 631.78125 410.703125 631.707031 410.535156 631.566406 C 410.175781 631.246094 410.140625 630.699219 410.457031 630.339844 L 416.503906 623.449219 C 416.816406 623.089844 417.367188 623.054688 417.726562 623.367188 C 418.085938 623.683594 418.121094 624.234375 417.804688 624.59375 L 411.761719 631.484375 C 411.589844 631.679688 411.347656 631.78125 411.109375 631.78125 " fill-opacity="1" fill-rule="nonzero"/><path fill="#000000" d="M 416.960938 632.804688 C 416.765625 632.804688 416.574219 632.742188 416.414062 632.613281 C 416.042969 632.308594 415.984375 631.765625 416.289062 631.394531 L 420.734375 625.933594 C 421.035156 625.5625 421.582031 625.507812 421.953125 625.808594 C 422.324219 626.109375 422.382812 626.660156 422.082031 627.03125 L 417.632812 632.488281 C 417.460938 632.699219 417.210938 632.804688 416.960938 632.804688 " fill-opacity="1" fill-rule="nonzero"/><path fill="#000000" d="M 375.027344 515.628906 C 374.667969 515.628906 374.328125 515.402344 374.207031 515.042969 C 374.183594 514.980469 371.984375 508.601562 366.683594 497.507812 C 361.289062 486.210938 360.082031 472.132812 360.03125 471.539062 C 359.992188 471.0625 360.347656 470.640625 360.828125 470.601562 C 361.3125 470.574219 361.722656 470.921875 361.761719 471.398438 C 361.773438 471.539062 362.996094 485.757812 368.253906 496.761719 C 373.601562 507.957031 375.828125 514.417969 375.847656 514.480469 C 376.003906 514.933594 375.761719 515.429688 375.308594 515.582031 C 375.21875 515.617188 375.121094 515.628906 375.027344 515.628906 " fill-opacity="1" fill-rule="nonzero"/><path fill="#ffffff" d="M 366.816406 356.539062 L 369.9375 339.429688 L 383.871094 343.015625 L 381.949219 354.925781 L 366.816406 356.539062 " fill-opacity="1" fill-rule="nonzero"/><path fill="#000000" d="M 370.621094 340.503906 L 367.878906 355.550781 L 381.199219 354.132812 L 382.890625 343.660156 Z M 366.816406 357.40625 C 366.578125 357.40625 366.347656 357.304688 366.183594 357.128906 C 365.996094 356.929688 365.914062 356.652344 365.964844 356.382812 L 369.082031 339.273438 C 369.125 339.039062 369.261719 338.832031 369.464844 338.699219 C 369.667969 338.570312 369.917969 338.53125 370.152344 338.589844 L 384.089844 342.175781 C 384.523438 342.285156 384.804688 342.710938 384.730469 343.15625 L 382.804688 355.0625 C 382.746094 355.449219 382.433594 355.75 382.042969 355.789062 L 366.910156 357.402344 C 366.878906 357.402344 366.847656 357.40625 366.816406 357.40625 " fill-opacity="1" fill-rule="nonzero"/><path fill="#000000" d="M 381.421875 316.390625 C 376.441406 317.066406 375.757812 322.691406 369.808594 323.351562 C 367.078125 323.65625 365.707031 322.640625 363.292969 323.800781 C 361.691406 324.570312 359.363281 326.421875 359.121094 328.875 C 358.820312 331.996094 362.242188 332.667969 365.738281 338.675781 C 368.191406 342.890625 368.339844 345.714844 370.292969 346.023438 C 372.265625 346.328125 373.148438 343.605469 375.332031 343.78125 C 378.152344 344.007812 378.519531 348.71875 381.5 350.125 C 383.378906 351.011719 387.308594 350.824219 392.863281 346.667969 C 393.761719 345.992188 394.054688 344.773438 393.554688 343.765625 C 392.914062 342.476562 392.089844 340.851562 391.179688 339.363281 C 386.824219 332.277344 383.753906 331.082031 384.359375 328.910156 C 385.289062 325.582031 391.398438 326.199219 391.867188 323.519531 C 392.359375 320.742188 386.535156 315.699219 381.421875 316.390625 " fill-opacity="1" fill-rule="nonzero"/><path fill="#ffffff" d="M 373.332031 330.863281 L 374.65625 330.171875 C 374.65625 330.171875 378.953125 339.140625 380.636719 341.441406 C 382.316406 343.738281 389.828125 339.070312 389.828125 339.070312 L 390.011719 337.414062 L 390.910156 336.828125 C 391.191406 336.644531 391.371094 336.347656 391.402344 336.015625 C 391.4375 335.6875 391.320312 335.359375 391.085938 335.125 C 389.273438 333.328125 385.425781 329.253906 383.558594 325.28125 C 383.558594 325.28125 377.234375 324.910156 373.332031 330.863281 " fill-opacity="1" fill-rule="nonzero"/><path fill="#000000" d="M 372.6875 331.441406 C 372.652344 331.230469 372.582031 330.871094 372.675781 330.484375 C 372.722656 330.296875 372.800781 330.125 372.882812 329.984375 C 372.921875 329.917969 372.972656 329.839844 373.003906 329.800781 L 373.066406 329.71875 C 373.226562 329.503906 373.382812 329.28125 373.5625 329.078125 C 373.898438 328.652344 374.273438 328.261719 374.664062 327.882812 C 375.457031 327.140625 376.34375 326.492188 377.300781 325.972656 C 378.257812 325.445312 379.28125 325.0625 380.332031 324.796875 C 380.855469 324.667969 381.390625 324.566406 381.929688 324.5 C 382.480469 324.4375 382.988281 324.390625 383.605469 324.421875 C 383.9375 324.433594 384.210938 324.636719 384.339844 324.914062 C 384.84375 326.03125 385.480469 327.109375 386.171875 328.160156 C 386.863281 329.210938 387.613281 330.238281 388.410156 331.226562 C 389.207031 332.222656 390.050781 333.183594 390.941406 334.097656 L 391.273438 334.4375 L 391.4375 334.609375 L 391.527344 334.699219 C 391.570312 334.746094 391.613281 334.792969 391.652344 334.84375 C 391.964844 335.234375 392.082031 335.769531 391.980469 336.257812 C 391.929688 336.503906 391.835938 336.742188 391.695312 336.957031 C 391.625 337.0625 391.546875 337.164062 391.453125 337.257812 C 391.410156 337.304688 391.359375 337.347656 391.308594 337.390625 L 391.210938 337.480469 C 390.972656 337.703125 390.734375 337.929688 390.476562 338.125 L 390.859375 337.503906 C 390.828125 338.0625 390.75 338.609375 390.699219 339.167969 C 390.675781 339.441406 390.519531 339.671875 390.300781 339.808594 L 390.289062 339.8125 C 388.605469 340.835938 386.90625 341.734375 385.011719 342.421875 C 384.050781 342.734375 383.074219 343.050781 381.851562 342.988281 C 381.542969 342.960938 381.210938 342.90625 380.871094 342.761719 C 380.535156 342.625 380.191406 342.382812 379.941406 342.0625 C 379.589844 341.589844 379.359375 341.199219 379.09375 340.769531 C 378.105469 339.089844 377.230469 337.398438 376.359375 335.699219 C 375.492188 334 374.675781 332.28125 373.851562 330.554688 L 375.066406 330.960938 C 374.722656 331.140625 374.285156 331.3125 373.839844 331.378906 C 373.390625 331.453125 372.992188 331.429688 372.6875 331.441406 Z M 373.976562 330.28125 C 374.109375 330.058594 374.160156 329.808594 374.148438 329.648438 C 374.140625 329.488281 374.148438 329.433594 374.246094 329.382812 C 374.675781 329.152344 375.207031 329.3125 375.4375 329.742188 L 375.453125 329.765625 L 375.460938 329.785156 C 376.292969 331.484375 377.15625 333.171875 378.011719 334.855469 C 378.875 336.535156 379.75 338.21875 380.691406 339.8125 C 380.921875 340.195312 381.191406 340.613281 381.402344 340.902344 C 381.476562 341.003906 381.664062 341.101562 382.003906 341.136719 C 382.6875 341.195312 383.582031 340.976562 384.414062 340.699219 C 386.105469 340.117188 387.796875 339.25 389.367188 338.324219 L 388.957031 338.972656 C 389.027344 338.421875 389.070312 337.867188 389.167969 337.316406 L 389.1875 337.207031 C 389.222656 336.988281 389.367188 336.800781 389.546875 336.699219 C 389.832031 336.542969 390.132812 336.417969 390.433594 336.289062 C 390.46875 336.277344 390.519531 336.25 390.539062 336.246094 C 390.554688 336.242188 390.570312 336.238281 390.585938 336.234375 C 390.617188 336.21875 390.652344 336.207031 390.675781 336.183594 C 390.730469 336.140625 390.773438 336.078125 390.789062 336.007812 C 390.828125 335.867188 390.78125 335.710938 390.691406 335.605469 L 390.050781 334.964844 C 389.136719 334.035156 388.238281 333.089844 387.363281 332.117188 C 385.628906 330.160156 383.984375 328.082031 382.773438 325.652344 L 383.507812 326.144531 C 383.113281 326.140625 382.609375 326.175781 382.15625 326.238281 C 381.6875 326.300781 381.226562 326.398438 380.773438 326.515625 C 379.859375 326.753906 378.984375 327.109375 378.160156 327.554688 C 377.335938 328 376.578125 328.554688 375.890625 329.191406 C 375.546875 329.511719 375.214844 329.84375 374.914062 330.207031 C 374.757812 330.382812 374.621094 330.574219 374.472656 330.757812 L 374.417969 330.832031 C 374.410156 330.839844 374.425781 330.816406 374.425781 330.796875 C 374.4375 330.765625 374.441406 330.695312 374.417969 330.613281 C 374.371094 330.4375 374.15625 330.28125 373.976562 330.28125 " fill-opacity="1" fill-rule="nonzero"/><path fill="#ffffff" d="M 376.160156 337.421875 C 376.160156 337.421875 372.703125 333.191406 371.109375 335.171875 C 369.519531 337.152344 373.441406 341.710938 376.160156 337.421875 " fill-opacity="1" fill-rule="nonzero"/><path fill="#ffffff" d="M 317.8125 466.597656 C 317.8125 466.597656 318.894531 477.242188 317.035156 481.085938 C 315.183594 484.933594 303.121094 492.289062 303.121094 492.289062 C 303.121094 492.289062 299.464844 489.957031 303.121094 486.96875 C 306.777344 483.980469 308.253906 481.496094 308.253906 481.496094 C 308.253906 481.496094 307.503906 470.175781 309.144531 467.824219 C 310.785156 465.476562 317.8125 466.597656 317.8125 466.597656 " fill-opacity="1" fill-rule="nonzero"/><path fill="#000000" d="M 314.324219 467.195312 C 312.328125 467.195312 310.433594 467.496094 309.855469 468.324219 C 308.789062 469.851562 308.839844 477.179688 309.121094 481.441406 C 309.132812 481.617188 309.089844 481.789062 309 481.941406 C 308.9375 482.046875 307.402344 484.59375 303.667969 487.640625 C 302.765625 488.378906 302.328125 489.089844 302.367188 489.757812 C 302.402344 490.378906 302.84375 490.90625 303.1875 491.230469 C 306.808594 488.976562 314.894531 483.53125 316.257812 480.710938 C 317.589844 477.941406 317.296875 470.6875 317.011719 467.363281 C 316.171875 467.257812 315.238281 467.195312 314.324219 467.195312 Z M 303.121094 493.15625 C 302.957031 493.15625 302.796875 493.109375 302.652344 493.023438 C 302.574219 492.972656 300.746094 491.78125 300.632812 489.859375 C 300.5625 488.605469 301.210938 487.40625 302.574219 486.296875 C 305.445312 483.949219 306.933594 481.914062 307.371094 481.269531 C 307.214844 478.792969 306.777344 469.699219 308.433594 467.332031 C 310.332031 464.613281 317.175781 465.617188 317.949219 465.738281 C 318.339844 465.800781 318.636719 466.121094 318.675781 466.511719 C 318.722656 466.953125 319.757812 477.441406 317.820312 481.464844 C 315.90625 485.425781 304.832031 492.261719 303.574219 493.03125 C 303.433594 493.113281 303.277344 493.15625 303.121094 493.15625 " fill-opacity="1" fill-rule="nonzero"/><path fill="#ffffff" d="M 452.011719 320.324219 L 451.167969 314.6875 C 450.925781 313.097656 451.226562 311.472656 452.015625 310.070312 L 460.671875 294.738281 C 460.671875 294.738281 463.28125 295.875 461.382812 299.867188 L 458.703125 304.96875 C 458.703125 304.96875 463.15625 307.148438 463.660156 310.921875 C 464.492188 317.082031 457.722656 321.523438 457.722656 321.523438 L 452.011719 320.324219 " fill-opacity="1" fill-rule="nonzero"/><path fill="#000000" d="M 452.777344 319.597656 L 457.527344 320.597656 C 458.75 319.695312 463.453125 315.890625 462.800781 311.039062 C 462.363281 307.78125 458.359375 305.769531 458.316406 305.746094 C 458.109375 305.644531 457.945312 305.460938 457.875 305.238281 C 457.804688 305.015625 457.824219 304.773438 457.933594 304.566406 L 460.613281 299.464844 C 461.191406 298.253906 461.351562 297.191406 461.066406 296.429688 C 461.023438 296.304688 460.964844 296.191406 460.898438 296.09375 L 452.773438 310.5 C 452.078125 311.726562 451.8125 313.167969 452.023438 314.5625 Z M 457.722656 322.390625 C 457.660156 322.390625 457.597656 322.386719 457.542969 322.375 L 451.832031 321.171875 C 451.476562 321.101562 451.207031 320.8125 451.15625 320.453125 L 450.304688 314.820312 C 450.039062 313.046875 450.378906 311.210938 451.257812 309.648438 L 459.910156 294.3125 C 460.132812 293.929688 460.605469 293.769531 461.015625 293.945312 C 461.132812 293.996094 462.195312 294.492188 462.695312 295.824219 C 463.15625 297.050781 462.976562 298.539062 462.164062 300.242188 L 459.859375 304.628906 C 461.261719 305.496094 464.089844 307.613281 464.519531 310.808594 C 465.417969 317.433594 458.488281 322.058594 458.195312 322.25 C 458.050781 322.34375 457.886719 322.390625 457.722656 322.390625 " fill-opacity="1" fill-rule="nonzero"/><path fill="#000000" d="M 306.71875 468.433594 L 320.679688 468.433594 C 320.679688 468.433594 323.699219 418.851562 350.308594 402.808594 L 348.277344 362.933594 C 348.277344 362.933594 292.492188 393.96875 306.71875 468.433594 " fill-opacity="1" fill-rule="nonzero"/><path fill="#ffffff" d="M 350.652344 413.632812 L 340.21875 463.199219 C 340.21875 463.199219 382.699219 470.484375 397.503906 467.824219 C 412.308594 465.167969 414.039062 461.265625 414.039062 461.265625 L 407.78125 406.75 L 350.652344 413.632812 " fill-opacity="1" fill-rule="nonzero"/><path fill="#000000" d="M 341.253906 462.492188 C 347.433594 463.515625 384.042969 469.363281 397.351562 466.972656 C 409.488281 464.792969 412.554688 461.785156 413.140625 461.050781 L 407.019531 407.714844 L 351.375 414.417969 Z M 388.863281 469.28125 C 370.796875 469.28125 341.539062 464.304688 340.070312 464.054688 C 339.839844 464.015625 339.632812 463.882812 339.5 463.6875 C 339.371094 463.492188 339.320312 463.25 339.371094 463.019531 L 349.804688 413.453125 C 349.878906 413.089844 350.175781 412.816406 350.546875 412.769531 L 407.675781 405.886719 C 407.90625 405.859375 408.140625 405.921875 408.320312 406.066406 C 408.5 406.207031 408.617188 406.417969 408.644531 406.648438 L 414.898438 461.164062 C 414.917969 461.316406 414.894531 461.472656 414.835938 461.613281 C 414.636719 462.058594 412.488281 466.015625 397.65625 468.679688 C 395.304688 469.105469 392.285156 469.28125 388.863281 469.28125 " fill-opacity="1" fill-rule="nonzero"/><path fill="#000000" d="M 369.707031 356.203125 L 348.277344 362.933594 L 339.007812 433.902344 C 338.566406 437.292969 340.515625 440.539062 343.722656 441.722656 C 353.984375 445.5 378.234375 452.183594 411.722656 447.007812 C 415.222656 446.46875 417.828125 443.492188 417.914062 439.953125 C 418.210938 428.054688 418.429688 401.355469 415.066406 386.019531 C 415.066406 386.019531 462.308594 385.976562 459.574219 322.128906 L 449.695312 319.429688 C 449.695312 319.429688 433.085938 356.957031 404.421875 355.5 C 404.421875 355.5 385.226562 351.324219 369.707031 356.203125 " fill-opacity="1" fill-rule="nonzero"/><path fill="#ffffff" d="M 388.007812 352.046875 C 388.007812 352.046875 369.441406 350.28125 354.675781 353.199219 C 345.921875 354.929688 329.320312 361.386719 341.992188 374.410156 C 354.664062 387.4375 363.386719 386.199219 367.566406 378.910156 C 371.742188 371.621094 379.195312 354.765625 388.007812 352.046875 " fill-opacity="1" fill-rule="nonzero"/><path fill="#000000" d="M 374.972656 352.394531 C 368.839844 352.394531 361.429688 352.75 354.839844 354.050781 C 348.3125 355.34375 340.125 358.652344 338.542969 363.738281 C 337.621094 366.695312 338.992188 370.082031 342.613281 373.804688 C 349.296875 380.679688 355.351562 383.996094 360.109375 383.390625 C 362.890625 383.042969 365.144531 381.386719 366.8125 378.480469 C 367.511719 377.257812 368.328125 375.71875 369.195312 374.085938 C 372.949219 367.019531 378.363281 356.828125 384.71875 352.679688 C 382.386719 352.542969 378.945312 352.394531 374.972656 352.394531 Z M 359.011719 385.195312 C 353.9375 385.195312 347.878906 381.703125 341.371094 375.019531 C 337.269531 370.800781 335.761719 366.832031 336.886719 363.222656 C 339.21875 355.726562 351.972656 352.847656 354.507812 352.347656 C 369.226562 349.4375 387.898438 351.164062 388.085938 351.183594 C 388.496094 351.222656 388.824219 351.546875 388.867188 351.957031 C 388.910156 352.371094 388.65625 352.753906 388.261719 352.878906 C 381.285156 355.027344 374.933594 366.988281 370.730469 374.90625 C 369.855469 376.546875 369.03125 378.09375 368.316406 379.34375 C 366.390625 382.703125 363.628906 384.699219 360.324219 385.113281 C 359.898438 385.167969 359.457031 385.195312 359.011719 385.195312 " fill-opacity="1" fill-rule="nonzero"/><path fill="#000000" d="M 372.941406 357.3125 L 372.945312 357.3125 Z M 372.945312 357.3125 C 372.945312 357.3125 372.945312 357.3125 372.945312 357.316406 C 372.945312 357.3125 372.945312 357.3125 372.945312 357.3125 Z M 372.945312 357.316406 Z M 349.367188 368.460938 C 346.195312 368.460938 343.347656 367.449219 340.800781 365.421875 C 340.425781 365.125 340.363281 364.578125 340.664062 364.203125 C 340.960938 363.828125 341.503906 363.765625 341.882812 364.0625 C 347.691406 368.679688 355.109375 367.382812 365.230469 359.984375 C 369.796875 356.644531 372.652344 355.226562 373.722656 355.761719 C 374.148438 355.976562 374.320312 356.5 374.109375 356.929688 C 373.921875 357.292969 373.519531 357.472656 373.144531 357.382812 C 372.914062 357.402344 371.347656 357.660156 366.257812 361.386719 C 359.796875 366.109375 354.203125 368.460938 349.367188 368.460938 " fill-opacity="1" fill-rule="nonzero"/></svg>