<svg xmlns="http://www.w3.org/2000/svg" xmlns:xlink="http://www.w3.org/1999/xlink" width="300" zoomAndPan="magnify" viewBox="0 0 224.87999 225" height="300" preserveAspectRatio="xMidYMid meet" version="1.0"><defs><clipPath id="c6bbfb7362"><path d="M 0 0.0585938 L 224.761719 0.0585938 L 224.761719 224.9375 L 0 224.9375 Z M 0 0.0585938 " clip-rule="nonzero"/></clipPath><clipPath id="5636aca055"><path d="M 58 7.039062 L 199 7.039062 L 199 220.972656 L 58 220.972656 Z M 58 7.039062 " clip-rule="nonzero"/></clipPath><clipPath id="29f29187d4"><path d="M 10.3125 23 L 63 23 L 63 71 L 10.3125 71 Z M 10.3125 23 " clip-rule="nonzero"/></clipPath><clipPath id="f49521acc5"><path d="M 21 8 L 213.152344 8 L 213.152344 194 L 21 194 Z M 21 8 " clip-rule="nonzero"/></clipPath><clipPath id="93526db807"><path d="M 113 165 L 153 165 L 153 219 L 113 219 Z M 113 165 " clip-rule="nonzero"/></clipPath><clipPath id="7a0bdec87f"><path d="M 111.828125 168.984375 L 143.746094 162.933594 L 153.632812 215.09375 L 121.71875 221.144531 Z M 111.828125 168.984375 " clip-rule="nonzero"/></clipPath><clipPath id="e8eff839a1"><path d="M 111.828125 168.984375 L 143.746094 162.933594 L 153.632812 215.09375 L 121.71875 221.144531 Z M 111.828125 168.984375 " clip-rule="nonzero"/></clipPath><clipPath id="7c1a47c163"><path d="M 114 166 L 151 166 L 151 217 L 114 217 Z M 114 166 " clip-rule="nonzero"/></clipPath><clipPath id="d0fcfab67e"><path d="M 111.828125 168.984375 L 143.746094 162.933594 L 153.632812 215.09375 L 121.71875 221.144531 Z M 111.828125 168.984375 " clip-rule="nonzero"/></clipPath><clipPath id="065bb4acda"><path d="M 111.828125 168.984375 L 143.746094 162.933594 L 153.632812 215.09375 L 121.71875 221.144531 Z M 111.828125 168.984375 " clip-rule="nonzero"/></clipPath><clipPath id="308ca066e4"><path d="M 126 178 L 144 178 L 144 209 L 126 209 Z M 126 178 " clip-rule="nonzero"/></clipPath><clipPath id="f64bc0dfe2"><path d="M 111.828125 168.984375 L 143.746094 162.933594 L 153.632812 215.09375 L 121.71875 221.144531 Z M 111.828125 168.984375 " clip-rule="nonzero"/></clipPath><clipPath id="fdebce178a"><path d="M 111.828125 168.984375 L 143.746094 162.933594 L 153.632812 215.09375 L 121.71875 221.144531 Z M 111.828125 168.984375 " clip-rule="nonzero"/></clipPath><clipPath id="97f03e2e46"><path d="M 123 179 L 142 179 L 142 202 L 123 202 Z M 123 179 " clip-rule="nonzero"/></clipPath><clipPath id="983e2a307d"><path d="M 111.828125 168.984375 L 143.746094 162.933594 L 153.632812 215.09375 L 121.71875 221.144531 Z M 111.828125 168.984375 " clip-rule="nonzero"/></clipPath><clipPath id="c45a2ce2bb"><path d="M 111.828125 168.984375 L 143.746094 162.933594 L 153.632812 215.09375 L 121.71875 221.144531 Z M 111.828125 168.984375 " clip-rule="nonzero"/></clipPath><clipPath id="33123b70bd"><path d="M 122 177 L 142 177 L 142 202 L 122 202 Z M 122 177 " clip-rule="nonzero"/></clipPath><clipPath id="b62cfe8008"><path d="M 111.828125 168.984375 L 143.746094 162.933594 L 153.632812 215.09375 L 121.71875 221.144531 Z M 111.828125 168.984375 " clip-rule="nonzero"/></clipPath><clipPath id="28e5467e32"><path d="M 111.828125 168.984375 L 143.746094 162.933594 L 153.632812 215.09375 L 121.71875 221.144531 Z M 111.828125 168.984375 " clip-rule="nonzero"/></clipPath></defs><g clip-path="url(#c6bbfb7362)"><path fill="#ffffff" d="M 0 0.0585938 L 224.878906 0.0585938 L 224.878906 224.941406 L 0 224.941406 Z M 0 0.0585938 " fill-opacity="1" fill-rule="nonzero"/><path fill="#ffffff" d="M 0 0.0585938 L 224.878906 0.0585938 L 224.878906 224.941406 L 0 224.941406 Z M 0 0.0585938 " fill-opacity="1" fill-rule="nonzero"/></g><g clip-path="url(#5636aca055)"><path fill="#14697d" d="M 187.144531 173.75 C 189.308594 177.972656 193.296875 187.414062 189.574219 189.558594 C 188.660156 190.054688 187.699219 190.167969 186.695312 189.898438 L 187.320312 191.09375 C 186.324219 194.050781 183.511719 197.742188 181.253906 199.980469 C 178.9375 202.398438 176.332031 204.449219 173.4375 206.132812 C 170.433594 207.824219 166.589844 209.226562 163.179688 208.535156 C 159.457031 215.988281 154.859375 218.6875 148.101562 220.359375 C 146.453125 220.761719 144.734375 220.472656 144.550781 219.539062 C 144.519531 219.011719 144.691406 218.554688 145.0625 218.175781 C 146.886719 215.738281 149.082031 213.074219 150.902344 210.636719 C 148.394531 211.035156 142.832031 210.558594 144.472656 209.019531 C 148.890625 207.050781 155.230469 206.054688 160.371094 206.070312 C 160.371094 204.898438 161.382812 203.691406 162.328125 202.789062 C 167.71875 197.621094 176.011719 191.460938 183.371094 188.285156 C 182.144531 187.414062 181 186.441406 179.9375 185.375 C 178.261719 183.710938 173.949219 177.429688 170.539062 169.359375 C 169.394531 166.644531 167.257812 161.828125 167.265625 158.875 L 171.46875 152.761719 C 178.140625 158.097656 184.601562 168.785156 187.144531 173.75 Z M 93.6875 155.277344 C 85.609375 158.722656 79.3125 162.988281 77.652344 164.664062 C 76.351562 165.929688 75.214844 167.324219 74.234375 168.847656 C 74.320312 160.550781 71.265625 149.496094 68.101562 142.042969 C 67.699219 140.878906 67.003906 139.929688 66.015625 139.199219 C 68.421875 134.730469 70.492188 128.855469 70.867188 124.136719 C 70.296875 121.964844 67.222656 126.625 66.371094 129.011719 C 65.097656 126.25 63.8125 123.042969 62.546875 120.28125 C 62.335938 119.820312 62.070312 119.3125 61.589844 119.179688 C 60.671875 118.917969 59.597656 120.289062 59.164062 121.9375 C 57.390625 128.683594 57.566406 134.015625 62.375 140.898438 C 60.558594 143.839844 60.507812 147.898438 61.027344 151.285156 C 61.566406 154.597656 62.558594 157.765625 64.003906 160.792969 C 65.289062 163.699219 68.636719 168.550781 71.042969 170.523438 L 74.042969 169.191406 C 73.011719 171 72.578125 172.820312 73.445312 174.332031 C 75.578125 178.0625 85.027344 174.097656 89.261719 171.9375 C 94.234375 169.410156 99.917969 166.488281 105.367188 161.628906 L 104.179688 152.054688 C 101.226562 152.046875 96.410156 154.171875 93.6875 155.308594 Z M 189.695312 16.351562 C 189.988281 16.351562 190.28125 16.324219 190.570312 16.265625 C 190.859375 16.210938 191.136719 16.125 191.410156 16.011719 C 191.683594 15.902344 191.941406 15.761719 192.1875 15.601562 C 192.429688 15.4375 192.65625 15.25 192.867188 15.042969 C 193.074219 14.835938 193.261719 14.609375 193.425781 14.363281 C 193.589844 14.121094 193.726562 13.863281 193.839844 13.589844 C 193.953125 13.316406 194.039062 13.039062 194.097656 12.75 C 194.15625 12.460938 194.183594 12.167969 194.183594 11.875 C 194.183594 11.578125 194.15625 11.289062 194.097656 11 C 194.042969 10.710938 193.957031 10.429688 193.84375 10.15625 C 193.730469 9.886719 193.59375 9.625 193.429688 9.382812 C 193.265625 9.136719 193.082031 8.910156 192.875 8.703125 C 192.664062 8.492188 192.4375 8.308594 192.195312 8.144531 C 191.949219 7.980469 191.691406 7.839844 191.417969 7.726562 C 191.148438 7.617188 190.867188 7.53125 190.578125 7.472656 C 190.289062 7.414062 189.996094 7.386719 189.703125 7.386719 C 189.410156 7.386719 189.117188 7.414062 188.828125 7.472656 C 188.539062 7.527344 188.257812 7.613281 187.988281 7.726562 C 187.714844 7.839844 187.457031 7.976562 187.210938 8.140625 C 186.964844 8.304688 186.738281 8.488281 186.53125 8.699219 C 186.324219 8.90625 186.136719 9.132812 185.972656 9.378906 C 185.808594 9.621094 185.671875 9.878906 185.558594 10.152344 C 185.445312 10.425781 185.363281 10.707031 185.304688 10.992188 C 185.246094 11.28125 185.21875 11.574219 185.21875 11.867188 C 185.21875 12.164062 185.246094 12.453125 185.304688 12.742188 C 185.359375 13.03125 185.445312 13.3125 185.558594 13.582031 C 185.671875 13.855469 185.808594 14.113281 185.972656 14.359375 C 186.136719 14.601562 186.320312 14.828125 186.527344 15.035156 C 186.734375 15.246094 186.960938 15.429688 187.207031 15.59375 C 187.449219 15.757812 187.707031 15.894531 187.980469 16.007812 C 188.25 16.121094 188.53125 16.207031 188.820312 16.265625 C 189.109375 16.324219 189.398438 16.351562 189.695312 16.351562 Z M 89.746094 16.351562 C 90.039062 16.351562 90.328125 16.324219 90.617188 16.265625 C 90.90625 16.207031 91.1875 16.121094 91.457031 16.007812 C 91.730469 15.894531 91.988281 15.757812 92.234375 15.59375 C 92.476562 15.429688 92.703125 15.242188 92.910156 15.035156 C 93.117188 14.828125 93.304688 14.601562 93.46875 14.355469 C 93.632812 14.109375 93.769531 13.851562 93.882812 13.578125 C 93.992188 13.308594 94.078125 13.027344 94.136719 12.738281 C 94.191406 12.449219 94.21875 12.160156 94.21875 11.863281 C 94.21875 11.570312 94.191406 11.277344 94.132812 10.988281 C 94.074219 10.703125 93.988281 10.421875 93.878906 10.148438 C 93.765625 9.878906 93.625 9.621094 93.460938 9.375 C 93.296875 9.128906 93.113281 8.90625 92.90625 8.695312 C 92.695312 8.488281 92.46875 8.304688 92.226562 8.140625 C 91.980469 7.976562 91.722656 7.839844 91.449219 7.726562 C 91.179688 7.613281 90.898438 7.527344 90.609375 7.472656 C 90.320312 7.414062 90.027344 7.386719 89.734375 7.386719 C 89.441406 7.386719 89.148438 7.414062 88.859375 7.472656 C 88.570312 7.53125 88.292969 7.613281 88.019531 7.726562 C 87.746094 7.839844 87.488281 7.980469 87.246094 8.140625 C 87 8.304688 86.773438 8.492188 86.566406 8.699219 C 86.359375 8.90625 86.171875 9.132812 86.007812 9.378906 C 85.84375 9.625 85.707031 9.882812 85.59375 10.152344 C 85.480469 10.425781 85.398438 10.707031 85.339844 10.996094 C 85.28125 11.285156 85.253906 11.574219 85.253906 11.867188 C 85.253906 12.164062 85.28125 12.453125 85.339844 12.742188 C 85.394531 13.027344 85.480469 13.308594 85.589844 13.578125 C 85.703125 13.851562 85.839844 14.109375 86 14.351562 C 86.164062 14.597656 86.347656 14.824219 86.554688 15.03125 C 86.761719 15.238281 86.988281 15.425781 87.230469 15.589844 C 87.472656 15.753906 87.730469 15.890625 88 16.003906 C 88.269531 16.117188 88.550781 16.203125 88.835938 16.261719 C 89.125 16.320312 89.414062 16.351562 89.707031 16.351562 Z M 196.675781 61.304688 C 189.53125 28.835938 161.863281 17.671875 136.210938 18.058594 C 120.445312 18.292969 86.140625 29.773438 81.097656 65.515625 C 78.648438 82.886719 80.097656 104.742188 84.410156 114.175781 C 86.539062 120.371094 93.566406 124.03125 100.144531 125.304688 C 117.089844 128.570312 164.1875 129.984375 183.269531 123.613281 C 189.496094 121.539062 193.054688 117.828125 194.765625 110.5625 C 197.417969 99.371094 200.386719 78.175781 196.675781 61.304688 Z M 156.011719 144.863281 C 146.988281 138.0625 125.574219 138.128906 115.859375 146.488281 C 104.335938 156.4375 105.039062 183.300781 108.691406 195.605469 C 108.691406 195.605469 136.292969 207.390625 165.730469 195.113281 C 168.335938 188.152344 171.875 156.820312 156.011719 144.863281 Z M 156.011719 144.863281 " fill-opacity="1" fill-rule="nonzero"/></g><path fill="#ffffff" d="M 184.914062 67.074219 C 184.359375 59.863281 179.519531 54.285156 164.734375 51.179688 C 153.644531 48.84375 125.304688 47.386719 110.738281 50.917969 C 96.175781 54.449219 92.835938 60.445312 91.785156 67.074219 C 91.785156 67.074219 91.171875 74.476562 94.042969 78.695312 C 96.914062 82.917969 100.324219 85.4375 110.347656 85.84375 C 119.988281 86.226562 147.433594 86.667969 160.40625 86.050781 C 173.382812 85.429688 177.699219 83.328125 180.671875 80.621094 C 185.429688 76.308594 184.914062 67.074219 184.914062 67.074219 Z M 184.914062 67.074219 " fill-opacity="1" fill-rule="nonzero"/><path fill="#a6201e" d="M 180.117188 95.441406 C 179.285156 96.210938 178.316406 96.726562 177.210938 96.984375 C 175.695312 97.460938 174.144531 97.671875 172.558594 97.625 C 171.449219 97.644531 170.460938 97.3125 169.59375 96.621094 C 169.386719 96.402344 169.269531 96.140625 169.238281 95.839844 C 169.21875 95.417969 169.253906 95 169.351562 94.589844 C 169.445312 94.175781 169.597656 93.785156 169.804688 93.417969 C 170.011719 93.046875 170.261719 92.714844 170.5625 92.414062 C 170.863281 92.117188 171.199219 91.867188 171.570312 91.664062 C 173.09375 90.863281 174.714844 90.476562 176.4375 90.503906 C 178.164062 90.449219 180.265625 90.789062 180.898438 92.402344 C 181.070312 92.941406 181.085938 93.484375 180.941406 94.035156 C 180.800781 94.582031 180.527344 95.050781 180.117188 95.441406 Z M 106.105469 91.664062 C 104.582031 90.867188 102.960938 90.488281 101.238281 90.519531 C 99.511719 90.460938 97.417969 90.804688 96.777344 92.414062 C 96.609375 92.957031 96.59375 93.5 96.734375 94.046875 C 96.875 94.59375 97.152344 95.066406 97.558594 95.457031 C 98.390625 96.226562 99.359375 96.738281 100.464844 97 C 101.980469 97.472656 103.53125 97.6875 105.117188 97.636719 C 106.230469 97.660156 107.21875 97.324219 108.089844 96.636719 C 108.292969 96.414062 108.410156 96.152344 108.4375 95.855469 C 108.460938 95.429688 108.425781 95.011719 108.328125 94.597656 C 108.234375 94.183594 108.085938 93.792969 107.878906 93.421875 C 107.671875 93.050781 107.417969 92.714844 107.117188 92.417969 C 106.816406 92.117188 106.480469 91.867188 106.105469 91.664062 Z M 106.105469 91.664062 " fill-opacity="1" fill-rule="nonzero"/><g clip-path="url(#29f29187d4)"><path fill="#ffbf23" d="M 61.886719 52.941406 C 61.59375 57.203125 58.78125 58.042969 57.941406 58.371094 C 51.429688 60.898438 43.222656 61.390625 37.511719 62.511719 C 37.105469 63.976562 37.984375 67.742188 39.273438 70.050781 C 36.621094 69.125 32.585938 67.484375 29.636719 63.371094 C 26.023438 63.664062 21.746094 64.132812 18.128906 63.824219 C 14.953125 63.554688 12.203125 61.824219 11.363281 56.636719 C 10.34375 50.109375 10.410156 43.59375 11.554688 37.089844 C 12.4375 32.117188 14.398438 26.71875 18.980469 24.578125 C 21.316406 23.476562 23.996094 23.429688 26.582031 23.394531 L 44.890625 23.152344 C 50.292969 23.082031 56.585938 23.433594 59.699219 27.847656 C 61.453125 30.335938 61.828125 33.53125 61.921875 36.585938 C 62.085938 42.875 62.207031 48.410156 61.886719 52.941406 Z M 61.886719 52.941406 " fill-opacity="1" fill-rule="nonzero"/></g><g clip-path="url(#f49521acc5)"><path fill="#2d323f" d="M 189.558594 189.566406 L 189.558594 189.765625 C 189.558594 189.957031 188.648438 192.863281 185.800781 193.074219 C 184.820312 193.152344 182.539062 193.074219 181.425781 190.167969 C 181.160156 189.5 181.070312 188.808594 181.152344 188.09375 C 181.203125 187.664062 181.320312 187.257812 181.507812 186.867188 C 184.144531 189.140625 187.214844 190.894531 189.558594 189.566406 Z M 74.929688 165.914062 C 74.214844 165.828125 73.523438 165.917969 72.855469 166.183594 C 69.914062 167.292969 69.863281 169.566406 69.9375 170.554688 C 70.140625 173.394531 73.046875 174.3125 73.238281 174.320312 L 73.4375 174.320312 C 72.117188 171.972656 73.871094 168.914062 76.160156 166.277344 C 75.769531 166.089844 75.359375 165.96875 74.929688 165.914062 Z M 212.761719 72.367188 C 212.574219 70.535156 212.023438 68.824219 211.109375 67.230469 C 210.589844 66.414062 209.9375 65.726562 209.15625 65.160156 C 208.371094 64.59375 207.511719 64.195312 206.574219 63.960938 C 206.21875 63.855469 205.855469 63.769531 205.488281 63.707031 C 204.585938 57.054688 202.777344 50.660156 200.058594 44.523438 C 197.804688 39.523438 194.898438 34.933594 191.34375 30.761719 C 191.34375 27.382812 191.316406 24.011719 191.265625 20.652344 C 191.253906 19.148438 191.15625 17.65625 190.964844 16.167969 C 190.542969 16.292969 190.109375 16.359375 189.664062 16.359375 C 189.4375 16.359375 189.214844 16.339844 188.992188 16.300781 C 188.640625 18.902344 188.441406 22.925781 188.335938 27.5 L 188.050781 27.199219 C 183.300781 22.550781 177.929688 18.789062 171.933594 15.917969 C 166.15625 13.140625 160.109375 11.183594 153.800781 10.050781 C 147.839844 8.949219 141.832031 8.5625 135.777344 8.886719 C 131.394531 9.136719 127.054688 9.714844 122.761719 10.617188 C 117.796875 11.65625 112.996094 13.207031 108.367188 15.273438 C 103.179688 17.59375 98.441406 20.621094 94.15625 24.351562 C 93.195312 25.183594 92.28125 26.070312 91.386719 26.972656 L 91.335938 20.644531 C 91.328125 19.144531 91.226562 17.648438 91.039062 16.160156 C 90.613281 16.285156 90.179688 16.351562 89.738281 16.351562 C 89.5 16.351562 89.261719 16.335938 89.027344 16.296875 C 88.550781 20.949219 88.3125 25.617188 88.316406 30.296875 C 85.9375 33.144531 83.859375 36.195312 82.078125 39.449219 C 78.300781 46.578125 75.785156 54.128906 74.527344 62.097656 C 74.484375 62.339844 74.453125 62.582031 74.410156 62.808594 C 69.511719 63.824219 67.128906 66.027344 65.707031 69.089844 C 64.730469 71.320312 64.152344 73.652344 63.976562 76.082031 C 63.628906 82.425781 63.789062 89.582031 65.714844 95.5 C 67.136719 99.8125 70.347656 102.867188 75.484375 104.089844 C 75.734375 107.042969 76.128906 109.976562 76.679688 112.890625 C 77.285156 116.542969 78.414062 120.023438 80.066406 123.335938 C 83.832031 130.441406 92.003906 132.757812 99.363281 133.992188 C 102.675781 134.523438 106.003906 134.875 109.351562 135.042969 C 109.402344 135.59375 109.523438 136.121094 109.722656 136.636719 C 109.886719 137 110.125 137.300781 110.441406 137.546875 C 110.753906 137.792969 111.105469 137.949219 111.5 138.019531 C 112.957031 138.3125 117.894531 138.875 120.925781 137.90625 C 121.347656 137.800781 121.726562 137.613281 122.0625 137.339844 C 122.40625 136.972656 122.644531 136.550781 122.773438 136.066406 C 123.035156 134.894531 123.128906 133.710938 123.058594 132.515625 C 122.957031 131.519531 122.773438 130.761719 121.964844 130.253906 C 121.347656 129.941406 120.695312 129.789062 120.003906 129.800781 C 117.726562 129.660156 115.441406 129.585938 113.148438 129.582031 C 112.492188 129.535156 111.851562 129.613281 111.230469 129.816406 C 110.742188 130.042969 110.335938 130.375 110.015625 130.808594 C 109.695312 131.242188 109.5 131.726562 109.425781 132.257812 C 103.277344 131.976562 97.011719 131.199219 91.242188 129.105469 C 87.941406 127.898438 84.847656 125.871094 82.9375 122.816406 C 81.183594 119.976562 80.265625 116.578125 79.570312 113.316406 C 78.976562 110.425781 78.550781 107.511719 78.292969 104.570312 C 79.40625 104.679688 80.523438 104.71875 81.644531 104.691406 C 79.589844 93.773438 79.265625 78.40625 81.082031 65.546875 C 81.246094 64.402344 81.4375 63.277344 81.660156 62.183594 C 80.039062 62.183594 78.597656 62.261719 77.28125 62.390625 C 79.015625 52.550781 82.449219 42.972656 88.28125 34.902344 C 88.28125 38.320312 88.28125 41.792969 88.34375 45.035156 C 89.300781 43.484375 90.335938 41.988281 91.457031 40.550781 C 91.429688 37.371094 91.402344 34.195312 91.378906 31.023438 C 91.910156 30.414062 92.449219 29.816406 93.019531 29.234375 C 100.480469 21.601562 110.035156 16.6875 120.230469 14.058594 C 124.265625 13.027344 128.355469 12.316406 132.5 11.925781 C 137.953125 11.386719 143.398438 11.4375 148.839844 12.082031 C 160.917969 13.503906 172.914062 18.007812 182.363281 25.792969 C 184.476562 27.539062 186.449219 29.433594 188.28125 31.476562 C 188.246094 34.746094 188.28125 38.164062 188.28125 41.460938 C 189.457031 43.171875 190.527344 44.945312 191.484375 46.789062 C 191.445312 42.941406 191.414062 39.097656 191.390625 35.257812 C 192.734375 37.042969 193.960938 38.90625 195.078125 40.84375 C 198.882812 47.636719 201.375 54.878906 202.554688 62.574219 C 202.597656 62.832031 202.625 63.085938 202.667969 63.34375 C 200.808594 63.199219 198.945312 63.167969 197.082031 63.25 C 199.703125 77.28125 198.054688 93.800781 195.9375 105.097656 C 199.3125 104.769531 202.148438 104.289062 203.554688 104.003906 C 206.851562 103.335938 209.351562 100.097656 210.660156 96.734375 C 211.886719 93.140625 212.644531 89.453125 212.933594 85.667969 C 213.257812 81.226562 213.195312 76.792969 212.753906 72.367188 Z M 150.027344 96.074219 C 150.179688 96.367188 150.226562 96.675781 150.164062 97 C 149.167969 102.21875 144.691406 106.371094 139.265625 106.292969 C 133.835938 106.214844 128.542969 102.140625 127.648438 96.722656 C 127.601562 96.515625 127.601562 96.3125 127.648438 96.109375 C 127.691406 95.90625 127.777344 95.722656 127.902344 95.554688 C 128.027344 95.390625 128.183594 95.257812 128.367188 95.160156 C 128.550781 95.0625 128.746094 95.007812 128.957031 94.996094 L 131.398438 94.996094 L 142.121094 95.144531 L 146.875 95.207031 C 147.527344 95.207031 148.210938 95.164062 148.855469 95.207031 C 149.113281 95.234375 149.347656 95.324219 149.558594 95.480469 C 149.765625 95.636719 149.921875 95.835938 150.019531 96.074219 Z M 147.066406 97.949219 L 146.417969 97.949219 C 141.207031 97.875 136 97.804688 130.789062 97.738281 C 131.144531 98.582031 131.609375 99.355469 132.191406 100.066406 C 132.769531 100.777344 133.4375 101.386719 134.195312 101.90625 C 134.949219 102.421875 135.761719 102.820312 136.632812 103.101562 C 137.503906 103.386719 138.398438 103.539062 139.3125 103.5625 C 142.9375 103.625 145.816406 101.175781 147.066406 97.949219 Z M 114.996094 62.710938 C 113.609375 62.367188 112.21875 62.332031 110.816406 62.605469 C 107.074219 63.746094 105.546875 67.429688 105.773438 71.328125 C 105.828125 72.589844 106.300781 73.664062 107.195312 74.554688 C 109.707031 77.195312 114.375 77.929688 117.140625 75.613281 C 117.507812 75.300781 117.84375 74.957031 118.148438 74.582031 C 118.457031 74.207031 118.726562 73.808594 118.957031 73.386719 C 119.191406 72.964844 119.386719 72.523438 119.539062 72.066406 C 119.695312 71.609375 119.804688 71.140625 119.875 70.664062 C 119.945312 70.1875 119.972656 69.707031 119.953125 69.222656 C 119.9375 68.742188 119.878906 68.265625 119.773438 67.792969 C 119.671875 67.320312 119.527344 66.863281 119.339844 66.417969 C 119.15625 65.972656 118.929688 65.546875 118.667969 65.140625 C 117.742188 63.867188 116.515625 63.058594 114.980469 62.710938 Z M 169.089844 75.597656 C 169.457031 75.285156 169.792969 74.941406 170.101562 74.566406 C 170.40625 74.195312 170.675781 73.796875 170.910156 73.375 C 171.140625 72.949219 171.335938 72.511719 171.488281 72.054688 C 171.644531 71.59375 171.757812 71.128906 171.824219 70.648438 C 171.894531 70.171875 171.921875 69.691406 171.90625 69.210938 C 171.886719 68.726562 171.828125 68.25 171.726562 67.777344 C 171.621094 67.304688 171.476562 66.847656 171.289062 66.402344 C 171.105469 65.957031 170.878906 65.53125 170.617188 65.125 C 169.699219 63.863281 168.480469 63.058594 166.957031 62.710938 C 165.574219 62.367188 164.179688 62.332031 162.78125 62.605469 C 159.042969 63.746094 157.515625 67.429688 157.738281 71.328125 C 157.789062 72.589844 158.261719 73.664062 159.15625 74.554688 C 161.652344 77.195312 166.320312 77.929688 169.089844 75.597656 Z M 131.234375 127.9375 C 131.34375 131.648438 131.492188 136.464844 131.605469 140.328125 C 135.75 139.804688 139.890625 139.839844 144.023438 140.445312 C 144.289062 136.820312 144.492188 132.003906 144.734375 128.023438 C 140.238281 128.101562 135.699219 128.074219 131.265625 127.953125 Z M 101.480469 152.507812 C 99.734375 155.660156 98.640625 163.703125 101.410156 167.621094 C 101.816406 168.203125 104.253906 169.394531 106.546875 170.269531 C 107.257812 161.402344 109.671875 152.785156 114.644531 147.605469 C 110.71875 148.132812 103.101562 149.664062 101.507812 152.523438 Z M 159.03125 147.632812 C 164.335938 153.410156 166.765625 161.800781 167.621094 170.007812 C 169.695312 169.167969 171.703125 168.144531 172.066406 167.621094 C 174.832031 163.703125 173.75 155.660156 171.996094 152.507812 C 170.445312 149.707031 163.058594 148.179688 159.042969 147.648438 Z M 25.878906 41.746094 C 25.265625 41.589844 24.652344 41.574219 24.03125 41.695312 C 22.375 42.199219 21.703125 43.824219 21.800781 45.550781 C 21.828125 46.109375 22.039062 46.582031 22.433594 46.972656 C 23.542969 48.140625 25.609375 48.464844 26.847656 47.441406 C 27.171875 47.164062 27.441406 46.835938 27.648438 46.457031 C 27.855469 46.082031 27.992188 45.679688 28.054688 45.253906 C 28.117188 44.828125 28.101562 44.402344 28.007812 43.984375 C 27.917969 43.5625 27.753906 43.171875 27.519531 42.808594 C 27.105469 42.25 26.558594 41.894531 25.878906 41.746094 Z M 37.878906 41.183594 C 37.265625 41.03125 36.652344 41.011719 36.03125 41.132812 C 34.382812 41.636719 33.710938 43.265625 33.808594 44.992188 C 33.832031 45.546875 34.042969 46.019531 34.441406 46.414062 C 35.550781 47.578125 37.609375 47.902344 38.847656 46.882812 C 39.175781 46.605469 39.445312 46.277344 39.65625 45.902344 C 39.871094 45.527344 40.007812 45.125 40.074219 44.699219 C 40.136719 44.273438 40.125 43.847656 40.039062 43.425781 C 39.949219 43.003906 39.789062 42.613281 39.554688 42.25 C 39.136719 41.675781 38.578125 41.320312 37.878906 41.183594 Z M 49.773438 40.472656 C 49.160156 40.320312 48.546875 40.304688 47.925781 40.421875 C 46.277344 40.933594 45.59375 42.554688 45.703125 44.28125 C 45.726562 44.835938 45.9375 45.3125 46.335938 45.703125 C 47.441406 46.867188 49.503906 47.195312 50.738281 46.171875 C 51.066406 45.890625 51.335938 45.5625 51.542969 45.1875 C 51.75 44.808594 51.886719 44.40625 51.949219 43.980469 C 52.007812 43.554688 51.996094 43.132812 51.902344 42.710938 C 51.8125 42.289062 51.648438 41.898438 51.414062 41.539062 C 50.996094 40.988281 50.449219 40.644531 49.773438 40.507812 Z M 49.773438 40.472656 " fill-opacity="1" fill-rule="nonzero"/></g><g clip-path="url(#93526db807)"><g clip-path="url(#7a0bdec87f)"><g clip-path="url(#e8eff839a1)"><path fill="#000000" d="M 150.941406 202.1875 C 147.558594 191.578125 144.175781 180.96875 140.792969 170.359375 C 140.351562 168.960938 139.429688 167.078125 138.382812 166.046875 C 136.609375 164.285156 133 165.296875 129.664062 166.222656 C 124.691406 167.601562 119.402344 169.433594 114.703125 171.5625 C 114.226562 171.777344 113.726562 172.015625 113.433594 172.445312 C 113.09375 172.933594 113.085938 173.574219 113.109375 174.167969 C 113.183594 176.035156 113.582031 177.882812 114.015625 179.707031 C 114.40625 181.339844 117.984375 192.546875 119.644531 198.5 C 121.195312 204.078125 123.019531 210.160156 124.773438 214.367188 C 125.636719 216.441406 127.214844 218.507812 129.425781 218.859375 C 130.601562 219.046875 131.789062 218.691406 132.921875 218.339844 C 137.648438 216.878906 142.070312 215.832031 146.683594 214.050781 C 148.207031 213.460938 149.8125 212.730469 150.851562 211.773438 C 152.1875 210.546875 152.261719 209.320312 152.1875 207.507812 C 152.136719 206.339844 151.488281 203.917969 150.941406 202.1875 Z M 150.941406 202.1875 " fill-opacity="1" fill-rule="nonzero"/></g></g></g><g clip-path="url(#7c1a47c163)"><g clip-path="url(#d0fcfab67e)"><g clip-path="url(#065bb4acda)"><path fill="#f9f7f4" d="M 149.175781 202.199219 C 146.664062 193.179688 143.867188 184.25 140.78125 175.402344 C 139.808594 172.621094 138.855469 169.339844 137.398438 167.664062 C 137.042969 167.21875 136.597656 166.898438 136.0625 166.710938 C 135.539062 166.515625 134.753906 166.554688 134.203125 166.652344 C 129.265625 167.515625 122.539062 169.679688 118.003906 171.722656 C 117.324219 172.027344 115.605469 172.367188 115.089844 173.746094 C 114.597656 175.078125 115.304688 177.449219 115.703125 179.058594 C 117.375 185.789062 121.109375 199.265625 123.929688 207.246094 C 124.84375 209.84375 125.527344 212.011719 126.6875 214.511719 C 126.964844 215.109375 127.257812 216.074219 128.195312 216.570312 C 129.589844 217.304688 131.109375 216.875 132.023438 216.691406 C 135.929688 215.898438 143.59375 213.402344 146.972656 211.867188 C 147.804688 211.492188 149.082031 210.984375 149.644531 210.265625 C 150.363281 209.339844 150.601562 208.78125 150.5 207.625 C 150.355469 206.027344 149.605469 203.734375 149.175781 202.199219 Z M 127.464844 170.078125 C 127.332031 170.148438 127.195312 170.207031 127.050781 170.25 C 126.339844 170.476562 124.382812 171.234375 123.921875 171.164062 C 123.816406 171.15625 123.753906 171.101562 123.726562 171 C 123.699219 170.902344 123.730469 170.820312 123.8125 170.761719 C 123.8125 170.761719 123.953125 170.683594 123.972656 170.671875 C 124.425781 170.417969 126.113281 169.902344 127.121094 169.660156 C 127.289062 169.628906 127.496094 169.609375 127.566406 169.761719 C 127.613281 169.894531 127.582031 170 127.464844 170.078125 Z M 127.464844 170.078125 " fill-opacity="1" fill-rule="nonzero"/></g></g></g><g clip-path="url(#308ca066e4)"><g clip-path="url(#f64bc0dfe2)"><g clip-path="url(#fdebce178a)"><path fill="#ffbf23" d="M 132.429688 180.835938 C 132.453125 180.878906 132.378906 180.84375 132.375 180.785156 L 127.015625 182.222656 C 126.707031 181.378906 126.722656 180.542969 127.070312 179.710938 C 127.371094 179.046875 127.871094 178.589844 128.558594 178.347656 C 128.945312 178.203125 129.339844 178.164062 129.75 178.234375 C 130.15625 178.304688 130.515625 178.472656 130.828125 178.742188 C 131.167969 179.019531 131.464844 179.339844 131.71875 179.699219 C 131.976562 180.066406 132.210938 180.441406 132.429688 180.835938 Z M 142.019531 204.359375 C 142.113281 204.464844 142.105469 204.566406 141.996094 204.660156 C 141.890625 204.753906 141.789062 204.746094 141.695312 204.640625 L 141.21875 204.101562 L 140.609375 204.480469 C 140.632812 204.601562 140.65625 204.722656 140.695312 204.835938 C 140.722656 204.976562 140.664062 205.058594 140.527344 205.085938 C 140.386719 205.109375 140.304688 205.054688 140.277344 204.917969 C 140.179688 204.589844 140.117188 204.257812 140.085938 203.917969 C 140.074219 203.757812 140.066406 203.601562 140.066406 203.441406 C 140.058594 203.308594 140.070312 203.183594 140.105469 203.054688 C 140.15625 202.898438 140.261719 202.8125 140.425781 202.792969 C 140.570312 202.792969 140.691406 202.847656 140.78125 202.964844 C 141.199219 203.417969 141.597656 203.894531 142.011719 204.367188 Z M 140.929688 203.777344 L 140.667969 203.484375 L 140.5 203.292969 C 140.496094 203.332031 140.496094 203.375 140.496094 203.410156 C 140.492188 203.570312 140.5 203.726562 140.515625 203.882812 C 140.523438 203.929688 140.527344 203.984375 140.53125 204.035156 Z M 143.296875 201.738281 C 142.808594 201.882812 142.332031 202.058594 141.835938 202.171875 C 141.710938 202.207031 141.660156 202.289062 141.683594 202.417969 C 141.707031 202.546875 141.785156 202.605469 141.917969 202.59375 C 142.136719 202.550781 142.347656 202.480469 142.5625 202.414062 C 142.5625 202.414062 142.566406 202.421875 142.566406 202.425781 C 142.769531 202.960938 142.996094 203.492188 143.199219 204.027344 C 143.261719 204.15625 143.355469 204.1875 143.484375 204.125 C 143.613281 204.0625 143.648438 203.964844 143.582031 203.835938 C 143.386719 203.316406 143.167969 202.804688 142.96875 202.285156 L 143.375 202.160156 C 143.511719 202.128906 143.566406 202.046875 143.546875 201.910156 C 143.515625 201.765625 143.429688 201.710938 143.285156 201.742188 Z M 131.226562 206.976562 L 131.203125 206.980469 Z M 132.339844 207.574219 C 132.484375 207.8125 132.097656 207.996094 131.957031 207.765625 C 131.851562 207.589844 131.738281 207.417969 131.625 207.25 C 131.574219 207.292969 131.515625 207.328125 131.453125 207.347656 C 131.335938 207.394531 131.210938 207.429688 131.089844 207.464844 C 130.890625 207.519531 130.691406 207.570312 130.492188 207.617188 C 130.5 207.960938 130.519531 208.308594 130.554688 208.648438 C 130.582031 208.921875 130.160156 209.003906 130.132812 208.730469 C 130.078125 208.164062 130.054688 207.601562 130.066406 207.03125 C 130.074219 206.75 130.089844 206.464844 130.113281 206.183594 C 130.132812 205.957031 130.132812 205.675781 130.320312 205.507812 C 130.539062 205.320312 130.75 205.476562 130.902344 205.648438 C 131.085938 205.847656 131.257812 206.050781 131.425781 206.253906 C 131.757812 206.675781 132.0625 207.117188 132.339844 207.574219 Z M 131.335938 206.945312 Z M 131.386719 206.90625 C 131.328125 206.824219 131.269531 206.75 131.203125 206.664062 C 131.074219 206.492188 130.9375 206.328125 130.796875 206.167969 C 130.726562 206.082031 130.652344 206 130.574219 205.917969 C 130.53125 206.128906 130.515625 206.34375 130.519531 206.558594 C 130.503906 206.765625 130.5 206.96875 130.496094 207.179688 C 130.648438 207.140625 130.800781 207.101562 130.957031 207.058594 L 131.125 207.007812 L 131.203125 206.984375 L 131.230469 206.980469 L 131.328125 206.941406 L 131.351562 206.9375 C 131.359375 206.929688 131.371094 206.917969 131.382812 206.910156 Z M 132.6875 205.359375 C 132.65625 205.222656 132.574219 205.167969 132.4375 205.191406 C 132.296875 205.21875 132.242188 205.300781 132.265625 205.441406 C 132.433594 206.097656 132.640625 206.742188 132.882812 207.375 C 132.945312 207.5 133.039062 207.535156 133.167969 207.472656 C 133.296875 207.410156 133.332031 207.3125 133.265625 207.183594 C 133.035156 206.589844 132.839844 205.980469 132.675781 205.363281 Z M 138.738281 203.871094 C 138.671875 203.75 138.578125 203.722656 138.457031 203.78125 C 138.335938 203.839844 138.300781 203.933594 138.355469 204.058594 C 138.417969 204.203125 138.484375 204.34375 138.554688 204.488281 L 137.746094 204.792969 C 137.644531 204.523438 137.550781 204.25 137.464844 203.972656 C 137.4375 203.839844 137.355469 203.78125 137.214844 203.800781 C 137.074219 203.828125 137.019531 203.914062 137.046875 204.054688 C 137.269531 204.792969 137.542969 205.511719 137.867188 206.210938 C 137.929688 206.339844 138.023438 206.371094 138.152344 206.308594 C 138.28125 206.246094 138.3125 206.152344 138.25 206.023438 C 138.121094 205.753906 138.003906 205.476562 137.890625 205.199219 L 138.746094 204.875 C 138.839844 205.042969 138.9375 205.210938 139.042969 205.375 C 139.109375 205.5 139.207031 205.53125 139.332031 205.472656 C 139.457031 205.410156 139.492188 205.3125 139.429688 205.183594 C 139.160156 204.765625 138.925781 204.328125 138.726562 203.871094 Z M 136.777344 206.300781 C 136.308594 206.519531 135.628906 206.785156 135.328125 206.1875 C 135.066406 205.65625 135.054688 205.117188 135.292969 204.578125 C 135.40625 204.324219 135 204.179688 134.890625 204.433594 C 134.582031 205.136719 134.617188 205.824219 134.996094 206.492188 C 135.195312 206.816406 135.484375 206.984375 135.863281 206.996094 C 136.253906 206.984375 136.617188 206.886719 136.960938 206.695312 C 137.089844 206.628906 137.121094 206.53125 137.058594 206.402344 C 136.992188 206.273438 136.898438 206.238281 136.765625 206.304688 Z M 136.777344 206.300781 " fill-opacity="1" fill-rule="nonzero"/></g></g></g><g clip-path="url(#97f03e2e46)"><g clip-path="url(#983e2a307d)"><g clip-path="url(#c45a2ce2bb)"><path fill="#14697d" d="M 141.144531 195.589844 C 141.082031 195.785156 140.84375 195.863281 140.691406 196.003906 C 140.652344 196.058594 140.597656 196.097656 140.539062 196.125 C 140.460938 196.136719 140.390625 196.121094 140.324219 196.074219 C 139.308594 195.523438 138.515625 194.632812 137.777344 193.742188 L 137.554688 193.273438 C 137.902344 193.121094 138.164062 192.691406 138.535156 192.765625 C 138.648438 192.792969 138.746094 192.847656 138.835938 192.921875 C 139.671875 193.53125 140.390625 194.257812 140.992188 195.101562 C 141.121094 195.242188 141.171875 195.402344 141.144531 195.589844 Z M 139.171875 198.261719 C 139.03125 198.484375 138.964844 198.726562 138.980469 198.988281 C 139.015625 199.242188 139.25 199.480469 139.5 199.421875 C 139.628906 199.382812 139.738281 199.3125 139.828125 199.210938 C 140.210938 198.871094 140.554688 198.492188 140.851562 198.070312 C 141.15625 197.636719 141.292969 197.152344 141.265625 196.621094 L 140.59375 196.46875 C 140.007812 196.976562 139.53125 197.574219 139.164062 198.257812 Z M 130.234375 199.898438 C 130.300781 199.855469 130.34375 199.796875 130.363281 199.71875 C 130.777344 198.636719 130.792969 197.449219 130.777344 196.289062 L 130.636719 195.785156 C 130.273438 195.894531 129.796875 195.742188 129.5625 196.039062 C 129.5 196.132812 129.460938 196.238281 129.445312 196.351562 C 129.207031 197.359375 129.136719 198.378906 129.234375 199.410156 C 129.226562 199.597656 129.292969 199.753906 129.433594 199.878906 C 129.609375 199.988281 129.835938 199.894531 130.042969 199.902344 C 130.105469 199.914062 130.164062 199.910156 130.226562 199.890625 Z M 132.625 200.480469 C 131.875 200.289062 131.117188 200.238281 130.347656 200.332031 L 130.007812 200.925781 C 130.378906 201.304688 130.828125 201.527344 131.355469 201.597656 C 131.867188 201.660156 132.378906 201.664062 132.890625 201.605469 C 133.023438 201.609375 133.152344 201.578125 133.265625 201.507812 C 133.472656 201.359375 133.453125 201.023438 133.292969 200.828125 C 133.105469 200.640625 132.886719 200.527344 132.625 200.480469 Z M 136.972656 192.308594 C 136.699219 192.070312 136.394531 192.015625 136.054688 192.140625 C 135.460938 192.332031 134.800781 192.558594 134.101562 192.789062 C 134.03125 192.578125 133.949219 192.371094 133.855469 192.171875 C 133.816406 192.078125 133.765625 191.988281 133.703125 191.910156 C 134.636719 191.605469 135.523438 191.199219 136.367188 190.695312 C 138.085938 189.617188 138.398438 188.867188 138.828125 186.882812 C 139.050781 185.839844 138.339844 181.976562 137.007812 180.621094 C 136.621094 180.234375 136.175781 179.9375 135.671875 179.726562 C 134.960938 179.476562 134.230469 179.355469 133.480469 179.371094 C 131.792969 179.414062 130.164062 179.753906 128.601562 180.386719 C 126.949219 181.082031 125.363281 181.742188 124.257812 183.15625 C 123.808594 183.730469 123.46875 184.296875 123.410156 185.023438 C 123.378906 185.679688 123.4375 186.328125 123.582031 186.972656 C 123.8125 187.917969 124.429688 189.570312 125.246094 190.652344 C 125.9375 191.582031 126.90625 192.332031 128.011719 192.628906 C 128.441406 192.773438 128.882812 192.832031 129.335938 192.8125 C 130.53125 192.738281 131.699219 192.53125 132.84375 192.183594 C 132.863281 192.515625 132.933594 192.835938 133.058594 193.144531 C 132.394531 193.378906 131.71875 193.621094 131.050781 193.867188 C 130.8125 193.957031 130.546875 194.082031 130.503906 194.464844 C 130.492188 194.6875 130.519531 194.90625 130.582031 195.121094 C 131.113281 197.328125 133.101562 199.886719 134.761719 200.464844 C 135.519531 200.726562 136.738281 200.246094 137.15625 199.707031 C 138.417969 198.078125 137.964844 195.074219 137.382812 193.144531 C 137.324219 192.933594 137.183594 192.46875 136.972656 192.296875 Z M 136.972656 192.308594 " fill-opacity="1" fill-rule="nonzero"/></g></g></g><g clip-path="url(#33123b70bd)"><g clip-path="url(#b62cfe8008)"><g clip-path="url(#28e5467e32)"><path fill="#2d323f" d="M 129.042969 178.226562 C 128.878906 178.25 128.71875 178.289062 128.5625 178.347656 C 128.367188 178.421875 128.179688 178.515625 128.007812 178.628906 C 127.957031 178.476562 127.929688 178.316406 127.917969 178.152344 C 127.910156 178.121094 127.910156 178.085938 127.917969 178.050781 C 127.929688 178 127.949219 177.957031 127.984375 177.917969 C 128.132812 177.726562 128.324219 177.640625 128.5625 177.652344 C 128.605469 177.652344 128.644531 177.660156 128.679688 177.675781 C 128.769531 177.730469 128.835938 177.804688 128.886719 177.894531 C 128.949219 178 129 178.113281 129.042969 178.226562 Z M 123.535156 186.742188 C 123.253906 186.8125 122.988281 186.921875 122.738281 187.070312 C 122.488281 187.207031 122.363281 187.421875 122.363281 187.707031 C 122.332031 188.101562 122.742188 189.09375 122.910156 189.332031 C 123.007812 189.46875 123.132812 189.578125 123.285156 189.65625 C 123.585938 189.792969 124.105469 189.722656 124.550781 189.511719 C 124.136719 188.699219 123.8125 187.847656 123.582031 186.960938 C 123.5625 186.890625 123.546875 186.820312 123.535156 186.742188 Z M 139.351562 182 C 139.179688 181.769531 138.953125 181.675781 138.667969 181.71875 C 138.382812 181.75 138.109375 181.824219 137.84375 181.9375 C 138.238281 182.84375 138.519531 183.789062 138.691406 184.761719 C 138.832031 184.734375 138.96875 184.691406 139.101562 184.636719 C 139.359375 185.363281 139.835938 186.886719 139.648438 187.71875 C 139.410156 188.742188 138.464844 189.871094 136.480469 190.535156 C 136.476562 190.511719 136.472656 190.492188 136.453125 190.46875 C 136.425781 190.382812 136.363281 190.328125 136.273438 190.308594 C 135.933594 190.226562 135.347656 190.371094 134.96875 190.542969 C 134.46875 190.769531 134.417969 190.933594 134.410156 191.082031 C 134.40625 191.265625 134.464844 191.429688 134.589844 191.566406 C 134.707031 191.664062 134.839844 191.691406 134.984375 191.648438 C 135.488281 191.558594 135.960938 191.390625 136.40625 191.136719 C 136.515625 191.070312 136.566406 190.972656 136.558594 190.847656 C 136.554688 190.820312 136.550781 190.800781 136.542969 190.78125 C 137.210938 190.558594 138.125 190.125 138.652344 189.6875 C 139.238281 189.191406 139.769531 188.535156 139.914062 187.65625 C 140.078125 186.644531 139.710938 185.570312 139.34375 184.523438 C 139.53125 184.429688 139.683594 184.292969 139.796875 184.113281 C 139.871094 183.960938 139.90625 183.800781 139.902344 183.628906 C 139.886719 183.335938 139.613281 182.296875 139.351562 182 Z M 132.929688 187.554688 C 132.878906 187.511719 132.800781 187.535156 132.734375 187.5625 C 132.1875 187.792969 131.625 187.976562 131.046875 188.113281 C 130.925781 188.136719 130.875 188.148438 130.839844 188.199219 C 130.816406 188.238281 130.816406 188.28125 130.835938 188.320312 C 130.941406 188.660156 131.152344 188.917969 131.464844 189.085938 C 131.988281 189.320312 132.609375 189.09375 132.828125 188.796875 C 133.058594 188.441406 133.113281 188.058594 132.984375 187.652344 C 132.976562 187.613281 132.957031 187.582031 132.929688 187.554688 Z M 127.945312 185.519531 C 127.566406 185.570312 127.269531 185.75 127.050781 186.058594 C 126.839844 186.351562 126.765625 186.675781 126.824219 187.03125 C 126.875 187.304688 127.304688 187.222656 127.242188 186.953125 C 127.203125 186.707031 127.261719 186.484375 127.414062 186.289062 C 127.507812 186.171875 127.621094 186.082031 127.757812 186.015625 C 127.894531 185.953125 128.039062 185.925781 128.191406 185.929688 C 128.339844 185.933594 128.484375 185.972656 128.613281 186.042969 C 128.746094 186.117188 128.855469 186.214844 128.945312 186.335938 C 129.078125 186.574219 129.464844 186.390625 129.328125 186.148438 C 129.183594 185.914062 128.984375 185.738281 128.734375 185.625 C 128.480469 185.507812 128.21875 185.472656 127.949219 185.519531 Z M 133.304688 184.960938 C 133.257812 184.714844 133.304688 184.492188 133.449219 184.289062 C 133.601562 184.074219 133.808594 183.949219 134.074219 183.917969 C 134.226562 183.898438 134.378906 183.910156 134.527344 183.957031 C 134.722656 184.007812 134.875 184.117188 134.988281 184.289062 C 135.050781 184.410156 135.148438 184.441406 135.273438 184.386719 C 135.402344 184.320312 135.433594 184.226562 135.371094 184.097656 C 135.21875 183.863281 135.015625 183.691406 134.757812 183.585938 C 134.503906 183.476562 134.238281 183.449219 133.964844 183.503906 C 133.789062 183.53125 133.628906 183.59375 133.476562 183.6875 C 133.328125 183.78125 133.203125 183.898438 133.101562 184.042969 C 132.996094 184.1875 132.929688 184.347656 132.890625 184.519531 C 132.851562 184.691406 132.851562 184.867188 132.882812 185.039062 C 132.949219 185.300781 133.371094 185.222656 133.304688 184.960938 Z M 141.15625 195.367188 C 140.9375 195.34375 140.75 195.40625 140.585938 195.554688 C 140.4375 195.726562 140.363281 195.929688 140.371094 196.160156 C 140.375 196.386719 140.460938 196.585938 140.621094 196.75 C 140.894531 197.019531 141.210938 197.078125 141.566406 196.925781 C 141.894531 196.707031 142.03125 196.40625 141.984375 196.015625 C 141.9375 195.824219 141.839844 195.667969 141.683594 195.546875 C 141.53125 195.425781 141.355469 195.367188 141.15625 195.367188 Z M 129.816406 199.492188 C 129.597656 199.488281 129.410156 199.5625 129.261719 199.722656 C 129.109375 199.847656 129.015625 200.007812 128.980469 200.203125 C 128.941406 200.394531 128.96875 200.578125 129.058594 200.753906 C 129.277344 201.074219 129.578125 201.210938 129.964844 201.164062 C 130.332031 201.046875 130.535156 200.796875 130.570312 200.414062 C 130.613281 200.066406 130.484375 199.804688 130.179688 199.628906 C 130.070312 199.550781 129.949219 199.503906 129.816406 199.492188 Z M 130.503906 194.457031 C 130.507812 194.417969 130.515625 194.382812 130.527344 194.347656 C 130.378906 194.355469 130.246094 194.398438 130.121094 194.472656 C 129.957031 194.582031 129.808594 194.710938 129.675781 194.859375 C 129.5625 194.964844 129.46875 195.085938 129.390625 195.222656 C 129.257812 195.523438 129.269531 195.816406 129.429688 196.101562 C 129.75 196.621094 130.214844 196.894531 130.824219 196.929688 C 130.972656 196.929688 131.113281 196.898438 131.25 196.839844 C 130.957031 196.289062 130.734375 195.714844 130.582031 195.109375 C 130.519531 194.898438 130.492188 194.679688 130.503906 194.457031 Z M 138.160156 192.179688 C 138.015625 192.117188 137.867188 192.078125 137.710938 192.058594 C 137.515625 192.019531 137.320312 192.007812 137.125 192.023438 C 136.984375 192.035156 136.855469 192.082031 136.738281 192.15625 C 136.820312 192.195312 136.898438 192.242188 136.972656 192.300781 C 137.179688 192.472656 137.324219 192.941406 137.382812 193.136719 C 137.523438 193.609375 137.640625 194.085938 137.734375 194.570312 C 137.847656 194.53125 137.953125 194.476562 138.046875 194.40625 C 138.253906 194.238281 138.410156 194.03125 138.511719 193.785156 C 138.648438 193.503906 138.699219 193.207031 138.660156 192.894531 C 138.613281 192.574219 138.449219 192.332031 138.160156 192.179688 Z M 138.160156 192.179688 " fill-opacity="1" fill-rule="nonzero"/></g></g></g></svg>