<svg xmlns="http://www.w3.org/2000/svg" xmlns:xlink="http://www.w3.org/1999/xlink" width="300" zoomAndPan="magnify" viewBox="0 0 224.87999 225" height="300" preserveAspectRatio="xMidYMid meet" version="1.0"><path fill="#14697d" d="M 164.445312 151.238281 C 153.269531 165.167969 134.21875 165.460938 127.441406 165.988281 C 104.375 167.785156 73 158.824219 60.371094 130.914062 C 49.289062 106.421875 60.296875 83.265625 61.867188 80.097656 C 64.503906 74.785156 71.023438 62.074219 85.71875 54.816406 C 108.597656 43.515625 140.234375 50.886719 149.292969 66.847656 C 153.550781 74.347656 148.96875 76.941406 153.378906 89.789062 C 159.292969 106.992188 169.316406 107.917969 172.261719 121.457031 C 175.589844 136.742188 165.480469 149.953125 164.445312 151.238281 " fill-opacity="1" fill-rule="nonzero"/><path fill="#ffffff" d="M 167.378906 58.65625 L 60.1875 58.65625 C 57.824219 58.65625 55.90625 60.535156 55.90625 62.851562 L 55.90625 134.828125 C 55.90625 137.144531 57.824219 139.023438 60.1875 139.023438 L 167.378906 139.023438 C 169.742188 139.023438 171.660156 137.144531 171.660156 134.828125 L 171.660156 62.851562 C 171.660156 60.535156 169.742188 58.65625 167.378906 58.65625 " fill-opacity="1" fill-rule="nonzero"/><path fill="#000000" d="M 60.1875 58.871094 C 57.945312 58.871094 56.117188 60.65625 56.117188 62.851562 L 56.117188 134.828125 C 56.117188 137.023438 57.945312 138.808594 60.1875 138.808594 L 167.378906 138.808594 C 169.621094 138.808594 171.449219 137.023438 171.449219 134.828125 L 171.449219 62.851562 C 171.449219 60.65625 169.621094 58.871094 167.378906 58.871094 Z M 167.378906 139.234375 L 60.1875 139.234375 C 57.710938 139.234375 55.691406 137.257812 55.691406 134.828125 L 55.691406 62.851562 C 55.691406 60.421875 57.710938 58.445312 60.1875 58.445312 L 167.378906 58.445312 C 169.855469 58.445312 171.875 60.421875 171.875 62.851562 L 171.875 134.828125 C 171.875 137.257812 169.855469 139.234375 167.378906 139.234375 " fill-opacity="1" fill-rule="nonzero"/><path fill="#ffbf23" d="M 60.742188 136.671875 C 59.316406 136.671875 58.160156 135.546875 58.160156 134.160156 L 58.160156 63.378906 C 58.160156 61.992188 59.316406 60.867188 60.742188 60.867188 L 166.824219 60.867188 C 168.25 60.867188 169.40625 61.992188 169.40625 63.378906 L 169.40625 134.160156 C 169.40625 135.546875 168.25 136.671875 166.824219 136.671875 L 60.742188 136.671875 " fill-opacity="1" fill-rule="nonzero"/><path fill="#ffffff" d="M 99.996094 126.625 C 99.996094 129.699219 97.804688 132.195312 95.101562 132.195312 L 65.753906 132.195312 C 63.050781 132.195312 60.859375 129.699219 60.859375 126.625 L 60.859375 69.613281 C 60.859375 66.535156 63.050781 64.042969 65.753906 64.042969 L 95.101562 64.042969 C 97.804688 64.042969 99.996094 66.535156 99.996094 69.613281 L 99.996094 126.625 " fill-opacity="1" fill-rule="nonzero"/><path fill="#000000" d="M 95.101562 132.40625 L 65.753906 132.40625 C 62.9375 132.40625 60.644531 129.8125 60.644531 126.621094 L 60.644531 69.613281 C 60.644531 66.421875 62.9375 63.828125 65.753906 63.828125 L 95.101562 63.828125 C 97.917969 63.828125 100.210938 66.421875 100.210938 69.613281 L 100.210938 100.664062 C 100.210938 100.78125 100.113281 100.878906 99.996094 100.878906 C 99.878906 100.878906 99.785156 100.78125 99.785156 100.664062 L 99.785156 69.613281 C 99.785156 66.65625 97.683594 64.253906 95.101562 64.253906 L 65.753906 64.253906 C 63.171875 64.253906 61.070312 66.65625 61.070312 69.613281 L 61.070312 126.621094 C 61.070312 129.578125 63.171875 131.984375 65.753906 131.984375 L 95.101562 131.984375 C 97.683594 131.984375 99.785156 129.578125 99.785156 126.621094 L 99.785156 107.777344 C 99.785156 107.660156 99.878906 107.566406 99.996094 107.566406 C 100.113281 107.566406 100.210938 107.660156 100.210938 107.777344 L 100.210938 126.621094 C 100.210938 129.8125 97.917969 132.40625 95.101562 132.40625 " fill-opacity="1" fill-rule="nonzero"/><path fill="#ffbf23" d="M 84.199219 95.65625 L 76.136719 95.65625 C 75.601562 95.65625 75.164062 95.21875 75.164062 94.683594 C 75.164062 94.148438 75.601562 93.714844 76.136719 93.714844 L 84.199219 93.714844 C 84.738281 93.714844 85.171875 94.148438 85.171875 94.683594 C 85.171875 95.21875 84.738281 95.65625 84.199219 95.65625 " fill-opacity="1" fill-rule="nonzero"/><path fill="#14697d" d="M 93.878906 101.351562 L 66.457031 101.351562 C 65.921875 101.351562 65.488281 100.917969 65.488281 100.382812 C 65.488281 99.847656 65.921875 99.410156 66.457031 99.410156 L 93.878906 99.410156 C 94.414062 99.410156 94.847656 99.847656 94.847656 100.382812 C 94.847656 100.917969 94.414062 101.351562 93.878906 101.351562 " fill-opacity="1" fill-rule="nonzero"/><path fill="#14697d" d="M 93.878906 105.585938 L 66.457031 105.585938 C 65.921875 105.585938 65.488281 105.152344 65.488281 104.617188 C 65.488281 104.078125 65.921875 103.644531 66.457031 103.644531 L 93.878906 103.644531 C 94.414062 103.644531 94.847656 104.078125 94.847656 104.617188 C 94.847656 105.152344 94.414062 105.585938 93.878906 105.585938 " fill-opacity="1" fill-rule="nonzero"/><path fill="#14697d" d="M 89.160156 118.355469 L 66.386719 118.355469 C 65.851562 118.355469 65.417969 117.917969 65.417969 117.382812 C 65.417969 116.847656 65.851562 116.414062 66.386719 116.414062 L 89.160156 116.414062 C 89.695312 116.414062 90.128906 116.847656 90.128906 117.382812 C 90.128906 117.917969 89.695312 118.355469 89.160156 118.355469 " fill-opacity="1" fill-rule="nonzero"/><path fill="#14697d" d="M 93.808594 122.585938 L 66.386719 122.585938 C 65.851562 122.585938 65.417969 122.152344 65.417969 121.617188 C 65.417969 121.078125 65.851562 120.644531 66.386719 120.644531 L 93.808594 120.644531 C 94.34375 120.644531 94.777344 121.078125 94.777344 121.617188 C 94.777344 122.152344 94.34375 122.585938 93.808594 122.585938 " fill-opacity="1" fill-rule="nonzero"/><path fill="#14697d" d="M 83.234375 126.492188 L 66.386719 126.492188 C 65.851562 126.492188 65.417969 126.054688 65.417969 125.519531 C 65.417969 124.984375 65.851562 124.546875 66.386719 124.546875 L 83.234375 124.546875 C 83.769531 124.546875 84.203125 124.984375 84.203125 125.519531 C 84.203125 126.054688 83.769531 126.492188 83.234375 126.492188 " fill-opacity="1" fill-rule="nonzero"/><path fill="#14697d" d="M 84.8125 109.820312 L 66.457031 109.820312 C 65.921875 109.820312 65.488281 109.382812 65.488281 108.847656 C 65.488281 108.3125 65.921875 107.878906 66.457031 107.878906 L 84.8125 107.878906 C 85.347656 107.878906 85.785156 108.3125 85.785156 108.847656 C 85.785156 109.382812 85.347656 109.820312 84.8125 109.820312 " fill-opacity="1" fill-rule="nonzero"/><path fill="#14697d" d="M 93.878906 114.050781 L 66.457031 114.050781 C 65.921875 114.050781 65.488281 113.617188 65.488281 113.082031 C 65.488281 112.542969 65.921875 112.109375 66.457031 112.109375 L 93.878906 112.109375 C 94.414062 112.109375 94.847656 112.542969 94.847656 113.082031 C 94.847656 113.617188 94.414062 114.050781 93.878906 114.050781 " fill-opacity="1" fill-rule="nonzero"/><path fill="#000000" d="M 76.929688 83.433594 C 75.070312 83.433594 73.6875 81.691406 74.136719 79.886719 C 74.875 76.921875 76.492188 73.09375 79.972656 72.550781 C 83.597656 71.988281 85.558594 76.414062 86.515625 79.789062 C 87.03125 81.621094 85.648438 83.433594 83.746094 83.433594 L 76.929688 83.433594 " fill-opacity="1" fill-rule="nonzero"/><path fill="#a6201e" d="M 79.835938 89.28125 C 82.519531 89.21875 84.316406 88.636719 86.25 86.8125 C 84.011719 86.121094 82.90625 86.089844 80.25 86.089844 C 77.59375 86.089844 75.980469 86.222656 73.746094 86.917969 C 73.746094 86.917969 76.28125 89.367188 79.835938 89.28125 " fill-opacity="1" fill-rule="nonzero"/><path fill="#000000" d="M 73.695312 87.140625 C 73.601562 87.140625 73.515625 87.078125 73.492188 86.980469 C 73.460938 86.867188 73.527344 86.753906 73.640625 86.722656 C 75.738281 86.160156 77.960938 85.878906 80.25 85.878906 C 82.3125 85.878906 84.328125 86.109375 86.246094 86.566406 C 86.359375 86.59375 86.429688 86.707031 86.402344 86.824219 C 86.375 86.9375 86.257812 87.007812 86.144531 86.980469 C 84.261719 86.53125 82.28125 86.304688 80.25 86.304688 C 77.996094 86.304688 75.8125 86.582031 73.75 87.132812 C 73.734375 87.136719 73.714844 87.140625 73.695312 87.140625 " fill-opacity="1" fill-rule="nonzero"/><path fill="#ffffff" d="M 80.316406 87.96875 C 79.375 87.96875 78.609375 87.207031 78.609375 86.265625 L 78.609375 76.066406 L 82.019531 76.066406 L 82.019531 86.265625 C 82.019531 87.207031 81.253906 87.96875 80.316406 87.96875 " fill-opacity="1" fill-rule="nonzero"/><path fill="#000000" d="M 78.824219 76.277344 L 78.824219 86.265625 C 78.824219 87.089844 79.492188 87.757812 80.316406 87.757812 C 81.136719 87.757812 81.804688 87.089844 81.804688 86.265625 L 81.804688 76.277344 Z M 80.316406 88.183594 C 79.257812 88.183594 78.398438 87.324219 78.398438 86.265625 L 78.398438 76.066406 C 78.398438 75.949219 78.492188 75.855469 78.609375 75.855469 L 82.019531 75.855469 C 82.136719 75.855469 82.230469 75.949219 82.230469 76.066406 L 82.230469 86.265625 C 82.230469 87.324219 81.371094 88.183594 80.316406 88.183594 " fill-opacity="1" fill-rule="nonzero"/><path fill="#ffffff" d="M 79.042969 81.796875 C 77.9375 81.25 77.167969 80.039062 77.167969 78.636719 L 77.167969 76.824219 C 77.167969 74.84375 78.648438 73.238281 80.472656 73.238281 C 82.175781 73.238281 83.558594 74.738281 83.558594 76.59375 L 83.558594 78.636719 C 83.558594 80.550781 82.128906 82.105469 80.363281 82.105469 L 79.042969 81.796875 " fill-opacity="1" fill-rule="nonzero"/><path fill="#000000" d="M 80.363281 82.320312 C 80.246094 82.320312 80.152344 82.222656 80.152344 82.105469 C 80.152344 81.988281 80.246094 81.894531 80.363281 81.894531 C 82.007812 81.894531 83.347656 80.433594 83.347656 78.636719 L 83.347656 76.59375 C 83.347656 74.859375 82.058594 73.449219 80.472656 73.449219 C 78.769531 73.449219 77.382812 74.964844 77.382812 76.824219 L 77.382812 78.636719 C 77.382812 79.914062 78.070312 81.078125 79.136719 81.605469 C 79.242188 81.65625 79.285156 81.785156 79.234375 81.890625 C 79.179688 81.996094 79.054688 82.039062 78.949219 81.984375 C 77.738281 81.386719 76.957031 80.074219 76.957031 78.636719 L 76.957031 76.824219 C 76.957031 74.730469 78.535156 73.027344 80.472656 73.027344 C 82.292969 73.027344 83.773438 74.625 83.773438 76.59375 L 83.773438 78.636719 C 83.773438 80.667969 82.242188 82.320312 80.363281 82.320312 " fill-opacity="1" fill-rule="nonzero"/><path fill="#000000" d="M 77.144531 75.851562 L 83.785156 75.851562 C 83.785156 75.851562 83.652344 74.542969 82.464844 73.664062 C 81.453125 72.917969 80.105469 72.847656 78.957031 73.363281 C 78.179688 73.710938 77.378906 74.339844 77.230469 75.457031 L 77.144531 75.851562 " fill-opacity="1" fill-rule="nonzero"/><path fill="#000000" d="M 80.371094 80.09375 C 79.96875 80.09375 79.59375 79.933594 79.316406 79.636719 C 79.238281 79.550781 79.242188 79.417969 79.328125 79.339844 C 79.414062 79.257812 79.546875 79.261719 79.628906 79.347656 C 79.820312 79.554688 80.085938 79.667969 80.371094 79.667969 C 80.65625 79.667969 80.917969 79.554688 81.113281 79.347656 C 81.195312 79.261719 81.328125 79.257812 81.414062 79.339844 C 81.5 79.417969 81.503906 79.550781 81.421875 79.636719 C 81.148438 79.933594 80.773438 80.09375 80.371094 80.09375 " fill-opacity="1" fill-rule="nonzero"/><path fill="#000000" d="M 79.902344 89.472656 C 79.511719 89.472656 79.121094 89.449219 78.726562 89.402344 C 76.152344 89.09375 73.855469 87.800781 72.253906 85.761719 C 70.652344 83.722656 69.941406 81.183594 70.25 78.613281 C 70.5625 76.039062 71.851562 73.742188 73.890625 72.140625 C 75.929688 70.539062 78.46875 69.828125 81.042969 70.136719 C 83.613281 70.445312 85.914062 71.738281 87.511719 73.777344 C 88.613281 75.175781 89.304688 76.847656 89.515625 78.605469 C 89.53125 78.722656 89.449219 78.828125 89.332031 78.84375 C 89.214844 78.859375 89.109375 78.773438 89.09375 78.65625 C 88.894531 76.976562 88.230469 75.378906 87.179688 74.039062 C 85.648438 72.089844 83.449219 70.855469 80.992188 70.558594 C 78.53125 70.261719 76.101562 70.941406 74.152344 72.472656 C 72.203125 74.003906 70.96875 76.203125 70.671875 78.664062 C 70.378906 81.121094 71.058594 83.550781 72.589844 85.5 C 75.75 89.523438 81.589844 90.222656 85.613281 87.066406 C 87.351562 85.699219 88.550781 83.753906 88.980469 81.589844 C 89.003906 81.472656 89.117188 81.398438 89.230469 81.421875 C 89.34375 81.445312 89.421875 81.554688 89.398438 81.671875 C 88.945312 83.933594 87.695312 85.96875 85.875 87.398438 C 84.152344 88.753906 82.066406 89.472656 79.902344 89.472656 " fill-opacity="1" fill-rule="nonzero"/><path fill="#a6201e" d="M 151.292969 102.902344 C 148.894531 100.535156 148.859375 96.65625 151.214844 94.242188 C 153.570312 91.828125 157.425781 91.792969 159.828125 94.164062 C 162.226562 96.53125 162.261719 100.410156 159.90625 102.824219 C 157.550781 105.238281 153.695312 105.273438 151.292969 102.902344 " fill-opacity="1" fill-rule="nonzero"/><path fill="#ffffff" d="M 159.6875 98.203125 L 155.550781 102.441406 C 155.332031 102.667969 154.972656 102.671875 154.75 102.449219 L 151.839844 99.578125 C 151.617188 99.355469 151.613281 98.996094 151.832031 98.773438 L 155.96875 94.535156 C 156.1875 94.308594 156.546875 94.308594 156.769531 94.527344 L 159.679688 97.398438 C 159.902344 97.621094 159.90625 97.980469 159.6875 98.203125 " fill-opacity="1" fill-rule="nonzero"/><path fill="#000000" d="M 156.371094 94.574219 C 156.277344 94.578125 156.1875 94.617188 156.121094 94.683594 L 151.984375 98.921875 C 151.847656 99.0625 151.847656 99.289062 151.988281 99.425781 L 154.898438 102.296875 C 154.964844 102.363281 155.050781 102.398438 155.148438 102.398438 C 155.242188 102.398438 155.332031 102.363281 155.398438 102.292969 L 159.535156 98.058594 C 159.671875 97.917969 159.667969 97.6875 159.53125 97.550781 L 156.621094 94.679688 C 156.554688 94.613281 156.464844 94.574219 156.371094 94.574219 Z M 155.144531 102.824219 C 154.941406 102.824219 154.746094 102.746094 154.601562 102.601562 L 151.691406 99.726562 C 151.386719 99.425781 151.378906 98.929688 151.679688 98.621094 L 155.816406 94.386719 C 155.964844 94.238281 156.15625 94.152344 156.367188 94.152344 C 156.367188 94.152344 156.371094 94.152344 156.371094 94.152344 C 156.578125 94.152344 156.773438 94.230469 156.917969 94.375 L 159.828125 97.25 C 160.132812 97.550781 160.136719 98.046875 159.839844 98.355469 L 155.703125 102.589844 C 155.554688 102.738281 155.363281 102.824219 155.152344 102.824219 C 155.152344 102.824219 155.148438 102.824219 155.144531 102.824219 " fill-opacity="1" fill-rule="nonzero"/><path fill="#000000" d="M 153.304688 99.421875 C 153.207031 99.421875 153.117188 99.355469 153.097656 99.253906 C 153.070312 99.140625 153.144531 99.027344 153.257812 99 L 155.898438 98.425781 C 156.011719 98.398438 156.125 98.472656 156.152344 98.585938 C 156.175781 98.703125 156.101562 98.8125 155.988281 98.839844 L 153.347656 99.417969 C 153.332031 99.421875 153.320312 99.421875 153.304688 99.421875 " fill-opacity="1" fill-rule="nonzero"/><path fill="#000000" d="M 155.953125 98.832031 C 155.941406 98.832031 155.925781 98.832031 155.914062 98.828125 C 155.796875 98.804688 155.722656 98.695312 155.746094 98.578125 L 156.273438 95.914062 C 156.292969 95.800781 156.40625 95.722656 156.523438 95.746094 C 156.636719 95.769531 156.710938 95.882812 156.6875 95.996094 L 156.164062 98.660156 C 156.144531 98.761719 156.054688 98.832031 155.953125 98.832031 " fill-opacity="1" fill-rule="nonzero"/><path fill="#ffffff" d="M 150.929688 64.027344 L 129.804688 64.027344 C 129.15625 64.027344 128.625 64.558594 128.625 65.207031 L 128.625 72.851562 C 128.625 73.46875 129.1875 74.046875 129.804688 74.046875 L 132.410156 74.011719 L 133.484375 76.507812 C 133.542969 76.640625 133.730469 76.640625 133.785156 76.511719 L 134.871094 74.046875 L 151.046875 74.046875 C 151.601562 74.046875 152.046875 73.597656 152.046875 73.046875 L 152.046875 65.144531 C 152.046875 64.527344 151.546875 64.027344 150.929688 64.027344 " fill-opacity="1" fill-rule="nonzero"/><path fill="#000000" d="M 149.066406 67.90625 L 132.183594 67.90625 C 132.066406 67.90625 131.972656 67.808594 131.972656 67.691406 C 131.972656 67.574219 132.066406 67.480469 132.183594 67.480469 L 149.066406 67.480469 C 149.1875 67.480469 149.28125 67.574219 149.28125 67.691406 C 149.28125 67.808594 149.1875 67.90625 149.066406 67.90625 " fill-opacity="1" fill-rule="nonzero"/><path fill="#000000" d="M 149.070312 70.160156 L 145.539062 70.160156 C 145.421875 70.160156 145.324219 70.066406 145.324219 69.949219 C 145.324219 69.832031 145.421875 69.734375 145.539062 69.734375 L 149.070312 69.734375 C 149.183594 69.734375 149.28125 69.832031 149.28125 69.949219 C 149.28125 70.066406 149.183594 70.160156 149.070312 70.160156 " fill-opacity="1" fill-rule="nonzero"/><path fill="#000000" d="M 143.28125 70.160156 L 132.183594 70.160156 C 132.066406 70.160156 131.972656 70.066406 131.972656 69.949219 C 131.972656 69.832031 132.066406 69.734375 132.183594 69.734375 L 143.28125 69.734375 C 143.398438 69.734375 143.496094 69.832031 143.496094 69.949219 C 143.496094 70.066406 143.398438 70.160156 143.28125 70.160156 " fill-opacity="1" fill-rule="nonzero"/><path fill="#000000" d="M 132.410156 73.800781 C 132.496094 73.800781 132.574219 73.851562 132.605469 73.929688 L 133.636719 76.320312 L 134.675781 73.960938 C 134.710938 73.882812 134.789062 73.832031 134.871094 73.832031 L 151.046875 73.832031 C 151.480469 73.832031 151.835938 73.480469 151.835938 73.046875 L 151.835938 65.144531 C 151.835938 64.644531 151.429688 64.242188 150.929688 64.242188 L 129.804688 64.242188 C 129.273438 64.242188 128.835938 64.675781 128.835938 65.207031 L 128.835938 72.851562 C 128.835938 73.355469 129.308594 73.832031 129.804688 73.832031 Z M 133.636719 76.820312 C 133.636719 76.820312 133.636719 76.820312 133.632812 76.820312 C 133.484375 76.820312 133.351562 76.730469 133.292969 76.59375 L 132.273438 74.226562 L 129.808594 74.257812 C 129.074219 74.257812 128.414062 73.585938 128.414062 72.851562 L 128.414062 65.207031 C 128.414062 64.441406 129.035156 63.816406 129.804688 63.816406 L 150.929688 63.816406 C 151.664062 63.816406 152.261719 64.410156 152.261719 65.144531 L 152.261719 73.046875 C 152.261719 73.714844 151.714844 74.257812 151.046875 74.257812 L 135.011719 74.257812 L 133.980469 76.59375 C 133.921875 76.730469 133.785156 76.820312 133.636719 76.820312 " fill-opacity="1" fill-rule="nonzero"/><path fill="#ffffff" d="M 165.042969 75.386719 L 143.914062 75.386719 C 143.300781 75.386719 142.808594 75.882812 142.808594 76.492188 L 142.808594 84.277344 C 142.808594 84.898438 143.3125 85.402344 143.933594 85.402344 L 160.21875 85.402344 L 161.699219 87.535156 C 161.925781 87.863281 162.433594 87.773438 162.535156 87.386719 L 163.050781 85.402344 L 165.15625 85.402344 C 165.75 85.402344 166.230469 84.925781 166.230469 84.332031 L 166.230469 76.574219 C 166.230469 75.917969 165.695312 75.386719 165.042969 75.386719 " fill-opacity="1" fill-rule="nonzero"/><path fill="#000000" d="M 163.175781 79.332031 L 146.292969 79.332031 C 146.175781 79.332031 146.082031 79.238281 146.082031 79.121094 C 146.082031 79.003906 146.175781 78.90625 146.292969 78.90625 L 163.175781 78.90625 C 163.292969 78.90625 163.390625 79.003906 163.390625 79.121094 C 163.390625 79.238281 163.292969 79.332031 163.175781 79.332031 " fill-opacity="1" fill-rule="nonzero"/><path fill="#000000" d="M 163.175781 81.589844 L 159.648438 81.589844 C 159.53125 81.589844 159.433594 81.492188 159.433594 81.378906 C 159.433594 81.261719 159.53125 81.164062 159.648438 81.164062 L 163.175781 81.164062 C 163.292969 81.164062 163.390625 81.261719 163.390625 81.378906 C 163.390625 81.492188 163.292969 81.589844 163.175781 81.589844 " fill-opacity="1" fill-rule="nonzero"/><path fill="#000000" d="M 157.390625 81.589844 L 146.292969 81.589844 C 146.175781 81.589844 146.082031 81.496094 146.082031 81.378906 C 146.082031 81.257812 146.175781 81.164062 146.292969 81.164062 L 157.390625 81.164062 C 157.507812 81.164062 157.601562 81.257812 157.601562 81.378906 C 157.601562 81.496094 157.507812 81.589844 157.390625 81.589844 " fill-opacity="1" fill-rule="nonzero"/><path fill="#000000" d="M 143.914062 75.667969 C 143.382812 75.667969 142.949219 76.101562 142.949219 76.632812 L 142.949219 84.296875 C 142.949219 84.828125 143.382812 85.261719 143.914062 85.261719 L 160.332031 85.261719 L 161.941406 87.582031 C 162.007812 87.679688 162.109375 87.671875 162.140625 87.664062 C 162.171875 87.660156 162.269531 87.632812 162.300781 87.519531 L 162.886719 85.261719 L 165.160156 85.261719 C 165.59375 85.261719 165.945312 84.90625 165.945312 84.472656 L 165.945312 76.574219 C 165.945312 76.074219 165.542969 75.667969 165.042969 75.667969 Z M 162.101562 88.09375 C 161.898438 88.09375 161.710938 87.996094 161.589844 87.824219 L 160.105469 85.6875 L 143.914062 85.6875 C 143.148438 85.6875 142.523438 85.0625 142.523438 84.296875 L 142.523438 76.632812 C 142.523438 75.867188 143.148438 75.242188 143.914062 75.242188 L 165.042969 75.242188 C 165.773438 75.242188 166.371094 75.839844 166.371094 76.574219 L 166.371094 84.472656 C 166.371094 85.140625 165.828125 85.6875 165.160156 85.6875 L 163.214844 85.6875 L 162.710938 87.625 C 162.648438 87.863281 162.457031 88.039062 162.214844 88.085938 C 162.175781 88.089844 162.140625 88.09375 162.101562 88.09375 " fill-opacity="1" fill-rule="nonzero"/><path fill="#a6201e" d="M 125.886719 100.765625 C 125.882812 100.417969 125.605469 100.140625 125.257812 100.128906 L 108.714844 99.558594 C 108.578125 99.542969 108.4375 99.566406 108.316406 99.628906 L 106.121094 100.738281 C 106.121094 100.738281 117.90625 118.304688 118.117188 118.28125 C 118.859375 118.195312 120.285156 117.546875 120.328125 117.527344 C 123.921875 115.714844 126.039062 112.609375 126.039062 108.695312 L 125.886719 100.765625 " fill-opacity="1" fill-rule="nonzero"/><path fill="#ffffff" d="M 124.183594 101.488281 L 106.523438 100.75 C 106.359375 100.71875 106.207031 100.847656 106.207031 101.015625 L 106.207031 109.328125 C 106.207031 113.773438 109.390625 117.582031 113.769531 118.367188 C 119.398438 119.375 124.570312 115.046875 124.570312 109.328125 L 124.183594 101.488281 " fill-opacity="1" fill-rule="nonzero"/><path fill="#000000" d="M 106.472656 100.957031 C 106.457031 100.957031 106.445312 100.964844 106.4375 100.972656 C 106.429688 100.980469 106.417969 100.992188 106.417969 101.015625 L 106.417969 109.328125 C 106.417969 113.675781 109.527344 117.390625 113.804688 118.15625 C 116.425781 118.628906 119.101562 117.917969 121.144531 116.207031 C 123.1875 114.5 124.355469 111.992188 124.355469 109.328125 L 123.980469 101.691406 L 106.5 100.960938 L 106.484375 100.957031 C 106.480469 100.957031 106.476562 100.957031 106.472656 100.957031 Z M 115.394531 118.722656 C 114.84375 118.722656 114.285156 118.675781 113.730469 118.574219 C 109.246094 117.773438 105.992188 113.882812 105.992188 109.328125 L 105.992188 101.015625 C 105.992188 100.871094 106.058594 100.738281 106.167969 100.644531 C 106.273438 100.558594 106.40625 100.519531 106.542969 100.539062 L 124.386719 101.285156 L 124.78125 109.316406 C 124.78125 112.117188 123.554688 114.742188 121.417969 116.535156 C 119.710938 117.960938 117.582031 118.722656 115.394531 118.722656 " fill-opacity="1" fill-rule="nonzero"/><path fill="#000000" d="M 117.4375 108.148438 C 117.4375 106.84375 116.414062 105.789062 115.109375 105.789062 C 113.808594 105.789062 112.839844 106.84375 112.839844 108.148438 C 112.839844 109.105469 113.273438 109.925781 114.316406 110.296875 L 114.449219 113.578125 L 115.820312 113.558594 L 115.820312 110.363281 C 116.75 110.03125 117.4375 109.167969 117.4375 108.148438 " fill-opacity="1" fill-rule="nonzero"/><path fill="#ffffff" d="M 111.535156 99.980469 C 112.046875 99.816406 112.328125 99.273438 112.164062 98.761719 C 111.859375 97.816406 111.433594 96.480469 111.429688 96.472656 C 110.683594 94.144531 111.96875 91.660156 114.300781 90.914062 C 116.628906 90.167969 119.117188 91.441406 119.863281 93.769531 C 119.863281 93.78125 119.761719 93.460938 120.222656 94.894531 C 120.382812 95.40625 120.929688 95.683594 121.4375 95.523438 C 121.949219 95.359375 122.230469 94.8125 122.066406 94.304688 C 121.605469 92.871094 121.710938 93.191406 121.707031 93.183594 C 120.636719 89.835938 117.054688 88 113.707031 89.070312 C 110.359375 90.140625 108.511719 93.714844 109.585938 97.0625 C 109.585938 97.070312 110.015625 98.40625 110.320312 99.355469 C 110.484375 99.863281 111.027344 100.144531 111.535156 99.980469 " fill-opacity="1" fill-rule="nonzero"/><path fill="#000000" d="M 115.660156 88.976562 C 115.027344 88.976562 114.394531 89.074219 113.773438 89.273438 C 112.207031 89.773438 110.929688 90.851562 110.179688 92.308594 C 109.425781 93.769531 109.285156 95.433594 109.785156 96.996094 C 109.789062 97 109.984375 97.617188 110.207031 98.304688 L 110.523438 99.289062 C 110.648438 99.6875 111.074219 99.90625 111.472656 99.777344 C 111.664062 99.71875 111.820312 99.585938 111.914062 99.40625 C 112.007812 99.226562 112.023438 99.019531 111.960938 98.828125 L 111.570312 97.601562 C 111.382812 97.027344 111.234375 96.554688 111.226562 96.539062 C 110.449219 94.105469 111.796875 91.492188 114.234375 90.714844 C 116.671875 89.933594 119.285156 91.277344 120.0625 93.707031 L 120.128906 93.910156 C 120.183594 94.074219 120.273438 94.355469 120.421875 94.828125 C 120.550781 95.226562 120.976562 95.445312 121.375 95.320312 C 121.769531 95.191406 121.992188 94.765625 121.863281 94.371094 L 121.5625 93.421875 C 121.550781 93.394531 121.542969 93.363281 121.535156 93.339844 L 121.503906 93.25 L 121.5 93.226562 C 120.996094 91.671875 119.917969 90.40625 118.464844 89.660156 C 117.582031 89.203125 116.625 88.976562 115.660156 88.976562 Z M 111.242188 100.238281 C 110.742188 100.238281 110.277344 99.921875 110.117188 99.417969 L 109.800781 98.4375 C 109.582031 97.75 109.386719 97.140625 109.382812 97.125 C 108.847656 95.453125 108.996094 93.671875 109.800781 92.113281 C 110.605469 90.558594 111.96875 89.402344 113.644531 88.867188 C 115.316406 88.332031 117.097656 88.480469 118.660156 89.28125 C 120.21875 90.082031 121.375 91.445312 121.910156 93.117188 L 121.976562 93.320312 L 121.972656 93.320312 C 122.027344 93.484375 122.117188 93.765625 122.269531 94.238281 C 122.464844 94.859375 122.125 95.527344 121.503906 95.722656 C 120.882812 95.921875 120.21875 95.578125 120.019531 94.960938 L 119.714844 94.007812 C 119.703125 93.972656 119.691406 93.9375 119.683594 93.90625 L 119.65625 93.828125 C 118.949219 91.625 116.574219 90.410156 114.363281 91.117188 C 112.152344 91.824219 110.925781 94.199219 111.632812 96.410156 C 111.632812 96.410156 111.785156 96.886719 111.972656 97.472656 L 112.367188 98.699219 C 112.460938 99 112.4375 99.320312 112.292969 99.597656 C 112.148438 99.878906 111.902344 100.085938 111.601562 100.183594 C 111.480469 100.222656 111.363281 100.238281 111.242188 100.238281 " fill-opacity="1" fill-rule="nonzero"/><path fill="#000000" d="M 123.941406 95.660156 C 123.871094 95.660156 123.804688 95.625 123.765625 95.5625 C 123.699219 95.464844 123.726562 95.335938 123.824219 95.269531 L 125.757812 94.011719 C 125.855469 93.949219 125.988281 93.976562 126.050781 94.074219 C 126.113281 94.175781 126.085938 94.304688 125.988281 94.371094 L 124.058594 95.625 C 124.023438 95.648438 123.980469 95.660156 123.941406 95.660156 " fill-opacity="1" fill-rule="nonzero"/><path fill="#000000" d="M 122.792969 97.808594 C 122.707031 97.808594 122.628906 97.757812 122.59375 97.675781 C 122.550781 97.566406 122.605469 97.441406 122.714844 97.398438 L 129.011719 94.925781 C 129.121094 94.882812 129.246094 94.9375 129.289062 95.046875 C 129.332031 95.15625 129.277344 95.277344 129.167969 95.320312 L 122.871094 97.796875 C 122.84375 97.804688 122.820312 97.808594 122.792969 97.808594 " fill-opacity="1" fill-rule="nonzero"/><path fill="#000000" d="M 122.285156 99.148438 C 122.179688 99.148438 122.085938 99.066406 122.074219 98.953125 C 122.0625 98.835938 122.148438 98.734375 122.265625 98.722656 L 126.632812 98.320312 C 126.75 98.304688 126.855469 98.394531 126.867188 98.511719 C 126.875 98.625 126.789062 98.730469 126.671875 98.742188 L 122.308594 99.144531 C 122.300781 99.148438 122.292969 99.148438 122.285156 99.148438 " fill-opacity="1" fill-rule="nonzero"/><path fill="#a6201e" d="M 123.691406 85.285156 L 106.175781 85.285156 C 105.3125 85.285156 104.617188 84.589844 104.617188 83.726562 L 104.617188 65.914062 C 104.617188 65.054688 105.3125 64.355469 106.175781 64.355469 L 123.691406 64.355469 C 124.550781 64.355469 125.25 65.054688 125.25 65.914062 L 125.25 83.726562 C 125.25 84.589844 124.550781 85.285156 123.691406 85.285156 " fill-opacity="1" fill-rule="nonzero"/><path fill="#ffffff" d="M 106.300781 80.851562 L 109.558594 75.582031 C 109.703125 75.347656 110.027344 75.304688 110.230469 75.492188 L 113.21875 78.3125 C 113.414062 78.5 113.726562 78.464844 113.878906 78.242188 L 118.59375 71.289062 C 118.785156 71.007812 119.207031 71.042969 119.351562 71.351562 L 123.707031 80.765625 C 123.839844 81.050781 123.632812 81.382812 123.316406 81.382812 L 106.675781 81.519531 C 106.332031 81.519531 106.121094 81.144531 106.300781 80.851562 " fill-opacity="1" fill-rule="nonzero"/><path fill="#ffffff" d="M 114.988281 71.117188 C 114.695312 72.058594 113.6875 72.585938 112.746094 72.289062 C 111.804688 71.992188 111.277344 70.988281 111.574219 70.042969 C 111.871094 69.101562 112.875 68.578125 113.820312 68.875 C 114.761719 69.171875 115.285156 70.175781 114.988281 71.117188 " fill-opacity="1" fill-rule="nonzero"/><path fill="#a6201e" d="M 141.722656 90.84375 C 141.722656 93.925781 139.222656 96.425781 136.140625 96.425781 C 133.058594 96.425781 130.558594 93.925781 130.558594 90.84375 C 130.558594 87.757812 133.058594 85.257812 136.140625 85.257812 C 139.222656 85.257812 141.722656 87.757812 141.722656 90.84375 " fill-opacity="1" fill-rule="nonzero"/><path fill="#ffffff" d="M 138.476562 90.386719 L 135.488281 88.359375 C 135.121094 88.113281 134.625 88.375 134.625 88.816406 L 134.625 92.867188 C 134.625 93.3125 135.121094 93.574219 135.488281 93.324219 L 138.476562 91.300781 C 138.800781 91.078125 138.800781 90.605469 138.476562 90.386719 " fill-opacity="1" fill-rule="nonzero"/><path fill="#a6201e" d="M 155.476562 109.410156 C 164.925781 107.90625 171.816406 113.359375 172.761719 130.445312 C 173.464844 143.164062 166.832031 155.714844 156.234375 161.582031 C 142.15625 169.378906 121.164062 166.957031 114.25 154.289062 C 110.125 146.730469 110.691406 134.933594 116.429688 130.199219 C 122.183594 125.449219 128.601562 133.550781 139.085938 129.039062 C 150.746094 124.023438 147.855469 110.621094 155.476562 109.410156 " fill-opacity="1" fill-rule="nonzero"/><path fill="#ffffff" d="M 156.136719 146.898438 C 156.050781 146.898438 155.96875 146.847656 155.9375 146.765625 C 154.589844 143.386719 150.039062 142.722656 149.996094 142.714844 C 149.878906 142.699219 149.796875 142.59375 149.8125 142.476562 C 149.828125 142.359375 149.9375 142.277344 150.050781 142.292969 C 150.25 142.320312 154.890625 142.996094 156.332031 146.609375 C 156.375 146.71875 156.324219 146.839844 156.214844 146.882812 C 156.1875 146.894531 156.160156 146.898438 156.136719 146.898438 " fill-opacity="1" fill-rule="nonzero"/><path fill="#ffffff" d="M 149.675781 149.089844 C 149.671875 149.089844 149.664062 149.089844 149.65625 149.089844 C 149.539062 149.078125 149.453125 148.972656 149.464844 148.855469 C 149.800781 145.574219 147.949219 143.40625 147.929688 143.386719 C 147.851562 143.296875 147.859375 143.164062 147.949219 143.085938 C 148.039062 143.007812 148.171875 143.015625 148.25 143.105469 C 148.328125 143.199219 150.246094 145.425781 149.886719 148.898438 C 149.875 149.011719 149.785156 149.089844 149.675781 149.089844 " fill-opacity="1" fill-rule="nonzero"/><path fill="#000000" d="M 142.492188 112.773438 C 139.59375 109.742188 137.253906 106.796875 136.566406 104.097656 L 142.359375 103.371094 L 143.800781 112.015625 L 142.492188 112.773438 " fill-opacity="1" fill-rule="nonzero"/><path fill="#ffffff" d="M 135.046875 160.246094 C 134.769531 159.964844 133.152344 154.941406 133.152344 154.941406 L 129.960938 157.21875 L 133.460938 161.917969 L 135.046875 160.246094 " fill-opacity="1" fill-rule="nonzero"/><path fill="#000000" d="M 130.261719 157.265625 L 133.480469 161.589844 L 134.785156 160.214844 C 134.40625 159.460938 133.511719 156.75 133.039062 155.28125 Z M 133.460938 162.132812 C 133.457031 162.132812 133.453125 162.132812 133.449219 162.132812 C 133.386719 162.128906 133.328125 162.097656 133.289062 162.046875 L 129.789062 157.34375 C 129.757812 157.296875 129.742188 157.242188 129.75 157.183594 C 129.761719 157.128906 129.789062 157.078125 129.835938 157.042969 L 133.027344 154.765625 C 133.085938 154.726562 133.15625 154.71875 133.21875 154.738281 C 133.285156 154.757812 133.335938 154.808594 133.355469 154.875 C 134.113281 157.234375 135.019531 159.867188 135.203125 160.105469 C 135.285156 160.1875 135.28125 160.3125 135.203125 160.394531 L 133.613281 162.066406 C 133.574219 162.109375 133.519531 162.132812 133.460938 162.132812 " fill-opacity="1" fill-rule="nonzero"/><path fill="#000000" d="M 129.296875 166.601562 L 131.417969 166.589844 C 132.824219 166.582031 134.128906 165.867188 134.894531 164.6875 L 136.992188 161.367188 C 137.574219 160.449219 137.25 159.230469 136.289062 158.722656 C 135.414062 158.253906 134.496094 157.800781 134.28125 157.824219 C 133.84375 157.863281 133.667969 159.929688 133.667969 159.929688 L 131.777344 160.003906 C 131.777344 160.003906 130.84375 163.886719 130.019531 164.328125 C 129.421875 164.652344 129.003906 165.125 128.722656 165.554688 C 128.429688 166.007812 128.757812 166.605469 129.296875 166.601562 " fill-opacity="1" fill-rule="nonzero"/><path fill="#ffffff" d="M 129.507812 165.984375 C 129.40625 165.984375 129.316406 165.910156 129.300781 165.804688 C 129.28125 165.6875 129.359375 165.578125 129.476562 165.5625 L 132.378906 165.125 C 132.972656 165.035156 133.488281 164.691406 133.792969 164.179688 L 136.359375 159.890625 C 136.417969 159.792969 136.550781 159.757812 136.648438 159.820312 C 136.75 159.878906 136.785156 160.011719 136.722656 160.109375 L 134.15625 164.394531 C 133.785156 165.019531 133.160156 165.4375 132.445312 165.542969 L 129.539062 165.980469 C 129.53125 165.984375 129.519531 165.984375 129.507812 165.984375 " fill-opacity="1" fill-rule="nonzero"/><path fill="#ffffff" d="M 133.09375 162.761719 C 133.074219 162.761719 133.054688 162.757812 133.035156 162.753906 L 131.417969 162.3125 C 131.304688 162.28125 131.238281 162.164062 131.269531 162.050781 C 131.300781 161.9375 131.417969 161.871094 131.53125 161.902344 L 133.148438 162.34375 C 133.261719 162.375 133.328125 162.492188 133.296875 162.605469 C 133.273438 162.699219 133.1875 162.761719 133.09375 162.761719 " fill-opacity="1" fill-rule="nonzero"/><path fill="#ffffff" d="M 132.25 163.59375 C 132.234375 163.59375 132.21875 163.589844 132.199219 163.585938 L 131.117188 163.320312 C 131 163.292969 130.933594 163.175781 130.960938 163.0625 C 130.988281 162.949219 131.101562 162.878906 131.214844 162.90625 L 132.300781 163.171875 C 132.414062 163.203125 132.484375 163.316406 132.457031 163.429688 C 132.433594 163.527344 132.347656 163.59375 132.25 163.59375 " fill-opacity="1" fill-rule="nonzero"/><path fill="#ffffff" d="M 124.15625 159.289062 L 120.449219 163.011719 L 118.484375 162.289062 L 121.902344 157.527344 L 124.15625 159.289062 " fill-opacity="1" fill-rule="nonzero"/><path fill="#000000" d="M 118.820312 162.1875 L 120.394531 162.765625 L 123.835938 159.308594 L 121.945312 157.832031 Z M 120.449219 163.222656 C 120.425781 163.222656 120.402344 163.21875 120.378906 163.210938 L 118.414062 162.488281 C 118.351562 162.46875 118.300781 162.417969 118.285156 162.351562 C 118.261719 162.289062 118.273438 162.222656 118.3125 162.167969 L 121.730469 157.402344 C 121.761719 157.355469 121.816406 157.324219 121.871094 157.316406 C 121.929688 157.308594 121.988281 157.324219 122.035156 157.359375 L 124.289062 159.121094 C 124.335938 159.160156 124.363281 159.214844 124.367188 159.277344 C 124.371094 159.335938 124.351562 159.394531 124.308594 159.4375 L 120.601562 163.164062 C 120.5625 163.203125 120.507812 163.222656 120.449219 163.222656 " fill-opacity="1" fill-rule="nonzero"/><path fill="#000000" d="M 121.621094 162.429688 C 121.621094 162.429688 121.800781 164.011719 121.496094 165.414062 C 121.335938 166.160156 120.664062 166.683594 119.898438 166.683594 L 110.804688 166.683594 C 110.15625 166.683594 109.859375 165.871094 110.359375 165.457031 C 111.976562 164.101562 114.949219 162.03125 118.609375 161.425781 L 119.628906 162.851562 L 121.621094 162.429688 " fill-opacity="1" fill-rule="nonzero"/><path fill="#ffffff" d="M 120.664062 165.644531 L 111.238281 165.644531 C 111.121094 165.644531 111.023438 165.550781 111.023438 165.433594 C 111.023438 165.316406 111.121094 165.222656 111.238281 165.222656 L 120.664062 165.222656 C 120.78125 165.222656 120.875 165.316406 120.875 165.433594 C 120.875 165.550781 120.78125 165.644531 120.664062 165.644531 " fill-opacity="1" fill-rule="nonzero"/><path fill="#ffffff" d="M 116.496094 163.972656 C 116.414062 163.972656 116.332031 163.921875 116.300781 163.839844 L 115.800781 162.628906 C 115.757812 162.519531 115.808594 162.398438 115.917969 162.351562 C 116.023438 162.308594 116.148438 162.359375 116.195312 162.46875 L 116.691406 163.679688 C 116.738281 163.785156 116.6875 163.910156 116.578125 163.957031 C 116.550781 163.964844 116.523438 163.972656 116.496094 163.972656 " fill-opacity="1" fill-rule="nonzero"/><path fill="#ffffff" d="M 114.855469 164.289062 C 114.765625 164.289062 114.683594 164.234375 114.65625 164.144531 L 114.292969 163.050781 C 114.257812 162.941406 114.316406 162.820312 114.429688 162.785156 C 114.539062 162.746094 114.660156 162.808594 114.695312 162.917969 L 115.058594 164.011719 C 115.09375 164.121094 115.035156 164.242188 114.921875 164.277344 C 114.902344 164.285156 114.878906 164.289062 114.855469 164.289062 " fill-opacity="1" fill-rule="nonzero"/><path fill="#000000" d="M 143.773438 133.234375 C 143.773438 133.234375 126.835938 131.261719 121.800781 135.621094 C 116.761719 139.980469 129.75 158.730469 129.75 158.730469 L 133.855469 155.683594 L 129.960938 142.433594 L 145.617188 137.988281 L 143.773438 133.234375 " fill-opacity="1" fill-rule="nonzero"/><path fill="#000000" d="M 153.09375 141.863281 C 150.632812 142.644531 146.230469 143.652344 140.078125 143.570312 C 138.332031 143.546875 136.714844 144.511719 135.921875 146.070312 C 134.101562 149.640625 130.15625 156.078125 123.730469 160.246094 L 120.664062 158.59375 L 128.496094 140.964844 C 129.210938 139.355469 130.546875 138.105469 132.199219 137.496094 L 147.722656 131.804688 C 147.722656 131.804688 152.535156 130.460938 154.894531 134.757812 C 155.316406 135.523438 156.097656 134.152344 156.285156 134.773438 C 156.921875 136.894531 155.203125 141.191406 153.09375 141.863281 " fill-opacity="1" fill-rule="nonzero"/><path fill="#ffffff" d="M 124.957031 149.144531 C 124.925781 149.144531 124.898438 149.136719 124.871094 149.125 C 124.761719 149.078125 124.714844 148.953125 124.761719 148.84375 L 128.300781 140.878906 C 129.035156 139.226562 130.429688 137.921875 132.128906 137.296875 L 139.5625 134.570312 C 139.671875 134.53125 139.792969 134.589844 139.832031 134.699219 C 139.875 134.808594 139.816406 134.929688 139.707031 134.96875 L 132.273438 137.695312 C 130.683594 138.28125 129.375 139.503906 128.6875 141.050781 L 125.148438 149.015625 C 125.113281 149.097656 125.035156 149.144531 124.957031 149.144531 " fill-opacity="1" fill-rule="nonzero"/><path fill="#ffffff" d="M 129.085938 155.992188 C 129.035156 155.992188 128.980469 155.972656 128.941406 155.933594 C 128.855469 155.851562 128.851562 155.71875 128.933594 155.632812 C 129.640625 154.898438 130.332031 154.113281 130.996094 153.289062 C 131.070312 153.199219 131.203125 153.183594 131.296875 153.257812 C 131.386719 153.332031 131.402344 153.464844 131.328125 153.558594 C 130.65625 154.386719 129.953125 155.183594 129.242188 155.925781 C 129.199219 155.96875 129.144531 155.992188 129.085938 155.992188 " fill-opacity="1" fill-rule="nonzero"/><path fill="#ffffff" d="M 131.164062 153.636719 C 131.117188 153.636719 131.070312 153.621094 131.027344 153.589844 C 130.9375 153.515625 130.921875 153.382812 130.996094 153.289062 C 131.324219 152.890625 131.648438 152.46875 131.964844 152.046875 C 132.035156 151.953125 132.167969 151.933594 132.261719 152.003906 C 132.355469 152.074219 132.375 152.207031 132.304688 152.300781 C 131.984375 152.730469 131.65625 153.152344 131.328125 153.558594 C 131.285156 153.609375 131.222656 153.636719 131.164062 153.636719 " fill-opacity="1" fill-rule="nonzero"/><path fill="#ffffff" d="M 137.203125 121.058594 C 137.203125 121.058594 139.988281 130.242188 131.421875 132.792969 L 136.253906 135.410156 C 136.253906 135.410156 142.625 128.117188 141.527344 122.535156 C 140.945312 119.601562 137.203125 121.058594 137.203125 121.058594 " fill-opacity="1" fill-rule="nonzero"/><path fill="#000000" d="M 131.960938 132.84375 L 136.203125 135.140625 C 137.035156 134.140625 142.304688 127.589844 141.316406 122.578125 C 141.1875 121.921875 140.875 121.453125 140.390625 121.1875 C 139.40625 120.644531 137.964844 121.03125 137.460938 121.195312 C 137.695312 122.089844 138.496094 125.789062 136.792969 128.960938 C 135.816406 130.777344 134.191406 132.078125 131.960938 132.84375 Z M 136.253906 135.621094 C 136.21875 135.621094 136.183594 135.613281 136.152344 135.597656 L 131.320312 132.980469 C 131.246094 132.941406 131.203125 132.859375 131.210938 132.773438 C 131.21875 132.6875 131.28125 132.617188 131.363281 132.589844 C 133.730469 131.886719 135.429688 130.597656 136.417969 128.761719 C 138.25 125.351562 137.011719 121.164062 137 121.121094 C 136.964844 121.015625 137.023438 120.902344 137.125 120.863281 C 137.210938 120.828125 139.222656 120.058594 140.59375 120.8125 C 141.195312 121.144531 141.578125 121.710938 141.734375 122.496094 C 142.839844 128.113281 136.675781 135.25 136.414062 135.546875 C 136.371094 135.597656 136.3125 135.621094 136.253906 135.621094 " fill-opacity="1" fill-rule="nonzero"/><path fill="#000000" d="M 149.242188 109.898438 C 147.25 109.839844 146.453125 109.996094 139.59375 111.65625 C 137.917969 112.058594 136.339844 114.589844 136.484375 116.308594 C 137.351562 117.808594 141.449219 125.253906 138.390625 132.347656 C 137.953125 133.351562 137.316406 134.488281 136.359375 135.648438 C 137.109375 136.039062 138.246094 136.511719 139.671875 136.636719 C 142.039062 136.84375 143.011719 135.902344 144.820312 135.589844 C 149.601562 134.761719 152.425781 139.699219 155.359375 138.410156 C 156.144531 138.066406 157.097656 137.203125 157.679688 134.851562 C 157.894531 132.953125 157.984375 130.761719 157.789062 128.34375 C 157.261719 121.789062 154.90625 116.71875 153.089844 113.605469 C 152.539062 112.617188 151.589844 109.96875 149.242188 109.898438 " fill-opacity="1" fill-rule="nonzero"/><path fill="#000000" d="M 136.023438 122.914062 C 136.023438 122.914062 135.316406 113.722656 138.378906 112.300781 C 137.957031 116.015625 138.351562 119.882812 139.335938 123.859375 C 139.375 124.023438 139.214844 124.167969 139.058594 124.105469 L 136.023438 122.914062 " fill-opacity="1" fill-rule="nonzero"/><path fill="#14697d" d="M 116.304688 120.183594 L 128.238281 120.183594 C 128.742188 120.183594 129.210938 120.433594 129.476562 120.847656 L 133.957031 134.027344 L 144.519531 134.027344 L 144.519531 134.226562 C 144.519531 134.847656 144.015625 135.351562 143.394531 135.351562 L 120.972656 135.351562 C 120.351562 135.351562 119.847656 134.847656 119.847656 134.226562 L 119.847656 134.050781 L 115.800781 121.726562 C 115.738281 121.539062 115.664062 121.359375 115.589844 121.171875 C 115.414062 120.710938 115.765625 120.183594 116.304688 120.183594 " fill-opacity="1" fill-rule="nonzero"/><path fill="#000000" d="M 120.042969 133.972656 C 120.054688 133.996094 120.058594 134.023438 120.058594 134.050781 L 120.058594 134.226562 C 120.058594 134.730469 120.46875 135.140625 120.972656 135.140625 L 143.394531 135.140625 C 143.890625 135.140625 144.296875 134.738281 144.308594 134.242188 L 133.957031 134.242188 C 133.863281 134.242188 133.785156 134.183594 133.753906 134.097656 L 129.285156 120.941406 C 129.054688 120.601562 128.664062 120.394531 128.238281 120.394531 L 116.304688 120.394531 C 116.117188 120.394531 115.953125 120.480469 115.851562 120.628906 C 115.753906 120.773438 115.730469 120.941406 115.789062 121.097656 C 115.808594 121.148438 115.828125 121.203125 115.851562 121.253906 C 115.902344 121.386719 115.953125 121.523438 116 121.660156 Z M 143.394531 135.566406 L 120.972656 135.566406 C 120.234375 135.566406 119.632812 134.964844 119.632812 134.226562 L 119.632812 134.085938 L 115.597656 121.792969 C 115.554688 121.664062 115.507812 121.539062 115.453125 121.40625 C 115.433594 121.355469 115.414062 121.300781 115.394531 121.25 C 115.285156 120.964844 115.324219 120.644531 115.5 120.390625 C 115.683594 120.125 115.976562 119.972656 116.304688 119.972656 L 128.238281 119.972656 C 128.816406 119.972656 129.347656 120.257812 129.65625 120.730469 C 129.667969 120.746094 129.671875 120.761719 129.679688 120.78125 L 134.109375 133.816406 L 144.519531 133.816406 C 144.636719 133.816406 144.730469 133.910156 144.730469 134.027344 L 144.730469 134.226562 C 144.730469 134.964844 144.128906 135.566406 143.394531 135.566406 " fill-opacity="1" fill-rule="nonzero"/><path fill="#ffffff" d="M 125.085938 126.941406 C 125.253906 127.5 124.996094 128.070312 124.511719 128.214844 C 124.027344 128.363281 123.496094 128.027344 123.328125 127.46875 C 123.160156 126.910156 123.417969 126.339844 123.902344 126.195312 C 124.386719 126.046875 124.917969 126.382812 125.085938 126.941406 " fill-opacity="1" fill-rule="nonzero"/><path fill="#ffffff" d="M 132.214844 134.265625 L 124.4375 134.265625 C 124.320312 134.265625 124.226562 134.167969 124.226562 134.050781 C 124.226562 133.933594 124.320312 133.839844 124.4375 133.839844 L 132.214844 133.839844 C 132.332031 133.839844 132.429688 133.933594 132.429688 134.050781 C 132.429688 134.167969 132.332031 134.265625 132.214844 134.265625 " fill-opacity="1" fill-rule="nonzero"/><path fill="#ffffff" d="M 122.875 134.277344 L 122.871094 134.277344 L 120.335938 134.265625 C 120.21875 134.261719 120.121094 134.167969 120.125 134.050781 C 120.125 133.933594 120.21875 133.839844 120.335938 133.839844 L 122.875 133.851562 C 122.992188 133.851562 123.085938 133.945312 123.085938 134.066406 C 123.085938 134.179688 122.992188 134.277344 122.875 134.277344 " fill-opacity="1" fill-rule="nonzero"/><path fill="#ffffff" d="M 145.292969 108.855469 L 146.617188 109.480469 C 143.335938 113.917969 140.539062 111.757812 140.539062 111.757812 L 142.523438 110.886719 L 141.835938 110.136719 C 141.507812 110.457031 141.210938 110.789062 140.894531 110.773438 C 140.164062 110.734375 139.445312 109.792969 139.445312 109.792969 L 139.167969 109.929688 C 139.128906 109.953125 139.082031 109.953125 139.039062 109.9375 C 138.996094 109.921875 138.960938 109.886719 138.945312 109.84375 C 138.726562 109.273438 138.597656 108.835938 138.261719 108.402344 C 137.933594 107.976562 137.808594 108.023438 137.25 106.902344 L 139.265625 104.210938 L 141.289062 105.710938 C 141.289062 105.710938 141.335938 105.101562 141.890625 105.109375 C 142.296875 105.117188 142.855469 106.195312 142.597656 106.535156 L 145.292969 108.855469 " fill-opacity="1" fill-rule="nonzero"/><path fill="#000000" d="M 141.007812 111.785156 C 141.363281 111.953125 141.976562 112.148438 142.753906 112.039062 C 143.964844 111.867188 145.152344 111.035156 146.292969 109.5625 L 145.203125 109.046875 C 145.183594 109.039062 145.167969 109.027344 145.152344 109.015625 L 142.460938 106.695312 C 142.375 106.625 142.359375 106.496094 142.425781 106.40625 C 142.472656 106.351562 142.464844 106.121094 142.3125 105.816406 C 142.144531 105.472656 141.949219 105.324219 141.886719 105.320312 C 141.882812 105.320312 141.882812 105.320312 141.878906 105.320312 C 141.554688 105.320312 141.507812 105.660156 141.503906 105.730469 C 141.496094 105.804688 141.449219 105.875 141.378906 105.90625 C 141.308594 105.9375 141.226562 105.929688 141.164062 105.882812 L 139.308594 104.511719 L 137.5 106.925781 C 137.855469 107.625 138.011719 107.796875 138.191406 107.992188 C 138.261719 108.070312 138.339844 108.152344 138.429688 108.273438 C 138.730469 108.660156 138.875 109.050781 139.042969 109.5 C 139.070312 109.570312 139.097656 109.640625 139.125 109.71875 L 139.351562 109.605469 C 139.441406 109.558594 139.554688 109.585938 139.613281 109.664062 C 139.800781 109.90625 140.390625 110.535156 140.90625 110.558594 C 141.101562 110.566406 141.351562 110.320312 141.59375 110.074219 L 141.683594 109.984375 C 141.726562 109.945312 141.78125 109.925781 141.839844 109.925781 C 141.898438 109.925781 141.953125 109.949219 141.992188 109.992188 L 142.679688 110.742188 C 142.726562 110.792969 142.746094 110.859375 142.730469 110.929688 C 142.71875 110.996094 142.671875 111.050781 142.609375 111.078125 Z M 142.300781 112.496094 C 141.160156 112.496094 140.441406 111.953125 140.40625 111.925781 C 140.347656 111.882812 140.316406 111.808594 140.328125 111.734375 C 140.335938 111.660156 140.382812 111.59375 140.453125 111.5625 L 142.164062 110.8125 L 141.828125 110.445312 C 141.527344 110.742188 141.238281 111.003906 140.882812 110.984375 C 140.242188 110.953125 139.632812 110.339844 139.390625 110.058594 L 139.261719 110.121094 C 139.167969 110.167969 139.058594 110.171875 138.960938 110.132812 C 138.863281 110.097656 138.785156 110.019531 138.746094 109.921875 C 138.710938 109.828125 138.675781 109.738281 138.644531 109.648438 C 138.484375 109.214844 138.355469 108.871094 138.09375 108.53125 C 138.011719 108.429688 137.945312 108.351562 137.878906 108.277344 C 137.675781 108.058594 137.484375 107.851562 137.058594 106.996094 C 137.023438 106.925781 137.03125 106.839844 137.078125 106.777344 L 139.097656 104.085938 C 139.167969 103.992188 139.296875 103.972656 139.394531 104.042969 L 141.167969 105.355469 C 141.277344 105.121094 141.496094 104.894531 141.894531 104.898438 C 142.226562 104.902344 142.523438 105.277344 142.695312 105.628906 C 142.761719 105.761719 142.933594 106.160156 142.855469 106.476562 L 145.410156 108.675781 L 146.710938 109.289062 C 146.765625 109.316406 146.808594 109.367188 146.824219 109.429688 C 146.839844 109.492188 146.828125 109.558594 146.789062 109.609375 C 145.53125 111.308594 144.1875 112.269531 142.804688 112.460938 C 142.628906 112.488281 142.460938 112.496094 142.300781 112.496094 " fill-opacity="1" fill-rule="nonzero"/><path fill="#000000" d="M 142.070312 105.089844 C 142.070312 105.089844 141.210938 105.308594 141.402344 105.667969 C 141.667969 106.164062 141.808594 106.234375 141.785156 106.476562 C 141.773438 106.609375 141.660156 106.734375 141.542969 106.777344 C 141.296875 106.867188 141.074219 106.484375 140.476562 106.179688 C 140.226562 106.054688 139.984375 105.976562 139.851562 105.949219 C 138.828125 105.746094 138.265625 107.210938 137.125 107.246094 C 136.367188 107.265625 135.542969 106.648438 135.488281 106.058594 C 135.464844 105.808594 135.566406 105.488281 137.058594 104.347656 C 138.570312 103.195312 139.324219 102.621094 139.921875 102.699219 C 141.332031 102.878906 142.023438 104.9375 142.070312 105.089844 " fill-opacity="1" fill-rule="nonzero"/><path fill="#000000" d="M 141.832031 110.347656 C 141.792969 110.347656 141.746094 110.335938 141.710938 110.308594 C 141.613281 110.242188 141.59375 110.109375 141.664062 110.011719 L 142.171875 109.304688 C 142.339844 109.070312 142.363281 108.765625 142.230469 108.511719 L 142.140625 108.335938 C 142.085938 108.230469 142.125 108.105469 142.230469 108.050781 C 142.332031 107.996094 142.460938 108.035156 142.515625 108.140625 L 142.605469 108.316406 C 142.8125 108.714844 142.777344 109.1875 142.515625 109.554688 L 142.007812 110.261719 C 141.964844 110.320312 141.898438 110.347656 141.832031 110.347656 " fill-opacity="1" fill-rule="nonzero"/><path fill="#000000" d="M 143.726562 112.183594 C 141.914062 105.730469 138.863281 104.160156 136.566406 104.097656 C 137.878906 101.15625 139.722656 100.046875 141.882812 100.023438 C 145.636719 100.726562 147.230469 103.6875 147.867188 109.847656 L 143.726562 112.183594 " fill-opacity="1" fill-rule="nonzero"/><path fill="#ffffff" d="M 136.351562 133.574219 C 136.9375 132.449219 138.140625 131.800781 138.832031 131.78125 C 141.972656 131.6875 147.722656 128.007812 152.070312 126.09375 C 152.75 124.898438 151.972656 122.476562 152.070312 119.484375 L 157.824219 119.484375 C 158.640625 122.257812 158.835938 127.074219 158.398438 127.75 C 158.136719 128.554688 156.554688 130.96875 153.097656 133.039062 C 147.691406 136.28125 139.980469 135.132812 139.980469 135.132812 C 139.980469 135.132812 136.328125 137.488281 134.484375 135.429688 C 134.484375 135.429688 135.761719 134.699219 136.351562 133.574219 " fill-opacity="1" fill-rule="nonzero"/><path fill="#000000" d="M 136.351562 133.574219 Z M 134.820312 135.46875 C 136.578125 137.039062 139.832031 134.976562 139.867188 134.953125 C 139.910156 134.925781 139.960938 134.914062 140.011719 134.921875 C 140.089844 134.933594 147.710938 136.019531 152.988281 132.859375 C 156.300781 130.871094 157.925781 128.515625 158.195312 127.683594 C 158.199219 127.667969 158.207031 127.652344 158.21875 127.632812 C 158.566406 127.097656 158.472656 122.597656 157.664062 119.695312 L 152.273438 119.695312 C 152.253906 120.828125 152.351562 121.875 152.441406 122.808594 C 152.578125 124.273438 152.6875 125.433594 152.253906 126.199219 C 152.234375 126.238281 152.199219 126.269531 152.15625 126.289062 C 150.78125 126.894531 149.226562 127.695312 147.726562 128.46875 C 144.433594 130.171875 141.027344 131.929688 138.839844 131.996094 C 138.234375 132.011719 137.097656 132.605469 136.539062 133.671875 C 136.078125 134.554688 135.230469 135.195312 134.820312 135.46875 Z M 136.515625 136.492188 C 135.722656 136.492188 134.9375 136.257812 134.324219 135.574219 C 134.28125 135.523438 134.261719 135.460938 134.273438 135.398438 C 134.285156 135.332031 134.320312 135.277344 134.378906 135.246094 C 134.390625 135.238281 135.609375 134.527344 136.160156 133.476562 C 136.761719 132.328125 138.011719 131.59375 138.824219 131.570312 C 140.917969 131.507812 144.28125 129.769531 147.53125 128.09375 C 149.015625 127.328125 150.546875 126.535156 151.917969 125.929688 C 152.246094 125.273438 152.144531 124.199219 152.019531 122.847656 C 151.921875 121.847656 151.816406 120.714844 151.855469 119.476562 C 151.859375 119.363281 151.953125 119.273438 152.070312 119.273438 L 157.824219 119.273438 C 157.921875 119.273438 158.003906 119.332031 158.027344 119.425781 C 158.828125 122.152344 159.0625 126.996094 158.589844 127.839844 C 158.339844 128.570312 156.859375 131.035156 153.207031 133.222656 C 148.089844 136.289062 140.863281 135.460938 140.027344 135.355469 C 139.675781 135.570312 138.078125 136.492188 136.515625 136.492188 " fill-opacity="1" fill-rule="nonzero"/><path fill="#000000" d="M 135.449219 136.210938 C 135.34375 136.210938 135.25 136.132812 135.238281 136.019531 C 135.226562 135.90625 135.3125 135.800781 135.429688 135.789062 C 135.449219 135.785156 136.410156 135.644531 137.625 133.984375 C 137.691406 133.890625 137.824219 133.871094 137.921875 133.941406 C 138.015625 134.007812 138.035156 134.140625 137.964844 134.238281 C 136.617188 136.078125 135.519531 136.207031 135.472656 136.210938 C 135.464844 136.210938 135.457031 136.210938 135.449219 136.210938 " fill-opacity="1" fill-rule="nonzero"/><path fill="#000000" d="M 136.488281 136.527344 C 136.375 136.527344 136.28125 136.4375 136.277344 136.324219 C 136.273438 136.207031 136.359375 136.109375 136.476562 136.101562 C 136.496094 136.101562 137.34375 136.015625 138.421875 134.617188 C 138.492188 134.523438 138.625 134.503906 138.71875 134.578125 C 138.8125 134.648438 138.828125 134.78125 138.757812 134.875 C 137.539062 136.464844 136.539062 136.527344 136.5 136.527344 C 136.496094 136.527344 136.492188 136.527344 136.488281 136.527344 " fill-opacity="1" fill-rule="nonzero"/><path fill="#000000" d="M 158.203125 120.09375 C 158.242188 120.089844 158.269531 120.054688 158.257812 120.019531 C 158.089844 119.390625 156.816406 114.695312 155.996094 112.867188 C 154.148438 108.734375 148.175781 109.945312 148.175781 109.945312 C 150.03125 113.429688 151.109375 116.914062 151.457031 120.394531 C 151.480469 120.609375 151.667969 120.765625 151.882812 120.742188 L 158.203125 120.09375 " fill-opacity="1" fill-rule="nonzero"/><path fill="#000000" d="M 127.15625 56.585938 C 127.128906 56.585938 127.101562 56.582031 127.074219 56.570312 C 118.320312 52.910156 108.015625 52.195312 97.269531 54.496094 C 97.15625 54.519531 97.042969 54.449219 97.019531 54.332031 C 96.992188 54.21875 97.066406 54.105469 97.179688 54.082031 C 108.007812 51.761719 118.402344 52.484375 127.238281 56.179688 C 127.347656 56.222656 127.398438 56.347656 127.351562 56.457031 C 127.316406 56.539062 127.238281 56.585938 127.15625 56.585938 " fill-opacity="1" fill-rule="nonzero"/><path fill="#000000" d="M 126.875 54.144531 C 126.851562 54.144531 126.828125 54.140625 126.800781 54.128906 C 120.535156 51.808594 113.609375 50.894531 106.21875 51.417969 C 106.105469 51.425781 106 51.339844 105.992188 51.222656 C 105.984375 51.105469 106.074219 51.003906 106.191406 50.992188 C 113.640625 50.464844 120.625 51.386719 126.949219 53.730469 C 127.058594 53.773438 127.117188 53.894531 127.074219 54.003906 C 127.042969 54.089844 126.960938 54.144531 126.875 54.144531 " fill-opacity="1" fill-rule="nonzero"/><path fill="#000000" d="M 106.683594 160.539062 C 106.664062 160.539062 106.648438 160.535156 106.628906 160.53125 C 105.660156 160.277344 104.683594 160 103.71875 159.710938 C 102.261719 159.273438 100.804688 158.785156 99.382812 158.265625 C 99.273438 158.226562 99.21875 158.105469 99.257812 157.996094 C 99.296875 157.886719 99.417969 157.828125 99.53125 157.867188 C 100.941406 158.382812 102.394531 158.867188 103.84375 159.304688 C 104.800781 159.59375 105.773438 159.867188 106.738281 160.117188 C 106.851562 160.148438 106.917969 160.265625 106.890625 160.378906 C 106.863281 160.472656 106.777344 160.539062 106.683594 160.539062 " fill-opacity="1" fill-rule="nonzero"/><path fill="#000000" d="M 106.941406 163.382812 C 106.921875 163.382812 106.902344 163.382812 106.886719 163.375 C 105.910156 163.121094 104.921875 162.839844 103.953125 162.550781 C 94.183594 159.601562 85.386719 155.039062 77.796875 148.992188 C 77.703125 148.917969 77.691406 148.785156 77.761719 148.695312 C 77.835938 148.601562 77.96875 148.585938 78.0625 148.660156 C 85.609375 154.675781 94.359375 159.210938 104.074219 162.140625 C 105.039062 162.433594 106.023438 162.710938 106.992188 162.964844 C 107.109375 162.996094 107.175781 163.109375 107.144531 163.222656 C 107.121094 163.320312 107.035156 163.382812 106.941406 163.382812 " fill-opacity="1" fill-rule="nonzero"/><path fill="#000000" d="M 85.808594 149.660156 C 85.671875 149.660156 85.535156 149.691406 85.40625 149.757812 C 85.199219 149.867188 85.046875 150.046875 84.976562 150.273438 C 84.90625 150.496094 84.929688 150.734375 85.035156 150.941406 C 85.261719 151.375 85.792969 151.539062 86.222656 151.316406 C 86.429688 151.210938 86.582031 151.027344 86.652344 150.804688 C 86.71875 150.578125 86.699219 150.339844 86.589844 150.132812 C 86.433594 149.832031 86.125 149.660156 85.808594 149.660156 Z M 85.820312 151.839844 C 85.351562 151.839844 84.894531 151.585938 84.660156 151.140625 C 84.5 150.832031 84.46875 150.476562 84.570312 150.144531 C 84.675781 149.8125 84.902344 149.542969 85.207031 149.382812 C 85.84375 149.050781 86.632812 149.296875 86.964844 149.933594 C 87.128906 150.246094 87.160156 150.597656 87.054688 150.929688 C 86.953125 151.261719 86.726562 151.53125 86.417969 151.691406 C 86.226562 151.792969 86.023438 151.839844 85.820312 151.839844 " fill-opacity="1" fill-rule="nonzero"/><path fill="#000000" d="M 97.84375 157.523438 C 97.777344 157.523438 97.707031 157.488281 97.667969 157.425781 C 97.089844 156.546875 96.507812 156.007812 95.933594 155.816406 C 95.625 155.714844 95.363281 155.730469 95.109375 155.742188 C 94.789062 155.757812 94.457031 155.773438 94.148438 155.503906 C 93.851562 155.246094 93.789062 154.910156 93.738281 154.640625 C 93.695312 154.410156 93.664062 154.269531 93.554688 154.195312 C 93.417969 154.09375 93.222656 154.1875 92.917969 154.34375 C 92.566406 154.519531 92.132812 154.742188 91.691406 154.496094 C 91.316406 154.289062 91.171875 153.863281 91.042969 153.492188 C 90.9375 153.179688 90.835938 152.886719 90.636719 152.785156 C 90.484375 152.710938 90.347656 152.78125 90.074219 152.960938 C 89.78125 153.148438 89.421875 153.382812 88.957031 153.210938 C 88.546875 153.058594 88.1875 152.636719 87.863281 151.917969 C 87.8125 151.8125 87.859375 151.6875 87.964844 151.636719 C 88.074219 151.589844 88.199219 151.636719 88.246094 151.742188 C 88.589844 152.492188 88.902344 152.738281 89.105469 152.8125 C 89.351562 152.902344 89.546875 152.796875 89.84375 152.605469 C 90.109375 152.433594 90.441406 152.214844 90.824219 152.40625 C 91.179688 152.582031 91.316406 152.972656 91.445312 153.351562 C 91.558594 153.683594 91.667969 153.996094 91.898438 154.125 C 92.125 154.25 92.371094 154.144531 92.722656 153.964844 C 93.0625 153.792969 93.445312 153.59375 93.800781 153.84375 C 94.054688 154.023438 94.109375 154.308594 94.15625 154.5625 C 94.199219 154.800781 94.242188 155.023438 94.425781 155.183594 C 94.597656 155.332031 94.769531 155.332031 95.089844 155.316406 C 95.351562 155.304688 95.679688 155.289062 96.066406 155.414062 C 96.730469 155.632812 97.390625 156.230469 98.023438 157.195312 C 98.085938 157.292969 98.058594 157.421875 97.960938 157.488281 C 97.925781 157.511719 97.886719 157.523438 97.84375 157.523438 " fill-opacity="1" fill-rule="nonzero"/></svg>