<svg xmlns="http://www.w3.org/2000/svg" xmlns:xlink="http://www.w3.org/1999/xlink" width="300" zoomAndPan="magnify" viewBox="0 0 224.87999 225" height="300" preserveAspectRatio="xMidYMid meet" version="1.0"><defs><clipPath id="5453dc997d"><path d="M 114 155 L 171.394531 155 L 171.394531 169 L 114 169 Z M 114 155 " clip-rule="nonzero"/></clipPath><clipPath id="1005bfeacb"><path d="M 143 113 L 171.394531 113 L 171.394531 121 L 143 121 Z M 143 113 " clip-rule="nonzero"/></clipPath></defs><path fill="#14697d" d="M 82.652344 61.925781 C 105.878906 49.078125 144.785156 54.058594 158.71875 71.019531 C 168.226562 82.597656 171.171875 88.6875 170.964844 107.082031 C 170.726562 128.332031 162.71875 153.195312 137.988281 164.078125 C 111.066406 175.929688 80.96875 164.699219 66.878906 146.472656 C 53.707031 129.421875 56.34375 109.351562 57.285156 102.179688 C 58.390625 93.765625 63.191406 72.691406 82.652344 61.925781 " fill-opacity="1" fill-rule="nonzero"/><path fill="#a6201e" d="M 83.152344 79.832031 C 79.132812 80.933594 74.984375 78.566406 73.882812 74.542969 C 72.78125 70.519531 75.148438 66.367188 79.167969 65.265625 C 83.1875 64.164062 87.339844 66.53125 88.4375 70.554688 C 89.539062 74.578125 87.171875 78.730469 83.152344 79.832031 Z M 96.175781 69.957031 L 95.398438 67.125 L 92.203125 67.273438 C 91.90625 66.648438 91.5625 66.058594 91.171875 65.503906 L 92.867188 62.792969 L 90.78125 60.726562 L 88.085938 62.453125 C 87.523438 62.070312 86.929688 61.730469 86.3125 61.445312 L 86.421875 58.242188 L 83.589844 57.496094 L 82.117188 60.339844 C 81.445312 60.285156 80.761719 60.292969 80.074219 60.355469 L 78.570312 57.527344 L 75.742188 58.300781 L 75.886719 61.5 C 75.265625 61.796875 74.675781 62.140625 74.121094 62.527344 L 71.410156 60.835938 L 69.347656 62.921875 L 71.074219 65.621094 C 70.6875 66.183594 70.351562 66.773438 70.0625 67.394531 L 66.863281 67.28125 L 66.121094 70.121094 L 68.960938 71.59375 C 68.90625 72.265625 68.914062 72.949219 68.972656 73.636719 L 66.148438 75.140625 L 66.921875 77.972656 L 70.121094 77.824219 C 70.417969 78.449219 70.761719 79.039062 71.148438 79.59375 L 69.453125 82.304688 L 71.539062 84.371094 L 74.238281 82.640625 C 74.796875 83.027344 75.390625 83.367188 76.007812 83.652344 L 75.898438 86.855469 L 78.734375 87.601562 L 80.207031 84.757812 C 80.878906 84.8125 81.5625 84.804688 82.246094 84.746094 L 83.753906 87.574219 L 86.578125 86.796875 L 86.433594 83.597656 C 87.054688 83.300781 87.648438 82.957031 88.199219 82.570312 L 90.910156 84.261719 L 92.972656 82.179688 L 91.246094 79.476562 C 91.632812 78.914062 91.96875 78.324219 92.257812 77.703125 L 95.457031 77.816406 L 96.203125 74.976562 L 93.363281 73.503906 C 93.414062 72.832031 93.410156 72.148438 93.347656 71.460938 L 96.175781 69.957031 " fill-opacity="1" fill-rule="nonzero"/><path fill="#000000" d="M 61.773438 125.417969 C 61.695312 125.417969 61.617188 125.371094 61.585938 125.292969 C 59.113281 119.660156 57.992188 113.761719 58.253906 107.761719 C 58.511719 101.875 60.082031 96.179688 62.917969 90.835938 C 62.972656 90.734375 63.097656 90.699219 63.199219 90.75 C 63.300781 90.804688 63.335938 90.929688 63.285156 91.03125 C 57.617188 101.695312 57.136719 114.125 61.964844 125.128906 C 62.007812 125.234375 61.960938 125.355469 61.855469 125.402344 C 61.828125 125.414062 61.800781 125.417969 61.773438 125.417969 " fill-opacity="1" fill-rule="nonzero"/><path fill="#000000" d="M 63.21875 122.40625 C 63.132812 122.40625 63.054688 122.351562 63.023438 122.269531 C 61.472656 117.910156 60.765625 113.394531 60.921875 108.84375 C 61.078125 104.371094 62.0625 99.972656 63.851562 95.777344 C 63.898438 95.671875 64.019531 95.625 64.125 95.667969 C 64.230469 95.714844 64.277344 95.835938 64.234375 95.941406 C 60.667969 104.300781 60.375 113.601562 63.414062 122.128906 C 63.453125 122.238281 63.398438 122.355469 63.289062 122.394531 C 63.265625 122.402344 63.242188 122.40625 63.21875 122.40625 " fill-opacity="1" fill-rule="nonzero"/><path fill="#000000" d="M 64.699219 93.5 L 65.589844 94.132812 L 65.574219 93.191406 C 65.359375 93.261719 65.039062 93.371094 64.699219 93.5 Z M 65.804688 94.746094 C 65.761719 94.746094 65.71875 94.734375 65.683594 94.707031 L 64.148438 93.617188 C 64.085938 93.574219 64.054688 93.5 64.0625 93.425781 C 64.070312 93.351562 64.121094 93.285156 64.191406 93.257812 C 64.925781 92.953125 65.707031 92.710938 65.714844 92.710938 C 65.777344 92.691406 65.84375 92.703125 65.894531 92.738281 C 65.949219 92.777344 65.980469 92.839844 65.980469 92.902344 L 66.011719 94.535156 C 66.011719 94.613281 65.96875 94.6875 65.898438 94.722656 C 65.871094 94.738281 65.835938 94.746094 65.804688 94.746094 " fill-opacity="1" fill-rule="nonzero"/><path fill="#000000" d="M 161.316406 82.238281 C 161.230469 82.238281 161.144531 82.179688 161.117188 82.089844 C 161.085938 81.980469 161.148438 81.867188 161.257812 81.832031 L 162.28125 81.523438 C 162.390625 81.488281 162.503906 81.550781 162.535156 81.660156 C 162.570312 81.769531 162.507812 81.886719 162.398438 81.917969 L 161.378906 82.230469 C 161.355469 82.234375 161.335938 82.238281 161.316406 82.238281 " fill-opacity="1" fill-rule="nonzero"/><path fill="#000000" d="M 158.933594 82.960938 C 158.84375 82.960938 158.761719 82.90625 158.734375 82.816406 C 158.703125 82.707031 158.765625 82.589844 158.875 82.558594 L 159.898438 82.246094 C 160.003906 82.214844 160.121094 82.277344 160.15625 82.382812 C 160.1875 82.492188 160.125 82.609375 160.015625 82.644531 L 158.996094 82.953125 C 158.972656 82.960938 158.953125 82.960938 158.933594 82.960938 " fill-opacity="1" fill-rule="nonzero"/><path fill="#000000" d="M 160.429688 81.765625 C 160.339844 81.765625 160.257812 81.707031 160.230469 81.617188 L 159.921875 80.597656 C 159.886719 80.488281 159.949219 80.371094 160.058594 80.339844 C 160.167969 80.304688 160.285156 80.367188 160.316406 80.476562 L 160.628906 81.5 C 160.660156 81.609375 160.597656 81.722656 160.488281 81.757812 C 160.46875 81.761719 160.449219 81.765625 160.429688 81.765625 " fill-opacity="1" fill-rule="nonzero"/><path fill="#000000" d="M 161.152344 84.148438 C 161.066406 84.148438 160.984375 84.089844 160.957031 84 L 160.644531 82.976562 C 160.613281 82.871094 160.671875 82.753906 160.785156 82.71875 C 160.890625 82.6875 161.007812 82.75 161.039062 82.859375 L 161.351562 83.882812 C 161.386719 83.992188 161.324219 84.105469 161.214844 84.140625 C 161.195312 84.144531 161.171875 84.148438 161.152344 84.148438 " fill-opacity="1" fill-rule="nonzero"/><path fill="#000000" d="M 164.308594 86.457031 C 163.96875 86.679688 163.871094 87.148438 164.097656 87.5 C 164.207031 87.671875 164.375 87.789062 164.570312 87.828125 C 164.757812 87.871094 164.953125 87.832031 165.113281 87.726562 C 165.457031 87.5 165.550781 87.03125 165.328125 86.679688 C 165.21875 86.507812 165.050781 86.394531 164.855469 86.351562 C 164.664062 86.3125 164.472656 86.347656 164.308594 86.457031 Z M 164.71875 88.257812 C 164.640625 88.257812 164.5625 88.25 164.484375 88.234375 C 164.179688 88.167969 163.917969 87.988281 163.75 87.722656 C 163.402344 87.183594 163.554688 86.460938 164.082031 86.109375 C 164.335938 85.941406 164.640625 85.882812 164.941406 85.949219 C 165.246094 86.011719 165.503906 86.191406 165.675781 86.457031 C 166.019531 86.996094 165.871094 87.71875 165.34375 88.070312 C 165.15625 88.195312 164.941406 88.257812 164.71875 88.257812 " fill-opacity="1" fill-rule="nonzero"/><path fill="#ffbf23" d="M 153.15625 70.871094 L 90.980469 70.871094 C 89.015625 70.871094 87.304688 72.515625 87.15625 74.539062 L 80.769531 161.4375 C 80.621094 163.464844 82.09375 165.105469 84.054688 165.105469 L 146.230469 165.105469 C 148.191406 165.105469 149.902344 163.464844 150.050781 161.4375 L 156.4375 74.539062 C 156.585938 72.515625 155.117188 70.871094 153.15625 70.871094 " fill-opacity="1" fill-rule="nonzero"/><path fill="#ffffff" d="M 151.160156 70.875 L 88.980469 70.875 C 87.019531 70.875 85.308594 72.515625 85.160156 74.539062 L 78.773438 161.4375 C 78.625 163.464844 80.09375 165.105469 82.054688 165.105469 L 144.234375 165.105469 C 146.195312 165.105469 147.90625 163.464844 148.054688 161.4375 L 154.441406 74.539062 C 154.589844 72.515625 153.121094 70.875 151.160156 70.875 " fill-opacity="1" fill-rule="nonzero"/><path fill="#a6201e" d="M 145.9375 92.789062 C 145.9375 92.789062 145.933594 92.789062 145.929688 92.789062 C 145.816406 92.78125 145.726562 92.683594 145.734375 92.570312 L 146.574219 76.898438 L 92.6875 76.898438 L 91.855469 87.363281 C 91.847656 87.476562 91.75 87.5625 91.636719 87.550781 C 91.519531 87.542969 91.4375 87.445312 91.445312 87.332031 L 92.289062 76.675781 C 92.296875 76.566406 92.386719 76.484375 92.496094 76.484375 L 146.789062 76.484375 C 146.847656 76.484375 146.902344 76.507812 146.941406 76.550781 C 146.980469 76.589844 147 76.648438 146.996094 76.703125 L 146.144531 92.59375 C 146.140625 92.703125 146.046875 92.789062 145.9375 92.789062 " fill-opacity="1" fill-rule="nonzero"/><path fill="#a6201e" d="M 129.128906 155.769531 C 129.125 155.769531 129.125 155.769531 129.125 155.769531 L 92.476562 155.34375 C 92.363281 155.34375 92.269531 155.25 92.269531 155.136719 C 92.273438 155.023438 92.363281 154.929688 92.476562 154.929688 C 92.480469 154.929688 92.480469 154.929688 92.480469 154.929688 L 129.128906 155.355469 C 129.242188 155.359375 129.335938 155.453125 129.332031 155.566406 C 129.332031 155.679688 129.242188 155.769531 129.128906 155.769531 " fill-opacity="1" fill-rule="nonzero"/><path fill="#14697d" d="M 139.164062 91.238281 L 97.984375 91.238281 L 98.164062 88.789062 L 139.34375 88.789062 L 139.164062 91.238281 " fill-opacity="1" fill-rule="nonzero"/><path fill="#14697d" d="M 128.054688 96.0625 L 97.628906 96.0625 L 97.808594 93.609375 L 128.234375 93.609375 L 128.054688 96.0625 " fill-opacity="1" fill-rule="nonzero"/><path fill="#14697d" d="M 138.203125 104.289062 L 97.023438 104.289062 L 97.203125 101.835938 L 138.382812 101.835938 L 138.203125 104.289062 " fill-opacity="1" fill-rule="nonzero"/><path fill="#14697d" d="M 127.09375 109.109375 L 96.671875 109.109375 L 96.851562 106.660156 L 127.273438 106.660156 L 127.09375 109.109375 " fill-opacity="1" fill-rule="nonzero"/><path fill="#14697d" d="M 137.246094 117.335938 L 96.066406 117.335938 L 96.246094 114.886719 L 137.425781 114.886719 L 137.246094 117.335938 " fill-opacity="1" fill-rule="nonzero"/><path fill="#14697d" d="M 126.136719 122.160156 L 95.710938 122.160156 L 95.890625 119.710938 L 126.316406 119.710938 L 126.136719 122.160156 " fill-opacity="1" fill-rule="nonzero"/><path fill="#14697d" d="M 136.285156 130.386719 L 95.105469 130.386719 L 95.285156 127.9375 L 136.464844 127.9375 L 136.285156 130.386719 " fill-opacity="1" fill-rule="nonzero"/><path fill="#14697d" d="M 125.175781 135.207031 L 94.753906 135.207031 L 94.933594 132.757812 L 125.355469 132.757812 L 125.175781 135.207031 " fill-opacity="1" fill-rule="nonzero"/><path fill="#14697d" d="M 134.882812 143.710938 L 93.703125 143.710938 L 93.882812 141.261719 L 135.0625 141.261719 L 134.882812 143.710938 " fill-opacity="1" fill-rule="nonzero"/><path fill="#14697d" d="M 123.773438 148.535156 L 93.347656 148.535156 L 93.53125 146.085938 L 123.953125 146.085938 L 123.773438 148.535156 " fill-opacity="1" fill-rule="nonzero"/><path fill="#000000" d="M 152.003906 107.117188 C 151.996094 107.117188 151.992188 107.117188 151.988281 107.117188 C 151.871094 107.109375 151.785156 107.011719 151.796875 106.898438 L 154.234375 74.523438 C 154.304688 73.578125 154.007812 72.699219 153.398438 72.042969 C 152.820312 71.421875 152.027344 71.082031 151.160156 71.082031 L 88.980469 71.082031 C 87.128906 71.082031 85.507812 72.640625 85.367188 74.554688 L 83.230469 103.625 C 83.222656 103.742188 83.121094 103.824219 83.007812 103.816406 C 82.894531 103.808594 82.808594 103.710938 82.816406 103.597656 L 84.953125 74.523438 C 85.109375 72.398438 86.917969 70.667969 88.980469 70.667969 L 151.160156 70.667969 C 152.140625 70.667969 153.046875 71.054688 153.703125 71.761719 C 154.390625 72.503906 154.726562 73.492188 154.648438 74.554688 L 152.207031 106.929688 C 152.199219 107.035156 152.109375 107.117188 152.003906 107.117188 " fill-opacity="1" fill-rule="nonzero"/><path fill="#000000" d="M 137.824219 81.285156 L 102.542969 81.285156 C 101.105469 81.285156 100.027344 80.082031 100.136719 78.597656 L 100.421875 74.699219 C 100.671875 71.316406 103.527344 68.578125 106.804688 68.578125 L 135.429688 68.578125 C 138.707031 68.578125 141.160156 71.316406 140.910156 74.699219 L 140.625 78.597656 C 140.515625 80.082031 139.261719 81.285156 137.824219 81.285156 " fill-opacity="1" fill-rule="nonzero"/><path fill="#000000" d="M 106.804688 68.785156 C 103.636719 68.785156 100.867188 71.445312 100.628906 74.714844 L 100.339844 78.613281 C 100.292969 79.289062 100.503906 79.921875 100.9375 80.390625 C 101.351562 80.835938 101.921875 81.078125 102.542969 81.078125 L 137.820312 81.078125 C 139.152344 81.078125 140.316406 79.957031 140.417969 78.582031 L 140.703125 74.6875 C 140.824219 73.066406 140.316406 71.558594 139.273438 70.4375 C 138.28125 69.371094 136.914062 68.785156 135.429688 68.785156 Z M 137.820312 81.492188 L 102.542969 81.492188 C 101.804688 81.492188 101.128906 81.199219 100.636719 80.671875 C 100.121094 80.117188 99.871094 79.375 99.929688 78.582031 L 100.214844 74.6875 C 100.46875 71.203125 103.425781 68.371094 106.804688 68.371094 L 135.429688 68.371094 C 137.03125 68.371094 138.503906 69.003906 139.574219 70.15625 C 140.695312 71.363281 141.242188 72.980469 141.117188 74.714844 L 140.828125 78.613281 C 140.714844 80.199219 139.363281 81.492188 137.820312 81.492188 " fill-opacity="1" fill-rule="nonzero"/><path fill="#ffbf23" d="M 136.945312 81.285156 L 101.664062 81.285156 C 100.226562 81.285156 99.148438 80.082031 99.257812 78.597656 L 99.542969 74.699219 C 99.792969 71.316406 102.648438 68.578125 105.925781 68.578125 L 134.550781 68.578125 C 137.828125 68.578125 140.28125 71.316406 140.035156 74.699219 L 139.746094 78.597656 C 139.636719 80.082031 138.382812 81.285156 136.945312 81.285156 " fill-opacity="1" fill-rule="nonzero"/><path fill="#000000" d="M 105.925781 68.785156 C 102.761719 68.785156 99.992188 71.445312 99.75 74.714844 L 99.464844 78.613281 C 99.414062 79.289062 99.625 79.921875 100.0625 80.390625 C 100.476562 80.835938 101.042969 81.078125 101.664062 81.078125 L 136.945312 81.078125 C 138.273438 81.078125 139.441406 79.957031 139.539062 78.582031 L 139.828125 74.6875 C 139.945312 73.066406 139.4375 71.558594 138.394531 70.4375 C 137.402344 69.371094 136.039062 68.785156 134.550781 68.785156 Z M 136.945312 81.492188 L 101.664062 81.492188 C 100.929688 81.492188 100.25 81.199219 99.757812 80.671875 C 99.246094 80.117188 98.992188 79.375 99.050781 78.582031 L 99.339844 74.6875 C 99.59375 71.203125 102.550781 68.371094 105.925781 68.371094 L 134.550781 68.371094 C 136.15625 68.371094 137.628906 69.003906 138.695312 70.15625 C 139.820312 71.363281 140.367188 72.980469 140.238281 74.714844 L 139.953125 78.613281 C 139.835938 80.199219 138.488281 81.492188 136.945312 81.492188 " fill-opacity="1" fill-rule="nonzero"/><path fill="#000000" d="M 121.246094 62.605469 C 120.097656 62.605469 119.238281 61.644531 119.328125 60.460938 C 119.414062 59.277344 120.414062 58.316406 121.558594 58.316406 C 122.707031 58.316406 123.566406 59.277344 123.480469 60.460938 C 123.394531 61.644531 122.390625 62.605469 121.246094 62.605469 Z M 121.796875 55.101562 C 118.109375 55.101562 114.894531 58.1875 114.617188 61.992188 L 113.828125 72.738281 C 113.738281 73.949219 114.617188 74.929688 115.789062 74.929688 L 124.890625 74.929688 C 126.0625 74.929688 127.085938 73.949219 127.175781 72.738281 L 127.964844 61.992188 C 128.242188 58.1875 125.484375 55.101562 121.796875 55.101562 " fill-opacity="1" fill-rule="nonzero"/><path fill="#000000" d="M 121.558594 58.523438 C 120.523438 58.523438 119.613281 59.398438 119.53125 60.476562 C 119.496094 61.003906 119.660156 61.496094 120 61.863281 C 120.320312 62.207031 120.761719 62.398438 121.246094 62.398438 C 122.285156 62.398438 123.195312 61.523438 123.273438 60.445312 C 123.3125 59.917969 123.144531 59.425781 122.808594 59.058594 C 122.488281 58.714844 122.042969 58.523438 121.558594 58.523438 Z M 121.246094 62.8125 C 120.644531 62.8125 120.09375 62.574219 119.695312 62.144531 C 119.277344 61.695312 119.074219 61.089844 119.121094 60.445312 C 119.214844 59.15625 120.308594 58.113281 121.558594 58.113281 C 122.160156 58.113281 122.710938 58.347656 123.109375 58.777344 C 123.527344 59.230469 123.734375 59.832031 123.683594 60.476562 C 123.589844 61.765625 122.496094 62.8125 121.246094 62.8125 Z M 121.796875 55.308594 C 118.222656 55.308594 115.09375 58.3125 114.824219 62.007812 L 114.03125 72.753906 C 113.992188 73.292969 114.164062 73.800781 114.511719 74.175781 C 114.839844 74.527344 115.292969 74.722656 115.789062 74.722656 L 124.886719 74.722656 C 125.953125 74.722656 126.886719 73.828125 126.96875 72.722656 L 127.757812 61.976562 C 127.890625 60.148438 127.316406 58.445312 126.140625 57.175781 C 125.019531 55.972656 123.476562 55.308594 121.796875 55.308594 Z M 124.886719 75.136719 L 115.789062 75.136719 C 115.179688 75.136719 114.617188 74.894531 114.207031 74.457031 C 113.78125 73.996094 113.570312 73.378906 113.621094 72.722656 L 114.410156 61.976562 C 114.695312 58.074219 118.011719 54.894531 121.796875 54.894531 C 123.59375 54.894531 125.242188 55.605469 126.441406 56.894531 C 127.699219 58.25 128.3125 60.066406 128.171875 62.007812 L 127.382812 72.753906 C 127.285156 74.066406 126.164062 75.136719 124.886719 75.136719 " fill-opacity="1" fill-rule="nonzero"/><path fill="#ffbf23" d="M 120.679688 62.605469 C 119.53125 62.605469 118.671875 61.644531 118.757812 60.460938 C 118.847656 59.277344 119.847656 58.316406 120.992188 58.316406 C 122.140625 58.316406 123 59.277344 122.914062 60.460938 C 122.824219 61.644531 121.824219 62.605469 120.679688 62.605469 Z M 121.230469 55.101562 C 117.542969 55.101562 114.328125 58.1875 114.050781 61.992188 L 113.257812 72.738281 C 113.171875 73.949219 114.050781 74.929688 115.222656 74.929688 L 124.320312 74.929688 C 125.496094 74.929688 126.519531 73.949219 126.609375 72.738281 L 127.398438 61.992188 C 127.675781 58.1875 124.914062 55.101562 121.230469 55.101562 " fill-opacity="1" fill-rule="nonzero"/><path fill="#000000" d="M 120.992188 58.523438 C 119.953125 58.523438 119.042969 59.398438 118.964844 60.476562 C 118.925781 61.003906 119.09375 61.496094 119.429688 61.863281 C 119.753906 62.207031 120.195312 62.398438 120.679688 62.398438 C 121.71875 62.398438 122.625 61.523438 122.707031 60.445312 C 122.746094 59.917969 122.578125 59.425781 122.238281 59.058594 C 121.917969 58.714844 121.476562 58.523438 120.992188 58.523438 Z M 120.679688 62.8125 C 120.078125 62.8125 119.527344 62.574219 119.128906 62.144531 C 118.710938 61.695312 118.503906 61.089844 118.554688 60.445312 C 118.648438 59.15625 119.742188 58.113281 120.992188 58.113281 C 121.59375 58.113281 122.140625 58.347656 122.542969 58.777344 C 122.960938 59.230469 123.164062 59.832031 123.117188 60.476562 C 123.023438 61.765625 121.929688 62.8125 120.679688 62.8125 Z M 121.230469 55.308594 C 117.65625 55.308594 114.527344 58.3125 114.253906 62.007812 L 113.464844 72.753906 C 113.425781 73.292969 113.59375 73.800781 113.945312 74.175781 C 114.273438 74.527344 114.726562 74.722656 115.222656 74.722656 L 124.320312 74.722656 C 125.386719 74.722656 126.320312 73.828125 126.402344 72.722656 L 127.191406 61.976562 C 127.324219 60.148438 126.75 58.445312 125.570312 57.175781 C 124.453125 55.972656 122.910156 55.308594 121.230469 55.308594 Z M 124.320312 75.136719 L 115.222656 75.136719 C 114.609375 75.136719 114.050781 74.894531 113.640625 74.457031 C 113.214844 73.996094 113.003906 73.378906 113.054688 72.722656 L 113.84375 61.976562 C 114.128906 58.074219 117.445312 54.894531 121.230469 54.894531 C 123.027344 54.894531 124.675781 55.605469 125.875 56.894531 C 127.132812 58.25 127.746094 60.066406 127.601562 62.007812 L 126.8125 72.753906 C 126.71875 74.066406 125.597656 75.136719 124.320312 75.136719 " fill-opacity="1" fill-rule="nonzero"/><path fill="#000000" d="M 121.964844 165.3125 L 82.054688 165.3125 C 81.074219 165.3125 80.167969 164.921875 79.511719 164.21875 C 78.824219 163.476562 78.488281 162.484375 78.566406 161.421875 L 78.992188 155.648438 C 79 155.535156 79.101562 155.449219 79.214844 155.457031 C 79.328125 155.46875 79.414062 155.566406 79.40625 155.679688 L 78.980469 161.453125 C 78.910156 162.398438 79.207031 163.28125 79.816406 163.933594 C 80.394531 164.554688 81.1875 164.898438 82.054688 164.898438 L 121.964844 164.898438 C 122.078125 164.898438 122.171875 164.992188 122.171875 165.105469 C 122.171875 165.21875 122.078125 165.3125 121.964844 165.3125 " fill-opacity="1" fill-rule="nonzero"/><path fill="#000000" d="M 104.957031 138.816406 C 104.949219 138.816406 104.941406 138.816406 104.933594 138.816406 C 102.726562 138.808594 100.449219 137.480469 98.175781 134.863281 C 96.582031 133.027344 95.566406 131.210938 95.523438 131.136719 C 95.1875 130.527344 95.40625 129.757812 96.015625 129.421875 C 96.621094 129.082031 97.390625 129.300781 97.730469 129.910156 C 98.71875 131.683594 101.941406 136.285156 104.941406 136.292969 C 104.945312 136.292969 104.953125 136.292969 104.957031 136.292969 C 105.90625 136.292969 106.644531 136 107.207031 135.394531 C 108.550781 133.949219 108.648438 131.058594 108.574219 130.066406 C 108.519531 129.371094 109.039062 128.765625 109.734375 128.710938 C 110.429688 128.660156 111.035156 129.179688 111.089844 129.875 C 111.101562 130.066406 111.417969 134.570312 109.054688 137.113281 C 108.003906 138.242188 106.625 138.816406 104.957031 138.816406 " fill-opacity="1" fill-rule="nonzero"/><path fill="#000000" d="M 113.808594 129.730469 L 106.34375 129.730469 C 105.644531 129.730469 105.082031 129.167969 105.082031 128.46875 C 105.082031 127.773438 105.644531 127.210938 106.34375 127.210938 L 113.808594 127.210938 C 114.507812 127.210938 115.070312 127.773438 115.070312 128.46875 C 115.070312 129.167969 114.507812 129.730469 113.808594 129.730469 " fill-opacity="1" fill-rule="nonzero"/><path fill="#ffffff" d="M 106.265625 112.382812 L 103.546875 112.382812 L 103.546875 104.925781 L 106.265625 104.925781 C 106.875 104.925781 107.371094 105.421875 107.371094 106.035156 L 107.371094 111.273438 C 107.371094 111.886719 106.875 112.382812 106.265625 112.382812 " fill-opacity="1" fill-rule="nonzero"/><path fill="#000000" d="M 103.753906 112.175781 L 104.933594 112.175781 C 106.164062 112.175781 107.167969 111.175781 107.167969 109.945312 L 107.167969 107.367188 C 107.167969 106.136719 106.164062 105.132812 104.933594 105.132812 L 103.753906 105.132812 Z M 104.933594 112.589844 L 103.546875 112.589844 C 103.433594 112.589844 103.339844 112.5 103.339844 112.382812 L 103.339844 104.925781 C 103.339844 104.8125 103.433594 104.722656 103.546875 104.722656 L 104.933594 104.722656 C 106.394531 104.722656 107.578125 105.90625 107.578125 107.367188 L 107.578125 109.945312 C 107.578125 111.402344 106.394531 112.589844 104.933594 112.589844 " fill-opacity="1" fill-rule="nonzero"/><path fill="#ffffff" d="M 67.164062 112.382812 L 69.882812 112.382812 L 69.882812 104.925781 L 67.164062 104.925781 C 66.550781 104.925781 66.054688 105.421875 66.054688 106.035156 L 66.054688 111.273438 C 66.054688 111.886719 66.550781 112.382812 67.164062 112.382812 " fill-opacity="1" fill-rule="nonzero"/><path fill="#000000" d="M 68.492188 105.132812 C 67.265625 105.132812 66.261719 106.136719 66.261719 107.367188 L 66.261719 109.945312 C 66.261719 111.175781 67.265625 112.175781 68.492188 112.175781 L 69.675781 112.175781 L 69.675781 105.132812 Z M 69.882812 112.589844 L 68.492188 112.589844 C 67.035156 112.589844 65.847656 111.402344 65.847656 109.945312 L 65.847656 107.367188 C 65.847656 105.90625 67.035156 104.722656 68.492188 104.722656 L 69.882812 104.722656 C 69.996094 104.722656 70.089844 104.8125 70.089844 104.925781 L 70.089844 112.382812 C 70.089844 112.5 69.996094 112.589844 69.882812 112.589844 " fill-opacity="1" fill-rule="nonzero"/><path fill="#ffffff" d="M 68.675781 108.347656 C 68.675781 100.335938 76.753906 92.046875 86.714844 92.046875 C 96.675781 92.046875 104.753906 100.335938 104.753906 108.347656 C 104.753906 116.359375 96.675781 121.0625 86.714844 121.0625 C 76.753906 121.0625 68.675781 116.359375 68.675781 108.347656 " fill-opacity="1" fill-rule="nonzero"/><path fill="#000000" d="M 86.714844 92.253906 C 76.507812 92.253906 68.882812 100.75 68.882812 108.347656 C 68.882812 112.09375 70.679688 115.273438 74.074219 117.539062 C 77.28125 119.675781 81.769531 120.855469 86.714844 120.855469 C 91.65625 120.855469 96.144531 119.675781 99.355469 117.539062 C 102.75 115.273438 104.546875 112.09375 104.546875 108.347656 C 104.546875 100.75 96.921875 92.253906 86.714844 92.253906 Z M 86.714844 121.269531 C 81.691406 121.269531 77.121094 120.066406 73.84375 117.882812 C 70.328125 115.535156 68.46875 112.238281 68.46875 108.347656 C 68.46875 104.363281 70.417969 100.242188 73.816406 97.042969 C 77.378906 93.6875 81.960938 91.839844 86.714844 91.839844 C 91.46875 91.839844 96.046875 93.6875 99.609375 97.042969 C 103.007812 100.242188 104.957031 104.363281 104.957031 108.347656 C 104.957031 112.238281 103.101562 115.535156 99.582031 117.882812 C 96.308594 120.066406 91.738281 121.269531 86.714844 121.269531 " fill-opacity="1" fill-rule="nonzero"/><path fill="#ffffff" d="M 91.234375 123.46875 L 82.195312 123.46875 C 78.234375 123.46875 75.023438 126.679688 75.023438 130.640625 C 75.023438 133.257812 75.28125 135.867188 75.789062 138.433594 L 77.085938 145.015625 C 77.996094 149.613281 82.027344 152.925781 86.714844 152.925781 C 91.402344 152.925781 95.433594 149.613281 96.34375 145.015625 L 97.640625 138.433594 C 98.148438 135.867188 98.402344 133.257812 98.402344 130.640625 C 98.402344 126.679688 95.191406 123.46875 91.234375 123.46875 " fill-opacity="1" fill-rule="nonzero"/><path fill="#000000" d="M 82.195312 123.675781 C 78.355469 123.675781 75.230469 126.800781 75.230469 130.640625 C 75.230469 133.238281 75.488281 135.847656 75.988281 138.394531 L 77.289062 144.972656 C 78.175781 149.460938 82.140625 152.71875 86.714844 152.71875 C 91.289062 152.71875 95.253906 149.460938 96.140625 144.972656 L 97.4375 138.394531 C 97.941406 135.847656 98.195312 133.238281 98.195312 130.640625 C 98.195312 126.800781 95.074219 123.675781 91.230469 123.675781 Z M 86.714844 153.132812 C 81.941406 153.132812 77.808594 149.734375 76.882812 145.054688 L 75.585938 138.472656 C 75.078125 135.898438 74.816406 133.265625 74.816406 130.640625 C 74.816406 126.570312 78.128906 123.261719 82.195312 123.261719 L 91.230469 123.261719 C 95.300781 123.261719 98.609375 126.570312 98.609375 130.640625 C 98.609375 133.265625 98.351562 135.898438 97.84375 138.472656 L 96.546875 145.054688 C 95.621094 149.734375 91.488281 153.132812 86.714844 153.132812 " fill-opacity="1" fill-rule="nonzero"/><path fill="#a6201e" d="M 90.171875 139.359375 L 83.257812 139.359375 C 82.449219 139.359375 81.796875 138.703125 81.796875 137.894531 L 81.796875 123.46875 L 91.632812 123.46875 L 91.632812 137.894531 C 91.632812 138.703125 90.976562 139.359375 90.171875 139.359375 " fill-opacity="1" fill-rule="nonzero"/><path fill="#000000" d="M 91.632812 123.675781 L 81.796875 123.675781 C 81.683594 123.675781 81.589844 123.582031 81.589844 123.46875 C 81.589844 123.355469 81.683594 123.261719 81.796875 123.261719 L 91.632812 123.261719 C 91.746094 123.261719 91.839844 123.355469 91.839844 123.46875 C 91.839844 123.582031 91.746094 123.675781 91.632812 123.675781 " fill-opacity="1" fill-rule="nonzero"/><path fill="#000000" d="M 98.839844 105.941406 L 81.472656 105.941406 C 79.667969 105.941406 78.203125 107.519531 78.203125 109.464844 L 78.203125 111.761719 C 78.203125 113.242188 78.996094 114.816406 80.359375 115.070312 C 85.175781 115.976562 95.136719 115.976562 99.953125 115.070312 C 101.316406 114.816406 102.109375 113.242188 102.109375 111.761719 L 102.109375 109.464844 C 102.109375 107.519531 100.644531 105.941406 98.839844 105.941406 " fill-opacity="1" fill-rule="nonzero"/><path fill="#a6201e" d="M 86.074219 110.566406 C 86.074219 111.21875 85.585938 111.746094 84.980469 111.746094 C 84.375 111.746094 83.886719 111.21875 83.886719 110.566406 C 83.886719 109.914062 84.375 109.386719 84.980469 109.386719 C 85.585938 109.386719 86.074219 109.914062 86.074219 110.566406 " fill-opacity="1" fill-rule="nonzero"/><path fill="#a6201e" d="M 97.722656 110.566406 C 97.722656 111.21875 97.230469 111.746094 96.625 111.746094 C 96.023438 111.746094 95.53125 111.21875 95.53125 110.566406 C 95.53125 109.914062 96.023438 109.386719 96.625 109.386719 C 97.230469 109.386719 97.722656 109.914062 97.722656 110.566406 " fill-opacity="1" fill-rule="nonzero"/><path fill="#000000" d="M 75.175781 144.546875 C 72.707031 144.546875 69.363281 144.195312 67.222656 142.554688 C 65.988281 141.605469 65.265625 140.355469 65.078125 138.839844 C 64.234375 132.023438 72.460938 128.121094 72.8125 127.957031 C 73.441406 127.664062 74.191406 127.9375 74.484375 128.570312 C 74.777344 129.199219 74.503906 129.949219 73.875 130.242188 C 73.804688 130.277344 66.964844 133.539062 67.582031 138.527344 C 67.683594 139.363281 68.066406 140.023438 68.757812 140.550781 C 71.113281 142.359375 76.25 142.105469 78.027344 141.855469 C 78.71875 141.757812 79.355469 142.238281 79.453125 142.925781 C 79.550781 143.617188 79.070312 144.253906 78.378906 144.351562 C 78.253906 144.371094 76.9375 144.546875 75.175781 144.546875 " fill-opacity="1" fill-rule="nonzero"/><path fill="#000000" d="M 83.882812 145.890625 L 81.460938 145.890625 C 80.140625 145.890625 79.042969 144.894531 78.910156 143.578125 L 78.828125 142.738281 C 78.753906 142.019531 78.992188 141.296875 79.476562 140.761719 C 79.960938 140.226562 80.65625 139.917969 81.378906 139.917969 L 85.242188 139.917969 C 85.9375 139.917969 86.5 140.480469 86.5 141.179688 C 86.5 141.875 85.9375 142.4375 85.242188 142.4375 L 81.378906 142.4375 C 81.371094 142.4375 81.359375 142.4375 81.347656 142.453125 C 81.332031 142.46875 81.335938 142.480469 81.335938 142.488281 L 81.417969 143.328125 C 81.421875 143.351562 81.441406 143.367188 81.460938 143.367188 L 83.882812 143.367188 C 84.578125 143.367188 85.144531 143.933594 85.144531 144.628906 C 85.144531 145.324219 84.578125 145.890625 83.882812 145.890625 " fill-opacity="1" fill-rule="nonzero"/><path fill="#a6201e" d="M 170.097656 168.757812 L 110.109375 168.757812 C 109.640625 168.757812 109.257812 168.378906 109.257812 167.90625 L 109.257812 156.539062 C 109.257812 156.070312 109.640625 155.6875 110.109375 155.6875 L 170.097656 155.6875 C 170.566406 155.6875 170.949219 156.070312 170.949219 156.539062 L 170.949219 167.90625 C 170.949219 168.378906 170.566406 168.757812 170.097656 168.757812 " fill-opacity="1" fill-rule="nonzero"/><path fill="#ffbf23" d="M 158.574219 168.734375 L 154.03125 168.734375 L 154.03125 155.71875 L 158.574219 155.71875 L 158.574219 168.734375 " fill-opacity="1" fill-rule="nonzero"/><path fill="#ffbf23" d="M 163.816406 168.632812 L 160.585938 168.632812 L 160.585938 155.617188 L 163.816406 155.617188 L 163.816406 168.632812 " fill-opacity="1" fill-rule="nonzero"/><g clip-path="url(#5453dc997d)"><path fill="#000000" d="M 169.3125 168.964844 L 115.011719 168.964844 C 114.898438 168.964844 114.804688 168.875 114.804688 168.757812 C 114.804688 168.644531 114.898438 168.554688 115.011719 168.554688 L 169.3125 168.554688 C 170.101562 168.554688 170.746094 167.910156 170.746094 167.125 L 170.746094 157.324219 C 170.746094 156.535156 170.101562 155.894531 169.3125 155.894531 L 125.445312 155.894531 C 125.332031 155.894531 125.238281 155.800781 125.238281 155.6875 C 125.238281 155.574219 125.332031 155.480469 125.445312 155.480469 L 169.3125 155.480469 C 170.332031 155.480469 171.15625 156.308594 171.15625 157.324219 L 171.15625 167.125 C 171.15625 168.140625 170.332031 168.964844 169.3125 168.964844 " fill-opacity="1" fill-rule="nonzero"/></g><path fill="#000000" d="M 169.464844 114.65625 C 169.398438 114.65625 169.332031 114.625 169.292969 114.5625 L 158.164062 97.820312 L 145.394531 114.472656 C 145.328125 114.5625 145.195312 114.578125 145.105469 114.507812 C 145.015625 114.441406 144.996094 114.3125 145.066406 114.21875 L 158.011719 97.339844 C 158.054688 97.285156 158.113281 97.257812 158.183594 97.257812 C 158.25 97.261719 158.3125 97.292969 158.347656 97.351562 L 169.636719 114.335938 C 169.703125 114.429688 169.675781 114.558594 169.582031 114.621094 C 169.542969 114.644531 169.503906 114.65625 169.464844 114.65625 " fill-opacity="1" fill-rule="nonzero"/><path fill="#a6201e" d="M 170.476562 113.476562 C 170.792969 113.476562 171.015625 113.796875 170.902344 114.09375 C 169.660156 117.378906 164.050781 119.832031 157.316406 119.832031 C 150.476562 119.832031 144.792969 117.296875 143.675781 113.929688 C 143.601562 113.707031 143.765625 113.476562 144 113.476562 L 170.476562 113.476562 " fill-opacity="1" fill-rule="nonzero"/><g clip-path="url(#1005bfeacb)"><path fill="#000000" d="M 144 113.6875 C 143.953125 113.6875 143.914062 113.707031 143.886719 113.742188 C 143.863281 113.777344 143.855469 113.824219 143.871094 113.867188 C 144.976562 117.203125 150.632812 119.625 157.316406 119.625 C 163.847656 119.625 169.480469 117.265625 170.710938 114.019531 C 170.738281 113.941406 170.730469 113.859375 170.679688 113.792969 C 170.636719 113.722656 170.558594 113.6875 170.476562 113.6875 Z M 157.316406 120.039062 C 150.460938 120.039062 144.640625 117.496094 143.476562 113.996094 C 143.421875 113.828125 143.449219 113.644531 143.554688 113.5 C 143.660156 113.355469 143.820312 113.273438 144 113.273438 L 170.476562 113.273438 C 170.695312 113.273438 170.898438 113.378906 171.019531 113.558594 C 171.144531 113.738281 171.171875 113.964844 171.097656 114.164062 C 169.808594 117.570312 164.015625 120.039062 157.316406 120.039062 " fill-opacity="1" fill-rule="nonzero"/></g><path fill="#000000" d="M 134.019531 114.410156 C 133.953125 114.410156 133.886719 114.378906 133.847656 114.316406 L 122.71875 97.574219 L 109.949219 114.226562 C 109.878906 114.316406 109.75 114.332031 109.660156 114.265625 C 109.570312 114.195312 109.550781 114.066406 109.621094 113.976562 L 122.566406 97.09375 C 122.609375 97.042969 122.671875 97.011719 122.738281 97.011719 C 122.804688 97.015625 122.867188 97.050781 122.902344 97.105469 L 134.191406 114.089844 C 134.253906 114.183594 134.230469 114.3125 134.132812 114.375 C 134.097656 114.398438 134.058594 114.410156 134.019531 114.410156 " fill-opacity="1" fill-rule="nonzero"/><path fill="#a6201e" d="M 135.03125 113.234375 C 135.347656 113.234375 135.570312 113.550781 135.457031 113.847656 C 134.214844 117.132812 128.605469 119.585938 121.871094 119.585938 C 115.027344 119.585938 109.347656 117.050781 108.226562 113.683594 C 108.152344 113.464844 108.320312 113.234375 108.554688 113.234375 L 135.03125 113.234375 " fill-opacity="1" fill-rule="nonzero"/><path fill="#000000" d="M 108.554688 113.441406 C 108.507812 113.441406 108.46875 113.460938 108.441406 113.496094 C 108.417969 113.53125 108.410156 113.578125 108.425781 113.621094 C 109.53125 116.957031 115.1875 119.378906 121.871094 119.378906 C 128.402344 119.378906 134.035156 117.023438 135.265625 113.773438 C 135.292969 113.699219 135.28125 113.613281 135.238281 113.546875 C 135.1875 113.480469 135.113281 113.441406 135.03125 113.441406 Z M 121.871094 119.792969 C 115.015625 119.792969 109.195312 117.25 108.03125 113.75 C 107.976562 113.582031 108.003906 113.398438 108.109375 113.253906 C 108.210938 113.109375 108.375 113.027344 108.554688 113.027344 L 135.03125 113.027344 C 135.25 113.027344 135.453125 113.132812 135.578125 113.3125 C 135.699219 113.492188 135.726562 113.71875 135.652344 113.921875 C 134.363281 117.324219 128.570312 119.792969 121.871094 119.792969 " fill-opacity="1" fill-rule="nonzero"/><path fill="#a6201e" d="M 139.625 154.332031 L 141.097656 154.332031 L 141.097656 93.378906 L 139.625 93.378906 L 139.625 154.332031 " fill-opacity="1" fill-rule="nonzero"/><path fill="#000000" d="M 139.832031 154.125 L 140.894531 154.125 L 140.894531 93.582031 L 139.832031 93.582031 Z M 141.101562 154.539062 L 139.625 154.539062 C 139.511719 154.539062 139.421875 154.445312 139.421875 154.332031 L 139.421875 93.378906 C 139.421875 93.261719 139.511719 93.171875 139.625 93.171875 L 141.101562 93.171875 C 141.214844 93.171875 141.308594 93.261719 141.308594 93.378906 L 141.308594 154.332031 C 141.308594 154.445312 141.214844 154.539062 141.101562 154.539062 " fill-opacity="1" fill-rule="nonzero"/><path fill="#a6201e" d="M 158.765625 97.808594 L 158.765625 96.558594 L 121.960938 96.558594 L 121.960938 97.808594 L 158.765625 97.808594 " fill-opacity="1" fill-rule="nonzero"/><path fill="#000000" d="M 122.167969 97.601562 L 158.558594 97.601562 L 158.558594 96.769531 L 122.167969 96.769531 Z M 158.765625 98.015625 L 121.960938 98.015625 C 121.84375 98.015625 121.753906 97.925781 121.753906 97.8125 L 121.753906 96.5625 C 121.753906 96.445312 121.84375 96.355469 121.960938 96.355469 L 158.765625 96.355469 C 158.878906 96.355469 158.972656 96.445312 158.972656 96.5625 L 158.972656 97.8125 C 158.972656 97.925781 158.878906 98.015625 158.765625 98.015625 " fill-opacity="1" fill-rule="nonzero"/><path fill="#a6201e" d="M 156.519531 97.175781 C 156.519531 98.046875 157.230469 98.753906 158.101562 98.753906 C 158.976562 98.753906 159.683594 98.046875 159.683594 97.175781 C 159.683594 96.300781 158.976562 95.59375 158.101562 95.59375 C 157.230469 95.59375 156.519531 96.300781 156.519531 97.175781 " fill-opacity="1" fill-rule="nonzero"/><path fill="#000000" d="M 158.101562 95.800781 C 157.34375 95.800781 156.726562 96.414062 156.726562 97.171875 C 156.726562 97.933594 157.34375 98.550781 158.101562 98.550781 C 158.859375 98.550781 159.476562 97.933594 159.476562 97.171875 C 159.476562 96.414062 158.859375 95.800781 158.101562 95.800781 Z M 158.101562 98.960938 C 157.117188 98.960938 156.3125 98.160156 156.3125 97.171875 C 156.3125 96.1875 157.117188 95.386719 158.101562 95.386719 C 159.085938 95.386719 159.890625 96.1875 159.890625 97.171875 C 159.890625 98.160156 159.085938 98.960938 158.101562 98.960938 " fill-opacity="1" fill-rule="nonzero"/><path fill="#a6201e" d="M 120.914062 97.175781 C 120.914062 98.046875 121.621094 98.753906 122.496094 98.753906 C 123.367188 98.753906 124.074219 98.046875 124.074219 97.175781 C 124.074219 96.300781 123.367188 95.59375 122.496094 95.59375 C 121.621094 95.59375 120.914062 96.300781 120.914062 97.175781 " fill-opacity="1" fill-rule="nonzero"/><path fill="#000000" d="M 122.496094 95.800781 C 121.738281 95.800781 121.121094 96.414062 121.121094 97.175781 C 121.121094 97.933594 121.738281 98.546875 122.496094 98.546875 C 123.253906 98.546875 123.871094 97.933594 123.871094 97.175781 C 123.871094 96.414062 123.253906 95.800781 122.496094 95.800781 Z M 122.496094 98.960938 C 121.507812 98.960938 120.707031 98.160156 120.707031 97.175781 C 120.707031 96.1875 121.507812 95.386719 122.496094 95.386719 C 123.480469 95.386719 124.28125 96.1875 124.28125 97.175781 C 124.28125 98.160156 123.480469 98.960938 122.496094 98.960938 " fill-opacity="1" fill-rule="nonzero"/><path fill="#a6201e" d="M 138.769531 92.320312 C 138.769531 93.195312 139.476562 93.902344 140.347656 93.902344 C 141.222656 93.902344 141.929688 93.195312 141.929688 92.320312 C 141.929688 91.445312 141.222656 90.738281 140.347656 90.738281 C 139.476562 90.738281 138.769531 91.445312 138.769531 92.320312 " fill-opacity="1" fill-rule="nonzero"/><path fill="#000000" d="M 140.347656 90.945312 C 139.589844 90.945312 138.972656 91.5625 138.972656 92.320312 C 138.972656 93.078125 139.589844 93.695312 140.347656 93.695312 C 141.109375 93.695312 141.722656 93.078125 141.722656 92.320312 C 141.722656 91.5625 141.109375 90.945312 140.347656 90.945312 Z M 140.347656 94.109375 C 139.363281 94.109375 138.5625 93.308594 138.5625 92.320312 C 138.5625 91.335938 139.363281 90.535156 140.347656 90.535156 C 141.335938 90.535156 142.136719 91.335938 142.136719 92.320312 C 142.136719 93.308594 141.335938 94.109375 140.347656 94.109375 " fill-opacity="1" fill-rule="nonzero"/><path fill="#a6201e" d="M 129.714844 155.683594 L 150.644531 155.683594 C 150.945312 155.683594 151.054688 155.203125 150.800781 155.011719 L 149.738281 154.230469 C 147.960938 152.921875 145.925781 152.230469 143.851562 152.230469 L 136.261719 152.230469 C 134.242188 152.230469 132.265625 152.929688 130.558594 154.242188 L 129.558594 155.015625 C 129.304688 155.210938 129.417969 155.683594 129.714844 155.683594 " fill-opacity="1" fill-rule="nonzero"/><path fill="#000000" d="M 136.261719 152.4375 C 134.285156 152.4375 132.359375 153.117188 130.683594 154.40625 L 129.683594 155.179688 C 129.621094 155.226562 129.613281 155.324219 129.636719 155.394531 C 129.644531 155.414062 129.667969 155.476562 129.714844 155.476562 L 150.644531 155.476562 C 150.691406 155.476562 150.71875 155.414062 150.722656 155.394531 C 150.746094 155.324219 150.738281 155.226562 150.675781 155.179688 L 149.613281 154.398438 C 147.875 153.113281 145.882812 152.4375 143.851562 152.4375 Z M 150.644531 155.890625 L 129.714844 155.890625 C 129.5 155.890625 129.320312 155.753906 129.246094 155.53125 C 129.160156 155.277344 129.234375 155.003906 129.429688 154.851562 L 130.433594 154.082031 C 132.179688 152.734375 134.195312 152.023438 136.261719 152.023438 L 143.851562 152.023438 C 145.972656 152.023438 148.046875 152.730469 149.859375 154.066406 L 150.921875 154.847656 C 151.121094 154.992188 151.199219 155.265625 151.117188 155.523438 C 151.042969 155.75 150.859375 155.890625 150.644531 155.890625 " fill-opacity="1" fill-rule="nonzero"/></svg>