<svg xmlns="http://www.w3.org/2000/svg" xmlns:xlink="http://www.w3.org/1999/xlink" width="300" zoomAndPan="magnify" viewBox="0 0 224.87999 225" height="300" preserveAspectRatio="xMidYMid meet" version="1.0"><path fill="#14697d" d="M 141.707031 159.089844 C 118.136719 172.839844 89.386719 162.792969 73.652344 147 C 53.035156 126.304688 51.332031 92.296875 65.886719 72.136719 C 71.941406 63.757812 84.578125 52.144531 98.070312 53.707031 C 109.507812 55.035156 111.03125 64.582031 130.070312 79.542969 C 151.660156 96.507812 160.992188 93.101562 166.027344 103.804688 C 173.535156 119.75 162.164062 147.15625 141.707031 159.089844 " fill-opacity="1" fill-rule="nonzero"/><path fill="#14697d" d="M 165.125 125.4375 L 121.800781 125.4375 L 121.800781 72.574219 L 165.125 72.574219 L 165.125 125.4375 " fill-opacity="1" fill-rule="nonzero"/><path fill="#ffbf23" d="M 145.914062 77.054688 L 125 77.054688 L 125 75.734375 L 145.914062 75.734375 L 145.914062 77.054688 " fill-opacity="1" fill-rule="nonzero"/><path fill="#ffffff" d="M 156.480469 79.34375 L 132.035156 79.34375 L 132.035156 77.972656 L 156.480469 77.972656 L 156.480469 79.34375 " fill-opacity="1" fill-rule="nonzero"/><path fill="#ffffff" d="M 161.925781 81.609375 L 137.476562 81.609375 L 137.476562 80.234375 L 161.925781 80.234375 L 161.925781 81.609375 " fill-opacity="1" fill-rule="nonzero"/><path fill="#ffffff" d="M 158.976562 83.875 L 146.339844 83.875 L 146.339844 82.5 L 158.976562 82.5 L 158.976562 83.875 " fill-opacity="1" fill-rule="nonzero"/><path fill="#ffbf23" d="M 145.914062 95.171875 L 125 95.171875 L 125 93.851562 L 145.914062 93.851562 L 145.914062 95.171875 " fill-opacity="1" fill-rule="nonzero"/><path fill="#ffffff" d="M 156.480469 97.460938 L 132.035156 97.460938 L 132.035156 96.089844 L 156.480469 96.089844 L 156.480469 97.460938 " fill-opacity="1" fill-rule="nonzero"/><path fill="#ffffff" d="M 161.925781 99.726562 L 137.476562 99.726562 L 137.476562 98.355469 L 161.925781 98.355469 L 161.925781 99.726562 " fill-opacity="1" fill-rule="nonzero"/><path fill="#ffffff" d="M 161.925781 101.992188 L 146.339844 101.992188 L 146.339844 100.617188 L 161.925781 100.617188 L 161.925781 101.992188 " fill-opacity="1" fill-rule="nonzero"/><path fill="#ffffff" d="M 156.480469 86.140625 L 132.035156 86.140625 L 132.035156 84.765625 L 156.480469 84.765625 L 156.480469 86.140625 " fill-opacity="1" fill-rule="nonzero"/><path fill="#ffffff" d="M 161.925781 88.402344 L 137.476562 88.402344 L 137.476562 87.03125 L 161.925781 87.03125 L 161.925781 88.402344 " fill-opacity="1" fill-rule="nonzero"/><path fill="#ffffff" d="M 156.027344 92.933594 L 146.339844 92.933594 L 146.339844 91.558594 L 156.027344 91.558594 L 156.027344 92.933594 " fill-opacity="1" fill-rule="nonzero"/><path fill="#ffffff" d="M 161.925781 90.667969 L 146.339844 90.667969 L 146.339844 89.296875 L 161.925781 89.296875 L 161.925781 90.667969 " fill-opacity="1" fill-rule="nonzero"/><path fill="#ffbf23" d="M 145.914062 104.230469 L 125 104.230469 L 125 102.910156 L 145.914062 102.910156 L 145.914062 104.230469 " fill-opacity="1" fill-rule="nonzero"/><path fill="#ffffff" d="M 156.480469 106.519531 L 132.035156 106.519531 L 132.035156 105.148438 L 156.480469 105.148438 L 156.480469 106.519531 " fill-opacity="1" fill-rule="nonzero"/><path fill="#ffffff" d="M 161.136719 108.785156 L 137.476562 108.785156 L 137.476562 107.414062 L 161.136719 107.414062 L 161.136719 108.785156 " fill-opacity="1" fill-rule="nonzero"/><path fill="#ffbf23" d="M 161.925781 111.050781 L 146.339844 111.050781 L 146.339844 109.675781 L 161.925781 109.675781 L 161.925781 111.050781 " fill-opacity="1" fill-rule="nonzero"/><path fill="#ffbf23" d="M 150.6875 122.375 L 137.476562 122.375 L 137.476562 121 L 150.6875 121 L 150.6875 122.375 " fill-opacity="1" fill-rule="nonzero"/><path fill="#ffffff" d="M 156.480469 113.316406 L 132.035156 113.316406 L 132.035156 111.941406 L 156.480469 111.941406 L 156.480469 113.316406 " fill-opacity="1" fill-rule="nonzero"/><path fill="#ffffff" d="M 161.925781 115.578125 L 137.476562 115.578125 L 137.476562 114.207031 L 161.925781 114.207031 L 161.925781 115.578125 " fill-opacity="1" fill-rule="nonzero"/><path fill="#ffffff" d="M 161.925781 120.109375 L 146.339844 120.109375 L 146.339844 118.734375 L 161.925781 118.734375 L 161.925781 120.109375 " fill-opacity="1" fill-rule="nonzero"/><path fill="#ffffff" d="M 155.261719 117.84375 L 146.339844 117.84375 L 146.339844 116.472656 L 155.261719 116.472656 L 155.261719 117.84375 " fill-opacity="1" fill-rule="nonzero"/><path fill="#ffffff" d="M 121.800781 83.390625 C 121.6875 83.390625 121.597656 83.300781 121.597656 83.1875 L 121.597656 72.574219 C 121.597656 72.460938 121.6875 72.371094 121.800781 72.371094 L 127.816406 72.371094 C 127.925781 72.371094 128.019531 72.460938 128.019531 72.574219 C 128.019531 72.6875 127.925781 72.777344 127.816406 72.777344 L 122.003906 72.777344 L 122.003906 83.1875 C 122.003906 83.300781 121.910156 83.390625 121.800781 83.390625 " fill-opacity="1" fill-rule="nonzero"/><path fill="#ffffff" d="M 165.125 125.640625 L 154.609375 125.640625 C 154.496094 125.640625 154.40625 125.550781 154.40625 125.4375 C 154.40625 125.324219 154.496094 125.234375 154.609375 125.234375 L 164.921875 125.234375 L 164.921875 97.378906 C 164.921875 97.265625 165.011719 97.175781 165.125 97.175781 C 165.234375 97.175781 165.324219 97.265625 165.324219 97.378906 L 165.324219 125.4375 C 165.324219 125.550781 165.234375 125.640625 165.125 125.640625 " fill-opacity="1" fill-rule="nonzero"/><path fill="#14697d" d="M 166.648438 78.175781 C 166.535156 78.175781 166.445312 78.082031 166.445312 77.972656 L 166.445312 71.28125 L 155.820312 71.28125 C 155.710938 71.28125 155.617188 71.191406 155.617188 71.078125 C 155.617188 70.964844 155.710938 70.875 155.820312 70.875 L 166.648438 70.875 C 166.757812 70.875 166.851562 70.964844 166.851562 71.078125 L 166.851562 77.972656 C 166.851562 78.082031 166.757812 78.175781 166.648438 78.175781 " fill-opacity="1" fill-rule="nonzero"/><path fill="#ffbf23" d="M 155.460938 137.625 L 112.136719 137.625 L 112.136719 84.765625 L 155.460938 84.765625 L 155.460938 137.625 " fill-opacity="1" fill-rule="nonzero"/><path fill="#14697d" d="M 136.25 89.242188 L 115.335938 89.242188 L 115.335938 87.921875 L 136.25 87.921875 L 136.25 89.242188 " fill-opacity="1" fill-rule="nonzero"/><path fill="#ffffff" d="M 146.816406 91.535156 L 122.371094 91.535156 L 122.371094 90.160156 L 146.816406 90.160156 L 146.816406 91.535156 " fill-opacity="1" fill-rule="nonzero"/><path fill="#ffffff" d="M 152.261719 93.800781 L 127.816406 93.800781 L 127.816406 92.425781 L 152.261719 92.425781 L 152.261719 93.800781 " fill-opacity="1" fill-rule="nonzero"/><path fill="#ffffff" d="M 149.316406 96.0625 L 136.679688 96.0625 L 136.679688 94.691406 L 149.316406 94.691406 L 149.316406 96.0625 " fill-opacity="1" fill-rule="nonzero"/><path fill="#14697d" d="M 136.25 107.359375 L 115.335938 107.359375 L 115.335938 106.039062 L 136.25 106.039062 L 136.25 107.359375 " fill-opacity="1" fill-rule="nonzero"/><path fill="#ffffff" d="M 146.816406 109.652344 L 122.371094 109.652344 L 122.371094 108.277344 L 146.816406 108.277344 L 146.816406 109.652344 " fill-opacity="1" fill-rule="nonzero"/><path fill="#ffffff" d="M 152.261719 111.917969 L 127.816406 111.917969 L 127.816406 110.542969 L 152.261719 110.542969 L 152.261719 111.917969 " fill-opacity="1" fill-rule="nonzero"/><path fill="#ffffff" d="M 152.261719 114.179688 L 136.679688 114.179688 L 136.679688 112.808594 L 152.261719 112.808594 L 152.261719 114.179688 " fill-opacity="1" fill-rule="nonzero"/><path fill="#ffffff" d="M 146.816406 98.328125 L 122.371094 98.328125 L 122.371094 96.953125 L 146.816406 96.953125 L 146.816406 98.328125 " fill-opacity="1" fill-rule="nonzero"/><path fill="#ffffff" d="M 152.261719 100.59375 L 127.816406 100.59375 L 127.816406 99.21875 L 152.261719 99.21875 L 152.261719 100.59375 " fill-opacity="1" fill-rule="nonzero"/><path fill="#ffffff" d="M 146.367188 105.121094 L 136.679688 105.121094 L 136.679688 103.75 L 146.367188 103.75 L 146.367188 105.121094 " fill-opacity="1" fill-rule="nonzero"/><path fill="#ffffff" d="M 152.261719 102.859375 L 136.679688 102.859375 L 136.679688 101.484375 L 152.261719 101.484375 L 152.261719 102.859375 " fill-opacity="1" fill-rule="nonzero"/><path fill="#14697d" d="M 136.25 116.417969 L 115.335938 116.417969 L 115.335938 115.097656 L 136.25 115.097656 L 136.25 116.417969 " fill-opacity="1" fill-rule="nonzero"/><path fill="#ffffff" d="M 146.816406 118.710938 L 122.371094 118.710938 L 122.371094 117.335938 L 146.816406 117.335938 L 146.816406 118.710938 " fill-opacity="1" fill-rule="nonzero"/><path fill="#ffffff" d="M 151.476562 120.976562 L 127.816406 120.976562 L 127.816406 119.601562 L 151.476562 119.601562 L 151.476562 120.976562 " fill-opacity="1" fill-rule="nonzero"/><path fill="#14697d" d="M 152.261719 123.238281 L 136.679688 123.238281 L 136.679688 121.867188 L 152.261719 121.867188 L 152.261719 123.238281 " fill-opacity="1" fill-rule="nonzero"/><path fill="#14697d" d="M 141.027344 134.5625 L 127.816406 134.5625 L 127.816406 133.191406 L 141.027344 133.191406 L 141.027344 134.5625 " fill-opacity="1" fill-rule="nonzero"/><path fill="#ffffff" d="M 146.816406 125.503906 L 122.371094 125.503906 L 122.371094 124.132812 L 146.816406 124.132812 L 146.816406 125.503906 " fill-opacity="1" fill-rule="nonzero"/><path fill="#ffffff" d="M 152.261719 127.769531 L 127.816406 127.769531 L 127.816406 126.394531 L 152.261719 126.394531 L 152.261719 127.769531 " fill-opacity="1" fill-rule="nonzero"/><path fill="#ffffff" d="M 152.261719 132.296875 L 136.679688 132.296875 L 136.679688 130.925781 L 152.261719 130.925781 L 152.261719 132.296875 " fill-opacity="1" fill-rule="nonzero"/><path fill="#ffffff" d="M 145.601562 130.035156 L 136.679688 130.035156 L 136.679688 128.660156 L 145.601562 128.660156 L 145.601562 130.035156 " fill-opacity="1" fill-rule="nonzero"/><path fill="#ffbf23" d="M 91.714844 123.84375 L 91.714844 132.722656 C 91.714844 141.410156 95.4375 151.621094 101.371094 151.621094 L 106.890625 152.171875 C 112.828125 152.171875 113.214844 155.492188 113.214844 164.175781 C 113.214844 164.949219 112.777344 165.578125 112.234375 165.578125 L 83.777344 165.578125 C 74.875 165.578125 67.660156 155.023438 67.660156 142 L 67.660156 123.054688 C 67.660156 117.875 70.53125 113.675781 74.070312 113.675781 L 84.765625 113.675781 C 88.605469 113.675781 91.714844 118.226562 91.714844 123.84375 " fill-opacity="1" fill-rule="nonzero"/><path fill="#a6201e" d="M 94.480469 152.140625 C 94.480469 152.140625 108.332031 151.222656 109.144531 165.578125 C 107.257812 165.578125 103.757812 165.578125 100.035156 165.578125 C 99.554688 165.578125 97.46875 161.125 96.984375 161.125 C 96.597656 161.125 97.816406 165.578125 97.429688 165.578125 C 91.53125 165.578125 85.878906 165.578125 85.878906 165.578125 C 85.878906 165.578125 83.246094 161.472656 79.007812 160.636719 C 74.769531 159.800781 72.09375 156.882812 72.820312 154.652344 C 78.308594 155.324219 92.375 156.976562 94.480469 152.140625 " fill-opacity="1" fill-rule="nonzero"/><path fill="#ffffff" d="M 107.328125 130.828125 C 108.054688 130.636719 114.027344 149.878906 124.464844 150.015625 L 114.054688 150.152344 C 114.054688 150.152344 103.230469 141.785156 103.011719 135.644531 C 102.863281 131.402344 107.328125 130.828125 107.328125 130.828125 " fill-opacity="1" fill-rule="nonzero"/><path fill="#000000" d="M 107.328125 130.828125 Z M 107.378906 131.023438 C 107.378906 131.027344 107.378906 131.027344 107.378906 131.027344 C 107.378906 131.027344 107.378906 131.027344 107.378906 131.023438 Z M 107.296875 131.039062 C 106.769531 131.121094 103.082031 131.839844 103.214844 135.636719 C 103.417969 141.390625 113.289062 149.292969 114.125 149.949219 L 122.042969 149.84375 C 115.113281 147.785156 110.472656 137.738281 108.371094 133.183594 C 107.910156 132.183594 107.472656 131.238281 107.296875 131.039062 Z M 114.054688 150.355469 C 114.011719 150.355469 113.964844 150.339844 113.929688 150.3125 C 113.484375 149.96875 103.027344 141.816406 102.8125 135.652344 C 102.660156 131.390625 107.019531 130.671875 107.289062 130.632812 C 107.597656 130.5625 107.792969 130.96875 108.738281 133.015625 C 111.046875 138.007812 116.449219 149.707031 124.46875 149.8125 C 124.578125 149.8125 124.667969 149.902344 124.667969 150.015625 C 124.667969 150.125 124.578125 150.214844 124.46875 150.214844 L 114.058594 150.355469 C 114.054688 150.355469 114.054688 150.355469 114.054688 150.355469 " fill-opacity="1" fill-rule="nonzero"/><path fill="#000000" d="M 100.644531 144.988281 C 100.644531 144.988281 101.15625 154.71875 93.441406 155.59375 C 85.726562 156.46875 72.832031 154.652344 72.832031 154.652344 C 72.832031 154.652344 76.457031 125.964844 92.847656 124.925781 C 98.609375 124.5625 106.5625 125.535156 105.675781 128.402344 C 103.429688 135.667969 100.644531 144.988281 100.644531 144.988281 " fill-opacity="1" fill-rule="nonzero"/><path fill="#000000" d="M 73.058594 154.476562 C 74.722656 154.703125 86.339844 156.195312 93.417969 155.390625 C 96.535156 155.039062 98.660156 153.191406 99.746094 149.898438 C 100.558594 147.421875 100.445312 145.019531 100.445312 144.996094 C 100.441406 144.972656 100.445312 144.953125 100.453125 144.929688 C 100.480469 144.835938 103.261719 135.523438 105.480469 128.34375 C 105.605469 127.941406 105.535156 127.582031 105.265625 127.242188 C 103.90625 125.511719 97.890625 124.808594 92.863281 125.128906 C 84.5 125.660156 79.554688 133.648438 76.882812 140.253906 C 74.242188 146.777344 73.230469 153.273438 73.058594 154.476562 Z M 88.53125 156.03125 C 81.28125 156.03125 72.90625 154.867188 72.804688 154.851562 C 72.695312 154.835938 72.617188 154.734375 72.628906 154.625 C 72.640625 154.554688 73.574219 147.34375 76.507812 140.101562 C 78.230469 135.839844 80.300781 132.398438 82.660156 129.871094 C 85.621094 126.695312 89.042969 124.964844 92.835938 124.722656 C 97.898438 124.402344 104.085938 125.089844 105.585938 126.992188 C 105.9375 127.4375 106.03125 127.933594 105.867188 128.460938 C 103.714844 135.429688 101.035156 144.394531 100.847656 145.011719 C 100.863281 145.335938 100.921875 147.613281 100.128906 150.023438 C 99.007812 153.433594 96.703125 155.425781 93.464844 155.792969 C 91.976562 155.964844 90.285156 156.03125 88.53125 156.03125 " fill-opacity="1" fill-rule="nonzero"/><path fill="#a6201e" d="M 110.671875 134.425781 L 105.0625 126.753906 L 101.144531 138.40625 L 106.402344 142.570312 L 110.671875 134.425781 " fill-opacity="1" fill-rule="nonzero"/><path fill="#ffffff" d="M 103.445312 131.566406 L 102.351562 139.269531 L 103.445312 131.566406 " fill-opacity="1" fill-rule="nonzero"/><path fill="#000000" d="M 102.351562 139.46875 C 102.339844 139.46875 102.332031 139.46875 102.324219 139.46875 C 102.210938 139.453125 102.136719 139.351562 102.152344 139.238281 L 103.246094 131.535156 C 103.261719 131.425781 103.363281 131.347656 103.476562 131.363281 C 103.585938 131.378906 103.664062 131.484375 103.648438 131.59375 L 102.550781 139.296875 C 102.535156 139.398438 102.449219 139.46875 102.351562 139.46875 " fill-opacity="1" fill-rule="nonzero"/><path fill="#ffffff" d="M 95.414062 123.554688 L 90.121094 125.363281 C 98.0625 127.742188 101.640625 125.8125 101.640625 125.8125 L 99.570312 124.832031 L 100.082031 123.644531 C 100.605469 123.890625 101.097656 124.164062 101.46875 124.011719 C 102.328125 123.660156 102.792969 122.230469 102.792969 122.230469 L 103.183594 122.277344 C 103.242188 122.285156 103.296875 122.269531 103.34375 122.230469 C 103.386719 122.195312 103.410156 122.140625 103.414062 122.082031 C 103.4375 121.304688 103.40625 120.722656 103.628906 120.0625 C 103.84375 119.414062 104.011719 119.421875 104.214844 117.839844 L 100.683594 115.453125 L 98.886719 118.101562 C 98.886719 118.101562 98.578125 117.386719 97.917969 117.628906 C 97.4375 117.808594 97.21875 119.335938 97.667969 119.636719 L 95.414062 123.554688 " fill-opacity="1" fill-rule="nonzero"/><path fill="#000000" d="M 95.414062 123.554688 L 95.417969 123.554688 Z M 90.792969 125.347656 C 96.691406 126.996094 100.042969 126.1875 101.140625 125.800781 L 99.484375 125.015625 C 99.386719 124.96875 99.34375 124.851562 99.386719 124.75 L 99.898438 123.5625 C 99.917969 123.511719 99.960938 123.472656 100.011719 123.453125 C 100.0625 123.433594 100.121094 123.4375 100.171875 123.460938 L 100.316406 123.53125 C 100.738281 123.734375 101.140625 123.929688 101.394531 123.824219 C 102.023438 123.566406 102.480469 122.542969 102.601562 122.167969 C 102.632812 122.074219 102.722656 122.019531 102.820312 122.03125 L 103.207031 122.078125 C 103.214844 121.949219 103.21875 121.828125 103.21875 121.710938 C 103.230469 121.105469 103.242188 120.582031 103.4375 120 C 103.496094 119.820312 103.550781 119.691406 103.605469 119.566406 C 103.742188 119.25 103.859375 118.972656 103.996094 117.9375 L 100.734375 115.734375 L 99.054688 118.214844 C 99.011719 118.277344 98.941406 118.308594 98.867188 118.304688 C 98.792969 118.296875 98.730469 118.25 98.703125 118.183594 C 98.679688 118.128906 98.453125 117.648438 97.988281 117.820312 C 97.863281 117.867188 97.695312 118.195312 97.644531 118.644531 C 97.589844 119.082031 97.675781 119.398438 97.78125 119.46875 C 97.871094 119.53125 97.898438 119.648438 97.84375 119.738281 L 95.589844 123.652344 C 95.566406 123.695312 95.527344 123.730469 95.480469 123.746094 Z M 97.367188 126.761719 C 95.542969 126.761719 93.128906 126.476562 90.0625 125.558594 C 89.976562 125.53125 89.921875 125.453125 89.917969 125.367188 C 89.917969 125.277344 89.972656 125.199219 90.054688 125.171875 L 95.277344 123.386719 L 97.417969 119.671875 C 97.175781 119.347656 97.21875 118.78125 97.242188 118.59375 C 97.296875 118.125 97.484375 117.574219 97.847656 117.441406 C 98.328125 117.261719 98.683594 117.480469 98.894531 117.734375 L 100.515625 115.339844 C 100.578125 115.246094 100.703125 115.222656 100.796875 115.285156 L 104.328125 117.671875 C 104.390625 117.714844 104.425781 117.789062 104.414062 117.863281 C 104.261719 119.058594 104.125 119.382812 103.976562 119.726562 C 103.925781 119.84375 103.875 119.964844 103.820312 120.128906 C 103.644531 120.652344 103.636719 121.121094 103.625 121.71875 C 103.621094 121.835938 103.621094 121.960938 103.617188 122.085938 C 103.613281 122.203125 103.558594 122.308594 103.472656 122.382812 C 103.386719 122.460938 103.273438 122.492188 103.160156 122.480469 L 102.929688 122.453125 C 102.773438 122.851562 102.308594 123.886719 101.546875 124.199219 C 101.140625 124.367188 100.675781 124.152344 100.183594 123.917969 L 99.835938 124.730469 L 101.726562 125.628906 C 101.796875 125.664062 101.839844 125.730469 101.84375 125.808594 C 101.84375 125.882812 101.804688 125.957031 101.738281 125.992188 C 101.644531 126.042969 100.253906 126.761719 97.367188 126.761719 " fill-opacity="1" fill-rule="nonzero"/><path fill="#000000" d="M 97.695312 117.679688 C 97.695312 117.679688 98.816406 117.585938 98.738281 118.09375 C 98.625 118.804688 98.488281 118.945312 98.617188 119.226562 C 98.6875 119.378906 98.875 119.484375 99.03125 119.484375 C 99.363281 119.488281 99.46875 118.9375 100.054688 118.324219 C 100.300781 118.066406 100.5625 117.871094 100.707031 117.785156 C 101.84375 117.109375 103.128906 118.636719 104.503906 118.195312 C 105.421875 117.90625 106.144531 116.816406 105.964844 116.082031 C 105.890625 115.777344 105.632812 115.433594 103.375 114.691406 C 101.089844 113.941406 99.949219 113.566406 99.261719 113.910156 C 97.660156 114.71875 97.691406 117.476562 97.695312 117.679688 " fill-opacity="1" fill-rule="nonzero"/><path fill="#000000" d="M 100.082031 123.847656 C 100.042969 123.847656 100.003906 123.835938 99.96875 123.808594 L 99.0625 123.171875 C 98.617188 122.859375 98.390625 122.328125 98.464844 121.789062 L 98.5 121.542969 C 98.515625 121.429688 98.621094 121.355469 98.730469 121.367188 C 98.839844 121.386719 98.917969 121.488281 98.902344 121.597656 L 98.867188 121.847656 C 98.8125 122.234375 98.976562 122.617188 99.292969 122.839844 L 100.199219 123.476562 C 100.292969 123.542969 100.3125 123.667969 100.25 123.761719 C 100.210938 123.816406 100.148438 123.847656 100.082031 123.847656 " fill-opacity="1" fill-rule="nonzero"/><path fill="#000000" d="M 102.699219 119.558594 C 102.652344 119.558594 102.613281 119.574219 102.597656 119.589844 C 102.101562 120.039062 102.027344 120.476562 102.019531 120.644531 C 102.015625 120.804688 102.054688 120.882812 102.0625 120.894531 C 102.15625 120.949219 102.25 120.96875 102.339844 120.941406 C 102.519531 120.882812 102.714844 120.632812 102.886719 120.230469 C 102.96875 120.046875 103.042969 119.800781 102.945312 119.691406 C 102.859375 119.585938 102.765625 119.566406 102.71875 119.5625 C 102.710938 119.5625 102.707031 119.558594 102.699219 119.558594 Z M 102.257812 121.359375 C 102.117188 121.359375 101.976562 121.316406 101.839844 121.230469 C 101.71875 121.152344 101.636719 120.992188 101.621094 120.78125 C 101.585938 120.398438 101.753906 119.808594 102.328125 119.289062 C 102.433594 119.195312 102.585938 119.144531 102.746094 119.15625 C 102.941406 119.171875 103.121094 119.269531 103.257812 119.429688 C 103.441406 119.652344 103.441406 119.964844 103.257812 120.390625 C 103.027344 120.925781 102.765625 121.230469 102.457031 121.328125 C 102.394531 121.347656 102.324219 121.359375 102.257812 121.359375 " fill-opacity="1" fill-rule="nonzero"/><path fill="#000000" d="M 102.832031 119.570312 C 102.808594 119.570312 102.785156 119.566406 102.761719 119.558594 L 99.246094 118.296875 C 99.140625 118.261719 99.085938 118.144531 99.125 118.039062 C 99.160156 117.933594 99.277344 117.878906 99.382812 117.917969 L 102.898438 119.175781 C 103.003906 119.214844 103.058594 119.328125 103.019531 119.433594 C 102.992188 119.515625 102.914062 119.570312 102.832031 119.570312 " fill-opacity="1" fill-rule="nonzero"/><path fill="#000000" d="M 103.628906 121.683594 C 103.625 121.683594 103.621094 121.683594 103.621094 121.683594 C 103.507812 121.683594 103.421875 121.589844 103.425781 121.476562 C 103.429688 121.375 103.507812 121.292969 103.605469 121.28125 C 103.742188 121.21875 104.199219 120.730469 104.167969 120.21875 C 104.164062 120.136719 104.132812 120.101562 104.101562 120.078125 C 103.976562 119.980469 103.6875 119.992188 103.53125 120.023438 C 103.421875 120.046875 103.316406 119.972656 103.292969 119.863281 C 103.273438 119.753906 103.34375 119.648438 103.453125 119.625 C 103.511719 119.613281 104.035156 119.515625 104.347656 119.757812 C 104.484375 119.863281 104.5625 120.011719 104.574219 120.195312 C 104.609375 120.8125 104.1875 121.296875 104.058594 121.429688 C 103.894531 121.597656 103.75 121.683594 103.628906 121.683594 " fill-opacity="1" fill-rule="nonzero"/><path fill="#ffffff" d="M 78.699219 133.765625 C 78.699219 133.765625 79.066406 144.546875 81.527344 148.742188 C 84.46875 153.75 99.304688 147.003906 99.304688 147.003906 L 101.03125 146.023438 C 102.195312 145.359375 103.585938 145.214844 104.863281 145.628906 L 106.378906 146.121094 C 106.734375 146.238281 107.007812 145.800781 106.753906 145.53125 C 105.902344 144.628906 104.582031 143.347656 103.390625 142.699219 C 102.476562 142.203125 101.289062 142.671875 100.289062 143.308594 C 98.546875 144.410156 96.503906 144.929688 94.449219 144.867188 L 88.570312 144.691406 C 87.578125 144.664062 86.765625 143.890625 86.679688 142.898438 L 85.789062 130.441406 L 78.699219 133.765625 " fill-opacity="1" fill-rule="nonzero"/><path fill="#000000" d="M 78.90625 133.890625 C 78.960938 135.140625 79.441406 144.789062 81.703125 148.640625 C 84.492188 153.386719 98.796875 147.011719 99.210938 146.824219 L 100.929688 145.847656 C 102.140625 145.15625 103.597656 145.007812 104.925781 145.4375 L 106.441406 145.929688 C 106.550781 145.964844 106.609375 145.886719 106.625 145.863281 C 106.640625 145.839844 106.683594 145.753906 106.605469 145.667969 C 105.734375 144.742188 104.449219 143.503906 103.296875 142.878906 C 102.421875 142.40625 101.238281 142.945312 100.394531 143.480469 C 98.65625 144.585938 96.59375 145.132812 94.441406 145.070312 L 88.5625 144.894531 C 87.46875 144.863281 86.574219 144.011719 86.476562 142.917969 L 85.609375 130.75 Z M 86.023438 150.796875 C 83.9375 150.796875 82.195312 150.277344 81.351562 148.84375 C 78.894531 144.65625 78.511719 134.214844 78.496094 133.773438 C 78.492188 133.691406 78.539062 133.617188 78.613281 133.582031 L 85.703125 130.257812 C 85.765625 130.230469 85.835938 130.234375 85.894531 130.269531 C 85.949219 130.300781 85.988281 130.359375 85.992188 130.429688 L 86.882812 142.886719 C 86.957031 143.773438 87.6875 144.464844 88.574219 144.488281 L 94.453125 144.664062 C 96.527344 144.726562 98.507812 144.199219 100.179688 143.136719 C 101.535156 142.273438 102.648438 142.070312 103.488281 142.523438 C 104.691406 143.171875 106.007812 144.441406 106.902344 145.390625 C 107.078125 145.582031 107.105469 145.859375 106.964844 146.082031 C 106.828125 146.300781 106.566406 146.394531 106.316406 146.316406 L 104.800781 145.824219 C 103.582031 145.425781 102.242188 145.566406 101.128906 146.199219 L 99.402344 147.179688 C 99.398438 147.183594 99.394531 147.1875 99.386719 147.1875 C 98.945312 147.390625 91.363281 150.796875 86.023438 150.796875 " fill-opacity="1" fill-rule="nonzero"/><path fill="#000000" d="M 90.414062 124.964844 C 83.40625 125.183594 77.710938 129.363281 76.289062 139.597656 L 87.785156 138.386719 L 90.414062 124.964844 " fill-opacity="1" fill-rule="nonzero"/><path fill="#000000" d="M 90.167969 125.175781 C 84.789062 125.417969 78.183594 128.125 76.527344 139.371094 L 87.617188 138.203125 Z M 76.289062 139.800781 C 76.234375 139.800781 76.183594 139.777344 76.144531 139.738281 C 76.101562 139.695312 76.082031 139.632812 76.089844 139.570312 C 76.769531 134.664062 78.464844 130.898438 81.117188 128.378906 C 83.523438 126.097656 86.648438 124.878906 90.410156 124.761719 C 90.472656 124.757812 90.53125 124.785156 90.570312 124.832031 C 90.609375 124.878906 90.625 124.941406 90.613281 125.003906 L 87.984375 138.425781 C 87.96875 138.511719 87.898438 138.578125 87.808594 138.589844 L 76.308594 139.800781 C 76.304688 139.800781 76.296875 139.800781 76.289062 139.800781 " fill-opacity="1" fill-rule="nonzero"/><path fill="#ffffff" d="M 87.785156 138.589844 C 87.675781 138.589844 87.585938 138.5 87.585938 138.390625 L 87.476562 130.246094 C 87.472656 130.136719 87.5625 130.042969 87.675781 130.042969 C 87.785156 130.042969 87.878906 130.128906 87.878906 130.242188 L 87.988281 138.386719 C 87.992188 138.496094 87.902344 138.589844 87.789062 138.589844 C 87.789062 138.589844 87.789062 138.589844 87.785156 138.589844 " fill-opacity="1" fill-rule="nonzero"/><path fill="#ffbf23" d="M 105.316406 151.214844 L 129.425781 151.214844 C 129.554688 151.214844 129.65625 151.113281 129.65625 150.988281 L 129.65625 148.992188 C 129.65625 148.867188 129.554688 148.765625 129.425781 148.765625 L 105.316406 148.765625 C 105.1875 148.765625 105.085938 148.867188 105.085938 148.992188 L 105.085938 150.988281 C 105.085938 151.113281 105.1875 151.214844 105.316406 151.214844 " fill-opacity="1" fill-rule="nonzero"/><path fill="#ffffff" d="M 106.089844 150.898438 C 103.597656 148.519531 100.238281 148.105469 97.703125 150.855469 C 97.460938 151.117188 97.640625 151.542969 97.996094 151.542969 L 105.832031 151.542969 C 106.167969 151.542969 106.332031 151.132812 106.089844 150.898438 " fill-opacity="1" fill-rule="nonzero"/><path fill="#000000" d="M 101.714844 149.152344 C 101.664062 149.152344 101.613281 149.152344 101.5625 149.15625 C 100.203125 149.199219 98.917969 149.832031 97.851562 150.992188 C 97.761719 151.085938 97.800781 151.191406 97.8125 151.21875 C 97.828125 151.257812 97.878906 151.339844 97.996094 151.339844 L 105.832031 151.339844 C 105.9375 151.339844 105.980469 151.257812 105.992188 151.234375 C 106 151.207031 106.027344 151.121094 105.953125 151.046875 C 104.667969 149.820312 103.167969 149.152344 101.714844 149.152344 Z M 105.832031 151.746094 L 97.996094 151.746094 C 97.753906 151.746094 97.539062 151.605469 97.441406 151.382812 C 97.339844 151.15625 97.382812 150.898438 97.554688 150.714844 C 98.695312 149.476562 100.078125 148.796875 101.550781 148.75 C 103.164062 148.699219 104.824219 149.410156 106.230469 150.753906 C 106.402344 150.917969 106.453125 151.164062 106.367188 151.382812 C 106.277344 151.605469 106.070312 151.746094 105.832031 151.746094 " fill-opacity="1" fill-rule="nonzero"/><path fill="#ffffff" d="M 130.675781 146.605469 L 99.960938 146.671875 C 99.691406 146.671875 99.507812 146.476562 99.527344 146.214844 L 100.90625 127.480469 C 100.941406 127.023438 101.367188 126.59375 101.835938 126.59375 L 132.132812 126.621094 L 130.675781 146.605469 " fill-opacity="1" fill-rule="nonzero"/><path fill="#ffffff" d="M 101.835938 126.796875 C 101.488281 126.796875 101.132812 127.136719 101.109375 127.496094 L 99.726562 146.230469 C 99.722656 146.296875 99.742188 146.355469 99.78125 146.398438 C 99.824219 146.445312 99.886719 146.46875 99.960938 146.46875 L 130.488281 146.40625 L 131.914062 126.824219 Z M 130.675781 146.605469 Z M 99.960938 146.875 C 99.773438 146.875 99.605469 146.804688 99.484375 146.675781 C 99.367188 146.550781 99.3125 146.382812 99.324219 146.199219 L 100.703125 127.464844 C 100.746094 126.894531 101.273438 126.390625 101.835938 126.390625 L 132.132812 126.417969 C 132.1875 126.417969 132.242188 126.441406 132.28125 126.484375 C 132.320312 126.523438 132.339844 126.578125 132.332031 126.636719 L 130.878906 146.621094 C 130.871094 146.726562 130.78125 146.808594 130.675781 146.808594 L 99.960938 146.875 " fill-opacity="1" fill-rule="nonzero"/><path fill="#a6201e" d="M 131.308594 146.582031 L 101.222656 146.582031 C 100.953125 146.582031 100.769531 146.386719 100.789062 146.125 L 102.148438 127.558594 C 102.1875 127.042969 102.6875 126.585938 103.214844 126.585938 L 132.914062 126.585938 C 133.179688 126.585938 133.367188 126.78125 133.347656 127.042969 L 131.960938 145.988281 C 131.9375 146.304688 131.628906 146.582031 131.308594 146.582031 " fill-opacity="1" fill-rule="nonzero"/><path fill="#000000" d="M 103.214844 126.789062 C 102.792969 126.789062 102.378906 127.160156 102.351562 127.574219 L 100.988281 146.140625 C 100.984375 146.207031 101.003906 146.269531 101.042969 146.3125 C 101.085938 146.355469 101.148438 146.378906 101.222656 146.378906 L 131.308594 146.378906 C 131.523438 146.378906 131.742188 146.183594 131.757812 145.976562 L 133.144531 127.027344 C 133.152344 126.960938 133.132812 126.898438 133.09375 126.855469 C 133.050781 126.8125 132.988281 126.789062 132.914062 126.789062 Z M 131.308594 146.785156 L 101.222656 146.785156 C 101.035156 146.785156 100.863281 146.714844 100.746094 146.585938 C 100.628906 146.460938 100.570312 146.292969 100.585938 146.109375 L 101.945312 127.542969 C 101.992188 126.925781 102.585938 126.382812 103.214844 126.382812 L 132.914062 126.382812 C 133.101562 126.382812 133.269531 126.453125 133.390625 126.582031 C 133.507812 126.707031 133.5625 126.875 133.550781 127.058594 L 132.160156 146.003906 C 132.128906 146.429688 131.742188 146.785156 131.308594 146.785156 " fill-opacity="1" fill-rule="nonzero"/><path fill="#000000" d="M 112.972656 151.160156 L 117.574219 151.160156 L 118.722656 138.640625 C 118.738281 138.492188 118.636719 138.378906 118.488281 138.378906 L 114.660156 138.378906 C 114.367188 138.378906 114.121094 138.609375 114.09375 138.914062 L 112.972656 151.160156 " fill-opacity="1" fill-rule="nonzero"/><path fill="#a6201e" d="M 113.695312 151.160156 L 118.296875 151.160156 L 119.429688 138.636719 L 114.828125 138.636719 L 113.695312 151.160156 " fill-opacity="1" fill-rule="nonzero"/><path fill="#000000" d="M 113.914062 150.957031 L 118.113281 150.957031 L 119.210938 138.839844 L 115.011719 138.839844 Z M 118.296875 151.359375 L 113.695312 151.359375 C 113.636719 151.359375 113.582031 151.335938 113.542969 151.296875 C 113.507812 151.253906 113.488281 151.195312 113.492188 151.140625 L 114.625 138.621094 C 114.636719 138.515625 114.722656 138.433594 114.828125 138.433594 L 119.429688 138.433594 C 119.488281 138.433594 119.542969 138.460938 119.582031 138.5 C 119.617188 138.542969 119.636719 138.597656 119.632812 138.65625 L 118.5 151.175781 C 118.492188 151.28125 118.402344 151.359375 118.296875 151.359375 " fill-opacity="1" fill-rule="nonzero"/><path fill="#000000" d="M 121.582031 151.390625 L 108.980469 151.390625 C 108.886719 151.390625 108.8125 151.316406 108.8125 151.222656 L 108.8125 149.367188 C 108.8125 149.277344 108.886719 149.199219 108.980469 149.199219 L 121.582031 149.199219 C 121.675781 149.199219 121.75 149.277344 121.75 149.367188 L 121.75 151.222656 C 121.75 151.316406 121.675781 151.390625 121.582031 151.390625 " fill-opacity="1" fill-rule="nonzero"/><path fill="#a6201e" d="M 122.402344 151.199219 L 109.464844 151.199219 L 109.464844 149.394531 L 122.402344 149.394531 L 122.402344 151.199219 " fill-opacity="1" fill-rule="nonzero"/><path fill="#000000" d="M 109.667969 150.996094 L 122.199219 150.996094 L 122.199219 149.59375 L 109.667969 149.59375 Z M 122.402344 151.402344 L 109.464844 151.402344 C 109.351562 151.402344 109.261719 151.3125 109.261719 151.199219 L 109.261719 149.394531 C 109.261719 149.28125 109.351562 149.191406 109.464844 149.191406 L 122.402344 149.191406 C 122.511719 149.191406 122.601562 149.28125 122.601562 149.394531 L 122.601562 151.199219 C 122.601562 151.3125 122.511719 151.402344 122.402344 151.402344 " fill-opacity="1" fill-rule="nonzero"/><path fill="#ffbf23" d="M 64.539062 154.824219 L 140.859375 154.824219 C 141.078125 154.824219 141.253906 154.648438 141.253906 154.429688 L 141.253906 151.113281 C 141.253906 150.898438 141.078125 150.722656 140.859375 150.722656 L 64.539062 150.722656 C 64.320312 150.722656 64.144531 150.898438 64.144531 151.113281 L 64.144531 154.429688 C 64.144531 154.648438 64.320312 154.824219 64.539062 154.824219 " fill-opacity="1" fill-rule="nonzero"/><path fill="#000000" d="M 64.539062 150.921875 C 64.433594 150.921875 64.347656 151.007812 64.347656 151.113281 L 64.347656 154.429688 C 64.347656 154.535156 64.433594 154.621094 64.539062 154.621094 L 140.859375 154.621094 C 140.964844 154.621094 141.050781 154.535156 141.050781 154.429688 L 141.050781 151.113281 C 141.050781 151.007812 140.964844 150.921875 140.859375 150.921875 Z M 140.859375 155.027344 L 64.539062 155.027344 C 64.207031 155.027344 63.941406 154.757812 63.941406 154.429688 L 63.941406 151.113281 C 63.941406 150.785156 64.207031 150.519531 64.539062 150.519531 L 140.859375 150.519531 C 141.191406 150.519531 141.457031 150.785156 141.457031 151.113281 L 141.457031 154.429688 C 141.457031 154.757812 141.191406 155.027344 140.859375 155.027344 " fill-opacity="1" fill-rule="nonzero"/><path fill="#a6201e" d="M 89.679688 153.863281 C 89.570312 153.863281 89.480469 153.773438 89.480469 153.660156 L 89.480469 151.773438 C 89.480469 151.664062 89.570312 151.570312 89.679688 151.570312 C 89.792969 151.570312 89.882812 151.664062 89.882812 151.773438 L 89.882812 153.660156 C 89.882812 153.773438 89.792969 153.863281 89.679688 153.863281 " fill-opacity="1" fill-rule="nonzero"/><path fill="#000000" d="M 73.234375 164.363281 C 73.125 164.363281 73.035156 164.273438 73.035156 164.164062 L 72.910156 155.988281 C 72.910156 155.875 73 155.78125 73.109375 155.78125 C 73.226562 155.785156 73.316406 155.867188 73.316406 155.980469 L 73.4375 164.15625 C 73.441406 164.269531 73.351562 164.359375 73.238281 164.363281 C 73.238281 164.363281 73.238281 164.363281 73.234375 164.363281 " fill-opacity="1" fill-rule="nonzero"/><path fill="#000000" d="M 65.957031 164.363281 C 65.851562 164.363281 65.761719 164.28125 65.753906 164.175781 L 65.085938 154.964844 C 65.078125 154.855469 65.164062 154.757812 65.273438 154.75 C 65.386719 154.742188 65.480469 154.824219 65.492188 154.9375 L 66.160156 164.144531 C 66.167969 164.257812 66.082031 164.355469 65.972656 164.363281 C 65.96875 164.363281 65.960938 164.363281 65.957031 164.363281 " fill-opacity="1" fill-rule="nonzero"/><path fill="#000000" d="M 138.089844 164.75 C 138.082031 164.75 138.078125 164.75 138.070312 164.75 C 137.957031 164.738281 137.878906 164.636719 137.890625 164.527344 L 138.921875 154.816406 C 138.933594 154.707031 139.035156 154.625 139.144531 154.636719 C 139.257812 154.648438 139.335938 154.75 139.324219 154.859375 L 138.292969 164.570312 C 138.28125 164.671875 138.191406 164.75 138.089844 164.75 " fill-opacity="1" fill-rule="nonzero"/><path fill="#a6201e" d="M 161.785156 137.210938 C 161.785156 141.175781 158.574219 144.386719 154.609375 144.386719 C 150.644531 144.386719 147.433594 141.175781 147.433594 137.210938 C 147.433594 133.246094 150.644531 130.035156 154.609375 130.035156 C 158.574219 130.035156 161.785156 133.246094 161.785156 137.210938 " fill-opacity="1" fill-rule="nonzero"/><path fill="#000000" d="M 154.609375 130.234375 C 150.761719 130.234375 147.632812 133.367188 147.632812 137.210938 C 147.632812 141.054688 150.761719 144.183594 154.609375 144.183594 C 158.453125 144.183594 161.582031 141.054688 161.582031 137.210938 C 161.582031 133.367188 158.453125 130.234375 154.609375 130.234375 Z M 154.609375 144.589844 C 150.539062 144.589844 147.230469 141.28125 147.230469 137.210938 C 147.230469 133.140625 150.539062 129.832031 154.609375 129.832031 C 158.675781 129.832031 161.988281 133.140625 161.988281 137.210938 C 161.988281 141.28125 158.675781 144.589844 154.609375 144.589844 " fill-opacity="1" fill-rule="nonzero"/><path fill="#ffffff" d="M 150.027344 137.199219 L 152.46875 138.128906 L 152.46875 139.132812 L 149.003906 137.589844 L 149.003906 136.789062 L 152.46875 135.246094 L 152.46875 136.253906 L 150.027344 137.199219 " fill-opacity="1" fill-rule="nonzero"/><path fill="#ffffff" d="M 153.855469 140.332031 L 153.0625 140.332031 L 155.4375 133.78125 L 156.226562 133.78125 L 153.855469 140.332031 " fill-opacity="1" fill-rule="nonzero"/><path fill="#ffffff" d="M 159.5 137.179688 L 156.941406 136.238281 L 156.941406 135.246094 L 160.519531 136.789062 L 160.519531 137.589844 L 156.941406 139.128906 L 156.941406 138.140625 L 159.5 137.179688 " fill-opacity="1" fill-rule="nonzero"/><path fill="#000000" d="M 86.707031 67.324219 C 76.527344 67.324219 67.832031 74.582031 66.03125 84.585938 C 66.015625 84.671875 65.945312 84.742188 65.855469 84.75 C 61.726562 85.167969 58.613281 88.621094 58.613281 92.773438 L 58.613281 92.832031 C 58.632812 95.503906 60.832031 97.679688 63.523438 97.679688 L 108.882812 97.679688 C 112.15625 97.679688 114.886719 95.050781 114.96875 91.824219 C 114.972656 91.753906 114.972656 91.6875 114.972656 91.617188 C 114.972656 87.351562 111.632812 83.894531 107.371094 83.75 C 107.28125 83.746094 107.203125 83.679688 107.179688 83.589844 C 104.972656 74.011719 96.554688 67.324219 86.707031 67.324219 Z M 108.882812 98.085938 L 63.523438 98.085938 C 60.613281 98.085938 58.226562 95.730469 58.207031 92.832031 L 58.207031 92.773438 C 58.207031 88.460938 61.402344 84.871094 65.660156 84.363281 C 67.554688 74.246094 76.382812 66.917969 86.707031 66.917969 C 91.578125 66.917969 96.347656 68.597656 100.132812 71.648438 C 103.824219 74.621094 106.449219 78.769531 107.539062 83.351562 C 109.632812 83.460938 111.582031 84.347656 113.046875 85.859375 C 114.550781 87.410156 115.375 89.457031 115.375 91.617188 C 115.375 91.691406 115.375 91.761719 115.375 91.832031 C 115.285156 95.28125 112.375 98.085938 108.882812 98.085938 " fill-opacity="1" fill-rule="nonzero"/><path fill="#a6201e" d="M 119.777344 87.777344 C 119.777344 83.410156 116.308594 79.851562 111.980469 79.703125 C 109.808594 70.292969 101.378906 63.277344 91.308594 63.277344 C 80.886719 63.277344 72.21875 70.796875 70.433594 80.707031 C 66.265625 81.128906 63.011719 84.652344 63.011719 88.933594 C 63.011719 88.949219 63.011719 88.96875 63.011719 88.988281 C 63.03125 91.789062 65.324219 94.039062 68.125 94.039062 L 113.484375 94.039062 C 116.867188 94.039062 119.6875 91.367188 119.773438 87.984375 C 119.773438 87.914062 119.777344 87.847656 119.777344 87.777344 " fill-opacity="1" fill-rule="nonzero"/><path fill="#000000" d="M 91.308594 63.480469 C 81.128906 63.480469 72.433594 70.738281 70.632812 80.742188 C 70.617188 80.832031 70.542969 80.898438 70.457031 80.90625 C 66.328125 81.328125 63.214844 84.777344 63.214844 88.933594 L 63.214844 88.988281 C 63.234375 91.660156 65.433594 93.835938 68.125 93.835938 L 113.484375 93.835938 C 116.757812 93.835938 119.488281 91.210938 119.570312 87.980469 C 119.574219 87.914062 119.574219 87.84375 119.574219 87.777344 C 119.574219 83.507812 116.234375 80.050781 111.972656 79.90625 C 111.882812 79.902344 111.804688 79.839844 111.78125 79.75 C 109.574219 70.171875 101.15625 63.480469 91.308594 63.480469 Z M 113.484375 94.242188 L 68.125 94.242188 C 65.214844 94.242188 62.828125 91.886719 62.808594 88.992188 L 62.808594 88.933594 C 62.808594 84.621094 66.003906 81.03125 70.261719 80.519531 C 72.15625 70.402344 80.984375 63.074219 91.308594 63.074219 C 96.179688 63.074219 100.949219 64.753906 104.734375 67.804688 C 108.421875 70.777344 111.050781 74.929688 112.140625 79.507812 C 114.234375 79.617188 116.183594 80.503906 117.648438 82.015625 C 119.152344 83.570312 119.976562 85.613281 119.976562 87.777344 C 119.976562 87.847656 119.976562 87.917969 119.976562 87.992188 C 119.886719 91.4375 116.976562 94.242188 113.484375 94.242188 " fill-opacity="1" fill-rule="nonzero"/><path fill="#ffbf23" d="M 83.828125 73.496094 L 78.9375 73.496094 C 78.585938 73.496094 78.304688 73.78125 78.304688 74.128906 L 78.304688 88.558594 C 78.304688 88.90625 78.585938 89.191406 78.9375 89.191406 L 83.828125 89.191406 C 84.179688 89.191406 84.460938 88.90625 84.460938 88.558594 L 84.460938 74.128906 C 84.460938 73.78125 84.179688 73.496094 83.828125 73.496094 " fill-opacity="1" fill-rule="nonzero"/><path fill="#000000" d="M 78.9375 73.699219 C 78.699219 73.699219 78.503906 73.894531 78.503906 74.128906 L 78.503906 88.558594 C 78.503906 88.792969 78.699219 88.988281 78.9375 88.988281 L 83.828125 88.988281 C 84.066406 88.988281 84.261719 88.792969 84.261719 88.558594 L 84.261719 74.128906 C 84.261719 73.894531 84.066406 73.699219 83.828125 73.699219 Z M 83.828125 89.394531 L 78.9375 89.394531 C 78.476562 89.394531 78.101562 89.019531 78.101562 88.558594 L 78.101562 74.128906 C 78.101562 73.671875 78.476562 73.296875 78.9375 73.296875 L 83.828125 73.296875 C 84.289062 73.296875 84.664062 73.671875 84.664062 74.128906 L 84.664062 88.558594 C 84.664062 89.019531 84.289062 89.394531 83.828125 89.394531 " fill-opacity="1" fill-rule="nonzero"/><path fill="#14697d" d="M 80.054688 73.496094 L 77.886719 73.496094 C 77.535156 73.496094 77.25 73.78125 77.25 74.128906 L 77.25 88.558594 C 77.25 88.90625 77.535156 89.191406 77.886719 89.191406 L 80.054688 89.191406 C 80.402344 89.191406 80.6875 88.90625 80.6875 88.558594 L 80.6875 74.128906 C 80.6875 73.78125 80.402344 73.496094 80.054688 73.496094 " fill-opacity="1" fill-rule="nonzero"/><path fill="#000000" d="M 77.886719 73.699219 C 77.648438 73.699219 77.453125 73.894531 77.453125 74.128906 L 77.453125 88.558594 C 77.453125 88.792969 77.648438 88.988281 77.886719 88.988281 L 80.054688 88.988281 C 80.289062 88.988281 80.484375 88.792969 80.484375 88.558594 L 80.484375 74.128906 C 80.484375 73.894531 80.289062 73.699219 80.054688 73.699219 Z M 80.054688 89.394531 L 77.886719 89.394531 C 77.425781 89.394531 77.050781 89.019531 77.050781 88.558594 L 77.050781 74.128906 C 77.050781 73.671875 77.425781 73.296875 77.886719 73.296875 L 80.054688 73.296875 C 80.515625 73.296875 80.886719 73.671875 80.886719 74.128906 L 80.886719 88.558594 C 80.886719 89.019531 80.515625 89.394531 80.054688 89.394531 " fill-opacity="1" fill-rule="nonzero"/><path fill="#ffbf23" d="M 79.902344 86.328125 C 79.902344 86.847656 79.484375 87.265625 78.96875 87.265625 C 78.453125 87.265625 78.035156 86.847656 78.035156 86.328125 C 78.035156 85.8125 78.453125 85.394531 78.96875 85.394531 C 79.484375 85.394531 79.902344 85.8125 79.902344 86.328125 " fill-opacity="1" fill-rule="nonzero"/><path fill="#000000" d="M 78.96875 85.597656 C 78.566406 85.597656 78.234375 85.925781 78.234375 86.328125 C 78.234375 86.734375 78.566406 87.0625 78.96875 87.0625 C 79.375 87.0625 79.703125 86.734375 79.703125 86.328125 C 79.703125 85.925781 79.375 85.597656 78.96875 85.597656 Z M 78.96875 87.46875 C 78.34375 87.46875 77.832031 86.957031 77.832031 86.328125 C 77.832031 85.703125 78.34375 85.191406 78.96875 85.191406 C 79.597656 85.191406 80.105469 85.703125 80.105469 86.328125 C 80.105469 86.957031 79.597656 87.46875 78.96875 87.46875 " fill-opacity="1" fill-rule="nonzero"/><path fill="#ffbf23" d="M 88.089844 73.496094 L 83.195312 73.496094 C 82.847656 73.496094 82.5625 73.78125 82.5625 74.128906 L 82.5625 88.558594 C 82.5625 88.90625 82.847656 89.191406 83.195312 89.191406 L 88.089844 89.191406 C 88.441406 89.191406 88.722656 88.90625 88.722656 88.558594 L 88.722656 74.128906 C 88.722656 73.78125 88.441406 73.496094 88.089844 73.496094 " fill-opacity="1" fill-rule="nonzero"/><path fill="#000000" d="M 83.195312 73.699219 C 82.957031 73.699219 82.765625 73.894531 82.765625 74.128906 L 82.765625 88.558594 C 82.765625 88.792969 82.957031 88.988281 83.195312 88.988281 L 88.089844 88.988281 C 88.328125 88.988281 88.519531 88.792969 88.519531 88.558594 L 88.519531 74.128906 C 88.519531 73.894531 88.328125 73.699219 88.089844 73.699219 Z M 88.089844 89.394531 L 83.195312 89.394531 C 82.734375 89.394531 82.359375 89.019531 82.359375 88.558594 L 82.359375 74.128906 C 82.359375 73.671875 82.734375 73.296875 83.195312 73.296875 L 88.089844 73.296875 C 88.550781 73.296875 88.925781 73.671875 88.925781 74.128906 L 88.925781 88.558594 C 88.925781 89.019531 88.550781 89.394531 88.089844 89.394531 " fill-opacity="1" fill-rule="nonzero"/><path fill="#14697d" d="M 84.3125 73.496094 L 82.144531 73.496094 C 81.796875 73.496094 81.511719 73.78125 81.511719 74.128906 L 81.511719 88.558594 C 81.511719 88.90625 81.796875 89.191406 82.144531 89.191406 L 84.3125 89.191406 C 84.664062 89.191406 84.945312 88.90625 84.945312 88.558594 L 84.945312 74.128906 C 84.945312 73.78125 84.664062 73.496094 84.3125 73.496094 " fill-opacity="1" fill-rule="nonzero"/><path fill="#000000" d="M 82.144531 73.699219 C 81.90625 73.699219 81.714844 73.894531 81.714844 74.128906 L 81.714844 88.558594 C 81.714844 88.792969 81.90625 88.988281 82.144531 88.988281 L 84.3125 88.988281 C 84.550781 88.988281 84.742188 88.792969 84.742188 88.558594 L 84.742188 74.128906 C 84.742188 73.894531 84.550781 73.699219 84.3125 73.699219 Z M 84.3125 89.394531 L 82.144531 89.394531 C 81.683594 89.394531 81.308594 89.019531 81.308594 88.558594 L 81.308594 74.128906 C 81.308594 73.671875 81.683594 73.296875 82.144531 73.296875 L 84.3125 73.296875 C 84.773438 73.296875 85.148438 73.671875 85.148438 74.128906 L 85.148438 88.558594 C 85.148438 89.019531 84.773438 89.394531 84.3125 89.394531 " fill-opacity="1" fill-rule="nonzero"/><path fill="#ffbf23" d="M 84.164062 86.328125 C 84.164062 86.847656 83.746094 87.265625 83.230469 87.265625 C 82.710938 87.265625 82.292969 86.847656 82.292969 86.328125 C 82.292969 85.8125 82.710938 85.394531 83.230469 85.394531 C 83.746094 85.394531 84.164062 85.8125 84.164062 86.328125 " fill-opacity="1" fill-rule="nonzero"/><path fill="#000000" d="M 83.230469 85.597656 C 82.824219 85.597656 82.496094 85.925781 82.496094 86.328125 C 82.496094 86.734375 82.824219 87.0625 83.230469 87.0625 C 83.632812 87.0625 83.960938 86.734375 83.960938 86.328125 C 83.960938 85.925781 83.632812 85.597656 83.230469 85.597656 Z M 83.230469 87.46875 C 82.601562 87.46875 82.089844 86.957031 82.089844 86.328125 C 82.089844 85.703125 82.601562 85.191406 83.230469 85.191406 C 83.855469 85.191406 84.367188 85.703125 84.367188 86.328125 C 84.367188 86.957031 83.855469 87.46875 83.230469 87.46875 " fill-opacity="1" fill-rule="nonzero"/><path fill="#ffbf23" d="M 92.589844 73.496094 L 87.695312 73.496094 C 87.34375 73.496094 87.0625 73.78125 87.0625 74.128906 L 87.0625 88.558594 C 87.0625 88.90625 87.34375 89.191406 87.695312 89.191406 L 92.589844 89.191406 C 92.9375 89.191406 93.222656 88.90625 93.222656 88.558594 L 93.222656 74.128906 C 93.222656 73.78125 92.9375 73.496094 92.589844 73.496094 " fill-opacity="1" fill-rule="nonzero"/><path fill="#000000" d="M 87.695312 73.699219 C 87.457031 73.699219 87.265625 73.894531 87.265625 74.128906 L 87.265625 88.558594 C 87.265625 88.792969 87.457031 88.988281 87.695312 88.988281 L 92.589844 88.988281 C 92.824219 88.988281 93.019531 88.792969 93.019531 88.558594 L 93.019531 74.128906 C 93.019531 73.894531 92.824219 73.699219 92.589844 73.699219 Z M 92.589844 89.394531 L 87.695312 89.394531 C 87.234375 89.394531 86.859375 89.019531 86.859375 88.558594 L 86.859375 74.128906 C 86.859375 73.671875 87.234375 73.296875 87.695312 73.296875 L 92.589844 73.296875 C 93.050781 73.296875 93.425781 73.671875 93.425781 74.128906 L 93.425781 88.558594 C 93.425781 89.019531 93.050781 89.394531 92.589844 89.394531 " fill-opacity="1" fill-rule="nonzero"/><path fill="#14697d" d="M 88.8125 73.496094 L 86.644531 73.496094 C 86.292969 73.496094 86.011719 73.78125 86.011719 74.128906 L 86.011719 88.558594 C 86.011719 88.90625 86.292969 89.191406 86.644531 89.191406 L 88.8125 89.191406 C 89.160156 89.191406 89.445312 88.90625 89.445312 88.558594 L 89.445312 74.128906 C 89.445312 73.78125 89.160156 73.496094 88.8125 73.496094 " fill-opacity="1" fill-rule="nonzero"/><path fill="#000000" d="M 86.644531 73.699219 C 86.40625 73.699219 86.214844 73.894531 86.214844 74.128906 L 86.214844 88.558594 C 86.214844 88.792969 86.40625 88.988281 86.644531 88.988281 L 88.8125 88.988281 C 89.050781 88.988281 89.242188 88.792969 89.242188 88.558594 L 89.242188 74.128906 C 89.242188 73.894531 89.050781 73.699219 88.8125 73.699219 Z M 88.8125 89.394531 L 86.644531 89.394531 C 86.183594 89.394531 85.808594 89.019531 85.808594 88.558594 L 85.808594 74.128906 C 85.808594 73.671875 86.183594 73.296875 86.644531 73.296875 L 88.8125 73.296875 C 89.273438 73.296875 89.648438 73.671875 89.648438 74.128906 L 89.648438 88.558594 C 89.648438 89.019531 89.273438 89.394531 88.8125 89.394531 " fill-opacity="1" fill-rule="nonzero"/><path fill="#ffbf23" d="M 88.664062 86.328125 C 88.664062 86.847656 88.246094 87.265625 87.726562 87.265625 C 87.210938 87.265625 86.792969 86.847656 86.792969 86.328125 C 86.792969 85.8125 87.210938 85.394531 87.726562 85.394531 C 88.246094 85.394531 88.664062 85.8125 88.664062 86.328125 " fill-opacity="1" fill-rule="nonzero"/><path fill="#000000" d="M 87.726562 85.597656 C 87.324219 85.597656 86.996094 85.925781 86.996094 86.328125 C 86.996094 86.734375 87.324219 87.0625 87.726562 87.0625 C 88.132812 87.0625 88.460938 86.734375 88.460938 86.328125 C 88.460938 85.925781 88.132812 85.597656 87.726562 85.597656 Z M 87.726562 87.46875 C 87.101562 87.46875 86.589844 86.957031 86.589844 86.328125 C 86.589844 85.703125 87.101562 85.191406 87.726562 85.191406 C 88.355469 85.191406 88.867188 85.703125 88.867188 86.328125 C 88.867188 86.957031 88.355469 87.46875 87.726562 87.46875 " fill-opacity="1" fill-rule="nonzero"/><path fill="#ffbf23" d="M 99.191406 71.945312 L 90.402344 71.945312 C 90.050781 71.945312 89.769531 72.230469 89.769531 72.578125 L 89.769531 87.003906 C 89.769531 87.355469 90.050781 87.636719 90.402344 87.636719 L 99.191406 87.636719 C 99.539062 87.636719 99.824219 87.355469 99.824219 87.003906 L 99.824219 72.578125 C 99.824219 72.230469 99.539062 71.945312 99.191406 71.945312 " fill-opacity="1" fill-rule="nonzero"/><path fill="#000000" d="M 90.402344 72.148438 C 90.164062 72.148438 89.96875 72.339844 89.96875 72.578125 L 89.96875 87.003906 C 89.96875 87.242188 90.164062 87.4375 90.402344 87.4375 L 99.191406 87.4375 C 99.425781 87.4375 99.621094 87.242188 99.621094 87.003906 L 99.621094 72.578125 C 99.621094 72.339844 99.425781 72.148438 99.191406 72.148438 Z M 99.191406 87.839844 L 90.402344 87.839844 C 89.941406 87.839844 89.566406 87.464844 89.566406 87.003906 L 89.566406 72.578125 C 89.566406 72.117188 89.941406 71.742188 90.402344 71.742188 L 99.191406 71.742188 C 99.652344 71.742188 100.027344 72.117188 100.027344 72.578125 L 100.027344 87.003906 C 100.027344 87.464844 99.652344 87.839844 99.191406 87.839844 " fill-opacity="1" fill-rule="nonzero"/><path fill="#14697d" d="M 91.519531 71.945312 L 89.351562 71.945312 C 89 71.945312 88.714844 72.230469 88.714844 72.578125 L 88.714844 87.003906 C 88.714844 87.355469 89 87.636719 89.351562 87.636719 L 91.519531 87.636719 C 91.867188 87.636719 92.152344 87.355469 92.152344 87.003906 L 92.152344 72.578125 C 92.152344 72.230469 91.867188 71.945312 91.519531 71.945312 " fill-opacity="1" fill-rule="nonzero"/><path fill="#000000" d="M 89.351562 72.148438 C 89.113281 72.148438 88.917969 72.339844 88.917969 72.578125 L 88.917969 87.003906 C 88.917969 87.242188 89.113281 87.4375 89.351562 87.4375 L 91.519531 87.4375 C 91.753906 87.4375 91.949219 87.242188 91.949219 87.003906 L 91.949219 72.578125 C 91.949219 72.339844 91.753906 72.148438 91.519531 72.148438 Z M 91.519531 87.839844 L 89.351562 87.839844 C 88.890625 87.839844 88.515625 87.464844 88.515625 87.003906 L 88.515625 72.578125 C 88.515625 72.117188 88.890625 71.742188 89.351562 71.742188 L 91.519531 71.742188 C 91.980469 71.742188 92.351562 72.117188 92.351562 72.578125 L 92.351562 87.003906 C 92.351562 87.464844 91.980469 87.839844 91.519531 87.839844 " fill-opacity="1" fill-rule="nonzero"/><path fill="#ffbf23" d="M 91.367188 84.777344 C 91.367188 85.292969 90.949219 85.710938 90.433594 85.710938 C 89.917969 85.710938 89.5 85.292969 89.5 84.777344 C 89.5 84.261719 89.917969 83.84375 90.433594 83.84375 C 90.949219 83.84375 91.367188 84.261719 91.367188 84.777344 " fill-opacity="1" fill-rule="nonzero"/><path fill="#000000" d="M 90.433594 84.042969 C 90.03125 84.042969 89.699219 84.375 89.699219 84.777344 C 89.699219 85.179688 90.03125 85.511719 90.433594 85.511719 C 90.835938 85.511719 91.167969 85.179688 91.167969 84.777344 C 91.167969 84.375 90.835938 84.042969 90.433594 84.042969 Z M 90.433594 85.914062 C 89.804688 85.914062 89.296875 85.40625 89.296875 84.777344 C 89.296875 84.148438 89.804688 83.640625 90.433594 83.640625 C 91.0625 83.640625 91.570312 84.148438 91.570312 84.777344 C 91.570312 85.40625 91.0625 85.914062 90.433594 85.914062 " fill-opacity="1" fill-rule="nonzero"/><path fill="#ffbf23" d="M 101.585938 73.496094 L 96.691406 73.496094 C 96.34375 73.496094 96.058594 73.78125 96.058594 74.128906 L 96.058594 88.558594 C 96.058594 88.90625 96.34375 89.191406 96.691406 89.191406 L 101.585938 89.191406 C 101.933594 89.191406 102.21875 88.90625 102.21875 88.558594 L 102.21875 74.128906 C 102.21875 73.78125 101.933594 73.496094 101.585938 73.496094 " fill-opacity="1" fill-rule="nonzero"/><path fill="#000000" d="M 96.691406 73.699219 C 96.453125 73.699219 96.261719 73.894531 96.261719 74.128906 L 96.261719 88.558594 C 96.261719 88.792969 96.453125 88.988281 96.691406 88.988281 L 101.585938 88.988281 C 101.824219 88.988281 102.015625 88.792969 102.015625 88.558594 L 102.015625 74.128906 C 102.015625 73.894531 101.824219 73.699219 101.585938 73.699219 Z M 101.585938 89.394531 L 96.691406 89.394531 C 96.230469 89.394531 95.855469 89.019531 95.855469 88.558594 L 95.855469 74.128906 C 95.855469 73.671875 96.230469 73.296875 96.691406 73.296875 L 101.585938 73.296875 C 102.046875 73.296875 102.421875 73.671875 102.421875 74.128906 L 102.421875 88.558594 C 102.421875 89.019531 102.046875 89.394531 101.585938 89.394531 " fill-opacity="1" fill-rule="nonzero"/><path fill="#14697d" d="M 97.808594 73.496094 L 95.640625 73.496094 C 95.292969 73.496094 95.007812 73.78125 95.007812 74.128906 L 95.007812 88.558594 C 95.007812 88.90625 95.292969 89.191406 95.640625 89.191406 L 97.808594 89.191406 C 98.160156 89.191406 98.441406 88.90625 98.441406 88.558594 L 98.441406 74.128906 C 98.441406 73.78125 98.160156 73.496094 97.808594 73.496094 " fill-opacity="1" fill-rule="nonzero"/><path fill="#000000" d="M 95.640625 73.699219 C 95.402344 73.699219 95.210938 73.894531 95.210938 74.128906 L 95.210938 88.558594 C 95.210938 88.792969 95.402344 88.988281 95.640625 88.988281 L 97.808594 88.988281 C 98.046875 88.988281 98.238281 88.792969 98.238281 88.558594 L 98.238281 74.128906 C 98.238281 73.894531 98.046875 73.699219 97.808594 73.699219 Z M 97.808594 89.394531 L 95.640625 89.394531 C 95.179688 89.394531 94.804688 89.019531 94.804688 88.558594 L 94.804688 74.128906 C 94.804688 73.671875 95.179688 73.296875 95.640625 73.296875 L 97.808594 73.296875 C 98.269531 73.296875 98.644531 73.671875 98.644531 74.128906 L 98.644531 88.558594 C 98.644531 89.019531 98.269531 89.394531 97.808594 89.394531 " fill-opacity="1" fill-rule="nonzero"/><path fill="#ffbf23" d="M 97.660156 86.328125 C 97.660156 86.847656 97.242188 87.265625 96.726562 87.265625 C 96.207031 87.265625 95.789062 86.847656 95.789062 86.328125 C 95.789062 85.8125 96.207031 85.394531 96.726562 85.394531 C 97.242188 85.394531 97.660156 85.8125 97.660156 86.328125 " fill-opacity="1" fill-rule="nonzero"/><path fill="#000000" d="M 96.726562 85.597656 C 96.320312 85.597656 95.992188 85.925781 95.992188 86.328125 C 95.992188 86.734375 96.320312 87.0625 96.726562 87.0625 C 97.128906 87.0625 97.457031 86.734375 97.457031 86.328125 C 97.457031 85.925781 97.128906 85.597656 96.726562 85.597656 Z M 96.726562 87.46875 C 96.097656 87.46875 95.585938 86.957031 95.585938 86.328125 C 95.585938 85.703125 96.097656 85.191406 96.726562 85.191406 C 97.351562 85.191406 97.863281 85.703125 97.863281 86.328125 C 97.863281 86.957031 97.351562 87.46875 96.726562 87.46875 " fill-opacity="1" fill-rule="nonzero"/><path fill="#ffbf23" d="M 106.085938 73.496094 L 101.191406 73.496094 C 100.839844 73.496094 100.558594 73.78125 100.558594 74.128906 L 100.558594 88.558594 C 100.558594 88.90625 100.839844 89.191406 101.191406 89.191406 L 106.085938 89.191406 C 106.433594 89.191406 106.71875 88.90625 106.71875 88.558594 L 106.71875 74.128906 C 106.71875 73.78125 106.433594 73.496094 106.085938 73.496094 " fill-opacity="1" fill-rule="nonzero"/><path fill="#000000" d="M 101.191406 73.699219 C 100.953125 73.699219 100.761719 73.894531 100.761719 74.128906 L 100.761719 88.558594 C 100.761719 88.792969 100.953125 88.988281 101.191406 88.988281 L 106.085938 88.988281 C 106.320312 88.988281 106.515625 88.792969 106.515625 88.558594 L 106.515625 74.128906 C 106.515625 73.894531 106.320312 73.699219 106.085938 73.699219 Z M 106.085938 89.394531 L 101.191406 89.394531 C 100.730469 89.394531 100.355469 89.019531 100.355469 88.558594 L 100.355469 74.128906 C 100.355469 73.671875 100.730469 73.296875 101.191406 73.296875 L 106.085938 73.296875 C 106.546875 73.296875 106.921875 73.671875 106.921875 74.128906 L 106.921875 88.558594 C 106.921875 89.019531 106.546875 89.394531 106.085938 89.394531 " fill-opacity="1" fill-rule="nonzero"/><path fill="#14697d" d="M 102.308594 73.496094 L 100.140625 73.496094 C 99.789062 73.496094 99.507812 73.78125 99.507812 74.128906 L 99.507812 88.558594 C 99.507812 88.90625 99.789062 89.191406 100.140625 89.191406 L 102.308594 89.191406 C 102.65625 89.191406 102.941406 88.90625 102.941406 88.558594 L 102.941406 74.128906 C 102.941406 73.78125 102.65625 73.496094 102.308594 73.496094 " fill-opacity="1" fill-rule="nonzero"/><path fill="#000000" d="M 100.140625 73.699219 C 99.902344 73.699219 99.710938 73.894531 99.710938 74.128906 L 99.710938 88.558594 C 99.710938 88.792969 99.902344 88.988281 100.140625 88.988281 L 102.308594 88.988281 C 102.546875 88.988281 102.738281 88.792969 102.738281 88.558594 L 102.738281 74.128906 C 102.738281 73.894531 102.546875 73.699219 102.308594 73.699219 Z M 102.308594 89.394531 L 100.140625 89.394531 C 99.679688 89.394531 99.304688 89.019531 99.304688 88.558594 L 99.304688 74.128906 C 99.304688 73.671875 99.679688 73.296875 100.140625 73.296875 L 102.308594 73.296875 C 102.769531 73.296875 103.144531 73.671875 103.144531 74.128906 L 103.144531 88.558594 C 103.144531 89.019531 102.769531 89.394531 102.308594 89.394531 " fill-opacity="1" fill-rule="nonzero"/><path fill="#ffbf23" d="M 102.160156 86.328125 C 102.160156 86.847656 101.738281 87.265625 101.222656 87.265625 C 100.707031 87.265625 100.289062 86.847656 100.289062 86.328125 C 100.289062 85.8125 100.707031 85.394531 101.222656 85.394531 C 101.738281 85.394531 102.160156 85.8125 102.160156 86.328125 " fill-opacity="1" fill-rule="nonzero"/><path fill="#000000" d="M 101.222656 85.597656 C 100.820312 85.597656 100.492188 85.925781 100.492188 86.328125 C 100.492188 86.734375 100.820312 87.0625 101.222656 87.0625 C 101.628906 87.0625 101.957031 86.734375 101.957031 86.328125 C 101.957031 85.925781 101.628906 85.597656 101.222656 85.597656 Z M 101.222656 87.46875 C 100.597656 87.46875 100.085938 86.957031 100.085938 86.328125 C 100.085938 85.703125 100.597656 85.191406 101.222656 85.191406 C 101.851562 85.191406 102.359375 85.703125 102.359375 86.328125 C 102.359375 86.957031 101.851562 87.46875 101.222656 87.46875 " fill-opacity="1" fill-rule="nonzero"/><path fill="#ffffff" d="M 96.457031 112.96875 C 96.175781 112.96875 95.949219 113.199219 95.949219 113.476562 C 95.949219 113.757812 96.175781 113.984375 96.457031 113.984375 C 96.738281 113.984375 96.964844 113.757812 96.964844 113.476562 C 96.964844 113.199219 96.738281 112.96875 96.457031 112.96875 Z M 96.457031 114.390625 C 95.953125 114.390625 95.542969 113.980469 95.542969 113.476562 C 95.542969 112.972656 95.953125 112.566406 96.457031 112.566406 C 96.960938 112.566406 97.371094 112.972656 97.371094 113.476562 C 97.371094 113.980469 96.960938 114.390625 96.457031 114.390625 " fill-opacity="1" fill-rule="nonzero"/><path fill="#ffffff" d="M 93.65625 109.753906 C 93.117188 109.753906 92.675781 110.191406 92.675781 110.730469 C 92.675781 111.269531 93.117188 111.710938 93.65625 111.710938 C 94.191406 111.710938 94.632812 111.269531 94.632812 110.730469 C 94.632812 110.191406 94.191406 109.753906 93.65625 109.753906 Z M 93.65625 112.113281 C 92.894531 112.113281 92.273438 111.492188 92.273438 110.730469 C 92.273438 109.96875 92.894531 109.351562 93.65625 109.351562 C 94.417969 109.351562 95.035156 109.96875 95.035156 110.730469 C 95.035156 111.492188 94.417969 112.113281 93.65625 112.113281 " fill-opacity="1" fill-rule="nonzero"/><path fill="#ffffff" d="M 93.019531 106.445312 L 95.070312 107.453125 L 94.914062 105.171875 Z M 95.296875 107.988281 C 95.265625 107.988281 95.234375 107.984375 95.207031 107.96875 L 92.523438 106.65625 C 92.460938 106.625 92.417969 106.5625 92.410156 106.488281 C 92.40625 106.417969 92.441406 106.347656 92.5 106.308594 L 94.980469 104.640625 C 95.039062 104.601562 95.117188 104.59375 95.179688 104.625 C 95.246094 104.65625 95.289062 104.722656 95.292969 104.792969 L 95.5 107.773438 C 95.503906 107.84375 95.46875 107.914062 95.410156 107.957031 C 95.375 107.976562 95.335938 107.988281 95.296875 107.988281 " fill-opacity="1" fill-rule="nonzero"/><path fill="#ffffff" d="M 105.957031 59.566406 C 105.90625 59.566406 105.855469 59.546875 105.816406 59.507812 C 101.933594 55.714844 96.285156 55.660156 92.230469 56.285156 C 87.8125 56.964844 84.285156 58.566406 84.25 58.582031 C 84.148438 58.628906 84.027344 58.585938 83.980469 58.484375 C 83.933594 58.382812 83.976562 58.261719 84.078125 58.214844 C 84.117188 58.199219 87.699219 56.570312 92.167969 55.882812 C 98.113281 54.96875 102.929688 56.125 106.097656 59.21875 C 106.179688 59.296875 106.179688 59.425781 106.101562 59.503906 C 106.0625 59.546875 106.011719 59.566406 105.957031 59.566406 " fill-opacity="1" fill-rule="nonzero"/><path fill="#ffffff" d="M 63.566406 127.285156 C 63.492188 127.285156 63.421875 127.246094 63.386719 127.175781 C 58.769531 118.417969 58.214844 105.285156 58.207031 105.15625 C 58.203125 105.042969 58.292969 104.949219 58.402344 104.945312 C 58.515625 104.941406 58.609375 105.027344 58.613281 105.140625 C 58.617188 105.269531 59.171875 118.308594 63.746094 126.988281 C 63.796875 127.085938 63.757812 127.210938 63.660156 127.261719 C 63.628906 127.277344 63.597656 127.285156 63.566406 127.285156 " fill-opacity="1" fill-rule="nonzero"/></svg>