<svg xmlns="http://www.w3.org/2000/svg" xmlns:xlink="http://www.w3.org/1999/xlink" width="300" zoomAndPan="magnify" viewBox="0 0 224.87999 225" height="300" preserveAspectRatio="xMidYMid meet" version="1.0"><path fill="#14697d" d="M 101.898438 52.105469 C 99.289062 52.917969 87.710938 56.699219 76.144531 66.734375 C 73.34375 69.164062 62.023438 78.988281 57.183594 92.195312 C 48.949219 114.679688 58.804688 148.878906 87.183594 162.625 C 120.238281 178.636719 161.996094 158.929688 171.519531 132.558594 C 175.742188 120.859375 175.933594 101.464844 165.292969 88.675781 C 156.730469 78.382812 142.085938 73.492188 142.652344 63.753906 C 142.925781 59.0625 146.464844 57.769531 145.484375 54.816406 C 143.15625 47.808594 120.34375 46.355469 101.898438 52.105469 " fill-opacity="1" fill-rule="nonzero"/><path fill="#000000" d="M 108.8125 166.230469 C 108.804688 166.230469 108.796875 166.230469 108.789062 166.230469 C 107.929688 166.136719 107.058594 166.023438 106.199219 165.894531 C 106.078125 165.875 105.996094 165.765625 106.015625 165.644531 C 106.03125 165.527344 106.144531 165.445312 106.265625 165.460938 C 107.117188 165.589844 107.980469 165.703125 108.835938 165.796875 C 108.957031 165.808594 109.042969 165.917969 109.03125 166.035156 C 109.015625 166.148438 108.921875 166.230469 108.8125 166.230469 " fill-opacity="1" fill-rule="nonzero"/><path fill="#000000" d="M 115.320312 166.585938 C 113.160156 166.585938 110.976562 166.464844 108.789062 166.230469 C 108.667969 166.214844 108.582031 166.109375 108.597656 165.988281 C 108.609375 165.871094 108.714844 165.785156 108.835938 165.796875 C 120.738281 167.089844 132.542969 164.746094 142.066406 159.199219 C 142.171875 159.140625 142.304688 159.175781 142.363281 159.277344 C 142.421875 159.378906 142.390625 159.511719 142.285156 159.574219 C 137.457031 162.386719 132.109375 164.382812 126.382812 165.515625 C 122.777344 166.226562 119.074219 166.585938 115.320312 166.585938 " fill-opacity="1" fill-rule="nonzero"/><path fill="#000000" d="M 116.375 163.167969 C 115.65625 163.167969 114.933594 163.152344 114.210938 163.125 C 114.09375 163.121094 114 163.019531 114.003906 162.898438 C 114.007812 162.78125 114.109375 162.6875 114.230469 162.691406 C 122.875 163.03125 131.277344 161.3125 138.523438 157.71875 C 138.632812 157.667969 138.761719 157.710938 138.816406 157.816406 C 138.867188 157.925781 138.824219 158.054688 138.71875 158.109375 C 132.011719 161.433594 124.328125 163.167969 116.375 163.167969 " fill-opacity="1" fill-rule="nonzero"/><path fill="#000000" d="M 110.46875 162.1875 C 110.414062 162.1875 110.359375 162.191406 110.300781 162.203125 C 110.105469 162.25 109.933594 162.367188 109.824219 162.539062 C 109.714844 162.710938 109.679688 162.914062 109.722656 163.113281 C 109.8125 163.523438 110.222656 163.785156 110.632812 163.691406 C 111.042969 163.601562 111.304688 163.195312 111.210938 162.785156 C 111.132812 162.429688 110.816406 162.1875 110.46875 162.1875 Z M 110.679688 163.90625 Z M 110.46875 164.144531 C 109.917969 164.144531 109.425781 163.761719 109.300781 163.207031 C 109.230469 162.894531 109.289062 162.574219 109.460938 162.304688 C 109.632812 162.035156 109.898438 161.851562 110.210938 161.78125 C 110.851562 161.640625 111.492188 162.046875 111.636719 162.691406 C 111.703125 163.003906 111.648438 163.324219 111.476562 163.589844 C 111.304688 163.859375 111.039062 164.046875 110.726562 164.117188 C 110.640625 164.136719 110.554688 164.144531 110.46875 164.144531 " fill-opacity="1" fill-rule="nonzero"/><path fill="#a6201e" d="M 71.0625 77.03125 C 67.109375 78.113281 63.03125 75.789062 61.953125 71.84375 C 60.871094 67.898438 63.195312 63.824219 67.144531 62.742188 C 71.09375 61.664062 75.171875 63.988281 76.253906 67.929688 C 77.335938 71.878906 75.011719 75.953125 71.0625 77.03125 Z M 83.851562 67.34375 L 83.09375 64.570312 L 79.949219 64.710938 C 79.660156 64.101562 79.320312 63.519531 78.941406 62.980469 L 80.605469 60.316406 L 78.554688 58.292969 L 75.90625 59.988281 C 75.355469 59.609375 74.773438 59.277344 74.164062 58.996094 L 74.273438 55.855469 L 71.488281 55.125 L 70.042969 57.910156 C 69.378906 57.859375 68.710938 57.867188 68.035156 57.925781 L 66.558594 55.152344 L 63.777344 55.910156 L 63.921875 59.050781 C 63.308594 59.34375 62.730469 59.679688 62.1875 60.058594 L 59.523438 58.398438 L 57.496094 60.441406 L 59.191406 63.089844 C 58.8125 63.644531 58.480469 64.226562 58.199219 64.832031 L 55.054688 64.722656 L 54.324219 67.503906 L 57.113281 68.949219 C 57.0625 69.609375 57.066406 70.28125 57.128906 70.957031 L 54.351562 72.429688 L 55.113281 75.207031 L 58.253906 75.0625 C 58.546875 75.675781 58.882812 76.253906 59.265625 76.796875 L 57.601562 79.460938 L 59.648438 81.484375 L 62.300781 79.789062 C 62.851562 80.167969 63.433594 80.5 64.039062 80.78125 L 63.933594 83.921875 L 66.71875 84.652344 L 68.164062 81.867188 C 68.824219 81.917969 69.496094 81.910156 70.171875 81.851562 L 71.648438 84.625 L 74.425781 83.863281 L 74.285156 80.726562 C 74.894531 80.433594 75.476562 80.097656 76.015625 79.714844 L 78.683594 81.378906 L 80.707031 79.332031 L 79.011719 76.683594 C 79.390625 76.132812 79.722656 75.550781 80.003906 74.945312 L 83.148438 75.054688 L 83.878906 72.269531 L 81.089844 70.824219 C 81.140625 70.164062 81.136719 69.496094 81.078125 68.820312 L 83.851562 67.34375 " fill-opacity="1" fill-rule="nonzero"/><path fill="#a6201e" d="M 94.539062 65.066406 C 91.554688 65.261719 88.980469 63.007812 88.789062 60.027344 C 88.59375 57.050781 90.855469 54.476562 93.835938 54.28125 C 96.816406 54.085938 99.390625 56.339844 99.585938 59.320312 C 99.78125 62.296875 97.519531 64.871094 94.539062 65.066406 Z M 105.105469 60.007812 L 104.96875 57.914062 L 102.699219 57.558594 C 102.582031 57.078125 102.425781 56.613281 102.234375 56.171875 L 103.8125 54.511719 L 102.644531 52.765625 L 100.503906 53.589844 C 100.164062 53.238281 99.796875 52.914062 99.40625 52.625 L 99.941406 50.394531 L 98.058594 49.464844 L 96.617188 51.246094 C 96.152344 51.113281 95.671875 51.019531 95.179688 50.964844 L 94.53125 48.765625 L 92.433594 48.902344 L 92.074219 51.167969 C 91.59375 51.289062 91.128906 51.445312 90.6875 51.636719 L 89.023438 50.058594 L 87.277344 51.226562 L 88.101562 53.367188 C 87.75 53.707031 87.425781 54.074219 87.136719 54.464844 L 84.902344 53.929688 L 83.972656 55.8125 L 85.753906 57.253906 C 85.621094 57.71875 85.527344 58.199219 85.472656 58.6875 L 83.269531 59.335938 L 83.40625 61.433594 L 85.671875 61.789062 C 85.792969 62.269531 85.949219 62.734375 86.140625 63.175781 L 84.558594 64.835938 L 85.726562 66.582031 L 87.871094 65.757812 C 88.210938 66.109375 88.578125 66.429688 88.96875 66.722656 L 88.429688 68.953125 L 90.316406 69.878906 L 91.757812 68.097656 C 92.222656 68.234375 92.703125 68.328125 93.195312 68.382812 L 93.84375 70.582031 L 95.941406 70.441406 L 96.300781 68.179688 C 96.78125 68.058594 97.242188 67.902344 97.6875 67.710938 L 99.347656 69.285156 L 101.097656 68.121094 L 100.273438 65.980469 C 100.625 65.640625 100.949219 65.273438 101.238281 64.878906 L 103.46875 65.417969 L 104.402344 63.535156 L 102.617188 62.09375 C 102.753906 61.628906 102.847656 61.148438 102.902344 60.660156 L 105.105469 60.007812 " fill-opacity="1" fill-rule="nonzero"/><path fill="#000000" d="M 111.414062 53.023438 C 111.359375 53.023438 111.304688 53.003906 111.261719 52.960938 C 111.175781 52.878906 111.175781 52.742188 111.257812 52.65625 L 111.789062 52.101562 C 111.871094 52.015625 112.007812 52.011719 112.09375 52.09375 C 112.179688 52.179688 112.183594 52.316406 112.101562 52.402344 L 111.570312 52.957031 C 111.527344 53 111.46875 53.023438 111.414062 53.023438 " fill-opacity="1" fill-rule="nonzero"/><path fill="#000000" d="M 109.554688 54.960938 C 109.5 54.960938 109.445312 54.9375 109.40625 54.898438 C 109.316406 54.816406 109.316406 54.679688 109.398438 54.59375 L 109.929688 54.039062 C 110.011719 53.953125 110.148438 53.949219 110.234375 54.035156 C 110.320312 54.117188 110.324219 54.253906 110.242188 54.339844 L 109.710938 54.894531 C 109.667969 54.9375 109.613281 54.960938 109.554688 54.960938 " fill-opacity="1" fill-rule="nonzero"/><path fill="#000000" d="M 110.074219 53.050781 C 110.019531 53.050781 109.964844 53.03125 109.921875 52.988281 L 109.382812 52.460938 C 109.296875 52.375 109.296875 52.238281 109.382812 52.152344 C 109.464844 52.066406 109.601562 52.066406 109.6875 52.152344 L 110.226562 52.679688 C 110.3125 52.765625 110.3125 52.902344 110.230469 52.988281 C 110.1875 53.03125 110.132812 53.050781 110.074219 53.050781 " fill-opacity="1" fill-rule="nonzero"/><path fill="#000000" d="M 111.964844 54.90625 C 111.90625 54.90625 111.851562 54.886719 111.8125 54.84375 L 111.273438 54.316406 C 111.1875 54.230469 111.183594 54.09375 111.269531 54.007812 C 111.351562 53.921875 111.492188 53.921875 111.574219 54.003906 L 112.113281 54.535156 C 112.199219 54.621094 112.199219 54.757812 112.117188 54.84375 C 112.074219 54.882812 112.019531 54.90625 111.964844 54.90625 " fill-opacity="1" fill-rule="nonzero"/><path fill="#ffffff" d="M 117.21875 101.0625 L 112.328125 101.492188 L 111.332031 90.15625 L 116.222656 89.726562 C 116.734375 89.683594 117.183594 90.058594 117.226562 90.570312 L 118.0625 100.058594 C 118.109375 100.570312 117.730469 101.019531 117.21875 101.0625 " fill-opacity="1" fill-rule="nonzero"/><path fill="#000000" d="M 111.566406 90.355469 L 112.523438 101.257812 L 116.085938 100.945312 C 116.574219 100.902344 117.015625 100.671875 117.328125 100.296875 C 117.644531 99.925781 117.792969 99.449219 117.75 98.964844 L 117.109375 91.703125 C 117.023438 90.699219 116.132812 89.953125 115.128906 90.039062 Z M 112.328125 101.710938 C 112.214844 101.710938 112.121094 101.625 112.113281 101.511719 L 111.113281 90.175781 C 111.109375 90.117188 111.128906 90.0625 111.164062 90.019531 C 111.203125 89.972656 111.253906 89.945312 111.3125 89.941406 L 115.089844 89.609375 C 116.335938 89.5 117.433594 90.421875 117.542969 91.664062 L 118.179688 98.925781 C 118.234375 99.527344 118.046875 100.113281 117.660156 100.578125 C 117.273438 101.039062 116.726562 101.324219 116.125 101.378906 L 112.347656 101.710938 C 112.339844 101.710938 112.332031 101.710938 112.328125 101.710938 " fill-opacity="1" fill-rule="nonzero"/><path fill="#ffffff" d="M 56.25 106.425781 L 61.140625 105.996094 L 60.144531 94.660156 L 55.25 95.089844 C 54.742188 95.136719 54.363281 95.585938 54.410156 96.097656 L 55.242188 105.585938 C 55.289062 106.09375 55.738281 106.472656 56.25 106.425781 " fill-opacity="1" fill-rule="nonzero"/><path fill="#000000" d="M 59.945312 94.894531 L 56.382812 95.207031 C 55.378906 95.296875 54.632812 96.1875 54.722656 97.191406 L 55.359375 104.453125 C 55.449219 105.457031 56.335938 106.203125 57.34375 106.113281 L 60.90625 105.800781 Z M 57.363281 106.328125 Z M 57.179688 106.554688 C 56.023438 106.554688 55.03125 105.664062 54.929688 104.488281 L 54.289062 97.230469 C 54.179688 95.988281 55.105469 94.886719 56.347656 94.777344 L 60.125 94.445312 C 60.242188 94.433594 60.347656 94.523438 60.359375 94.640625 L 61.355469 105.976562 C 61.363281 106.035156 61.34375 106.09375 61.308594 106.136719 C 61.269531 106.179688 61.21875 106.207031 61.160156 106.214844 L 57.382812 106.546875 C 57.316406 106.550781 57.246094 106.554688 57.179688 106.554688 " fill-opacity="1" fill-rule="nonzero"/><path fill="#ffffff" d="M 58.769531 100.023438 C 57.695312 87.839844 68.867188 74.160156 84.015625 72.828125 C 99.160156 71.492188 112.546875 83.015625 113.621094 95.195312 C 114.691406 107.378906 103.042969 115.609375 87.894531 116.941406 C 72.75 118.273438 59.839844 112.203125 58.769531 100.023438 " fill-opacity="1" fill-rule="nonzero"/><path fill="#000000" d="M 86.4375 72.9375 C 85.636719 72.9375 84.835938 72.96875 84.035156 73.042969 C 76.941406 73.664062 70.347656 77.023438 65.472656 82.5 C 60.828125 87.710938 58.464844 94.089844 58.984375 100.003906 C 59.488281 105.734375 62.660156 110.351562 68.15625 113.359375 C 73.339844 116.191406 80.339844 117.386719 87.875 116.722656 C 95.410156 116.0625 102.097656 113.660156 106.703125 109.96875 C 111.589844 106.046875 113.910156 100.945312 113.40625 95.214844 C 112.882812 89.300781 109.441406 83.433594 103.960938 79.113281 C 98.855469 75.085938 92.710938 72.9375 86.4375 72.9375 Z M 83.863281 117.335938 C 77.804688 117.335938 72.261719 116.09375 67.949219 113.738281 C 62.320312 110.660156 59.070312 105.921875 58.554688 100.039062 C 58.023438 94.007812 60.425781 87.511719 65.148438 82.210938 C 70.097656 76.652344 76.792969 73.242188 83.996094 72.609375 C 91.199219 71.976562 98.382812 74.164062 104.230469 78.773438 C 109.804688 83.167969 113.304688 89.148438 113.835938 95.175781 C 114.355469 101.058594 111.980469 106.289062 106.976562 110.304688 C 102.304688 114.050781 95.535156 116.484375 87.914062 117.15625 C 86.542969 117.277344 85.191406 117.335938 83.863281 117.335938 " fill-opacity="1" fill-rule="nonzero"/><path fill="#ffffff" d="M 106.949219 129.941406 C 106.417969 123.917969 101.109375 119.464844 95.085938 119.996094 L 81.347656 121.203125 C 75.324219 121.734375 70.875 127.046875 71.402344 133.066406 C 71.753906 137.046875 72.492188 140.980469 73.605469 144.816406 L 76.460938 154.644531 C 78.457031 161.515625 85.03125 166.015625 92.15625 165.390625 C 99.285156 164.761719 104.972656 159.183594 105.738281 152.070312 L 106.832031 141.890625 C 107.261719 137.921875 107.300781 133.917969 106.949219 129.941406 " fill-opacity="1" fill-rule="nonzero"/><path fill="#000000" d="M 96.0625 120.167969 C 95.746094 120.167969 95.425781 120.183594 95.105469 120.210938 L 81.367188 121.421875 C 78.511719 121.671875 75.925781 123.019531 74.085938 125.214844 C 72.242188 127.410156 71.367188 130.195312 71.617188 133.046875 C 71.96875 137.003906 72.703125 140.941406 73.8125 144.753906 L 76.667969 154.585938 C 78.628906 161.335938 85.132812 165.789062 92.136719 165.171875 C 99.140625 164.558594 104.769531 159.035156 105.523438 152.046875 L 106.617188 141.871094 C 107.042969 137.921875 107.082031 133.914062 106.734375 129.957031 C 106.484375 127.105469 105.132812 124.519531 102.9375 122.675781 C 100.988281 121.042969 98.578125 120.167969 96.0625 120.167969 Z M 90.847656 165.664062 C 84.15625 165.664062 78.144531 161.226562 76.25 154.707031 L 73.398438 144.875 C 72.28125 141.035156 71.539062 137.070312 71.1875 133.085938 C 70.925781 130.117188 71.835938 127.222656 73.753906 124.9375 C 75.667969 122.652344 78.359375 121.25 81.328125 120.988281 L 95.066406 119.78125 C 98.039062 119.519531 100.933594 120.429688 103.21875 122.34375 C 105.5 124.261719 106.902344 126.949219 107.164062 129.921875 C 107.515625 133.902344 107.476562 137.941406 107.046875 141.914062 L 105.953125 152.09375 C 105.179688 159.289062 99.382812 164.96875 92.175781 165.605469 C 91.730469 165.644531 91.285156 165.664062 90.847656 165.664062 " fill-opacity="1" fill-rule="nonzero"/><path fill="#a6201e" d="M 97.355469 138.816406 C 97.488281 140.300781 96.390625 141.609375 94.902344 141.742188 L 85.324219 142.582031 C 83.839844 142.714844 82.53125 141.617188 82.398438 140.132812 L 80.738281 121.257812 L 95.695312 119.941406 L 97.355469 138.816406 " fill-opacity="1" fill-rule="nonzero"/><path fill="#000000" d="M 80.738281 121.472656 C 80.628906 121.472656 80.53125 121.390625 80.523438 121.277344 C 80.511719 121.15625 80.601562 121.050781 80.71875 121.042969 L 95.675781 119.726562 C 95.792969 119.714844 95.902344 119.804688 95.910156 119.921875 C 95.921875 120.042969 95.832031 120.148438 95.714844 120.15625 L 80.757812 121.472656 C 80.75 121.472656 80.746094 121.472656 80.738281 121.472656 " fill-opacity="1" fill-rule="nonzero"/><path fill="#000000" d="M 104.3125 92.332031 L 77.902344 94.652344 C 75.15625 94.894531 73.144531 97.488281 73.40625 100.445312 L 73.710938 103.9375 C 73.910156 106.191406 75.324219 108.476562 77.433594 108.683594 C 84.875 109.414062 100.023438 108.082031 107.222656 106.0625 C 109.261719 105.488281 110.253906 102.992188 110.058594 100.738281 L 109.75 97.246094 C 109.488281 94.289062 107.054688 92.089844 104.3125 92.332031 " fill-opacity="1" fill-rule="nonzero"/><path fill="#ffbf23" d="M 85.519531 101.066406 C 85.605469 102.058594 84.933594 102.925781 84.011719 103.007812 C 83.09375 103.085938 82.277344 102.351562 82.191406 101.359375 C 82.101562 100.371094 82.777344 99.5 83.695312 99.417969 C 84.617188 99.339844 85.433594 100.078125 85.519531 101.066406 " fill-opacity="1" fill-rule="nonzero"/><path fill="#ffbf23" d="M 103.226562 99.507812 C 103.3125 100.5 102.636719 101.367188 101.71875 101.449219 C 100.800781 101.53125 99.984375 100.792969 99.898438 99.800781 C 99.808594 98.8125 100.484375 97.941406 101.402344 97.863281 C 102.324219 97.78125 103.140625 98.519531 103.226562 99.507812 " fill-opacity="1" fill-rule="nonzero"/><path fill="#a6201e" d="M 109.304688 154.460938 C 107.46875 154.359375 106.074219 152.527344 106.199219 150.382812 L 107.730469 123.804688 L 114.347656 124.175781 L 112.816406 150.800781 C 112.691406 152.929688 111.125 154.5625 109.304688 154.460938 " fill-opacity="1" fill-rule="nonzero"/><path fill="#000000" d="M 109.316406 154.246094 C 111.011719 154.339844 112.484375 152.789062 112.601562 150.789062 L 114.121094 124.378906 L 107.933594 124.03125 L 106.414062 150.394531 C 106.351562 151.476562 106.695312 152.519531 107.355469 153.261719 C 107.886719 153.855469 108.582031 154.203125 109.316406 154.246094 Z M 109.464844 154.683594 C 109.40625 154.683594 109.347656 154.679688 109.292969 154.675781 C 108.441406 154.628906 107.640625 154.230469 107.035156 153.550781 C 106.296875 152.722656 105.914062 151.5625 105.984375 150.371094 L 107.511719 123.792969 C 107.519531 123.671875 107.621094 123.582031 107.742188 123.589844 L 114.363281 123.960938 C 114.417969 123.964844 114.472656 123.988281 114.511719 124.03125 C 114.550781 124.074219 114.570312 124.132812 114.566406 124.1875 L 113.03125 150.8125 C 112.90625 152.984375 111.324219 154.683594 109.464844 154.683594 " fill-opacity="1" fill-rule="nonzero"/><path fill="#ffbf23" d="M 127.761719 108.414062 L 109.054688 108.609375 L 100.667969 110.261719 L 96.40625 112.304688 L 96.375 112.320312 C 95.59375 112.640625 94.867188 114.136719 94.621094 116 C 94.378906 117.839844 94.703125 119.460938 95.363281 120 L 95.332031 119.996094 L 98.730469 122.949219 L 106.367188 126.636719 L 124.585938 131.589844 L 140.546875 147.3125 L 140.671875 147.40625 C 136.6875 143.390625 134.78125 133.039062 136.320312 121.335938 C 137.855469 109.644531 142.359375 100.171875 147.234375 97.347656 L 147.234375 97.34375 L 128.007812 108.273438 L 127.761719 108.414062 " fill-opacity="1" fill-rule="nonzero"/><path fill="#ffbf23" d="M 158.390625 124.332031 C 156.484375 138.855469 149.996094 149.960938 143.898438 149.132812 C 137.804688 148.304688 134.410156 135.859375 136.320312 121.335938 C 138.226562 106.808594 144.714844 95.707031 150.8125 96.53125 C 156.90625 97.359375 160.300781 109.804688 158.390625 124.332031 " fill-opacity="1" fill-rule="nonzero"/><path fill="#000000" d="M 144.53125 149.390625 C 144.308594 149.390625 144.089844 149.378906 143.871094 149.347656 C 140.832031 148.933594 138.355469 145.765625 136.898438 140.429688 C 135.460938 135.148438 135.179688 128.359375 136.105469 121.308594 C 137.507812 110.628906 141.449219 101.410156 146.144531 97.820312 C 147.722656 96.617188 149.304688 96.109375 150.839844 96.320312 C 153.984375 96.746094 156.507812 100.089844 157.945312 105.734375 C 157.972656 105.847656 157.902344 105.96875 157.789062 105.996094 C 157.671875 106.027344 157.550781 105.957031 157.523438 105.839844 C 156.15625 100.457031 153.699219 97.144531 150.785156 96.746094 C 149.363281 96.554688 147.890625 97.03125 146.40625 98.167969 C 141.796875 101.6875 137.921875 110.792969 136.535156 121.363281 C 134.644531 135.746094 137.960938 148.109375 143.929688 148.917969 C 148.222656 149.5 152.917969 143.882812 155.902344 134.605469 C 155.9375 134.492188 156.058594 134.429688 156.175781 134.464844 C 156.289062 134.503906 156.351562 134.625 156.316406 134.738281 C 153.414062 143.761719 148.851562 149.390625 144.53125 149.390625 " fill-opacity="1" fill-rule="nonzero"/><path fill="#000000" d="M 155.519531 104.925781 C 155.4375 104.925781 155.355469 104.875 155.320312 104.792969 C 154.0625 101.796875 152.355469 100.070312 150.382812 99.804688 C 150.261719 99.789062 150.179688 99.679688 150.195312 99.558594 C 150.210938 99.441406 150.320312 99.359375 150.441406 99.375 C 152.574219 99.664062 154.398438 101.480469 155.722656 104.625 C 155.765625 104.734375 155.714844 104.859375 155.605469 104.90625 C 155.578125 104.917969 155.550781 104.925781 155.519531 104.925781 " fill-opacity="1" fill-rule="nonzero"/><path fill="#000000" d="M 142.746094 145.769531 C 142.710938 145.769531 142.675781 145.761719 142.644531 145.742188 C 138.082031 143.207031 135.871094 133.003906 137.386719 121.480469 C 138.769531 110.96875 142.980469 102.078125 147.628906 99.867188 C 147.734375 99.816406 147.863281 99.859375 147.914062 99.96875 C 147.96875 100.078125 147.921875 100.207031 147.8125 100.257812 C 143.292969 102.410156 139.179688 111.160156 137.816406 121.539062 C 137.089844 127.058594 137.21875 132.511719 138.171875 136.898438 C 139.105469 141.199219 140.769531 144.203125 142.851562 145.363281 C 142.957031 145.421875 142.996094 145.554688 142.9375 145.65625 C 142.898438 145.726562 142.824219 145.769531 142.746094 145.769531 " fill-opacity="1" fill-rule="nonzero"/><path fill="#000000" d="M 152.339844 139.992188 C 152.304688 139.992188 152.265625 139.980469 152.234375 139.964844 C 152.128906 139.90625 152.089844 139.773438 152.148438 139.667969 C 152.949219 138.238281 153.6875 136.609375 154.335938 134.828125 C 154.378906 134.71875 154.5 134.660156 154.613281 134.699219 C 154.726562 134.742188 154.785156 134.867188 154.742188 134.980469 C 154.085938 136.78125 153.339844 138.429688 152.527344 139.878906 C 152.488281 139.953125 152.414062 139.992188 152.339844 139.992188 " fill-opacity="1" fill-rule="nonzero"/><path fill="#a6201e" d="M 146.585938 122.742188 C 146.144531 126.105469 144.640625 128.679688 143.230469 128.484375 C 141.816406 128.296875 141.03125 125.414062 141.476562 122.050781 C 141.917969 118.6875 143.417969 116.117188 144.828125 116.308594 C 146.242188 116.5 147.027344 119.378906 146.585938 122.742188 " fill-opacity="1" fill-rule="nonzero"/><path fill="#000000" d="M 144.679688 116.515625 C 144.433594 116.515625 144.175781 116.617188 143.910156 116.816406 C 142.878906 117.609375 142.003906 119.671875 141.6875 122.078125 C 141.269531 125.261719 141.988281 128.101562 143.257812 128.273438 C 143.542969 128.308594 143.839844 128.210938 144.148438 127.976562 C 145.183594 127.1875 146.054688 125.121094 146.371094 122.714844 C 146.789062 119.53125 146.070312 116.695312 144.800781 116.523438 C 144.761719 116.515625 144.722656 116.515625 144.679688 116.515625 Z M 143.382812 128.714844 C 143.320312 128.714844 143.261719 128.710938 143.199219 128.699219 C 141.648438 128.492188 140.792969 125.558594 141.257812 122.023438 C 141.589844 119.507812 142.527344 117.328125 143.648438 116.472656 C 144.050781 116.167969 144.457031 116.039062 144.859375 116.09375 C 146.414062 116.304688 147.265625 119.238281 146.800781 122.773438 C 146.46875 125.285156 145.53125 127.464844 144.414062 128.320312 C 144.070312 128.582031 143.722656 128.714844 143.382812 128.714844 " fill-opacity="1" fill-rule="nonzero"/><path fill="#000000" d="M 106.441406 126.433594 L 124.640625 131.378906 C 124.679688 131.390625 124.710938 131.410156 124.738281 131.433594 L 138.863281 145.347656 C 135.917969 140.289062 134.8125 131.152344 136.105469 121.308594 C 137.390625 111.53125 140.78125 103.054688 144.890625 98.925781 L 127.867188 108.601562 C 127.835938 108.621094 127.800781 108.628906 127.761719 108.628906 L 109.078125 108.828125 L 100.738281 110.46875 L 96.480469 112.507812 C 96.472656 112.511719 96.464844 112.515625 96.457031 112.519531 C 95.746094 112.8125 95.066406 114.289062 94.835938 116.027344 C 94.582031 117.960938 94.976562 119.40625 95.5 119.832031 C 95.523438 119.851562 95.542969 119.875 95.554688 119.902344 L 98.851562 122.765625 Z M 140.671875 147.621094 C 140.628906 147.621094 140.582031 147.609375 140.542969 147.578125 L 140.417969 147.484375 C 140.410156 147.480469 140.402344 147.472656 140.394531 147.464844 L 124.472656 131.78125 L 106.308594 126.847656 C 106.296875 126.84375 106.285156 126.839844 106.273438 126.832031 L 98.636719 123.144531 C 98.621094 123.132812 98.605469 123.125 98.589844 123.113281 L 95.191406 120.160156 C 95.167969 120.140625 95.152344 120.117188 95.140625 120.089844 C 94.460938 119.425781 94.167969 117.800781 94.40625 115.972656 C 94.660156 114.035156 95.414062 112.492188 96.28125 112.125 L 96.300781 112.113281 L 100.574219 110.066406 C 100.59375 110.058594 100.609375 110.050781 100.628906 110.046875 L 109.011719 108.398438 C 109.027344 108.394531 109.039062 108.394531 109.050781 108.394531 L 127.703125 108.199219 L 147.125 97.15625 C 147.230469 97.097656 147.359375 97.132812 147.421875 97.238281 C 147.480469 97.339844 147.445312 97.476562 147.34375 97.535156 C 142.375 100.414062 138.027344 109.988281 136.535156 121.363281 C 135.035156 132.757812 136.761719 143.160156 140.824219 147.253906 C 140.90625 147.332031 140.910156 147.460938 140.835938 147.546875 C 140.792969 147.597656 140.734375 147.621094 140.671875 147.621094 " fill-opacity="1" fill-rule="nonzero"/><path fill="#ffffff" d="M 127.820312 108.382812 L 147.234375 97.34375 L 147.234375 97.347656 C 142.359375 100.171875 137.855469 109.644531 136.320312 121.335938 C 134.78125 133.039062 136.6875 143.390625 140.671875 147.40625 L 140.546875 147.3125 L 124.613281 131.613281 L 124.242188 131.253906 C 122.398438 129.417969 121.492188 124.726562 122.199219 119.4375 C 122.925781 114.003906 125.34375 109.769531 127.578125 108.511719 L 127.820312 108.382812 " fill-opacity="1" fill-rule="nonzero"/><path fill="#000000" d="M 127.820312 108.382812 Z M 144.890625 98.925781 L 127.925781 108.570312 C 127.925781 108.570312 127.925781 108.570312 127.921875 108.570312 L 127.683594 108.703125 C 125.625 109.859375 123.15625 113.929688 122.417969 119.464844 C 121.746094 124.488281 122.558594 129.273438 124.394531 131.097656 L 124.761719 131.460938 L 138.863281 145.347656 C 135.917969 140.289062 134.8125 131.152344 136.105469 121.308594 C 137.390625 111.53125 140.78125 103.054688 144.890625 98.925781 Z M 140.671875 147.621094 C 140.628906 147.621094 140.582031 147.609375 140.542969 147.578125 L 140.417969 147.484375 C 140.410156 147.480469 140.402344 147.472656 140.394531 147.464844 L 124.460938 131.769531 L 124.089844 131.40625 C 122.132812 129.460938 121.289062 124.636719 121.988281 119.410156 C 122.78125 113.464844 125.386719 109.496094 127.472656 108.324219 L 127.714844 108.191406 L 147.125 97.15625 C 147.230469 97.097656 147.359375 97.132812 147.421875 97.238281 C 147.480469 97.339844 147.445312 97.476562 147.34375 97.535156 C 142.375 100.414062 138.027344 109.988281 136.535156 121.363281 C 135.035156 132.757812 136.761719 143.160156 140.824219 147.253906 C 140.90625 147.332031 140.910156 147.460938 140.835938 147.546875 C 140.792969 147.597656 140.734375 147.621094 140.671875 147.621094 " fill-opacity="1" fill-rule="nonzero"/><path fill="#000000" d="M 98.546875 123.003906 C 98.496094 123.003906 98.449219 122.988281 98.40625 122.953125 L 95.191406 120.160156 C 95.167969 120.140625 95.152344 120.117188 95.140625 120.089844 C 94.460938 119.425781 94.167969 117.800781 94.40625 115.972656 C 94.660156 114.035156 95.414062 112.492188 96.28125 112.125 L 96.300781 112.113281 L 100.574219 110.066406 C 100.683594 110.011719 100.8125 110.058594 100.863281 110.167969 C 100.917969 110.273438 100.871094 110.402344 100.761719 110.457031 L 96.480469 112.507812 C 96.472656 112.511719 96.464844 112.515625 96.457031 112.519531 C 95.746094 112.8125 95.066406 114.289062 94.835938 116.027344 C 94.582031 117.960938 94.976562 119.40625 95.5 119.832031 C 95.523438 119.851562 95.542969 119.875 95.554688 119.902344 L 98.691406 122.625 C 98.78125 122.703125 98.789062 122.839844 98.710938 122.929688 C 98.667969 122.980469 98.609375 123.003906 98.546875 123.003906 " fill-opacity="1" fill-rule="nonzero"/><path fill="#ffbf23" d="M 98.777344 122.949219 C 97.703125 122.082031 97.242188 119.386719 97.636719 116.382812 C 98.054688 113.199219 99.457031 110.582031 100.800781 110.238281 L 96.40625 112.300781 L 96.375 112.320312 C 95.59375 112.640625 94.867188 114.136719 94.621094 116 C 94.378906 117.839844 94.703125 119.460938 95.363281 120 L 95.332031 119.996094 L 98.777344 122.949219 " fill-opacity="1" fill-rule="nonzero"/><path fill="#000000" d="M 95.554688 119.898438 L 97.785156 121.8125 C 97.285156 120.503906 97.136719 118.527344 97.421875 116.355469 C 97.695312 114.25 98.398438 112.363281 99.261719 111.199219 L 96.480469 112.507812 C 96.472656 112.511719 96.464844 112.515625 96.457031 112.519531 C 95.746094 112.8125 95.066406 114.289062 94.835938 116.027344 C 94.582031 117.960938 94.976562 119.40625 95.5 119.832031 C 95.523438 119.851562 95.542969 119.875 95.554688 119.898438 Z M 98.777344 123.167969 C 98.730469 123.167969 98.679688 123.152344 98.640625 123.117188 C 98.613281 123.097656 98.585938 123.074219 98.5625 123.050781 L 95.191406 120.160156 C 95.167969 120.140625 95.152344 120.117188 95.140625 120.089844 C 94.460938 119.425781 94.167969 117.800781 94.40625 115.972656 C 94.660156 114.035156 95.414062 112.492188 96.28125 112.125 L 96.300781 112.113281 C 96.304688 112.109375 96.308594 112.109375 96.3125 112.105469 L 100.167969 110.296875 C 100.359375 110.171875 100.550781 110.078125 100.746094 110.027344 C 100.855469 110 100.96875 110.0625 101.003906 110.167969 C 101.042969 110.273438 100.992188 110.386719 100.894531 110.433594 L 100.382812 110.675781 C 99.355469 111.382812 98.230469 113.5 97.851562 116.410156 C 97.472656 119.277344 97.882812 121.84375 98.84375 122.722656 L 98.917969 122.785156 C 99.007812 122.863281 99.019531 122.996094 98.945312 123.089844 C 98.902344 123.140625 98.839844 123.167969 98.777344 123.167969 " fill-opacity="1" fill-rule="nonzero"/><path fill="#000000" d="M 106.089844 126.503906 L 106.417969 126.648438 C 104.609375 125.875 103.777344 121.757812 104.382812 117.140625 C 105 112.433594 107.070312 108.742188 109.054688 108.609375 L 108.773438 108.664062 L 100.824219 110.234375 C 99.472656 110.554688 98.054688 113.179688 97.636719 116.382812 C 97.230469 119.472656 97.769531 122.242188 98.90625 123.027344 L 106.089844 126.503906 " fill-opacity="1" fill-rule="nonzero"/><path fill="#000000" d="M 99.015625 122.839844 L 105.222656 125.84375 C 104.113281 124.175781 103.675781 120.867188 104.167969 117.113281 C 104.644531 113.5 105.933594 110.492188 107.453125 109.144531 L 100.867188 110.445312 C 99.597656 110.746094 98.242188 113.421875 97.851562 116.410156 C 97.457031 119.390625 97.949219 122.085938 99.015625 122.839844 Z M 106.335938 126.847656 C 106.324219 126.84375 106.316406 126.839844 106.308594 126.835938 L 105.992188 126.699219 L 98.78125 123.207031 C 97.5625 122.363281 97 119.546875 97.421875 116.355469 C 97.847656 113.097656 99.289062 110.375 100.773438 110.023438 L 108.550781 108.488281 C 108.714844 108.4375 108.875 108.40625 109.039062 108.394531 L 109.097656 108.824219 L 108.664062 108.90625 C 106.910156 109.492188 105.144531 113.015625 104.597656 117.167969 C 104 121.71875 104.808594 125.691406 106.484375 126.4375 L 106.507812 126.449219 L 106.335938 126.847656 " fill-opacity="1" fill-rule="nonzero"/><path fill="#000000" d="M 144.828125 116.308594 C 143.417969 116.117188 141.855469 118.679688 141.472656 122.050781 C 140.835938 127.703125 142.941406 128.449219 143.199219 128.519531 C 143.207031 128.519531 143.203125 128.527344 143.199219 128.527344 L 137.238281 128.933594 C 137.214844 126.585938 137.363281 124.089844 137.703125 121.523438 C 138.023438 119.0625 138.496094 116.710938 139.089844 114.53125 L 144.828125 116.308594 " fill-opacity="1" fill-rule="nonzero"/><path fill="#000000" d="M 139.242188 114.804688 C 138.667969 116.960938 138.222656 119.226562 137.917969 121.550781 C 137.597656 123.976562 137.441406 126.378906 137.453125 128.703125 L 142.480469 128.359375 C 141.746094 127.738281 140.792969 126.132812 141.257812 122.027344 C 141.535156 119.5625 142.457031 117.390625 143.605469 116.5 C 143.722656 116.40625 143.84375 116.328125 143.964844 116.265625 Z M 137.023438 129.167969 L 137.019531 128.9375 C 137 126.523438 137.15625 124.019531 137.488281 121.496094 C 137.804688 119.074219 138.273438 116.710938 138.882812 114.472656 L 138.941406 114.253906 L 144.894531 116.101562 L 144.800781 116.523438 C 144.507812 116.484375 144.191406 116.589844 143.871094 116.839844 C 142.828125 117.652344 141.953125 119.757812 141.6875 122.074219 C 141.066406 127.558594 143.03125 128.25 143.257812 128.308594 L 143.433594 128.355469 L 143.402344 128.726562 L 143.214844 128.742188 L 137.023438 129.167969 " fill-opacity="1" fill-rule="nonzero"/><path fill="#000000" d="M 69.253906 139.785156 C 63.859375 139.785156 61.136719 136.460938 60.886719 133.21875 C 60.605469 129.550781 63.304688 125.5625 69.011719 125.035156 C 69.648438 124.976562 70.210938 125.445312 70.269531 126.082031 C 70.328125 126.714844 69.859375 127.277344 69.222656 127.335938 C 65.003906 127.726562 62.996094 130.5 63.191406 133.039062 C 63.375 135.433594 65.539062 137.726562 69.960938 137.453125 C 100.113281 135.585938 109.761719 123.113281 109.855469 122.988281 C 110.238281 122.476562 110.960938 122.371094 111.472656 122.753906 C 111.984375 123.132812 112.089844 123.859375 111.707031 124.371094 C 111.601562 124.511719 109.054688 127.859375 102.605469 131.433594 C 96.746094 134.675781 86.351562 138.753906 70.105469 139.757812 C 69.8125 139.777344 69.527344 139.785156 69.253906 139.785156 " fill-opacity="1" fill-rule="nonzero"/><path fill="#ffffff" d="M 153.746094 65.128906 C 154.117188 66.660156 153.175781 68.199219 151.648438 68.570312 C 150.117188 68.941406 148.578125 68 148.207031 66.46875 C 147.835938 64.9375 148.777344 63.398438 150.304688 63.027344 C 151.835938 62.660156 153.378906 63.597656 153.746094 65.128906 Z M 155.207031 63.933594 C 155.101562 63.695312 154.976562 63.46875 154.835938 63.253906 L 155.507812 62.25 L 154.742188 61.449219 L 153.707031 62.070312 C 153.496094 61.917969 153.277344 61.785156 153.046875 61.667969 L 153.125 60.460938 L 152.0625 60.148438 L 151.476562 61.203125 C 151.222656 61.175781 150.964844 61.171875 150.703125 61.1875 L 150.167969 60.101562 L 149.089844 60.363281 L 149.109375 61.570312 C 148.871094 61.675781 148.644531 61.796875 148.433594 61.9375 L 147.425781 61.269531 L 146.625 62.03125 L 147.246094 63.070312 C 147.09375 63.277344 146.960938 63.5 146.84375 63.726562 L 145.636719 63.652344 L 145.324219 64.710938 L 146.378906 65.300781 C 146.355469 65.554688 146.347656 65.8125 146.363281 66.070312 L 145.28125 66.609375 L 145.539062 67.683594 L 146.75 67.664062 C 146.855469 67.902344 146.976562 68.128906 147.117188 68.34375 L 146.445312 69.347656 L 147.210938 70.152344 L 148.246094 69.527344 C 148.457031 69.679688 148.675781 69.816406 148.90625 69.929688 L 148.828125 71.136719 L 149.890625 71.449219 L 150.476562 70.394531 C 150.730469 70.421875 150.988281 70.429688 151.25 70.414062 L 151.785156 71.496094 L 152.863281 71.238281 L 152.84375 70.027344 C 153.082031 69.921875 153.308594 69.800781 153.519531 69.660156 L 154.527344 70.328125 L 155.328125 69.566406 L 154.707031 68.527344 C 154.859375 68.320312 154.992188 68.101562 155.109375 67.871094 L 156.316406 67.949219 L 156.628906 66.886719 L 155.570312 66.296875 C 155.601562 66.046875 155.605469 65.785156 155.589844 65.527344 L 156.675781 64.992188 L 156.414062 63.914062 L 155.207031 63.933594 " fill-opacity="1" fill-rule="nonzero"/><path fill="#000000" d="M 150.691406 63.628906 C 150.488281 63.628906 150.28125 63.652344 150.074219 63.703125 C 149.390625 63.871094 148.8125 64.292969 148.445312 64.890625 C 148.078125 65.492188 147.96875 66.199219 148.132812 66.882812 C 148.296875 67.566406 148.71875 68.144531 149.320312 68.511719 C 149.921875 68.878906 150.628906 68.988281 151.3125 68.824219 C 152.722656 68.484375 153.59375 67.058594 153.253906 65.644531 C 152.960938 64.441406 151.878906 63.628906 150.691406 63.628906 Z M 150.6875 69.332031 C 150.128906 69.332031 149.582031 69.179688 149.09375 68.882812 C 148.394531 68.457031 147.902344 67.78125 147.710938 66.984375 C 147.519531 66.1875 147.648438 65.367188 148.074219 64.667969 C 148.5 63.96875 149.175781 63.476562 149.972656 63.285156 C 151.613281 62.886719 153.277344 63.898438 153.675781 65.542969 C 154.070312 67.1875 153.058594 68.847656 151.414062 69.246094 C 151.171875 69.304688 150.929688 69.332031 150.6875 69.332031 Z M 150.964844 70.660156 C 151.046875 70.660156 151.121094 70.707031 151.160156 70.78125 L 151.617188 71.710938 L 152.359375 71.53125 L 152.34375 70.496094 C 152.339844 70.410156 152.390625 70.328125 152.472656 70.292969 C 152.699219 70.195312 152.917969 70.074219 153.117188 69.945312 C 153.191406 69.894531 153.285156 69.894531 153.355469 69.945312 L 154.21875 70.519531 L 154.769531 69.992188 L 154.238281 69.105469 C 154.191406 69.03125 154.195312 68.933594 154.246094 68.863281 C 154.390625 68.667969 154.519531 68.457031 154.628906 68.238281 C 154.671875 68.160156 154.753906 68.113281 154.839844 68.121094 L 155.871094 68.1875 L 156.085938 67.457031 L 155.183594 66.953125 C 155.109375 66.910156 155.0625 66.824219 155.074219 66.738281 C 155.101562 66.5 155.105469 66.253906 155.089844 66.003906 C 155.085938 65.917969 155.132812 65.835938 155.210938 65.796875 L 156.140625 65.339844 L 155.960938 64.597656 L 154.925781 64.613281 C 154.835938 64.617188 154.757812 64.566406 154.722656 64.484375 C 154.625 64.257812 154.503906 64.042969 154.371094 63.839844 C 154.324219 63.765625 154.324219 63.671875 154.371094 63.601562 L 154.945312 62.738281 L 154.421875 62.1875 L 153.53125 62.71875 C 153.457031 62.765625 153.363281 62.761719 153.292969 62.710938 C 153.097656 62.566406 152.886719 62.4375 152.667969 62.328125 C 152.589844 62.289062 152.542969 62.207031 152.546875 62.117188 L 152.613281 61.085938 L 151.882812 60.871094 L 151.378906 61.773438 C 151.339844 61.851562 151.257812 61.894531 151.167969 61.882812 C 150.929688 61.859375 150.679688 61.851562 150.433594 61.867188 C 150.34375 61.871094 150.265625 61.824219 150.226562 61.746094 L 149.765625 60.816406 L 149.027344 60.996094 L 149.042969 62.03125 C 149.042969 62.121094 148.996094 62.199219 148.914062 62.234375 C 148.6875 62.335938 148.46875 62.453125 148.269531 62.585938 C 148.195312 62.632812 148.101562 62.632812 148.027344 62.585938 L 147.167969 62.011719 L 146.617188 62.535156 L 147.148438 63.425781 C 147.195312 63.5 147.1875 63.59375 147.136719 63.664062 C 146.992188 63.863281 146.863281 64.074219 146.753906 64.289062 C 146.714844 64.367188 146.632812 64.414062 146.546875 64.410156 L 145.511719 64.34375 L 145.296875 65.074219 L 146.203125 65.574219 C 146.277344 65.617188 146.320312 65.703125 146.3125 65.789062 C 146.285156 66.027344 146.28125 66.277344 146.296875 66.523438 C 146.300781 66.609375 146.253906 66.691406 146.175781 66.730469 L 145.246094 67.191406 L 145.425781 67.929688 L 146.460938 67.914062 C 146.546875 67.914062 146.628906 67.964844 146.664062 68.042969 C 146.761719 68.269531 146.882812 68.488281 147.011719 68.6875 C 147.0625 68.761719 147.0625 68.855469 147.011719 68.929688 L 146.4375 69.789062 L 146.964844 70.339844 L 147.851562 69.808594 C 147.929688 69.765625 148.023438 69.769531 148.09375 69.820312 C 148.289062 69.964844 148.5 70.09375 148.71875 70.203125 C 148.796875 70.242188 148.84375 70.324219 148.839844 70.410156 L 148.773438 71.445312 L 149.5 71.660156 L 150.003906 70.753906 C 150.046875 70.679688 150.128906 70.636719 150.21875 70.644531 C 150.457031 70.671875 150.703125 70.675781 150.953125 70.660156 C 150.957031 70.660156 150.960938 70.660156 150.964844 70.660156 Z M 151.5 72.179688 C 151.421875 72.179688 151.34375 72.132812 151.308594 72.058594 L 150.832031 71.101562 C 150.660156 71.105469 150.484375 71.101562 150.316406 71.089844 L 149.796875 72.023438 C 149.746094 72.109375 149.644531 72.152344 149.546875 72.125 L 148.484375 71.8125 C 148.386719 71.78125 148.320312 71.691406 148.328125 71.589844 L 148.394531 70.523438 C 148.246094 70.441406 148.097656 70.351562 147.953125 70.253906 L 147.039062 70.800781 C 146.949219 70.855469 146.839844 70.839844 146.769531 70.765625 L 146.007812 69.960938 C 145.9375 69.890625 145.925781 69.777344 145.984375 69.695312 L 146.574219 68.804688 C 146.484375 68.660156 146.402344 68.507812 146.328125 68.347656 L 145.257812 68.367188 C 145.160156 68.367188 145.070312 68.296875 145.042969 68.199219 L 144.785156 67.125 C 144.761719 67.027344 144.808594 66.921875 144.898438 66.878906 L 145.855469 66.40625 C 145.851562 66.230469 145.855469 66.058594 145.867188 65.886719 L 144.9375 65.367188 C 144.847656 65.316406 144.804688 65.214844 144.832031 65.117188 L 145.148438 64.054688 C 145.175781 63.957031 145.265625 63.894531 145.367188 63.898438 L 146.433594 63.96875 C 146.515625 63.816406 146.605469 63.667969 146.703125 63.527344 L 146.15625 62.609375 C 146.105469 62.523438 146.121094 62.410156 146.191406 62.339844 L 146.996094 61.578125 C 147.066406 61.507812 147.179688 61.496094 147.265625 61.554688 L 148.152344 62.144531 C 148.296875 62.054688 148.449219 61.972656 148.609375 61.898438 L 148.589844 60.832031 C 148.589844 60.730469 148.660156 60.640625 148.757812 60.617188 L 149.832031 60.355469 C 149.933594 60.332031 150.035156 60.378906 150.078125 60.472656 L 150.550781 61.429688 C 150.726562 61.421875 150.898438 61.425781 151.070312 61.4375 L 151.589844 60.507812 C 151.640625 60.417969 151.742188 60.378906 151.839844 60.40625 L 152.902344 60.71875 C 153 60.746094 153.0625 60.839844 153.058594 60.941406 L 152.988281 62.007812 C 153.140625 62.089844 153.289062 62.179688 153.429688 62.277344 L 154.347656 61.726562 C 154.4375 61.675781 154.546875 61.691406 154.617188 61.765625 L 155.378906 62.566406 C 155.449219 62.640625 155.457031 62.75 155.402344 62.835938 L 154.8125 63.722656 C 154.902344 63.871094 154.984375 64.023438 155.058594 64.179688 L 156.125 64.164062 C 156.226562 64.160156 156.316406 64.230469 156.339844 64.328125 L 156.601562 65.40625 C 156.625 65.503906 156.578125 65.605469 156.488281 65.648438 L 155.527344 66.125 C 155.535156 66.296875 155.53125 66.472656 155.515625 66.644531 L 156.449219 67.160156 C 156.539062 67.210938 156.582031 67.316406 156.550781 67.414062 L 156.238281 68.476562 C 156.210938 68.570312 156.121094 68.636719 156.019531 68.628906 L 154.949219 68.5625 C 154.867188 68.710938 154.777344 68.859375 154.679688 69.003906 L 155.230469 69.917969 C 155.28125 70.007812 155.265625 70.117188 155.191406 70.1875 L 154.390625 70.953125 C 154.316406 71.019531 154.207031 71.03125 154.121094 70.976562 L 153.234375 70.382812 C 153.089844 70.472656 152.933594 70.554688 152.777344 70.628906 L 152.792969 71.699219 C 152.796875 71.800781 152.726562 71.890625 152.628906 71.910156 L 151.550781 72.171875 C 151.535156 72.175781 151.519531 72.179688 151.5 72.179688 " fill-opacity="1" fill-rule="nonzero"/><path fill="#000000" d="M 136.648438 64.992188 C 136.644531 64.992188 136.644531 64.992188 136.640625 64.992188 C 136.304688 64.992188 135.988281 65.125 135.75 65.367188 C 135.511719 65.605469 135.382812 65.925781 135.382812 66.261719 C 135.382812 66.601562 135.519531 66.917969 135.757812 67.15625 C 136.253906 67.644531 137.054688 67.640625 137.546875 67.148438 C 138.039062 66.652344 138.035156 65.847656 137.539062 65.355469 C 137.300781 65.121094 136.984375 64.992188 136.648438 64.992188 Z M 136.648438 67.953125 C 136.214844 67.953125 135.785156 67.789062 135.453125 67.464844 C 135.128906 67.144531 134.953125 66.71875 134.949219 66.265625 C 134.949219 65.808594 135.121094 65.382812 135.441406 65.0625 C 135.761719 64.738281 136.1875 64.558594 136.640625 64.558594 C 136.644531 64.558594 136.644531 64.558594 136.648438 64.558594 C 137.097656 64.558594 137.523438 64.730469 137.84375 65.050781 C 138.507812 65.707031 138.515625 66.785156 137.855469 67.453125 C 137.523438 67.785156 137.085938 67.953125 136.648438 67.953125 " fill-opacity="1" fill-rule="nonzero"/><path fill="#000000" d="M 168.125 124.910156 C 167.796875 124.910156 167.472656 125.035156 167.226562 125.285156 C 166.988281 125.527344 166.855469 125.84375 166.859375 126.183594 C 166.859375 126.519531 166.992188 126.835938 167.234375 127.074219 C 167.472656 127.3125 167.789062 127.441406 168.125 127.441406 C 168.125 127.441406 168.128906 127.441406 168.128906 127.441406 C 168.46875 127.441406 168.785156 127.304688 169.023438 127.066406 C 169.515625 126.570312 169.511719 125.769531 169.015625 125.277344 C 168.769531 125.03125 168.445312 124.910156 168.125 124.910156 Z M 168.125 127.875 C 167.671875 127.875 167.25 127.699219 166.929688 127.382812 C 166.605469 127.0625 166.425781 126.636719 166.425781 126.183594 C 166.421875 125.730469 166.597656 125.304688 166.917969 124.980469 C 167.578125 124.316406 168.652344 124.308594 169.320312 124.96875 C 169.984375 125.628906 169.988281 126.707031 169.332031 127.371094 C 169.011719 127.695312 168.585938 127.871094 168.132812 127.875 C 168.128906 127.875 168.125 127.875 168.125 127.875 " fill-opacity="1" fill-rule="nonzero"/><path fill="#ffffff" d="M 150.695312 84.40625 C 150.695312 81.3125 153.207031 78.804688 156.304688 78.804688 C 159.402344 78.804688 161.914062 81.3125 161.914062 84.40625 C 161.914062 87.5 159.402344 90.003906 156.304688 90.003906 C 153.207031 90.003906 150.695312 87.5 150.695312 84.40625 " fill-opacity="1" fill-rule="nonzero"/><path fill="#000000" d="M 156.308594 79.019531 C 153.332031 79.019531 150.914062 81.4375 150.914062 84.402344 C 150.914062 87.371094 153.332031 89.789062 156.308594 89.789062 C 159.28125 89.789062 161.699219 87.371094 161.699219 84.402344 C 161.699219 81.4375 159.28125 79.019531 156.308594 79.019531 Z M 156.308594 90.222656 C 153.09375 90.222656 150.480469 87.613281 150.480469 84.402344 C 150.480469 81.195312 153.09375 78.585938 156.308594 78.585938 C 159.519531 78.585938 162.132812 81.195312 162.132812 84.402344 C 162.132812 87.613281 159.519531 90.222656 156.308594 90.222656 " fill-opacity="1" fill-rule="nonzero"/><path fill="#ffbf23" d="M 157.820312 84.964844 C 157.507812 84.964844 157.226562 85.113281 157.050781 85.347656 L 155.15625 84.609375 C 155.15625 84.585938 155.164062 84.5625 155.164062 84.535156 C 155.164062 84.488281 155.15625 84.445312 155.148438 84.398438 L 157.089844 83.5 C 157.269531 83.707031 157.527344 83.835938 157.820312 83.839844 C 158.359375 83.839844 158.800781 83.398438 158.800781 82.855469 C 158.800781 82.3125 158.359375 81.871094 157.820312 81.871094 C 157.28125 81.867188 156.839844 82.308594 156.839844 82.851562 C 156.839844 82.898438 156.847656 82.945312 156.855469 82.992188 L 154.914062 83.886719 C 154.734375 83.683594 154.476562 83.550781 154.183594 83.550781 C 153.644531 83.550781 153.203125 83.988281 153.203125 84.53125 C 153.203125 85.074219 153.644531 85.519531 154.183594 85.519531 C 154.496094 85.519531 154.773438 85.367188 154.953125 85.136719 L 156.847656 85.871094 C 156.847656 85.898438 156.839844 85.921875 156.839844 85.945312 C 156.839844 86.488281 157.28125 86.929688 157.820312 86.933594 C 158.359375 86.933594 158.800781 86.492188 158.800781 85.949219 C 158.800781 85.40625 158.359375 84.964844 157.820312 84.964844 " fill-opacity="1" fill-rule="nonzero"/><path fill="#ffbf23" d="M 144.382812 79.539062 C 144.382812 83.382812 138.257812 92.621094 136.789062 94.777344 C 136.636719 95 136.3125 95 136.160156 94.777344 C 135.109375 93.230469 131.671875 88.058594 129.804688 83.835938 C 129.0625 82.15625 128.570312 80.632812 128.570312 79.539062 C 128.570312 75.171875 132.109375 71.632812 136.476562 71.632812 C 140.839844 71.632812 144.382812 75.171875 144.382812 79.539062 " fill-opacity="1" fill-rule="nonzero"/><path fill="#ffffff" d="M 140.089844 79.539062 C 140.089844 81.535156 138.472656 83.15625 136.476562 83.15625 C 134.476562 83.15625 132.859375 81.535156 132.859375 79.539062 C 132.859375 77.542969 134.476562 75.925781 136.476562 75.925781 C 138.472656 75.925781 140.089844 77.542969 140.089844 79.539062 " fill-opacity="1" fill-rule="nonzero"/><path fill="#000000" d="M 137.179688 82.953125 C 136.359375 82.953125 135.53125 82.691406 134.832031 82.148438 C 134.023438 81.523438 133.507812 80.617188 133.382812 79.601562 C 133.367188 79.484375 133.449219 79.375 133.570312 79.359375 C 133.6875 79.34375 133.796875 79.429688 133.8125 79.546875 C 133.925781 80.449219 134.382812 81.25 135.097656 81.808594 C 136.582031 82.957031 138.71875 82.6875 139.867188 81.207031 C 141.019531 79.726562 140.746094 77.585938 139.265625 76.4375 C 138.699219 75.996094 138.019531 75.75 137.300781 75.726562 C 137.179688 75.722656 137.085938 75.621094 137.089844 75.503906 C 137.09375 75.382812 137.1875 75.289062 137.3125 75.292969 C 138.125 75.320312 138.890625 75.597656 139.535156 76.097656 C 141.203125 77.390625 141.503906 79.804688 140.210938 81.472656 C 139.457031 82.445312 138.324219 82.953125 137.179688 82.953125 " fill-opacity="1" fill-rule="nonzero"/><path fill="#ffffff" d="M 128.34375 57.261719 C 128.34375 54.347656 130.707031 51.988281 133.625 51.988281 C 136.542969 51.988281 138.910156 54.347656 138.910156 57.261719 C 138.910156 60.175781 136.542969 62.539062 133.625 62.539062 C 130.707031 62.539062 128.34375 60.175781 128.34375 57.261719 " fill-opacity="1" fill-rule="nonzero"/><path fill="#000000" d="M 133.625 52.203125 C 130.832031 52.203125 128.558594 54.472656 128.558594 57.261719 C 128.558594 60.050781 130.832031 62.320312 133.625 62.320312 C 136.421875 62.320312 138.695312 60.050781 138.695312 57.261719 C 138.695312 54.472656 136.421875 52.203125 133.625 52.203125 Z M 133.625 62.753906 C 130.59375 62.753906 128.125 60.289062 128.125 57.261719 C 128.125 54.234375 130.59375 51.769531 133.625 51.769531 C 136.660156 51.769531 139.125 54.234375 139.125 57.261719 C 139.125 60.289062 136.660156 62.753906 133.625 62.753906 " fill-opacity="1" fill-rule="nonzero"/><path fill="#ffbf23" d="M 133.65625 59.914062 C 133.601562 59.949219 133.539062 59.949219 133.484375 59.917969 C 133.019531 59.660156 130.859375 58.359375 130.941406 56.660156 C 131.03125 54.863281 132.984375 55.175781 133.464844 56.058594 C 133.484375 56.09375 133.519531 56.113281 133.558594 56.109375 C 133.597656 56.109375 133.632812 56.085938 133.644531 56.050781 C 133.882812 55.484375 134.644531 55.070312 135.367188 55.339844 C 136.222656 55.664062 137.09375 57.789062 133.65625 59.914062 " fill-opacity="1" fill-rule="nonzero"/><path fill="#ffffff" d="M 119.675781 52.375 C 119.652344 52.375 119.628906 52.371094 119.609375 52.363281 C 119.203125 52.234375 118.769531 52.132812 118.320312 52.0625 C 118.203125 52.046875 118.121094 51.933594 118.140625 51.816406 C 118.15625 51.699219 118.269531 51.617188 118.386719 51.636719 C 118.859375 51.707031 119.3125 51.8125 119.742188 51.953125 C 119.855469 51.988281 119.917969 52.109375 119.882812 52.222656 C 119.851562 52.316406 119.765625 52.375 119.675781 52.375 Z M 122.539062 54.238281 C 122.472656 54.238281 122.410156 54.207031 122.367188 54.15625 C 122.039062 53.742188 121.621094 53.375 121.128906 53.0625 C 121.027344 53 120.996094 52.867188 121.0625 52.765625 C 121.125 52.664062 121.257812 52.632812 121.359375 52.695312 C 121.894531 53.035156 122.347656 53.433594 122.707031 53.886719 C 122.78125 53.976562 122.765625 54.113281 122.671875 54.1875 C 122.632812 54.21875 122.585938 54.238281 122.539062 54.238281 Z M 123.449219 57.480469 C 123.441406 57.480469 123.433594 57.480469 123.425781 57.480469 C 123.308594 57.46875 123.222656 57.359375 123.234375 57.242188 C 123.253906 57.066406 123.265625 56.890625 123.265625 56.71875 C 123.265625 56.335938 123.214844 55.960938 123.117188 55.605469 C 123.085938 55.492188 123.152344 55.371094 123.265625 55.339844 C 123.382812 55.308594 123.5 55.375 123.535156 55.492188 C 123.644531 55.882812 123.699219 56.296875 123.699219 56.71875 C 123.699219 56.90625 123.6875 57.097656 123.667969 57.289062 C 123.652344 57.398438 123.558594 57.480469 123.449219 57.480469 Z M 122.15625 60.652344 C 122.113281 60.652344 122.066406 60.636719 122.03125 60.609375 C 121.933594 60.539062 121.914062 60.402344 121.984375 60.304688 C 122.308594 59.867188 122.585938 59.378906 122.800781 58.851562 C 122.847656 58.738281 122.976562 58.6875 123.085938 58.734375 C 123.195312 58.777344 123.25 58.90625 123.203125 59.015625 C 122.972656 59.574219 122.679688 60.097656 122.332031 60.5625 C 122.289062 60.621094 122.226562 60.652344 122.15625 60.652344 Z M 119.527344 62.847656 C 119.449219 62.847656 119.375 62.804688 119.335938 62.730469 C 119.277344 62.625 119.320312 62.496094 119.425781 62.4375 C 119.953125 62.15625 120.414062 61.855469 120.832031 61.515625 C 120.921875 61.4375 121.058594 61.453125 121.132812 61.542969 C 121.210938 61.636719 121.199219 61.773438 121.105469 61.847656 C 120.667969 62.207031 120.183594 62.527344 119.628906 62.820312 C 119.59375 62.839844 119.5625 62.847656 119.527344 62.847656 Z M 116.289062 64.074219 C 116.195312 64.074219 116.109375 64.011719 116.082031 63.917969 C 116.050781 63.800781 116.117188 63.679688 116.230469 63.648438 C 116.851562 63.476562 117.386719 63.304688 117.867188 63.125 C 117.980469 63.085938 118.101562 63.140625 118.144531 63.253906 C 118.1875 63.367188 118.128906 63.492188 118.015625 63.53125 C 117.523438 63.714844 116.980469 63.886719 116.351562 64.066406 C 116.332031 64.070312 116.3125 64.074219 116.289062 64.074219 Z M 112.933594 64.941406 C 112.835938 64.941406 112.75 64.878906 112.722656 64.78125 C 112.691406 64.664062 112.761719 64.546875 112.878906 64.515625 C 113.335938 64.390625 113.816406 64.273438 114.277344 64.15625 L 114.558594 64.085938 C 114.675781 64.058594 114.792969 64.128906 114.824219 64.246094 C 114.851562 64.359375 114.78125 64.480469 114.664062 64.507812 L 114.382812 64.578125 C 113.921875 64.691406 113.445312 64.8125 112.988281 64.933594 C 112.96875 64.9375 112.953125 64.941406 112.933594 64.941406 Z M 109.679688 66.117188 C 109.601562 66.117188 109.527344 66.074219 109.488281 66 C 109.433594 65.894531 109.472656 65.765625 109.578125 65.707031 C 110.046875 65.460938 110.578125 65.234375 111.203125 65.019531 C 111.316406 64.980469 111.4375 65.039062 111.476562 65.152344 C 111.515625 65.265625 111.457031 65.386719 111.34375 65.425781 C 110.742188 65.636719 110.230469 65.851562 109.78125 66.089844 C 109.75 66.109375 109.714844 66.117188 109.679688 66.117188 Z M 107.25 68.488281 C 107.21875 68.488281 107.1875 68.480469 107.15625 68.46875 C 107.050781 68.414062 107.003906 68.285156 107.054688 68.179688 C 107.097656 68.089844 107.144531 68 107.191406 67.914062 C 107.4375 67.480469 107.75 67.085938 108.121094 66.734375 C 108.207031 66.648438 108.34375 66.652344 108.425781 66.742188 C 108.507812 66.828125 108.503906 66.964844 108.417969 67.046875 C 108.078125 67.367188 107.792969 67.734375 107.570312 68.128906 C 107.527344 68.207031 107.484375 68.285156 107.445312 68.367188 C 107.410156 68.441406 107.332031 68.488281 107.25 68.488281 Z M 121.132812 69.277344 C 121.101562 69.277344 121.074219 69.273438 121.042969 69.257812 C 120.539062 69.03125 120 68.894531 119.449219 68.855469 C 119.328125 68.847656 119.242188 68.742188 119.25 68.621094 C 119.257812 68.503906 119.363281 68.414062 119.480469 68.421875 C 120.082031 68.464844 120.667969 68.613281 121.222656 68.867188 C 121.332031 68.914062 121.382812 69.042969 121.332031 69.152344 C 121.292969 69.230469 121.214844 69.277344 121.132812 69.277344 Z M 116.144531 69.667969 C 116.070312 69.667969 115.996094 69.628906 115.957031 69.554688 C 115.898438 69.453125 115.9375 69.320312 116.042969 69.261719 C 116.589844 68.960938 117.148438 68.734375 117.695312 68.59375 C 117.808594 68.566406 117.929688 68.632812 117.957031 68.75 C 117.988281 68.867188 117.917969 68.984375 117.800781 69.011719 C 117.289062 69.144531 116.769531 69.359375 116.25 69.640625 C 116.21875 69.660156 116.183594 69.667969 116.144531 69.667969 Z M 123.636719 71.59375 C 123.5625 71.59375 123.488281 71.558594 123.449219 71.488281 C 123.167969 71 122.820312 70.5625 122.414062 70.183594 C 122.328125 70.101562 122.324219 69.964844 122.40625 69.878906 C 122.488281 69.789062 122.625 69.785156 122.714844 69.867188 C 123.144531 70.273438 123.519531 70.746094 123.824219 71.269531 C 123.882812 71.375 123.847656 71.507812 123.746094 71.566406 C 123.710938 71.585938 123.675781 71.59375 123.636719 71.59375 Z M 106.890625 71.878906 C 106.785156 71.878906 106.695312 71.804688 106.675781 71.699219 C 106.605469 71.28125 106.566406 70.871094 106.566406 70.472656 C 106.566406 70.285156 106.574219 70.097656 106.59375 69.917969 C 106.601562 69.796875 106.707031 69.710938 106.828125 69.722656 C 106.945312 69.734375 107.035156 69.839844 107.023438 69.957031 C 107.007812 70.125 107 70.300781 107 70.472656 C 107 70.84375 107.035156 71.234375 107.101562 71.625 C 107.125 71.746094 107.046875 71.855469 106.925781 71.875 C 106.914062 71.878906 106.902344 71.878906 106.890625 71.878906 Z M 114.265625 72.324219 C 114.261719 72.324219 114.257812 72.324219 114.25 72.324219 C 114.132812 72.316406 114.042969 72.210938 114.050781 72.09375 C 114.105469 71.34375 114.285156 70.757812 114.582031 70.34375 C 114.652344 70.246094 114.789062 70.222656 114.886719 70.292969 C 114.980469 70.363281 115.003906 70.5 114.933594 70.597656 C 114.683594 70.945312 114.53125 71.457031 114.484375 72.125 C 114.476562 72.238281 114.378906 72.324219 114.265625 72.324219 Z M 124.332031 74.921875 C 124.320312 74.921875 124.308594 74.917969 124.292969 74.917969 C 124.175781 74.894531 124.097656 74.785156 124.117188 74.667969 C 124.15625 74.460938 124.175781 74.242188 124.175781 74.019531 C 124.175781 73.699219 124.136719 73.367188 124.0625 73.03125 C 124.035156 72.914062 124.109375 72.796875 124.226562 72.773438 C 124.34375 72.746094 124.457031 72.820312 124.484375 72.9375 C 124.566406 73.304688 124.605469 73.667969 124.605469 74.019531 C 124.605469 74.265625 124.585938 74.511719 124.546875 74.742188 C 124.527344 74.847656 124.433594 74.921875 124.332031 74.921875 Z M 108.128906 75.097656 C 108.054688 75.097656 107.984375 75.058594 107.941406 74.992188 C 107.632812 74.488281 107.367188 73.953125 107.15625 73.40625 C 107.113281 73.296875 107.167969 73.171875 107.28125 73.128906 C 107.390625 73.085938 107.515625 73.140625 107.558594 73.25 C 107.761719 73.773438 108.015625 74.28125 108.3125 74.765625 C 108.375 74.871094 108.339844 75.003906 108.242188 75.066406 C 108.203125 75.085938 108.164062 75.097656 108.128906 75.097656 Z M 114.660156 75.757812 C 114.5625 75.757812 114.476562 75.691406 114.449219 75.59375 C 114.300781 74.984375 114.191406 74.40625 114.121094 73.867188 C 114.105469 73.746094 114.191406 73.636719 114.308594 73.625 C 114.429688 73.609375 114.535156 73.691406 114.550781 73.8125 C 114.617188 74.332031 114.726562 74.898438 114.871094 75.488281 C 114.898438 75.605469 114.828125 75.722656 114.710938 75.75 C 114.695312 75.753906 114.679688 75.757812 114.660156 75.757812 Z M 122 77.355469 C 121.925781 77.355469 121.855469 77.316406 121.816406 77.246094 C 121.753906 77.144531 121.789062 77.011719 121.894531 76.953125 C 122.433594 76.640625 122.894531 76.3125 123.261719 75.972656 C 123.351562 75.890625 123.488281 75.898438 123.570312 75.984375 C 123.648438 76.074219 123.644531 76.210938 123.554688 76.292969 C 123.164062 76.652344 122.679688 77 122.109375 77.328125 C 122.074219 77.347656 122.039062 77.355469 122 77.355469 Z M 110.453125 77.628906 C 110.414062 77.628906 110.367188 77.617188 110.332031 77.589844 C 110.128906 77.449219 109.929688 77.296875 109.742188 77.136719 C 109.488281 76.921875 109.238281 76.675781 109 76.414062 C 108.917969 76.324219 108.925781 76.1875 109.015625 76.109375 C 109.105469 76.027344 109.242188 76.035156 109.320312 76.121094 C 109.546875 76.371094 109.78125 76.601562 110.023438 76.808594 C 110.199219 76.960938 110.386719 77.101562 110.578125 77.234375 C 110.675781 77.304688 110.699219 77.4375 110.632812 77.539062 C 110.589844 77.597656 110.523438 77.628906 110.453125 77.628906 Z M 118.792969 78.644531 C 118.695312 78.644531 118.609375 78.578125 118.582031 78.480469 C 118.554688 78.367188 118.621094 78.246094 118.738281 78.21875 C 119.292969 78.074219 119.835938 77.894531 120.359375 77.6875 C 120.472656 77.640625 120.597656 77.695312 120.640625 77.808594 C 120.6875 77.917969 120.632812 78.046875 120.519531 78.089844 C 119.980469 78.304688 119.417969 78.488281 118.847656 78.636719 C 118.828125 78.640625 118.8125 78.644531 118.792969 78.644531 Z M 113.640625 78.917969 C 113.628906 78.917969 113.617188 78.917969 113.605469 78.914062 C 113.007812 78.804688 112.433594 78.644531 111.898438 78.429688 C 111.785156 78.386719 111.734375 78.261719 111.777344 78.148438 C 111.820312 78.039062 111.945312 77.984375 112.058594 78.027344 C 112.566406 78.230469 113.113281 78.386719 113.679688 78.488281 C 113.796875 78.507812 113.875 78.621094 113.855469 78.738281 C 113.835938 78.84375 113.746094 78.917969 113.640625 78.917969 Z M 115.503906 79.078125 C 115.457031 79.078125 115.410156 79.078125 115.363281 79.078125 C 115.242188 79.078125 115.148438 78.980469 115.148438 78.859375 C 115.148438 78.742188 115.242188 78.644531 115.367188 78.644531 C 115.390625 78.644531 115.414062 78.644531 115.441406 78.648438 C 115.257812 78.1875 115.089844 77.726562 114.9375 77.273438 C 114.902344 77.160156 114.960938 77.039062 115.074219 77 C 115.1875 76.960938 115.3125 77.023438 115.351562 77.136719 C 115.515625 77.628906 115.699219 78.136719 115.902344 78.640625 C 116.285156 78.625 116.675781 78.59375 117.066406 78.542969 C 117.183594 78.527344 117.292969 78.613281 117.308594 78.730469 C 117.324219 78.847656 117.238281 78.957031 117.121094 78.972656 C 116.574219 79.042969 116.03125 79.078125 115.503906 79.078125 Z M 117.246094 82.171875 C 117.171875 82.171875 117.097656 82.132812 117.058594 82.0625 C 116.777344 81.554688 116.507812 81.03125 116.257812 80.507812 C 116.203125 80.402344 116.25 80.273438 116.359375 80.21875 C 116.464844 80.167969 116.59375 80.214844 116.648438 80.320312 C 116.894531 80.835938 117.160156 81.351562 117.4375 81.851562 C 117.496094 81.957031 117.457031 82.085938 117.351562 82.144531 C 117.320312 82.164062 117.285156 82.171875 117.246094 82.171875 Z M 119.105469 85.097656 C 119.039062 85.097656 118.972656 85.066406 118.929688 85.007812 C 118.59375 84.546875 118.265625 84.058594 117.949219 83.5625 C 117.886719 83.460938 117.914062 83.328125 118.015625 83.265625 C 118.117188 83.199219 118.25 83.230469 118.316406 83.332031 C 118.625 83.820312 118.949219 84.296875 119.28125 84.753906 C 119.351562 84.851562 119.328125 84.988281 119.234375 85.058594 C 119.195312 85.085938 119.148438 85.097656 119.105469 85.097656 Z M 121.335938 87.75 C 121.28125 87.75 121.222656 87.726562 121.179688 87.683594 C 120.785156 87.28125 120.390625 86.84375 120.007812 86.386719 C 119.929688 86.296875 119.941406 86.160156 120.03125 86.082031 C 120.125 86.003906 120.261719 86.019531 120.339844 86.109375 C 120.710938 86.554688 121.101562 86.984375 121.488281 87.382812 C 121.574219 87.464844 121.574219 87.601562 121.488281 87.6875 C 121.445312 87.730469 121.390625 87.75 121.335938 87.75 Z M 123.984375 89.976562 C 123.941406 89.976562 123.902344 89.960938 123.863281 89.9375 C 123.394531 89.621094 122.921875 89.265625 122.464844 88.878906 C 122.375 88.800781 122.359375 88.664062 122.4375 88.574219 C 122.515625 88.480469 122.652344 88.46875 122.742188 88.546875 C 123.191406 88.925781 123.648438 89.273438 124.105469 89.578125 C 124.203125 89.644531 124.230469 89.78125 124.164062 89.878906 C 124.121094 89.941406 124.054688 89.976562 123.984375 89.976562 Z M 144.160156 90.195312 C 144.15625 90.195312 144.15625 90.195312 144.152344 90.195312 C 144.023438 90.191406 143.890625 90.1875 143.761719 90.183594 C 143.304688 90.175781 142.867188 90.179688 142.4375 90.195312 C 142.3125 90.199219 142.214844 90.105469 142.210938 89.984375 C 142.207031 89.863281 142.300781 89.765625 142.421875 89.761719 C 142.859375 89.746094 143.304688 89.742188 143.769531 89.75 C 143.902344 89.753906 144.035156 89.757812 144.167969 89.761719 C 144.289062 89.765625 144.378906 89.867188 144.375 89.984375 C 144.371094 90.101562 144.277344 90.195312 144.160156 90.195312 Z M 138.988281 90.5625 C 138.886719 90.5625 138.792969 90.488281 138.777344 90.386719 C 138.753906 90.269531 138.832031 90.15625 138.949219 90.132812 C 139.535156 90.027344 140.101562 89.945312 140.675781 89.882812 C 140.796875 89.867188 140.90625 89.957031 140.917969 90.074219 C 140.929688 90.195312 140.84375 90.300781 140.722656 90.3125 C 140.160156 90.375 139.601562 90.453125 139.027344 90.558594 C 139.015625 90.5625 139 90.5625 138.988281 90.5625 Z M 147.601562 90.578125 C 147.589844 90.578125 147.574219 90.578125 147.5625 90.574219 C 146.996094 90.472656 146.421875 90.386719 145.863281 90.324219 C 145.742188 90.308594 145.660156 90.203125 145.671875 90.082031 C 145.6875 89.964844 145.792969 89.878906 145.910156 89.894531 C 146.480469 89.957031 147.0625 90.042969 147.640625 90.148438 C 147.757812 90.171875 147.835938 90.285156 147.8125 90.402344 C 147.796875 90.503906 147.703125 90.578125 147.601562 90.578125 Z M 135.621094 91.359375 C 135.523438 91.359375 135.433594 91.296875 135.410156 91.199219 C 135.378906 91.082031 135.449219 90.964844 135.566406 90.933594 L 135.941406 90.835938 C 136.359375 90.726562 136.792969 90.613281 137.246094 90.5 C 137.359375 90.472656 137.476562 90.542969 137.507812 90.660156 C 137.535156 90.777344 137.464844 90.894531 137.347656 90.921875 C 136.902344 91.03125 136.46875 91.144531 136.050781 91.253906 L 135.675781 91.355469 C 135.65625 91.359375 135.636719 91.359375 135.621094 91.359375 Z M 150.960938 91.417969 C 150.941406 91.417969 150.917969 91.414062 150.898438 91.410156 C 150.347656 91.234375 149.792969 91.078125 149.242188 90.941406 C 149.128906 90.910156 149.054688 90.792969 149.085938 90.675781 C 149.113281 90.5625 149.230469 90.492188 149.347656 90.519531 C 149.90625 90.660156 150.472656 90.820312 151.027344 90.996094 C 151.140625 91.03125 151.207031 91.152344 151.171875 91.269531 C 151.140625 91.359375 151.054688 91.417969 150.960938 91.417969 Z M 127.085938 91.488281 C 127.066406 91.488281 127.046875 91.484375 127.023438 91.476562 C 126.476562 91.308594 125.925781 91.089844 125.386719 90.820312 C 125.277344 90.769531 125.234375 90.640625 125.285156 90.53125 C 125.339844 90.425781 125.46875 90.382812 125.578125 90.433594 C 126.097656 90.691406 126.625 90.902344 127.152344 91.0625 C 127.265625 91.097656 127.328125 91.21875 127.292969 91.332031 C 127.265625 91.425781 127.179688 91.488281 127.085938 91.488281 Z M 132.226562 92.027344 C 132.113281 92.027344 132.019531 91.941406 132.011719 91.828125 C 132 91.710938 132.085938 91.605469 132.207031 91.59375 C 132.738281 91.546875 133.289062 91.460938 133.890625 91.335938 C 134.007812 91.3125 134.125 91.386719 134.148438 91.503906 C 134.171875 91.621094 134.097656 91.734375 133.980469 91.761719 C 133.363281 91.890625 132.792969 91.976562 132.246094 92.027344 C 132.238281 92.027344 132.234375 92.027344 132.226562 92.027344 Z M 130.496094 92.0625 C 130.492188 92.0625 130.488281 92.0625 130.484375 92.0625 C 129.917969 92.03125 129.332031 91.96875 128.738281 91.867188 C 128.621094 91.847656 128.542969 91.738281 128.5625 91.621094 C 128.582031 91.5 128.691406 91.421875 128.808594 91.441406 C 129.382812 91.539062 129.957031 91.601562 130.507812 91.628906 C 130.625 91.636719 130.71875 91.738281 130.710938 91.855469 C 130.707031 91.972656 130.609375 92.0625 130.496094 92.0625 Z M 154.199219 92.652344 C 154.171875 92.652344 154.140625 92.644531 154.113281 92.632812 C 153.589844 92.398438 153.054688 92.175781 152.523438 91.972656 C 152.410156 91.933594 152.355469 91.808594 152.398438 91.695312 C 152.441406 91.582031 152.566406 91.527344 152.675781 91.570312 C 153.214844 91.773438 153.757812 92 154.289062 92.238281 C 154.398438 92.285156 154.449219 92.414062 154.398438 92.523438 C 154.363281 92.605469 154.285156 92.652344 154.199219 92.652344 Z M 157.28125 94.242188 C 157.242188 94.242188 157.207031 94.230469 157.171875 94.210938 C 156.679688 93.921875 156.171875 93.640625 155.664062 93.378906 C 155.558594 93.324219 155.515625 93.195312 155.570312 93.085938 C 155.625 92.980469 155.757812 92.941406 155.863281 92.996094 C 156.378906 93.261719 156.894531 93.546875 157.390625 93.839844 C 157.496094 93.898438 157.53125 94.03125 157.46875 94.132812 C 157.429688 94.203125 157.355469 94.242188 157.28125 94.242188 Z M 160.15625 96.171875 C 160.113281 96.171875 160.066406 96.15625 160.027344 96.125 C 159.574219 95.785156 159.105469 95.445312 158.628906 95.128906 C 158.527344 95.0625 158.5 94.925781 158.570312 94.828125 C 158.636719 94.726562 158.769531 94.703125 158.867188 94.769531 C 159.355469 95.09375 159.832031 95.433594 160.289062 95.78125 C 160.382812 95.855469 160.402344 95.992188 160.332031 96.085938 C 160.289062 96.140625 160.222656 96.171875 160.15625 96.171875 Z M 162.777344 98.4375 C 162.722656 98.4375 162.667969 98.414062 162.625 98.371094 C 162.222656 97.976562 161.796875 97.585938 161.359375 97.207031 C 161.269531 97.128906 161.261719 96.992188 161.339844 96.902344 C 161.417969 96.8125 161.554688 96.800781 161.644531 96.878906 C 162.085938 97.265625 162.519531 97.660156 162.929688 98.066406 C 163.011719 98.148438 163.015625 98.285156 162.929688 98.371094 C 162.886719 98.414062 162.832031 98.4375 162.777344 98.4375 Z M 165.0625 101.039062 C 164.996094 101.039062 164.929688 101.007812 164.886719 100.949219 C 164.550781 100.503906 164.1875 100.054688 163.804688 99.621094 C 163.726562 99.53125 163.734375 99.394531 163.824219 99.316406 C 163.914062 99.238281 164.050781 99.246094 164.128906 99.335938 C 164.519531 99.777344 164.890625 100.234375 165.234375 100.691406 C 165.304688 100.785156 165.285156 100.921875 165.191406 100.996094 C 165.152344 101.023438 165.105469 101.039062 165.0625 101.039062 Z M 166.902344 103.964844 C 166.824219 103.964844 166.75 103.921875 166.710938 103.847656 C 166.457031 103.347656 166.167969 102.847656 165.863281 102.363281 C 165.796875 102.261719 165.828125 102.125 165.929688 102.0625 C 166.03125 102 166.164062 102.03125 166.230469 102.128906 C 166.542969 102.628906 166.835938 103.140625 167.097656 103.652344 C 167.152344 103.757812 167.109375 103.886719 167.003906 103.941406 C 166.972656 103.957031 166.9375 103.964844 166.902344 103.964844 Z M 168.171875 107.179688 C 168.078125 107.179688 167.988281 107.117188 167.960938 107.023438 C 167.8125 106.480469 167.625 105.9375 167.417969 105.40625 C 167.371094 105.292969 167.425781 105.167969 167.539062 105.125 C 167.648438 105.082031 167.773438 105.132812 167.820312 105.246094 C 168.035156 105.792969 168.222656 106.351562 168.378906 106.90625 C 168.410156 107.019531 168.34375 107.140625 168.230469 107.171875 C 168.210938 107.179688 168.191406 107.179688 168.171875 107.179688 Z M 168.738281 110.589844 C 168.621094 110.589844 168.527344 110.5 168.519531 110.386719 C 168.488281 109.820312 168.429688 109.25 168.335938 108.6875 C 168.316406 108.570312 168.394531 108.460938 168.511719 108.441406 C 168.628906 108.421875 168.742188 108.5 168.761719 108.617188 C 168.855469 109.195312 168.921875 109.78125 168.953125 110.363281 C 168.960938 110.480469 168.867188 110.582031 168.75 110.589844 C 168.746094 110.589844 168.742188 110.589844 168.738281 110.589844 Z M 168.558594 114.042969 C 168.546875 114.042969 168.535156 114.042969 168.523438 114.039062 C 168.40625 114.023438 168.324219 113.910156 168.34375 113.792969 C 168.429688 113.230469 168.492188 112.65625 168.519531 112.09375 C 168.527344 111.972656 168.621094 111.882812 168.75 111.886719 C 168.867188 111.894531 168.957031 111.996094 168.953125 112.117188 C 168.921875 112.695312 168.863281 113.28125 168.769531 113.859375 C 168.753906 113.96875 168.664062 114.042969 168.558594 114.042969 Z M 167.703125 117.394531 C 167.675781 117.394531 167.652344 117.390625 167.628906 117.382812 C 167.515625 117.34375 167.457031 117.21875 167.496094 117.105469 C 167.691406 116.566406 167.859375 116.015625 168 115.46875 C 168.027344 115.351562 168.148438 115.285156 168.265625 115.3125 C 168.378906 115.34375 168.449219 115.460938 168.417969 115.578125 C 168.277344 116.136719 168.105469 116.699219 167.90625 117.25 C 167.875 117.339844 167.789062 117.394531 167.703125 117.394531 Z M 166.25 120.535156 C 166.214844 120.535156 166.179688 120.527344 166.144531 120.507812 C 166.039062 120.449219 166.003906 120.316406 166.0625 120.210938 C 166.347656 119.714844 166.609375 119.203125 166.847656 118.691406 C 166.898438 118.582031 167.027344 118.535156 167.136719 118.582031 C 167.246094 118.632812 167.292969 118.761719 167.242188 118.871094 C 167 119.394531 166.730469 119.917969 166.4375 120.425781 C 166.398438 120.496094 166.324219 120.535156 166.25 120.535156 Z M 164.296875 123.390625 C 164.246094 123.390625 164.199219 123.375 164.160156 123.34375 C 164.066406 123.269531 164.050781 123.132812 164.128906 123.039062 C 164.488281 122.59375 164.832031 122.128906 165.152344 121.664062 C 165.21875 121.566406 165.355469 121.539062 165.453125 121.609375 C 165.550781 121.675781 165.578125 121.808594 165.507812 121.910156 C 165.183594 122.386719 164.832031 122.855469 164.464844 123.3125 C 164.421875 123.363281 164.359375 123.390625 164.296875 123.390625 Z M 161.921875 125.910156 C 161.863281 125.910156 161.804688 125.886719 161.761719 125.839844 C 161.679688 125.753906 161.6875 125.617188 161.777344 125.535156 C 162.199219 125.148438 162.609375 124.742188 163 124.332031 C 163.082031 124.242188 163.21875 124.238281 163.304688 124.320312 C 163.390625 124.402344 163.394531 124.539062 163.3125 124.628906 C 162.917969 125.046875 162.5 125.460938 162.070312 125.855469 C 162.027344 125.890625 161.972656 125.910156 161.921875 125.910156 Z M 159.210938 128.066406 C 159.144531 128.066406 159.074219 128.03125 159.035156 127.96875 C 158.964844 127.871094 158.992188 127.738281 159.089844 127.667969 C 159.5625 127.34375 160.027344 127 160.46875 126.648438 C 160.5625 126.574219 160.699219 126.589844 160.773438 126.683594 C 160.847656 126.777344 160.832031 126.914062 160.738281 126.988281 C 160.289062 127.34375 159.816406 127.695312 159.335938 128.027344 C 159.296875 128.050781 159.253906 128.066406 159.210938 128.066406 Z M 156.238281 129.839844 C 156.160156 129.839844 156.085938 129.796875 156.046875 129.71875 C 155.992188 129.613281 156.035156 129.484375 156.140625 129.429688 C 156.652344 129.167969 157.15625 128.886719 157.644531 128.597656 C 157.746094 128.535156 157.878906 128.570312 157.941406 128.671875 C 158.003906 128.773438 157.96875 128.90625 157.867188 128.96875 C 157.371094 129.261719 156.855469 129.546875 156.335938 129.8125 C 156.304688 129.832031 156.273438 129.839844 156.238281 129.839844 Z M 153.070312 131.230469 C 152.980469 131.230469 152.898438 131.179688 152.867188 131.089844 C 152.824219 130.976562 152.882812 130.855469 152.996094 130.8125 C 153.53125 130.613281 154.070312 130.394531 154.589844 130.167969 C 154.699219 130.121094 154.824219 130.167969 154.875 130.277344 C 154.921875 130.386719 154.871094 130.515625 154.761719 130.5625 C 154.234375 130.796875 153.691406 131.015625 153.144531 131.21875 C 153.121094 131.226562 153.09375 131.230469 153.070312 131.230469 Z M 149.761719 132.253906 C 149.664062 132.253906 149.578125 132.1875 149.550781 132.089844 C 149.523438 131.972656 149.59375 131.855469 149.710938 131.828125 C 150.265625 131.6875 150.824219 131.53125 151.367188 131.363281 C 151.480469 131.328125 151.601562 131.394531 151.636719 131.507812 C 151.671875 131.621094 151.609375 131.742188 151.492188 131.777344 C 150.945312 131.949219 150.378906 132.105469 149.816406 132.246094 C 149.796875 132.25 149.78125 132.253906 149.761719 132.253906 Z M 146.363281 132.921875 C 146.257812 132.921875 146.167969 132.84375 146.148438 132.738281 C 146.132812 132.617188 146.214844 132.507812 146.332031 132.492188 C 146.902344 132.40625 147.472656 132.3125 148.03125 132.203125 C 148.148438 132.179688 148.261719 132.253906 148.285156 132.371094 C 148.308594 132.488281 148.230469 132.605469 148.113281 132.625 C 147.550781 132.738281 146.972656 132.835938 146.394531 132.917969 C 146.382812 132.921875 146.375 132.921875 146.363281 132.921875 " fill-opacity="1" fill-rule="nonzero"/><path fill="#ffbf23" d="M 161.082031 105.527344 C 159.03125 103.507812 159.003906 100.199219 161.015625 98.140625 C 163.027344 96.082031 166.320312 96.050781 168.371094 98.074219 C 170.421875 100.09375 170.453125 103.402344 168.441406 105.460938 C 166.425781 107.519531 163.132812 107.550781 161.082031 105.527344 " fill-opacity="1" fill-rule="nonzero"/><path fill="#ffffff" d="M 163.765625 103.585938 L 163.441406 100.386719 C 163.421875 100.222656 163.585938 100.097656 163.738281 100.15625 L 167.105469 101.40625 C 167.277344 101.472656 167.300781 101.703125 167.148438 101.800781 L 164.105469 103.75 C 163.96875 103.835938 163.785156 103.75 163.765625 103.585938 " fill-opacity="1" fill-rule="nonzero"/><path fill="#ffffff" d="M 168.324219 112.800781 C 168.714844 112.800781 169.03125 113.117188 169.03125 113.503906 L 169.03125 118.363281 C 169.03125 118.753906 168.714844 119.070312 168.324219 119.070312 L 154.914062 119.070312 C 154.523438 119.070312 154.207031 118.753906 154.207031 118.363281 L 154.207031 113.503906 C 154.207031 113.117188 154.523438 112.800781 154.914062 112.800781 L 168.324219 112.800781 " fill-opacity="1" fill-rule="nonzero"/><path fill="#000000" d="M 168.324219 119.285156 L 154.914062 119.285156 C 154.402344 119.285156 153.988281 118.871094 153.988281 118.363281 L 153.988281 113.503906 C 153.988281 112.996094 154.402344 112.582031 154.914062 112.582031 L 157.558594 112.582031 C 157.679688 112.582031 157.773438 112.679688 157.773438 112.800781 C 157.773438 112.917969 157.679688 113.015625 157.558594 113.015625 L 154.914062 113.015625 C 154.644531 113.015625 154.421875 113.234375 154.421875 113.503906 L 154.421875 118.363281 C 154.421875 118.632812 154.644531 118.851562 154.914062 118.851562 L 168.324219 118.851562 C 168.597656 118.851562 168.816406 118.632812 168.816406 118.363281 L 168.816406 113.503906 C 168.816406 113.234375 168.597656 113.015625 168.324219 113.015625 L 159.34375 113.015625 C 159.222656 113.015625 159.125 112.917969 159.125 112.800781 C 159.125 112.679688 159.222656 112.582031 159.34375 112.582031 L 168.324219 112.582031 C 168.835938 112.582031 169.25 112.996094 169.25 113.503906 L 169.25 118.363281 C 169.25 118.871094 168.835938 119.285156 168.324219 119.285156 " fill-opacity="1" fill-rule="nonzero"/><path fill="#000000" d="M 167.074219 115.328125 L 156.414062 115.328125 C 156.296875 115.328125 156.199219 115.230469 156.199219 115.113281 C 156.199219 114.992188 156.296875 114.894531 156.414062 114.894531 L 167.074219 114.894531 C 167.195312 114.894531 167.289062 114.992188 167.289062 115.113281 C 167.289062 115.230469 167.195312 115.328125 167.074219 115.328125 " fill-opacity="1" fill-rule="nonzero"/><path fill="#000000" d="M 167.074219 116.75 L 164.847656 116.75 C 164.726562 116.75 164.628906 116.652344 164.628906 116.535156 C 164.628906 116.414062 164.726562 116.316406 164.847656 116.316406 L 167.074219 116.316406 C 167.195312 116.316406 167.289062 116.414062 167.289062 116.535156 C 167.289062 116.652344 167.195312 116.75 167.074219 116.75 " fill-opacity="1" fill-rule="nonzero"/><path fill="#000000" d="M 163.421875 116.75 L 156.414062 116.75 C 156.296875 116.75 156.199219 116.652344 156.199219 116.535156 C 156.199219 116.414062 156.296875 116.316406 156.414062 116.316406 L 163.421875 116.316406 C 163.539062 116.316406 163.636719 116.414062 163.636719 116.535156 C 163.636719 116.652344 163.539062 116.75 163.421875 116.75 " fill-opacity="1" fill-rule="nonzero"/><path fill="#ffffff" d="M 150.867188 127.722656 C 150.867188 124.808594 153.230469 122.445312 156.148438 122.445312 C 159.070312 122.445312 161.433594 124.808594 161.433594 127.722656 C 161.433594 130.636719 159.070312 132.996094 156.148438 132.996094 C 153.230469 132.996094 150.867188 130.636719 150.867188 127.722656 " fill-opacity="1" fill-rule="nonzero"/><path fill="#000000" d="M 156.152344 122.664062 C 153.355469 122.664062 151.082031 124.933594 151.082031 127.722656 C 151.082031 130.511719 153.355469 132.78125 156.152344 132.78125 C 158.945312 132.78125 161.21875 130.511719 161.21875 127.722656 C 161.21875 124.933594 158.945312 122.664062 156.152344 122.664062 Z M 156.152344 133.210938 C 153.117188 133.210938 150.648438 130.75 150.648438 127.722656 C 150.648438 124.691406 153.117188 122.230469 156.152344 122.230469 C 159.183594 122.230469 161.652344 124.691406 161.652344 127.722656 C 161.652344 130.75 159.183594 133.210938 156.152344 133.210938 " fill-opacity="1" fill-rule="nonzero"/><path fill="#ffbf23" d="M 156.179688 130.375 C 156.128906 130.40625 156.0625 130.410156 156.007812 130.378906 C 155.542969 130.117188 153.382812 128.820312 153.464844 127.121094 C 153.554688 125.324219 155.507812 125.636719 155.992188 126.519531 C 156.007812 126.550781 156.042969 126.574219 156.082031 126.570312 C 156.121094 126.570312 156.152344 126.546875 156.167969 126.511719 C 156.40625 125.941406 157.167969 125.53125 157.890625 125.800781 C 158.746094 126.121094 159.621094 128.246094 156.179688 130.375 " fill-opacity="1" fill-rule="nonzero"/></svg>