<svg xmlns="http://www.w3.org/2000/svg" xmlns:xlink="http://www.w3.org/1999/xlink" width="300" zoomAndPan="magnify" viewBox="0 0 224.87999 225" height="300" preserveAspectRatio="xMidYMid meet" version="1.0"><path fill="#14697d" d="M 167.371094 78.226562 C 163.578125 70.769531 155.992188 66.742188 151.289062 64.242188 C 130.960938 53.441406 103.265625 56.316406 84.855469 66.386719 C 66.6875 76.328125 50.851562 99.863281 57.488281 125.433594 C 64.152344 151.105469 90.085938 164.304688 109.703125 167.101562 C 140.851562 171.546875 167.019531 151.332031 168.453125 144.3125 C 168.894531 142.148438 168.78125 140.234375 168.78125 140.234375 C 168.226562 135.167969 163.949219 132.160156 162.953125 120.613281 C 161.117188 99.375 174.027344 91.304688 167.371094 78.226562 " fill-opacity="1" fill-rule="nonzero"/><path fill="#ffbf23" d="M 130.894531 149.519531 C 127.101562 149.519531 123.46875 150.984375 120.785156 153.59375 C 118.105469 156.203125 114.46875 157.671875 110.675781 157.671875 L 83.121094 157.671875 C 91.804688 162.816406 101.328125 165.910156 109.703125 167.101562 C 134.898438 170.699219 156.839844 158.15625 165.058594 149.519531 L 130.894531 149.519531 " fill-opacity="1" fill-rule="nonzero"/><path fill="#a6201e" d="M 108.507812 167.351562 L 62.5 167.351562 C 60.542969 167.351562 58.957031 165.707031 58.957031 163.675781 L 63.441406 67.429688 C 63.441406 65.402344 65.03125 63.757812 66.988281 63.757812 L 112.992188 63.757812 C 114.949219 63.757812 116.539062 65.402344 116.539062 67.429688 L 112.050781 163.675781 C 112.050781 165.707031 110.464844 167.351562 108.507812 167.351562 " fill-opacity="1" fill-rule="nonzero"/><path fill="#ffbf23" d="M 105.785156 167.121094 L 59.777344 167.121094 C 57.820312 167.121094 56.234375 165.480469 56.234375 163.460938 L 60.71875 67.207031 C 60.71875 65.1875 62.304688 63.550781 64.261719 63.550781 L 110.269531 63.550781 C 112.226562 63.550781 113.8125 65.1875 113.8125 67.207031 L 109.328125 163.460938 C 109.328125 165.480469 107.742188 167.121094 105.785156 167.121094 " fill-opacity="1" fill-rule="nonzero"/><path fill="#a6201e" d="M 64.265625 63.746094 C 62.417969 63.746094 60.917969 65.300781 60.917969 67.207031 L 56.433594 163.472656 C 56.433594 165.367188 57.933594 166.921875 59.777344 166.921875 L 105.785156 166.921875 C 107.628906 166.921875 109.128906 165.367188 109.128906 163.460938 L 113.617188 67.195312 C 113.617188 65.300781 112.113281 63.746094 110.269531 63.746094 Z M 105.785156 167.320312 L 59.777344 167.320312 C 57.714844 167.320312 56.035156 165.589844 56.035156 163.460938 L 60.519531 67.195312 C 60.519531 65.078125 62.199219 63.347656 64.265625 63.347656 L 110.269531 63.347656 C 112.335938 63.347656 114.015625 65.078125 114.015625 67.207031 L 109.527344 163.472656 C 109.527344 165.589844 107.847656 167.320312 105.785156 167.320312 " fill-opacity="1" fill-rule="nonzero"/><path fill="#ffffff" d="M 103.699219 164.980469 L 61.765625 164.980469 C 59.980469 164.980469 58.535156 163.488281 58.535156 161.648438 L 62.863281 69.257812 C 62.863281 67.417969 64.3125 65.921875 66.09375 65.921875 L 108.027344 65.921875 C 109.8125 65.921875 111.261719 67.417969 111.261719 69.257812 L 106.929688 161.648438 C 106.929688 163.488281 105.484375 164.980469 103.699219 164.980469 " fill-opacity="1" fill-rule="nonzero"/><path fill="#ffbf23" d="M 77.296875 65.765625 L 78.40625 67.453125 C 79.082031 68.480469 80.210938 69.09375 81.417969 69.09375 L 92.621094 69.09375 C 93.804688 69.09375 94.914062 68.507812 95.59375 67.515625 L 96.796875 65.765625 L 77.296875 65.765625 " fill-opacity="1" fill-rule="nonzero"/><path fill="#ffffff" d="M 93.871094 78.902344 L 58.066406 78.902344 C 57.117188 78.902344 56.359375 78.128906 56.40625 77.203125 L 56.609375 73.179688 C 56.652344 72.316406 57.382812 71.640625 58.269531 71.640625 L 94.074219 71.640625 C 95.027344 71.640625 95.785156 72.414062 95.738281 73.339844 L 95.535156 77.363281 C 95.488281 78.226562 94.757812 78.902344 93.871094 78.902344 " fill-opacity="1" fill-rule="nonzero"/><path fill="#a6201e" d="M 58.269531 71.839844 C 57.488281 71.839844 56.847656 72.433594 56.808594 73.1875 L 56.605469 77.214844 C 56.585938 77.597656 56.722656 77.964844 56.992188 78.246094 C 57.273438 78.542969 57.652344 78.703125 58.066406 78.703125 L 93.871094 78.703125 C 94.652344 78.703125 95.296875 78.109375 95.335938 77.351562 L 95.539062 73.328125 C 95.558594 72.945312 95.421875 72.578125 95.152344 72.296875 C 94.871094 72 94.488281 71.839844 94.074219 71.839844 Z M 93.871094 79.101562 L 58.066406 79.101562 C 57.550781 79.101562 57.054688 78.890625 56.703125 78.519531 C 56.359375 78.160156 56.183594 77.6875 56.207031 77.195312 L 56.410156 73.167969 C 56.460938 72.199219 57.277344 71.441406 58.269531 71.441406 L 94.074219 71.441406 C 94.59375 71.441406 95.089844 71.652344 95.441406 72.023438 C 95.785156 72.382812 95.960938 72.855469 95.9375 73.347656 L 95.734375 77.375 C 95.683594 78.34375 94.867188 79.101562 93.871094 79.101562 " fill-opacity="1" fill-rule="nonzero"/><path fill="#ffbf23" d="M 79.207031 76.433594 L 67.90625 76.433594 C 67.226562 76.433594 66.679688 75.878906 66.714844 75.214844 C 66.746094 74.59375 67.269531 74.109375 67.90625 74.109375 L 79.207031 74.109375 C 79.890625 74.109375 80.433594 74.664062 80.402344 75.328125 C 80.371094 75.949219 79.84375 76.433594 79.207031 76.433594 " fill-opacity="1" fill-rule="nonzero"/><path fill="#14697d" d="M 89.972656 76.433594 L 83.324219 76.433594 C 82.644531 76.433594 82.101562 75.878906 82.132812 75.214844 C 82.164062 74.59375 82.6875 74.109375 83.324219 74.109375 L 89.972656 74.109375 C 90.65625 74.109375 91.199219 74.664062 91.167969 75.328125 C 91.136719 75.949219 90.609375 76.433594 89.972656 76.433594 " fill-opacity="1" fill-rule="nonzero"/><path fill="#a6201e" d="M 62.097656 73.167969 C 61.117188 73.167969 60.316406 73.945312 60.316406 74.898438 C 60.316406 75.851562 61.117188 76.628906 62.097656 76.628906 C 63.082031 76.628906 63.878906 75.851562 63.878906 74.898438 C 63.878906 73.945312 63.082031 73.167969 62.097656 73.167969 Z M 62.097656 77.027344 C 60.894531 77.027344 59.917969 76.070312 59.917969 74.898438 C 59.917969 73.722656 60.894531 72.769531 62.097656 72.769531 C 63.300781 72.769531 64.277344 73.722656 64.277344 74.898438 C 64.277344 76.070312 63.300781 77.027344 62.097656 77.027344 " fill-opacity="1" fill-rule="nonzero"/><path fill="#a6201e" d="M 59.410156 77.839844 C 59.355469 77.839844 59.304688 77.820312 59.265625 77.777344 C 59.1875 77.699219 59.191406 77.570312 59.273438 77.496094 L 60.640625 76.191406 C 60.71875 76.113281 60.84375 76.117188 60.921875 76.195312 C 60.996094 76.277344 60.992188 76.402344 60.914062 76.476562 L 59.546875 77.785156 C 59.507812 77.820312 59.457031 77.839844 59.410156 77.839844 " fill-opacity="1" fill-rule="nonzero"/><path fill="#ffffff" d="M 168.808594 102.816406 C 168.808594 126.363281 149.332031 145.449219 125.3125 145.449219 C 101.289062 145.449219 81.816406 126.363281 81.816406 102.816406 C 81.816406 79.269531 101.289062 60.179688 125.3125 60.179688 C 149.332031 60.179688 168.808594 79.269531 168.808594 102.816406 " fill-opacity="1" fill-rule="nonzero"/><path fill="#000000" d="M 125.3125 145.648438 C 114.441406 145.648438 104.023438 141.710938 95.972656 134.558594 C 95.890625 134.488281 95.882812 134.363281 95.957031 134.277344 C 96.03125 134.195312 96.15625 134.1875 96.238281 134.261719 C 104.214844 141.347656 114.539062 145.25 125.3125 145.25 C 126.460938 145.25 127.617188 145.207031 128.757812 145.117188 C 128.867188 145.109375 128.964844 145.191406 128.972656 145.300781 C 128.980469 145.410156 128.898438 145.507812 128.789062 145.515625 C 127.640625 145.605469 126.46875 145.648438 125.3125 145.648438 " fill-opacity="1" fill-rule="nonzero"/><path fill="#14697d" d="M 116.953125 63.992188 C 116.773438 64.25 117.304688 65.117188 118.363281 65.117188 C 119.417969 65.117188 119.945312 64.941406 120.386719 66.066406 C 120.828125 67.1875 120.210938 70.984375 120.828125 72.363281 C 121.441406 73.746094 122.5 74.609375 123.292969 73.832031 C 124.082031 73.054688 123.996094 70.984375 124.964844 70.464844 C 125.933594 69.949219 129.453125 67.878906 129.632812 66.152344 C 129.808594 64.425781 128.574219 63.128906 125.492188 62.785156 C 122.410156 62.441406 118.273438 62.09375 116.953125 63.992188 " fill-opacity="1" fill-rule="nonzero"/><path fill="#ffbf23" d="M 105.125 102.652344 C 104.664062 102.878906 104.390625 103.3125 104.414062 103.773438 C 104.484375 105.21875 103.855469 108.828125 102.542969 109.976562 C 100.867188 111.445312 101.484375 114.089844 101.460938 115.15625 C 101.40625 117.324219 101.644531 118.289062 104.304688 119.324219 C 106.960938 120.359375 108.003906 120.417969 108.199219 122.488281 C 108.394531 124.5625 108.703125 132.5625 109.488281 134.632812 C 110.277344 136.707031 111.949219 140.070312 112.835938 140.847656 C 113.722656 141.625 115.789062 142.054688 114.511719 139.121094 C 113.230469 136.1875 112.441406 134.804688 113.917969 133.167969 C 115.394531 131.527344 117.859375 127.730469 118.054688 126.261719 C 118.25 124.796875 119.136719 123.933594 119.925781 123.757812 C 120.710938 123.585938 122.386719 123.070312 122.878906 122.550781 C 123.371094 122.035156 122.386719 120.566406 122.089844 119.273438 C 121.792969 117.976562 121.792969 117.199219 124.257812 116.164062 C 126.71875 115.128906 125.535156 112.195312 122.1875 111.417969 C 118.839844 110.640625 116.773438 109 117.167969 107.363281 C 117.5625 105.722656 114.902344 105.894531 113.328125 105.117188 C 111.753906 104.339844 111.800781 103.121094 110.046875 102.539062 C 107.679688 101.753906 106.015625 102.21875 105.125 102.652344 " fill-opacity="1" fill-rule="nonzero"/><path fill="#ffbf23" d="M 156.980469 100.46875 C 156.238281 99.378906 156.332031 97.652344 158.183594 95.289062 C 159.640625 93.433594 157.550781 91.574219 156.585938 90.863281 C 156.410156 90.734375 156.488281 90.460938 156.710938 90.4375 C 157.90625 90.304688 160.675781 90.699219 161.894531 96.742188 C 163.472656 104.5625 164.121094 101.832031 164.957031 100.925781 C 165.789062 100.015625 164.226562 98.316406 165.789062 96.5625 C 166.773438 95.453125 167.273438 93.839844 167.527344 92.523438 C 164.390625 80.121094 155.71875 69.863281 144.230469 64.414062 C 144.246094 65.773438 143.910156 70.515625 138.246094 68.5625 C 138.246094 68.5625 134.722656 66.925781 135.554688 73.5625 C 136.390625 80.199219 139.265625 73.105469 139.820312 72.835938 C 140.378906 72.5625 141.863281 72.199219 141.214844 76.652344 C 141.214844 76.652344 141.121094 78.199219 138.246094 77.925781 C 135.371094 77.652344 134.8125 79.015625 134.8125 79.742188 C 134.8125 80.46875 135.09375 82.378906 133.515625 83.742188 C 131.9375 85.105469 132.402344 88.652344 134.535156 87.46875 C 136.667969 86.289062 138.152344 82.5625 140.101562 82.199219 C 142.046875 81.835938 143.808594 84.289062 145.664062 83.652344 C 147.519531 83.015625 146.683594 79.925781 147.613281 79.925781 C 148.539062 79.925781 150.488281 81.742188 150.207031 83.105469 C 149.929688 84.46875 147.054688 85.105469 147.796875 86.742188 C 148.539062 88.378906 150.117188 87.835938 150.582031 88.925781 C 151.042969 90.015625 148.261719 91.289062 146.035156 89.925781 C 143.808594 88.5625 143.4375 90.5625 142.324219 89.652344 C 141.214844 88.742188 141.121094 86.835938 139.542969 87.46875 C 137.96875 88.105469 137.039062 89.378906 135 90.289062 C 132.957031 91.199219 131.289062 92.378906 131.289062 93.652344 C 131.289062 94.925781 132.03125 96.289062 131.660156 98.289062 C 131.289062 100.289062 130.640625 105.742188 137.320312 104.652344 C 143.996094 103.5625 143.160156 106.925781 143.160156 107.289062 C 143.160156 107.652344 143.066406 112.378906 143.71875 113.195312 C 144.367188 114.015625 145.851562 116.378906 143.71875 119.46875 C 141.585938 122.558594 142.417969 129.46875 144.367188 128.5625 C 146.3125 127.652344 148.261719 124.105469 150.671875 122.289062 C 153.085938 120.46875 156.421875 112.5625 155.03125 110.105469 C 153.640625 107.652344 156.980469 105.652344 157.441406 104.015625 C 157.90625 102.378906 157.722656 101.5625 156.980469 100.46875 " fill-opacity="1" fill-rule="nonzero"/><path fill="#ffbf23" d="M 94.167969 72.941406 C 94.207031 74.457031 94.066406 76.480469 93.066406 78.023438 C 90.054688 82.683594 90.152344 85.015625 89.859375 89.675781 C 89.570312 94.335938 96.199219 102.550781 97.851562 103.414062 C 99.503906 104.277344 99.761719 102.222656 99.761719 100.585938 C 99.761719 98.945312 99.054688 96.976562 98.082031 95.078125 C 97.109375 93.179688 97.109375 91.972656 97.402344 91.195312 C 97.695312 90.417969 98.859375 90.160156 99.636719 90.9375 C 100.414062 91.710938 102.285156 92.402344 103.183594 91.917969 C 104.285156 91.320312 103.855469 88.984375 104.246094 88.207031 C 104.632812 87.429688 106.773438 86.914062 107.648438 85.273438 C 108.523438 83.632812 109.980469 82.941406 111.730469 82.167969 C 113.476562 81.390625 115.035156 81.042969 115.324219 80.527344 C 115.617188 80.007812 115.226562 78.800781 115.714844 77.417969 C 116.199219 76.039062 117.367188 74.398438 116.878906 73.707031 C 116.394531 73.019531 114.9375 71.898438 112.214844 73.621094 C 109.492188 75.347656 108.8125 75.347656 108.035156 74.054688 C 107.257812 72.757812 108.910156 69.394531 112.3125 69.394531 C 115.714844 69.394531 116.394531 68.359375 116.492188 67.582031 C 116.589844 66.804688 115.519531 65.941406 114.351562 65.769531 C 113.1875 65.597656 112.992188 66.199219 108.132812 67.925781 C 104.890625 69.078125 101.875 68.433594 100.335938 68.125 C 98.128906 69.574219 96.0625 71.183594 94.167969 72.941406 " fill-opacity="1" fill-rule="nonzero"/><path fill="#ffbf23" d="M 166.757812 110.496094 C 166.097656 110.355469 166.246094 111.925781 165.371094 112.214844 C 164.492188 112.5 164.128906 112.929688 164.347656 114.503906 C 164.566406 116.078125 164.199219 118.15625 163.324219 118.941406 C 162.449219 119.730469 161.207031 120.300781 161.136719 122.234375 C 161.0625 124.167969 159.234375 126.027344 158.140625 126.671875 C 157.046875 127.316406 155.367188 128.316406 155.367188 129.964844 C 155.367188 131.023438 155.335938 132.378906 155.589844 133.421875 C 161.386719 127.910156 165.621094 120.832031 167.582031 112.882812 C 167.414062 111.828125 167.132812 110.578125 166.757812 110.496094 " fill-opacity="1" fill-rule="nonzero"/><path fill="#000000" d="M 157.230469 131.976562 C 157.179688 131.976562 157.132812 131.960938 157.09375 131.921875 C 157.011719 131.847656 157.007812 131.722656 157.085938 131.640625 C 164.515625 123.777344 168.609375 113.539062 168.609375 102.816406 C 168.609375 79.414062 149.183594 60.378906 125.3125 60.378906 C 110.144531 60.378906 96.347656 67.949219 88.398438 80.628906 C 88.339844 80.722656 88.214844 80.75 88.121094 80.691406 C 88.027344 80.632812 88 80.507812 88.058594 80.414062 C 91.898438 74.289062 97.292969 69.167969 103.660156 65.601562 C 110.222656 61.925781 117.707031 59.980469 125.3125 59.980469 C 136.980469 59.980469 147.953125 64.433594 156.207031 72.523438 C 164.460938 80.617188 169.007812 91.371094 169.007812 102.816406 C 169.007812 113.640625 164.875 123.976562 157.375 131.914062 C 157.335938 131.957031 157.28125 131.976562 157.230469 131.976562 " fill-opacity="1" fill-rule="nonzero"/><path fill="#a6201e" d="M 144.285156 68.320312 C 144.285156 69.273438 143.492188 70.042969 142.515625 70.042969 C 141.539062 70.042969 140.746094 69.273438 140.746094 68.320312 C 140.746094 67.367188 141.539062 66.597656 142.515625 66.597656 C 143.492188 66.597656 144.285156 67.367188 144.285156 68.320312 " fill-opacity="1" fill-rule="nonzero"/><path fill="#a6201e" d="M 104.648438 78.800781 C 104.648438 79.75 103.855469 80.523438 102.878906 80.523438 C 101.902344 80.523438 101.109375 79.75 101.109375 78.800781 C 101.109375 77.847656 101.902344 77.074219 102.878906 77.074219 C 103.855469 77.074219 104.648438 77.847656 104.648438 78.800781 " fill-opacity="1" fill-rule="nonzero"/><path fill="#a6201e" d="M 155.5 86.378906 C 155.5 87.328125 154.707031 88.101562 153.730469 88.101562 C 152.75 88.101562 151.957031 87.328125 151.957031 86.378906 C 151.957031 85.425781 152.75 84.652344 153.730469 84.652344 C 154.707031 84.652344 155.5 85.425781 155.5 86.378906 " fill-opacity="1" fill-rule="nonzero"/><path fill="#a6201e" d="M 150.34375 94.570312 C 150.34375 95.523438 149.550781 96.292969 148.574219 96.292969 C 147.597656 96.292969 146.804688 95.523438 146.804688 94.570312 C 146.804688 93.617188 147.597656 92.847656 148.574219 92.847656 C 149.550781 92.847656 150.34375 93.617188 150.34375 94.570312 " fill-opacity="1" fill-rule="nonzero"/><path fill="#ffffff" d="M 90.109375 111.585938 L 81.304688 111.585938 C 77.445312 111.585938 74.316406 114.628906 74.316406 118.386719 C 74.316406 120.871094 74.566406 123.347656 75.058594 125.78125 L 76.324219 132.023438 C 77.210938 136.386719 81.140625 139.53125 85.707031 139.53125 C 90.273438 139.53125 94.203125 136.386719 95.085938 132.023438 L 96.351562 125.78125 C 96.847656 123.347656 97.097656 120.871094 97.097656 118.386719 C 97.097656 114.628906 93.96875 111.585938 90.109375 111.585938 " fill-opacity="1" fill-rule="nonzero"/><path fill="#ffbf23" d="M 88.089844 125.039062 L 83.324219 125.039062 C 81.992188 125.039062 80.914062 123.957031 80.914062 122.628906 L 80.914062 111.585938 L 90.5 111.585938 L 90.5 122.628906 C 90.5 123.957031 89.421875 125.039062 88.089844 125.039062 " fill-opacity="1" fill-rule="nonzero"/><path fill="#000000" d="M 85.707031 139.730469 C 81.058594 139.730469 77.03125 136.503906 76.128906 132.0625 L 74.863281 125.820312 C 74.367188 123.378906 74.117188 120.875 74.117188 118.386719 C 74.117188 114.527344 77.339844 111.386719 81.304688 111.386719 L 90.109375 111.386719 C 92.933594 111.386719 95.511719 113.007812 96.667969 115.523438 C 96.714844 115.621094 96.671875 115.742188 96.570312 115.785156 C 96.46875 115.832031 96.351562 115.789062 96.304688 115.6875 C 95.210938 113.316406 92.78125 111.785156 90.109375 111.785156 L 81.304688 111.785156 C 77.5625 111.785156 74.515625 114.746094 74.515625 118.386719 C 74.515625 120.851562 74.765625 123.324219 75.253906 125.742188 L 76.519531 131.984375 C 77.382812 136.242188 81.246094 139.332031 85.707031 139.332031 C 90.164062 139.332031 94.027344 136.242188 94.890625 131.984375 L 96.15625 125.742188 C 96.414062 124.472656 96.609375 123.175781 96.730469 121.886719 C 96.742188 121.777344 96.839844 121.695312 96.949219 121.707031 C 97.058594 121.71875 97.136719 121.816406 97.128906 121.925781 C 97.003906 123.226562 96.808594 124.539062 96.546875 125.820312 L 95.28125 132.0625 C 94.382812 136.503906 90.355469 139.730469 85.707031 139.730469 " fill-opacity="1" fill-rule="nonzero"/><path fill="#a6201e" d="M 123.753906 120.726562 C 123.753906 122.09375 122.613281 123.207031 121.203125 123.207031 C 119.796875 123.207031 118.65625 122.09375 118.65625 120.726562 C 118.65625 119.355469 119.796875 118.242188 121.203125 118.242188 C 122.613281 118.242188 123.753906 119.355469 123.753906 120.726562 " fill-opacity="1" fill-rule="nonzero"/><path fill="#a6201e" d="M 121.207031 72.6875 C 112.820312 72.6875 106.019531 79.289062 106.019531 87.429688 C 106.019531 89.464844 106.96875 92.3125 108.390625 95.4375 C 111.980469 103.316406 118.585938 112.960938 120.601562 115.839844 C 120.894531 116.253906 121.515625 116.257812 121.808594 115.84375 C 124.625 111.820312 136.390625 94.597656 136.390625 87.429688 C 136.390625 79.289062 129.59375 72.6875 121.207031 72.6875 " fill-opacity="1" fill-rule="nonzero"/><path fill="#000000" d="M 114.957031 107.507812 C 114.890625 107.507812 114.824219 107.472656 114.789062 107.410156 C 111.941406 102.847656 109.726562 98.847656 108.210938 95.519531 C 106.625 92.039062 105.820312 89.316406 105.820312 87.429688 C 105.820312 79.191406 112.722656 72.488281 121.203125 72.488281 C 129.6875 72.488281 136.589844 79.191406 136.589844 87.429688 C 136.589844 89.496094 135.625 92.5625 133.722656 96.542969 C 133.671875 96.644531 133.554688 96.6875 133.453125 96.636719 C 133.355469 96.589844 133.3125 96.472656 133.359375 96.371094 C 135.238281 92.445312 136.191406 89.4375 136.191406 87.429688 C 136.191406 79.410156 129.46875 72.886719 121.203125 72.886719 C 112.941406 72.886719 106.21875 79.410156 106.21875 87.429688 C 106.21875 89.257812 107.011719 91.925781 108.574219 95.355469 C 110.082031 98.664062 112.285156 102.652344 115.125 107.199219 C 115.183594 107.292969 115.15625 107.417969 115.0625 107.476562 C 115.03125 107.496094 114.992188 107.507812 114.957031 107.507812 Z M 121.207031 116.351562 C 120.898438 116.351562 120.613281 116.203125 120.4375 115.957031 C 119.894531 115.179688 119.023438 113.921875 117.972656 112.339844 C 117.910156 112.25 117.933594 112.125 118.027344 112.066406 C 118.117188 112.003906 118.242188 112.027344 118.304688 112.121094 C 119.351562 113.695312 120.222656 114.953125 120.765625 115.726562 C 120.867188 115.871094 121.027344 115.953125 121.207031 115.953125 C 121.382812 115.953125 121.542969 115.871094 121.644531 115.730469 C 122.464844 114.558594 124.125 112.148438 126.03125 109.179688 C 126.089844 109.085938 126.214844 109.058594 126.308594 109.117188 C 126.398438 109.175781 126.425781 109.300781 126.367188 109.394531 C 124.457031 112.371094 122.792969 114.785156 121.96875 115.957031 C 121.796875 116.203125 121.511719 116.351562 121.207031 116.351562 " fill-opacity="1" fill-rule="nonzero"/><path fill="#ffffff" d="M 127.847656 87.394531 C 127.847656 90.964844 124.875 93.863281 121.207031 93.863281 C 117.535156 93.863281 114.5625 90.964844 114.5625 87.394531 C 114.5625 83.820312 117.535156 80.925781 121.207031 80.925781 C 124.875 80.925781 127.847656 83.820312 127.847656 87.394531 " fill-opacity="1" fill-rule="nonzero"/><path fill="#000000" d="M 131.238281 106.480469 C 130.78125 106.480469 130.367188 106.164062 130.265625 105.699219 C 130.144531 105.160156 130.484375 104.628906 131.023438 104.511719 C 132.40625 104.203125 133.277344 103.582031 133.285156 102.894531 C 133.296875 102.09375 132.226562 101.011719 130.15625 100.488281 C 129.625 100.355469 129.300781 99.8125 129.4375 99.277344 C 129.570312 98.746094 130.113281 98.421875 130.644531 98.558594 C 133.488281 99.273438 135.308594 100.988281 135.277344 102.921875 C 135.253906 104.609375 133.824219 105.929688 131.453125 106.457031 C 131.378906 106.472656 131.308594 106.480469 131.238281 106.480469 " fill-opacity="1" fill-rule="nonzero"/><path fill="#ffffff" d="M 104.007812 101.066406 L 102.109375 101.066406 L 102.109375 93.996094 L 104.007812 93.996094 C 105.015625 93.996094 105.835938 94.8125 105.835938 95.820312 L 105.835938 99.242188 C 105.835938 100.25 105.015625 101.066406 104.007812 101.066406 " fill-opacity="1" fill-rule="nonzero"/><path fill="#000000" d="M 102.308594 100.867188 L 104.007812 100.867188 C 104.90625 100.867188 105.636719 100.140625 105.636719 99.242188 L 105.636719 95.820312 C 105.636719 94.921875 104.90625 94.195312 104.007812 94.195312 L 102.308594 94.195312 Z M 104.007812 101.265625 L 102.109375 101.265625 C 101.996094 101.265625 101.90625 101.175781 101.90625 101.066406 L 101.90625 93.996094 C 101.90625 93.882812 101.996094 93.792969 102.109375 93.792969 L 104.007812 93.792969 C 105.125 93.792969 106.035156 94.703125 106.035156 95.820312 L 106.035156 99.242188 C 106.035156 100.359375 105.125 101.265625 104.007812 101.265625 " fill-opacity="1" fill-rule="nonzero"/><path fill="#ffffff" d="M 67.402344 101.066406 L 69.304688 101.066406 L 69.304688 93.996094 L 67.402344 93.996094 C 66.394531 93.996094 65.578125 94.8125 65.578125 95.820312 L 65.578125 99.242188 C 65.578125 100.25 66.394531 101.066406 67.402344 101.066406 " fill-opacity="1" fill-rule="nonzero"/><path fill="#000000" d="M 67.402344 94.195312 C 66.507812 94.195312 65.777344 94.921875 65.777344 95.820312 L 65.777344 99.242188 C 65.777344 100.140625 66.507812 100.867188 67.402344 100.867188 L 69.105469 100.867188 L 69.105469 94.195312 Z M 69.304688 101.265625 L 67.402344 101.265625 C 66.285156 101.265625 65.378906 100.359375 65.378906 99.242188 L 65.378906 95.820312 C 65.378906 94.703125 66.285156 93.792969 67.402344 93.792969 L 69.304688 93.792969 C 69.414062 93.792969 69.503906 93.882812 69.503906 93.996094 L 69.503906 101.066406 C 69.503906 101.175781 69.414062 101.265625 69.304688 101.265625 " fill-opacity="1" fill-rule="nonzero"/><path fill="#ffffff" d="M 68.128906 97.238281 C 68.128906 89.636719 76 81.777344 85.707031 81.777344 C 95.414062 81.777344 103.28125 89.636719 103.28125 97.238281 C 103.28125 104.839844 95.414062 109.300781 85.707031 109.300781 C 76 109.300781 68.128906 104.839844 68.128906 97.238281 " fill-opacity="1" fill-rule="nonzero"/><path fill="#000000" d="M 85.707031 81.976562 C 75.761719 81.976562 68.328125 90.035156 68.328125 97.238281 C 68.328125 100.792969 70.078125 103.804688 73.386719 105.953125 C 76.511719 107.984375 80.886719 109.101562 85.707031 109.101562 C 90.523438 109.101562 94.898438 107.984375 98.023438 105.953125 C 101.332031 103.804688 103.082031 100.792969 103.082031 97.238281 C 103.082031 90.035156 95.652344 81.976562 85.707031 81.976562 Z M 85.707031 109.5 C 80.8125 109.5 76.359375 108.359375 73.167969 106.285156 C 69.742188 104.0625 67.929688 100.933594 67.929688 97.238281 C 67.929688 93.457031 69.832031 89.546875 73.144531 86.511719 C 76.613281 83.328125 81.074219 81.578125 85.707031 81.578125 C 90.335938 81.578125 94.796875 83.328125 98.269531 86.511719 C 101.582031 89.546875 103.480469 93.457031 103.480469 97.238281 C 103.480469 100.933594 101.667969 104.0625 98.242188 106.285156 C 95.050781 108.359375 90.601562 109.5 85.707031 109.5 " fill-opacity="1" fill-rule="nonzero"/><path fill="#000000" d="M 97.523438 94.957031 L 80.597656 94.957031 C 78.839844 94.957031 77.414062 96.453125 77.414062 98.296875 L 77.414062 100.476562 C 77.414062 101.882812 78.183594 103.375 79.515625 103.617188 C 84.207031 104.476562 93.914062 104.476562 98.605469 103.617188 C 99.933594 103.375 100.707031 101.882812 100.707031 100.476562 L 100.707031 98.296875 C 100.707031 96.453125 99.28125 94.957031 97.523438 94.957031 " fill-opacity="1" fill-rule="nonzero"/><path fill="#a6201e" d="M 85.082031 99.34375 C 85.082031 99.960938 84.605469 100.460938 84.015625 100.460938 C 83.425781 100.460938 82.949219 99.960938 82.949219 99.34375 C 82.949219 98.726562 83.425781 98.222656 84.015625 98.222656 C 84.605469 98.222656 85.082031 98.726562 85.082031 99.34375 " fill-opacity="1" fill-rule="nonzero"/><path fill="#a6201e" d="M 96.429688 99.34375 C 96.429688 99.960938 95.953125 100.460938 95.363281 100.460938 C 94.773438 100.460938 94.296875 99.960938 94.296875 99.34375 C 94.296875 98.726562 94.773438 98.222656 95.363281 98.222656 C 95.953125 98.222656 96.429688 98.726562 96.429688 99.34375 " fill-opacity="1" fill-rule="nonzero"/><path fill="#000000" d="M 76.722656 122.121094 C 76.15625 122.121094 75.589844 122.113281 75.023438 122.097656 C 70.484375 121.984375 68.449219 119.183594 68.476562 116.625 C 68.503906 113.878906 70.816406 111.089844 75.175781 111.070312 C 75.179688 111.070312 75.179688 111.070312 75.179688 111.070312 C 75.730469 111.070312 76.175781 111.515625 76.175781 112.0625 C 76.179688 112.613281 75.734375 113.0625 75.183594 113.066406 C 72.113281 113.078125 70.488281 114.875 70.46875 116.648438 C 70.449219 118.3125 71.867188 120.027344 75.074219 120.105469 C 75.625 120.121094 76.175781 120.128906 76.722656 120.128906 C 87.925781 120.128906 98.402344 117.304688 105.355469 114.875 C 113.261719 112.109375 118.410156 109.246094 118.460938 109.21875 C 118.941406 108.949219 119.546875 109.121094 119.816406 109.601562 C 120.085938 110.082031 119.914062 110.6875 119.433594 110.957031 C 119.21875 111.078125 114.082031 113.933594 106.011719 116.753906 C 98.914062 119.238281 88.203125 122.121094 76.722656 122.121094 " fill-opacity="1" fill-rule="nonzero"/><path fill="#ffffff" d="M 152.632812 162.648438 C 152.632812 162.648438 155.257812 163.539062 156.792969 163.144531 C 156.792969 163.144531 158.699219 164.757812 158.675781 165.613281 L 152.003906 165.488281 L 152.632812 162.648438 " fill-opacity="1" fill-rule="nonzero"/><path fill="#000000" d="M 152.25 165.292969 L 158.441406 165.410156 C 158.261719 164.835938 157.371094 163.910156 156.738281 163.363281 C 155.40625 163.652344 153.429688 163.105469 152.78125 162.90625 Z M 158.867188 165.816406 L 151.753906 165.683594 L 152.488281 162.390625 L 152.695312 162.460938 C 152.722656 162.46875 155.285156 163.328125 156.742188 162.953125 L 156.84375 162.925781 L 156.921875 162.992188 C 157.125 163.164062 158.902344 164.695312 158.875 165.617188 L 158.867188 165.816406 " fill-opacity="1" fill-rule="nonzero"/><path fill="#ffffff" d="M 155.492188 162.851562 C 155.492188 162.851562 157.140625 160.9375 157.867188 160.902344 C 158.480469 160.875 163.375 165.261719 164.929688 166.726562 C 165.207031 166.984375 165.089844 167.445312 164.71875 167.539062 C 163.804688 167.765625 161.707031 167.761719 157.003906 166.175781 C 156.757812 166.09375 156.578125 165.882812 156.542969 165.628906 L 156.339844 164.226562 L 157.328125 164.105469 L 155.492188 162.851562 " fill-opacity="1" fill-rule="nonzero"/><path fill="#000000" d="M 156.566406 164.398438 L 156.742188 165.601562 C 156.765625 165.78125 156.890625 165.929688 157.066406 165.988281 C 161.894531 167.613281 163.902344 167.535156 164.671875 167.34375 C 164.816406 167.308594 164.859375 167.195312 164.875 167.148438 C 164.898438 167.046875 164.871094 166.945312 164.792969 166.871094 C 162.664062 164.871094 158.417969 161.160156 157.871094 161.101562 C 157.445312 161.121094 156.429688 162.101562 155.792969 162.8125 L 157.441406 163.941406 C 157.507812 163.988281 157.542969 164.070312 157.523438 164.152344 C 157.503906 164.234375 157.433594 164.292969 157.351562 164.304688 Z M 163.679688 167.84375 C 162.421875 167.84375 160.351562 167.515625 156.941406 166.367188 C 156.621094 166.257812 156.394531 165.988281 156.347656 165.660156 L 156.144531 164.253906 C 156.136719 164.203125 156.148438 164.148438 156.183594 164.105469 C 156.214844 164.0625 156.265625 164.035156 156.316406 164.027344 L 156.78125 163.972656 L 155.382812 163.015625 C 155.335938 162.984375 155.304688 162.933594 155.296875 162.878906 C 155.289062 162.820312 155.304688 162.765625 155.34375 162.722656 C 155.625 162.390625 157.085938 160.738281 157.859375 160.703125 C 157.863281 160.703125 157.863281 160.703125 157.867188 160.703125 C 158.757812 160.703125 165.003906 166.523438 165.066406 166.582031 C 165.25 166.753906 165.320312 167.007812 165.257812 167.246094 C 165.195312 167.492188 165.011719 167.671875 164.765625 167.730469 C 164.5 167.796875 164.144531 167.84375 163.679688 167.84375 " fill-opacity="1" fill-rule="nonzero"/><path fill="#000000" d="M 160.3125 167.351562 C 160.292969 167.351562 160.273438 167.347656 160.253906 167.339844 C 160.148438 167.308594 160.089844 167.195312 160.125 167.089844 L 160.542969 165.792969 C 160.578125 165.691406 160.6875 165.632812 160.792969 165.667969 C 160.898438 165.699219 160.957031 165.8125 160.921875 165.917969 L 160.503906 167.210938 C 160.476562 167.296875 160.398438 167.351562 160.3125 167.351562 " fill-opacity="1" fill-rule="nonzero"/><path fill="#000000" d="M 159.492188 167.003906 C 159.46875 167.003906 159.449219 167 159.429688 166.992188 C 159.324219 166.960938 159.265625 166.847656 159.300781 166.742188 L 159.71875 165.445312 C 159.753906 165.34375 159.867188 165.285156 159.972656 165.320312 C 160.074219 165.351562 160.132812 165.464844 160.097656 165.570312 L 159.679688 166.863281 C 159.652344 166.949219 159.574219 167.003906 159.492188 167.003906 " fill-opacity="1" fill-rule="nonzero"/><path fill="#000000" d="M 163.910156 167.03125 C 163.867188 167.03125 163.820312 167.015625 163.785156 166.984375 L 157.53125 161.78125 C 157.449219 161.710938 157.4375 161.585938 157.507812 161.5 C 157.578125 161.417969 157.703125 161.40625 157.789062 161.476562 L 164.039062 166.675781 C 164.121094 166.746094 164.132812 166.875 164.0625 166.957031 C 164.023438 167.003906 163.96875 167.03125 163.910156 167.03125 " fill-opacity="1" fill-rule="nonzero"/><path fill="#ffffff" d="M 130.847656 166.601562 C 130.84375 165.992188 130.832031 165.027344 130.8125 163.792969 L 128.949219 164.050781 L 127.410156 162.671875 C 127.410156 162.671875 122.988281 164.246094 120.84375 166.238281 C 120.445312 166.609375 120.648438 167.269531 121.191406 167.351562 C 122.824219 167.59375 126.609375 167.820312 130.101562 167.433594 C 130.53125 167.386719 130.851562 167.027344 130.847656 166.601562 " fill-opacity="1" fill-rule="nonzero"/><path fill="#000000" d="M 127.367188 162.902344 C 126.671875 163.160156 122.882812 164.617188 120.980469 166.386719 C 120.851562 166.503906 120.804688 166.675781 120.855469 166.84375 C 120.90625 167.011719 121.042969 167.125 121.21875 167.152344 C 122.871094 167.398438 126.59375 167.621094 130.082031 167.234375 C 130.410156 167.199219 130.652344 166.925781 130.648438 166.605469 C 130.644531 166.03125 130.632812 165.148438 130.617188 164.019531 L 128.980469 164.246094 C 128.921875 164.257812 128.863281 164.238281 128.820312 164.199219 Z M 126.03125 167.84375 C 123.980469 167.84375 122.183594 167.699219 121.160156 167.546875 C 120.835938 167.5 120.570312 167.273438 120.476562 166.960938 C 120.378906 166.648438 120.46875 166.316406 120.710938 166.09375 C 122.855469 164.097656 127.160156 162.550781 127.34375 162.484375 C 127.414062 162.460938 127.488281 162.476562 127.542969 162.523438 L 129.015625 163.839844 L 130.785156 163.59375 C 130.84375 163.585938 130.898438 163.605469 130.945312 163.640625 C 130.988281 163.679688 131.011719 163.730469 131.011719 163.789062 C 131.03125 165.027344 131.042969 165.992188 131.046875 166.597656 C 131.046875 166.601562 131.046875 166.601562 131.046875 166.601562 C 131.050781 167.128906 130.65625 167.570312 130.125 167.628906 C 128.75 167.785156 127.339844 167.84375 126.03125 167.84375 " fill-opacity="1" fill-rule="nonzero"/><path fill="#000000" d="M 125.609375 166.933594 C 124.359375 166.933594 122.925781 166.882812 121.546875 166.71875 C 121.4375 166.703125 121.359375 166.605469 121.371094 166.496094 C 121.382812 166.386719 121.484375 166.308594 121.59375 166.320312 C 125.125 166.746094 129.046875 166.410156 129.085938 166.40625 C 129.199219 166.398438 129.292969 166.476562 129.304688 166.585938 C 129.3125 166.695312 129.230469 166.792969 129.121094 166.800781 C 129.097656 166.804688 127.59375 166.933594 125.609375 166.933594 " fill-opacity="1" fill-rule="nonzero"/><path fill="#000000" d="M 124.734375 165.808594 C 124.640625 165.808594 124.558594 165.746094 124.539062 165.652344 L 124.183594 164.015625 C 124.164062 163.90625 124.230469 163.800781 124.339844 163.777344 C 124.445312 163.753906 124.550781 163.824219 124.574219 163.929688 L 124.925781 165.570312 C 124.949219 165.675781 124.882812 165.78125 124.773438 165.804688 C 124.761719 165.808594 124.746094 165.808594 124.734375 165.808594 " fill-opacity="1" fill-rule="nonzero"/><path fill="#000000" d="M 125.554688 165.460938 C 125.464844 165.460938 125.378906 165.398438 125.359375 165.304688 L 125.007812 163.667969 C 124.984375 163.558594 125.054688 163.453125 125.160156 163.429688 C 125.269531 163.40625 125.375 163.476562 125.398438 163.582031 L 125.75 165.222656 C 125.773438 165.328125 125.707031 165.433594 125.597656 165.457031 C 125.582031 165.460938 125.570312 165.460938 125.554688 165.460938 " fill-opacity="1" fill-rule="nonzero"/><path fill="#000000" d="M 144.089844 147 C 144 146.925781 135.617188 141.023438 133.328125 141.660156 C 129.414062 142.742188 130.175781 154.199219 130.257812 157.226562 C 130.335938 160.179688 144.5625 151.320312 145 150.546875 C 145.433594 149.777344 145.699219 148.328125 144.089844 147 " fill-opacity="1" fill-rule="nonzero"/><path fill="#000000" d="M 130.386719 156.464844 C 130.375 156.476562 130.363281 156.488281 130.347656 156.5 C 127.898438 158.65625 126.886719 160.800781 127.0625 163.5625 C 127.234375 166.261719 131.132812 168.1875 143.75 166.785156 C 146.402344 166.410156 151.726562 166.113281 154.027344 166.039062 C 154.503906 166.027344 154.878906 165.636719 154.871094 165.167969 L 154.839844 163.03125 C 154.835938 162.730469 154.671875 162.453125 154.410156 162.300781 C 153.015625 161.492188 149.421875 159.429688 143.503906 159.652344 C 143.308594 159.660156 143.339844 159.457031 143.53125 159.414062 C 146.78125 158.710938 151.796875 158.382812 153.199219 157.226562 C 155.914062 154.980469 155.410156 151 154.824219 148.574219 C 153.105469 141.484375 142.394531 148.882812 142.320312 148.902344 C 142.316406 148.902344 142.320312 148.902344 142.316406 148.902344 C 142.296875 148.914062 140.867188 149.730469 138.984375 150.851562 L 130.386719 156.464844 " fill-opacity="1" fill-rule="nonzero"/><path fill="#ffffff" d="M 136.261719 161.183594 C 136.191406 161.183594 136.125 161.152344 136.089844 161.085938 C 136.035156 160.992188 136.0625 160.871094 136.160156 160.816406 C 136.257812 160.757812 138.609375 159.390625 144.351562 159.257812 C 144.464844 159.257812 144.554688 159.34375 144.554688 159.453125 C 144.558594 159.5625 144.46875 159.65625 144.359375 159.65625 C 138.742188 159.785156 136.386719 161.144531 136.363281 161.15625 C 136.332031 161.175781 136.296875 161.183594 136.261719 161.183594 " fill-opacity="1" fill-rule="nonzero"/><path fill="#14697d" d="M 131.089844 156.101562 C 131.03125 156.101562 130.96875 156.074219 130.929688 156.023438 C 130.863281 155.9375 130.882812 155.808594 130.96875 155.742188 C 131.039062 155.691406 137.882812 150.566406 142.675781 149.402344 C 142.78125 149.375 142.886719 149.441406 142.914062 149.546875 C 142.941406 149.65625 142.875 149.761719 142.769531 149.789062 C 138.054688 150.933594 131.277344 156.011719 131.210938 156.0625 C 131.175781 156.089844 131.132812 156.101562 131.089844 156.101562 " fill-opacity="1" fill-rule="nonzero"/><path fill="#ffffff" d="M 156.363281 133.300781 C 157.375 134.167969 160.996094 138.726562 160.402344 146.40625 C 160.394531 146.523438 160.421875 146.640625 160.488281 146.742188 C 160.808594 147.238281 161.792969 148.882812 161.476562 149.917969 C 161.113281 151.113281 159.863281 153.714844 159.5 150.015625 C 159.492188 149.925781 159.371094 149.90625 159.332031 149.984375 C 159.179688 150.292969 158.9375 150.71875 158.777344 150.660156 C 158.402344 150.527344 158.53125 148.574219 158.636719 147.425781 C 158.734375 146.273438 158.894531 145.820312 157.726562 143.035156 C 157.011719 141.324219 154.632812 138.488281 153.734375 137.605469 C 153.734375 137.605469 156.253906 133.203125 156.363281 133.300781 " fill-opacity="1" fill-rule="nonzero"/><path fill="#000000" d="M 158.863281 150.484375 Z M 159.410156 149.738281 C 159.429688 149.738281 159.445312 149.738281 159.464844 149.742188 C 159.59375 149.765625 159.6875 149.867188 159.699219 149.996094 C 159.863281 151.675781 160.1875 151.726562 160.203125 151.726562 C 160.207031 151.726562 160.210938 151.726562 160.214844 151.726562 C 160.46875 151.726562 160.996094 150.816406 161.285156 149.859375 C 161.515625 149.101562 160.9375 147.808594 160.320312 146.847656 C 160.234375 146.714844 160.191406 146.554688 160.207031 146.390625 C 160.746094 139.367188 157.683594 134.832031 156.375 133.578125 C 155.992188 134.117188 154.78125 136.183594 153.980469 137.574219 C 154.886719 138.5 157.1875 141.234375 157.910156 142.960938 C 159.011719 145.585938 158.953125 146.191406 158.855469 147.199219 C 158.847656 147.277344 158.839844 147.359375 158.832031 147.441406 C 158.636719 149.652344 158.757812 150.261719 158.828125 150.429688 C 158.886719 150.367188 158.996094 150.222656 159.152344 149.898438 C 159.203125 149.796875 159.304688 149.738281 159.410156 149.738281 Z M 160.207031 152.125 C 160.195312 152.125 160.179688 152.125 160.164062 152.125 C 159.746094 152.082031 159.488281 151.542969 159.34375 150.390625 C 159.109375 150.78125 158.914062 150.921875 158.710938 150.847656 C 158.441406 150.75 158.171875 150.398438 158.4375 147.40625 C 158.445312 147.324219 158.453125 147.242188 158.460938 147.164062 C 158.554688 146.183594 158.605469 145.648438 157.542969 143.113281 C 156.859375 141.480469 154.574219 138.710938 153.59375 137.746094 L 153.484375 137.640625 L 153.558594 137.503906 C 156.058594 133.148438 156.210938 133.121094 156.324219 133.101562 L 156.417969 133.085938 L 156.496094 133.148438 C 157.742188 134.222656 161.175781 138.96875 160.601562 146.421875 C 160.597656 146.5 160.617188 146.570312 160.65625 146.632812 C 161.070312 147.277344 162 148.890625 161.667969 149.976562 C 161.640625 150.066406 161.003906 152.125 160.207031 152.125 " fill-opacity="1" fill-rule="nonzero"/><path fill="#ffffff" d="M 133.554688 131.863281 C 133.554688 131.863281 130.023438 133.003906 128.574219 132.859375 C 126.53125 132.65625 124.269531 126.523438 124.113281 126.101562 C 123.957031 125.679688 123.414062 123.421875 122.882812 122.664062 C 122.386719 121.949219 122.027344 121.191406 121.828125 120.726562 C 121.707031 120.441406 121.480469 120.332031 121.285156 120.398438 C 121.113281 120.453125 120.8125 120.71875 120.984375 121.140625 C 121.183594 121.628906 121.371094 122.121094 121.539062 122.539062 C 121.59375 122.671875 121.671875 122.789062 121.558594 122.710938 C 121.292969 122.519531 120.957031 122.347656 120.738281 122.46875 C 120.328125 122.695312 120.109375 124.21875 120.769531 125.289062 C 121.433594 126.359375 122.160156 126.109375 122.382812 126.628906 C 122.601562 127.148438 124.433594 133.890625 125.183594 135.054688 C 126.265625 136.730469 133.828125 136.914062 134.960938 136.878906 C 136.09375 136.847656 133.554688 131.863281 133.554688 131.863281 " fill-opacity="1" fill-rule="nonzero"/><path fill="#000000" d="M 120.910156 122.628906 C 120.878906 122.628906 120.855469 122.632812 120.835938 122.644531 C 120.792969 122.667969 120.699219 122.78125 120.625 123.054688 C 120.484375 123.601562 120.519531 124.503906 120.941406 125.183594 C 121.289062 125.75 121.640625 125.90625 121.953125 126.042969 C 122.203125 126.152344 122.441406 126.257812 122.5625 126.550781 C 122.628906 126.703125 122.792969 127.253906 123.101562 128.292969 C 123.75 130.480469 124.832031 134.140625 125.351562 134.945312 C 126.308594 136.425781 133.191406 136.730469 134.957031 136.679688 C 134.996094 136.679688 135.003906 136.667969 135.015625 136.652344 C 135.285156 136.191406 134.289062 133.769531 133.453125 132.101562 C 132.730469 132.328125 129.867188 133.1875 128.554688 133.058594 C 126.570312 132.859375 124.515625 127.753906 123.933594 126.191406 L 123.925781 126.171875 C 123.882812 126.054688 123.820312 125.835938 123.730469 125.53125 C 123.492188 124.703125 123.09375 123.316406 122.71875 122.777344 C 122.226562 122.066406 121.863281 121.3125 121.644531 120.804688 C 121.574219 120.636719 121.453125 120.550781 121.34375 120.585938 C 121.296875 120.601562 121.207031 120.664062 121.160156 120.761719 C 121.121094 120.851562 121.121094 120.953125 121.167969 121.066406 C 121.292969 121.371094 121.417969 121.683594 121.53125 121.972656 C 121.597656 122.144531 121.664062 122.308594 121.726562 122.464844 C 121.734375 122.492188 121.75 122.519531 121.757812 122.542969 C 121.800781 122.632812 121.867188 122.78125 121.738281 122.886719 C 121.679688 122.9375 121.582031 122.972656 121.441406 122.871094 C 121.1875 122.691406 121.011719 122.628906 120.910156 122.628906 Z M 134.914062 137.078125 C 134.183594 137.078125 126.210938 137.015625 125.015625 135.164062 C 124.46875 134.308594 123.414062 130.757812 122.71875 128.40625 C 122.460938 127.535156 122.257812 126.847656 122.199219 126.707031 C 122.136719 126.566406 122.023438 126.507812 121.789062 126.40625 C 121.464844 126.261719 121.015625 126.066406 120.601562 125.394531 C 120.117188 124.609375 120.070312 123.601562 120.242188 122.953125 C 120.300781 122.71875 120.421875 122.417969 120.644531 122.292969 C 120.800781 122.207031 121 122.207031 121.230469 122.296875 C 121.207031 122.238281 121.183594 122.179688 121.160156 122.117188 C 121.046875 121.828125 120.925781 121.523438 120.800781 121.214844 C 120.6875 120.941406 120.738281 120.726562 120.800781 120.59375 C 120.898438 120.378906 121.089844 120.25 121.222656 120.207031 C 121.535156 120.105469 121.859375 120.289062 122.011719 120.648438 C 122.222656 121.136719 122.574219 121.867188 123.046875 122.550781 C 123.460938 123.140625 123.855469 124.515625 124.117188 125.421875 C 124.199219 125.707031 124.261719 125.933594 124.300781 126.03125 L 124.308594 126.054688 C 125.410156 129.015625 127.195312 132.523438 128.59375 132.660156 C 129.984375 132.800781 133.457031 131.683594 133.492188 131.671875 L 133.65625 131.621094 L 133.730469 131.773438 C 134.089844 132.472656 135.851562 136.023438 135.355469 136.855469 C 135.273438 136.996094 135.136719 137.074219 134.964844 137.078125 C 134.960938 137.078125 134.945312 137.078125 134.914062 137.078125 " fill-opacity="1" fill-rule="nonzero"/><path fill="#a6201e" d="M 154.023438 138.71875 C 153.855469 138.597656 153.414062 138.230469 153.289062 138.160156 C 153.09375 138.050781 152.851562 138.1875 152.847656 138.410156 C 152.828125 139.855469 152.847656 144.015625 153.59375 145.417969 C 153.90625 146.007812 154.203125 146.464844 154.429688 147.007812 C 154.828125 147.949219 154.871094 148.1875 154.769531 148.4375 C 154.664062 148.6875 153.835938 148.921875 153.5 149.050781 C 150.398438 150.222656 144.257812 151.472656 143.449219 148.101562 C 142.988281 146.1875 142.660156 144.835938 141.234375 142.339844 C 140.859375 141.683594 140.09375 141.886719 138.996094 140.867188 C 138.363281 140.277344 138.355469 139.714844 138.101562 138.835938 C 137.925781 138.214844 137.777344 138.105469 134.925781 137.511719 C 134.859375 137.5 132.039062 131.425781 132.039062 131.425781 C 132.039062 131.425781 139.65625 128.367188 143.355469 127.902344 C 151.257812 126.914062 154.820312 130.375 157.226562 133.878906 C 157.320312 134.015625 154.15625 138.816406 154.023438 138.71875 " fill-opacity="1" fill-rule="nonzero"/><path fill="#ffffff" d="M 151.601562 144.390625 C 151.535156 144.390625 151.46875 144.355469 151.429688 144.292969 C 150.625 142.992188 149.664062 141.167969 149.371094 138.617188 C 148.902344 134.5625 146.667969 131.550781 146.644531 131.523438 C 146.578125 131.433594 146.597656 131.308594 146.683594 131.242188 C 146.773438 131.175781 146.898438 131.195312 146.964844 131.28125 C 146.988281 131.3125 149.289062 134.410156 149.765625 138.570312 C 150.050781 141.042969 150.984375 142.816406 151.769531 144.085938 C 151.828125 144.179688 151.796875 144.300781 151.703125 144.359375 C 151.671875 144.378906 151.636719 144.390625 151.601562 144.390625 " fill-opacity="1" fill-rule="nonzero"/><path fill="#000000" d="M 143.082031 115.871094 C 142.703125 115.976562 142.359375 116.203125 142.125 116.550781 C 141.730469 117.132812 141.765625 117.867188 142.15625 118.402344 C 141.855469 118.652344 141.644531 119.003906 141.582031 119.410156 C 141.476562 120.101562 141.828125 120.753906 142.414062 121.078125 C 142.25 121.429688 142.210938 121.832031 142.332031 122.230469 C 142.535156 122.898438 143.136719 123.34375 143.808594 123.398438 C 143.8125 123.78125 143.953125 124.164062 144.234375 124.472656 C 144.46875 124.734375 144.769531 124.902344 145.09375 124.980469 C 145.140625 125.027344 145.1875 125.070312 145.242188 125.113281 C 145.804688 125.546875 146.558594 125.574219 147.144531 125.246094 C 147.371094 125.554688 147.710938 125.792969 148.125 125.890625 C 148.820312 126.050781 149.519531 125.765625 149.902344 125.226562 C 150.246094 125.414062 150.65625 125.492188 151.070312 125.410156 C 151.773438 125.269531 152.28125 124.722656 152.398438 124.074219 C 152.789062 124.105469 153.195312 124.003906 153.535156 123.757812 C 154.109375 123.34375 154.335938 122.640625 154.15625 122.003906 C 154.527344 121.871094 154.847656 121.613281 155.050781 121.25 C 155.394531 120.636719 155.292969 119.90625 154.855469 119.40625 C 155.132812 119.132812 155.3125 118.765625 155.335938 118.355469 C 155.382812 117.65625 154.972656 117.039062 154.359375 116.761719 C 154.488281 116.402344 154.496094 115.996094 154.339844 115.609375 C 154.074219 114.960938 153.4375 114.566406 152.761719 114.570312 C 152.722656 114.191406 152.550781 113.820312 152.242188 113.535156 C 151.722656 113.054688 150.972656 112.960938 150.363281 113.242188 C 150.164062 112.914062 149.84375 112.648438 149.441406 112.515625 C 148.761719 112.292969 148.042969 112.519531 147.609375 113.027344 C 147.285156 112.808594 146.882812 112.699219 146.460938 112.746094 C 145.75 112.824219 145.195312 113.324219 145.023438 113.960938 C 144.636719 113.898438 144.222656 113.964844 143.859375 114.179688 C 143.25 114.542969 142.964844 115.226562 143.082031 115.871094 " fill-opacity="1" fill-rule="nonzero"/><path fill="#ffffff" d="M 142.648438 120.804688 C 142.480469 120.703125 142.261719 120.78125 142.195312 120.960938 C 142.160156 121.0625 142.125 121.160156 142.101562 121.230469 C 142.035156 121.410156 141.898438 122.011719 141.332031 122.609375 C 141.277344 122.664062 141.277344 122.753906 141.328125 122.8125 C 141.441406 122.945312 141.636719 123.171875 141.722656 123.273438 C 141.75 123.304688 141.761719 123.34375 141.757812 123.386719 C 141.722656 123.640625 141.597656 124.570312 141.605469 124.75 C 141.609375 124.957031 141.75 125.15625 141.824219 125.210938 C 142.023438 125.355469 142.972656 125.367188 142.972656 125.367188 C 142.972656 125.367188 143.21875 125.425781 143.523438 126.792969 C 143.738281 127.757812 142.261719 128.757812 142.261719 128.757812 C 142.261719 128.757812 145.578125 130.0625 148.371094 128.929688 C 148.542969 128.859375 148.554688 128.617188 148.402344 128.507812 C 147.808594 128.074219 146.535156 127.015625 146.023438 125.640625 C 145.992188 125.558594 145.929688 125.492188 145.847656 125.457031 C 145.507812 125.316406 144.585938 125.058594 144.75 123.542969 C 144.753906 123.507812 144.769531 123.46875 144.792969 123.4375 C 144.988281 123.175781 145.882812 121.871094 144.347656 122.050781 C 143.332031 122.171875 143.023438 121.449219 142.9375 121.117188 C 142.910156 121.011719 142.835938 120.917969 142.738281 120.859375 L 142.648438 120.804688 " fill-opacity="1" fill-rule="nonzero"/><path fill="#000000" d="M 142.675781 128.691406 C 143.582031 128.976562 146.125 129.625 148.296875 128.742188 C 148.300781 128.742188 148.308594 128.738281 148.308594 128.722656 C 148.3125 128.707031 148.304688 128.683594 148.285156 128.667969 C 147.59375 128.160156 146.355469 127.101562 145.835938 125.707031 C 145.824219 125.675781 145.800781 125.652344 145.769531 125.640625 C 145.75 125.632812 145.726562 125.621094 145.703125 125.613281 C 145.308594 125.457031 144.382812 125.09375 144.554688 123.523438 C 144.558594 123.449219 144.589844 123.378906 144.632812 123.320312 C 144.9375 122.910156 145.09375 122.503906 145.007812 122.351562 C 144.945312 122.246094 144.714844 122.210938 144.371094 122.25 C 143.164062 122.394531 142.820312 121.460938 142.746094 121.167969 C 142.730469 121.113281 142.691406 121.0625 142.632812 121.027344 L 142.546875 120.976562 C 142.515625 120.957031 142.480469 120.953125 142.449219 120.964844 C 142.429688 120.972656 142.398438 120.988281 142.382812 121.027344 C 142.347656 121.128906 142.3125 121.230469 142.289062 121.296875 C 142.28125 121.320312 142.269531 121.347656 142.261719 121.378906 C 142.179688 121.640625 142.007812 122.171875 141.503906 122.714844 L 141.875 123.144531 C 141.9375 123.21875 141.96875 123.316406 141.953125 123.414062 C 141.859375 124.105469 141.800781 124.636719 141.800781 124.742188 C 141.808594 124.882812 141.910156 125.023438 141.941406 125.050781 C 142.03125 125.105469 142.515625 125.160156 142.976562 125.167969 C 142.992188 125.167969 143.003906 125.167969 143.019531 125.171875 C 143.265625 125.230469 143.5 125.761719 143.71875 126.75 C 143.894531 127.542969 143.125 128.316406 142.675781 128.691406 Z M 145.785156 129.59375 C 143.875 129.59375 142.28125 128.980469 142.1875 128.945312 C 142.117188 128.917969 142.070312 128.855469 142.0625 128.78125 C 142.054688 128.707031 142.085938 128.636719 142.148438 128.59375 C 142.527344 128.335938 143.480469 127.515625 143.328125 126.835938 C 143.128906 125.925781 142.960938 125.640625 142.902344 125.566406 C 142.566406 125.558594 141.917969 125.523438 141.707031 125.371094 C 141.589844 125.285156 141.414062 125.03125 141.40625 124.753906 C 141.398438 124.578125 141.496094 123.832031 141.554688 123.382812 L 141.175781 122.941406 C 141.058594 122.804688 141.0625 122.601562 141.1875 122.46875 C 141.648438 121.984375 141.804688 121.492188 141.882812 121.257812 C 141.894531 121.21875 141.902344 121.1875 141.914062 121.160156 C 141.9375 121.09375 141.972656 120.996094 142.007812 120.898438 C 142.058594 120.753906 142.167969 120.640625 142.3125 120.589844 C 142.460938 120.539062 142.621094 120.554688 142.75 120.632812 L 142.839844 120.6875 C 142.984375 120.773438 143.085938 120.910156 143.128906 121.066406 C 143.21875 121.402344 143.492188 121.953125 144.324219 121.855469 C 144.859375 121.789062 145.199219 121.886719 145.351562 122.152344 C 145.597656 122.574219 145.207031 123.214844 144.953125 123.554688 C 144.8125 124.832031 145.484375 125.097656 145.847656 125.242188 C 145.875 125.253906 145.898438 125.261719 145.921875 125.273438 C 146.054688 125.328125 146.160156 125.433594 146.210938 125.570312 C 146.710938 126.914062 147.992188 127.957031 148.523438 128.347656 C 148.65625 128.445312 148.726562 128.609375 148.703125 128.773438 C 148.683594 128.925781 148.589844 129.054688 148.445312 129.113281 C 147.566406 129.46875 146.644531 129.59375 145.785156 129.59375 " fill-opacity="1" fill-rule="nonzero"/><path fill="#000000" d="M 144.433594 123.765625 C 144.394531 123.765625 144.355469 123.761719 144.320312 123.753906 C 144.089844 123.71875 143.867188 123.566406 143.828125 123.417969 C 143.800781 123.308594 143.863281 123.199219 143.96875 123.171875 C 144.0625 123.148438 144.15625 123.191406 144.199219 123.277344 C 144.230469 123.304688 144.335938 123.375 144.453125 123.363281 C 144.5625 123.359375 144.660156 123.289062 144.742188 123.15625 C 144.804688 123.066406 144.925781 123.039062 145.019531 123.097656 C 145.113281 123.160156 145.136719 123.28125 145.078125 123.375 C 144.871094 123.695312 144.617188 123.765625 144.433594 123.765625 " fill-opacity="1" fill-rule="nonzero"/><path fill="#a6201e" d="M 143.914062 124.0625 C 143.945312 123.925781 144.082031 123.84375 144.21875 123.871094 C 144.355469 123.902344 144.441406 124.035156 144.410156 124.171875 C 144.378906 124.304688 144.246094 124.390625 144.109375 124.359375 C 143.972656 124.332031 143.882812 124.195312 143.914062 124.0625 " fill-opacity="1" fill-rule="nonzero"/><path fill="#14697d" d="M 70.691406 144.191406 C 70.691406 145.214844 69.839844 146.042969 68.789062 146.042969 C 67.738281 146.042969 66.886719 145.214844 66.886719 144.191406 C 66.886719 143.164062 67.738281 142.335938 68.789062 142.335938 C 69.839844 142.335938 70.691406 143.164062 70.691406 144.191406 " fill-opacity="1" fill-rule="nonzero"/><path fill="#000000" d="M 161.972656 64.394531 C 161.917969 64.394531 161.867188 64.375 161.828125 64.335938 C 161.753906 64.253906 161.753906 64.128906 161.832031 64.050781 L 162.582031 63.324219 C 162.660156 63.246094 162.789062 63.25 162.863281 63.328125 C 162.941406 63.40625 162.9375 63.53125 162.859375 63.609375 L 162.109375 64.339844 C 162.070312 64.375 162.023438 64.394531 161.972656 64.394531 " fill-opacity="1" fill-rule="nonzero"/><path fill="#000000" d="M 160.226562 66.09375 C 160.175781 66.09375 160.125 66.074219 160.085938 66.03125 C 160.007812 65.953125 160.007812 65.828125 160.089844 65.75 L 160.835938 65.023438 C 160.917969 64.945312 161.042969 64.945312 161.121094 65.027344 C 161.195312 65.105469 161.195312 65.230469 161.117188 65.308594 L 160.367188 66.035156 C 160.328125 66.074219 160.277344 66.09375 160.226562 66.09375 " fill-opacity="1" fill-rule="nonzero"/><path fill="#000000" d="M 160.976562 64.394531 C 160.925781 64.394531 160.875 64.375 160.835938 64.335938 L 160.089844 63.609375 C 160.007812 63.53125 160.007812 63.40625 160.085938 63.328125 C 160.160156 63.246094 160.289062 63.246094 160.367188 63.324219 L 161.117188 64.050781 C 161.195312 64.128906 161.195312 64.253906 161.121094 64.332031 C 161.082031 64.375 161.027344 64.394531 160.976562 64.394531 " fill-opacity="1" fill-rule="nonzero"/><path fill="#000000" d="M 162.722656 66.09375 C 162.671875 66.09375 162.621094 66.074219 162.582031 66.039062 L 161.832031 65.308594 C 161.753906 65.230469 161.753906 65.105469 161.828125 65.027344 C 161.90625 64.945312 162.03125 64.945312 162.113281 65.023438 L 162.859375 65.75 C 162.9375 65.828125 162.941406 65.953125 162.863281 66.035156 C 162.824219 66.074219 162.773438 66.09375 162.722656 66.09375 " fill-opacity="1" fill-rule="nonzero"/><path fill="#000000" d="M 76.4375 152.125 L 75.164062 152.125 C 75.054688 152.125 74.964844 152.039062 74.964844 151.925781 C 74.964844 151.816406 75.054688 151.726562 75.164062 151.726562 L 76.4375 151.726562 C 76.546875 151.726562 76.636719 151.816406 76.636719 151.925781 C 76.636719 152.039062 76.546875 152.125 76.4375 152.125 " fill-opacity="1" fill-rule="nonzero"/><path fill="#000000" d="M 73.46875 152.125 L 72.195312 152.125 C 72.085938 152.125 71.996094 152.039062 71.996094 151.925781 C 71.996094 151.816406 72.085938 151.726562 72.195312 151.726562 L 73.46875 151.726562 C 73.578125 151.726562 73.667969 151.816406 73.667969 151.925781 C 73.667969 152.039062 73.578125 152.125 73.46875 152.125 " fill-opacity="1" fill-rule="nonzero"/><path fill="#000000" d="M 74.316406 151.300781 C 74.207031 151.300781 74.117188 151.210938 74.117188 151.101562 L 74.117188 149.863281 C 74.117188 149.75 74.207031 149.664062 74.316406 149.664062 C 74.425781 149.664062 74.515625 149.75 74.515625 149.863281 L 74.515625 151.101562 C 74.515625 151.210938 74.425781 151.300781 74.316406 151.300781 " fill-opacity="1" fill-rule="nonzero"/><path fill="#000000" d="M 74.316406 154.191406 C 74.207031 154.191406 74.117188 154.101562 74.117188 153.992188 L 74.117188 152.75 C 74.117188 152.640625 74.207031 152.550781 74.316406 152.550781 C 74.425781 152.550781 74.515625 152.640625 74.515625 152.75 L 74.515625 153.992188 C 74.515625 154.101562 74.425781 154.191406 74.316406 154.191406 " fill-opacity="1" fill-rule="nonzero"/></svg>