<svg xmlns="http://www.w3.org/2000/svg" xmlns:xlink="http://www.w3.org/1999/xlink" width="300" zoomAndPan="magnify" viewBox="0 0 224.87999 225" height="300" preserveAspectRatio="xMidYMid meet" version="1.0"><defs><clipPath id="1b29461465"><path d="M 55 55.023438 L 170 55.023438 L 170 169.710938 L 55 169.710938 Z M 55 55.023438 " clip-rule="nonzero"/></clipPath><clipPath id="da2b67849f"><path d="M 95 77 L 170.113281 77 L 170.113281 139 L 95 139 Z M 95 77 " clip-rule="nonzero"/></clipPath><clipPath id="5dc6d65eb0"><path d="M 119 55.023438 L 138 55.023438 L 138 72 L 119 72 Z M 119 55.023438 " clip-rule="nonzero"/></clipPath></defs><g clip-path="url(#1b29461465)"><path fill="#14697d" d="M 123.851562 56.382812 C 119.09375 57.410156 114.421875 58.894531 109.535156 59.632812 C 101.878906 60.789062 95.324219 57.234375 87.882812 58.09375 C 80.675781 58.925781 74.160156 64.132812 70.074219 69.941406 C 64.070312 78.476562 62.207031 88.699219 59.652344 98.601562 C 56.058594 112.558594 54.691406 127 56.992188 141.332031 C 58.1875 148.792969 61.507812 155.410156 68.738281 159.957031 C 76.972656 165.128906 118.363281 169.96875 129.484375 169.253906 C 141.167969 168.503906 155.105469 164.488281 163.371094 154.996094 C 170.085938 147.289062 169.65625 139.945312 169.453125 130.585938 C 169.183594 117.933594 169.621094 105.28125 169.347656 92.628906 C 169.097656 81.148438 163.582031 68.992188 153.660156 62.015625 C 147.191406 57.464844 141.800781 55.578125 133.929688 55.300781 C 130.464844 55.179688 127.136719 55.671875 123.851562 56.382812 " fill-opacity="1" fill-rule="nonzero"/></g><g clip-path="url(#da2b67849f)"><path fill="#a6201e" d="M 167.394531 138.953125 L 99.558594 129.519531 C 97.855469 129.300781 96.578125 127.851562 96.578125 126.132812 L 95.648438 78.816406 C 95.648438 78.816406 97.195312 77.703125 98.070312 77.277344 C 98.515625 77.058594 99.03125 76.964844 99.5625 77.03125 L 167.199219 85.65625 C 168.902344 85.875 170.179688 87.324219 170.179688 89.042969 L 170.179688 135.515625 C 170.179688 136.347656 169.796875 137.078125 169.210938 137.5625 C 168.667969 138.007812 167.394531 138.953125 167.394531 138.953125 " fill-opacity="1" fill-rule="nonzero"/></g><path fill="#14697d" d="M 165.324219 139.582031 L 97.691406 130.957031 C 95.984375 130.738281 94.710938 129.289062 94.710938 127.570312 L 94.710938 81.097656 C 94.710938 79.5 96.113281 78.265625 97.695312 78.46875 L 165.332031 87.09375 C 167.035156 87.3125 168.308594 88.761719 168.308594 90.476562 L 168.308594 136.953125 C 168.308594 138.546875 166.90625 139.78125 165.324219 139.582031 " fill-opacity="1" fill-rule="nonzero"/><path fill="#000000" d="M 168.308594 103.351562 C 168.195312 103.351562 168.101562 103.261719 168.101562 103.144531 L 168.101562 90.476562 C 168.101562 88.871094 166.898438 87.503906 165.304688 87.300781 L 153.597656 85.808594 C 153.484375 85.792969 153.40625 85.6875 153.421875 85.574219 C 153.433594 85.460938 153.535156 85.382812 153.652344 85.398438 L 165.355469 86.890625 C 167.15625 87.121094 168.515625 88.664062 168.515625 90.476562 L 168.515625 103.144531 C 168.515625 103.261719 168.421875 103.351562 168.308594 103.351562 " fill-opacity="1" fill-rule="nonzero"/><path fill="#000000" d="M 94.710938 91.585938 C 94.597656 91.585938 94.503906 91.492188 94.503906 91.378906 L 94.503906 81.097656 C 94.503906 80.277344 94.855469 79.496094 95.472656 78.953125 C 96.089844 78.410156 96.910156 78.160156 97.722656 78.265625 L 150.820312 85.035156 C 150.933594 85.050781 151.015625 85.152344 151 85.265625 C 150.984375 85.378906 150.878906 85.460938 150.769531 85.445312 L 97.671875 78.675781 C 96.972656 78.585938 96.273438 78.800781 95.746094 79.261719 C 95.21875 79.726562 94.917969 80.394531 94.917969 81.097656 L 94.917969 91.378906 C 94.917969 91.492188 94.824219 91.585938 94.710938 91.585938 " fill-opacity="1" fill-rule="nonzero"/><path fill="#ffffff" d="M 163.886719 137.664062 L 99.304688 129.429688 C 98.066406 129.273438 97.136719 128.21875 97.136719 126.96875 L 97.136719 82.140625 C 97.136719 81.074219 98.074219 80.25 99.132812 80.386719 L 163.714844 88.621094 C 164.953125 88.777344 165.878906 89.832031 165.878906 91.082031 L 165.878906 135.910156 C 165.878906 136.976562 164.945312 137.800781 163.886719 137.664062 " fill-opacity="1" fill-rule="nonzero"/><path fill="#a6201e" d="M 125.867188 166.949219 L 56.308594 157.980469 C 55.761719 157.910156 55.457031 157.453125 55.460938 157 C 55.46875 156.683594 55.492188 154.46875 55.492188 154.46875 L 92.273438 133.445312 C 94.113281 132.390625 96.5 131.984375 98.605469 132.253906 L 167.285156 141.113281 C 167.699219 141.167969 168.050781 141.4375 168.214844 141.820312 L 168.328125 142.078125 C 168.328125 142.078125 168.269531 143.925781 168.292969 144.355469 C 168.308594 144.691406 168.160156 145.039062 167.804688 145.242188 L 131.949219 165.742188 C 130.105469 166.796875 127.972656 167.21875 125.867188 166.949219 " fill-opacity="1" fill-rule="nonzero"/><path fill="#ffffff" d="M 125.867188 164.488281 L 56.554688 155.53125 C 55.636719 155.414062 55.394531 154.195312 56.199219 153.734375 L 91.863281 133.367188 C 93.707031 132.3125 95.839844 131.890625 97.945312 132.160156 L 167.253906 141.113281 C 168.175781 141.230469 168.417969 142.449219 167.613281 142.910156 L 131.949219 163.28125 C 130.105469 164.332031 127.96875 164.753906 125.867188 164.488281 " fill-opacity="1" fill-rule="nonzero"/><path fill="#000000" d="M 125.890625 164.28125 C 127.941406 164.542969 130.054688 164.125 131.847656 163.101562 L 167.511719 142.730469 C 167.859375 142.53125 167.929688 142.183594 167.878906 141.921875 C 167.828125 141.664062 167.628906 141.367188 167.230469 141.316406 L 97.917969 132.363281 C 95.871094 132.101562 93.757812 132.519531 91.964844 133.542969 L 56.300781 153.914062 C 55.953125 154.113281 55.882812 154.460938 55.933594 154.722656 C 55.984375 154.980469 56.183594 155.277344 56.582031 155.328125 L 125.894531 164.28125 Z M 127.089844 164.769531 C 126.671875 164.769531 126.253906 164.746094 125.839844 164.691406 L 56.527344 155.738281 C 56.019531 155.671875 55.628906 155.304688 55.527344 154.800781 C 55.429688 154.300781 55.652344 153.808594 56.097656 153.554688 L 91.761719 133.1875 C 93.628906 132.117188 95.835938 131.679688 97.972656 131.953125 L 167.28125 140.90625 C 167.792969 140.972656 168.183594 141.339844 168.285156 141.84375 C 168.382812 142.347656 168.160156 142.835938 167.714844 143.089844 L 132.050781 163.457031 C 130.546875 164.320312 128.820312 164.769531 127.089844 164.769531 " fill-opacity="1" fill-rule="nonzero"/><path fill="#a6201e" d="M 139.4375 153.179688 L 79.335938 145.359375 C 78.503906 145.253906 78.285156 144.152344 79.011719 143.734375 L 93.144531 135.746094 C 94.808594 134.792969 96.738281 134.414062 98.640625 134.65625 L 158.738281 142.476562 C 159.570312 142.582031 159.789062 143.683594 159.0625 144.101562 L 144.929688 152.089844 C 143.265625 153.039062 141.335938 153.421875 139.4375 153.179688 " fill-opacity="1" fill-rule="nonzero"/><path fill="#14697d" d="M 109.671875 128.164062 L 158.941406 133.511719 C 159.1875 133.539062 159.410156 133.359375 159.4375 133.113281 L 159.652344 131.132812 C 159.679688 130.886719 159.5 130.664062 159.253906 130.636719 L 109.984375 125.289062 C 109.738281 125.261719 109.515625 125.441406 109.488281 125.6875 L 109.273438 127.667969 C 109.246094 127.914062 109.425781 128.136719 109.671875 128.164062 " fill-opacity="1" fill-rule="nonzero"/><path fill="#14697d" d="M 115.289062 123.070312 L 158.582031 127.769531 C 159.074219 127.824219 159.515625 127.46875 159.570312 126.976562 L 159.6875 125.882812 C 159.742188 125.390625 159.386719 124.945312 158.894531 124.894531 L 115.601562 120.195312 C 115.109375 120.140625 114.667969 120.496094 114.617188 120.988281 L 114.496094 122.082031 C 114.441406 122.574219 114.796875 123.015625 115.289062 123.070312 " fill-opacity="1" fill-rule="nonzero"/><path fill="#14697d" d="M 103.386719 116.425781 L 159.253906 122.488281 C 159.5 122.515625 159.722656 122.335938 159.75 122.089844 L 159.964844 120.109375 C 159.992188 119.863281 159.8125 119.640625 159.5625 119.613281 L 103.699219 113.550781 C 103.453125 113.523438 103.230469 113.699219 103.203125 113.949219 L 102.988281 115.929688 C 102.960938 116.175781 103.140625 116.398438 103.386719 116.425781 " fill-opacity="1" fill-rule="nonzero"/><path fill="#14697d" d="M 111.15625 107.039062 L 159.613281 111.539062 C 160.105469 111.585938 160.542969 111.222656 160.585938 110.730469 L 160.6875 109.636719 C 160.734375 109.140625 160.371094 108.707031 159.878906 108.660156 L 111.421875 104.160156 C 110.929688 104.113281 110.496094 104.476562 110.449219 104.96875 L 110.347656 106.0625 C 110.300781 106.554688 110.664062 106.992188 111.15625 107.039062 " fill-opacity="1" fill-rule="nonzero"/><path fill="#14697d" d="M 115.972656 101.824219 L 159.332031 105.851562 C 159.828125 105.898438 160.261719 105.535156 160.308594 105.042969 L 160.410156 103.945312 C 160.457031 103.453125 160.09375 103.015625 159.601562 102.972656 L 116.242188 98.945312 C 115.75 98.898438 115.3125 99.261719 115.265625 99.753906 L 115.164062 100.847656 C 115.117188 101.34375 115.480469 101.777344 115.972656 101.824219 " fill-opacity="1" fill-rule="nonzero"/><path fill="#14697d" d="M 104 95.421875 L 159.066406 100.535156 C 159.558594 100.582031 159.992188 100.21875 160.039062 99.726562 L 160.140625 98.632812 C 160.1875 98.136719 159.824219 97.703125 159.332031 97.65625 L 104.265625 92.542969 C 103.773438 92.496094 103.335938 92.859375 103.292969 93.351562 L 103.191406 94.445312 C 103.144531 94.9375 103.507812 95.375 104 95.421875 " fill-opacity="1" fill-rule="nonzero"/><path fill="#000000" d="M 79.898438 115.9375 C 79.957031 119.050781 80.476562 123.253906 82.597656 125.917969 C 83.820312 127.453125 85.414062 128.332031 87.332031 128.53125 C 95.941406 129.433594 100.667969 118.976562 100.863281 118.53125 C 101.21875 117.726562 100.855469 116.789062 100.054688 116.433594 C 99.25 116.082031 98.3125 116.441406 97.957031 117.246094 C 97.917969 117.332031 93.96875 126.03125 87.664062 125.371094 C 86.609375 125.261719 85.765625 124.789062 85.085938 123.9375 C 82.753906 121.011719 82.953125 114.53125 83.226562 112.28125 C 83.332031 111.410156 82.710938 110.617188 81.839844 110.511719 C 80.96875 110.402344 80.175781 111.023438 80.070312 111.894531 C 80.050781 112.054688 79.859375 113.71875 79.898438 115.9375 " fill-opacity="1" fill-rule="nonzero"/><path fill="#000000" d="M 78.152344 106.308594 L 78.207031 109.359375 C 78.238281 111.027344 79.515625 112.386719 81.179688 112.523438 L 82.242188 112.609375 C 83.152344 112.683594 84.054688 112.367188 84.71875 111.742188 C 85.382812 111.121094 85.753906 110.238281 85.734375 109.328125 L 85.644531 104.460938 C 85.628906 103.582031 84.90625 102.882812 84.027344 102.902344 C 83.148438 102.917969 82.453125 103.640625 82.46875 104.519531 L 82.558594 109.386719 C 82.558594 109.394531 82.558594 109.410156 82.539062 109.425781 C 82.523438 109.441406 82.507812 109.441406 82.5 109.441406 L 81.4375 109.355469 C 81.410156 109.351562 81.386719 109.328125 81.386719 109.300781 L 81.328125 106.25 C 81.3125 105.375 80.589844 104.675781 79.710938 104.691406 C 78.832031 104.707031 78.136719 105.433594 78.152344 106.308594 " fill-opacity="1" fill-rule="nonzero"/><path fill="#000000" d="M 148.226562 119.199219 C 148.167969 122.316406 147.589844 126.519531 145.1875 129.175781 C 143.804688 130.707031 142.003906 131.582031 139.828125 131.777344 C 130.058594 132.660156 124.671875 122.1875 124.445312 121.742188 C 124.042969 120.9375 124.453125 120 125.363281 119.648438 C 126.269531 119.296875 127.335938 119.660156 127.742188 120.460938 C 127.785156 120.550781 132.289062 129.261719 139.441406 128.617188 C 140.636719 128.507812 141.59375 128.039062 142.363281 127.1875 C 145 124.265625 144.757812 117.785156 144.441406 115.535156 C 144.320312 114.664062 145.023438 113.875 146.011719 113.769531 C 147 113.664062 147.898438 114.289062 148.023438 115.160156 C 148.042969 115.320312 148.269531 116.984375 148.226562 119.199219 " fill-opacity="1" fill-rule="nonzero"/><path fill="#000000" d="M 150.785156 109.285156 L 150.730469 112.335938 C 150.699219 114.003906 149.253906 115.359375 147.367188 115.492188 L 146.164062 115.574219 C 145.132812 115.648438 144.109375 115.328125 143.351562 114.703125 C 142.597656 114.078125 142.171875 113.195312 142.191406 112.285156 L 142.28125 107.417969 C 142.296875 106.539062 143.117188 105.84375 144.113281 105.859375 C 145.109375 105.878906 145.902344 106.605469 145.886719 107.484375 L 145.796875 112.351562 C 145.796875 112.359375 145.796875 112.375 145.816406 112.390625 C 145.835938 112.40625 145.851562 112.40625 145.863281 112.40625 L 147.070312 112.324219 C 147.101562 112.320312 147.125 112.296875 147.125 112.269531 L 147.183594 109.21875 C 147.199219 108.339844 148.019531 107.644531 149.015625 107.664062 C 150.011719 107.679688 150.804688 108.40625 150.785156 109.285156 " fill-opacity="1" fill-rule="nonzero"/><path fill="#ffffff" d="M 137.511719 96.679688 L 134.152344 96.679688 L 134.152344 87.28125 L 137.511719 87.28125 C 138.320312 87.28125 138.972656 87.9375 138.972656 88.746094 L 138.972656 95.21875 C 138.972656 96.027344 138.320312 96.679688 137.511719 96.679688 " fill-opacity="1" fill-rule="nonzero"/><path fill="#000000" d="M 134.359375 96.472656 L 135.351562 96.472656 C 137.238281 96.472656 138.769531 94.941406 138.769531 93.058594 L 138.769531 90.902344 C 138.769531 89.019531 137.238281 87.488281 135.351562 87.488281 L 134.359375 87.488281 Z M 135.351562 96.886719 L 134.152344 96.886719 C 134.039062 96.886719 133.945312 96.792969 133.945312 96.679688 L 133.945312 87.28125 C 133.945312 87.167969 134.039062 87.074219 134.152344 87.074219 L 135.351562 87.074219 C 137.464844 87.074219 139.179688 88.792969 139.179688 90.902344 L 139.179688 93.058594 C 139.179688 95.167969 137.464844 96.886719 135.351562 96.886719 " fill-opacity="1" fill-rule="nonzero"/><path fill="#ffffff" d="M 88.355469 96.679688 L 91.714844 96.679688 L 91.714844 87.28125 L 88.355469 87.28125 C 87.546875 87.28125 86.890625 87.9375 86.890625 88.742188 L 86.890625 95.21875 C 86.890625 96.023438 87.546875 96.679688 88.355469 96.679688 " fill-opacity="1" fill-rule="nonzero"/><path fill="#000000" d="M 90.511719 87.488281 C 88.628906 87.488281 87.097656 89.019531 87.097656 90.902344 L 87.097656 93.058594 C 87.097656 94.941406 88.628906 96.472656 90.511719 96.472656 L 91.507812 96.472656 L 91.507812 87.488281 Z M 91.714844 96.886719 L 90.511719 96.886719 C 88.402344 96.886719 86.6875 95.167969 86.6875 93.058594 L 86.6875 90.902344 C 86.6875 88.792969 88.402344 87.074219 90.511719 87.074219 L 91.714844 87.074219 C 91.828125 87.074219 91.921875 87.167969 91.921875 87.28125 L 91.921875 96.679688 C 91.921875 96.792969 91.828125 96.886719 91.714844 96.886719 " fill-opacity="1" fill-rule="nonzero"/><path fill="#ffffff" d="M 90.195312 91.59375 C 90.195312 81.492188 100.375 71.046875 112.933594 71.046875 C 125.492188 71.046875 135.671875 81.492188 135.671875 91.59375 C 135.671875 101.691406 125.492188 107.621094 112.933594 107.621094 C 100.375 107.621094 90.195312 101.691406 90.195312 91.59375 " fill-opacity="1" fill-rule="nonzero"/><path fill="#000000" d="M 112.933594 71.253906 C 100.039062 71.253906 90.402344 81.992188 90.402344 91.59375 C 90.402344 96.335938 92.671875 100.355469 96.96875 103.222656 C 101.023438 105.925781 106.691406 107.414062 112.933594 107.414062 C 119.175781 107.414062 124.84375 105.925781 128.898438 103.222656 C 133.191406 100.355469 135.464844 96.335938 135.464844 91.59375 C 135.464844 81.992188 125.828125 71.253906 112.933594 71.253906 Z M 112.933594 107.828125 C 106.609375 107.828125 100.859375 106.3125 96.742188 103.566406 C 92.324219 100.621094 89.988281 96.480469 89.988281 91.59375 C 89.988281 86.585938 92.441406 81.40625 96.714844 77.382812 C 101.195312 73.164062 106.953125 70.839844 112.933594 70.839844 C 118.910156 70.839844 124.671875 73.164062 129.152344 77.382812 C 133.425781 81.40625 135.878906 86.585938 135.878906 91.59375 C 135.878906 96.480469 133.542969 100.621094 129.125 103.566406 C 125.007812 106.3125 119.253906 107.828125 112.933594 107.828125 " fill-opacity="1" fill-rule="nonzero"/><path fill="#ffffff" d="M 118.628906 110.652344 L 107.238281 110.652344 C 102.246094 110.652344 98.199219 114.699219 98.199219 119.695312 C 98.199219 122.992188 98.519531 126.28125 99.160156 129.519531 L 100.796875 137.8125 C 101.941406 143.609375 107.023438 147.789062 112.933594 147.789062 C 118.839844 147.789062 123.925781 143.609375 125.070312 137.8125 L 126.707031 129.519531 C 127.347656 126.28125 127.667969 122.992188 127.667969 119.695312 C 127.667969 114.699219 123.621094 110.652344 118.628906 110.652344 " fill-opacity="1" fill-rule="nonzero"/><path fill="#000000" d="M 107.238281 110.859375 C 102.367188 110.859375 98.40625 114.824219 98.40625 119.695312 C 98.40625 122.96875 98.726562 126.261719 99.359375 129.476562 L 101 137.773438 C 102.121094 143.457031 107.140625 147.582031 112.933594 147.582031 C 118.726562 147.582031 123.746094 143.457031 124.867188 137.773438 L 126.503906 129.476562 C 127.140625 126.261719 127.460938 122.96875 127.460938 119.695312 C 127.460938 114.824219 123.5 110.859375 118.628906 110.859375 Z M 112.933594 147.992188 C 106.945312 147.992188 101.753906 143.726562 100.59375 137.851562 L 98.957031 129.558594 C 98.316406 126.316406 97.992188 122.996094 97.992188 119.695312 C 97.992188 114.59375 102.140625 110.445312 107.238281 110.445312 L 118.628906 110.445312 C 123.726562 110.445312 127.875 114.59375 127.875 119.695312 C 127.875 122.996094 127.550781 126.316406 126.910156 129.558594 L 125.273438 137.851562 C 124.113281 143.726562 118.921875 147.992188 112.933594 147.992188 " fill-opacity="1" fill-rule="nonzero"/><path fill="#ffbf23" d="M 114.355469 130.683594 L 111.511719 130.683594 C 108.871094 130.683594 106.734375 128.542969 106.734375 125.90625 L 106.734375 110.652344 L 119.132812 110.652344 L 119.132812 125.90625 C 119.132812 128.542969 116.996094 130.683594 114.355469 130.683594 " fill-opacity="1" fill-rule="nonzero"/><path fill="#000000" d="M 119.132812 110.859375 L 106.734375 110.859375 C 106.617188 110.859375 106.527344 110.765625 106.527344 110.652344 C 106.527344 110.539062 106.617188 110.445312 106.734375 110.445312 L 119.132812 110.445312 C 119.246094 110.445312 119.339844 110.539062 119.339844 110.652344 C 119.339844 110.765625 119.246094 110.859375 119.132812 110.859375 " fill-opacity="1" fill-rule="nonzero"/><path fill="#000000" d="M 126.464844 88.125 L 104.570312 88.125 C 102.296875 88.125 100.453125 90.109375 100.453125 92.5625 L 100.453125 95.457031 C 100.453125 97.324219 101.449219 99.308594 103.171875 99.632812 C 109.238281 100.769531 121.800781 100.769531 127.867188 99.632812 C 129.585938 99.308594 130.585938 97.324219 130.585938 95.457031 L 130.585938 92.5625 C 130.585938 90.109375 128.742188 88.125 126.464844 88.125 " fill-opacity="1" fill-rule="nonzero"/><path fill="#ffbf23" d="M 110.375 93.949219 C 110.375 94.769531 109.757812 95.4375 108.992188 95.4375 C 108.230469 95.4375 107.613281 94.769531 107.613281 93.949219 C 107.613281 93.128906 108.230469 92.464844 108.992188 92.464844 C 109.757812 92.464844 110.375 93.128906 110.375 93.949219 " fill-opacity="1" fill-rule="nonzero"/><path fill="#ffbf23" d="M 125.054688 93.949219 C 125.054688 94.769531 124.4375 95.4375 123.675781 95.4375 C 122.914062 95.4375 122.292969 94.769531 122.292969 93.949219 C 122.292969 93.128906 122.914062 92.464844 123.675781 92.464844 C 124.4375 92.464844 125.054688 93.128906 125.054688 93.949219 " fill-opacity="1" fill-rule="nonzero"/><g clip-path="url(#5dc6d65eb0)"><path fill="#ffbf23" d="M 135.003906 68.289062 L 130.261719 67.976562 C 129.675781 67.9375 129.125 68.246094 128.84375 68.761719 L 127.425781 71.378906 L 126.070312 68.480469 C 125.835938 67.984375 125.355469 67.65625 124.808594 67.617188 L 120.445312 67.332031 C 119.617188 67.277344 118.992188 66.5625 119.046875 65.738281 L 119.65625 56.476562 C 119.710938 55.648438 120.425781 55.023438 121.253906 55.078125 L 135.8125 56.035156 C 136.636719 56.089844 137.265625 56.804688 137.210938 57.628906 L 136.601562 66.890625 C 136.546875 67.71875 135.832031 68.34375 135.003906 68.289062 " fill-opacity="1" fill-rule="nonzero"/></g><path fill="#000000" d="M 133.832031 59.789062 C 133.828125 59.789062 133.824219 59.789062 133.820312 59.789062 L 123.34375 59.128906 C 123.230469 59.121094 123.144531 59.023438 123.152344 58.910156 C 123.160156 58.796875 123.253906 58.707031 123.371094 58.714844 L 133.847656 59.378906 C 133.960938 59.382812 134.046875 59.484375 134.039062 59.597656 C 134.03125 59.707031 133.941406 59.789062 133.832031 59.789062 " fill-opacity="1" fill-rule="nonzero"/><path fill="#000000" d="M 130.710938 62.058594 C 130.707031 62.058594 130.703125 62.058594 130.699219 62.054688 L 122.9375 61.566406 C 122.824219 61.558594 122.738281 61.460938 122.742188 61.347656 C 122.75 61.234375 122.847656 61.144531 122.960938 61.152344 L 130.726562 61.644531 C 130.839844 61.652344 130.925781 61.75 130.917969 61.863281 C 130.914062 61.972656 130.820312 62.058594 130.710938 62.058594 " fill-opacity="1" fill-rule="nonzero"/><path fill="#000000" d="M 133.550781 64.761719 C 133.546875 64.761719 133.542969 64.761719 133.535156 64.761719 L 123.0625 64.097656 C 122.949219 64.089844 122.863281 63.992188 122.871094 63.878906 C 122.875 63.765625 122.972656 63.679688 123.089844 63.683594 L 133.5625 64.347656 C 133.675781 64.355469 133.761719 64.453125 133.757812 64.566406 C 133.75 64.675781 133.660156 64.761719 133.550781 64.761719 " fill-opacity="1" fill-rule="nonzero"/><path fill="#ffbf23" d="M 65.480469 97.1875 C 60.816406 92.582031 60.746094 85.046875 65.328125 80.355469 C 69.90625 75.664062 77.398438 75.597656 82.0625 80.203125 C 86.726562 84.808594 86.792969 92.34375 82.214844 97.03125 C 77.636719 101.722656 70.144531 101.792969 65.480469 97.1875 " fill-opacity="1" fill-rule="nonzero"/><path fill="#ffffff" d="M 81.789062 88.058594 L 73.75 96.292969 C 73.324219 96.726562 72.628906 96.734375 72.195312 96.308594 L 66.539062 90.722656 C 66.105469 90.296875 66.101562 89.59375 66.527344 89.160156 L 74.5625 80.925781 C 74.988281 80.488281 75.6875 80.480469 76.121094 80.910156 L 81.773438 86.492188 C 82.207031 86.921875 82.214844 87.621094 81.789062 88.058594 " fill-opacity="1" fill-rule="nonzero"/><path fill="#000000" d="M 75.347656 80.800781 C 75.347656 80.800781 75.34375 80.800781 75.339844 80.800781 C 75.101562 80.800781 74.878906 80.898438 74.710938 81.070312 L 66.671875 89.304688 C 66.328125 89.65625 66.332031 90.230469 66.683594 90.578125 L 72.339844 96.160156 C 72.507812 96.328125 72.730469 96.421875 72.972656 96.417969 C 73.210938 96.414062 73.433594 96.320312 73.601562 96.148438 L 81.640625 87.914062 C 81.988281 87.558594 81.980469 86.988281 81.628906 86.640625 L 75.972656 81.058594 C 75.804688 80.890625 75.585938 80.800781 75.347656 80.800781 Z M 72.964844 96.832031 C 72.621094 96.832031 72.296875 96.699219 72.046875 96.453125 L 66.394531 90.871094 C 65.882812 90.363281 65.875 89.53125 66.378906 89.015625 L 74.417969 80.78125 C 74.660156 80.53125 74.988281 80.390625 75.335938 80.386719 C 75.683594 80.382812 76.015625 80.515625 76.265625 80.761719 L 81.917969 86.347656 C 82.433594 86.855469 82.441406 87.6875 81.9375 88.203125 L 73.898438 96.4375 C 73.652344 96.6875 73.324219 96.828125 72.976562 96.832031 C 72.972656 96.832031 72.96875 96.832031 72.964844 96.832031 " fill-opacity="1" fill-rule="nonzero"/><path fill="#000000" d="M 69.382812 90.21875 C 69.289062 90.21875 69.203125 90.152344 69.183594 90.054688 C 69.15625 89.941406 69.226562 89.832031 69.339844 89.808594 L 74.46875 88.6875 C 74.582031 88.660156 74.691406 88.730469 74.714844 88.84375 C 74.742188 88.957031 74.671875 89.066406 74.558594 89.089844 L 69.429688 90.210938 C 69.414062 90.214844 69.398438 90.21875 69.382812 90.21875 " fill-opacity="1" fill-rule="nonzero"/><path fill="#000000" d="M 74.535156 89.074219 C 74.523438 89.074219 74.507812 89.070312 74.496094 89.070312 C 74.382812 89.046875 74.3125 88.9375 74.332031 88.828125 L 75.355469 83.644531 C 75.378906 83.535156 75.488281 83.460938 75.597656 83.484375 C 75.710938 83.503906 75.78125 83.613281 75.761719 83.726562 L 74.738281 88.90625 C 74.71875 89.003906 74.632812 89.074219 74.535156 89.074219 " fill-opacity="1" fill-rule="nonzero"/><path fill="#ffbf23" d="M 145.113281 101.96875 C 141.871094 98.769531 141.824219 93.535156 145.003906 90.277344 C 148.183594 87.019531 153.390625 86.972656 156.628906 90.171875 C 159.867188 93.371094 159.917969 98.605469 156.738281 101.863281 C 153.554688 105.121094 148.351562 105.167969 145.113281 101.96875 " fill-opacity="1" fill-rule="nonzero"/><path fill="#ffffff" d="M 149.316406 100.371094 C 149.316406 100.011719 149.445312 99.71875 149.703125 99.488281 C 149.964844 99.257812 150.289062 99.140625 150.679688 99.140625 C 151.066406 99.140625 151.394531 99.257812 151.652344 99.488281 C 151.914062 99.71875 152.042969 100.011719 152.042969 100.371094 C 152.042969 100.734375 151.914062 101.027344 151.652344 101.257812 C 151.394531 101.488281 151.066406 101.605469 150.679688 101.605469 C 150.289062 101.605469 149.964844 101.488281 149.703125 101.257812 C 149.445312 101.027344 149.316406 100.734375 149.316406 100.371094 Z M 149.613281 98.15625 C 149.613281 97.445312 149.695312 96.886719 149.855469 96.476562 C 150.015625 96.066406 150.277344 95.707031 150.636719 95.40625 C 150.996094 95.105469 151.269531 94.832031 151.457031 94.578125 C 151.644531 94.328125 151.734375 94.054688 151.734375 93.75 C 151.734375 93.019531 151.421875 92.652344 150.789062 92.652344 C 150.496094 92.652344 150.261719 92.757812 150.082031 92.972656 C 149.902344 93.1875 149.804688 93.476562 149.796875 93.839844 L 147.332031 93.839844 C 147.34375 92.867188 147.648438 92.109375 148.25 91.570312 C 148.851562 91.027344 149.699219 90.753906 150.789062 90.753906 C 151.871094 90.753906 152.710938 91.003906 153.308594 91.507812 C 153.902344 92.007812 154.199219 92.71875 154.199219 93.644531 C 154.199219 94.046875 154.121094 94.414062 153.960938 94.742188 C 153.800781 95.074219 153.542969 95.414062 153.1875 95.757812 L 152.347656 96.539062 C 152.109375 96.765625 151.945312 97 151.851562 97.242188 C 151.761719 97.480469 151.710938 97.785156 151.699219 98.15625 L 149.613281 98.15625 " fill-opacity="1" fill-rule="nonzero"/><path fill="#000000" d="M 149.824219 97.949219 L 151.503906 97.949219 C 151.523438 97.644531 151.578125 97.382812 151.660156 97.167969 C 151.765625 96.898438 151.945312 96.636719 152.207031 96.386719 L 153.046875 95.605469 C 153.378906 95.28125 153.625 94.960938 153.773438 94.652344 C 153.921875 94.351562 153.996094 94.011719 153.996094 93.640625 C 153.996094 92.773438 153.726562 92.128906 153.175781 91.664062 C 152.621094 91.199219 151.816406 90.960938 150.789062 90.960938 C 149.757812 90.960938 148.949219 91.21875 148.390625 91.722656 C 147.871094 92.1875 147.59375 92.816406 147.546875 93.632812 L 149.605469 93.632812 C 149.644531 93.3125 149.75 93.046875 149.921875 92.839844 C 150.144531 92.578125 150.433594 92.445312 150.789062 92.445312 C 151.21875 92.445312 151.945312 92.613281 151.945312 93.753906 C 151.945312 94.097656 151.835938 94.417969 151.621094 94.703125 C 151.425781 94.964844 151.140625 95.253906 150.769531 95.566406 C 150.4375 95.84375 150.195312 96.175781 150.046875 96.550781 C 149.914062 96.894531 149.839844 97.367188 149.824219 97.949219 Z M 151.699219 98.363281 L 149.613281 98.363281 C 149.5 98.363281 149.410156 98.269531 149.410156 98.15625 C 149.410156 97.421875 149.492188 96.832031 149.664062 96.398438 C 149.835938 95.957031 150.117188 95.570312 150.503906 95.25 C 150.847656 94.957031 151.113281 94.691406 151.289062 94.457031 C 151.453125 94.242188 151.53125 94.007812 151.53125 93.753906 C 151.53125 92.960938 151.132812 92.859375 150.789062 92.859375 C 150.558594 92.859375 150.378906 92.9375 150.238281 93.105469 C 150.089844 93.28125 150.011719 93.53125 150.003906 93.84375 C 150 93.957031 149.910156 94.046875 149.796875 94.046875 L 147.332031 94.046875 C 147.277344 94.046875 147.222656 94.023438 147.1875 93.984375 C 147.148438 93.945312 147.125 93.894531 147.125 93.835938 C 147.136719 92.808594 147.46875 91.992188 148.113281 91.414062 C 148.753906 90.839844 149.652344 90.546875 150.789062 90.546875 C 151.917969 90.546875 152.808594 90.816406 153.441406 91.347656 C 154.082031 91.886719 154.410156 92.660156 154.410156 93.640625 C 154.410156 94.074219 154.320312 94.476562 154.148438 94.832031 C 153.976562 95.183594 153.703125 95.546875 153.332031 95.90625 L 152.488281 96.6875 C 152.277344 96.894531 152.125 97.105469 152.046875 97.316406 C 151.960938 97.535156 151.917969 97.816406 151.90625 98.160156 C 151.90625 98.273438 151.8125 98.363281 151.699219 98.363281 Z M 150.679688 99.347656 C 150.339844 99.347656 150.066406 99.441406 149.84375 99.640625 C 149.628906 99.832031 149.523438 100.070312 149.523438 100.371094 C 149.523438 100.671875 149.628906 100.914062 149.84375 101.105469 C 150.066406 101.300781 150.339844 101.398438 150.679688 101.398438 C 151.019531 101.398438 151.292969 101.300781 151.515625 101.105469 C 151.730469 100.914062 151.835938 100.671875 151.835938 100.371094 C 151.835938 100.070312 151.730469 99.832031 151.515625 99.640625 C 151.292969 99.441406 151.019531 99.347656 150.679688 99.347656 Z M 150.679688 101.8125 C 150.242188 101.8125 149.867188 101.675781 149.570312 101.414062 C 149.265625 101.144531 149.109375 100.792969 149.109375 100.371094 C 149.109375 99.953125 149.265625 99.601562 149.570312 99.332031 C 149.867188 99.066406 150.242188 98.933594 150.679688 98.933594 C 151.117188 98.933594 151.492188 99.066406 151.789062 99.332031 C 152.09375 99.601562 152.25 99.953125 152.25 100.371094 C 152.25 100.792969 152.09375 101.144531 151.789062 101.414062 C 151.492188 101.675781 151.117188 101.8125 150.679688 101.8125 " fill-opacity="1" fill-rule="nonzero"/><path fill="#ffbf23" d="M 85.390625 63.933594 C 85.132812 60.648438 87.582031 57.757812 90.867188 57.476562 C 94.152344 57.199219 97.023438 59.636719 97.285156 62.921875 C 97.546875 66.207031 95.097656 69.097656 91.8125 69.375 C 88.527344 69.65625 85.652344 67.21875 85.390625 63.933594 " fill-opacity="1" fill-rule="nonzero"/><path fill="#ffffff" d="M 92.917969 60.402344 L 93.722656 60.339844 C 93.816406 60.332031 93.894531 60.402344 93.902344 60.492188 L 94.339844 65.910156 C 94.347656 66.003906 94.28125 66.085938 94.1875 66.089844 L 93.382812 66.15625 C 93.292969 66.164062 93.210938 66.097656 93.203125 66.003906 L 92.765625 60.585938 C 92.757812 60.492188 92.828125 60.410156 92.917969 60.402344 " fill-opacity="1" fill-rule="nonzero"/><path fill="#ffffff" d="M 90.839844 62.253906 L 91.644531 62.191406 C 91.734375 62.183594 91.816406 62.25 91.824219 62.34375 L 92.125 66.089844 C 92.132812 66.183594 92.066406 66.265625 91.972656 66.269531 L 91.167969 66.335938 C 91.078125 66.34375 90.996094 66.273438 90.988281 66.183594 L 90.6875 62.4375 C 90.679688 62.34375 90.746094 62.261719 90.839844 62.253906 " fill-opacity="1" fill-rule="nonzero"/><path fill="#ffffff" d="M 88.796875 64.570312 L 89.601562 64.503906 C 89.695312 64.496094 89.773438 64.566406 89.78125 64.65625 L 89.914062 66.269531 C 89.921875 66.363281 89.851562 66.441406 89.757812 66.449219 L 88.957031 66.515625 C 88.863281 66.523438 88.78125 66.453125 88.773438 66.363281 L 88.644531 64.75 C 88.636719 64.65625 88.707031 64.578125 88.796875 64.570312 " fill-opacity="1" fill-rule="nonzero"/><path fill="#000000" d="M 62.25 104.722656 C 62.136719 104.722656 62.042969 104.632812 62.042969 104.515625 L 62.042969 103.449219 C 62.042969 103.335938 62.136719 103.242188 62.25 103.242188 C 62.363281 103.242188 62.457031 103.335938 62.457031 103.449219 L 62.457031 104.515625 C 62.457031 104.632812 62.363281 104.722656 62.25 104.722656 " fill-opacity="1" fill-rule="nonzero"/><path fill="#000000" d="M 62.25 107.214844 C 62.136719 107.214844 62.042969 107.121094 62.042969 107.007812 L 62.042969 105.9375 C 62.042969 105.824219 62.136719 105.730469 62.25 105.730469 C 62.363281 105.730469 62.457031 105.824219 62.457031 105.9375 L 62.457031 107.007812 C 62.457031 107.121094 62.363281 107.214844 62.25 107.214844 " fill-opacity="1" fill-rule="nonzero"/><path fill="#000000" d="M 61.539062 105.433594 L 60.472656 105.433594 C 60.359375 105.433594 60.265625 105.34375 60.265625 105.226562 C 60.265625 105.113281 60.359375 105.019531 60.472656 105.019531 L 61.539062 105.019531 C 61.65625 105.019531 61.746094 105.113281 61.746094 105.226562 C 61.746094 105.34375 61.65625 105.433594 61.539062 105.433594 " fill-opacity="1" fill-rule="nonzero"/><path fill="#000000" d="M 64.03125 105.433594 L 62.960938 105.433594 C 62.847656 105.433594 62.753906 105.34375 62.753906 105.226562 C 62.753906 105.113281 62.847656 105.019531 62.960938 105.019531 L 64.03125 105.019531 C 64.144531 105.019531 64.234375 105.113281 64.234375 105.226562 C 64.234375 105.34375 64.144531 105.433594 64.03125 105.433594 " fill-opacity="1" fill-rule="nonzero"/><path fill="#000000" d="M 73.695312 129.195312 C 73.582031 129.195312 73.492188 129.101562 73.492188 128.988281 L 73.492188 127.917969 C 73.492188 127.804688 73.582031 127.710938 73.695312 127.710938 C 73.8125 127.710938 73.902344 127.804688 73.902344 127.917969 L 73.902344 128.988281 C 73.902344 129.101562 73.8125 129.195312 73.695312 129.195312 " fill-opacity="1" fill-rule="nonzero"/><path fill="#000000" d="M 73.695312 131.683594 C 73.582031 131.683594 73.492188 131.59375 73.492188 131.476562 L 73.492188 130.410156 C 73.492188 130.292969 73.582031 130.203125 73.695312 130.203125 C 73.8125 130.203125 73.902344 130.292969 73.902344 130.410156 L 73.902344 131.476562 C 73.902344 131.59375 73.8125 131.683594 73.695312 131.683594 " fill-opacity="1" fill-rule="nonzero"/><path fill="#000000" d="M 72.988281 129.90625 L 71.917969 129.90625 C 71.804688 129.90625 71.710938 129.8125 71.710938 129.699219 C 71.710938 129.585938 71.804688 129.492188 71.917969 129.492188 L 72.988281 129.492188 C 73.101562 129.492188 73.191406 129.585938 73.191406 129.699219 C 73.191406 129.8125 73.101562 129.90625 72.988281 129.90625 " fill-opacity="1" fill-rule="nonzero"/><path fill="#000000" d="M 75.476562 129.90625 L 74.40625 129.90625 C 74.292969 129.90625 74.199219 129.8125 74.199219 129.699219 C 74.199219 129.585938 74.292969 129.492188 74.40625 129.492188 L 75.476562 129.492188 C 75.589844 129.492188 75.683594 129.585938 75.683594 129.699219 C 75.683594 129.8125 75.589844 129.90625 75.476562 129.90625 " fill-opacity="1" fill-rule="nonzero"/><path fill="#000000" d="M 145.871094 66.585938 C 145.757812 66.585938 145.664062 66.496094 145.664062 66.382812 L 145.664062 65.3125 C 145.664062 65.199219 145.757812 65.105469 145.871094 65.105469 C 145.984375 65.105469 146.078125 65.199219 146.078125 65.3125 L 146.078125 66.382812 C 146.078125 66.496094 145.984375 66.585938 145.871094 66.585938 " fill-opacity="1" fill-rule="nonzero"/><path fill="#000000" d="M 145.871094 69.078125 C 145.757812 69.078125 145.664062 68.984375 145.664062 68.871094 L 145.664062 67.800781 C 145.664062 67.6875 145.757812 67.59375 145.871094 67.59375 C 145.984375 67.59375 146.078125 67.6875 146.078125 67.800781 L 146.078125 68.871094 C 146.078125 68.984375 145.984375 69.078125 145.871094 69.078125 " fill-opacity="1" fill-rule="nonzero"/><path fill="#000000" d="M 145.160156 67.296875 L 144.09375 67.296875 C 143.976562 67.296875 143.886719 67.203125 143.886719 67.089844 C 143.886719 66.976562 143.976562 66.882812 144.09375 66.882812 L 145.160156 66.882812 C 145.273438 66.882812 145.367188 66.976562 145.367188 67.089844 C 145.367188 67.203125 145.273438 67.296875 145.160156 67.296875 " fill-opacity="1" fill-rule="nonzero"/><path fill="#000000" d="M 147.648438 67.296875 L 146.582031 67.296875 C 146.46875 67.296875 146.375 67.203125 146.375 67.089844 C 146.375 66.976562 146.46875 66.882812 146.582031 66.882812 L 147.648438 66.882812 C 147.765625 66.882812 147.855469 66.976562 147.855469 67.089844 C 147.855469 67.203125 147.765625 67.296875 147.648438 67.296875 " fill-opacity="1" fill-rule="nonzero"/><path fill="#ffffff" d="M 64.136719 112.019531 C 64.136719 112.558594 63.699219 112.996094 63.160156 112.996094 C 62.621094 112.996094 62.183594 112.558594 62.183594 112.019531 C 62.183594 111.480469 62.621094 111.042969 63.160156 111.042969 C 63.699219 111.042969 64.136719 111.480469 64.136719 112.019531 " fill-opacity="1" fill-rule="nonzero"/><path fill="#ffffff" d="M 160.691406 79.578125 C 160.691406 80.117188 160.253906 80.554688 159.714844 80.554688 C 159.175781 80.554688 158.738281 80.117188 158.738281 79.578125 C 158.738281 79.039062 159.175781 78.601562 159.714844 78.601562 C 160.253906 78.601562 160.691406 79.039062 160.691406 79.578125 " fill-opacity="1" fill-rule="nonzero"/><path fill="#ffffff" d="M 81 67.882812 C 81 68.421875 80.5625 68.859375 80.019531 68.859375 C 79.480469 68.859375 79.042969 68.421875 79.042969 67.882812 C 79.042969 67.34375 79.480469 66.90625 80.019531 66.90625 C 80.5625 66.90625 81 67.34375 81 67.882812 " fill-opacity="1" fill-rule="nonzero"/><path fill="#ffbf23" d="M 63.070312 120.292969 C 62.964844 120.292969 62.875 120.214844 62.863281 120.105469 C 62.8125 119.558594 62.769531 119.003906 62.734375 118.453125 C 62.726562 118.339844 62.8125 118.242188 62.925781 118.234375 C 63.042969 118.226562 63.136719 118.3125 63.144531 118.425781 C 63.179688 118.972656 63.226562 119.523438 63.273438 120.070312 C 63.285156 120.183594 63.203125 120.285156 63.089844 120.292969 C 63.082031 120.292969 63.074219 120.292969 63.070312 120.292969 Z M 63.460938 123.578125 C 63.359375 123.578125 63.269531 123.503906 63.257812 123.402344 C 63.175781 122.859375 63.101562 122.304688 63.039062 121.757812 C 63.023438 121.644531 63.105469 121.539062 63.21875 121.527344 C 63.332031 121.515625 63.433594 121.59375 63.449219 121.707031 C 63.511719 122.253906 63.585938 122.804688 63.664062 123.34375 C 63.679688 123.453125 63.601562 123.558594 63.492188 123.574219 C 63.480469 123.578125 63.46875 123.578125 63.460938 123.578125 Z M 152.925781 124.078125 C 152.8125 124.078125 152.71875 123.988281 152.71875 123.875 C 152.710938 123.300781 152.675781 122.753906 152.621094 122.246094 C 152.609375 122.132812 152.691406 122.03125 152.804688 122.015625 C 152.917969 122.003906 153.019531 122.085938 153.03125 122.199219 C 153.089844 122.722656 153.121094 123.285156 153.128906 123.871094 C 153.132812 123.984375 153.039062 124.078125 152.925781 124.078125 Z M 64.035156 126.835938 C 63.9375 126.835938 63.851562 126.769531 63.832031 126.671875 C 63.722656 126.136719 63.617188 125.589844 63.519531 125.039062 C 63.5 124.929688 63.574219 124.820312 63.6875 124.800781 C 63.800781 124.78125 63.90625 124.855469 63.925781 124.96875 C 64.023438 125.511719 64.128906 126.058594 64.238281 126.589844 C 64.257812 126.699219 64.1875 126.808594 64.074219 126.832031 C 64.0625 126.835938 64.046875 126.835938 64.035156 126.835938 Z M 152.742188 127.378906 C 152.734375 127.378906 152.726562 127.378906 152.71875 127.378906 C 152.605469 127.367188 152.523438 127.261719 152.539062 127.148438 C 152.601562 126.585938 152.648438 126.039062 152.679688 125.511719 C 152.683594 125.398438 152.78125 125.3125 152.898438 125.320312 C 153.011719 125.324219 153.097656 125.421875 153.089844 125.535156 C 153.0625 126.070312 153.011719 126.628906 152.949219 127.195312 C 152.9375 127.300781 152.847656 127.378906 152.742188 127.378906 Z M 64.800781 130.058594 C 64.707031 130.058594 64.625 129.996094 64.597656 129.90625 C 64.457031 129.375 64.320312 128.832031 64.191406 128.292969 C 64.164062 128.183594 64.234375 128.070312 64.34375 128.046875 C 64.457031 128.019531 64.566406 128.085938 64.59375 128.199219 C 64.71875 128.734375 64.855469 129.273438 65 129.796875 C 65.027344 129.90625 64.964844 130.019531 64.851562 130.050781 C 64.835938 130.054688 64.816406 130.058594 64.800781 130.058594 Z M 152.21875 130.644531 C 152.207031 130.644531 152.191406 130.644531 152.175781 130.640625 C 152.066406 130.617188 151.992188 130.507812 152.015625 130.398438 C 152.128906 129.851562 152.226562 129.308594 152.3125 128.777344 C 152.328125 128.664062 152.4375 128.589844 152.550781 128.609375 C 152.660156 128.625 152.738281 128.730469 152.71875 128.84375 C 152.632812 129.378906 152.535156 129.929688 152.421875 130.480469 C 152.402344 130.578125 152.316406 130.644531 152.21875 130.644531 Z M 65.765625 133.222656 C 65.679688 133.222656 65.597656 133.171875 65.570312 133.085938 C 65.390625 132.566406 65.21875 132.035156 65.058594 131.503906 C 65.023438 131.394531 65.085938 131.277344 65.195312 131.246094 C 65.304688 131.210938 65.421875 131.273438 65.453125 131.382812 C 65.613281 131.910156 65.785156 132.4375 65.960938 132.953125 C 65.996094 133.058594 65.941406 133.175781 65.832031 133.214844 C 65.808594 133.222656 65.789062 133.222656 65.765625 133.222656 Z M 151.441406 133.859375 C 151.425781 133.859375 151.40625 133.859375 151.386719 133.851562 C 151.277344 133.824219 151.210938 133.710938 151.242188 133.597656 C 151.390625 133.066406 151.53125 132.53125 151.660156 132.003906 C 151.683594 131.894531 151.796875 131.824219 151.90625 131.851562 C 152.019531 131.878906 152.085938 131.992188 152.058594 132.101562 C 151.929688 132.632812 151.789062 133.175781 151.640625 133.710938 C 151.617188 133.800781 151.535156 133.859375 151.441406 133.859375 Z M 66.945312 136.320312 C 66.863281 136.320312 66.789062 136.273438 66.753906 136.191406 C 66.539062 135.6875 66.332031 135.167969 66.132812 134.648438 C 66.09375 134.542969 66.148438 134.421875 66.253906 134.382812 C 66.359375 134.34375 66.480469 134.394531 66.519531 134.5 C 66.714844 135.015625 66.921875 135.53125 67.136719 136.03125 C 67.179688 136.136719 67.128906 136.257812 67.023438 136.304688 C 67 136.3125 66.972656 136.320312 66.945312 136.320312 Z M 150.453125 137.019531 C 150.429688 137.019531 150.40625 137.015625 150.382812 137.007812 C 150.277344 136.96875 150.21875 136.851562 150.257812 136.742188 C 150.4375 136.226562 150.613281 135.699219 150.777344 135.179688 C 150.808594 135.070312 150.925781 135.011719 151.035156 135.042969 C 151.144531 135.078125 151.203125 135.195312 151.167969 135.304688 C 151.003906 135.828125 150.828125 136.359375 150.648438 136.878906 C 150.617188 136.964844 150.539062 137.019531 150.453125 137.019531 Z M 68.347656 139.316406 C 68.273438 139.316406 68.203125 139.277344 68.164062 139.207031 C 67.914062 138.71875 67.664062 138.214844 67.429688 137.714844 C 67.382812 137.609375 67.425781 137.484375 67.53125 137.4375 C 67.632812 137.390625 67.757812 137.433594 67.804688 137.539062 C 68.039062 138.035156 68.28125 138.53125 68.53125 139.015625 C 68.585938 139.117188 68.542969 139.242188 68.445312 139.292969 C 68.414062 139.308594 68.378906 139.316406 68.347656 139.316406 Z M 149.257812 140.101562 C 149.230469 140.101562 149.203125 140.097656 149.175781 140.085938 C 149.074219 140.042969 149.023438 139.917969 149.070312 139.816406 C 149.28125 139.316406 149.488281 138.804688 149.6875 138.289062 C 149.730469 138.183594 149.851562 138.128906 149.957031 138.171875 C 150.0625 138.210938 150.117188 138.332031 150.074219 138.4375 C 149.875 138.957031 149.664062 139.476562 149.449219 139.976562 C 149.414062 140.054688 149.339844 140.101562 149.257812 140.101562 Z M 118.417969 141.882812 C 118.339844 141.882812 118.265625 141.835938 118.230469 141.757812 C 118.183594 141.65625 118.230469 141.53125 118.335938 141.484375 C 118.566406 141.382812 118.8125 141.304688 119.070312 141.253906 C 119.390625 141.191406 119.722656 141.171875 120.050781 141.203125 C 120.164062 141.214844 120.246094 141.316406 120.238281 141.429688 C 120.226562 141.542969 120.125 141.625 120.011719 141.613281 C 119.722656 141.589844 119.433594 141.605469 119.148438 141.660156 C 118.921875 141.703125 118.707031 141.773438 118.503906 141.863281 C 118.476562 141.875 118.449219 141.882812 118.417969 141.882812 Z M 69.988281 142.191406 C 69.917969 142.191406 69.851562 142.160156 69.8125 142.09375 C 69.523438 141.632812 69.234375 141.152344 68.957031 140.667969 C 68.902344 140.570312 68.9375 140.441406 69.035156 140.386719 C 69.136719 140.328125 69.261719 140.363281 69.316406 140.464844 C 69.589844 140.941406 69.875 141.417969 70.164062 141.875 C 70.222656 141.972656 70.195312 142.101562 70.097656 142.160156 C 70.0625 142.183594 70.027344 142.191406 69.988281 142.191406 Z M 147.847656 143.09375 C 147.8125 143.09375 147.78125 143.085938 147.75 143.070312 C 147.648438 143.019531 147.609375 142.894531 147.664062 142.792969 C 147.910156 142.316406 148.15625 141.820312 148.394531 141.316406 C 148.445312 141.214844 148.566406 141.171875 148.667969 141.21875 C 148.773438 141.265625 148.816406 141.390625 148.769531 141.492188 C 148.527344 142.003906 148.28125 142.503906 148.027344 142.984375 C 147.992188 143.054688 147.921875 143.09375 147.847656 143.09375 Z M 122.882812 143.148438 C 122.828125 143.148438 122.777344 143.125 122.734375 143.085938 C 122.339844 142.675781 121.917969 142.34375 121.488281 142.101562 C 121.386719 142.042969 121.351562 141.917969 121.410156 141.816406 C 121.464844 141.71875 121.59375 141.683594 121.691406 141.742188 C 122.15625 142.003906 122.609375 142.359375 123.03125 142.796875 C 123.113281 142.878906 123.109375 143.007812 123.027344 143.085938 C 122.988281 143.125 122.9375 143.148438 122.882812 143.148438 Z M 116.476562 144.414062 C 116.460938 144.414062 116.445312 144.414062 116.425781 144.410156 C 116.316406 144.382812 116.25 144.269531 116.277344 144.15625 C 116.429688 143.5625 116.667969 143.035156 116.992188 142.589844 C 117.058594 142.5 117.1875 142.480469 117.28125 142.546875 C 117.375 142.613281 117.394531 142.742188 117.324219 142.835938 C 117.035156 143.234375 116.816406 143.714844 116.679688 144.257812 C 116.65625 144.351562 116.570312 144.414062 116.476562 144.414062 Z M 71.871094 144.910156 C 71.808594 144.910156 71.746094 144.882812 71.707031 144.828125 C 71.375 144.394531 71.042969 143.941406 70.730469 143.484375 C 70.664062 143.390625 70.6875 143.261719 70.78125 143.195312 C 70.875 143.132812 71.003906 143.15625 71.070312 143.25 C 71.378906 143.699219 71.707031 144.148438 72.035156 144.578125 C 72.105469 144.671875 72.085938 144.800781 71.996094 144.867188 C 71.957031 144.898438 71.914062 144.910156 71.871094 144.910156 Z M 124.648438 145.921875 C 124.566406 145.921875 124.484375 145.871094 124.453125 145.789062 C 124.265625 145.296875 124.019531 144.8125 123.730469 144.347656 C 123.667969 144.253906 123.695312 144.125 123.792969 144.066406 C 123.886719 144.003906 124.015625 144.03125 124.078125 144.128906 C 124.386719 144.613281 124.640625 145.121094 124.839844 145.640625 C 124.882812 145.746094 124.828125 145.863281 124.722656 145.90625 C 124.695312 145.914062 124.671875 145.921875 124.648438 145.921875 Z M 146.171875 145.945312 C 146.132812 145.945312 146.089844 145.933594 146.054688 145.910156 C 145.960938 145.847656 145.9375 145.71875 146 145.625 C 146.289062 145.1875 146.582031 144.71875 146.867188 144.230469 C 146.925781 144.132812 147.050781 144.101562 147.152344 144.15625 C 147.25 144.214844 147.28125 144.339844 147.222656 144.441406 C 146.933594 144.933594 146.636719 145.410156 146.34375 145.855469 C 146.300781 145.914062 146.238281 145.945312 146.171875 145.945312 Z M 74 147.4375 C 73.941406 147.4375 73.886719 147.414062 73.847656 147.371094 C 73.472656 146.972656 73.101562 146.550781 72.746094 146.128906 C 72.671875 146.039062 72.683594 145.910156 72.769531 145.835938 C 72.859375 145.761719 72.988281 145.773438 73.0625 145.859375 C 73.414062 146.28125 73.78125 146.695312 74.148438 147.089844 C 74.226562 147.175781 74.222656 147.304688 74.140625 147.382812 C 74.097656 147.417969 74.046875 147.4375 74 147.4375 Z M 116.613281 147.675781 C 116.527344 147.675781 116.445312 147.621094 116.417969 147.535156 C 116.238281 147.019531 116.128906 146.4375 116.105469 145.855469 C 116.101562 145.742188 116.191406 145.644531 116.304688 145.640625 C 116.425781 145.636719 116.515625 145.726562 116.519531 145.839844 C 116.542969 146.378906 116.640625 146.921875 116.808594 147.398438 C 116.847656 147.507812 116.789062 147.625 116.679688 147.664062 C 116.660156 147.671875 116.636719 147.675781 116.613281 147.675781 Z M 144.125 148.539062 C 144.074219 148.539062 144.023438 148.519531 143.980469 148.480469 C 143.898438 148.402344 143.898438 148.269531 143.976562 148.1875 C 144.328125 147.824219 144.6875 147.40625 145.042969 146.953125 C 145.113281 146.863281 145.242188 146.847656 145.332031 146.917969 C 145.421875 146.988281 145.4375 147.117188 145.367188 147.207031 C 145.003906 147.671875 144.636719 148.101562 144.273438 148.476562 C 144.230469 148.519531 144.179688 148.539062 144.125 148.539062 Z M 125.0625 149.171875 C 125.054688 149.171875 125.046875 149.171875 125.042969 149.167969 C 124.925781 149.160156 124.84375 149.058594 124.855469 148.945312 C 124.878906 148.714844 124.886719 148.476562 124.886719 148.242188 C 124.886719 147.945312 124.871094 147.640625 124.835938 147.335938 C 124.824219 147.222656 124.90625 147.121094 125.019531 147.109375 C 125.132812 147.097656 125.234375 147.179688 125.246094 147.292969 C 125.28125 147.609375 125.300781 147.929688 125.300781 148.242188 C 125.300781 148.488281 125.289062 148.738281 125.265625 148.984375 C 125.257812 149.089844 125.167969 149.171875 125.0625 149.171875 Z M 76.367188 149.734375 C 76.316406 149.734375 76.269531 149.71875 76.230469 149.683594 C 75.816406 149.324219 75.40625 148.945312 75.007812 148.558594 C 74.925781 148.480469 74.925781 148.347656 75.003906 148.265625 C 75.082031 148.1875 75.214844 148.183594 75.296875 148.261719 C 75.6875 148.644531 76.09375 149.015625 76.5 149.375 C 76.585938 149.449219 76.597656 149.578125 76.519531 149.664062 C 76.480469 149.710938 76.421875 149.734375 76.367188 149.734375 Z M 118.476562 150.363281 C 118.425781 150.363281 118.378906 150.34375 118.335938 150.308594 C 117.902344 149.910156 117.523438 149.488281 117.210938 149.042969 C 117.144531 148.953125 117.167969 148.824219 117.257812 148.757812 C 117.351562 148.691406 117.480469 148.710938 117.546875 148.804688 C 117.84375 149.222656 118.203125 149.625 118.617188 150.003906 C 118.699219 150.078125 118.707031 150.210938 118.628906 150.292969 C 118.589844 150.339844 118.53125 150.363281 118.476562 150.363281 Z M 141.605469 150.671875 C 141.539062 150.671875 141.476562 150.640625 141.4375 150.585938 C 141.367188 150.496094 141.386719 150.367188 141.480469 150.296875 C 141.894531 149.988281 142.328125 149.648438 142.769531 149.285156 C 142.859375 149.210938 142.988281 149.222656 143.0625 149.3125 C 143.132812 149.398438 143.121094 149.53125 143.035156 149.601562 C 142.585938 149.972656 142.148438 150.316406 141.726562 150.628906 C 141.6875 150.65625 141.644531 150.671875 141.605469 150.671875 Z M 78.964844 151.773438 C 78.921875 151.773438 78.882812 151.761719 78.84375 151.738281 C 78.394531 151.421875 77.945312 151.085938 77.511719 150.746094 C 77.421875 150.675781 77.40625 150.546875 77.476562 150.457031 C 77.546875 150.367188 77.675781 150.351562 77.765625 150.421875 C 78.195312 150.757812 78.636719 151.085938 79.082031 151.398438 C 79.175781 151.464844 79.199219 151.59375 79.132812 151.6875 C 79.09375 151.742188 79.027344 151.773438 78.964844 151.773438 Z M 121.230469 152.171875 C 121.203125 152.171875 121.171875 152.164062 121.140625 152.148438 C 120.617188 151.894531 120.125 151.621094 119.675781 151.332031 C 119.582031 151.269531 119.554688 151.140625 119.617188 151.046875 C 119.675781 150.949219 119.804688 150.921875 119.902344 150.984375 C 120.335938 151.265625 120.8125 151.53125 121.320312 151.777344 C 121.425781 151.828125 121.464844 151.949219 121.417969 152.054688 C 121.382812 152.125 121.308594 152.171875 121.230469 152.171875 Z M 124.027344 152.277344 C 123.992188 152.277344 123.953125 152.269531 123.921875 152.25 C 123.824219 152.1875 123.792969 152.0625 123.851562 151.964844 C 124.132812 151.503906 124.359375 151.015625 124.527344 150.511719 C 124.5625 150.402344 124.679688 150.34375 124.789062 150.382812 C 124.898438 150.417969 124.953125 150.535156 124.917969 150.640625 C 124.742188 151.175781 124.5 151.691406 124.203125 152.179688 C 124.164062 152.242188 124.097656 152.277344 124.027344 152.277344 Z M 138.824219 152.453125 C 138.75 152.453125 138.679688 152.414062 138.640625 152.34375 C 138.585938 152.242188 138.625 152.117188 138.726562 152.0625 C 139.1875 151.820312 139.664062 151.539062 140.136719 151.234375 C 140.230469 151.171875 140.359375 151.199219 140.421875 151.296875 C 140.484375 151.390625 140.453125 151.519531 140.359375 151.582031 C 139.875 151.894531 139.390625 152.179688 138.921875 152.429688 C 138.890625 152.445312 138.855469 152.453125 138.824219 152.453125 Z M 124.328125 153.324219 C 124.308594 153.324219 124.289062 153.320312 124.273438 153.316406 C 123.722656 153.160156 123.1875 152.988281 122.683594 152.800781 C 122.574219 152.761719 122.523438 152.644531 122.5625 152.535156 C 122.601562 152.429688 122.71875 152.375 122.824219 152.414062 C 123.320312 152.597656 123.847656 152.765625 124.382812 152.917969 C 124.492188 152.949219 124.558594 153.0625 124.527344 153.171875 C 124.5 153.261719 124.417969 153.324219 124.328125 153.324219 Z M 81.765625 153.519531 C 81.734375 153.519531 81.699219 153.511719 81.667969 153.496094 C 81.183594 153.230469 80.699219 152.945312 80.230469 152.652344 C 80.136719 152.59375 80.105469 152.464844 80.167969 152.371094 C 80.226562 152.273438 80.355469 152.242188 80.449219 152.304688 C 80.914062 152.589844 81.390625 152.871094 81.867188 153.132812 C 81.964844 153.1875 82.003906 153.3125 81.949219 153.414062 C 81.910156 153.480469 81.839844 153.519531 81.765625 153.519531 Z M 135.765625 153.6875 C 135.675781 153.6875 135.59375 153.628906 135.566406 153.535156 C 135.535156 153.425781 135.601562 153.3125 135.710938 153.28125 C 136.226562 153.136719 136.746094 152.960938 137.25 152.753906 C 137.355469 152.710938 137.476562 152.761719 137.519531 152.871094 C 137.5625 152.976562 137.511719 153.09375 137.40625 153.136719 C 136.886719 153.347656 136.355469 153.53125 135.820312 153.679688 C 135.800781 153.683594 135.785156 153.6875 135.765625 153.6875 Z M 127.566406 153.992188 C 127.554688 153.992188 127.546875 153.992188 127.539062 153.992188 C 126.992188 153.917969 126.441406 153.820312 125.890625 153.710938 C 125.78125 153.6875 125.707031 153.578125 125.730469 153.464844 C 125.753906 153.351562 125.867188 153.28125 125.976562 153.304688 C 126.515625 153.414062 127.058594 153.507812 127.59375 153.582031 C 127.707031 153.597656 127.785156 153.703125 127.769531 153.816406 C 127.757812 153.917969 127.667969 153.992188 127.566406 153.992188 Z M 132.511719 154.222656 C 132.402344 154.222656 132.3125 154.136719 132.304688 154.027344 C 132.296875 153.914062 132.382812 153.816406 132.496094 153.808594 C 133.054688 153.773438 133.597656 153.714844 134.117188 153.628906 C 134.230469 153.613281 134.339844 153.6875 134.355469 153.800781 C 134.375 153.914062 134.296875 154.019531 134.183594 154.039062 C 133.652344 154.125 133.09375 154.1875 132.523438 154.222656 C 132.519531 154.222656 132.515625 154.222656 132.511719 154.222656 Z M 130.859375 154.257812 C 130.859375 154.257812 130.855469 154.257812 130.855469 154.257812 C 130.328125 154.246094 129.765625 154.21875 129.191406 154.167969 C 129.078125 154.160156 128.992188 154.0625 129.003906 153.949219 C 129.011719 153.832031 129.113281 153.75 129.226562 153.757812 C 129.792969 153.804688 130.34375 153.832031 130.863281 153.84375 C 130.976562 153.84375 131.066406 153.9375 131.066406 154.054688 C 131.0625 154.164062 130.972656 154.257812 130.859375 154.257812 Z M 121.792969 154.6875 C 121.730469 154.6875 121.667969 154.65625 121.628906 154.605469 C 121.558594 154.511719 121.578125 154.382812 121.667969 154.3125 C 122.113281 153.984375 122.519531 153.621094 122.875 153.242188 C 122.953125 153.15625 123.085938 153.152344 123.167969 153.230469 C 123.25 153.308594 123.257812 153.441406 123.179688 153.523438 C 122.804688 153.921875 122.378906 154.300781 121.917969 154.644531 C 121.878906 154.671875 121.835938 154.6875 121.792969 154.6875 Z M 84.742188 154.957031 C 84.714844 154.957031 84.6875 154.949219 84.660156 154.9375 C 84.152344 154.726562 83.640625 154.496094 83.144531 154.257812 C 83.042969 154.207031 83 154.082031 83.046875 153.980469 C 83.097656 153.878906 83.222656 153.835938 83.324219 153.882812 C 83.8125 154.121094 84.316406 154.347656 84.820312 154.558594 C 84.925781 154.601562 84.976562 154.722656 84.929688 154.828125 C 84.898438 154.90625 84.820312 154.957031 84.742188 154.957031 Z M 87.847656 156.074219 C 87.828125 156.074219 87.808594 156.070312 87.789062 156.066406 C 87.257812 155.902344 86.726562 155.726562 86.210938 155.542969 C 86.101562 155.503906 86.046875 155.386719 86.085938 155.277344 C 86.125 155.171875 86.242188 155.113281 86.351562 155.152344 C 86.859375 155.335938 87.386719 155.511719 87.910156 155.667969 C 88.019531 155.703125 88.078125 155.816406 88.046875 155.925781 C 88.019531 156.015625 87.9375 156.074219 87.847656 156.074219 Z M 118.886719 156.242188 C 118.804688 156.242188 118.726562 156.191406 118.695312 156.109375 C 118.65625 156 118.710938 155.882812 118.816406 155.84375 C 119.332031 155.652344 119.832031 155.429688 120.300781 155.179688 C 120.398438 155.125 120.523438 155.164062 120.578125 155.265625 C 120.632812 155.367188 120.59375 155.492188 120.492188 155.542969 C 120.007812 155.800781 119.492188 156.035156 118.960938 156.230469 C 118.9375 156.238281 118.914062 156.242188 118.886719 156.242188 Z M 91.046875 156.90625 C 91.03125 156.90625 91.015625 156.90625 91 156.902344 C 90.460938 156.78125 89.917969 156.652344 89.386719 156.511719 C 89.277344 156.484375 89.210938 156.371094 89.238281 156.261719 C 89.269531 156.152344 89.378906 156.085938 89.492188 156.113281 C 90.015625 156.25 90.554688 156.378906 91.089844 156.5 C 91.203125 156.523438 91.273438 156.632812 91.246094 156.746094 C 91.226562 156.84375 91.140625 156.90625 91.046875 156.90625 Z M 115.683594 157.035156 C 115.585938 157.035156 115.496094 156.964844 115.480469 156.863281 C 115.460938 156.75 115.535156 156.644531 115.648438 156.625 C 116.03125 156.554688 116.421875 156.480469 116.808594 156.40625 C 116.957031 156.375 117.109375 156.34375 117.257812 156.308594 C 117.371094 156.285156 117.480469 156.351562 117.507812 156.464844 C 117.53125 156.574219 117.464844 156.6875 117.351562 156.710938 C 117.199219 156.746094 117.042969 156.78125 116.886719 156.8125 C 116.5 156.886719 116.105469 156.960938 115.722656 157.03125 C 115.707031 157.03125 115.695312 157.035156 115.683594 157.035156 Z M 94.292969 157.515625 C 94.285156 157.515625 94.273438 157.515625 94.261719 157.515625 C 93.714844 157.429688 93.164062 157.335938 92.628906 157.234375 C 92.515625 157.214844 92.441406 157.105469 92.460938 156.996094 C 92.484375 156.882812 92.589844 156.808594 92.703125 156.828125 C 93.234375 156.929688 93.78125 157.023438 94.324219 157.105469 C 94.4375 157.125 94.515625 157.230469 94.5 157.34375 C 94.484375 157.445312 94.394531 157.515625 94.292969 157.515625 Z M 112.417969 157.546875 C 112.316406 157.546875 112.226562 157.46875 112.210938 157.367188 C 112.199219 157.253906 112.277344 157.148438 112.390625 157.132812 C 112.929688 157.0625 113.480469 156.980469 114.019531 156.898438 C 114.132812 156.878906 114.238281 156.957031 114.257812 157.070312 C 114.277344 157.183594 114.199219 157.289062 114.085938 157.304688 C 113.542969 157.390625 112.988281 157.472656 112.445312 157.542969 C 112.433594 157.542969 112.425781 157.546875 112.417969 157.546875 Z M 109.128906 157.910156 C 109.023438 157.910156 108.933594 157.828125 108.925781 157.71875 C 108.914062 157.605469 109 157.507812 109.113281 157.496094 C 109.65625 157.449219 110.207031 157.394531 110.753906 157.332031 C 110.867188 157.320312 110.96875 157.402344 110.980469 157.515625 C 110.996094 157.628906 110.914062 157.730469 110.800781 157.746094 C 110.25 157.804688 109.695312 157.859375 109.148438 157.90625 C 109.144531 157.910156 109.136719 157.910156 109.128906 157.910156 Z M 97.574219 157.921875 C 97.570312 157.921875 97.5625 157.917969 97.554688 157.917969 C 97.003906 157.867188 96.449219 157.808594 95.90625 157.742188 C 95.792969 157.726562 95.710938 157.625 95.726562 157.511719 C 95.742188 157.398438 95.84375 157.316406 95.957031 157.332031 C 96.496094 157.398438 97.046875 157.457031 97.59375 157.507812 C 97.707031 157.519531 97.792969 157.617188 97.78125 157.730469 C 97.769531 157.839844 97.679688 157.921875 97.574219 157.921875 Z M 105.832031 158.121094 C 105.722656 158.121094 105.628906 158.03125 105.625 157.921875 C 105.621094 157.808594 105.710938 157.710938 105.824219 157.707031 C 106.367188 157.683594 106.921875 157.65625 107.46875 157.621094 C 107.582031 157.613281 107.683594 157.699219 107.691406 157.8125 C 107.695312 157.929688 107.609375 158.027344 107.496094 158.035156 C 106.945312 158.070312 106.386719 158.097656 105.839844 158.121094 C 105.839844 158.121094 105.835938 158.121094 105.832031 158.121094 Z M 100.875 158.132812 C 100.871094 158.132812 100.871094 158.132812 100.867188 158.132812 C 100.3125 158.109375 99.753906 158.082031 99.210938 158.046875 C 99.097656 158.042969 99.007812 157.941406 99.015625 157.828125 C 99.023438 157.714844 99.121094 157.628906 99.238281 157.636719 C 99.777344 157.671875 100.332031 157.699219 100.882812 157.71875 C 100.996094 157.722656 101.085938 157.816406 101.082031 157.933594 C 101.078125 158.042969 100.984375 158.132812 100.875 158.132812 Z M 103.183594 158.171875 C 102.964844 158.171875 102.742188 158.171875 102.523438 158.171875 C 102.410156 158.167969 102.320312 158.074219 102.320312 157.960938 C 102.320312 157.847656 102.414062 157.757812 102.527344 157.757812 C 103.078125 157.761719 103.628906 157.761719 104.175781 157.753906 C 104.179688 157.753906 104.179688 157.753906 104.179688 157.753906 C 104.292969 157.753906 104.382812 157.84375 104.386719 157.957031 C 104.386719 158.070312 104.296875 158.164062 104.183594 158.164062 C 103.847656 158.171875 103.515625 158.171875 103.183594 158.171875 " fill-opacity="1" fill-rule="nonzero"/><path fill="#000000" d="M 166.75 71.066406 C 166.679688 71.066406 166.609375 71.03125 166.570312 70.96875 C 163.898438 66.605469 160.59375 63.070312 156.742188 60.464844 C 156.644531 60.398438 156.621094 60.269531 156.6875 60.175781 C 156.75 60.082031 156.878906 60.058594 156.972656 60.121094 C 160.875 62.761719 164.222656 66.339844 166.925781 70.753906 C 166.984375 70.851562 166.953125 70.976562 166.855469 71.035156 C 166.820312 71.058594 166.785156 71.066406 166.75 71.066406 " fill-opacity="1" fill-rule="nonzero"/><path fill="#000000" d="M 169.347656 72.332031 C 169.265625 72.332031 169.191406 72.289062 169.15625 72.210938 C 165.773438 64.621094 160.253906 60.109375 156.21875 57.660156 C 156.121094 57.601562 156.089844 57.472656 156.148438 57.375 C 156.207031 57.277344 156.335938 57.246094 156.433594 57.308594 C 160.515625 59.785156 166.105469 64.355469 169.535156 72.042969 C 169.582031 72.144531 169.535156 72.269531 169.429688 72.316406 C 169.402344 72.328125 169.375 72.332031 169.347656 72.332031 " fill-opacity="1" fill-rule="nonzero"/><path fill="#000000" d="M 63.046875 74.050781 C 63.015625 74.050781 62.988281 74.042969 62.960938 74.03125 C 62.859375 73.984375 62.808594 73.863281 62.855469 73.757812 C 65.539062 67.640625 70.113281 62.621094 76.449219 58.839844 C 76.546875 58.78125 76.675781 58.816406 76.734375 58.914062 C 76.792969 59.011719 76.757812 59.136719 76.660156 59.195312 C 70.402344 62.933594 65.882812 67.886719 63.234375 73.925781 C 63.199219 74.003906 63.125 74.050781 63.046875 74.050781 " fill-opacity="1" fill-rule="nonzero"/><path fill="#000000" d="M 60.640625 74.273438 C 60.621094 74.273438 60.597656 74.273438 60.574219 74.265625 C 60.46875 74.226562 60.410156 74.109375 60.445312 74 C 60.476562 73.910156 63.671875 64.910156 72.902344 58.863281 C 73 58.800781 73.125 58.828125 73.1875 58.925781 C 73.25 59.019531 73.226562 59.148438 73.128906 59.210938 C 64.023438 65.175781 60.867188 74.046875 60.835938 74.136719 C 60.808594 74.222656 60.726562 74.273438 60.640625 74.273438 " fill-opacity="1" fill-rule="nonzero"/></svg>