<svg xmlns="http://www.w3.org/2000/svg" xmlns:xlink="http://www.w3.org/1999/xlink" width="300" zoomAndPan="magnify" viewBox="0 0 224.87999 225" height="300" preserveAspectRatio="xMidYMid meet" version="1.0"><path fill="#14697d" d="M 82.199219 86.273438 C 93.5625 74.792969 90.308594 67.597656 98.082031 62.285156 C 110.046875 54.109375 132.378906 61.144531 145.554688 72.390625 C 161.6875 86.167969 170.015625 111.320312 160.53125 134.078125 C 150.429688 158.3125 123.859375 170.894531 100.144531 167.101562 C 78.972656 163.71875 58.15625 146.96875 56.070312 126.882812 C 55.847656 124.703125 54.847656 112.933594 61.847656 102.785156 C 67.632812 94.398438 73.1875 95.371094 82.199219 86.273438 " fill-opacity="1" fill-rule="nonzero"/><path fill="#ffbf23" d="M 69.183594 156.738281 C 65.9375 157.625 62.582031 155.714844 61.691406 152.460938 C 60.804688 149.210938 62.714844 145.855469 65.964844 144.964844 C 69.210938 144.074219 72.566406 145.988281 73.457031 149.238281 C 74.34375 152.488281 72.433594 155.847656 69.183594 156.738281 Z M 79.707031 148.753906 L 79.082031 146.46875 L 76.496094 146.585938 C 76.257812 146.082031 75.980469 145.605469 75.664062 145.160156 L 77.035156 142.964844 L 75.351562 141.296875 L 73.167969 142.691406 C 72.714844 142.382812 72.238281 142.109375 71.738281 141.875 L 71.828125 139.289062 L 69.535156 138.6875 L 68.347656 140.984375 C 67.800781 140.941406 67.25 140.945312 66.695312 140.996094 L 65.480469 138.710938 L 63.195312 139.335938 L 63.3125 141.921875 C 62.808594 142.160156 62.332031 142.4375 61.886719 142.753906 L 59.695312 141.382812 L 58.027344 143.070312 L 59.421875 145.25 C 59.113281 145.707031 58.839844 146.183594 58.605469 146.683594 L 56.019531 146.59375 L 55.417969 148.886719 L 57.714844 150.078125 C 57.671875 150.621094 57.675781 151.175781 57.726562 151.730469 L 55.441406 152.945312 L 56.066406 155.234375 L 58.652344 155.113281 C 58.890625 155.617188 59.167969 156.097656 59.484375 156.542969 L 58.113281 158.734375 L 59.796875 160.402344 L 61.980469 159.007812 C 62.433594 159.320312 62.910156 159.59375 63.410156 159.824219 L 63.320312 162.414062 L 65.613281 163.015625 L 66.800781 160.71875 C 67.347656 160.761719 67.898438 160.757812 68.453125 160.707031 L 69.667969 162.992188 L 71.953125 162.367188 L 71.835938 159.777344 C 72.339844 159.539062 72.816406 159.261719 73.261719 158.949219 L 75.453125 160.316406 L 77.121094 158.632812 L 75.726562 156.449219 C 76.035156 155.996094 76.308594 155.515625 76.542969 155.015625 L 79.128906 155.105469 L 79.730469 152.8125 L 77.433594 151.625 C 77.476562 151.078125 77.472656 150.527344 77.421875 149.972656 L 79.707031 148.753906 " fill-opacity="1" fill-rule="nonzero"/><path fill="#ffbf23" d="M 126.664062 87.621094 C 122.425781 88.785156 118.042969 86.285156 116.882812 82.039062 C 115.722656 77.796875 118.21875 73.414062 122.460938 72.25 C 126.703125 71.089844 131.082031 73.585938 132.242188 77.832031 C 133.40625 82.078125 130.90625 86.460938 126.664062 87.621094 Z M 140.40625 77.199219 L 139.589844 74.214844 L 136.214844 74.367188 C 135.898438 73.710938 135.539062 73.085938 135.128906 72.503906 L 136.917969 69.640625 L 134.714844 67.464844 L 131.871094 69.285156 C 131.277344 68.878906 130.652344 68.523438 130 68.21875 L 130.117188 64.839844 L 127.125 64.054688 L 125.570312 67.050781 C 124.863281 66.996094 124.140625 67 123.414062 67.066406 L 121.828125 64.082031 L 118.84375 64.902344 L 119 68.277344 C 118.339844 68.589844 117.71875 68.953125 117.136719 69.363281 L 114.273438 67.574219 L 112.097656 69.777344 L 113.917969 72.625 C 113.511719 73.21875 113.15625 73.84375 112.851562 74.496094 L 109.476562 74.378906 L 108.691406 77.375 L 111.6875 78.929688 C 111.632812 79.636719 111.636719 80.359375 111.703125 81.085938 L 108.71875 82.671875 L 109.539062 85.660156 L 112.914062 85.503906 C 113.226562 86.164062 113.589844 86.785156 113.996094 87.367188 L 112.210938 90.234375 L 114.410156 92.410156 L 117.257812 90.585938 C 117.847656 90.996094 118.472656 91.351562 119.125 91.65625 L 119.011719 95.035156 L 122.003906 95.820312 L 123.554688 92.820312 C 124.265625 92.878906 124.984375 92.871094 125.710938 92.804688 L 127.296875 95.789062 L 130.28125 94.972656 L 130.128906 91.59375 C 130.785156 91.28125 131.40625 90.921875 131.992188 90.511719 L 134.851562 92.296875 L 137.027344 90.097656 L 135.207031 87.25 C 135.613281 86.65625 135.96875 86.03125 136.273438 85.378906 L 139.648438 85.492188 L 140.433594 82.5 L 137.4375 80.945312 C 137.492188 80.234375 137.488281 79.515625 137.421875 78.789062 L 140.40625 77.199219 " fill-opacity="1" fill-rule="nonzero"/><path fill="#a6201e" d="M 73.238281 158.277344 L 120.195312 158.277344 C 122.21875 158.277344 123.652344 156.640625 123.394531 154.625 L 111.835938 63.285156 C 111.578125 61.269531 109.730469 59.632812 107.707031 59.632812 L 63.109375 59.113281 C 57.988281 59.113281 57.296875 61.269531 57.550781 63.285156 L 69.113281 154.625 C 69.367188 156.640625 71.214844 158.277344 73.238281 158.277344 " fill-opacity="1" fill-rule="nonzero"/><path fill="#ffffff" d="M 76.066406 158.277344 L 123.019531 158.277344 C 125.042969 158.277344 126.476562 156.636719 126.222656 154.613281 L 114.660156 62.984375 C 114.40625 60.960938 112.558594 59.320312 110.535156 59.320312 L 63.578125 59.320312 C 61.554688 59.320312 60.121094 60.960938 60.375 62.984375 L 71.9375 154.613281 C 72.195312 156.636719 74.042969 158.277344 76.066406 158.277344 " fill-opacity="1" fill-rule="nonzero"/><path fill="#000000" d="M 65.203125 103.195312 C 65.105469 103.195312 65.019531 103.125 65.007812 103.023438 L 60.179688 63.007812 C 60.050781 61.964844 60.335938 60.988281 60.984375 60.25 C 61.625 59.523438 62.546875 59.121094 63.578125 59.121094 L 69.027344 59.121094 C 69.136719 59.121094 69.222656 59.210938 69.222656 59.320312 C 69.222656 59.425781 69.136719 59.515625 69.027344 59.515625 L 63.578125 59.515625 C 62.660156 59.515625 61.847656 59.871094 61.28125 60.511719 C 60.707031 61.160156 60.453125 62.03125 60.570312 62.957031 L 65.398438 102.976562 C 65.414062 103.085938 65.335938 103.183594 65.226562 103.195312 C 65.21875 103.195312 65.210938 103.195312 65.203125 103.195312 " fill-opacity="1" fill-rule="nonzero"/><path fill="#000000" d="M 103.300781 59.582031 L 72.367188 59.515625 C 72.261719 59.515625 72.171875 59.425781 72.171875 59.320312 C 72.171875 59.210938 72.261719 59.121094 72.367188 59.121094 C 72.371094 59.121094 72.371094 59.121094 72.371094 59.121094 L 103.300781 59.191406 C 103.410156 59.191406 103.496094 59.277344 103.496094 59.386719 C 103.496094 59.496094 103.410156 59.582031 103.300781 59.582031 " fill-opacity="1" fill-rule="nonzero"/><path fill="#000000" d="M 123.019531 158.472656 L 108.1875 158.472656 C 108.078125 158.472656 107.992188 158.386719 107.992188 158.277344 C 107.992188 158.167969 108.078125 158.078125 108.1875 158.078125 L 123.019531 158.078125 C 123.9375 158.078125 124.753906 157.726562 125.320312 157.082031 C 125.890625 156.433594 126.144531 155.5625 126.027344 154.636719 L 125.054688 146.941406 C 125.042969 146.835938 125.117188 146.734375 125.226562 146.722656 C 125.335938 146.707031 125.433594 146.785156 125.445312 146.894531 L 126.417969 154.589844 C 126.546875 155.628906 126.265625 156.609375 125.613281 157.34375 C 124.972656 158.074219 124.050781 158.472656 123.019531 158.472656 " fill-opacity="1" fill-rule="nonzero"/><path fill="#000000" d="M 105 158.472656 L 88.855469 158.472656 C 88.746094 158.472656 88.65625 158.386719 88.65625 158.277344 C 88.65625 158.167969 88.746094 158.078125 88.855469 158.078125 L 105 158.078125 C 105.109375 158.078125 105.199219 158.167969 105.199219 158.277344 C 105.199219 158.386719 105.109375 158.472656 105 158.472656 " fill-opacity="1" fill-rule="nonzero"/><path fill="#000000" d="M 80.824219 158.472656 L 76.066406 158.472656 C 73.949219 158.472656 72.011719 156.753906 71.742188 154.636719 L 69.972656 140.617188 C 69.960938 140.507812 70.035156 140.410156 70.144531 140.394531 C 70.253906 140.382812 70.351562 140.457031 70.363281 140.566406 L 72.132812 154.589844 C 72.375 156.511719 74.140625 158.078125 76.066406 158.078125 L 80.824219 158.078125 C 80.933594 158.078125 81.019531 158.167969 81.019531 158.277344 C 81.019531 158.386719 80.933594 158.472656 80.824219 158.472656 " fill-opacity="1" fill-rule="nonzero"/><path fill="#ffbf23" d="M 123.546875 154.738281 L 112.507812 67.246094 C 112.445312 66.78125 112.019531 66.402344 111.554688 66.402344 L 64.347656 66.402344 C 63.878906 66.402344 63.546875 66.78125 63.605469 67.246094 L 74.644531 154.738281 C 74.707031 155.207031 75.132812 155.585938 75.597656 155.585938 L 122.808594 155.585938 C 123.273438 155.585938 123.605469 155.207031 123.546875 154.738281 " fill-opacity="1" fill-rule="nonzero"/><path fill="#14697d" d="M 87.644531 63.980469 C 88.402344 63.980469 88.9375 63.363281 88.84375 62.605469 C 88.746094 61.847656 88.054688 61.234375 87.296875 61.234375 C 86.539062 61.234375 86.003906 61.847656 86.097656 62.605469 C 86.195312 63.363281 86.886719 63.980469 87.644531 63.980469 " fill-opacity="1" fill-rule="nonzero"/><path fill="#000000" d="M 119.425781 123.386719 C 119.417969 123.386719 119.410156 123.386719 119.402344 123.386719 C 116.65625 123.378906 113.835938 121.726562 111.011719 118.476562 C 109.03125 116.199219 107.773438 113.949219 107.71875 113.855469 C 107.300781 113.097656 107.574219 112.144531 108.328125 111.726562 C 109.082031 111.304688 110.035156 111.578125 110.457031 112.332031 C 111.683594 114.535156 115.683594 120.246094 119.410156 120.257812 C 119.414062 120.257812 119.421875 120.257812 119.425781 120.257812 C 120.609375 120.257812 121.523438 119.890625 122.21875 119.140625 C 123.890625 117.347656 124.011719 113.757812 123.917969 112.527344 C 123.851562 111.664062 124.496094 110.910156 125.359375 110.847656 C 126.21875 110.78125 126.972656 111.425781 127.039062 112.289062 C 127.054688 112.523438 127.445312 118.117188 124.511719 121.273438 C 123.207031 122.675781 121.496094 123.386719 119.425781 123.386719 " fill-opacity="1" fill-rule="nonzero"/><path fill="#000000" d="M 130.417969 112.109375 L 121.148438 112.109375 C 120.285156 112.109375 119.582031 111.410156 119.582031 110.546875 C 119.582031 109.683594 120.285156 108.980469 121.148438 108.980469 L 130.417969 108.980469 C 131.28125 108.980469 131.980469 109.683594 131.980469 110.546875 C 131.980469 111.410156 131.28125 112.109375 130.417969 112.109375 " fill-opacity="1" fill-rule="nonzero"/><path fill="#ffffff" d="M 120.984375 90.578125 L 117.679688 90.578125 L 117.679688 81.324219 L 120.984375 81.324219 C 121.78125 81.324219 122.425781 81.96875 122.425781 82.761719 L 122.425781 89.136719 C 122.425781 89.933594 121.78125 90.578125 120.984375 90.578125 " fill-opacity="1" fill-rule="nonzero"/><path fill="#000000" d="M 117.875 90.382812 L 118.585938 90.382812 C 120.59375 90.382812 122.230469 88.746094 122.230469 86.738281 L 122.230469 85.164062 C 122.230469 83.15625 120.59375 81.523438 118.585938 81.523438 L 117.875 81.523438 Z M 118.585938 90.777344 L 117.679688 90.777344 C 117.570312 90.777344 117.480469 90.6875 117.480469 90.578125 L 117.480469 81.324219 C 117.480469 81.214844 117.570312 81.128906 117.679688 81.128906 L 118.585938 81.128906 C 120.8125 81.128906 122.625 82.9375 122.625 85.164062 L 122.625 86.738281 C 122.625 88.964844 120.8125 90.777344 118.585938 90.777344 " fill-opacity="1" fill-rule="nonzero"/><path fill="#ffffff" d="M 72.585938 90.578125 L 75.890625 90.578125 L 75.890625 81.324219 L 72.585938 81.324219 C 71.789062 81.324219 71.144531 81.96875 71.144531 82.761719 L 71.144531 89.136719 C 71.144531 89.933594 71.789062 90.578125 72.585938 90.578125 " fill-opacity="1" fill-rule="nonzero"/><path fill="#000000" d="M 74.984375 81.523438 C 72.976562 81.523438 71.339844 83.15625 71.339844 85.164062 L 71.339844 86.738281 C 71.339844 88.746094 72.976562 90.382812 74.984375 90.382812 L 75.695312 90.382812 L 75.695312 81.523438 Z M 75.890625 90.777344 L 74.984375 90.777344 C 72.757812 90.777344 70.945312 88.964844 70.945312 86.738281 L 70.945312 85.164062 C 70.945312 82.9375 72.757812 81.128906 74.984375 81.128906 L 75.890625 81.128906 C 76 81.128906 76.089844 81.214844 76.089844 81.324219 L 76.089844 90.578125 C 76.089844 90.6875 76 90.777344 75.890625 90.777344 " fill-opacity="1" fill-rule="nonzero"/><path fill="#ffffff" d="M 74.398438 85.570312 C 74.398438 75.625 84.421875 65.339844 96.785156 65.339844 C 109.148438 65.339844 119.175781 75.625 119.175781 85.570312 C 119.175781 95.515625 109.148438 101.351562 96.785156 101.351562 C 84.421875 101.351562 74.398438 95.515625 74.398438 85.570312 " fill-opacity="1" fill-rule="nonzero"/><path fill="#000000" d="M 96.785156 65.535156 C 84.085938 65.535156 74.59375 76.113281 74.59375 85.570312 C 74.59375 90.242188 76.832031 94.203125 81.0625 97.023438 C 85.054688 99.6875 90.636719 101.152344 96.785156 101.152344 C 102.933594 101.152344 108.515625 99.6875 112.507812 97.023438 C 116.738281 94.203125 118.976562 90.242188 118.976562 85.570312 C 118.976562 76.113281 109.488281 65.535156 96.785156 65.535156 Z M 96.785156 101.546875 C 90.5625 101.546875 84.898438 100.058594 80.84375 97.351562 C 76.496094 94.453125 74.199219 90.378906 74.199219 85.570312 C 74.199219 80.640625 76.613281 75.542969 80.820312 71.582031 C 85.230469 67.429688 90.898438 65.140625 96.785156 65.140625 C 102.671875 65.140625 108.339844 67.429688 112.75 71.582031 C 116.957031 75.542969 119.371094 80.640625 119.371094 85.570312 C 119.371094 90.378906 117.074219 94.453125 112.726562 97.351562 C 108.671875 100.058594 103.007812 101.546875 96.785156 101.546875 " fill-opacity="1" fill-rule="nonzero"/><path fill="#ffffff" d="M 102.394531 104.335938 L 91.175781 104.335938 C 86.261719 104.335938 82.277344 108.324219 82.277344 113.238281 C 82.277344 116.488281 82.59375 119.726562 83.222656 122.914062 L 84.835938 131.078125 C 85.960938 136.789062 90.96875 140.902344 96.785156 140.902344 C 102.601562 140.902344 107.609375 136.789062 108.734375 131.078125 L 110.347656 122.914062 C 110.976562 119.726562 111.292969 116.488281 111.292969 113.238281 C 111.292969 108.324219 107.308594 104.335938 102.394531 104.335938 " fill-opacity="1" fill-rule="nonzero"/><path fill="#000000" d="M 91.175781 104.535156 C 86.378906 104.535156 82.472656 108.4375 82.472656 113.238281 C 82.472656 116.464844 82.789062 119.707031 83.414062 122.875 L 85.027344 131.042969 C 86.132812 136.640625 91.078125 140.703125 96.785156 140.703125 C 102.492188 140.703125 107.4375 136.640625 108.542969 131.042969 L 110.15625 122.875 C 110.78125 119.707031 111.097656 116.464844 111.097656 113.238281 C 111.097656 108.4375 107.191406 104.535156 102.394531 104.535156 Z M 96.785156 141.097656 C 90.890625 141.097656 85.785156 136.902344 84.640625 131.117188 L 83.027344 122.949219 C 82.398438 119.757812 82.078125 116.492188 82.078125 113.238281 C 82.078125 108.222656 86.160156 104.140625 91.175781 104.140625 L 102.394531 104.140625 C 107.410156 104.140625 111.492188 108.222656 111.492188 113.238281 C 111.492188 116.492188 111.171875 119.757812 110.542969 122.949219 L 108.929688 131.117188 C 107.789062 136.902344 102.679688 141.097656 96.785156 141.097656 " fill-opacity="1" fill-rule="nonzero"/><path fill="#a6201e" d="M 97.824219 124.058594 L 95.746094 124.058594 C 92.949219 124.058594 90.679688 121.789062 90.679688 118.992188 L 90.679688 104.335938 L 102.890625 104.335938 L 102.890625 118.992188 C 102.890625 121.789062 100.621094 124.058594 97.824219 124.058594 " fill-opacity="1" fill-rule="nonzero"/><path fill="#000000" d="M 102.890625 104.535156 L 90.679688 104.535156 C 90.570312 104.535156 90.484375 104.445312 90.484375 104.335938 C 90.484375 104.230469 90.570312 104.140625 90.679688 104.140625 L 102.890625 104.140625 C 103 104.140625 103.085938 104.230469 103.085938 104.335938 C 103.085938 104.445312 103 104.535156 102.890625 104.535156 " fill-opacity="1" fill-rule="nonzero"/><path fill="#000000" d="M 111.835938 82.585938 L 90.277344 82.585938 C 88.039062 82.585938 86.222656 84.539062 86.222656 86.953125 L 86.222656 89.804688 C 86.222656 91.644531 87.203125 93.597656 88.898438 93.914062 C 94.875 95.039062 107.242188 95.039062 113.214844 93.914062 C 114.910156 93.597656 115.894531 91.644531 115.894531 89.804688 L 115.894531 86.953125 C 115.894531 84.539062 114.078125 82.585938 111.835938 82.585938 " fill-opacity="1" fill-rule="nonzero"/><path fill="#a6201e" d="M 95.992188 88.320312 C 95.992188 89.128906 95.382812 89.785156 94.632812 89.785156 C 93.882812 89.785156 93.273438 89.128906 93.273438 88.320312 C 93.273438 87.515625 93.882812 86.859375 94.632812 86.859375 C 95.382812 86.859375 95.992188 87.515625 95.992188 88.320312 " fill-opacity="1" fill-rule="nonzero"/><path fill="#a6201e" d="M 110.445312 88.320312 C 110.445312 89.128906 109.839844 89.785156 109.089844 89.785156 C 108.335938 89.785156 107.730469 89.128906 107.730469 88.320312 C 107.730469 87.515625 108.335938 86.859375 109.089844 86.859375 C 109.839844 86.859375 110.445312 87.515625 110.445312 88.320312 " fill-opacity="1" fill-rule="nonzero"/><path fill="#000000" d="M 82.464844 130.5 C 79.398438 130.5 75.25 130.066406 72.589844 128.027344 C 71.058594 126.851562 70.164062 125.300781 69.929688 123.414062 C 68.882812 114.953125 79.09375 110.109375 79.527344 109.90625 C 80.3125 109.542969 81.242188 109.886719 81.605469 110.667969 C 81.972656 111.453125 81.632812 112.382812 80.847656 112.746094 C 80.761719 112.785156 72.269531 116.835938 73.035156 123.03125 C 73.164062 124.066406 73.640625 124.886719 74.496094 125.542969 C 77.417969 127.785156 83.792969 127.46875 86.003906 127.15625 C 86.859375 127.039062 87.652344 127.632812 87.773438 128.492188 C 87.890625 129.347656 87.296875 130.136719 86.441406 130.257812 C 86.28125 130.28125 84.648438 130.5 82.464844 130.5 " fill-opacity="1" fill-rule="nonzero"/><path fill="#000000" d="M 93.273438 132.164062 L 90.265625 132.164062 C 88.625 132.164062 87.261719 130.933594 87.097656 129.300781 L 86.996094 128.253906 C 86.90625 127.359375 87.199219 126.464844 87.800781 125.800781 C 88.402344 125.136719 89.265625 124.753906 90.160156 124.753906 L 94.957031 124.753906 C 95.820312 124.753906 96.519531 125.453125 96.519531 126.320312 C 96.519531 127.183594 95.820312 127.882812 94.957031 127.882812 L 90.160156 127.882812 C 90.152344 127.882812 90.136719 127.882812 90.121094 127.902344 C 90.105469 127.917969 90.109375 127.933594 90.109375 127.941406 L 90.214844 128.988281 C 90.214844 129.015625 90.238281 129.035156 90.265625 129.035156 L 93.273438 129.035156 C 94.136719 129.035156 94.835938 129.738281 94.835938 130.601562 C 94.835938 131.464844 94.136719 132.164062 93.273438 132.164062 " fill-opacity="1" fill-rule="nonzero"/><path fill="#a6201e" d="M 143.179688 126.125 L 143.179688 131.265625 C 143.179688 136.292969 139.210938 140.367188 134.316406 140.367188 C 129.421875 140.367188 125.453125 144.4375 125.453125 149.464844 C 125.453125 149.914062 125.816406 150.277344 126.265625 150.277344 L 149.726562 150.277344 C 157.066406 150.277344 163.015625 144.167969 163.015625 136.632812 L 163.015625 125.667969 C 163.015625 122.671875 160.648438 120.242188 157.730469 120.242188 L 148.910156 120.242188 C 145.746094 120.242188 143.179688 122.878906 143.179688 126.125 " fill-opacity="1" fill-rule="nonzero"/><path fill="#a6201e" d="M 145.886719 165.769531 L 143.761719 165.769531 L 143.761719 141.015625 L 145.886719 141.015625 L 145.886719 165.769531 " fill-opacity="1" fill-rule="nonzero"/><path fill="#a6201e" d="M 134.859375 166.574219 L 144.269531 165.75 L 145.132812 165.75 L 154.738281 166.574219 L 154.738281 167.230469 L 134.859375 167.230469 L 134.859375 166.574219 " fill-opacity="1" fill-rule="nonzero"/><path fill="#ffffff" d="M 138.414062 162.253906 C 138.199219 162.035156 136.9375 158.113281 136.9375 158.113281 L 134.445312 159.890625 L 137.175781 163.558594 L 138.414062 162.253906 " fill-opacity="1" fill-rule="nonzero"/><path fill="#000000" d="M 134.722656 159.933594 L 137.195312 163.253906 L 138.175781 162.222656 C 137.871094 161.601562 137.199219 159.566406 136.832031 158.429688 Z M 137.175781 163.757812 C 137.171875 163.757812 137.167969 163.757812 137.164062 163.757812 C 137.105469 163.753906 137.054688 163.726562 137.019531 163.679688 L 134.289062 160.007812 C 134.253906 159.964844 134.242188 159.910156 134.25 159.859375 C 134.257812 159.804688 134.289062 159.757812 134.332031 159.730469 L 136.820312 157.953125 C 136.875 157.914062 136.9375 157.90625 137 157.925781 C 137.058594 157.945312 137.105469 157.992188 137.125 158.050781 C 137.710938 159.878906 138.414062 161.925781 138.5625 162.125 C 138.636719 162.199219 138.632812 162.3125 138.558594 162.390625 L 137.320312 163.695312 C 137.28125 163.734375 137.230469 163.757812 137.175781 163.757812 " fill-opacity="1" fill-rule="nonzero"/><path fill="#000000" d="M 133.925781 167.214844 L 135.582031 167.203125 C 136.679688 167.199219 137.699219 166.640625 138.296875 165.722656 L 139.933594 163.128906 C 140.386719 162.410156 140.132812 161.460938 139.386719 161.0625 C 138.703125 160.699219 137.984375 160.347656 137.816406 160.363281 C 137.476562 160.394531 137.339844 162.007812 137.339844 162.007812 L 135.863281 162.0625 C 135.863281 162.0625 135.132812 165.097656 134.492188 165.441406 C 134.023438 165.691406 133.699219 166.058594 133.480469 166.398438 C 133.25 166.75 133.503906 167.214844 133.925781 167.214844 " fill-opacity="1" fill-rule="nonzero"/><path fill="#ffffff" d="M 134.09375 166.765625 C 133.996094 166.765625 133.914062 166.695312 133.898438 166.597656 C 133.882812 166.488281 133.957031 166.386719 134.0625 166.371094 L 136.332031 166.03125 C 136.78125 165.960938 137.175781 165.699219 137.410156 165.308594 L 139.410156 161.960938 C 139.46875 161.867188 139.589844 161.835938 139.683594 161.894531 C 139.777344 161.949219 139.804688 162.070312 139.75 162.164062 L 137.746094 165.507812 C 137.453125 166.003906 136.957031 166.335938 136.386719 166.421875 L 134.121094 166.761719 C 134.113281 166.761719 134.101562 166.765625 134.09375 166.765625 " fill-opacity="1" fill-rule="nonzero"/><path fill="#ffffff" d="M 136.890625 164.246094 C 136.875 164.246094 136.855469 164.246094 136.839844 164.242188 L 135.578125 163.898438 C 135.472656 163.867188 135.410156 163.761719 135.4375 163.65625 C 135.464844 163.550781 135.574219 163.488281 135.679688 163.515625 L 136.941406 163.859375 C 137.046875 163.890625 137.109375 163.996094 137.082031 164.101562 C 137.058594 164.191406 136.976562 164.246094 136.890625 164.246094 " fill-opacity="1" fill-rule="nonzero"/><path fill="#ffffff" d="M 136.234375 164.898438 C 136.21875 164.898438 136.203125 164.894531 136.183594 164.890625 L 135.339844 164.683594 C 135.234375 164.65625 135.167969 164.550781 135.195312 164.445312 C 135.222656 164.339844 135.328125 164.273438 135.433594 164.300781 L 136.28125 164.507812 C 136.386719 164.535156 136.449219 164.640625 136.425781 164.746094 C 136.402344 164.835938 136.320312 164.898438 136.234375 164.898438 " fill-opacity="1" fill-rule="nonzero"/><path fill="#ffffff" d="M 129.914062 161.507812 L 127.023438 164.414062 L 125.488281 163.847656 L 128.15625 160.132812 L 129.914062 161.507812 " fill-opacity="1" fill-rule="nonzero"/><path fill="#000000" d="M 125.800781 163.753906 L 126.972656 164.183594 L 129.617188 161.523438 L 128.195312 160.414062 Z M 127.023438 164.609375 C 127 164.609375 126.976562 164.605469 126.953125 164.597656 L 125.421875 164.035156 C 125.363281 164.011719 125.320312 163.964844 125.300781 163.90625 C 125.28125 163.847656 125.292969 163.785156 125.328125 163.734375 L 127.996094 160.015625 C 128.027344 159.972656 128.074219 159.945312 128.128906 159.9375 C 128.179688 159.929688 128.234375 159.941406 128.277344 159.976562 L 130.035156 161.351562 C 130.082031 161.386719 130.109375 161.4375 130.113281 161.492188 C 130.117188 161.550781 130.09375 161.605469 130.054688 161.644531 L 127.164062 164.550781 C 127.125 164.589844 127.074219 164.609375 127.023438 164.609375 " fill-opacity="1" fill-rule="nonzero"/><path fill="#000000" d="M 127.9375 163.957031 C 127.9375 163.957031 128.078125 165.195312 127.839844 166.285156 C 127.710938 166.871094 127.1875 167.277344 126.59375 167.277344 L 119.492188 167.277344 C 118.988281 167.277344 118.757812 166.644531 119.144531 166.320312 C 120.40625 165.261719 122.730469 163.648438 125.585938 163.171875 L 126.378906 164.289062 L 127.9375 163.957031 " fill-opacity="1" fill-rule="nonzero"/><path fill="#ffffff" d="M 127.1875 166.5 L 119.832031 166.5 C 119.722656 166.5 119.632812 166.410156 119.632812 166.300781 C 119.632812 166.195312 119.722656 166.105469 119.832031 166.105469 L 127.1875 166.105469 C 127.296875 166.105469 127.386719 166.195312 127.386719 166.300781 C 127.386719 166.410156 127.296875 166.5 127.1875 166.5 " fill-opacity="1" fill-rule="nonzero"/><path fill="#ffffff" d="M 123.9375 165.191406 C 123.859375 165.191406 123.785156 165.148438 123.753906 165.070312 L 123.363281 164.125 C 123.324219 164.027344 123.371094 163.910156 123.472656 163.867188 C 123.570312 163.828125 123.6875 163.875 123.730469 163.976562 L 124.117188 164.921875 C 124.160156 165.019531 124.113281 165.136719 124.011719 165.175781 C 123.988281 165.1875 123.960938 165.191406 123.9375 165.191406 " fill-opacity="1" fill-rule="nonzero"/><path fill="#ffffff" d="M 122.65625 165.441406 C 122.574219 165.441406 122.496094 165.386719 122.46875 165.304688 L 122.1875 164.453125 C 122.152344 164.351562 122.207031 164.238281 122.3125 164.203125 C 122.414062 164.171875 122.527344 164.226562 122.5625 164.328125 L 122.84375 165.183594 C 122.878906 165.285156 122.820312 165.398438 122.71875 165.429688 C 122.695312 165.4375 122.675781 165.441406 122.65625 165.441406 " fill-opacity="1" fill-rule="nonzero"/><path fill="#000000" d="M 145.226562 141.167969 C 145.226562 141.167969 132.007812 139.628906 128.074219 143.035156 C 124.144531 146.4375 134.28125 161.070312 134.28125 161.070312 L 137.484375 158.691406 L 134.445312 148.347656 L 146.664062 144.878906 L 145.226562 141.167969 " fill-opacity="1" fill-rule="nonzero"/><path fill="#000000" d="M 152.5 147.90625 C 150.582031 148.515625 147.144531 149.300781 142.34375 149.238281 C 140.976562 149.21875 139.71875 149.972656 139.097656 151.1875 C 137.675781 153.976562 134.597656 159 129.582031 162.253906 L 127.1875 160.964844 L 133.300781 147.203125 C 133.859375 145.949219 134.902344 144.972656 136.191406 144.496094 L 148.308594 140.054688 C 148.308594 140.054688 152.066406 139.003906 153.90625 142.359375 C 154.234375 142.957031 154.847656 141.886719 154.992188 142.371094 C 155.492188 144.027344 154.148438 147.382812 152.5 147.90625 " fill-opacity="1" fill-rule="nonzero"/><path fill="#ffffff" d="M 130.539062 153.617188 C 130.511719 153.617188 130.484375 153.613281 130.457031 153.601562 C 130.359375 153.558594 130.3125 153.441406 130.359375 153.34375 L 133.121094 147.125 C 133.695312 145.824219 134.792969 144.800781 136.125 144.3125 L 141.925781 142.183594 C 142.03125 142.148438 142.144531 142.199219 142.179688 142.300781 C 142.21875 142.40625 142.164062 142.515625 142.0625 142.554688 L 136.261719 144.683594 C 135.027344 145.136719 134.015625 146.082031 133.480469 147.285156 L 130.71875 153.5 C 130.6875 153.574219 130.613281 153.617188 130.539062 153.617188 " fill-opacity="1" fill-rule="nonzero"/><path fill="#ffffff" d="M 133.761719 158.964844 C 133.714844 158.964844 133.664062 158.945312 133.628906 158.910156 C 133.546875 158.835938 133.546875 158.710938 133.621094 158.632812 C 134.171875 158.058594 134.714844 157.445312 135.230469 156.804688 C 135.300781 156.71875 135.421875 156.707031 135.507812 156.777344 C 135.59375 156.84375 135.605469 156.96875 135.539062 157.054688 C 135.011719 157.703125 134.464844 158.324219 133.90625 158.902344 C 133.867188 158.945312 133.816406 158.964844 133.761719 158.964844 " fill-opacity="1" fill-rule="nonzero"/><path fill="#ffffff" d="M 135.382812 157.125 C 135.339844 157.125 135.296875 157.113281 135.261719 157.082031 C 135.175781 157.011719 135.164062 156.890625 135.230469 156.804688 C 135.484375 156.492188 135.738281 156.164062 135.984375 155.835938 C 136.050781 155.746094 136.171875 155.730469 136.261719 155.792969 C 136.347656 155.859375 136.367188 155.984375 136.300781 156.070312 C 136.050781 156.402344 135.792969 156.734375 135.535156 157.054688 C 135.5 157.101562 135.441406 157.125 135.382812 157.125 " fill-opacity="1" fill-rule="nonzero"/><path fill="#ffffff" d="M 142.222656 130.492188 C 142.222656 130.492188 141.058594 141.050781 133.253906 141.742188 L 142.222656 141.867188 C 142.222656 141.867188 145.542969 135.136719 145.679688 132.515625 C 145.8125 129.898438 142.222656 130.492188 142.222656 130.492188 " fill-opacity="1" fill-rule="nonzero"/><path fill="#000000" d="M 135.09375 141.570312 L 142.101562 141.667969 C 142.53125 140.78125 145.359375 134.875 145.480469 132.507812 C 145.511719 131.941406 145.351562 131.496094 145.007812 131.1875 C 144.261719 130.523438 142.851562 130.617188 142.398438 130.667969 C 142.3125 131.277344 141.933594 133.589844 140.84375 135.941406 C 139.484375 138.871094 137.515625 140.785156 135.09375 141.570312 Z M 142.222656 142.066406 C 142.222656 142.066406 142.222656 142.066406 142.21875 142.066406 L 133.25 141.9375 C 133.144531 141.9375 133.058594 141.851562 133.054688 141.746094 C 133.050781 141.644531 133.128906 141.554688 133.234375 141.542969 C 136.394531 141.265625 138.832031 139.328125 140.484375 135.785156 C 141.722656 133.117188 142.023438 130.496094 142.027344 130.46875 C 142.035156 130.382812 142.101562 130.3125 142.191406 130.296875 C 142.273438 130.285156 144.234375 129.972656 145.269531 130.894531 C 145.707031 131.285156 145.910156 131.835938 145.875 132.527344 C 145.738281 135.160156 142.535156 141.679688 142.398438 141.957031 C 142.367188 142.023438 142.296875 142.066406 142.222656 142.066406 " fill-opacity="1" fill-rule="nonzero"/><path fill="#ffffff" d="M 153.332031 123.785156 C 151.820312 123.425781 151.1875 123.421875 145.683594 123.621094 C 144.335938 123.671875 142.734375 125.359375 142.578125 126.695312 C 143.003906 127.980469 144.980469 134.3125 141.53125 139.257812 C 141.042969 139.960938 140.378906 140.730469 139.46875 141.46875 C 139.980469 141.882812 140.777344 142.425781 141.84375 142.742188 C 143.621094 143.269531 144.515625 142.699219 145.945312 142.742188 C 149.734375 142.855469 151.121094 147.070312 153.566406 146.542969 C 154.222656 146.398438 155.085938 145.890625 155.898438 144.183594 C 156.359375 142.765625 156.765625 141.101562 156.996094 139.222656 C 157.613281 134.125 156.601562 129.882812 155.699219 127.21875 C 155.429688 126.378906 155.117188 124.203125 153.332031 123.785156 " fill-opacity="1" fill-rule="nonzero"/><path fill="#000000" d="M 145.792969 142.542969 C 145.84375 142.542969 145.898438 142.542969 145.953125 142.542969 C 148.007812 142.605469 149.355469 143.8125 150.546875 144.875 C 151.574219 145.789062 152.457031 146.582031 153.527344 146.347656 C 154.355469 146.167969 155.089844 145.414062 155.714844 144.109375 C 156.234375 142.507812 156.597656 140.855469 156.800781 139.199219 C 157.28125 135.226562 156.847656 131.21875 155.511719 127.28125 C 155.472656 127.15625 155.433594 127.015625 155.390625 126.847656 C 155.136719 125.898438 154.710938 124.308594 153.289062 123.976562 C 151.816406 123.628906 151.25 123.617188 145.6875 123.816406 C 144.496094 123.863281 142.960938 125.375 142.777344 126.675781 C 143.542969 128.984375 144.921875 134.742188 141.695312 139.371094 C 141.160156 140.140625 140.515625 140.84375 139.78125 141.464844 C 140.441406 141.964844 141.15625 142.328125 141.902344 142.550781 C 142.996094 142.878906 143.734375 142.769531 144.515625 142.660156 C 144.914062 142.601562 145.328125 142.542969 145.792969 142.542969 Z M 153.148438 146.785156 C 152.09375 146.785156 151.210938 145.996094 150.285156 145.167969 C 149.144531 144.148438 147.851562 142.996094 145.941406 142.9375 C 145.441406 142.921875 145 142.988281 144.570312 143.050781 C 143.78125 143.164062 142.96875 143.28125 141.789062 142.929688 C 140.917969 142.671875 140.097656 142.230469 139.34375 141.621094 L 139.152344 141.46875 L 139.34375 141.316406 C 140.128906 140.679688 140.8125 139.949219 141.371094 139.148438 C 144.515625 134.632812 143.132812 128.980469 142.390625 126.757812 L 142.378906 126.71875 L 142.382812 126.671875 C 142.542969 125.300781 144.171875 123.480469 145.675781 123.425781 C 151.285156 123.222656 151.859375 123.234375 153.378906 123.589844 C 155.03125 123.980469 155.496094 125.710938 155.773438 126.746094 C 155.8125 126.90625 155.851562 127.046875 155.886719 127.15625 C 157.238281 131.148438 157.679688 135.214844 157.191406 139.246094 C 156.988281 140.933594 156.613281 142.613281 156.085938 144.242188 L 156.074219 144.265625 C 155.398438 145.695312 154.566406 146.527344 153.609375 146.734375 C 153.453125 146.769531 153.296875 146.785156 153.148438 146.785156 " fill-opacity="1" fill-rule="nonzero"/><path fill="#ffffff" d="M 141.195312 131.675781 C 141.195312 131.675781 142.085938 124.535156 144.652344 123.925781 C 143.75 126.703125 143.449219 129.71875 143.582031 132.914062 C 143.585938 133.046875 143.441406 133.132812 143.328125 133.058594 L 141.195312 131.675781 " fill-opacity="1" fill-rule="nonzero"/><path fill="#000000" d="M 141.410156 131.578125 L 143.382812 132.859375 C 143.253906 129.625 143.570312 126.804688 144.34375 124.253906 C 142.371094 125.289062 141.535156 130.695312 141.410156 131.578125 Z M 143.417969 133.28125 C 143.347656 133.28125 143.28125 133.261719 143.222656 133.226562 L 140.984375 131.773438 L 141 131.652344 C 141.039062 131.355469 141.9375 124.371094 144.605469 123.734375 L 144.949219 123.65625 L 144.839844 123.988281 C 143.984375 126.613281 143.640625 129.53125 143.777344 132.90625 C 143.78125 133.042969 143.714844 133.167969 143.59375 133.234375 C 143.539062 133.269531 143.476562 133.28125 143.417969 133.28125 " fill-opacity="1" fill-rule="nonzero"/><path fill="#14697d" d="M 123.785156 130.984375 L 133.101562 130.984375 C 133.496094 130.984375 133.859375 131.179688 134.070312 131.5 L 137.5625 141.789062 L 145.808594 141.789062 L 145.808594 141.941406 C 145.808594 142.429688 145.414062 142.824219 144.929688 142.824219 L 127.429688 142.824219 C 126.945312 142.824219 126.550781 142.429688 126.550781 141.941406 L 126.550781 141.808594 L 123.390625 132.1875 C 123.34375 132.042969 123.285156 131.898438 123.230469 131.753906 C 123.09375 131.394531 123.363281 130.984375 123.785156 130.984375 " fill-opacity="1" fill-rule="nonzero"/><path fill="#000000" d="M 126.734375 141.734375 C 126.742188 141.757812 126.75 141.78125 126.75 141.808594 L 126.75 141.941406 C 126.75 142.320312 127.054688 142.625 127.429688 142.625 L 144.929688 142.625 C 145.292969 142.625 145.589844 142.34375 145.613281 141.984375 L 137.5625 141.984375 C 137.480469 141.984375 137.40625 141.933594 137.378906 141.851562 L 133.890625 131.589844 C 133.714844 131.332031 133.421875 131.179688 133.101562 131.179688 L 123.785156 131.179688 C 123.652344 131.179688 123.53125 131.242188 123.457031 131.347656 C 123.386719 131.453125 123.371094 131.574219 123.414062 131.6875 L 123.460938 131.808594 C 123.503906 131.910156 123.542969 132.015625 123.578125 132.128906 Z M 144.929688 143.019531 L 127.429688 143.019531 C 126.835938 143.019531 126.355469 142.539062 126.355469 141.941406 L 126.355469 141.839844 L 123.207031 132.25 C 123.171875 132.152344 123.136719 132.054688 123.09375 131.949219 L 123.046875 131.824219 C 122.957031 131.59375 122.988281 131.332031 123.132812 131.125 C 123.28125 130.910156 123.519531 130.785156 123.785156 130.785156 L 133.101562 130.785156 C 133.5625 130.785156 133.988281 131.015625 134.234375 131.394531 C 134.242188 131.410156 134.25 131.421875 134.257812 131.4375 L 137.707031 141.59375 L 145.808594 141.59375 C 145.917969 141.59375 146.007812 141.679688 146.007812 141.789062 L 146.007812 141.941406 C 146.007812 142.539062 145.523438 143.019531 144.929688 143.019531 " fill-opacity="1" fill-rule="nonzero"/><path fill="#ffffff" d="M 130.640625 136.257812 C 130.773438 136.691406 130.570312 137.136719 130.191406 137.253906 C 129.8125 137.367188 129.398438 137.105469 129.269531 136.671875 C 129.136719 136.234375 129.339844 135.789062 129.714844 135.675781 C 130.097656 135.558594 130.507812 135.820312 130.640625 136.257812 " fill-opacity="1" fill-rule="nonzero"/><path fill="#ffffff" d="M 135.652344 142.003906 L 129.582031 142.003906 C 129.472656 142.003906 129.386719 141.917969 129.386719 141.808594 C 129.386719 141.699219 129.472656 141.609375 129.582031 141.609375 L 135.652344 141.609375 C 135.761719 141.609375 135.847656 141.699219 135.847656 141.808594 C 135.847656 141.917969 135.761719 142.003906 135.652344 142.003906 " fill-opacity="1" fill-rule="nonzero"/><path fill="#ffffff" d="M 127.566406 142.003906 L 126.492188 142.003906 C 126.382812 142.003906 126.292969 141.917969 126.292969 141.808594 C 126.292969 141.699219 126.382812 141.609375 126.492188 141.609375 L 127.566406 141.609375 C 127.675781 141.609375 127.765625 141.699219 127.765625 141.808594 C 127.765625 141.917969 127.675781 142.003906 127.566406 142.003906 " fill-opacity="1" fill-rule="nonzero"/><path fill="#ffffff" d="M 140.390625 140.886719 C 140.925781 140.050781 141.902344 139.628906 142.441406 139.660156 C 144.890625 139.796875 149.609375 137.320312 153.117188 136.125 C 153.726562 135.242188 153.285156 133.304688 153.5625 130.984375 L 158.039062 131.371094 C 158.484375 133.585938 158.316406 137.339844 157.929688 137.835938 C 157.671875 138.445312 156.277344 140.21875 153.449219 141.597656 C 149.03125 143.75 143.109375 142.34375 143.109375 142.34375 C 143.109375 142.34375 140.109375 143.929688 138.816406 142.203125 C 138.816406 142.203125 139.859375 141.71875 140.390625 140.886719 " fill-opacity="1" fill-rule="nonzero"/><path fill="#000000" d="M 140.390625 140.886719 L 140.394531 140.886719 Z M 139.125 142.265625 C 140.378906 143.535156 142.992188 142.183594 143.019531 142.167969 C 143.0625 142.144531 143.109375 142.140625 143.15625 142.152344 C 143.214844 142.164062 149.058594 143.519531 153.363281 141.417969 C 156.066406 140.101562 157.484375 138.386719 157.746094 137.761719 C 157.753906 137.746094 157.761719 137.730469 157.773438 137.71875 C 158.074219 137.328125 158.300781 133.859375 157.875 131.554688 L 153.734375 131.199219 C 153.644531 132.0625 153.652344 132.875 153.660156 133.59375 C 153.667969 134.75 153.675781 135.664062 153.28125 136.234375 C 153.257812 136.269531 153.222656 136.296875 153.183594 136.3125 C 152.074219 136.691406 150.8125 137.207031 149.59375 137.710938 C 146.914062 138.8125 144.144531 139.953125 142.429688 139.855469 C 141.964844 139.832031 141.058594 140.210938 140.558594 140.992188 C 140.148438 141.628906 139.476562 142.066406 139.125 142.265625 Z M 140.613281 143.210938 C 139.886719 143.210938 139.164062 142.996094 138.660156 142.324219 C 138.621094 142.277344 138.609375 142.214844 138.625 142.15625 C 138.640625 142.101562 138.679688 142.050781 138.734375 142.027344 C 138.742188 142.023438 139.730469 141.554688 140.226562 140.78125 C 140.773438 139.917969 141.808594 139.425781 142.453125 139.460938 C 144.078125 139.554688 146.808594 138.433594 149.445312 137.347656 C 150.644531 136.851562 151.886719 136.339844 152.992188 135.960938 C 153.28125 135.480469 153.273438 134.644531 153.265625 133.597656 C 153.257812 132.8125 153.25 131.925781 153.367188 130.960938 C 153.378906 130.855469 153.472656 130.777344 153.578125 130.789062 L 158.054688 131.175781 C 158.140625 131.183594 158.214844 131.246094 158.230469 131.332031 C 158.671875 133.507812 158.523438 137.292969 158.101562 137.933594 C 157.851562 138.492188 156.527344 140.316406 153.539062 141.773438 C 149.367188 143.804688 143.832031 142.699219 143.136719 142.550781 C 142.851562 142.691406 141.734375 143.210938 140.613281 143.210938 " fill-opacity="1" fill-rule="nonzero"/><path fill="#000000" d="M 139.34375 142.476562 C 139.3125 142.476562 139.296875 142.476562 139.292969 142.476562 C 139.183594 142.464844 139.105469 142.367188 139.117188 142.261719 C 139.125 142.152344 139.222656 142.074219 139.328125 142.082031 C 139.347656 142.085938 140.09375 142.121094 141.265625 141.054688 C 141.347656 140.980469 141.46875 140.988281 141.542969 141.070312 C 141.617188 141.148438 141.609375 141.273438 141.53125 141.347656 C 140.367188 142.402344 139.554688 142.476562 139.34375 142.476562 " fill-opacity="1" fill-rule="nonzero"/><path fill="#000000" d="M 140.121094 142.882812 C 140.066406 142.882812 140.03125 142.878906 140.023438 142.878906 C 139.917969 142.859375 139.84375 142.757812 139.859375 142.652344 C 139.878906 142.546875 139.976562 142.472656 140.082031 142.488281 C 140.101562 142.488281 140.75 142.554688 141.777344 141.660156 C 141.859375 141.589844 141.984375 141.597656 142.054688 141.679688 C 142.128906 141.761719 142.117188 141.886719 142.035156 141.957031 C 141.070312 142.796875 140.371094 142.882812 140.121094 142.882812 " fill-opacity="1" fill-rule="nonzero"/><path fill="#ffffff" d="M 158.597656 132.976562 C 158.628906 132.980469 158.652344 132.957031 158.652344 132.925781 C 158.621094 132.421875 158.378906 128.632812 158.039062 127.105469 C 157.265625 123.65625 152.511719 123.652344 152.511719 123.652344 C 153.386719 126.605469 153.667969 129.4375 153.390625 132.15625 C 153.375 132.324219 153.496094 132.472656 153.660156 132.488281 L 158.597656 132.976562 " fill-opacity="1" fill-rule="nonzero"/><path fill="#000000" d="M 152.777344 123.859375 C 153.589844 126.707031 153.859375 129.503906 153.589844 132.175781 C 153.585938 132.203125 153.59375 132.234375 153.613281 132.253906 C 153.628906 132.277344 153.652344 132.289062 153.683594 132.292969 L 158.445312 132.765625 C 158.386719 131.886719 158.15625 128.542969 157.847656 127.148438 C 157.222656 124.355469 153.769531 123.925781 152.777344 123.859375 Z M 158.617188 132.78125 Z M 158.605469 133.175781 C 158.597656 133.175781 158.585938 133.175781 158.578125 133.175781 L 153.640625 132.683594 C 153.511719 132.671875 153.390625 132.609375 153.308594 132.503906 C 153.222656 132.398438 153.183594 132.269531 153.195312 132.136719 C 153.472656 129.433594 153.179688 126.597656 152.324219 123.707031 L 152.246094 123.457031 L 152.511719 123.457031 C 152.5625 123.457031 157.433594 123.503906 158.230469 127.0625 C 158.578125 128.609375 158.820312 132.480469 158.847656 132.914062 C 158.851562 132.988281 158.824219 133.058594 158.773438 133.105469 C 158.726562 133.152344 158.667969 133.175781 158.605469 133.175781 " fill-opacity="1" fill-rule="nonzero"/><path fill="#ffffff" d="M 150.164062 122.820312 L 149.058594 119.222656 L 146.757812 120.445312 L 147.421875 122.714844 C 147.515625 123.046875 147.375 123.398438 147.078125 123.574219 L 146.8125 123.730469 C 146.675781 123.8125 146.714844 124.019531 146.871094 124.042969 L 148.085938 124.242188 C 149.25 124.429688 150.441406 124.230469 151.480469 123.675781 C 151.628906 123.59375 151.605469 123.375 151.441406 123.328125 C 150.941406 123.195312 150.210938 122.972656 150.164062 122.820312 " fill-opacity="1" fill-rule="nonzero"/><path fill="#000000" d="M 151.390625 123.519531 Z M 146.976562 123.863281 L 148.117188 124.046875 C 149.222656 124.226562 150.375 124.035156 151.363281 123.511719 C 150.066406 123.160156 150.011719 122.992188 149.976562 122.878906 L 148.941406 119.507812 L 146.992188 120.546875 L 147.613281 122.660156 C 147.730469 123.078125 147.550781 123.523438 147.179688 123.742188 Z M 148.9375 124.507812 C 148.640625 124.507812 148.347656 124.484375 148.054688 124.4375 L 146.839844 124.238281 C 146.6875 124.214844 146.566406 124.097656 146.539062 123.945312 C 146.511719 123.789062 146.578125 123.640625 146.710938 123.558594 L 146.980469 123.402344 C 147.199219 123.273438 147.300781 123.011719 147.234375 122.769531 L 146.570312 120.5 C 146.542969 120.414062 146.585938 120.316406 146.667969 120.273438 L 148.964844 119.050781 C 149.019531 119.023438 149.078125 119.019531 149.132812 119.042969 C 149.1875 119.0625 149.230469 119.109375 149.246094 119.164062 L 150.34375 122.734375 C 150.417969 122.792969 150.726562 122.933594 151.492188 123.140625 C 151.644531 123.179688 151.757812 123.308594 151.773438 123.464844 C 151.792969 123.621094 151.714844 123.773438 151.574219 123.847656 C 150.765625 124.28125 149.851562 124.507812 148.9375 124.507812 " fill-opacity="1" fill-rule="nonzero"/><path fill="#000000" d="M 143.867188 116.792969 C 144.460938 116.476562 143.980469 117.453125 145.929688 115.761719 C 146.703125 115.085938 146.726562 116.339844 146.929688 116.167969 C 147.675781 115.523438 147.882812 115.355469 148.351562 115.273438 C 148.660156 115.214844 149.5 115.492188 149.578125 115.910156 C 149.832031 117.269531 149.144531 117.195312 149.261719 118.433594 C 149.34375 119.300781 149.238281 119.625 148.984375 119.871094 C 148.734375 120.121094 148.324219 119.816406 148.027344 120.070312 C 147.644531 120.398438 148.078125 121.121094 147.792969 121.632812 C 147.613281 121.957031 147.027344 122.339844 145.796875 122.316406 C 145.59375 122.308594 145.425781 122.164062 145.394531 121.964844 C 145.355469 121.710938 145.304688 121.390625 145.28125 121.082031 C 145.179688 119.601562 145.5 119.105469 145.1875 118.855469 C 144.707031 118.46875 143.890625 119.195312 143.546875 118.855469 C 143.1875 118.5 143.058594 117.222656 143.867188 116.792969 " fill-opacity="1" fill-rule="nonzero"/><path fill="#ffffff" d="M 146.980469 117.988281 L 146.953125 118.394531 C 146.941406 118.582031 146.941406 118.773438 146.957031 118.964844 C 146.984375 119.324219 147.003906 119.9375 147.019531 120.285156 C 147.070312 121.394531 145.449219 120.894531 145.449219 120.894531 L 145.25 120.675781 L 145.066406 120.683594 C 145.03125 120.683594 144.996094 120.679688 144.960938 120.664062 C 144.882812 120.621094 144.847656 120.535156 144.859375 120.453125 C 144.933594 120.003906 145.066406 119.015625 144.929688 118.242188 C 144.929688 118.242188 145.800781 117.53125 146.980469 117.988281 " fill-opacity="1" fill-rule="nonzero"/><path fill="#000000" d="M 145.558594 120.722656 C 145.820312 120.792969 146.414062 120.898438 146.679688 120.6875 C 146.785156 120.605469 146.832031 120.476562 146.824219 120.292969 C 146.820312 120.199219 146.8125 120.082031 146.808594 119.957031 C 146.796875 119.636719 146.777344 119.238281 146.761719 118.980469 C 146.746094 118.78125 146.746094 118.578125 146.757812 118.382812 L 146.773438 118.125 C 145.984375 117.878906 145.363281 118.191406 145.140625 118.335938 C 145.25 119.09375 145.136719 120 145.054688 120.488281 L 145.242188 120.476562 C 145.300781 120.476562 145.359375 120.5 145.398438 120.542969 Z M 146.183594 121.207031 C 145.800781 121.207031 145.453125 121.105469 145.390625 121.085938 C 145.355469 121.074219 145.324219 121.054688 145.300781 121.027344 L 145.164062 120.875 L 145.074219 120.882812 C 145.003906 120.882812 144.933594 120.871094 144.871094 120.839844 C 144.71875 120.757812 144.636719 120.589844 144.664062 120.421875 C 144.730469 120.027344 144.871094 119.03125 144.734375 118.277344 C 144.722656 118.207031 144.746094 118.136719 144.804688 118.089844 C 144.84375 118.058594 145.78125 117.3125 147.050781 117.804688 C 147.132812 117.835938 147.183594 117.914062 147.175781 118 L 147.152344 118.40625 C 147.140625 118.585938 147.140625 118.769531 147.152344 118.953125 C 147.171875 119.214844 147.1875 119.617188 147.203125 119.941406 C 147.207031 120.066406 147.210938 120.179688 147.21875 120.273438 C 147.234375 120.671875 147.066406 120.886719 146.921875 121 C 146.71875 121.15625 146.445312 121.207031 146.183594 121.207031 " fill-opacity="1" fill-rule="nonzero"/><path fill="#ffffff" d="M 147.25 119.234375 C 147.25 119.234375 147.3125 118.261719 147.746094 118.382812 C 148.179688 118.503906 148.085938 119.574219 147.25 119.234375 " fill-opacity="1" fill-rule="nonzero"/><path fill="#000000" d="M 145.3125 119.269531 C 145.304688 119.28125 145.292969 119.34375 145.351562 119.492188 C 145.46875 119.792969 145.570312 119.847656 145.597656 119.859375 C 145.605469 119.859375 145.625 119.867188 145.664062 119.851562 C 145.6875 119.773438 145.671875 119.5 145.394531 119.226562 C 145.394531 119.230469 145.355469 119.226562 145.3125 119.269531 Z M 145.621094 120.253906 C 145.566406 120.253906 145.515625 120.246094 145.464844 120.226562 C 145.269531 120.160156 145.113281 119.964844 144.984375 119.636719 C 144.945312 119.535156 144.824219 119.226562 145.019531 119.007812 C 145.117188 118.902344 145.242188 118.839844 145.375 118.835938 C 145.488281 118.835938 145.59375 118.875 145.667969 118.945312 C 146.003906 119.269531 146.089844 119.636719 146.058594 119.871094 C 146.039062 120.015625 145.980469 120.125 145.882812 120.179688 C 145.796875 120.230469 145.707031 120.253906 145.621094 120.253906 " fill-opacity="1" fill-rule="nonzero"/><path fill="#000000" d="M 145.324219 119.234375 C 145.242188 119.234375 145.164062 119.179688 145.136719 119.097656 C 145.105469 118.992188 145.160156 118.882812 145.265625 118.847656 L 147.273438 118.214844 C 147.378906 118.179688 147.488281 118.238281 147.523438 118.34375 C 147.554688 118.445312 147.496094 118.558594 147.394531 118.589844 L 145.382812 119.226562 C 145.363281 119.230469 145.34375 119.234375 145.324219 119.234375 " fill-opacity="1" fill-rule="nonzero"/><path fill="#000000" d="M 144.832031 120.015625 Z M 144.832031 120.410156 C 144.796875 120.410156 144.691406 120.410156 144.527344 120.230469 C 144.449219 120.144531 144.207031 119.839844 144.242188 119.460938 C 144.253906 119.332031 144.3125 119.226562 144.414062 119.15625 C 144.621094 119.011719 144.929688 119.074219 144.988281 119.089844 C 145.09375 119.113281 145.160156 119.222656 145.132812 119.328125 C 145.105469 119.433594 145 119.496094 144.894531 119.472656 C 144.789062 119.445312 144.660156 119.453125 144.636719 119.480469 C 144.636719 119.480469 144.636719 119.488281 144.632812 119.496094 C 144.609375 119.734375 144.8125 119.972656 144.878906 120.023438 C 144.964844 120.042969 145.027344 120.121094 145.027344 120.214844 C 145.027344 120.324219 144.9375 120.410156 144.832031 120.410156 " fill-opacity="1" fill-rule="nonzero"/><path fill="#ffffff" d="M 144.511719 167.9375 L 149.691406 146.453125 L 154.867188 167.9375 L 156.105469 167.9375 L 150.417969 144.160156 L 148.960938 144.15625 L 143.273438 167.9375 L 144.511719 167.9375 " fill-opacity="1" fill-rule="nonzero"/><path fill="#000000" d="M 155.023438 167.738281 L 155.855469 167.738281 L 150.265625 144.355469 L 149.117188 144.355469 L 143.523438 167.738281 L 144.359375 167.738281 L 149.691406 145.613281 Z M 156.355469 168.132812 L 154.710938 168.132812 L 149.691406 147.296875 L 144.667969 168.132812 L 143.023438 168.132812 L 148.804688 143.960938 L 150.574219 143.964844 L 156.355469 168.132812 " fill-opacity="1" fill-rule="nonzero"/><path fill="#ffffff" d="M 115.109375 167.863281 L 120.285156 146.382812 L 125.464844 167.863281 L 126.703125 167.863281 L 121.015625 144.085938 L 119.558594 144.085938 L 113.871094 167.863281 L 115.109375 167.863281 " fill-opacity="1" fill-rule="nonzero"/><path fill="#000000" d="M 125.617188 167.664062 L 126.453125 167.664062 L 120.863281 144.28125 L 119.714844 144.28125 L 114.121094 167.664062 L 114.957031 167.664062 L 120.285156 145.539062 Z M 126.953125 168.058594 L 125.308594 168.058594 L 120.285156 147.222656 L 115.265625 168.058594 L 113.621094 168.058594 L 119.402344 143.886719 L 121.171875 143.890625 L 126.953125 168.058594 " fill-opacity="1" fill-rule="nonzero"/><path fill="#ffffff" d="M 155.25 144.570312 L 114.421875 144.570312 L 114.421875 142.628906 L 155.25 142.628906 L 155.25 144.570312 " fill-opacity="1" fill-rule="nonzero"/><path fill="#000000" d="M 114.617188 144.375 L 155.050781 144.375 L 155.050781 142.828125 L 114.617188 142.828125 Z M 155.445312 144.769531 L 114.222656 144.769531 L 114.222656 142.433594 L 155.445312 142.433594 L 155.445312 144.769531 " fill-opacity="1" fill-rule="nonzero"/><path fill="#a6201e" d="M 142.886719 144.3125 C 142.777344 144.3125 142.691406 144.226562 142.691406 144.117188 L 142.691406 143.035156 C 142.691406 142.925781 142.777344 142.835938 142.886719 142.835938 C 142.996094 142.835938 143.085938 142.925781 143.085938 143.035156 L 143.085938 144.117188 C 143.085938 144.226562 142.996094 144.3125 142.886719 144.3125 " fill-opacity="1" fill-rule="nonzero"/><path fill="#ffffff" d="M 163.574219 90.035156 C 164.425781 90.035156 165.023438 90.726562 164.90625 91.578125 L 163.46875 102.203125 C 163.351562 103.054688 162.566406 103.746094 161.714844 103.746094 L 123.539062 103.746094 C 122.6875 103.746094 122.089844 103.054688 122.207031 102.203125 L 123.644531 91.578125 C 123.761719 90.726562 124.546875 90.035156 125.398438 90.035156 L 163.574219 90.035156 " fill-opacity="1" fill-rule="nonzero"/><path fill="#000000" d="M 128.277344 103.941406 L 123.539062 103.941406 C 123.074219 103.941406 122.65625 103.761719 122.367188 103.429688 C 122.074219 103.09375 121.945312 102.648438 122.011719 102.175781 L 123.449219 91.554688 C 123.578125 90.609375 124.453125 89.839844 125.398438 89.839844 L 131.175781 89.839844 C 131.285156 89.839844 131.371094 89.925781 131.371094 90.035156 C 131.371094 90.144531 131.285156 90.234375 131.175781 90.234375 L 125.398438 90.234375 C 124.640625 90.234375 123.941406 90.847656 123.839844 91.605469 L 122.402344 102.230469 C 122.351562 102.585938 122.445312 102.921875 122.664062 103.167969 C 122.875 103.414062 123.1875 103.550781 123.539062 103.550781 L 128.277344 103.550781 C 128.386719 103.550781 128.476562 103.636719 128.476562 103.746094 C 128.476562 103.855469 128.386719 103.941406 128.277344 103.941406 " fill-opacity="1" fill-rule="nonzero"/><path fill="#000000" d="M 161.714844 103.941406 L 130.679688 103.941406 C 130.570312 103.941406 130.484375 103.855469 130.484375 103.746094 C 130.484375 103.636719 130.570312 103.546875 130.679688 103.546875 L 161.714844 103.546875 C 162.472656 103.546875 163.167969 102.933594 163.273438 102.175781 L 164.710938 91.554688 C 164.761719 91.195312 164.667969 90.859375 164.449219 90.613281 C 164.234375 90.367188 163.925781 90.234375 163.574219 90.234375 L 158.773438 90.234375 C 158.664062 90.234375 158.574219 90.144531 158.574219 90.035156 C 158.574219 89.925781 158.664062 89.839844 158.773438 89.839844 L 163.574219 89.839844 C 164.039062 89.839844 164.457031 90.023438 164.746094 90.355469 C 165.039062 90.6875 165.164062 91.132812 165.101562 91.605469 L 163.664062 102.230469 C 163.535156 103.175781 162.660156 103.941406 161.714844 103.941406 " fill-opacity="1" fill-rule="nonzero"/><path fill="#ffbf23" d="M 159.160156 94.640625 L 131.417969 94.640625 C 131.015625 94.640625 130.738281 94.316406 130.792969 93.917969 C 130.847656 93.515625 131.214844 93.195312 131.613281 93.195312 L 159.355469 93.195312 C 159.757812 93.195312 160.035156 93.515625 159.980469 93.917969 C 159.925781 94.316406 159.558594 94.640625 159.160156 94.640625 " fill-opacity="1" fill-rule="nonzero"/><path fill="#14697d" d="M 129.382812 93.917969 C 129.328125 94.316406 128.960938 94.640625 128.5625 94.640625 C 128.164062 94.640625 127.882812 94.316406 127.9375 93.917969 C 127.992188 93.515625 128.359375 93.195312 128.757812 93.195312 C 129.15625 93.195312 129.4375 93.515625 129.382812 93.917969 " fill-opacity="1" fill-rule="nonzero"/><path fill="#14697d" d="M 158.742188 97.75 L 130.996094 97.75 C 130.597656 97.75 130.316406 97.425781 130.371094 97.027344 C 130.425781 96.628906 130.792969 96.304688 131.191406 96.304688 L 158.9375 96.304688 C 159.335938 96.304688 159.613281 96.628906 159.558594 97.027344 C 159.507812 97.425781 159.140625 97.75 158.742188 97.75 " fill-opacity="1" fill-rule="nonzero"/><path fill="#14697d" d="M 128.960938 97.027344 C 128.90625 97.425781 128.539062 97.75 128.140625 97.75 C 127.742188 97.75 127.460938 97.425781 127.515625 97.027344 C 127.570312 96.628906 127.9375 96.304688 128.335938 96.304688 C 128.734375 96.304688 129.015625 96.628906 128.960938 97.027344 " fill-opacity="1" fill-rule="nonzero"/><path fill="#14697d" d="M 158.316406 100.863281 L 130.574219 100.863281 C 130.171875 100.863281 129.894531 100.539062 129.949219 100.140625 C 130.003906 99.742188 130.371094 99.417969 130.769531 99.417969 L 158.515625 99.417969 C 158.914062 99.417969 159.191406 99.742188 159.140625 100.140625 C 159.085938 100.539062 158.71875 100.863281 158.316406 100.863281 " fill-opacity="1" fill-rule="nonzero"/><path fill="#14697d" d="M 128.539062 100.140625 C 128.484375 100.539062 128.117188 100.863281 127.71875 100.863281 C 127.320312 100.863281 127.039062 100.539062 127.09375 100.140625 C 127.148438 99.742188 127.515625 99.417969 127.914062 99.417969 C 128.3125 99.417969 128.59375 99.742188 128.539062 100.140625 " fill-opacity="1" fill-rule="nonzero"/><path fill="#000000" d="M 158.226562 108.492188 C 158.121094 108.492188 158.03125 108.40625 158.03125 108.296875 L 158.03125 107.277344 C 158.03125 107.167969 158.121094 107.078125 158.226562 107.078125 C 158.335938 107.078125 158.425781 107.167969 158.425781 107.277344 L 158.425781 108.296875 C 158.425781 108.40625 158.335938 108.492188 158.226562 108.492188 " fill-opacity="1" fill-rule="nonzero"/><path fill="#000000" d="M 158.226562 110.867188 C 158.121094 110.867188 158.03125 110.777344 158.03125 110.671875 L 158.03125 109.652344 C 158.03125 109.542969 158.121094 109.453125 158.226562 109.453125 C 158.335938 109.453125 158.425781 109.542969 158.425781 109.652344 L 158.425781 110.671875 C 158.425781 110.777344 158.335938 110.867188 158.226562 110.867188 " fill-opacity="1" fill-rule="nonzero"/><path fill="#000000" d="M 157.550781 109.171875 L 156.53125 109.171875 C 156.421875 109.171875 156.335938 109.082031 156.335938 108.972656 C 156.335938 108.863281 156.421875 108.777344 156.53125 108.777344 L 157.550781 108.777344 C 157.660156 108.777344 157.746094 108.863281 157.746094 108.972656 C 157.746094 109.082031 157.660156 109.171875 157.550781 109.171875 " fill-opacity="1" fill-rule="nonzero"/><path fill="#000000" d="M 159.925781 109.171875 L 158.90625 109.171875 C 158.796875 109.171875 158.707031 109.082031 158.707031 108.972656 C 158.707031 108.863281 158.796875 108.777344 158.90625 108.777344 L 159.925781 108.777344 C 160.035156 108.777344 160.121094 108.863281 160.121094 108.972656 C 160.121094 109.082031 160.035156 109.171875 159.925781 109.171875 " fill-opacity="1" fill-rule="nonzero"/><path fill="#000000" d="M 153.214844 112.75 C 153.109375 112.75 153.019531 112.664062 153.019531 112.554688 L 153.019531 111.535156 C 153.019531 111.425781 153.109375 111.339844 153.214844 111.339844 C 153.324219 111.339844 153.414062 111.425781 153.414062 111.535156 L 153.414062 112.554688 C 153.414062 112.664062 153.324219 112.75 153.214844 112.75 " fill-opacity="1" fill-rule="nonzero"/><path fill="#000000" d="M 153.214844 115.125 C 153.109375 115.125 153.019531 115.039062 153.019531 114.929688 L 153.019531 113.910156 C 153.019531 113.800781 153.109375 113.710938 153.214844 113.710938 C 153.324219 113.710938 153.414062 113.800781 153.414062 113.910156 L 153.414062 114.929688 C 153.414062 115.039062 153.324219 115.125 153.214844 115.125 " fill-opacity="1" fill-rule="nonzero"/><path fill="#000000" d="M 152.539062 113.429688 L 151.519531 113.429688 C 151.410156 113.429688 151.320312 113.339844 151.320312 113.230469 C 151.320312 113.121094 151.410156 113.035156 151.519531 113.035156 L 152.539062 113.035156 C 152.648438 113.035156 152.734375 113.121094 152.734375 113.230469 C 152.734375 113.339844 152.648438 113.429688 152.539062 113.429688 " fill-opacity="1" fill-rule="nonzero"/><path fill="#000000" d="M 154.910156 113.429688 L 153.894531 113.429688 C 153.785156 113.429688 153.695312 113.339844 153.695312 113.230469 C 153.695312 113.121094 153.785156 113.035156 153.894531 113.035156 L 154.910156 113.035156 C 155.019531 113.035156 155.109375 113.121094 155.109375 113.230469 C 155.109375 113.339844 155.019531 113.429688 154.910156 113.429688 " fill-opacity="1" fill-rule="nonzero"/><path fill="#ffffff" d="M 144.925781 109.203125 C 144.761719 109.203125 144.601562 109.238281 144.445312 109.308594 C 143.839844 109.578125 143.566406 110.304688 143.832031 110.921875 C 143.964844 111.226562 144.199219 111.457031 144.503906 111.574219 C 144.796875 111.6875 145.117188 111.679688 145.40625 111.550781 C 146.011719 111.277344 146.285156 110.554688 146.019531 109.933594 C 145.890625 109.632812 145.652344 109.402344 145.351562 109.285156 C 145.214844 109.230469 145.070312 109.203125 144.925781 109.203125 Z M 144.925781 112.046875 C 144.734375 112.046875 144.542969 112.011719 144.359375 111.941406 C 143.957031 111.785156 143.644531 111.480469 143.46875 111.078125 C 143.117188 110.265625 143.484375 109.308594 144.285156 108.949219 C 144.671875 108.773438 145.097656 108.765625 145.492188 108.917969 C 145.894531 109.074219 146.210938 109.378906 146.382812 109.777344 C 146.734375 110.59375 146.367188 111.550781 145.570312 111.910156 C 145.363281 112 145.144531 112.046875 144.925781 112.046875 " fill-opacity="1" fill-rule="nonzero"/><path fill="#000000" d="M 153.953125 76.792969 C 153.886719 76.792969 153.824219 76.761719 153.785156 76.703125 C 150.726562 71.738281 146.167969 67.957031 140.234375 65.457031 C 140.136719 65.414062 140.089844 65.300781 140.132812 65.199219 C 140.175781 65.097656 140.289062 65.050781 140.390625 65.09375 C 146.398438 67.625 151.019531 71.460938 154.121094 76.492188 C 154.179688 76.585938 154.148438 76.707031 154.058594 76.765625 C 154.023438 76.785156 153.988281 76.792969 153.953125 76.792969 " fill-opacity="1" fill-rule="nonzero"/><path fill="#000000" d="M 157.550781 84.273438 C 157.464844 84.273438 157.382812 84.214844 157.359375 84.125 C 157.355469 84.097656 156.75 81.640625 154.796875 78.539062 C 154.738281 78.449219 154.769531 78.328125 154.859375 78.269531 C 154.953125 78.210938 155.074219 78.238281 155.132812 78.332031 C 157.121094 81.492188 157.71875 83.929688 157.742188 84.03125 C 157.769531 84.136719 157.703125 84.242188 157.597656 84.269531 C 157.582031 84.273438 157.566406 84.273438 157.550781 84.273438 " fill-opacity="1" fill-rule="nonzero"/><path fill="#000000" d="M 156.136719 76.449219 C 156.066406 76.449219 155.992188 76.40625 155.960938 76.335938 C 155.949219 76.308594 154.738281 73.78125 152.089844 70.832031 C 149.644531 68.113281 145.441406 64.476562 139.292969 62.574219 C 139.1875 62.542969 139.128906 62.429688 139.160156 62.328125 C 139.195312 62.222656 139.304688 62.164062 139.410156 62.195312 C 145.652344 64.128906 149.914062 67.820312 152.390625 70.578125 C 155.078125 73.570312 156.304688 76.140625 156.316406 76.167969 C 156.363281 76.265625 156.320312 76.382812 156.222656 76.429688 C 156.195312 76.441406 156.167969 76.449219 156.136719 76.449219 " fill-opacity="1" fill-rule="nonzero"/><path fill="#000000" d="M 61.0625 134.003906 C 60.980469 134.003906 60.90625 133.953125 60.875 133.867188 C 58.996094 128.261719 59.007812 122.257812 60.90625 116.023438 C 60.9375 115.917969 61.046875 115.859375 61.152344 115.890625 C 61.257812 115.921875 61.316406 116.03125 61.285156 116.136719 C 59.40625 122.292969 59.398438 128.214844 61.25 133.742188 C 61.285156 133.847656 61.230469 133.957031 61.125 133.992188 C 61.105469 134 61.085938 134.003906 61.0625 134.003906 " fill-opacity="1" fill-rule="nonzero"/><path fill="#000000" d="M 59.398438 135.460938 C 59.324219 135.460938 59.253906 135.417969 59.21875 135.347656 C 59.207031 135.320312 58.015625 132.730469 57.4375 128.753906 C 56.90625 125.085938 56.796875 119.445312 59.308594 113.414062 C 59.347656 113.3125 59.464844 113.265625 59.566406 113.308594 C 59.664062 113.347656 59.714844 113.464844 59.671875 113.566406 C 57.195312 119.515625 57.300781 125.078125 57.828125 128.699219 C 58.398438 132.617188 59.566406 135.15625 59.578125 135.179688 C 59.625 135.277344 59.582031 135.394531 59.484375 135.441406 C 59.457031 135.453125 59.425781 135.460938 59.398438 135.460938 " fill-opacity="1" fill-rule="nonzero"/></svg>