<svg xmlns="http://www.w3.org/2000/svg" xmlns:xlink="http://www.w3.org/1999/xlink" width="300" zoomAndPan="magnify" viewBox="0 0 224.87999 225" height="300" preserveAspectRatio="xMidYMid meet" version="1.0"><defs><clipPath id="a2a9c943a5"><path d="M 94 67 L 174.769531 67 L 174.769531 135 L 94 135 Z M 94 67 " clip-rule="nonzero"/></clipPath></defs><path fill="#14697d" d="M 124.714844 45.449219 C 119.597656 46.554688 114.574219 48.152344 109.324219 48.945312 C 101.089844 50.1875 94.042969 46.363281 86.039062 47.289062 C 78.292969 48.183594 71.285156 53.78125 66.894531 60.027344 C 60.4375 69.203125 58.433594 80.199219 55.6875 90.84375 C 51.824219 105.851562 50.355469 121.378906 52.828125 136.789062 C 54.113281 144.808594 57.679688 151.925781 65.457031 156.8125 C 74.308594 162.375 118.8125 167.578125 130.773438 166.808594 C 143.335938 166 158.316406 161.683594 167.207031 151.480469 C 174.425781 143.191406 173.960938 135.296875 173.746094 125.234375 C 173.453125 111.628906 173.925781 98.023438 173.628906 84.421875 C 173.363281 72.074219 167.433594 59.007812 156.765625 51.507812 C 149.808594 46.613281 144.011719 44.582031 135.550781 44.285156 C 131.824219 44.15625 128.25 44.683594 124.714844 45.449219 " fill-opacity="1" fill-rule="nonzero"/><g clip-path="url(#a2a9c943a5)"><path fill="#ffbf23" d="M 171.53125 134.226562 L 98.59375 124.085938 C 96.761719 123.851562 95.390625 122.292969 95.390625 120.445312 L 94.390625 69.574219 C 94.390625 69.574219 96.050781 68.375 96.996094 67.914062 C 97.472656 67.679688 98.027344 67.578125 98.601562 67.652344 L 171.320312 76.925781 C 173.152344 77.160156 174.523438 78.71875 174.523438 80.5625 L 174.523438 130.53125 C 174.523438 131.425781 174.117188 132.214844 173.484375 132.734375 C 172.902344 133.210938 171.53125 134.226562 171.53125 134.226562 " fill-opacity="1" fill-rule="nonzero"/></g><path fill="#14697d" d="M 169.304688 134.902344 L 96.585938 125.628906 C 94.753906 125.394531 93.382812 123.839844 93.382812 121.992188 L 93.382812 72.023438 C 93.382812 70.308594 94.890625 68.980469 96.59375 69.195312 L 169.3125 78.46875 C 171.144531 78.703125 172.515625 80.261719 172.515625 82.109375 L 172.515625 132.078125 C 172.515625 133.792969 171.007812 135.121094 169.304688 134.902344 " fill-opacity="1" fill-rule="nonzero"/><path fill="#000000" d="M 172.515625 95.953125 C 172.390625 95.953125 172.292969 95.851562 172.292969 95.730469 L 172.292969 82.109375 C 172.292969 80.378906 171 78.910156 169.285156 78.691406 L 156.699219 77.085938 C 156.578125 77.070312 156.492188 76.960938 156.507812 76.839844 C 156.523438 76.714844 156.632812 76.628906 156.753906 76.644531 L 169.339844 78.25 C 171.277344 78.496094 172.738281 80.15625 172.738281 82.109375 L 172.738281 95.730469 C 172.738281 95.851562 172.636719 95.953125 172.515625 95.953125 " fill-opacity="1" fill-rule="nonzero"/><path fill="#000000" d="M 93.382812 83.296875 C 93.257812 83.296875 93.160156 83.199219 93.160156 83.074219 L 93.160156 72.023438 C 93.160156 71.140625 93.539062 70.300781 94.203125 69.71875 C 94.863281 69.136719 95.746094 68.863281 96.621094 68.976562 L 153.710938 76.257812 C 153.835938 76.273438 153.917969 76.382812 153.90625 76.507812 C 153.890625 76.628906 153.777344 76.710938 153.65625 76.699219 L 96.5625 69.417969 C 95.8125 69.320312 95.0625 69.550781 94.496094 70.050781 C 93.929688 70.550781 93.605469 71.269531 93.605469 72.023438 L 93.605469 83.074219 C 93.605469 83.199219 93.503906 83.296875 93.382812 83.296875 " fill-opacity="1" fill-rule="nonzero"/><path fill="#ffffff" d="M 167.757812 132.84375 L 98.324219 123.988281 C 96.992188 123.820312 95.992188 122.6875 95.992188 121.34375 L 95.992188 73.144531 C 95.992188 72 97 71.113281 98.136719 71.257812 L 167.574219 80.113281 C 168.90625 80.28125 169.902344 81.414062 169.902344 82.757812 L 169.902344 130.957031 C 169.902344 132.101562 168.898438 132.988281 167.757812 132.84375 " fill-opacity="1" fill-rule="nonzero"/><path fill="#ffbf23" d="M 126.878906 164.332031 L 52.089844 154.6875 C 51.503906 154.613281 51.175781 154.121094 51.183594 153.632812 C 51.1875 153.292969 51.214844 150.914062 51.214844 150.914062 L 90.761719 128.304688 C 92.742188 127.171875 95.304688 126.738281 97.570312 127.027344 L 171.414062 136.554688 C 171.859375 136.609375 172.238281 136.898438 172.414062 137.3125 L 172.535156 137.589844 C 172.535156 137.589844 172.46875 139.574219 172.496094 140.039062 C 172.515625 140.402344 172.355469 140.773438 171.972656 140.992188 L 133.421875 163.035156 C 131.441406 164.167969 129.144531 164.621094 126.878906 164.332031 " fill-opacity="1" fill-rule="nonzero"/><path fill="#ffffff" d="M 126.878906 161.683594 L 52.359375 152.054688 C 51.367188 151.929688 51.109375 150.617188 51.976562 150.121094 L 90.320312 128.222656 C 92.300781 127.089844 94.597656 126.632812 96.859375 126.925781 L 171.382812 136.550781 C 172.371094 136.679688 172.632812 137.988281 171.765625 138.484375 L 133.421875 160.386719 C 131.441406 161.515625 129.144531 161.972656 126.878906 161.683594 " fill-opacity="1" fill-rule="nonzero"/><path fill="#000000" d="M 126.910156 161.460938 C 129.109375 161.742188 131.382812 161.292969 133.308594 160.191406 L 171.65625 138.292969 C 172.035156 138.078125 172.109375 137.703125 172.054688 137.421875 C 171.996094 137.144531 171.785156 136.828125 171.355469 136.769531 L 96.832031 127.144531 C 94.628906 126.863281 92.359375 127.3125 90.429688 128.414062 L 52.085938 150.316406 C 51.707031 150.53125 51.632812 150.90625 51.6875 151.183594 C 51.742188 151.460938 51.957031 151.78125 52.386719 151.835938 Z M 128.199219 161.988281 C 127.75 161.988281 127.300781 161.960938 126.851562 161.902344 L 52.328125 152.277344 C 51.78125 152.207031 51.359375 151.8125 51.253906 151.269531 C 51.144531 150.730469 51.386719 150.203125 51.863281 149.929688 L 90.210938 128.027344 C 92.222656 126.878906 94.59375 126.410156 96.890625 126.703125 L 171.410156 136.332031 C 171.957031 136.402344 172.382812 136.796875 172.488281 137.335938 C 172.597656 137.878906 172.355469 138.402344 171.878906 138.675781 L 133.53125 160.578125 C 131.910156 161.503906 130.058594 161.988281 128.199219 161.988281 " fill-opacity="1" fill-rule="nonzero"/><path fill="#ffbf23" d="M 141.472656 149.527344 L 76.851562 141.117188 C 75.957031 141.003906 75.722656 139.816406 76.503906 139.371094 L 91.699219 130.78125 C 93.488281 129.757812 95.5625 129.347656 97.605469 129.609375 L 162.226562 138.015625 C 163.121094 138.132812 163.355469 139.316406 162.574219 139.765625 L 147.378906 148.355469 C 145.589844 149.375 143.515625 149.789062 141.472656 149.527344 " fill-opacity="1" fill-rule="nonzero"/><path fill="#14697d" d="M 109.46875 122.628906 L 162.441406 128.378906 C 162.707031 128.410156 162.945312 128.214844 162.976562 127.949219 L 163.207031 125.820312 C 163.238281 125.554688 163.042969 125.316406 162.777344 125.289062 L 109.804688 119.535156 C 109.539062 119.507812 109.300781 119.699219 109.273438 119.964844 L 109.039062 122.097656 C 109.011719 122.363281 109.203125 122.601562 109.46875 122.628906 " fill-opacity="1" fill-rule="nonzero"/><path fill="#14697d" d="M 115.511719 117.152344 L 162.058594 122.203125 C 162.585938 122.261719 163.0625 121.878906 163.117188 121.351562 L 163.246094 120.175781 C 163.304688 119.644531 162.921875 119.167969 162.394531 119.113281 L 115.84375 114.058594 C 115.316406 114.003906 114.839844 114.382812 114.785156 114.914062 L 114.65625 116.089844 C 114.597656 116.621094 114.980469 117.09375 115.511719 117.152344 " fill-opacity="1" fill-rule="nonzero"/><path fill="#14697d" d="M 102.710938 110.007812 L 162.777344 116.527344 C 163.042969 116.554688 163.28125 116.363281 163.3125 116.097656 L 163.542969 113.96875 C 163.570312 113.703125 163.378906 113.464844 163.113281 113.433594 L 103.046875 106.914062 C 102.78125 106.886719 102.542969 107.078125 102.511719 107.34375 L 102.28125 109.472656 C 102.253906 109.738281 102.445312 109.976562 102.710938 110.007812 " fill-opacity="1" fill-rule="nonzero"/><path fill="#14697d" d="M 111.0625 99.914062 L 163.164062 104.753906 C 163.695312 104.804688 164.164062 104.414062 164.214844 103.886719 L 164.324219 102.707031 C 164.371094 102.175781 163.980469 101.707031 163.453125 101.65625 L 111.351562 96.820312 C 110.820312 96.769531 110.351562 97.160156 110.304688 97.6875 L 110.195312 98.867188 C 110.144531 99.398438 110.535156 99.867188 111.0625 99.914062 " fill-opacity="1" fill-rule="nonzero"/><path fill="#14697d" d="M 116.242188 94.308594 L 162.863281 98.636719 C 163.394531 98.6875 163.863281 98.296875 163.914062 97.769531 L 164.023438 96.589844 C 164.070312 96.058594 163.683594 95.589844 163.152344 95.542969 L 116.53125 91.210938 C 116.003906 91.160156 115.53125 91.550781 115.484375 92.082031 L 115.375 93.257812 C 115.324219 93.789062 115.714844 94.257812 116.242188 94.308594 " fill-opacity="1" fill-rule="nonzero"/><path fill="#14697d" d="M 103.371094 87.425781 L 162.578125 92.921875 C 163.105469 92.972656 163.574219 92.582031 163.625 92.054688 L 163.734375 90.875 C 163.78125 90.34375 163.394531 89.875 162.863281 89.824219 L 103.65625 84.328125 C 103.128906 84.277344 102.65625 84.667969 102.609375 85.195312 L 102.5 86.375 C 102.449219 86.90625 102.839844 87.375 103.371094 87.425781 " fill-opacity="1" fill-rule="nonzero"/><path fill="#000000" d="M 77.457031 109.484375 C 77.519531 112.832031 78.078125 117.351562 80.359375 120.214844 C 81.675781 121.863281 83.386719 122.808594 85.449219 123.023438 C 94.707031 123.996094 99.789062 112.75 100 112.269531 C 100.382812 111.40625 99.992188 110.398438 99.128906 110.019531 C 98.265625 109.636719 97.257812 110.027344 96.875 110.886719 C 96.832031 110.980469 92.585938 120.335938 85.804688 119.625 C 84.671875 119.507812 83.765625 119.003906 83.03125 118.082031 C 80.527344 114.9375 80.742188 107.96875 81.035156 105.550781 C 81.148438 104.613281 80.480469 103.761719 79.546875 103.648438 C 78.609375 103.535156 77.757812 104.199219 77.640625 105.136719 C 77.621094 105.308594 77.414062 107.097656 77.457031 109.484375 " fill-opacity="1" fill-rule="nonzero"/><path fill="#000000" d="M 75.578125 99.132812 L 75.640625 102.410156 C 75.671875 104.203125 77.046875 105.667969 78.832031 105.8125 L 79.976562 105.90625 C 80.953125 105.984375 81.921875 105.644531 82.636719 104.972656 C 83.351562 104.304688 83.75 103.355469 83.734375 102.375 L 83.636719 97.140625 C 83.617188 96.199219 82.839844 95.449219 81.894531 95.464844 C 80.953125 95.484375 80.199219 96.261719 80.21875 97.207031 L 80.316406 102.441406 C 80.316406 102.449219 80.316406 102.464844 80.296875 102.484375 C 80.277344 102.5 80.261719 102.5 80.253906 102.5 L 79.109375 102.40625 C 79.078125 102.402344 79.058594 102.378906 79.054688 102.347656 L 78.996094 99.066406 C 78.976562 98.125 78.199219 97.375 77.253906 97.390625 C 76.3125 97.410156 75.5625 98.1875 75.578125 99.132812 " fill-opacity="1" fill-rule="nonzero"/><path fill="#000000" d="M 150.925781 112.992188 C 150.863281 116.339844 150.238281 120.859375 147.65625 123.714844 C 146.171875 125.363281 144.230469 126.304688 141.890625 126.515625 C 131.386719 127.464844 125.597656 116.203125 125.355469 115.722656 C 124.917969 114.859375 125.359375 113.851562 126.339844 113.472656 C 127.316406 113.09375 128.460938 113.484375 128.898438 114.347656 C 128.945312 114.441406 133.789062 123.808594 141.480469 123.113281 C 142.761719 123 143.789062 122.496094 144.617188 121.578125 C 147.453125 118.4375 147.191406 111.46875 146.855469 109.050781 C 146.722656 108.113281 147.476562 107.261719 148.539062 107.152344 C 149.601562 107.039062 150.570312 107.707031 150.703125 108.648438 C 150.726562 108.820312 150.96875 110.609375 150.925781 112.992188 " fill-opacity="1" fill-rule="nonzero"/><path fill="#000000" d="M 153.675781 102.332031 L 153.613281 105.613281 C 153.582031 107.402344 152.027344 108.863281 150 109.003906 L 148.703125 109.09375 C 147.59375 109.171875 146.492188 108.828125 145.679688 108.15625 C 144.867188 107.484375 144.414062 106.535156 144.433594 105.554688 L 144.527344 100.320312 C 144.546875 99.378906 145.429688 98.628906 146.5 98.648438 C 147.570312 98.667969 148.421875 99.449219 148.40625 100.394531 L 148.308594 105.628906 C 148.308594 105.636719 148.308594 105.652344 148.332031 105.671875 C 148.351562 105.6875 148.371094 105.6875 148.382812 105.6875 L 149.679688 105.597656 C 149.710938 105.59375 149.738281 105.570312 149.738281 105.539062 L 149.800781 102.257812 C 149.816406 101.3125 150.699219 100.566406 151.769531 100.585938 C 152.839844 100.605469 153.695312 101.386719 153.675781 102.332031 " fill-opacity="1" fill-rule="nonzero"/><path fill="#ffffff" d="M 139.402344 88.777344 L 135.789062 88.777344 L 135.789062 78.671875 L 139.402344 78.671875 C 140.269531 78.671875 140.972656 79.375 140.972656 80.246094 L 140.972656 87.203125 C 140.972656 88.074219 140.269531 88.777344 139.402344 88.777344 " fill-opacity="1" fill-rule="nonzero"/><path fill="#000000" d="M 136.011719 88.554688 L 137.082031 88.554688 C 139.105469 88.554688 140.753906 86.910156 140.753906 84.882812 L 140.753906 82.566406 C 140.753906 80.539062 139.105469 78.894531 137.082031 78.894531 L 136.011719 78.894531 Z M 137.082031 89 L 135.789062 89 C 135.667969 89 135.566406 88.898438 135.566406 88.777344 L 135.566406 78.671875 C 135.566406 78.546875 135.667969 78.449219 135.789062 78.449219 L 137.082031 78.449219 C 139.351562 78.449219 141.199219 80.296875 141.199219 82.566406 L 141.199219 84.882812 C 141.199219 87.152344 139.351562 89 137.082031 89 " fill-opacity="1" fill-rule="nonzero"/><path fill="#ffffff" d="M 86.546875 88.777344 L 90.160156 88.777344 L 90.160156 78.671875 L 86.546875 78.671875 C 85.679688 78.671875 84.976562 79.375 84.976562 80.246094 L 84.976562 87.203125 C 84.976562 88.074219 85.679688 88.777344 86.546875 88.777344 " fill-opacity="1" fill-rule="nonzero"/><path fill="#000000" d="M 88.871094 78.894531 C 86.84375 78.894531 85.199219 80.539062 85.199219 82.566406 L 85.199219 84.882812 C 85.199219 86.910156 86.84375 88.554688 88.871094 88.554688 L 89.9375 88.554688 L 89.9375 78.894531 Z M 90.160156 89 L 88.871094 89 C 86.601562 89 84.753906 87.152344 84.753906 84.882812 L 84.753906 82.566406 C 84.753906 80.296875 86.601562 78.449219 88.871094 78.449219 L 90.160156 78.449219 C 90.285156 78.449219 90.382812 78.550781 90.382812 78.671875 L 90.382812 88.777344 C 90.382812 88.898438 90.285156 89 90.160156 89 " fill-opacity="1" fill-rule="nonzero"/><path fill="#ffffff" d="M 88.527344 83.308594 C 88.527344 72.449219 99.472656 61.214844 112.976562 61.214844 C 126.476562 61.214844 137.421875 72.449219 137.421875 83.308594 C 137.421875 94.167969 126.476562 100.539062 112.976562 100.539062 C 99.472656 100.539062 88.527344 94.167969 88.527344 83.308594 " fill-opacity="1" fill-rule="nonzero"/><path fill="#000000" d="M 112.976562 61.4375 C 99.109375 61.4375 88.75 72.984375 88.75 83.308594 C 88.75 88.40625 91.191406 92.730469 95.8125 95.8125 C 100.167969 98.71875 106.265625 100.316406 112.976562 100.316406 C 119.6875 100.316406 125.78125 98.71875 130.140625 95.8125 C 134.757812 92.730469 137.199219 88.40625 137.199219 83.308594 C 137.199219 72.984375 126.839844 61.4375 112.976562 61.4375 Z M 112.976562 100.761719 C 106.179688 100.761719 99.996094 99.132812 95.566406 96.179688 C 90.816406 93.011719 88.304688 88.5625 88.304688 83.308594 C 88.304688 77.921875 90.941406 72.355469 95.535156 68.027344 C 100.351562 63.492188 106.546875 60.992188 112.976562 60.992188 C 119.402344 60.992188 125.597656 63.492188 130.414062 68.027344 C 135.007812 72.355469 137.644531 77.921875 137.644531 83.308594 C 137.644531 88.5625 135.136719 93.011719 130.386719 96.179688 C 125.957031 99.132812 119.773438 100.761719 112.976562 100.761719 " fill-opacity="1" fill-rule="nonzero"/><path fill="#ffffff" d="M 119.097656 103.800781 L 106.851562 103.800781 C 101.484375 103.800781 97.132812 108.152344 97.132812 113.523438 C 97.132812 117.066406 97.476562 120.605469 98.164062 124.085938 L 99.925781 133.003906 C 101.15625 139.234375 106.621094 143.726562 112.976562 143.726562 C 119.328125 143.726562 124.792969 139.234375 126.023438 133.003906 L 127.785156 124.085938 C 128.472656 120.605469 128.820312 117.066406 128.820312 113.523438 C 128.820312 108.152344 124.46875 103.800781 119.097656 103.800781 " fill-opacity="1" fill-rule="nonzero"/><path fill="#000000" d="M 106.851562 104.023438 C 101.613281 104.023438 97.355469 108.285156 97.355469 113.523438 C 97.355469 117.046875 97.699219 120.585938 98.382812 124.042969 L 100.144531 132.960938 C 101.351562 139.070312 106.746094 143.503906 112.976562 143.503906 C 119.203125 143.503906 124.601562 139.070312 125.808594 132.960938 L 127.566406 124.042969 C 128.25 120.585938 128.597656 117.046875 128.597656 113.523438 C 128.597656 108.285156 124.335938 104.023438 119.097656 104.023438 Z M 112.976562 143.949219 C 106.535156 143.949219 100.957031 139.363281 99.707031 133.046875 L 97.945312 124.128906 C 97.257812 120.640625 96.910156 117.074219 96.910156 113.523438 C 96.910156 108.039062 101.371094 103.578125 106.851562 103.578125 L 119.097656 103.578125 C 124.582031 103.578125 129.039062 108.039062 129.039062 113.523438 C 129.039062 117.074219 128.691406 120.640625 128.003906 124.128906 L 126.242188 133.046875 C 124.996094 139.363281 119.414062 143.949219 112.976562 143.949219 " fill-opacity="1" fill-rule="nonzero"/><path fill="#a6201e" d="M 114.503906 125.335938 L 111.445312 125.335938 C 108.609375 125.335938 106.308594 123.039062 106.308594 120.199219 L 106.308594 103.800781 L 119.640625 103.800781 L 119.640625 120.199219 C 119.640625 123.039062 117.34375 125.335938 114.503906 125.335938 " fill-opacity="1" fill-rule="nonzero"/><path fill="#000000" d="M 119.640625 104.023438 L 106.308594 104.023438 C 106.1875 104.023438 106.085938 103.925781 106.085938 103.800781 C 106.085938 103.679688 106.1875 103.578125 106.308594 103.578125 L 119.640625 103.578125 C 119.765625 103.578125 119.863281 103.679688 119.863281 103.800781 C 119.863281 103.925781 119.765625 104.023438 119.640625 104.023438 " fill-opacity="1" fill-rule="nonzero"/><path fill="#000000" d="M 127.527344 79.578125 L 103.984375 79.578125 C 101.539062 79.578125 99.554688 81.714844 99.554688 84.347656 L 99.554688 87.460938 C 99.554688 89.472656 100.628906 91.601562 102.476562 91.949219 C 109.003906 93.175781 122.507812 93.175781 129.03125 91.949219 C 130.882812 91.601562 131.953125 89.472656 131.953125 87.460938 L 131.953125 84.347656 C 131.953125 81.714844 129.972656 79.578125 127.527344 79.578125 " fill-opacity="1" fill-rule="nonzero"/><path fill="#a6201e" d="M 110.222656 85.84375 C 110.222656 86.726562 109.558594 87.441406 108.738281 87.441406 C 107.921875 87.441406 107.257812 86.726562 107.257812 85.84375 C 107.257812 84.957031 107.921875 84.242188 108.738281 84.242188 C 109.558594 84.242188 110.222656 84.957031 110.222656 85.84375 " fill-opacity="1" fill-rule="nonzero"/><path fill="#a6201e" d="M 126.007812 85.84375 C 126.007812 86.726562 125.34375 87.441406 124.523438 87.441406 C 123.703125 87.441406 123.039062 86.726562 123.039062 85.84375 C 123.039062 84.957031 123.703125 84.242188 124.523438 84.242188 C 125.34375 84.242188 126.007812 84.957031 126.007812 85.84375 " fill-opacity="1" fill-rule="nonzero"/><path fill="#a6201e" d="M 136.707031 58.253906 L 131.605469 57.917969 C 130.976562 57.875 130.382812 58.203125 130.082031 58.757812 L 128.554688 61.574219 L 127.097656 58.457031 C 126.851562 57.925781 126.332031 57.570312 125.742188 57.53125 L 121.054688 57.222656 C 120.164062 57.164062 119.492188 56.394531 119.550781 55.507812 L 120.203125 45.550781 C 120.265625 44.660156 121.03125 43.988281 121.921875 44.046875 L 137.574219 45.074219 C 138.464844 45.132812 139.136719 45.902344 139.078125 46.792969 L 138.421875 56.75 C 138.363281 57.636719 137.597656 58.3125 136.707031 58.253906 " fill-opacity="1" fill-rule="nonzero"/><path fill="#000000" d="M 135.445312 49.113281 C 135.441406 49.113281 135.4375 49.113281 135.433594 49.113281 L 124.171875 48.402344 C 124.046875 48.394531 123.957031 48.289062 123.960938 48.164062 C 123.96875 48.042969 124.070312 47.949219 124.199219 47.957031 L 135.460938 48.671875 C 135.582031 48.675781 135.675781 48.785156 135.667969 48.90625 C 135.660156 49.023438 135.5625 49.113281 135.445312 49.113281 " fill-opacity="1" fill-rule="nonzero"/><path fill="#000000" d="M 132.089844 51.550781 C 132.085938 51.550781 132.082031 51.550781 132.078125 51.550781 L 123.730469 51.023438 C 123.609375 51.015625 123.515625 50.910156 123.523438 50.785156 C 123.53125 50.664062 123.632812 50.570312 123.757812 50.578125 L 132.105469 51.105469 C 132.230469 51.113281 132.320312 51.21875 132.3125 51.339844 C 132.304688 51.460938 132.207031 51.550781 132.089844 51.550781 " fill-opacity="1" fill-rule="nonzero"/><path fill="#000000" d="M 135.144531 54.457031 C 135.136719 54.457031 135.132812 54.457031 135.128906 54.457031 L 123.867188 53.746094 C 123.742188 53.738281 123.648438 53.632812 123.660156 53.507812 C 123.667969 53.386719 123.769531 53.292969 123.894531 53.300781 L 135.15625 54.011719 C 135.277344 54.019531 135.371094 54.125 135.363281 54.25 C 135.355469 54.367188 135.257812 54.457031 135.144531 54.457031 " fill-opacity="1" fill-rule="nonzero"/><path fill="#a6201e" d="M 61.953125 89.324219 C 56.941406 84.371094 56.867188 76.269531 61.789062 71.226562 C 66.710938 66.183594 74.769531 66.109375 79.78125 71.058594 C 84.796875 76.011719 84.871094 84.113281 79.945312 89.15625 C 75.023438 94.199219 66.96875 94.273438 61.953125 89.324219 " fill-opacity="1" fill-rule="nonzero"/><path fill="#ffffff" d="M 79.488281 79.507812 L 70.84375 88.359375 C 70.386719 88.828125 69.640625 88.835938 69.171875 88.375 L 63.09375 82.371094 C 62.625 81.914062 62.621094 81.160156 63.078125 80.691406 L 71.722656 71.835938 C 72.179688 71.367188 72.925781 71.359375 73.394531 71.820312 L 79.472656 77.824219 C 79.941406 78.285156 79.945312 79.039062 79.488281 79.507812 " fill-opacity="1" fill-rule="nonzero"/><path fill="#000000" d="M 72.566406 71.703125 C 72.5625 71.703125 72.558594 71.703125 72.554688 71.703125 C 72.300781 71.707031 72.058594 71.808594 71.878906 71.992188 L 63.238281 80.847656 C 62.863281 81.226562 62.871094 81.839844 63.25 82.214844 L 69.328125 88.21875 C 69.511719 88.398438 69.75 88.496094 70.011719 88.496094 C 70.265625 88.492188 70.507812 88.390625 70.6875 88.207031 L 79.328125 79.351562 C 79.703125 78.972656 79.695312 78.355469 79.316406 77.984375 L 73.238281 71.980469 C 73.054688 71.800781 72.816406 71.703125 72.566406 71.703125 Z M 70 88.9375 C 69.628906 88.9375 69.28125 88.796875 69.015625 88.535156 L 62.9375 82.53125 C 62.382812 81.984375 62.375 81.089844 62.917969 80.535156 L 71.5625 71.683594 C 71.824219 71.414062 72.175781 71.261719 72.550781 71.257812 C 72.925781 71.253906 73.28125 71.398438 73.550781 71.664062 L 79.628906 77.667969 C 80.179688 78.210938 80.1875 79.105469 79.648438 79.664062 L 71.003906 88.515625 C 70.742188 88.785156 70.390625 88.9375 70.015625 88.9375 C 70.007812 88.9375 70.003906 88.9375 70 88.9375 " fill-opacity="1" fill-rule="nonzero"/><path fill="#000000" d="M 66.152344 81.828125 C 66.046875 81.828125 65.957031 81.757812 65.933594 81.652344 C 65.90625 81.535156 65.984375 81.417969 66.105469 81.390625 L 71.621094 80.183594 C 71.738281 80.15625 71.859375 80.230469 71.882812 80.351562 C 71.910156 80.472656 71.835938 80.589844 71.714844 80.617188 L 66.199219 81.824219 C 66.183594 81.828125 66.167969 81.828125 66.152344 81.828125 " fill-opacity="1" fill-rule="nonzero"/><path fill="#000000" d="M 71.691406 80.597656 C 71.675781 80.597656 71.664062 80.597656 71.648438 80.59375 C 71.527344 80.570312 71.449219 80.453125 71.472656 80.332031 L 72.570312 74.761719 C 72.59375 74.640625 72.714844 74.566406 72.832031 74.585938 C 72.953125 74.613281 73.03125 74.726562 73.007812 74.847656 L 71.910156 80.417969 C 71.886719 80.523438 71.796875 80.597656 71.691406 80.597656 " fill-opacity="1" fill-rule="nonzero"/><path fill="#a6201e" d="M 147.574219 94.464844 C 144.089844 91.027344 144.039062 85.398438 147.460938 81.894531 C 150.878906 78.390625 156.472656 78.339844 159.957031 81.777344 C 163.441406 85.21875 163.492188 90.847656 160.074219 94.351562 C 156.652344 97.851562 151.054688 97.90625 147.574219 94.464844 " fill-opacity="1" fill-rule="nonzero"/><path fill="#ffffff" d="M 152.09375 92.746094 C 152.09375 92.359375 152.234375 92.042969 152.511719 91.796875 C 152.792969 91.546875 153.140625 91.421875 153.558594 91.421875 C 153.976562 91.421875 154.328125 91.546875 154.605469 91.796875 C 154.886719 92.042969 155.027344 92.359375 155.027344 92.746094 C 155.027344 93.136719 154.886719 93.453125 154.605469 93.699219 C 154.328125 93.949219 153.976562 94.074219 153.558594 94.074219 C 153.140625 94.074219 152.792969 93.949219 152.511719 93.699219 C 152.234375 93.453125 152.09375 93.136719 152.09375 92.746094 Z M 152.414062 90.363281 C 152.414062 89.601562 152.5 89 152.671875 88.558594 C 152.847656 88.117188 153.125 87.734375 153.511719 87.410156 C 153.898438 87.085938 154.195312 86.789062 154.394531 86.519531 C 154.597656 86.25 154.695312 85.953125 154.695312 85.628906 C 154.695312 84.839844 154.355469 84.445312 153.675781 84.445312 C 153.363281 84.445312 153.109375 84.558594 152.917969 84.789062 C 152.722656 85.019531 152.621094 85.332031 152.609375 85.722656 L 149.960938 85.722656 C 149.972656 84.679688 150.300781 83.863281 150.949219 83.28125 C 151.597656 82.699219 152.507812 82.40625 153.675781 82.40625 C 154.84375 82.40625 155.746094 82.675781 156.386719 83.214844 C 157.027344 83.753906 157.347656 84.519531 157.347656 85.511719 C 157.347656 85.945312 157.261719 86.339844 157.085938 86.695312 C 156.914062 87.050781 156.636719 87.414062 156.257812 87.785156 L 155.355469 88.625 C 155.097656 88.871094 154.921875 89.121094 154.820312 89.378906 C 154.722656 89.640625 154.667969 89.96875 154.65625 90.363281 L 152.414062 90.363281 " fill-opacity="1" fill-rule="nonzero"/><path fill="#000000" d="M 152.640625 90.140625 L 154.445312 90.140625 C 154.46875 89.816406 154.527344 89.53125 154.613281 89.300781 C 154.726562 89.011719 154.921875 88.730469 155.203125 88.464844 L 156.105469 87.621094 C 156.464844 87.273438 156.726562 86.929688 156.886719 86.597656 C 157.046875 86.273438 157.125 85.910156 157.125 85.511719 C 157.125 84.578125 156.835938 83.882812 156.242188 83.382812 C 155.648438 82.882812 154.785156 82.628906 153.679688 82.628906 C 152.570312 82.628906 151.699219 82.902344 151.097656 83.445312 C 150.539062 83.949219 150.242188 84.621094 150.191406 85.5 L 152.402344 85.5 C 152.445312 85.15625 152.558594 84.871094 152.746094 84.648438 C 152.984375 84.367188 153.296875 84.222656 153.679688 84.222656 C 154.140625 84.222656 154.917969 84.40625 154.917969 85.628906 C 154.917969 86 154.804688 86.34375 154.574219 86.652344 C 154.363281 86.933594 154.054688 87.246094 153.65625 87.578125 C 153.300781 87.878906 153.039062 88.234375 152.882812 88.636719 C 152.738281 89.007812 152.65625 89.515625 152.640625 90.140625 Z M 154.65625 90.585938 L 152.414062 90.585938 C 152.292969 90.585938 152.191406 90.488281 152.191406 90.363281 C 152.191406 89.578125 152.285156 88.941406 152.46875 88.476562 C 152.652344 88 152.957031 87.585938 153.371094 87.238281 C 153.742188 86.925781 154.027344 86.640625 154.21875 86.386719 C 154.390625 86.152344 154.476562 85.90625 154.476562 85.628906 C 154.476562 84.777344 154.046875 84.667969 153.679688 84.667969 C 153.429688 84.667969 153.238281 84.753906 153.085938 84.933594 C 152.925781 85.121094 152.84375 85.390625 152.832031 85.730469 C 152.828125 85.847656 152.730469 85.945312 152.609375 85.945312 L 149.960938 85.945312 C 149.902344 85.945312 149.84375 85.921875 149.804688 85.878906 C 149.761719 85.835938 149.738281 85.78125 149.738281 85.722656 C 149.75 84.617188 150.105469 83.738281 150.800781 83.117188 C 151.488281 82.496094 152.457031 82.183594 153.679688 82.183594 C 154.890625 82.183594 155.851562 82.472656 156.527344 83.042969 C 157.21875 83.625 157.570312 84.453125 157.570312 85.511719 C 157.570312 85.976562 157.476562 86.40625 157.289062 86.792969 C 157.105469 87.167969 156.808594 87.558594 156.410156 87.945312 L 155.507812 88.785156 C 155.277344 89.007812 155.117188 89.234375 155.03125 89.460938 C 154.941406 89.695312 154.890625 90 154.878906 90.371094 C 154.878906 90.492188 154.777344 90.585938 154.65625 90.585938 Z M 153.558594 91.644531 C 153.195312 91.644531 152.898438 91.75 152.660156 91.960938 C 152.429688 92.167969 152.316406 92.425781 152.316406 92.746094 C 152.316406 93.070312 152.429688 93.328125 152.660156 93.535156 C 152.898438 93.746094 153.195312 93.851562 153.558594 93.851562 C 153.925781 93.851562 154.21875 93.746094 154.460938 93.535156 C 154.691406 93.328125 154.804688 93.070312 154.804688 92.746094 C 154.804688 92.425781 154.691406 92.167969 154.460938 91.960938 C 154.21875 91.75 153.925781 91.644531 153.558594 91.644531 Z M 153.558594 94.292969 C 153.085938 94.292969 152.6875 94.152344 152.367188 93.867188 C 152.039062 93.574219 151.871094 93.199219 151.871094 92.746094 C 151.871094 92.296875 152.039062 91.921875 152.367188 91.628906 C 152.6875 91.34375 153.085938 91.199219 153.558594 91.199219 C 154.03125 91.199219 154.433594 91.34375 154.753906 91.628906 C 155.082031 91.921875 155.246094 92.296875 155.246094 92.746094 C 155.246094 93.199219 155.082031 93.574219 154.753906 93.867188 C 154.433594 94.152344 154.03125 94.292969 153.558594 94.292969 " fill-opacity="1" fill-rule="nonzero"/><path fill="#a6201e" d="M 83.363281 53.570312 C 83.082031 50.035156 85.71875 46.929688 89.25 46.628906 C 92.78125 46.328125 95.871094 48.945312 96.152344 52.480469 C 96.433594 56.011719 93.796875 59.121094 90.265625 59.421875 C 86.734375 59.722656 83.644531 57.101562 83.363281 53.570312 " fill-opacity="1" fill-rule="nonzero"/><path fill="#ffffff" d="M 91.457031 49.773438 L 92.320312 49.703125 C 92.417969 49.695312 92.507812 49.769531 92.515625 49.867188 L 92.984375 55.695312 C 92.992188 55.792969 92.917969 55.882812 92.820312 55.890625 L 91.957031 55.960938 C 91.855469 55.96875 91.769531 55.894531 91.761719 55.792969 L 91.292969 49.96875 C 91.285156 49.867188 91.355469 49.78125 91.457031 49.773438 " fill-opacity="1" fill-rule="nonzero"/><path fill="#ffffff" d="M 89.21875 51.765625 L 90.085938 51.695312 C 90.183594 51.6875 90.269531 51.761719 90.277344 51.859375 L 90.605469 55.890625 C 90.613281 55.988281 90.539062 56.074219 90.4375 56.082031 L 89.574219 56.152344 C 89.476562 56.160156 89.390625 56.085938 89.382812 55.988281 L 89.054688 51.957031 C 89.046875 51.859375 89.121094 51.773438 89.21875 51.765625 " fill-opacity="1" fill-rule="nonzero"/><path fill="#ffffff" d="M 87.027344 54.253906 L 87.890625 54.183594 C 87.988281 54.175781 88.074219 54.25 88.082031 54.347656 L 88.222656 56.082031 C 88.230469 56.179688 88.15625 56.265625 88.058594 56.273438 L 87.195312 56.34375 C 87.09375 56.351562 87.007812 56.277344 87 56.179688 L 86.859375 54.445312 C 86.851562 54.347656 86.925781 54.261719 87.027344 54.253906 " fill-opacity="1" fill-rule="nonzero"/><path fill="#000000" d="M 58.480469 97.425781 C 58.359375 97.425781 58.257812 97.328125 58.257812 97.203125 L 58.257812 96.054688 C 58.257812 95.933594 58.359375 95.832031 58.480469 95.832031 C 58.605469 95.832031 58.703125 95.933594 58.703125 96.054688 L 58.703125 97.203125 C 58.703125 97.328125 58.605469 97.425781 58.480469 97.425781 " fill-opacity="1" fill-rule="nonzero"/><path fill="#000000" d="M 58.480469 100.101562 C 58.359375 100.101562 58.257812 100.003906 58.257812 99.878906 L 58.257812 98.730469 C 58.257812 98.609375 58.359375 98.507812 58.480469 98.507812 C 58.605469 98.507812 58.703125 98.609375 58.703125 98.730469 L 58.703125 99.878906 C 58.703125 100.003906 58.605469 100.101562 58.480469 100.101562 " fill-opacity="1" fill-rule="nonzero"/><path fill="#000000" d="M 57.71875 98.1875 L 56.570312 98.1875 C 56.445312 98.1875 56.347656 98.089844 56.347656 97.96875 C 56.347656 97.84375 56.445312 97.746094 56.570312 97.746094 L 57.71875 97.746094 C 57.839844 97.746094 57.941406 97.84375 57.941406 97.96875 C 57.941406 98.089844 57.839844 98.1875 57.71875 98.1875 " fill-opacity="1" fill-rule="nonzero"/><path fill="#000000" d="M 60.394531 98.1875 L 59.246094 98.1875 C 59.121094 98.1875 59.023438 98.089844 59.023438 97.96875 C 59.023438 97.84375 59.121094 97.746094 59.246094 97.746094 L 60.394531 97.746094 C 60.515625 97.746094 60.617188 97.84375 60.617188 97.96875 C 60.617188 98.089844 60.515625 98.1875 60.394531 98.1875 " fill-opacity="1" fill-rule="nonzero"/><path fill="#000000" d="M 70.789062 123.738281 C 70.664062 123.738281 70.566406 123.636719 70.566406 123.515625 L 70.566406 122.367188 C 70.566406 122.242188 70.664062 122.144531 70.789062 122.144531 C 70.910156 122.144531 71.011719 122.242188 71.011719 122.367188 L 71.011719 123.515625 C 71.011719 123.636719 70.910156 123.738281 70.789062 123.738281 " fill-opacity="1" fill-rule="nonzero"/><path fill="#000000" d="M 70.789062 126.414062 C 70.664062 126.414062 70.566406 126.316406 70.566406 126.191406 L 70.566406 125.042969 C 70.566406 124.917969 70.664062 124.820312 70.789062 124.820312 C 70.910156 124.820312 71.011719 124.917969 71.011719 125.042969 L 71.011719 126.191406 C 71.011719 126.316406 70.910156 126.414062 70.789062 126.414062 " fill-opacity="1" fill-rule="nonzero"/><path fill="#000000" d="M 70.023438 124.5 L 68.875 124.5 C 68.753906 124.5 68.652344 124.402344 68.652344 124.277344 C 68.652344 124.15625 68.753906 124.058594 68.875 124.058594 L 70.023438 124.058594 C 70.148438 124.058594 70.246094 124.15625 70.246094 124.277344 C 70.246094 124.402344 70.148438 124.5 70.023438 124.5 " fill-opacity="1" fill-rule="nonzero"/><path fill="#000000" d="M 72.703125 124.5 L 71.550781 124.5 C 71.429688 124.5 71.332031 124.402344 71.332031 124.277344 C 71.332031 124.15625 71.429688 124.058594 71.550781 124.058594 L 72.703125 124.058594 C 72.824219 124.058594 72.921875 124.15625 72.921875 124.277344 C 72.921875 124.402344 72.824219 124.5 72.703125 124.5 " fill-opacity="1" fill-rule="nonzero"/><path fill="#000000" d="M 148.390625 56.421875 C 148.265625 56.421875 148.167969 56.324219 148.167969 56.199219 L 148.167969 55.050781 C 148.167969 54.929688 148.265625 54.828125 148.390625 54.828125 C 148.511719 54.828125 148.613281 54.929688 148.613281 55.050781 L 148.613281 56.199219 C 148.613281 56.324219 148.511719 56.421875 148.390625 56.421875 " fill-opacity="1" fill-rule="nonzero"/><path fill="#000000" d="M 148.390625 59.097656 C 148.265625 59.097656 148.167969 59 148.167969 58.875 L 148.167969 57.726562 C 148.167969 57.605469 148.265625 57.503906 148.390625 57.503906 C 148.511719 57.503906 148.613281 57.605469 148.613281 57.726562 L 148.613281 58.875 C 148.613281 59 148.511719 59.097656 148.390625 59.097656 " fill-opacity="1" fill-rule="nonzero"/><path fill="#000000" d="M 147.625 57.183594 L 146.476562 57.183594 C 146.355469 57.183594 146.253906 57.085938 146.253906 56.964844 C 146.253906 56.839844 146.355469 56.742188 146.476562 56.742188 L 147.625 56.742188 C 147.75 56.742188 147.847656 56.839844 147.847656 56.964844 C 147.847656 57.085938 147.75 57.183594 147.625 57.183594 " fill-opacity="1" fill-rule="nonzero"/><path fill="#000000" d="M 150.300781 57.183594 L 149.152344 57.183594 C 149.03125 57.183594 148.929688 57.085938 148.929688 56.964844 C 148.929688 56.839844 149.03125 56.742188 149.152344 56.742188 L 150.300781 56.742188 C 150.425781 56.742188 150.523438 56.839844 150.523438 56.964844 C 150.523438 57.085938 150.425781 57.183594 150.300781 57.183594 " fill-opacity="1" fill-rule="nonzero"/><path fill="#ffffff" d="M 60.507812 105.269531 C 60.507812 105.851562 60.039062 106.320312 59.457031 106.320312 C 58.878906 106.320312 58.40625 105.851562 58.40625 105.269531 C 58.40625 104.691406 58.878906 104.21875 59.457031 104.21875 C 60.039062 104.21875 60.507812 104.691406 60.507812 105.269531 " fill-opacity="1" fill-rule="nonzero"/><path fill="#ffffff" d="M 164.328125 70.390625 C 164.328125 70.96875 163.855469 71.441406 163.273438 71.441406 C 162.695312 71.441406 162.222656 70.96875 162.222656 70.390625 C 162.222656 69.808594 162.695312 69.339844 163.273438 69.339844 C 163.855469 69.339844 164.328125 69.808594 164.328125 70.390625 " fill-opacity="1" fill-rule="nonzero"/><path fill="#ffffff" d="M 78.640625 57.816406 C 78.640625 58.394531 78.167969 58.867188 77.589844 58.867188 C 77.007812 58.867188 76.539062 58.394531 76.539062 57.816406 C 76.539062 57.234375 77.007812 56.765625 77.589844 56.765625 C 78.167969 56.765625 78.640625 57.234375 78.640625 57.816406 " fill-opacity="1" fill-rule="nonzero"/><path fill="#a6201e" d="M 59.359375 114.167969 C 59.246094 114.167969 59.152344 114.082031 59.140625 113.964844 C 59.085938 113.378906 59.039062 112.777344 59 112.1875 C 58.992188 112.066406 59.085938 111.960938 59.207031 111.953125 C 59.335938 111.945312 59.4375 112.039062 59.445312 112.160156 C 59.480469 112.746094 59.527344 113.339844 59.582031 113.925781 C 59.59375 114.046875 59.503906 114.15625 59.382812 114.167969 C 59.375 114.167969 59.367188 114.167969 59.359375 114.167969 Z M 59.78125 117.699219 C 59.671875 117.699219 59.578125 117.617188 59.5625 117.507812 C 59.476562 116.925781 59.398438 116.332031 59.328125 115.738281 C 59.3125 115.617188 59.398438 115.507812 59.523438 115.492188 C 59.644531 115.480469 59.753906 115.566406 59.769531 115.6875 C 59.839844 116.273438 59.917969 116.863281 60.003906 117.445312 C 60.019531 117.566406 59.9375 117.679688 59.816406 117.695312 C 59.804688 117.699219 59.792969 117.699219 59.78125 117.699219 Z M 155.972656 118.238281 C 155.851562 118.238281 155.753906 118.140625 155.75 118.015625 C 155.742188 117.402344 155.707031 116.8125 155.648438 116.265625 C 155.636719 116.144531 155.722656 116.03125 155.84375 116.019531 C 155.964844 116.007812 156.074219 116.09375 156.089844 116.214844 C 156.152344 116.777344 156.1875 117.382812 156.195312 118.011719 C 156.195312 118.132812 156.097656 118.234375 155.976562 118.238281 C 155.976562 118.238281 155.972656 118.238281 155.972656 118.238281 Z M 60.398438 121.203125 C 60.296875 121.203125 60.203125 121.128906 60.179688 121.023438 C 60.0625 120.449219 59.949219 119.859375 59.847656 119.269531 C 59.824219 119.148438 59.90625 119.035156 60.027344 119.011719 C 60.148438 118.992188 60.261719 119.074219 60.285156 119.195312 C 60.386719 119.777344 60.5 120.363281 60.617188 120.933594 C 60.640625 121.054688 60.5625 121.171875 60.445312 121.199219 C 60.429688 121.199219 60.414062 121.203125 60.398438 121.203125 Z M 155.777344 121.785156 C 155.769531 121.785156 155.761719 121.785156 155.753906 121.785156 C 155.632812 121.769531 155.542969 121.660156 155.558594 121.539062 C 155.625 120.933594 155.675781 120.34375 155.710938 119.777344 C 155.714844 119.65625 155.820312 119.5625 155.945312 119.570312 C 156.066406 119.578125 156.160156 119.679688 156.152344 119.804688 C 156.121094 120.375 156.070312 120.976562 156 121.589844 C 155.984375 121.703125 155.890625 121.785156 155.777344 121.785156 Z M 61.222656 124.664062 C 61.125 124.664062 61.035156 124.601562 61.007812 124.5 C 60.851562 123.929688 60.707031 123.347656 60.566406 122.769531 C 60.539062 122.648438 60.613281 122.53125 60.734375 122.5 C 60.851562 122.472656 60.972656 122.546875 61 122.664062 C 61.136719 123.242188 61.28125 123.820312 61.4375 124.386719 C 61.46875 124.503906 61.398438 124.625 61.28125 124.65625 C 61.261719 124.664062 61.242188 124.664062 61.222656 124.664062 Z M 155.214844 125.296875 C 155.199219 125.296875 155.183594 125.296875 155.171875 125.292969 C 155.050781 125.269531 154.972656 125.152344 154.996094 125.03125 C 155.117188 124.445312 155.222656 123.859375 155.316406 123.289062 C 155.335938 123.167969 155.449219 123.085938 155.570312 123.105469 C 155.691406 123.125 155.773438 123.238281 155.753906 123.359375 C 155.660156 123.933594 155.554688 124.527344 155.433594 125.121094 C 155.410156 125.222656 155.320312 125.296875 155.214844 125.296875 Z M 62.261719 128.070312 C 62.167969 128.070312 62.082031 128.011719 62.050781 127.917969 C 61.859375 127.363281 61.675781 126.789062 61.5 126.21875 C 61.464844 126.101562 61.53125 125.976562 61.648438 125.941406 C 61.765625 125.90625 61.890625 125.972656 61.925781 126.089844 C 62.097656 126.65625 62.28125 127.222656 62.46875 127.777344 C 62.511719 127.890625 62.449219 128.019531 62.332031 128.058594 C 62.308594 128.066406 62.285156 128.070312 62.261719 128.070312 Z M 154.378906 128.753906 C 154.359375 128.753906 154.339844 128.753906 154.320312 128.746094 C 154.203125 128.714844 154.132812 128.589844 154.164062 128.472656 C 154.324219 127.902344 154.476562 127.324219 154.613281 126.757812 C 154.640625 126.640625 154.761719 126.566406 154.878906 126.59375 C 155 126.625 155.074219 126.742188 155.042969 126.863281 C 154.90625 127.433594 154.753906 128.015625 154.59375 128.59375 C 154.566406 128.691406 154.476562 128.753906 154.378906 128.753906 Z M 63.527344 131.398438 C 63.441406 131.398438 63.359375 131.347656 63.324219 131.261719 C 63.09375 130.71875 62.871094 130.160156 62.65625 129.601562 C 62.613281 129.488281 62.671875 129.359375 62.785156 129.316406 C 62.902344 129.273438 63.027344 129.328125 63.074219 129.441406 C 63.28125 129.996094 63.503906 130.550781 63.734375 131.089844 C 63.78125 131.203125 63.726562 131.332031 63.613281 131.378906 C 63.585938 131.390625 63.558594 131.398438 63.527344 131.398438 Z M 153.316406 132.148438 C 153.289062 132.148438 153.265625 132.144531 153.242188 132.136719 C 153.125 132.097656 153.066406 131.96875 153.105469 131.855469 C 153.300781 131.296875 153.488281 130.734375 153.664062 130.171875 C 153.699219 130.054688 153.824219 129.988281 153.941406 130.027344 C 154.058594 130.0625 154.125 130.1875 154.085938 130.304688 C 153.910156 130.871094 153.722656 131.441406 153.527344 132 C 153.492188 132.089844 153.40625 132.148438 153.316406 132.148438 Z M 65.039062 134.621094 C 64.957031 134.621094 64.878906 134.578125 64.839844 134.5 C 64.570312 133.976562 64.304688 133.4375 64.050781 132.894531 C 64 132.785156 64.046875 132.652344 64.15625 132.601562 C 64.269531 132.546875 64.402344 132.597656 64.453125 132.707031 C 64.703125 133.242188 64.96875 133.777344 65.234375 134.296875 C 65.292969 134.40625 65.25 134.539062 65.140625 134.597656 C 65.105469 134.613281 65.074219 134.621094 65.039062 134.621094 Z M 152.03125 135.464844 C 152.003906 135.464844 151.972656 135.460938 151.945312 135.449219 C 151.832031 135.398438 151.78125 135.269531 151.828125 135.15625 C 152.054688 134.621094 152.28125 134.070312 152.496094 133.515625 C 152.539062 133.402344 152.667969 133.34375 152.78125 133.386719 C 152.898438 133.433594 152.953125 133.5625 152.910156 133.675781 C 152.691406 134.234375 152.464844 134.792969 152.238281 135.332031 C 152.199219 135.414062 152.117188 135.464844 152.03125 135.464844 Z M 118.875 137.378906 C 118.789062 137.378906 118.707031 137.328125 118.671875 137.246094 C 118.621094 137.132812 118.671875 137.003906 118.78125 136.953125 C 119.03125 136.839844 119.296875 136.757812 119.574219 136.703125 C 119.917969 136.636719 120.273438 136.617188 120.628906 136.648438 C 120.75 136.660156 120.839844 136.769531 120.828125 136.890625 C 120.816406 137.011719 120.707031 137.101562 120.585938 137.089844 C 120.273438 137.0625 119.960938 137.078125 119.65625 137.140625 C 119.414062 137.1875 119.179688 137.261719 118.964844 137.359375 C 118.933594 137.371094 118.90625 137.378906 118.875 137.378906 Z M 66.800781 137.710938 C 66.726562 137.710938 66.65625 137.675781 66.613281 137.609375 C 66.300781 137.109375 65.992188 136.59375 65.695312 136.074219 C 65.632812 135.964844 65.671875 135.832031 65.777344 135.769531 C 65.882812 135.710938 66.019531 135.746094 66.078125 135.851562 C 66.375 136.367188 66.679688 136.878906 66.988281 137.371094 C 67.054688 137.476562 67.023438 137.613281 66.917969 137.679688 C 66.882812 137.699219 66.839844 137.710938 66.800781 137.710938 Z M 150.515625 138.683594 C 150.480469 138.683594 150.445312 138.671875 150.410156 138.65625 C 150.300781 138.601562 150.261719 138.464844 150.316406 138.355469 C 150.582031 137.847656 150.847656 137.3125 151.105469 136.769531 C 151.15625 136.660156 151.289062 136.613281 151.398438 136.664062 C 151.511719 136.71875 151.558594 136.851562 151.503906 136.960938 C 151.246094 137.507812 150.980469 138.046875 150.710938 138.5625 C 150.671875 138.636719 150.59375 138.683594 150.515625 138.683594 Z M 123.675781 138.738281 C 123.617188 138.738281 123.558594 138.714844 123.515625 138.671875 C 123.085938 138.230469 122.636719 137.875 122.171875 137.613281 C 122.066406 137.550781 122.027344 137.417969 122.089844 137.308594 C 122.148438 137.203125 122.285156 137.164062 122.390625 137.226562 C 122.890625 137.511719 123.378906 137.890625 123.832031 138.359375 C 123.917969 138.449219 123.917969 138.589844 123.828125 138.675781 C 123.785156 138.714844 123.730469 138.738281 123.675781 138.738281 Z M 116.785156 140.101562 C 116.769531 140.101562 116.75 140.101562 116.730469 140.09375 C 116.613281 140.066406 116.542969 139.945312 116.570312 139.824219 C 116.734375 139.183594 116.992188 138.617188 117.339844 138.140625 C 117.410156 138.042969 117.550781 138.019531 117.648438 138.09375 C 117.75 138.164062 117.769531 138.304688 117.699219 138.402344 C 117.386719 138.832031 117.152344 139.347656 117 139.933594 C 116.976562 140.035156 116.886719 140.101562 116.785156 140.101562 Z M 68.824219 140.636719 C 68.757812 140.636719 68.691406 140.605469 68.648438 140.546875 C 68.289062 140.078125 67.9375 139.59375 67.597656 139.101562 C 67.527344 139 67.550781 138.863281 67.652344 138.792969 C 67.753906 138.722656 67.894531 138.746094 67.960938 138.847656 C 68.296875 139.332031 68.648438 139.816406 69 140.277344 C 69.074219 140.375 69.058594 140.515625 68.960938 140.589844 C 68.917969 140.621094 68.871094 140.636719 68.824219 140.636719 Z M 125.570312 141.71875 C 125.480469 141.71875 125.394531 141.664062 125.363281 141.578125 C 125.160156 141.046875 124.898438 140.527344 124.582031 140.03125 C 124.515625 139.929688 124.546875 139.792969 124.652344 139.726562 C 124.753906 139.660156 124.890625 139.691406 124.957031 139.792969 C 125.289062 140.316406 125.5625 140.863281 125.777344 141.417969 C 125.820312 141.53125 125.765625 141.660156 125.648438 141.707031 C 125.625 141.714844 125.597656 141.71875 125.570312 141.71875 Z M 148.710938 141.746094 C 148.667969 141.746094 148.625 141.734375 148.589844 141.710938 C 148.488281 141.640625 148.460938 141.503906 148.527344 141.402344 C 148.839844 140.933594 149.15625 140.429688 149.460938 139.902344 C 149.523438 139.796875 149.660156 139.761719 149.765625 139.824219 C 149.871094 139.886719 149.90625 140.023438 149.84375 140.128906 C 149.53125 140.660156 149.214844 141.171875 148.898438 141.648438 C 148.855469 141.710938 148.785156 141.746094 148.710938 141.746094 Z M 71.113281 143.351562 C 71.054688 143.351562 70.992188 143.328125 70.949219 143.28125 C 70.546875 142.851562 70.148438 142.398438 69.765625 141.941406 C 69.6875 141.847656 69.699219 141.710938 69.792969 141.628906 C 69.886719 141.550781 70.027344 141.5625 70.105469 141.65625 C 70.484375 142.109375 70.878906 142.550781 71.273438 142.980469 C 71.359375 143.070312 71.351562 143.210938 71.265625 143.292969 C 71.222656 143.332031 71.167969 143.351562 71.113281 143.351562 Z M 116.933594 143.605469 C 116.839844 143.605469 116.753906 143.546875 116.722656 143.457031 C 116.527344 142.902344 116.414062 142.277344 116.386719 141.652344 C 116.382812 141.527344 116.476562 141.425781 116.601562 141.421875 C 116.730469 141.417969 116.828125 141.511719 116.832031 141.632812 C 116.855469 142.214844 116.960938 142.796875 117.140625 143.3125 C 117.183594 143.425781 117.121094 143.554688 117.003906 143.59375 C 116.980469 143.601562 116.957031 143.605469 116.933594 143.605469 Z M 146.511719 144.535156 C 146.457031 144.535156 146.402344 144.515625 146.359375 144.472656 C 146.269531 144.390625 146.269531 144.25 146.351562 144.160156 C 146.730469 143.765625 147.117188 143.320312 147.5 142.832031 C 147.574219 142.734375 147.714844 142.71875 147.808594 142.792969 C 147.90625 142.867188 147.925781 143.007812 147.847656 143.105469 C 147.457031 143.605469 147.0625 144.0625 146.671875 144.46875 C 146.628906 144.511719 146.570312 144.535156 146.511719 144.535156 Z M 126.015625 145.214844 C 126.007812 145.214844 126 145.214844 125.996094 145.214844 C 125.871094 145.203125 125.78125 145.09375 125.792969 144.972656 C 125.816406 144.722656 125.828125 144.46875 125.828125 144.214844 C 125.828125 143.898438 125.808594 143.570312 125.773438 143.242188 C 125.761719 143.121094 125.847656 143.011719 125.96875 143 C 126.089844 142.984375 126.203125 143.074219 126.214844 143.195312 C 126.253906 143.539062 126.273438 143.878906 126.273438 144.214844 C 126.273438 144.480469 126.261719 144.75 126.234375 145.015625 C 126.226562 145.128906 126.128906 145.214844 126.015625 145.214844 Z M 73.65625 145.824219 C 73.605469 145.824219 73.554688 145.804688 73.511719 145.769531 C 73.066406 145.378906 72.625 144.972656 72.199219 144.558594 C 72.109375 144.472656 72.109375 144.332031 72.195312 144.242188 C 72.28125 144.15625 72.421875 144.152344 72.507812 144.238281 C 72.929688 144.648438 73.367188 145.050781 73.804688 145.433594 C 73.894531 145.515625 73.90625 145.65625 73.824219 145.746094 C 73.78125 145.796875 73.71875 145.824219 73.65625 145.824219 Z M 118.9375 146.496094 C 118.882812 146.496094 118.828125 146.476562 118.785156 146.4375 C 118.316406 146.011719 117.910156 145.554688 117.574219 145.078125 C 117.503906 144.980469 117.527344 144.839844 117.625 144.769531 C 117.726562 144.699219 117.867188 144.722656 117.9375 144.824219 C 118.253906 145.273438 118.640625 145.703125 119.085938 146.109375 C 119.175781 146.191406 119.183594 146.332031 119.101562 146.421875 C 119.054688 146.472656 118.996094 146.496094 118.9375 146.496094 Z M 143.800781 146.828125 C 143.734375 146.828125 143.667969 146.796875 143.625 146.738281 C 143.550781 146.640625 143.570312 146.5 143.667969 146.429688 C 144.113281 146.09375 144.582031 145.726562 145.054688 145.335938 C 145.152344 145.257812 145.289062 145.273438 145.367188 145.367188 C 145.445312 145.460938 145.433594 145.601562 145.339844 145.679688 C 144.859375 146.074219 144.386719 146.449219 143.933594 146.785156 C 143.894531 146.8125 143.847656 146.828125 143.800781 146.828125 Z M 76.453125 148.015625 C 76.40625 148.015625 76.363281 148 76.324219 147.972656 C 75.839844 147.632812 75.355469 147.273438 74.886719 146.910156 C 74.792969 146.832031 74.773438 146.691406 74.851562 146.597656 C 74.925781 146.5 75.066406 146.484375 75.164062 146.558594 C 75.625 146.921875 76.101562 147.273438 76.578125 147.609375 C 76.679688 147.679688 76.703125 147.820312 76.632812 147.917969 C 76.589844 147.980469 76.519531 148.015625 76.453125 148.015625 Z M 121.898438 148.441406 C 121.867188 148.441406 121.832031 148.433594 121.800781 148.417969 C 121.238281 148.144531 120.707031 147.847656 120.226562 147.539062 C 120.125 147.472656 120.09375 147.332031 120.160156 147.230469 C 120.226562 147.128906 120.363281 147.097656 120.46875 147.164062 C 120.933594 147.464844 121.449219 147.753906 121.996094 148.019531 C 122.105469 148.070312 122.152344 148.203125 122.097656 148.3125 C 122.058594 148.394531 121.980469 148.441406 121.898438 148.441406 Z M 124.90625 148.558594 C 124.867188 148.558594 124.824219 148.546875 124.789062 148.523438 C 124.683594 148.460938 124.652344 148.324219 124.714844 148.21875 C 125.015625 147.722656 125.261719 147.199219 125.441406 146.65625 C 125.480469 146.539062 125.605469 146.476562 125.722656 146.515625 C 125.839844 146.554688 125.902344 146.679688 125.863281 146.796875 C 125.671875 147.371094 125.414062 147.925781 125.09375 148.449219 C 125.050781 148.519531 124.980469 148.558594 124.90625 148.558594 Z M 140.8125 148.746094 C 140.734375 148.746094 140.65625 148.703125 140.617188 148.625 C 140.558594 148.519531 140.601562 148.382812 140.710938 148.328125 C 141.203125 148.0625 141.714844 147.761719 142.222656 147.433594 C 142.324219 147.367188 142.464844 147.398438 142.53125 147.5 C 142.597656 147.601562 142.566406 147.742188 142.464844 147.808594 C 141.945312 148.144531 141.421875 148.449219 140.917969 148.71875 C 140.882812 148.738281 140.847656 148.746094 140.8125 148.746094 Z M 125.226562 149.679688 C 125.207031 149.679688 125.1875 149.675781 125.167969 149.671875 C 124.578125 149.503906 124.003906 149.320312 123.457031 149.117188 C 123.34375 149.074219 123.285156 148.949219 123.328125 148.832031 C 123.371094 148.71875 123.496094 148.660156 123.609375 148.703125 C 124.144531 148.898438 124.707031 149.082031 125.285156 149.242188 C 125.40625 149.277344 125.472656 149.398438 125.441406 149.515625 C 125.414062 149.617188 125.324219 149.679688 125.226562 149.679688 Z M 79.464844 149.890625 C 79.429688 149.890625 79.390625 149.882812 79.359375 149.863281 C 78.835938 149.578125 78.320312 149.273438 77.816406 148.960938 C 77.710938 148.894531 77.679688 148.757812 77.742188 148.65625 C 77.808594 148.550781 77.945312 148.519531 78.050781 148.582031 C 78.546875 148.894531 79.058594 149.191406 79.570312 149.476562 C 79.679688 149.535156 79.71875 149.667969 79.660156 149.777344 C 79.617188 149.851562 79.542969 149.890625 79.464844 149.890625 Z M 137.523438 150.070312 C 137.425781 150.070312 137.335938 150.007812 137.308594 149.910156 C 137.277344 149.789062 137.347656 149.667969 137.464844 149.636719 C 138.019531 149.480469 138.578125 149.289062 139.121094 149.070312 C 139.234375 149.023438 139.363281 149.078125 139.410156 149.191406 C 139.457031 149.304688 139.402344 149.433594 139.289062 149.480469 C 138.730469 149.707031 138.15625 149.902344 137.582031 150.0625 C 137.5625 150.070312 137.542969 150.070312 137.523438 150.070312 Z M 128.707031 150.398438 C 128.699219 150.398438 128.6875 150.398438 128.675781 150.398438 C 128.089844 150.320312 127.496094 150.214844 126.910156 150.09375 C 126.789062 150.070312 126.710938 149.953125 126.738281 149.832031 C 126.761719 149.710938 126.878906 149.636719 127 149.660156 C 127.578125 149.777344 128.164062 149.878906 128.738281 149.957031 C 128.859375 149.972656 128.945312 150.085938 128.925781 150.207031 C 128.914062 150.320312 128.816406 150.398438 128.707031 150.398438 Z M 134.023438 150.648438 C 133.90625 150.648438 133.8125 150.554688 133.804688 150.4375 C 133.796875 150.316406 133.890625 150.210938 134.011719 150.203125 C 134.609375 150.164062 135.195312 150.101562 135.753906 150.011719 C 135.875 149.988281 135.988281 150.074219 136.007812 150.195312 C 136.027344 150.316406 135.945312 150.429688 135.824219 150.449219 C 135.25 150.542969 134.652344 150.609375 134.039062 150.648438 C 134.035156 150.648438 134.027344 150.648438 134.023438 150.648438 Z M 132.25 150.683594 C 132.246094 150.683594 132.246094 150.683594 132.246094 150.683594 C 131.675781 150.671875 131.074219 150.640625 130.457031 150.589844 C 130.332031 150.582031 130.242188 150.472656 130.253906 150.351562 C 130.261719 150.226562 130.371094 150.136719 130.492188 150.148438 C 131.101562 150.199219 131.695312 150.226562 132.253906 150.238281 C 132.375 150.242188 132.472656 150.34375 132.472656 150.464844 C 132.46875 150.585938 132.371094 150.683594 132.25 150.683594 Z M 122.503906 151.144531 C 122.433594 151.144531 122.367188 151.113281 122.324219 151.058594 C 122.25 150.957031 122.269531 150.820312 122.367188 150.746094 C 122.84375 150.390625 123.28125 150.003906 123.667969 149.589844 C 123.75 149.503906 123.890625 149.496094 123.980469 149.582031 C 124.070312 149.664062 124.074219 149.804688 123.992188 149.894531 C 123.585938 150.324219 123.132812 150.730469 122.636719 151.101562 C 122.59375 151.132812 122.546875 151.144531 122.503906 151.144531 Z M 82.664062 151.433594 C 82.632812 151.433594 82.605469 151.429688 82.578125 151.417969 C 82.027344 151.1875 81.480469 150.941406 80.945312 150.683594 C 80.835938 150.628906 80.789062 150.496094 80.84375 150.386719 C 80.894531 150.277344 81.027344 150.230469 81.140625 150.285156 C 81.664062 150.539062 82.207031 150.78125 82.75 151.007812 C 82.863281 151.054688 82.914062 151.183594 82.867188 151.296875 C 82.832031 151.382812 82.75 151.433594 82.664062 151.433594 Z M 86.003906 152.636719 C 85.984375 152.636719 85.960938 152.632812 85.941406 152.628906 C 85.371094 152.453125 84.796875 152.265625 84.242188 152.066406 C 84.125 152.023438 84.066406 151.898438 84.109375 151.78125 C 84.148438 151.664062 84.277344 151.605469 84.394531 151.648438 C 84.941406 151.84375 85.503906 152.03125 86.070312 152.203125 C 86.1875 152.238281 86.253906 152.363281 86.21875 152.480469 C 86.1875 152.574219 86.097656 152.636719 86.003906 152.636719 Z M 119.378906 152.820312 C 119.289062 152.820312 119.203125 152.765625 119.171875 152.675781 C 119.128906 152.558594 119.1875 152.429688 119.300781 152.390625 C 119.855469 152.183594 120.390625 151.945312 120.894531 151.675781 C 121.003906 151.617188 121.136719 151.660156 121.195312 151.765625 C 121.253906 151.875 121.210938 152.011719 121.105469 152.070312 C 120.582031 152.347656 120.027344 152.59375 119.457031 152.804688 C 119.429688 152.816406 119.402344 152.820312 119.378906 152.820312 Z M 89.441406 153.535156 C 89.425781 153.535156 89.410156 153.53125 89.394531 153.527344 C 88.8125 153.398438 88.226562 153.257812 87.660156 153.109375 C 87.539062 153.078125 87.46875 152.957031 87.5 152.839844 C 87.53125 152.71875 87.652344 152.648438 87.769531 152.679688 C 88.335938 152.828125 88.914062 152.96875 89.492188 153.09375 C 89.609375 153.121094 89.6875 153.242188 89.660156 153.359375 C 89.636719 153.464844 89.542969 153.535156 89.441406 153.535156 Z M 115.933594 153.667969 C 115.828125 153.667969 115.734375 153.59375 115.714844 153.488281 C 115.691406 153.367188 115.773438 153.25 115.894531 153.230469 C 116.308594 153.15625 116.726562 153.074219 117.140625 152.996094 C 117.304688 152.964844 117.464844 152.929688 117.625 152.890625 C 117.746094 152.863281 117.867188 152.9375 117.894531 153.058594 C 117.921875 153.175781 117.847656 153.296875 117.726562 153.324219 C 117.5625 153.363281 117.394531 153.398438 117.226562 153.429688 C 116.808594 153.511719 116.386719 153.589844 115.972656 153.667969 C 115.957031 153.667969 115.945312 153.667969 115.933594 153.667969 Z M 92.933594 154.191406 C 92.921875 154.191406 92.914062 154.1875 92.902344 154.1875 C 92.3125 154.097656 91.71875 153.996094 91.140625 153.886719 C 91.019531 153.863281 90.941406 153.75 90.964844 153.628906 C 90.988281 153.507812 91.101562 153.429688 91.222656 153.449219 C 91.796875 153.558594 92.382812 153.65625 92.96875 153.746094 C 93.089844 153.765625 93.171875 153.878906 93.152344 154 C 93.136719 154.109375 93.042969 154.191406 92.933594 154.191406 Z M 112.421875 154.21875 C 112.3125 154.21875 112.214844 154.136719 112.199219 154.027344 C 112.183594 153.90625 112.269531 153.792969 112.390625 153.777344 C 112.972656 153.699219 113.5625 153.613281 114.144531 153.523438 C 114.265625 153.503906 114.378906 153.585938 114.398438 153.707031 C 114.417969 153.828125 114.335938 153.941406 114.214844 153.960938 C 113.628906 154.054688 113.035156 154.140625 112.449219 154.21875 C 112.441406 154.21875 112.429688 154.21875 112.421875 154.21875 Z M 108.886719 154.609375 C 108.773438 154.609375 108.675781 154.523438 108.664062 154.40625 C 108.65625 154.285156 108.746094 154.179688 108.867188 154.167969 C 109.453125 154.117188 110.046875 154.058594 110.632812 153.992188 C 110.75 153.980469 110.863281 154.066406 110.878906 154.1875 C 110.890625 154.3125 110.800781 154.421875 110.679688 154.433594 C 110.09375 154.5 109.496094 154.558594 108.90625 154.609375 C 108.902344 154.609375 108.894531 154.609375 108.886719 154.609375 Z M 96.460938 154.621094 C 96.457031 154.621094 96.449219 154.621094 96.441406 154.621094 C 95.847656 154.566406 95.25 154.503906 94.667969 154.429688 C 94.546875 154.414062 94.460938 154.304688 94.472656 154.183594 C 94.488281 154.0625 94.597656 153.972656 94.722656 153.988281 C 95.300781 154.0625 95.894531 154.125 96.484375 154.179688 C 96.605469 154.191406 96.695312 154.296875 96.683594 154.421875 C 96.671875 154.535156 96.574219 154.621094 96.460938 154.621094 Z M 105.339844 154.835938 C 105.222656 154.835938 105.121094 154.742188 105.117188 154.625 C 105.113281 154.5 105.207031 154.398438 105.332031 154.394531 C 105.917969 154.371094 106.511719 154.339844 107.101562 154.300781 C 107.222656 154.292969 107.328125 154.386719 107.335938 154.507812 C 107.34375 154.632812 107.253906 154.738281 107.128906 154.746094 C 106.539062 154.78125 105.9375 154.8125 105.347656 154.835938 C 105.347656 154.835938 105.34375 154.835938 105.339844 154.835938 Z M 100.011719 154.851562 C 100.007812 154.851562 100.003906 154.851562 100 154.851562 C 99.40625 154.828125 98.808594 154.796875 98.21875 154.761719 C 98.097656 154.753906 98.003906 154.648438 98.011719 154.523438 C 98.019531 154.402344 98.125 154.308594 98.25 154.316406 C 98.832031 154.355469 99.425781 154.382812 100.015625 154.40625 C 100.140625 154.410156 100.234375 154.511719 100.230469 154.636719 C 100.226562 154.753906 100.128906 154.851562 100.011719 154.851562 Z M 102.492188 154.894531 C 102.257812 154.894531 102.019531 154.894531 101.785156 154.890625 C 101.660156 154.890625 101.5625 154.789062 101.5625 154.667969 C 101.566406 154.542969 101.664062 154.445312 101.785156 154.445312 C 101.789062 154.445312 101.789062 154.445312 101.789062 154.445312 C 102.378906 154.453125 102.96875 154.449219 103.558594 154.441406 C 103.5625 154.441406 103.5625 154.441406 103.5625 154.441406 C 103.683594 154.441406 103.785156 154.539062 103.785156 154.660156 C 103.789062 154.785156 103.6875 154.882812 103.566406 154.886719 C 103.207031 154.890625 102.851562 154.894531 102.492188 154.894531 " fill-opacity="1" fill-rule="nonzero"/><path fill="#000000" d="M 170.835938 61.238281 C 170.761719 61.238281 170.6875 61.199219 170.648438 61.132812 C 167.773438 56.441406 164.21875 52.640625 160.078125 49.835938 C 159.976562 49.769531 159.949219 49.628906 160.019531 49.527344 C 160.085938 49.425781 160.226562 49.402344 160.328125 49.46875 C 164.519531 52.308594 168.121094 56.15625 171.027344 60.902344 C 171.089844 61.003906 171.058594 61.140625 170.953125 61.207031 C 170.917969 61.226562 170.875 61.238281 170.835938 61.238281 " fill-opacity="1" fill-rule="nonzero"/><path fill="#000000" d="M 173.628906 62.597656 C 173.546875 62.597656 173.464844 62.550781 173.425781 62.46875 C 169.789062 54.304688 163.851562 49.457031 159.515625 46.824219 C 159.410156 46.761719 159.375 46.625 159.441406 46.519531 C 159.503906 46.414062 159.640625 46.378906 159.746094 46.445312 C 164.136719 49.109375 170.148438 54.019531 173.832031 62.285156 C 173.882812 62.398438 173.832031 62.53125 173.71875 62.578125 C 173.691406 62.59375 173.660156 62.597656 173.628906 62.597656 " fill-opacity="1" fill-rule="nonzero"/><path fill="#000000" d="M 59.335938 64.445312 C 59.304688 64.445312 59.277344 64.4375 59.246094 64.425781 C 59.132812 64.375 59.082031 64.246094 59.132812 64.132812 C 62.019531 57.554688 66.9375 52.160156 73.746094 48.09375 C 73.851562 48.03125 73.988281 48.0625 74.050781 48.171875 C 74.117188 48.277344 74.082031 48.410156 73.976562 48.476562 C 67.246094 52.492188 62.386719 57.820312 59.539062 64.3125 C 59.503906 64.394531 59.421875 64.445312 59.335938 64.445312 " fill-opacity="1" fill-rule="nonzero"/><path fill="#000000" d="M 56.753906 64.6875 C 56.726562 64.6875 56.703125 64.683594 56.679688 64.675781 C 56.5625 64.636719 56.5 64.507812 56.542969 64.394531 C 56.574219 64.296875 60.011719 54.617188 69.933594 48.117188 C 70.039062 48.050781 70.175781 48.082031 70.242188 48.183594 C 70.308594 48.285156 70.28125 48.421875 70.179688 48.488281 C 60.386719 54.902344 56.996094 64.441406 56.960938 64.539062 C 56.929688 64.628906 56.84375 64.6875 56.753906 64.6875 " fill-opacity="1" fill-rule="nonzero"/></svg>