<svg xmlns="http://www.w3.org/2000/svg" xmlns:xlink="http://www.w3.org/1999/xlink" width="300" zoomAndPan="magnify" viewBox="0 0 224.87999 225" height="300" preserveAspectRatio="xMidYMid meet" version="1.0"><path fill="#14697d" d="M 169.234375 105.265625 C 165.296875 77.824219 140.519531 62.003906 121.304688 57.488281 C 90.789062 50.316406 64.046875 66.726562 60.136719 73.199219 C 58.882812 75.277344 58.671875 80.058594 58.671875 80.058594 C 58.691406 85.410156 64.210938 89.519531 63.992188 101.699219 C 63.59375 124.105469 51.714844 131.667969 56.964844 145.910156 C 59.957031 154.027344 65.273438 158.71875 69.6875 161.71875 C 88.777344 174.679688 116.621094 173.902344 135.984375 164.835938 C 155.097656 155.886719 173.160156 132.601562 169.234375 105.265625 " fill-opacity="1" fill-rule="nonzero"/><path fill="#ffffff" d="M 86.015625 139.585938 C 88.34375 139.71875 89.976562 137.136719 91.546875 135.683594 C 94.871094 132.605469 98.539062 128.871094 99.789062 124.382812 C 100.066406 123.386719 100.496094 121.84375 99.992188 120.066406 C 98.988281 116.515625 95.566406 116.652344 94.675781 113.964844 C 93.507812 110.417969 98.832031 108.269531 99.835938 100.863281 C 100.078125 99.085938 100.453125 96.320312 98.949219 93.832031 C 97.269531 91.058594 94.972656 91.492188 93.148438 89.015625 C 90.875 85.925781 91.105469 83.148438 90.085938 78.503906 C 89.015625 73.605469 83.527344 69.441406 77.710938 69.011719 C 72.640625 68.632812 71.429688 70.949219 69.488281 74.351562 C 65.476562 81.375 69.683594 86.476562 69.886719 93.542969 C 69.921875 94.816406 69.835938 96.105469 70.09375 97.355469 C 71.175781 102.609375 77.859375 105.652344 78.050781 111.011719 C 78.15625 113.964844 76.1875 116.539062 74.335938 118.839844 C 73.597656 119.757812 72.84375 120.699219 72.46875 121.816406 C 71.351562 125.109375 73.777344 128.480469 76.175781 131.003906 C 78.28125 133.214844 82.378906 138.703125 85.386719 139.488281 C 85.601562 139.542969 85.8125 139.574219 86.015625 139.585938 " fill-opacity="1" fill-rule="nonzero"/><path fill="#14697d" d="M 87.386719 135.71875 C 87.363281 135.71875 87.34375 135.71875 87.324219 135.710938 C 87.214844 135.679688 87.152344 135.5625 87.183594 135.449219 C 91.996094 119.332031 88.855469 104.285156 85.371094 94.5 C 81.59375 83.886719 76.609375 77 76.558594 76.933594 C 76.492188 76.839844 76.511719 76.707031 76.605469 76.640625 C 76.699219 76.570312 76.828125 76.59375 76.898438 76.6875 C 76.949219 76.753906 81.960938 83.679688 85.761719 94.34375 C 87.992188 100.609375 89.375 106.921875 89.875 113.109375 C 90.496094 120.84375 89.726562 128.402344 87.585938 135.570312 C 87.558594 135.660156 87.476562 135.71875 87.386719 135.71875 " fill-opacity="1" fill-rule="nonzero"/><path fill="#ffffff" d="M 85.386719 142.464844 C 105.257812 131.207031 109.050781 123.28125 108.324219 117.871094 C 108.109375 116.257812 107.246094 112.972656 108.214844 108.789062 C 109.46875 103.367188 112.574219 101.703125 114.867188 97.972656 C 119.355469 90.671875 119.867188 79.242188 115.304688 71.804688 C 112.117188 66.609375 102.699219 59.371094 94.550781 59.667969 C 91.105469 59.792969 86.601562 61.457031 86.113281 64.355469 C 85.414062 68.5 94.089844 71.316406 94.703125 77.84375 C 95.039062 81.40625 92.570312 81.589844 92.960938 85.375 C 93.578125 91.335938 99.996094 93.652344 99.214844 97.132812 C 98.460938 100.503906 92.183594 99.179688 90.542969 103.09375 C 88.667969 107.558594 95.210938 112.335938 92.90625 116.335938 C 91.535156 118.71875 88.933594 117.511719 87.003906 120.070312 C 84.652344 123.183594 87.222656 126.664062 87.203125 133.421875 C 87.191406 137.210938 86.21875 140.210938 85.386719 142.464844 " fill-opacity="1" fill-rule="nonzero"/><path fill="#14697d" d="M 86.761719 141.113281 C 86.714844 141.113281 86.667969 141.101562 86.628906 141.066406 C 86.539062 140.996094 86.527344 140.863281 86.597656 140.773438 C 97.40625 127.410156 104.90625 110.785156 106.65625 96.296875 C 107.867188 86.308594 106.152344 78.605469 104.503906 73.902344 C 102.714844 68.808594 100.609375 66.042969 100.589844 66.015625 C 100.519531 65.921875 100.535156 65.789062 100.628906 65.71875 C 100.71875 65.648438 100.851562 65.667969 100.921875 65.757812 C 100.945312 65.785156 103.078125 68.59375 104.890625 73.746094 C 106.5625 78.492188 108.296875 86.265625 107.074219 96.347656 C 106.28125 102.910156 104.207031 110.246094 101.078125 117.558594 C 97.472656 125.980469 92.710938 133.882812 86.925781 141.035156 C 86.882812 141.089844 86.824219 141.113281 86.761719 141.113281 " fill-opacity="1" fill-rule="nonzero"/><path fill="#ffffff" d="M 128 139.546875 L 104.292969 139.695312 C 104.140625 139.695312 104.089844 139.839844 104.089844 139.976562 L 104.089844 160.144531 C 104.089844 162.078125 90.621094 167.09375 90.488281 166.839844 L 90.472656 168.972656 C 90.472656 169.371094 90.820312 169.722656 91.265625 169.722656 L 91.5625 169.722656 C 91.5625 169.722656 91.566406 169.722656 91.566406 169.722656 L 111.445312 169.722656 C 112.367188 169.722656 113.277344 169.519531 114.113281 169.167969 L 125.042969 164.566406 C 127.011719 163.738281 128.25 161.960938 128.25 160.019531 L 128.25 139.828125 C 128.25 139.691406 128.152344 139.546875 128 139.546875 " fill-opacity="1" fill-rule="nonzero"/><path fill="#000000" d="M 111.253906 170.289062 L 91.074219 170.289062 C 90.796875 170.289062 90.542969 170.183594 90.347656 169.992188 C 90.167969 169.8125 90.070312 169.574219 90.070312 169.328125 L 90.085938 167.195312 C 90.085938 167.078125 90.179688 166.980469 90.296875 166.984375 C 90.414062 166.988281 90.507812 167.082031 90.503906 167.199219 L 90.488281 169.332031 C 90.488281 169.464844 90.546875 169.59375 90.648438 169.695312 C 90.757812 169.808594 90.910156 169.871094 91.074219 169.871094 L 111.253906 169.871094 C 112.101562 169.871094 112.996094 169.683594 113.839844 169.332031 L 124.769531 164.730469 C 126.121094 164.160156 127.152344 163.101562 127.601562 161.820312 C 127.640625 161.710938 127.757812 161.65625 127.867188 161.691406 C 127.976562 161.730469 128.035156 161.851562 127.996094 161.960938 C 127.507812 163.351562 126.390625 164.5 124.929688 165.117188 L 114.003906 169.71875 C 113.109375 170.09375 112.15625 170.289062 111.253906 170.289062 " fill-opacity="1" fill-rule="nonzero"/><path fill="#ffbf23" d="M 101.6875 138.523438 L 101.6875 158.695312 C 101.6875 160.683594 100.410156 162.496094 98.398438 163.355469 L 91.023438 166.5 C 90.542969 166.707031 90.707031 167.351562 91.242188 167.351562 L 111.496094 167.351562 C 112.410156 167.351562 113.308594 167.171875 114.132812 166.828125 L 122.300781 163.386719 C 124.328125 162.535156 125.617188 160.714844 125.617188 158.714844 L 125.617188 138.523438 C 125.617188 138.4375 125.542969 138.371094 125.453125 138.371094 L 101.855469 138.371094 C 101.761719 138.371094 101.6875 138.4375 101.6875 138.523438 " fill-opacity="1" fill-rule="nonzero"/><path fill="#000000" d="M 57.527344 149.953125 L 155.007812 150.167969 L 156.699219 150.167969 L 159.847656 150.175781 C 160.742188 150.175781 161.476562 149.476562 161.589844 148.589844 L 169.738281 84.894531 C 169.9375 83.34375 168.808594 81.878906 167.25 81.878906 L 66.253906 81.972656 L 57.527344 149.953125 " fill-opacity="1" fill-rule="nonzero"/><path fill="#ffbf23" d="M 163.460938 81.863281 C 165.21875 81.863281 166.648438 83.632812 166.425781 85.382812 L 158.214844 148.589844 C 158.101562 149.480469 157.34375 150.144531 156.453125 150.144531 L 155.683594 150.175781 L 56.175781 150.144531 C 55.101562 150.144531 54.273438 149.203125 54.410156 148.136719 L 62.785156 83.640625 C 62.902344 82.75 63.585938 81.863281 64.476562 81.863281 L 163.460938 81.863281 " fill-opacity="1" fill-rule="nonzero"/><path fill="#000000" d="M 153.15625 150.179688 C 153.042969 150.179688 152.945312 150.085938 152.945312 149.972656 C 152.945312 149.855469 153.039062 149.761719 153.15625 149.761719 L 156.484375 149.753906 C 157.265625 149.753906 158.015625 149.082031 158.117188 148.289062 L 166.214844 85.355469 C 166.316406 84.582031 166.078125 83.800781 165.5625 83.214844 C 165.046875 82.632812 164.308594 82.296875 163.53125 82.296875 L 146.863281 82.296875 C 146.746094 82.296875 146.652344 82.203125 146.652344 82.085938 C 146.652344 81.96875 146.746094 81.875 146.863281 81.875 L 163.53125 81.875 C 164.429688 81.875 165.285156 82.261719 165.878906 82.9375 C 166.472656 83.613281 166.746094 84.515625 166.632812 85.410156 L 158.53125 148.339844 C 158.40625 149.335938 157.46875 150.175781 156.484375 150.175781 L 153.15625 150.179688 " fill-opacity="1" fill-rule="nonzero"/><path fill="#000000" d="M 76.855469 150.320312 C 76.738281 150.320312 76.644531 150.222656 76.644531 150.109375 C 76.644531 149.992188 76.738281 149.898438 76.855469 149.898438 L 118.488281 149.828125 C 118.605469 149.828125 118.699219 149.917969 118.699219 150.035156 C 118.699219 150.152344 118.605469 150.246094 118.488281 150.246094 L 76.855469 150.320312 " fill-opacity="1" fill-rule="nonzero"/><path fill="#000000" d="M 56.175781 150.355469 C 55.605469 150.355469 55.0625 150.109375 54.683594 149.679688 C 54.304688 149.25 54.128906 148.679688 54.203125 148.109375 L 62.578125 83.613281 C 62.707031 82.625 63.554688 81.875 64.550781 81.875 L 135.753906 81.875 C 135.867188 81.875 135.960938 81.96875 135.960938 82.085938 C 135.960938 82.203125 135.867188 82.296875 135.753906 82.296875 L 64.550781 82.296875 C 63.761719 82.296875 63.09375 82.886719 62.996094 83.667969 L 54.621094 148.164062 C 54.5625 148.613281 54.699219 149.066406 55 149.402344 C 55.296875 149.742188 55.726562 149.9375 56.175781 149.9375 L 58.476562 149.933594 C 58.59375 149.933594 58.6875 150.027344 58.6875 150.140625 C 58.6875 150.257812 58.59375 150.351562 58.476562 150.351562 L 56.175781 150.355469 " fill-opacity="1" fill-rule="nonzero"/><path fill="#14697d" d="M 61.519531 121.492188 C 61.507812 121.492188 61.5 121.488281 61.492188 121.488281 C 61.375 121.472656 61.292969 121.367188 61.308594 121.253906 L 66.074219 85.464844 C 66.089844 85.347656 66.199219 85.269531 66.3125 85.285156 C 66.425781 85.300781 66.507812 85.40625 66.492188 85.519531 L 61.726562 121.308594 C 61.710938 121.414062 61.621094 121.492188 61.519531 121.492188 " fill-opacity="1" fill-rule="nonzero"/><path fill="#14697d" d="M 157.773438 123.722656 C 157.765625 123.722656 157.757812 123.722656 157.746094 123.722656 C 157.632812 123.707031 157.550781 123.601562 157.566406 123.488281 L 162.484375 86.082031 C 162.496094 85.96875 162.605469 85.886719 162.71875 85.902344 C 162.832031 85.917969 162.914062 86.023438 162.898438 86.136719 L 157.980469 123.542969 C 157.96875 123.648438 157.878906 123.722656 157.773438 123.722656 " fill-opacity="1" fill-rule="nonzero"/><path fill="#ffffff" d="M 113.457031 88.433594 L 79.203125 88.433594 C 77.867188 88.433594 76.652344 89.488281 76.488281 90.785156 L 71.914062 127.109375 C 71.753906 128.382812 72.699219 129.410156 74.019531 129.410156 L 107.890625 129.410156 C 109.214844 129.410156 110.425781 128.382812 110.601562 127.109375 L 115.554688 90.785156 C 115.730469 89.488281 114.792969 88.433594 113.457031 88.433594 " fill-opacity="1" fill-rule="nonzero"/><path fill="#000000" d="M 79.203125 88.644531 C 77.972656 88.644531 76.847656 89.617188 76.695312 90.8125 L 72.125 127.136719 C 72.054688 127.675781 72.207031 128.1875 72.546875 128.570312 C 72.902344 128.976562 73.425781 129.199219 74.019531 129.199219 L 107.890625 129.199219 C 109.109375 129.199219 110.230469 128.25 110.390625 127.082031 L 115.347656 90.757812 C 115.421875 90.199219 115.273438 89.671875 114.929688 89.277344 C 114.574219 88.867188 114.046875 88.644531 113.457031 88.644531 Z M 107.890625 129.621094 L 74.019531 129.621094 C 73.304688 129.621094 72.667969 129.347656 72.230469 128.851562 C 71.808594 128.371094 71.625 127.746094 71.707031 127.082031 L 76.277344 90.757812 C 76.453125 89.359375 77.765625 88.222656 79.203125 88.222656 L 113.457031 88.222656 C 114.171875 88.222656 114.808594 88.5 115.246094 89 C 115.671875 89.488281 115.855469 90.132812 115.761719 90.8125 L 110.808594 127.136719 C 110.621094 128.507812 109.3125 129.621094 107.890625 129.621094 " fill-opacity="1" fill-rule="nonzero"/><path fill="#000000" d="M 113.457031 92.5 L 111.371094 92.5 C 111.253906 92.5 111.160156 92.40625 111.160156 92.289062 C 111.160156 92.175781 111.253906 92.082031 111.371094 92.082031 L 113.457031 92.082031 C 113.574219 92.082031 113.667969 92.175781 113.667969 92.289062 C 113.667969 92.40625 113.574219 92.5 113.457031 92.5 " fill-opacity="1" fill-rule="nonzero"/><path fill="#000000" d="M 97.207031 92.5 L 78.21875 92.5 C 78.101562 92.5 78.007812 92.40625 78.007812 92.289062 C 78.007812 92.175781 78.101562 92.082031 78.21875 92.082031 L 97.207031 92.082031 C 97.320312 92.082031 97.414062 92.175781 97.414062 92.289062 C 97.414062 92.40625 97.320312 92.5 97.207031 92.5 " fill-opacity="1" fill-rule="nonzero"/><path fill="#ffbf23" d="M 79.71875 90.242188 C 79.675781 90.574219 79.363281 90.84375 79.023438 90.84375 C 78.679688 90.84375 78.4375 90.574219 78.476562 90.242188 C 78.519531 89.910156 78.832031 89.640625 79.175781 89.640625 C 79.515625 89.640625 79.761719 89.910156 79.71875 90.242188 " fill-opacity="1" fill-rule="nonzero"/><path fill="#ffbf23" d="M 82.199219 90.242188 C 82.15625 90.574219 81.84375 90.84375 81.503906 90.84375 C 81.160156 90.84375 80.917969 90.574219 80.960938 90.242188 C 81 89.910156 81.3125 89.640625 81.65625 89.640625 C 82 89.640625 82.242188 89.910156 82.199219 90.242188 " fill-opacity="1" fill-rule="nonzero"/><path fill="#ffbf23" d="M 84.679688 90.242188 C 84.636719 90.574219 84.324219 90.84375 83.984375 90.84375 C 83.640625 90.84375 83.398438 90.574219 83.441406 90.242188 C 83.484375 89.910156 83.792969 89.640625 84.136719 89.640625 C 84.480469 89.640625 84.722656 89.910156 84.679688 90.242188 " fill-opacity="1" fill-rule="nonzero"/><path fill="#000000" d="M 113.738281 90.453125 L 108.875 90.453125 C 108.761719 90.453125 108.664062 90.359375 108.664062 90.242188 C 108.664062 90.125 108.761719 90.03125 108.875 90.03125 L 113.738281 90.03125 C 113.851562 90.03125 113.945312 90.125 113.945312 90.242188 C 113.945312 90.359375 113.851562 90.453125 113.738281 90.453125 " fill-opacity="1" fill-rule="nonzero"/><path fill="#000000" d="M 97.667969 90.453125 L 87.316406 90.453125 C 87.199219 90.453125 87.105469 90.359375 87.105469 90.242188 C 87.105469 90.125 87.199219 90.03125 87.316406 90.03125 L 97.667969 90.03125 C 97.78125 90.03125 97.875 90.125 97.875 90.242188 C 97.875 90.359375 97.78125 90.453125 97.667969 90.453125 " fill-opacity="1" fill-rule="nonzero"/><path fill="#ffbf23" d="M 87.867188 107.984375 C 89.234375 106.085938 91.5 104.742188 93.957031 104.5 L 95.347656 95.179688 C 88.351562 95.203125 81.695312 99.023438 78.175781 104.648438 L 87.867188 107.984375 " fill-opacity="1" fill-rule="nonzero"/><path fill="#000000" d="M 78.496094 104.539062 L 87.789062 107.734375 C 89.199219 105.855469 91.414062 104.589844 93.773438 104.308594 L 95.105469 95.394531 C 88.5 95.5 82.03125 99.0625 78.496094 104.539062 Z M 87.867188 108.195312 C 87.84375 108.195312 87.820312 108.191406 87.796875 108.183594 L 78.105469 104.847656 C 78.046875 104.828125 78 104.78125 77.976562 104.722656 C 77.957031 104.660156 77.960938 104.59375 77.996094 104.539062 C 81.617188 98.75 88.429688 94.992188 95.347656 94.972656 C 95.410156 94.972656 95.46875 95 95.507812 95.042969 C 95.546875 95.089844 95.566406 95.152344 95.554688 95.210938 L 94.164062 104.53125 C 94.152344 104.625 94.074219 104.699219 93.976562 104.707031 C 91.625 104.941406 89.402344 106.210938 88.035156 108.105469 C 87.996094 108.164062 87.933594 108.195312 87.867188 108.195312 " fill-opacity="1" fill-rule="nonzero"/><path fill="#000000" d="M 88.71875 97.929688 C 88.632812 97.929688 88.554688 97.875 88.519531 97.792969 C 88.480469 97.683594 88.535156 97.5625 88.644531 97.523438 C 90.304688 96.902344 92.019531 96.515625 93.742188 96.371094 C 93.855469 96.363281 93.957031 96.449219 93.96875 96.566406 C 93.976562 96.679688 93.890625 96.78125 93.777344 96.792969 C 92.09375 96.929688 90.414062 97.308594 88.792969 97.917969 C 88.765625 97.925781 88.742188 97.929688 88.71875 97.929688 " fill-opacity="1" fill-rule="nonzero"/><path fill="#000000" d="M 82.691406 101.523438 C 82.632812 101.523438 82.574219 101.5 82.535156 101.453125 C 82.457031 101.363281 82.464844 101.230469 82.554688 101.15625 C 83.894531 99.976562 85.402344 98.984375 87.039062 98.203125 C 87.144531 98.15625 87.269531 98.199219 87.320312 98.304688 C 87.367188 98.40625 87.324219 98.535156 87.21875 98.582031 C 85.621094 99.347656 84.144531 100.320312 82.832031 101.472656 C 82.789062 101.503906 82.742188 101.523438 82.691406 101.523438 " fill-opacity="1" fill-rule="nonzero"/><path fill="#ffbf23" d="M 100.761719 112.089844 C 99.785156 115.128906 96.605469 117.515625 93.082031 117.621094 C 92.03125 117.652344 91.054688 117.476562 90.191406 117.136719 L 83.660156 125.300781 C 86.054688 126.402344 88.855469 126.941406 91.878906 126.777344 C 100.671875 126.292969 108.390625 119.960938 110.195312 112.308594 L 100.761719 112.089844 " fill-opacity="1" fill-rule="nonzero"/><path fill="#000000" d="M 83.992188 125.21875 C 86.355469 126.253906 89.070312 126.722656 91.867188 126.566406 C 100.292969 126.105469 108.007812 120.082031 109.929688 112.511719 L 100.910156 112.304688 C 99.835938 115.414062 96.574219 117.726562 93.085938 117.832031 C 92.085938 117.863281 91.136719 117.710938 90.257812 117.386719 Z M 90.828125 127.015625 C 88.242188 127.015625 85.753906 126.496094 83.570312 125.488281 C 83.511719 125.460938 83.46875 125.410156 83.453125 125.347656 C 83.441406 125.285156 83.453125 125.21875 83.496094 125.167969 L 90.027344 117.003906 C 90.082031 116.933594 90.179688 116.90625 90.265625 116.941406 C 91.128906 117.28125 92.074219 117.441406 93.074219 117.410156 C 96.445312 117.308594 99.59375 115.046875 100.558594 112.027344 C 100.589844 111.9375 100.671875 111.878906 100.765625 111.878906 L 110.199219 112.097656 C 110.261719 112.101562 110.320312 112.132812 110.359375 112.179688 C 110.398438 112.230469 110.414062 112.296875 110.398438 112.359375 C 108.546875 120.21875 100.589844 126.507812 91.890625 126.984375 C 91.535156 127.003906 91.179688 127.015625 90.828125 127.015625 " fill-opacity="1" fill-rule="nonzero"/><path fill="#000000" d="M 90.984375 125.699219 C 89.136719 125.699219 87.367188 125.417969 85.730469 124.863281 C 85.621094 124.824219 85.5625 124.707031 85.597656 124.597656 C 85.636719 124.484375 85.753906 124.429688 85.867188 124.464844 C 87.746094 125.101562 89.8125 125.371094 91.960938 125.253906 C 92.074219 125.25 92.175781 125.335938 92.183594 125.449219 C 92.1875 125.566406 92.097656 125.664062 91.984375 125.671875 C 91.648438 125.691406 91.3125 125.699219 90.984375 125.699219 " fill-opacity="1" fill-rule="nonzero"/><path fill="#000000" d="M 95.496094 125.128906 C 95.402344 125.128906 95.316406 125.066406 95.292969 124.972656 C 95.265625 124.859375 95.332031 124.746094 95.445312 124.71875 C 101.378906 123.210938 106.398438 118.820312 108.234375 113.53125 C 108.269531 113.421875 108.390625 113.363281 108.5 113.402344 C 108.609375 113.441406 108.667969 113.558594 108.628906 113.667969 C 106.75 119.089844 101.613281 123.585938 95.546875 125.125 C 95.53125 125.128906 95.511719 125.128906 95.496094 125.128906 " fill-opacity="1" fill-rule="nonzero"/><path fill="#ffbf23" d="M 82.058594 124.441406 L 88.640625 116.25 C 87.140625 115.070312 86.3125 113.230469 86.585938 111.140625 C 86.648438 110.632812 86.777344 110.140625 86.957031 109.667969 L 77.222656 106.375 C 76.484375 107.921875 75.980469 109.566406 75.765625 111.265625 C 75.054688 116.890625 77.636719 121.714844 82.058594 124.441406 " fill-opacity="1" fill-rule="nonzero"/><path fill="#000000" d="M 77.707031 120.421875 C 77.636719 120.421875 77.570312 120.390625 77.53125 120.324219 C 75.824219 117.671875 75.140625 114.53125 75.558594 111.242188 C 75.769531 109.550781 76.269531 107.886719 77.035156 106.285156 C 77.082031 106.191406 77.191406 106.144531 77.292969 106.175781 L 87.023438 109.46875 C 87.078125 109.484375 87.121094 109.523438 87.144531 109.578125 C 87.167969 109.628906 87.171875 109.6875 87.152344 109.742188 C 86.976562 110.207031 86.855469 110.6875 86.792969 111.164062 C 86.542969 113.105469 87.261719 114.898438 88.769531 116.085938 C 88.816406 116.121094 88.84375 116.171875 88.847656 116.226562 C 88.855469 116.285156 88.839844 116.339844 88.804688 116.382812 L 87.824219 117.601562 C 87.75 117.695312 87.617188 117.707031 87.527344 117.636719 C 87.4375 117.5625 87.421875 117.429688 87.496094 117.339844 L 88.347656 116.28125 C 86.832031 115.003906 86.113281 113.132812 86.375 111.113281 C 86.433594 110.671875 86.535156 110.230469 86.6875 109.796875 L 77.335938 106.636719 C 76.632812 108.140625 76.175781 109.710938 75.976562 111.292969 C 75.570312 114.484375 76.230469 117.527344 77.882812 120.097656 C 77.945312 120.195312 77.917969 120.324219 77.820312 120.390625 C 77.785156 120.410156 77.746094 120.421875 77.707031 120.421875 " fill-opacity="1" fill-rule="nonzero"/><path fill="#ffbf23" d="M 97.152344 104.347656 C 100.199219 104.796875 102.277344 107.121094 102.175781 109.992188 L 117.109375 110.414062 C 117.109375 110.40625 117.109375 110.402344 117.109375 110.394531 C 118.578125 99.738281 111.03125 90.570312 99.398438 89.386719 L 97.152344 104.347656 " fill-opacity="1" fill-rule="nonzero"/><path fill="#000000" d="M 102.390625 109.789062 L 116.925781 110.199219 C 117.550781 105.347656 116.285156 100.628906 113.347656 96.898438 C 110.148438 92.824219 105.261719 90.242188 99.574219 89.617188 L 97.390625 104.175781 C 100.371094 104.699219 102.390625 106.96875 102.390625 109.789062 Z M 117.105469 110.625 C 117.105469 110.625 117.105469 110.625 117.101562 110.625 L 102.171875 110.203125 C 102.113281 110.203125 102.0625 110.179688 102.023438 110.136719 C 101.984375 110.097656 101.964844 110.042969 101.96875 109.984375 C 102.0625 107.222656 100.070312 104.988281 97.125 104.558594 C 97.070312 104.546875 97.019531 104.519531 96.984375 104.472656 C 96.953125 104.429688 96.9375 104.371094 96.945312 104.316406 L 99.191406 89.355469 C 99.207031 89.246094 99.308594 89.167969 99.417969 89.179688 C 105.304688 89.777344 110.367188 92.425781 113.679688 96.636719 C 116.71875 100.503906 118.011719 105.398438 117.320312 110.425781 C 117.304688 110.527344 117.210938 110.625 117.105469 110.625 " fill-opacity="1" fill-rule="nonzero"/><path fill="#ffffff" d="M 152.722656 107.164062 L 152.492188 107.164062 C 150.632812 107.164062 149.109375 108.671875 149.109375 110.71875 L 149.109375 125.910156 L 147.710938 125.910156 L 147.710938 106.578125 C 147.710938 104.53125 146.230469 102.964844 144.371094 102.964844 L 144.140625 102.964844 C 142.285156 102.964844 140.714844 104.53125 140.714844 106.578125 L 140.714844 125.910156 L 139.316406 125.910156 L 139.316406 103.664062 C 139.316406 101.617188 137.878906 100.027344 136.023438 100.027344 L 135.789062 100.027344 C 133.933594 100.027344 132.457031 101.617188 132.457031 103.664062 L 132.457031 125.910156 L 131.058594 125.910156 L 131.058594 107.804688 C 131.058594 105.757812 129.535156 104.097656 127.679688 104.097656 C 125.691406 104.097656 124.0625 105.871094 124.0625 108.058594 L 124.0625 134.761719 L 118.203125 129.347656 C 117.167969 128.394531 115.691406 128.359375 114.621094 129.265625 L 114.429688 129.433594 C 113.316406 130.375 113.035156 132.09375 113.773438 133.40625 L 126.152344 155.441406 L 126.148438 155.410156 C 128.140625 158.535156 131.429688 160.609375 135.167969 160.609375 L 145.507812 160.609375 C 151.351562 160.609375 156.105469 155.324219 156.105469 148.886719 L 156.105469 110.71875 C 156.105469 108.671875 154.582031 107.164062 152.722656 107.164062 " fill-opacity="1" fill-rule="nonzero"/><path fill="#000000" d="M 126.285156 155.253906 C 126.300781 155.265625 126.3125 155.28125 126.324219 155.296875 C 128.363281 158.492188 131.667969 160.402344 135.167969 160.402344 L 145.507812 160.402344 C 151.234375 160.402344 155.894531 155.234375 155.894531 148.886719 L 155.894531 110.71875 C 155.894531 108.84375 154.503906 107.371094 152.722656 107.371094 L 152.492188 107.371094 C 150.710938 107.371094 149.320312 108.84375 149.320312 110.71875 L 149.320312 125.910156 C 149.320312 126.027344 149.226562 126.121094 149.109375 126.121094 L 147.710938 126.121094 C 147.59375 126.121094 147.5 126.027344 147.5 125.910156 L 147.5 106.578125 C 147.5 104.667969 146.125 103.175781 144.371094 103.175781 L 144.140625 103.175781 C 142.367188 103.175781 140.921875 104.703125 140.921875 106.578125 L 140.921875 125.910156 C 140.921875 126.027344 140.828125 126.121094 140.714844 126.121094 L 139.316406 126.121094 C 139.199219 126.121094 139.105469 126.027344 139.105469 125.910156 L 139.105469 103.664062 C 139.105469 101.742188 137.75 100.238281 136.023438 100.238281 L 135.789062 100.238281 C 134.039062 100.238281 132.667969 101.742188 132.667969 103.664062 L 132.667969 125.910156 C 132.667969 126.027344 132.574219 126.121094 132.457031 126.121094 L 131.058594 126.121094 C 130.941406 126.121094 130.847656 126.027344 130.847656 125.910156 L 130.847656 107.804688 C 130.847656 105.875 129.425781 104.308594 127.675781 104.308594 C 125.800781 104.308594 124.273438 105.992188 124.273438 108.058594 L 124.273438 134.761719 C 124.273438 134.84375 124.222656 134.921875 124.148438 134.953125 C 124.070312 134.988281 123.980469 134.972656 123.921875 134.917969 L 118.0625 129.5 C 117.105469 128.621094 115.746094 128.589844 114.757812 129.425781 L 114.570312 129.59375 C 113.523438 130.476562 113.261719 132.070312 113.957031 133.304688 Z M 145.507812 160.820312 L 135.167969 160.820312 C 131.554688 160.820312 128.148438 158.875 126.027344 155.613281 C 126.003906 155.59375 125.984375 155.574219 125.96875 155.546875 L 113.589844 133.511719 C 112.800781 132.101562 113.101562 130.28125 114.292969 129.273438 L 114.480469 129.109375 C 115.640625 128.128906 117.226562 128.164062 118.347656 129.191406 L 123.855469 134.28125 L 123.855469 108.058594 C 123.855469 105.757812 125.570312 103.886719 127.675781 103.886719 C 129.65625 103.886719 131.269531 105.644531 131.269531 107.804688 L 131.269531 125.703125 L 132.246094 125.703125 L 132.246094 103.664062 C 132.246094 101.507812 133.804688 99.816406 135.789062 99.816406 L 136.023438 99.816406 C 137.984375 99.816406 139.523438 101.507812 139.523438 103.664062 L 139.523438 125.703125 L 140.503906 125.703125 L 140.503906 106.578125 C 140.503906 104.46875 142.136719 102.753906 144.140625 102.753906 L 144.371094 102.753906 C 146.363281 102.753906 147.917969 104.433594 147.917969 106.578125 L 147.917969 125.703125 L 148.898438 125.703125 L 148.898438 110.71875 C 148.898438 108.605469 150.476562 106.953125 152.492188 106.953125 L 152.722656 106.953125 C 154.738281 106.953125 156.316406 108.605469 156.316406 110.71875 L 156.316406 148.886719 C 156.316406 155.46875 151.46875 160.820312 145.507812 160.820312 " fill-opacity="1" fill-rule="nonzero"/><path fill="#a6201e" d="M 129.03125 108.027344 C 129.03125 108.773438 128.425781 109.378906 127.679688 109.378906 C 126.929688 109.378906 126.324219 108.773438 126.324219 108.027344 C 126.324219 107.277344 126.929688 106.671875 127.679688 106.671875 C 128.425781 106.671875 129.03125 107.277344 129.03125 108.027344 " fill-opacity="1" fill-rule="nonzero"/><path fill="#a6201e" d="M 129.03125 128.734375 C 129.03125 129.480469 128.425781 130.085938 127.679688 130.085938 C 126.929688 130.085938 126.324219 129.480469 126.324219 128.734375 C 126.324219 127.984375 126.929688 127.378906 127.679688 127.378906 C 128.425781 127.378906 129.03125 127.984375 129.03125 128.734375 " fill-opacity="1" fill-rule="nonzero"/><path fill="#a6201e" d="M 127.699219 129.128906 C 127.585938 129.128906 127.492188 129.035156 127.492188 128.917969 L 127.492188 108.070312 C 127.492188 107.957031 127.585938 107.863281 127.699219 107.863281 C 127.816406 107.863281 127.910156 107.957031 127.910156 108.070312 L 127.910156 128.917969 C 127.910156 129.035156 127.816406 129.128906 127.699219 129.128906 " fill-opacity="1" fill-rule="nonzero"/><path fill="#a6201e" d="M 137.144531 103.40625 C 137.144531 104.15625 136.539062 104.761719 135.792969 104.761719 C 135.046875 104.761719 134.441406 104.15625 134.441406 103.40625 C 134.441406 102.660156 135.046875 102.054688 135.792969 102.054688 C 136.539062 102.054688 137.144531 102.660156 137.144531 103.40625 " fill-opacity="1" fill-rule="nonzero"/><path fill="#a6201e" d="M 137.144531 128.875 C 137.144531 129.621094 136.539062 130.226562 135.792969 130.226562 C 135.046875 130.226562 134.441406 129.621094 134.441406 128.875 C 134.441406 128.125 135.046875 127.519531 135.792969 127.519531 C 136.539062 127.519531 137.144531 128.125 137.144531 128.875 " fill-opacity="1" fill-rule="nonzero"/><path fill="#a6201e" d="M 135.816406 129.269531 C 135.699219 129.269531 135.605469 129.175781 135.605469 129.058594 L 135.605469 103.453125 C 135.605469 103.339844 135.699219 103.246094 135.816406 103.246094 C 135.933594 103.246094 136.027344 103.339844 136.027344 103.453125 L 136.027344 129.058594 C 136.027344 129.175781 135.933594 129.269531 135.816406 129.269531 " fill-opacity="1" fill-rule="nonzero"/><path fill="#a6201e" d="M 145.402344 106.625 C 145.402344 107.371094 144.796875 107.980469 144.046875 107.980469 C 143.300781 107.980469 142.695312 107.371094 142.695312 106.625 C 142.695312 105.878906 143.300781 105.273438 144.046875 105.273438 C 144.796875 105.273438 145.402344 105.878906 145.402344 106.625 " fill-opacity="1" fill-rule="nonzero"/><path fill="#a6201e" d="M 145.402344 128.59375 C 145.402344 129.339844 144.796875 129.945312 144.046875 129.945312 C 143.300781 129.945312 142.695312 129.339844 142.695312 128.59375 C 142.695312 127.847656 143.300781 127.242188 144.046875 127.242188 C 144.796875 127.242188 145.402344 127.847656 145.402344 128.59375 " fill-opacity="1" fill-rule="nonzero"/><path fill="#a6201e" d="M 144.070312 128.988281 C 143.957031 128.988281 143.863281 128.894531 143.863281 128.78125 L 143.863281 106.953125 C 143.863281 106.835938 143.957031 106.742188 144.070312 106.742188 C 144.1875 106.742188 144.28125 106.835938 144.28125 106.953125 L 144.28125 128.78125 C 144.28125 128.894531 144.1875 128.988281 144.070312 128.988281 " fill-opacity="1" fill-rule="nonzero"/><path fill="#a6201e" d="M 154.074219 111.941406 C 154.074219 112.691406 153.46875 113.296875 152.722656 113.296875 C 151.976562 113.296875 151.371094 112.691406 151.371094 111.941406 C 151.371094 111.195312 151.976562 110.589844 152.722656 110.589844 C 153.46875 110.589844 154.074219 111.195312 154.074219 111.941406 " fill-opacity="1" fill-rule="nonzero"/><path fill="#a6201e" d="M 154.074219 128.59375 C 154.074219 129.339844 153.46875 129.945312 152.722656 129.945312 C 151.976562 129.945312 151.371094 129.339844 151.371094 128.59375 C 151.371094 127.847656 151.976562 127.242188 152.722656 127.242188 C 153.46875 127.242188 154.074219 127.847656 154.074219 128.59375 " fill-opacity="1" fill-rule="nonzero"/><path fill="#a6201e" d="M 152.746094 128.988281 C 152.632812 128.988281 152.539062 128.894531 152.539062 128.78125 L 152.539062 111.988281 C 152.539062 111.875 152.632812 111.78125 152.746094 111.78125 C 152.863281 111.78125 152.957031 111.875 152.957031 111.988281 L 152.957031 128.78125 C 152.957031 128.894531 152.863281 128.988281 152.746094 128.988281 " fill-opacity="1" fill-rule="nonzero"/><path fill="#a6201e" d="M 117.984375 131.847656 C 118.414062 132.457031 118.265625 133.300781 117.65625 133.730469 C 117.042969 134.160156 116.199219 134.011719 115.769531 133.402344 C 115.339844 132.789062 115.488281 131.945312 116.101562 131.515625 C 116.710938 131.089844 117.554688 131.234375 117.984375 131.847656 " fill-opacity="1" fill-rule="nonzero"/><path fill="#a6201e" d="M 127.554688 145.472656 C 127.980469 146.085938 127.835938 146.925781 127.222656 147.355469 C 126.613281 147.785156 125.769531 147.640625 125.339844 147.027344 C 124.910156 146.414062 125.058594 145.574219 125.667969 145.144531 C 126.28125 144.714844 127.125 144.863281 127.554688 145.472656 " fill-opacity="1" fill-rule="nonzero"/><path fill="#a6201e" d="M 126.574219 146.597656 C 126.507812 146.597656 126.441406 146.566406 126.402344 146.511719 L 116.75 132.769531 C 116.683594 132.675781 116.707031 132.542969 116.800781 132.476562 C 116.898438 132.410156 117.027344 132.433594 117.09375 132.527344 L 126.742188 146.269531 C 126.808594 146.363281 126.789062 146.496094 126.691406 146.5625 C 126.65625 146.585938 126.613281 146.597656 126.574219 146.597656 " fill-opacity="1" fill-rule="nonzero"/><path fill="#a6201e" d="M 155.085938 104.082031 C 154.414062 103.980469 153.738281 103.902344 153.066406 103.816406 C 152.710938 103.769531 152.4375 103.484375 152.398438 103.128906 C 151.753906 97.460938 147.695312 92.5 141.851562 90.996094 C 136.65625 89.660156 131.382812 91.398438 127.957031 95.066406 L 128.792969 96 L 123.414062 96.8125 L 124.691406 91.421875 L 125.816406 92.679688 C 130.019531 88.328125 136.378906 86.289062 142.644531 87.902344 C 150.082031 89.8125 155.160156 96.292969 155.644531 103.566406 C 155.667969 103.878906 155.394531 104.125 155.085938 104.082031 " fill-opacity="1" fill-rule="nonzero"/><path fill="#ffffff" d="M 72.285156 165.777344 L 72.269531 169.191406 L 69.875 169.035156 L 70.121094 165.765625 L 72.285156 165.777344 " fill-opacity="1" fill-rule="nonzero"/><path fill="#000000" d="M 70.097656 168.839844 L 72.058594 168.96875 L 72.074219 165.984375 L 70.3125 165.976562 Z M 72.476562 169.414062 L 69.648438 169.230469 L 69.925781 165.554688 L 72.496094 165.570312 L 72.476562 169.414062 " fill-opacity="1" fill-rule="nonzero"/><path fill="#ffffff" d="M 72.207031 168.289062 L 72.0625 168.429688 C 71.785156 168.695312 71.378906 168.769531 71.027344 168.617188 L 70.132812 168.222656 C 69.984375 168.21875 69.851562 168.304688 69.789062 168.441406 C 69.589844 168.882812 69.179688 169.925781 69.199219 170.929688 C 69.203125 171.203125 69.421875 171.421875 69.691406 171.433594 L 73.699219 171.558594 L 73.707031 171.558594 C 74.105469 171.570312 74.480469 171.535156 74.90625 171.492188 L 75.636719 171.390625 C 75.796875 171.367188 75.953125 171.320312 76.09375 171.242188 C 76.304688 171.128906 76.390625 170.902344 76.355469 170.691406 C 76.296875 170.359375 76.0625 170.222656 75.308594 169.914062 C 74.148438 169.441406 72.910156 168.570312 72.488281 168.359375 C 72.398438 168.316406 72.304688 168.292969 72.207031 168.289062 " fill-opacity="1" fill-rule="nonzero"/><path fill="#000000" d="M 70.09375 168.4375 C 70.042969 168.445312 70.003906 168.476562 69.980469 168.527344 C 69.804688 168.921875 69.390625 169.953125 69.410156 170.925781 C 69.410156 171.085938 69.539062 171.214844 69.699219 171.222656 L 73.703125 171.347656 C 74.109375 171.359375 74.484375 171.324219 74.886719 171.285156 L 75.605469 171.183594 C 75.753906 171.160156 75.882812 171.121094 75.992188 171.058594 C 76.136719 170.980469 76.164062 170.835938 76.148438 170.730469 C 76.113281 170.523438 75.996094 170.421875 75.226562 170.109375 C 74.414062 169.777344 73.554688 169.25 72.984375 168.898438 C 72.734375 168.742188 72.519531 168.609375 72.394531 168.550781 C 72.359375 168.53125 72.320312 168.519531 72.28125 168.507812 L 72.207031 168.582031 C 71.871094 168.90625 71.375 168.996094 70.941406 168.808594 Z M 73.871094 171.769531 C 73.8125 171.769531 73.757812 171.769531 73.699219 171.769531 L 69.6875 171.640625 C 69.300781 171.628906 68.996094 171.316406 68.988281 170.933594 C 68.972656 169.914062 69.363281 168.878906 69.597656 168.355469 C 69.691406 168.140625 69.902344 168 70.140625 168.015625 L 70.179688 168.015625 L 71.109375 168.421875 C 71.386719 168.542969 71.703125 168.484375 71.917969 168.277344 L 72.125 168.078125 L 72.214844 168.082031 C 72.34375 168.085938 72.464844 168.117188 72.582031 168.171875 C 72.722656 168.242188 72.933594 168.375 73.207031 168.539062 C 73.796875 168.902344 74.605469 169.402344 75.386719 169.722656 C 76.105469 170.011719 76.480469 170.1875 76.5625 170.660156 C 76.613281 170.972656 76.472656 171.277344 76.195312 171.425781 C 76.039062 171.511719 75.859375 171.570312 75.664062 171.597656 L 74.9375 171.703125 C 74.570312 171.738281 74.230469 171.769531 73.871094 171.769531 " fill-opacity="1" fill-rule="nonzero"/><path fill="#000000" d="M 72.929688 169.890625 C 72.886719 169.890625 72.839844 169.878906 72.804688 169.847656 C 72.710938 169.777344 72.691406 169.648438 72.761719 169.554688 L 73.238281 168.925781 C 73.308594 168.832031 73.441406 168.816406 73.53125 168.882812 C 73.625 168.953125 73.644531 169.085938 73.574219 169.179688 L 73.097656 169.808594 C 73.054688 169.863281 72.992188 169.890625 72.929688 169.890625 " fill-opacity="1" fill-rule="nonzero"/><path fill="#000000" d="M 73.714844 170.394531 C 73.675781 170.394531 73.632812 170.378906 73.597656 170.355469 C 73.5 170.292969 73.476562 170.160156 73.542969 170.066406 L 74.027344 169.347656 C 74.09375 169.253906 74.226562 169.226562 74.320312 169.292969 C 74.417969 169.359375 74.441406 169.488281 74.375 169.585938 L 73.890625 170.300781 C 73.847656 170.359375 73.78125 170.394531 73.714844 170.394531 " fill-opacity="1" fill-rule="nonzero"/><path fill="#000000" d="M 73.476562 171.046875 C 72.640625 171.046875 69.9375 170.898438 69.8125 170.890625 C 69.699219 170.886719 69.609375 170.785156 69.617188 170.671875 C 69.621094 170.554688 69.722656 170.46875 69.835938 170.472656 C 69.867188 170.472656 73.007812 170.644531 73.597656 170.625 C 74.191406 170.601562 75.292969 170.464844 75.300781 170.464844 C 75.417969 170.449219 75.523438 170.53125 75.535156 170.648438 C 75.550781 170.761719 75.46875 170.867188 75.355469 170.882812 C 75.308594 170.886719 74.222656 171.023438 73.613281 171.042969 C 73.578125 171.042969 73.53125 171.046875 73.476562 171.046875 " fill-opacity="1" fill-rule="nonzero"/><path fill="#ffffff" d="M 60.578125 165.792969 L 59.539062 168.402344 L 57.667969 167.863281 L 58.785156 165.039062 L 60.578125 165.792969 " fill-opacity="1" fill-rule="nonzero"/><path fill="#000000" d="M 57.945312 167.726562 L 59.414062 168.148438 L 60.304688 165.90625 L 58.902344 165.316406 Z M 59.664062 168.65625 L 57.386719 168.003906 L 58.671875 164.765625 L 60.847656 165.679688 L 59.664062 168.65625 " fill-opacity="1" fill-rule="nonzero"/><path fill="#ffffff" d="M 59.710938 167.769531 L 57.84375 167.175781 C 57.710938 167.136719 57.566406 167.175781 57.480469 167.285156 C 57.1875 167.632812 56.550781 168.46875 56.3125 169.375 C 56.25 169.621094 56.390625 169.878906 56.636719 169.953125 L 59.289062 170.792969 C 59.871094 170.980469 60.472656 171.097656 61.078125 171.152344 C 61.078125 171.152344 63.015625 171.359375 63.0625 170.734375 C 63.140625 169.691406 61.773438 169.660156 61.597656 169.480469 C 60.917969 168.785156 60.207031 168.136719 59.949219 167.902344 C 59.878906 167.839844 59.800781 167.796875 59.710938 167.769531 " fill-opacity="1" fill-rule="nonzero"/><path fill="#000000" d="M 57.742188 167.371094 C 57.703125 167.371094 57.664062 167.386719 57.640625 167.417969 C 57.378906 167.730469 56.746094 168.550781 56.515625 169.425781 C 56.480469 169.566406 56.558594 169.710938 56.699219 169.753906 L 59.351562 170.59375 C 59.917969 170.773438 60.503906 170.890625 61.097656 170.945312 C 61.625 171 62.550781 171.007812 62.808594 170.789062 C 62.851562 170.753906 62.851562 170.730469 62.851562 170.71875 C 62.894531 170.160156 62.433594 169.976562 61.867188 169.8125 C 61.664062 169.75 61.53125 169.714844 61.445312 169.628906 C 60.777344 168.941406 60.078125 168.300781 59.808594 168.058594 C 59.761719 168.015625 59.707031 167.988281 59.648438 167.96875 L 57.78125 167.375 C 57.769531 167.371094 57.753906 167.371094 57.742188 167.371094 Z M 61.757812 171.398438 C 61.4375 171.398438 61.160156 171.375 61.058594 171.363281 C 60.4375 171.308594 59.820312 171.183594 59.222656 170.996094 L 56.570312 170.152344 C 56.21875 170.042969 56.015625 169.675781 56.109375 169.320312 C 56.351562 168.398438 56.96875 167.5625 57.316406 167.148438 C 57.460938 166.976562 57.695312 166.910156 57.90625 166.976562 L 59.773438 167.566406 C 59.890625 167.605469 59.996094 167.664062 60.085938 167.746094 C 60.359375 167.992188 61.070312 168.640625 61.746094 169.332031 C 61.769531 169.34375 61.894531 169.382812 61.984375 169.410156 C 62.460938 169.546875 63.34375 169.808594 63.273438 170.75 C 63.261719 170.890625 63.195312 171.015625 63.078125 171.109375 C 62.800781 171.34375 62.226562 171.398438 61.757812 171.398438 " fill-opacity="1" fill-rule="nonzero"/><path fill="#000000" d="M 59.933594 169.480469 C 59.871094 169.480469 59.8125 169.453125 59.769531 169.402344 C 59.695312 169.3125 59.710938 169.179688 59.804688 169.105469 L 60.597656 168.476562 C 60.6875 168.402344 60.820312 168.417969 60.890625 168.507812 C 60.964844 168.601562 60.949219 168.730469 60.859375 168.804688 L 60.0625 169.433594 C 60.027344 169.464844 59.980469 169.480469 59.933594 169.480469 " fill-opacity="1" fill-rule="nonzero"/><path fill="#000000" d="M 60.664062 170.011719 C 60.601562 170.011719 60.542969 169.984375 60.5 169.929688 C 60.429688 169.839844 60.445312 169.707031 60.535156 169.636719 L 61.183594 169.128906 C 61.277344 169.058594 61.40625 169.074219 61.480469 169.164062 C 61.550781 169.253906 61.535156 169.386719 61.441406 169.457031 L 60.792969 169.964844 C 60.753906 169.996094 60.710938 170.011719 60.664062 170.011719 " fill-opacity="1" fill-rule="nonzero"/><path fill="#000000" d="M 62.121094 170.761719 C 61.660156 170.761719 60.816406 170.695312 60.429688 170.625 C 59.984375 170.546875 57.1875 169.492188 56.867188 169.375 C 56.757812 169.332031 56.703125 169.210938 56.746094 169.105469 C 56.785156 168.996094 56.90625 168.941406 57.015625 168.980469 C 57.871094 169.300781 60.160156 170.152344 60.507812 170.214844 C 60.941406 170.292969 61.980469 170.355469 62.28125 170.335938 C 62.394531 170.324219 62.496094 170.414062 62.503906 170.53125 C 62.511719 170.648438 62.425781 170.746094 62.308594 170.753906 C 62.257812 170.757812 62.195312 170.761719 62.121094 170.761719 " fill-opacity="1" fill-rule="nonzero"/><path fill="#a6201e" d="M 64.863281 137.492188 C 64.863281 137.492188 63.558594 140.105469 63.117188 142.859375 C 62.699219 145.492188 58.949219 162.0625 58.269531 165.011719 C 58.222656 165.207031 58.316406 165.40625 58.492188 165.5 C 58.9375 165.734375 59.808594 166.144531 60.566406 166.210938 C 60.765625 166.230469 60.960938 166.132812 61.066406 165.957031 C 62.054688 164.28125 67.566406 154.703125 69.179688 146.394531 C 70.957031 137.253906 70.601562 137.96875 70.601562 137.96875 L 64.863281 137.492188 " fill-opacity="1" fill-rule="nonzero"/><path fill="#a6201e" d="M 66.6875 138.6875 C 66.6875 138.6875 65.925781 143.65625 67.367188 147.332031 C 68.75 150.867188 70.058594 162.234375 69.539062 166.238281 C 69.507812 166.492188 69.683594 166.722656 69.933594 166.757812 C 70.566406 166.84375 71.703125 166.964844 72.480469 166.820312 C 72.621094 166.792969 72.738281 166.6875 72.773438 166.546875 C 73.285156 164.515625 77.121094 148.644531 74.121094 139.234375 L 66.6875 138.6875 " fill-opacity="1" fill-rule="nonzero"/><path fill="#14697d" d="M 68.296875 151.941406 C 68.191406 151.941406 68.101562 151.863281 68.089844 151.757812 C 68.085938 151.738281 67.824219 149.738281 66.988281 147.789062 C 66.175781 145.882812 66.320312 143.507812 66.324219 143.40625 C 66.332031 143.289062 66.433594 143.203125 66.550781 143.210938 C 66.664062 143.21875 66.753906 143.316406 66.746094 143.433594 C 66.742188 143.457031 66.601562 145.8125 67.375 147.621094 C 68.234375 149.628906 68.496094 151.621094 68.503906 151.703125 C 68.519531 151.820312 68.4375 151.925781 68.324219 151.9375 C 68.316406 151.941406 68.304688 151.941406 68.296875 151.941406 " fill-opacity="1" fill-rule="nonzero"/><path fill="#ffffff" d="M 78.988281 122.859375 C 78.988281 122.859375 82.59375 122.765625 83.097656 122.367188 C 83.601562 121.964844 86.371094 116.925781 86.371094 116.925781 C 86.371094 116.925781 85.460938 115.882812 85.714844 115.101562 C 85.96875 114.324219 86.039062 115 86.1875 115.269531 C 86.335938 115.539062 86.617188 115.253906 87 114.203125 C 87.386719 113.152344 88 112.324219 88.402344 112.789062 C 88.800781 113.257812 88.664062 115.5625 88.296875 116.117188 C 87.929688 116.667969 86.667969 123.292969 85.035156 124.46875 C 83.398438 125.640625 78.449219 127.582031 78.449219 127.582031 L 78.988281 122.859375 " fill-opacity="1" fill-rule="nonzero"/><path fill="#000000" d="M 79.175781 123.066406 L 78.695312 127.257812 C 79.824219 126.804688 83.558594 125.269531 84.910156 124.296875 C 86.015625 123.503906 86.984375 119.921875 87.5625 117.785156 C 87.855469 116.707031 88 116.179688 88.121094 116 C 88.46875 115.476562 88.554688 113.292969 88.242188 112.929688 C 88.183594 112.859375 88.144531 112.867188 88.121094 112.867188 C 87.910156 112.90625 87.515625 113.414062 87.199219 114.273438 C 86.789062 115.390625 86.542969 115.558594 86.335938 115.574219 C 86.273438 115.582031 86.113281 115.570312 86.003906 115.371094 C 85.96875 115.308594 85.941406 115.238281 85.917969 115.164062 C 85.914062 115.167969 85.914062 115.167969 85.914062 115.167969 C 85.738281 115.714844 86.300781 116.523438 86.53125 116.789062 C 86.589844 116.855469 86.597656 116.949219 86.554688 117.027344 C 86.269531 117.546875 83.753906 122.113281 83.226562 122.53125 C 82.734375 122.921875 80.066406 123.039062 79.175781 123.066406 Z M 78.449219 127.792969 C 78.402344 127.792969 78.359375 127.777344 78.320312 127.75 C 78.261719 127.703125 78.230469 127.632812 78.242188 127.558594 L 78.78125 122.835938 C 78.792969 122.730469 78.878906 122.652344 78.984375 122.652344 C 80.449219 122.613281 82.65625 122.449219 82.96875 122.199219 C 83.304688 121.933594 85.050781 118.890625 86.121094 116.949219 C 85.878906 116.636719 85.28125 115.765625 85.515625 115.039062 C 85.597656 114.78125 85.699219 114.53125 85.917969 114.53125 C 85.921875 114.53125 85.921875 114.53125 85.921875 114.53125 C 86.136719 114.53125 86.214844 114.75 86.289062 114.960938 C 86.304688 115.007812 86.324219 115.058594 86.339844 115.101562 C 86.421875 115.003906 86.574219 114.753906 86.804688 114.128906 C 86.9375 113.765625 87.421875 112.570312 88.046875 112.457031 C 88.238281 112.421875 88.421875 112.492188 88.558594 112.652344 C 89.058594 113.234375 88.859375 115.644531 88.46875 116.234375 C 88.382812 116.363281 88.183594 117.105469 87.96875 117.894531 C 87.335938 120.230469 86.378906 123.757812 85.15625 124.636719 C 83.519531 125.8125 78.726562 127.699219 78.527344 127.777344 C 78.5 127.789062 78.472656 127.792969 78.449219 127.792969 " fill-opacity="1" fill-rule="nonzero"/><path fill="#ffffff" d="M 62.378906 125.167969 C 61.601562 125.992188 57.863281 129.859375 58.214844 137.921875 C 58.21875 138.023438 58.21875 138.121094 58.171875 138.210938 C 57.945312 138.664062 57.257812 140.148438 57.609375 141.003906 C 58.015625 141.992188 59.285156 144.109375 59.277344 140.921875 C 59.277344 140.847656 59.378906 140.820312 59.417969 140.882812 C 59.570312 141.132812 59.808594 141.476562 59.941406 141.414062 C 60.246094 141.265625 59.660156 139.625 59.785156 138.640625 C 60.804688 130.535156 64.441406 128.855469 65.445312 128.089844 C 65.445312 128.089844 62.460938 125.078125 62.378906 125.167969 " fill-opacity="1" fill-rule="nonzero"/><path fill="#000000" d="M 62.53125 125.3125 Z M 62.414062 125.4375 C 58.839844 129.308594 58.269531 134.351562 58.421875 137.914062 C 58.429688 138.03125 58.425781 138.171875 58.359375 138.308594 C 57.925781 139.167969 57.550781 140.308594 57.804688 140.925781 C 58.167969 141.8125 58.675781 142.433594 58.824219 142.402344 C 58.828125 142.402344 59.070312 142.292969 59.066406 140.921875 C 59.066406 140.792969 59.152344 140.683594 59.273438 140.648438 C 59.398438 140.613281 59.527344 140.664062 59.59375 140.773438 C 59.6875 140.921875 59.761719 141.027344 59.820312 141.097656 C 59.8125 140.898438 59.757812 140.574219 59.714844 140.320312 C 59.621094 139.757812 59.515625 139.121094 59.578125 138.617188 C 60.507812 131.199219 63.632812 129.074219 64.96875 128.167969 C 65.023438 128.128906 65.074219 128.09375 65.125 128.0625 C 64.007812 126.9375 62.800781 125.761719 62.414062 125.4375 Z M 58.824219 142.824219 C 58.152344 142.824219 57.492188 141.269531 57.414062 141.085938 C 57.039062 140.171875 57.6875 138.707031 57.984375 138.117188 C 58.003906 138.078125 58.007812 138.015625 58.003906 137.929688 C 57.84375 134.261719 58.441406 129.046875 62.191406 125.058594 L 62.285156 124.960938 L 62.378906 124.957031 C 62.492188 124.957031 62.632812 124.953125 65.59375 127.941406 L 65.761719 128.109375 L 65.574219 128.253906 C 65.472656 128.332031 65.347656 128.417969 65.203125 128.515625 C 63.917969 129.390625 60.902344 131.441406 59.992188 138.667969 C 59.9375 139.113281 60.039062 139.714844 60.128906 140.25 C 60.253906 141.003906 60.328125 141.457031 60.03125 141.601562 C 59.839844 141.695312 59.65625 141.566406 59.480469 141.347656 C 59.441406 142.289062 59.261719 142.742188 58.90625 142.816406 C 58.878906 142.820312 58.851562 142.824219 58.824219 142.824219 " fill-opacity="1" fill-rule="nonzero"/><path fill="#000000" d="M 64.011719 130.070312 C 64.117188 129.964844 64.214844 129.878906 64.300781 129.8125 C 64.429688 129.710938 64.621094 129.789062 64.648438 129.953125 C 64.820312 131.023438 65.234375 133.972656 63.878906 139.171875 C 63.335938 141.25 74.066406 142.152344 74.53125 139.722656 C 74.78125 138.410156 74.324219 138.878906 74.457031 135.972656 C 74.542969 134.0625 74.898438 132.539062 76 130.335938 C 76.003906 130.328125 76.003906 130.320312 76.007812 130.316406 C 76.054688 130.191406 76.648438 128.75 78.660156 128.003906 C 78.703125 127.984375 78.742188 127.953125 78.769531 127.914062 C 79.007812 127.527344 80.21875 125.425781 80.265625 122.671875 C 80.265625 122.574219 80.203125 122.488281 80.113281 122.460938 C 79.507812 122.269531 77.273438 121.597656 75.710938 121.601562 C 73.894531 121.609375 74.660156 121.902344 73.324219 121.667969 C 73.136719 121.632812 72.550781 121.308594 72.414062 121.238281 C 71.589844 120.804688 70.0625 121.863281 68.402344 121.472656 C 68.207031 121.425781 68.003906 121.449219 67.824219 121.535156 C 67.378906 121.742188 66.484375 122.109375 65.570312 122.210938 C 64.34375 122.351562 61.777344 123.546875 60.40625 126.40625 C 60.351562 126.519531 63.011719 129.328125 63.695312 130.066406 C 63.78125 130.15625 63.921875 130.15625 64.011719 130.070312 " fill-opacity="1" fill-rule="nonzero"/><path fill="#ffffff" d="M 71.609375 121.3125 L 71.328125 119.230469 C 71.3125 119.089844 71.386719 118.953125 71.515625 118.894531 L 72.253906 118.546875 C 72.410156 118.472656 72.5 118.300781 72.472656 118.128906 L 72.273438 116.980469 C 72.273438 116.980469 72.277344 116.980469 72.277344 116.976562 L 72.574219 116.65625 C 72.632812 116.59375 72.632812 116.492188 72.570312 116.433594 L 71.929688 115.8125 C 71.804688 115.691406 71.425781 114.902344 71.261719 114.964844 C 71.261719 114.964844 68.175781 114.941406 67.75 116.363281 C 67.636719 116.738281 67.75 117.148438 68.011719 117.441406 L 68.34375 117.8125 C 68.691406 118.199219 68.90625 118.695312 68.917969 119.214844 C 68.921875 119.402344 68.902344 119.589844 68.859375 119.773438 L 68.371094 121.742188 C 69.253906 121.863281 70.152344 121.785156 71 121.511719 L 71.609375 121.3125 " fill-opacity="1" fill-rule="nonzero"/><path fill="#000000" d="M 68.632812 121.558594 C 69.40625 121.632812 70.195312 121.550781 70.933594 121.308594 L 71.378906 121.167969 L 71.121094 119.257812 C 71.09375 119.023438 71.214844 118.804688 71.425781 118.703125 L 72.164062 118.355469 C 72.238281 118.320312 72.277344 118.242188 72.265625 118.164062 L 72.070312 117.015625 C 72.058594 116.953125 72.078125 116.882812 72.121094 116.835938 L 72.386719 116.550781 L 71.785156 115.964844 C 71.726562 115.90625 71.664062 115.808594 71.558594 115.632812 C 71.480469 115.507812 71.328125 115.253906 71.246094 115.175781 C 71.238281 115.175781 71.234375 115.175781 71.230469 115.175781 C 70.390625 115.175781 68.257812 115.398438 67.949219 116.421875 C 67.863281 116.71875 67.945312 117.050781 68.167969 117.300781 L 68.5 117.671875 C 68.894531 118.113281 69.117188 118.660156 69.128906 119.210938 C 69.132812 119.417969 69.113281 119.621094 69.066406 119.820312 Z M 69.175781 122.003906 C 68.898438 122.003906 68.617188 121.988281 68.339844 121.949219 C 68.28125 121.941406 68.230469 121.90625 68.195312 121.859375 C 68.164062 121.808594 68.152344 121.746094 68.167969 121.691406 L 68.65625 119.722656 C 68.695312 119.558594 68.710938 119.390625 68.710938 119.222656 C 68.699219 118.769531 68.511719 118.316406 68.1875 117.953125 L 67.855469 117.578125 C 67.535156 117.222656 67.417969 116.734375 67.546875 116.304688 C 67.992188 114.8125 70.886719 114.757812 71.234375 114.757812 C 71.480469 114.703125 71.675781 115.019531 71.917969 115.414062 C 71.972656 115.507812 72.050781 115.632812 72.078125 115.664062 L 72.714844 116.28125 C 72.859375 116.421875 72.863281 116.652344 72.726562 116.800781 L 72.5 117.046875 L 72.679688 118.09375 C 72.722656 118.359375 72.585938 118.621094 72.34375 118.734375 L 71.605469 119.082031 C 71.558594 119.105469 71.53125 119.152344 71.539062 119.207031 L 71.820312 121.285156 C 71.832031 121.386719 71.769531 121.480469 71.675781 121.511719 L 71.0625 121.710938 C 70.457031 121.90625 69.816406 122.003906 69.175781 122.003906 " fill-opacity="1" fill-rule="nonzero"/><path fill="#000000" d="M 69.359375 116.984375 C 69.410156 116.90625 69.394531 116.804688 69.320312 116.746094 C 69.183594 116.640625 68.980469 116.464844 68.964844 116.339844 C 68.949219 116.207031 69.03125 116.097656 69.074219 116.035156 C 69.296875 115.71875 69.730469 115.71875 70.5625 115.601562 C 71.59375 115.457031 71.710938 115.445312 71.871094 115.3125 C 72.273438 114.972656 72.34375 114.3125 72.207031 113.835938 C 72.167969 113.699219 71.941406 113 71.222656 112.839844 C 70.707031 112.722656 70.199219 112.859375 69.832031 113.304688 C 69.746094 113.183594 69.566406 112.730469 69.113281 112.796875 C 67.925781 112.972656 67.546875 114.453125 67.476562 115.140625 C 67.375 115.121094 66.992188 115.0625 66.679688 115.296875 C 66.210938 115.640625 66.300781 116.324219 66.308594 116.386719 C 66.417969 117.140625 67.398438 117.773438 67.996094 118.089844 C 68.425781 118.316406 68.566406 118.339844 68.828125 118.40625 C 68.851562 118.378906 68.882812 118.34375 68.917969 118.308594 C 69.027344 118.1875 69.015625 117.996094 68.886719 117.894531 L 68.886719 117.890625 C 68.769531 117.796875 68.671875 117.679688 68.601562 117.546875 C 68.53125 117.414062 68.480469 117.257812 68.546875 117.152344 C 68.640625 116.996094 68.886719 116.992188 68.921875 116.992188 C 68.992188 116.992188 69.078125 117.019531 69.148438 117.050781 C 69.222656 117.078125 69.3125 117.050781 69.359375 116.984375 " fill-opacity="1" fill-rule="nonzero"/><path fill="#000000" d="M 84.910156 158.828125 Z M 83.804688 157.460938 C 83.667969 157.460938 83.527344 157.492188 83.398438 157.554688 C 83.164062 157.664062 82.988281 157.855469 82.898438 158.097656 C 82.71875 158.597656 82.976562 159.152344 83.476562 159.335938 C 83.976562 159.515625 84.53125 159.257812 84.710938 158.757812 C 84.800781 158.515625 84.789062 158.253906 84.679688 158.019531 C 84.570312 157.785156 84.378906 157.609375 84.136719 157.519531 C 84.027344 157.480469 83.917969 157.460938 83.804688 157.460938 Z M 83.804688 159.8125 C 83.648438 159.8125 83.488281 159.785156 83.332031 159.730469 C 82.613281 159.46875 82.242188 158.671875 82.503906 157.953125 C 82.765625 157.238281 83.5625 156.863281 84.277344 157.128906 C 84.625 157.253906 84.902344 157.507812 85.058594 157.84375 C 85.21875 158.179688 85.234375 158.554688 85.105469 158.902344 C 84.902344 159.464844 84.371094 159.8125 83.804688 159.8125 " fill-opacity="1" fill-rule="nonzero"/><path fill="#000000" d="M 93.625 158.390625 C 93.601562 158.390625 93.574219 158.386719 93.550781 158.378906 C 93.445312 158.339844 93.386719 158.21875 93.425781 158.109375 L 93.796875 157.089844 C 93.835938 156.980469 93.957031 156.925781 94.066406 156.964844 C 94.175781 157.003906 94.230469 157.125 94.191406 157.234375 L 93.820312 158.253906 C 93.789062 158.339844 93.710938 158.390625 93.625 158.390625 " fill-opacity="1" fill-rule="nonzero"/><path fill="#000000" d="M 92.761719 160.765625 C 92.734375 160.765625 92.710938 160.761719 92.6875 160.753906 C 92.578125 160.714844 92.523438 160.59375 92.5625 160.484375 L 92.933594 159.464844 C 92.972656 159.355469 93.09375 159.300781 93.203125 159.339844 C 93.3125 159.378906 93.367188 159.5 93.328125 159.609375 L 92.957031 160.628906 C 92.925781 160.714844 92.847656 160.765625 92.761719 160.765625 " fill-opacity="1" fill-rule="nonzero"/><path fill="#000000" d="M 92.699219 158.824219 C 92.675781 158.824219 92.652344 158.820312 92.628906 158.808594 L 91.609375 158.441406 C 91.5 158.398438 91.441406 158.28125 91.484375 158.171875 C 91.523438 158.0625 91.644531 158.003906 91.75 158.046875 L 92.773438 158.417969 C 92.878906 158.457031 92.9375 158.578125 92.898438 158.6875 C 92.867188 158.769531 92.785156 158.824219 92.699219 158.824219 " fill-opacity="1" fill-rule="nonzero"/><path fill="#000000" d="M 95.074219 159.6875 C 95.050781 159.6875 95.027344 159.683594 95.003906 159.675781 L 93.984375 159.304688 C 93.875 159.265625 93.820312 159.144531 93.859375 159.035156 C 93.898438 158.925781 94.019531 158.867188 94.128906 158.910156 L 95.148438 159.28125 C 95.257812 159.320312 95.3125 159.441406 95.273438 159.550781 C 95.242188 159.636719 95.160156 159.6875 95.074219 159.6875 " fill-opacity="1" fill-rule="nonzero"/><path fill="#000000" d="M 145.027344 167.5625 L 145.03125 167.5625 Z M 143.925781 166.195312 C 143.785156 166.195312 143.648438 166.226562 143.515625 166.285156 C 143.285156 166.394531 143.105469 166.589844 143.019531 166.832031 C 142.835938 167.332031 143.09375 167.886719 143.59375 168.066406 C 144.09375 168.25 144.648438 167.992188 144.832031 167.492188 C 144.917969 167.25 144.910156 166.988281 144.800781 166.753906 C 144.691406 166.519531 144.496094 166.34375 144.253906 166.253906 C 144.148438 166.214844 144.035156 166.195312 143.925781 166.195312 Z M 143.921875 168.546875 C 143.765625 168.546875 143.609375 168.519531 143.453125 168.460938 C 142.734375 168.203125 142.363281 167.40625 142.625 166.6875 C 142.75 166.339844 143.003906 166.0625 143.339844 165.90625 C 143.675781 165.75 144.050781 165.734375 144.398438 165.859375 C 144.746094 165.984375 145.023438 166.238281 145.179688 166.574219 C 145.335938 166.910156 145.351562 167.285156 145.226562 167.632812 C 145.023438 168.195312 144.488281 168.546875 143.921875 168.546875 " fill-opacity="1" fill-rule="nonzero"/><path fill="#000000" d="M 151.015625 164.308594 C 150.941406 164.308594 150.867188 164.265625 150.828125 164.191406 C 150.777344 164.085938 150.820312 163.960938 150.925781 163.910156 C 156.335938 161.242188 159.960938 157.964844 161.6875 154.171875 C 161.738281 154.066406 161.859375 154.019531 161.964844 154.066406 C 162.070312 154.113281 162.117188 154.238281 162.070312 154.34375 C 160.300781 158.230469 156.613281 161.574219 151.109375 164.285156 C 151.078125 164.300781 151.046875 164.308594 151.015625 164.308594 " fill-opacity="1" fill-rule="nonzero"/><path fill="#000000" d="M 149.664062 167.066406 C 149.574219 167.066406 149.492188 167.007812 149.464844 166.917969 C 149.429688 166.808594 149.492188 166.691406 149.605469 166.65625 C 154.800781 165.089844 158.542969 162.527344 161.03125 158.828125 C 161.097656 158.730469 161.226562 158.707031 161.324219 158.769531 C 161.421875 158.835938 161.445312 158.964844 161.382812 159.0625 C 158.832031 162.847656 155.019531 165.460938 149.726562 167.058594 C 149.707031 167.0625 149.683594 167.066406 149.664062 167.066406 " fill-opacity="1" fill-rule="nonzero"/><path fill="#000000" d="M 143.988281 70.203125 C 143.585938 70.203125 143.210938 70.457031 143.074219 70.859375 C 142.90625 71.363281 143.175781 71.910156 143.679688 72.082031 C 144.183594 72.25 144.734375 71.980469 144.902344 71.476562 C 144.984375 71.230469 144.96875 70.96875 144.851562 70.738281 C 144.738281 70.507812 144.542969 70.335938 144.296875 70.253906 C 144.195312 70.21875 144.089844 70.203125 143.988281 70.203125 Z M 143.988281 72.550781 C 143.839844 72.550781 143.691406 72.527344 143.546875 72.480469 C 142.824219 72.234375 142.433594 71.449219 142.675781 70.726562 C 142.921875 70.003906 143.707031 69.613281 144.429688 69.855469 C 144.78125 69.972656 145.066406 70.21875 145.230469 70.550781 C 145.394531 70.882812 145.417969 71.257812 145.300781 71.609375 C 145.105469 72.1875 144.566406 72.550781 143.988281 72.550781 " fill-opacity="1" fill-rule="nonzero"/><path fill="#000000" d="M 134.015625 67.703125 C 133.972656 67.703125 133.929688 67.691406 133.890625 67.664062 C 129.320312 64.292969 122.453125 62.507812 118.765625 61.746094 C 116.019531 61.179688 113.234375 60.832031 110.492188 60.71875 C 110.375 60.714844 110.285156 60.617188 110.289062 60.5 C 110.292969 60.386719 110.390625 60.296875 110.507812 60.300781 C 113.277344 60.414062 116.082031 60.761719 118.851562 61.335938 C 122.570312 62.105469 129.503906 63.90625 134.140625 67.328125 C 134.234375 67.394531 134.253906 67.527344 134.183594 67.621094 C 134.144531 67.675781 134.082031 67.703125 134.015625 67.703125 " fill-opacity="1" fill-rule="nonzero"/><path fill="#000000" d="M 140.625 68.644531 C 140.582031 68.644531 140.539062 68.632812 140.5 68.605469 C 136.40625 65.640625 131.871094 63.25 127.015625 61.503906 C 123.835938 60.359375 120.550781 59.511719 117.257812 58.976562 C 117.144531 58.957031 117.066406 58.847656 117.085938 58.734375 C 117.105469 58.621094 117.210938 58.542969 117.328125 58.5625 C 120.644531 59.101562 123.953125 59.957031 127.15625 61.109375 C 132.050781 62.867188 136.621094 65.273438 140.746094 68.265625 C 140.839844 68.335938 140.863281 68.464844 140.792969 68.558594 C 140.753906 68.617188 140.6875 68.644531 140.625 68.644531 " fill-opacity="1" fill-rule="nonzero"/><path fill="#000000" d="M 133.160156 74.644531 C 133.136719 74.644531 133.113281 74.640625 133.089844 74.632812 C 132.980469 74.589844 132.921875 74.472656 132.960938 74.363281 L 133.335938 73.34375 C 133.375 73.234375 133.496094 73.175781 133.601562 73.21875 C 133.710938 73.257812 133.769531 73.378906 133.726562 73.484375 L 133.359375 74.503906 C 133.328125 74.589844 133.246094 74.644531 133.160156 74.644531 " fill-opacity="1" fill-rule="nonzero"/><path fill="#000000" d="M 132.296875 77.019531 C 132.273438 77.019531 132.25 77.015625 132.226562 77.007812 C 132.117188 76.96875 132.058594 76.847656 132.097656 76.738281 L 132.46875 75.71875 C 132.511719 75.609375 132.628906 75.550781 132.738281 75.59375 C 132.847656 75.632812 132.90625 75.753906 132.863281 75.859375 L 132.492188 76.882812 C 132.460938 76.964844 132.382812 77.019531 132.296875 77.019531 " fill-opacity="1" fill-rule="nonzero"/><path fill="#000000" d="M 132.234375 75.074219 C 132.210938 75.074219 132.1875 75.070312 132.164062 75.0625 L 131.144531 74.691406 C 131.035156 74.652344 130.976562 74.53125 131.019531 74.421875 C 131.058594 74.3125 131.179688 74.257812 131.289062 74.296875 L 132.308594 74.667969 C 132.414062 74.707031 132.472656 74.828125 132.433594 74.9375 C 132.402344 75.023438 132.320312 75.074219 132.234375 75.074219 " fill-opacity="1" fill-rule="nonzero"/><path fill="#000000" d="M 134.609375 75.9375 C 134.585938 75.9375 134.5625 75.9375 134.539062 75.925781 L 133.519531 75.554688 C 133.410156 75.515625 133.355469 75.394531 133.394531 75.289062 C 133.433594 75.179688 133.554688 75.121094 133.660156 75.160156 L 134.683594 75.53125 C 134.792969 75.570312 134.847656 75.691406 134.808594 75.800781 C 134.777344 75.886719 134.695312 75.9375 134.609375 75.9375 " fill-opacity="1" fill-rule="nonzero"/></svg>