<svg xmlns="http://www.w3.org/2000/svg" xmlns:xlink="http://www.w3.org/1999/xlink" width="300" zoomAndPan="magnify" viewBox="0 0 224.87999 225" height="300" preserveAspectRatio="xMidYMid meet" version="1.0"><path fill="#14697d" d="M 161.59375 100.976562 C 156.929688 77.308594 135.390625 59.871094 115.632812 58.046875 C 99.261719 56.535156 69.726562 56.730469 62.167969 71.167969 C 57.417969 80.25 69.359375 92.617188 65.472656 113.191406 C 62.109375 130.996094 56.21875 137.371094 59.953125 146.445312 C 63.003906 153.867188 70.136719 157.375 74.695312 159.617188 C 92.660156 168.460938 119.953125 167.421875 139.605469 151.292969 C 144.203125 147.519531 166.867188 127.75 161.59375 100.976562 " fill-opacity="1" fill-rule="nonzero"/><path fill="#000000" d="M 143.109375 162.722656 L 95.570312 162.722656 C 93.519531 162.722656 92.070312 161.066406 92.328125 159.023438 L 104.035156 66.546875 C 104.292969 64.503906 106.164062 62.851562 108.210938 62.851562 L 153.367188 62.320312 C 158.550781 62.320312 159.25 64.503906 158.992188 66.546875 L 147.289062 159.023438 C 147.027344 161.066406 145.15625 162.722656 143.109375 162.722656 " fill-opacity="1" fill-rule="nonzero"/><path fill="#a6201e" d="M 140.25 162.722656 L 92.707031 162.722656 C 90.660156 162.722656 89.207031 161.0625 89.46875 159.015625 L 101.171875 66.242188 C 101.429688 64.191406 103.300781 62.53125 105.351562 62.53125 L 152.890625 62.53125 C 154.941406 62.53125 156.390625 64.191406 156.132812 66.242188 L 144.425781 159.015625 C 144.167969 161.0625 142.296875 162.722656 140.25 162.722656 " fill-opacity="1" fill-rule="nonzero"/><path fill="#14697d" d="M 92.175781 159.140625 L 103.351562 70.558594 C 103.414062 70.085938 103.84375 69.703125 104.316406 69.703125 L 152.113281 69.703125 C 152.585938 69.703125 152.921875 70.085938 152.863281 70.558594 L 141.683594 159.140625 C 141.625 159.613281 141.195312 159.996094 140.71875 159.996094 L 92.925781 159.996094 C 92.453125 159.996094 92.117188 159.613281 92.175781 159.140625 " fill-opacity="1" fill-rule="nonzero"/><path fill="#14697d" d="M 128.527344 67.25 C 127.757812 67.25 127.214844 66.628906 127.3125 65.859375 C 127.40625 65.09375 128.109375 64.46875 128.875 64.46875 C 129.644531 64.46875 130.1875 65.09375 130.089844 65.859375 C 129.992188 66.628906 129.292969 67.25 128.527344 67.25 " fill-opacity="1" fill-rule="nonzero"/><path fill="#000000" d="M 140.25 162.917969 L 92.707031 162.917969 C 91.667969 162.917969 90.734375 162.511719 90.085938 161.777344 C 89.429688 161.03125 89.140625 160.042969 89.273438 158.988281 L 96.257812 103.636719 C 96.269531 103.53125 96.367188 103.453125 96.476562 103.46875 C 96.582031 103.480469 96.660156 103.578125 96.644531 103.6875 L 89.660156 159.039062 C 89.542969 159.976562 89.796875 160.859375 90.378906 161.515625 C 90.953125 162.167969 91.78125 162.527344 92.707031 162.527344 L 140.25 162.527344 C 142.199219 162.527344 143.988281 160.941406 144.234375 158.988281 L 155.9375 66.214844 C 156.058594 65.277344 155.800781 64.394531 155.222656 63.738281 C 154.648438 63.085938 153.820312 62.726562 152.890625 62.726562 L 105.351562 62.726562 C 103.402344 62.726562 101.613281 64.316406 101.367188 66.265625 L 97.839844 94.226562 C 97.824219 94.335938 97.726562 94.410156 97.621094 94.398438 C 97.511719 94.382812 97.4375 94.289062 97.449219 94.179688 L 100.976562 66.214844 C 101.25 64.078125 103.210938 62.335938 105.351562 62.335938 L 152.890625 62.335938 C 153.933594 62.335938 154.867188 62.742188 155.515625 63.476562 C 156.171875 64.222656 156.460938 65.210938 156.328125 66.265625 L 144.621094 159.039062 C 144.351562 161.179688 142.390625 162.917969 140.25 162.917969 " fill-opacity="1" fill-rule="nonzero"/><path fill="#a6201e" d="M 136.585938 148.0625 L 100.28125 148.019531 C 100.085938 148.019531 99.941406 147.84375 99.972656 147.652344 L 100.472656 144.753906 C 100.5 144.605469 100.628906 144.496094 100.785156 144.496094 L 137.007812 144.542969 C 137.199219 144.542969 137.34375 144.714844 137.320312 144.902344 L 136.898438 147.792969 C 136.875 147.949219 136.742188 148.0625 136.585938 148.0625 " fill-opacity="1" fill-rule="nonzero"/><path fill="#a6201e" d="M 135.003906 154.632812 L 100.277344 154.632812 C 99.632812 154.632812 99.140625 154.050781 99.253906 153.417969 L 99.5 152.011719 C 99.585938 151.515625 100.015625 151.152344 100.519531 151.152344 L 135.21875 151.109375 C 135.851562 151.109375 136.339844 151.675781 136.25 152.304688 L 136.035156 153.746094 C 135.957031 154.257812 135.519531 154.632812 135.003906 154.632812 " fill-opacity="1" fill-rule="nonzero"/><path fill="#a6201e" d="M 157.910156 159.996094 C 157.910156 159.996094 160.582031 159.160156 164.960938 150.664062 C 168.660156 143.488281 165.363281 136.558594 164.699219 131.921875 C 164.628906 131.449219 163.984375 131.378906 163.824219 131.828125 C 162.714844 134.945312 160.933594 140.609375 161.21875 144.097656 C 161.636719 149.125 157.910156 159.996094 157.910156 159.996094 " fill-opacity="1" fill-rule="nonzero"/><path fill="#a6201e" d="M 160.808594 155.351562 L 161.757812 147.820312 C 162.171875 144.550781 161.636719 141.234375 160.21875 138.265625 C 158.152344 133.941406 157.992188 128.9375 159.773438 124.484375 L 161.300781 120.664062 C 161.496094 120.179688 160.878906 119.789062 160.53125 120.171875 L 158.382812 122.535156 C 153.511719 127.898438 151.863281 135.484375 154.074219 142.410156 L 158.03125 154.816406 L 160.808594 155.351562 " fill-opacity="1" fill-rule="nonzero"/><path fill="#14697d" d="M 161.265625 151.917969 C 161.257812 151.917969 161.25 151.917969 161.242188 151.917969 C 161.132812 151.902344 161.058594 151.804688 161.074219 151.699219 L 161.566406 147.796875 C 161.816406 145.820312 161.71875 143.832031 161.273438 141.890625 C 161.25 141.785156 161.316406 141.679688 161.421875 141.65625 C 161.527344 141.628906 161.632812 141.695312 161.65625 141.800781 C 162.109375 143.789062 162.210938 145.824219 161.953125 147.84375 L 161.460938 151.746094 C 161.449219 151.847656 161.363281 151.917969 161.265625 151.917969 " fill-opacity="1" fill-rule="nonzero"/><path fill="#a6201e" d="M 159.578125 155.597656 L 156.277344 147.160156 C 155.335938 144.757812 153.359375 142.925781 150.910156 142.183594 L 148.65625 141.5 C 148.109375 141.335938 147.742188 142.058594 148.195312 142.410156 L 149.582031 143.488281 C 151.082031 144.652344 151.976562 146.445312 152.015625 148.355469 C 152.039062 149.476562 152.359375 150.574219 152.941406 151.53125 L 155.179688 155.203125 L 159.578125 155.597656 " fill-opacity="1" fill-rule="nonzero"/><path fill="#14697d" d="M 159.089844 151.828125 C 159.085938 151.828125 159.078125 151.828125 159.070312 151.828125 C 158.964844 151.816406 158.886719 151.722656 158.894531 151.613281 C 159.398438 146.242188 158.320312 142.777344 157.367188 139.726562 C 156.921875 138.308594 156.507812 136.96875 156.257812 135.527344 C 155.085938 128.71875 159.085938 122.808594 159.125 122.75 C 159.1875 122.660156 159.308594 122.636719 159.398438 122.699219 C 159.488281 122.761719 159.507812 122.882812 159.449219 122.972656 C 159.410156 123.027344 155.5 128.8125 156.644531 135.460938 C 156.886719 136.878906 157.300781 138.203125 157.738281 139.609375 C 158.703125 142.699219 159.796875 146.199219 159.285156 151.652344 C 159.277344 151.753906 159.191406 151.828125 159.089844 151.828125 " fill-opacity="1" fill-rule="nonzero"/><path fill="#14697d" d="M 157.6875 149.34375 C 157.605469 149.34375 157.53125 149.292969 157.503906 149.210938 C 157.078125 147.929688 156.121094 146.59375 155.390625 145.699219 C 155.320312 145.613281 155.332031 145.492188 155.417969 145.421875 C 155.5 145.355469 155.625 145.367188 155.695312 145.449219 C 156.445312 146.371094 157.433594 147.75 157.875 149.085938 C 157.910156 149.191406 157.851562 149.300781 157.75 149.335938 C 157.730469 149.339844 157.710938 149.34375 157.6875 149.34375 " fill-opacity="1" fill-rule="nonzero"/><path fill="#14697d" d="M 163.492188 148.226562 C 163.480469 148.226562 163.46875 148.226562 163.457031 148.222656 C 163.351562 148.207031 163.28125 148.105469 163.296875 147.996094 C 164.195312 142.683594 163.882812 134.5 163.882812 134.417969 C 163.878906 134.308594 163.960938 134.21875 164.070312 134.214844 C 164.074219 134.214844 164.074219 134.214844 164.078125 134.214844 C 164.183594 134.214844 164.269531 134.296875 164.273438 134.402344 C 164.277344 134.484375 164.589844 142.707031 163.683594 148.0625 C 163.667969 148.160156 163.585938 148.226562 163.492188 148.226562 " fill-opacity="1" fill-rule="nonzero"/><path fill="#14697d" d="M 155.601562 152.632812 C 155.496094 152.632812 155.410156 152.546875 155.40625 152.441406 C 155.34375 145.855469 150.089844 142.96875 150.035156 142.9375 C 149.941406 142.886719 149.902344 142.769531 149.953125 142.671875 C 150.003906 142.578125 150.125 142.542969 150.21875 142.59375 C 150.273438 142.621094 155.734375 145.621094 155.800781 152.4375 C 155.800781 152.546875 155.714844 152.632812 155.605469 152.632812 C 155.605469 152.632812 155.605469 152.632812 155.601562 152.632812 " fill-opacity="1" fill-rule="nonzero"/><path fill="#14697d" d="M 156.320312 140.230469 C 156.261719 140.230469 156.203125 140.203125 156.164062 140.15625 C 154.722656 138.300781 154.101562 135.875 154.078125 135.773438 C 154.050781 135.667969 154.113281 135.5625 154.21875 135.535156 C 154.324219 135.507812 154.429688 135.574219 154.457031 135.675781 C 154.460938 135.703125 155.082031 138.128906 156.476562 139.914062 C 156.539062 140 156.527344 140.125 156.441406 140.191406 C 156.40625 140.21875 156.363281 140.230469 156.320312 140.230469 " fill-opacity="1" fill-rule="nonzero"/><path fill="#ffbf23" d="M 163.105469 165.402344 L 154.488281 165.402344 C 153.410156 165.402344 152.539062 164.53125 152.539062 163.453125 L 152.539062 153.558594 L 165.054688 153.558594 L 165.054688 163.453125 C 165.054688 164.53125 164.183594 165.402344 163.105469 165.402344 " fill-opacity="1" fill-rule="nonzero"/><path fill="#ffffff" d="M 163.828125 155.84375 L 153.765625 155.84375 C 153.660156 155.84375 153.570312 155.757812 153.570312 155.648438 C 153.570312 155.539062 153.660156 155.453125 153.765625 155.453125 L 163.828125 155.453125 C 163.9375 155.453125 164.023438 155.539062 164.023438 155.648438 C 164.023438 155.757812 163.9375 155.84375 163.828125 155.84375 " fill-opacity="1" fill-rule="nonzero"/><path fill="#a6201e" d="M 165.226562 78.703125 C 166.222656 78.703125 166.921875 79.511719 166.785156 80.507812 L 165.105469 92.921875 C 164.96875 93.917969 164.054688 94.726562 163.054688 94.726562 L 134.425781 94.726562 C 133.429688 94.726562 132.730469 93.917969 132.863281 92.921875 L 134.546875 80.507812 C 134.679688 79.511719 135.597656 78.703125 136.597656 78.703125 L 165.226562 78.703125 " fill-opacity="1" fill-rule="nonzero"/><path fill="#000000" d="M 133.878906 85.652344 C 133.867188 85.652344 133.859375 85.652344 133.851562 85.652344 C 133.742188 85.636719 133.667969 85.539062 133.683594 85.429688 L 134.351562 80.484375 C 134.5 79.394531 135.507812 78.507812 136.597656 78.507812 L 150.917969 78.667969 C 151.027344 78.667969 151.113281 78.757812 151.113281 78.863281 C 151.113281 78.972656 151.023438 79.058594 150.917969 79.058594 C 150.917969 79.058594 150.914062 79.058594 150.914062 79.058594 L 136.59375 78.902344 C 135.695312 78.902344 134.863281 79.632812 134.742188 80.535156 L 134.070312 85.484375 C 134.058594 85.582031 133.972656 85.652344 133.878906 85.652344 " fill-opacity="1" fill-rule="nonzero"/><path fill="#000000" d="M 144.03125 95.257812 C 143.921875 95.257812 143.835938 95.171875 143.835938 95.0625 C 143.832031 94.957031 143.917969 94.867188 144.027344 94.863281 L 163.054688 94.53125 C 163.957031 94.53125 164.789062 93.796875 164.910156 92.894531 L 166.59375 80.480469 C 166.652344 80.054688 166.539062 79.652344 166.277344 79.355469 C 166.023438 79.0625 165.648438 78.898438 165.226562 78.898438 L 158.578125 78.882812 C 158.46875 78.882812 158.378906 78.796875 158.378906 78.6875 C 158.382812 78.578125 158.46875 78.492188 158.578125 78.492188 L 165.230469 78.507812 C 165.765625 78.507812 166.242188 78.71875 166.574219 79.097656 C 166.910156 79.484375 167.054688 79.992188 166.980469 80.535156 L 165.300781 92.949219 C 165.152344 94.039062 164.148438 94.921875 163.058594 94.921875 L 144.03125 95.257812 " fill-opacity="1" fill-rule="nonzero"/><path fill="#a6201e" d="M 160.074219 84.082031 L 143.628906 84.082031 C 143.164062 84.082031 142.835938 83.707031 142.898438 83.238281 C 142.960938 82.773438 143.390625 82.394531 143.859375 82.394531 L 160.300781 82.394531 C 160.769531 82.394531 161.09375 82.773438 161.03125 83.238281 C 160.96875 83.707031 160.539062 84.082031 160.074219 84.082031 " fill-opacity="1" fill-rule="nonzero"/><path fill="#14697d" d="M 141.25 83.238281 C 141.1875 83.707031 140.757812 84.082031 140.292969 84.082031 C 139.828125 84.082031 139.5 83.707031 139.5625 83.238281 C 139.625 82.773438 140.054688 82.394531 140.523438 82.394531 C 140.988281 82.394531 141.316406 82.773438 141.25 83.238281 " fill-opacity="1" fill-rule="nonzero"/><path fill="#14697d" d="M 159.582031 87.71875 L 143.136719 87.71875 C 142.671875 87.71875 142.34375 87.34375 142.40625 86.875 C 142.46875 86.410156 142.898438 86.03125 143.367188 86.03125 L 159.808594 86.03125 C 160.277344 86.03125 160.601562 86.410156 160.539062 86.875 C 160.476562 87.34375 160.046875 87.71875 159.582031 87.71875 " fill-opacity="1" fill-rule="nonzero"/><path fill="#14697d" d="M 140.757812 86.875 C 140.695312 87.34375 140.265625 87.722656 139.800781 87.722656 C 139.332031 87.722656 139.007812 87.34375 139.070312 86.875 C 139.132812 86.410156 139.5625 86.03125 140.027344 86.03125 C 140.496094 86.03125 140.820312 86.410156 140.757812 86.875 " fill-opacity="1" fill-rule="nonzero"/><path fill="#14697d" d="M 159.085938 91.355469 L 142.644531 91.355469 C 142.175781 91.355469 141.851562 90.980469 141.914062 90.511719 C 141.976562 90.046875 142.40625 89.667969 142.871094 89.667969 L 159.316406 89.667969 C 159.78125 89.667969 160.109375 90.046875 160.046875 90.511719 C 159.984375 90.980469 159.554688 91.355469 159.085938 91.355469 " fill-opacity="1" fill-rule="nonzero"/><path fill="#14697d" d="M 140.265625 90.511719 C 140.203125 90.980469 139.773438 91.355469 139.308594 91.355469 C 138.839844 91.355469 138.515625 90.980469 138.578125 90.511719 C 138.640625 90.046875 139.070312 89.667969 139.535156 89.667969 C 140.003906 89.667969 140.328125 90.046875 140.265625 90.511719 " fill-opacity="1" fill-rule="nonzero"/><path fill="#ffffff" d="M 106.957031 67.402344 C 107.953125 67.402344 108.648438 68.207031 108.511719 69.203125 L 106.835938 81.582031 C 106.703125 82.578125 105.785156 83.382812 104.792969 83.382812 L 68.621094 83.382812 L 67.878906 86.742188 L 65.824219 83.382812 L 60.300781 83.382812 C 59.308594 83.382812 58.609375 82.578125 58.746094 81.582031 L 60.421875 69.203125 C 60.558594 68.207031 61.472656 67.402344 62.464844 67.402344 L 106.957031 67.402344 " fill-opacity="1" fill-rule="nonzero"/><path fill="#000000" d="M 104.792969 83.578125 L 101.390625 83.578125 C 101.28125 83.578125 101.195312 83.488281 101.195312 83.382812 C 101.195312 83.273438 101.28125 83.183594 101.390625 83.183594 L 104.792969 83.183594 C 105.691406 83.183594 106.519531 82.453125 106.640625 81.554688 L 108.320312 69.175781 C 108.378906 68.746094 108.265625 68.347656 108.007812 68.050781 C 107.75 67.757812 107.378906 67.597656 106.957031 67.597656 L 103.46875 67.4375 C 103.363281 67.433594 103.277344 67.339844 103.28125 67.234375 C 103.289062 67.125 103.378906 67.039062 103.488281 67.046875 L 106.96875 67.207031 C 107.492188 67.207031 107.96875 67.414062 108.300781 67.792969 C 108.636719 68.175781 108.78125 68.6875 108.707031 69.226562 L 107.03125 81.609375 C 106.882812 82.695312 105.878906 83.578125 104.792969 83.578125 " fill-opacity="1" fill-rule="nonzero"/><path fill="#000000" d="M 68.074219 87.582031 L 65.710938 83.578125 L 60.300781 83.578125 C 59.765625 83.578125 59.289062 83.367188 58.957031 82.988281 C 58.621094 82.605469 58.476562 82.097656 58.550781 81.554688 L 60.226562 69.175781 C 60.375 68.089844 61.378906 67.207031 62.464844 67.207031 L 97.558594 67.046875 C 97.667969 67.046875 97.753906 67.132812 97.753906 67.242188 C 97.753906 67.351562 97.667969 67.4375 97.558594 67.4375 L 62.464844 67.597656 C 61.566406 67.597656 60.738281 68.328125 60.617188 69.226562 L 58.9375 81.609375 C 58.882812 82.035156 58.992188 82.433594 59.25 82.730469 C 59.507812 83.023438 59.878906 83.1875 60.300781 83.1875 L 65.933594 83.1875 L 67.875 86.472656 L 68.457031 83.1875 L 82.585938 83.1875 C 82.695312 83.1875 82.785156 83.273438 82.785156 83.382812 C 82.785156 83.488281 82.695312 83.578125 82.585938 83.578125 L 68.785156 83.578125 L 68.074219 87.582031 " fill-opacity="1" fill-rule="nonzero"/><path fill="#a6201e" d="M 91.105469 72.765625 L 65.332031 72.765625 C 64.960938 72.765625 64.703125 72.390625 64.753906 71.925781 C 64.800781 71.460938 65.144531 71.082031 65.515625 71.082031 L 91.289062 71.082031 C 91.660156 71.082031 91.917969 71.460938 91.867188 71.925781 C 91.816406 72.390625 91.476562 72.765625 91.105469 72.765625 " fill-opacity="1" fill-rule="nonzero"/><path fill="#14697d" d="M 97.546875 76.394531 L 64.628906 76.394531 C 64.15625 76.394531 63.824219 76.015625 63.886719 75.550781 C 63.953125 75.085938 64.386719 74.710938 64.859375 74.710938 L 97.78125 74.710938 C 98.253906 74.710938 98.585938 75.085938 98.519531 75.550781 C 98.457031 76.015625 98.019531 76.394531 97.546875 76.394531 " fill-opacity="1" fill-rule="nonzero"/><path fill="#14697d" d="M 102.339844 80.023438 L 64.011719 80.023438 C 63.460938 80.023438 63.074219 79.644531 63.148438 79.179688 C 63.222656 78.714844 63.730469 78.335938 64.28125 78.335938 L 102.609375 78.335938 C 103.160156 78.335938 103.546875 78.714844 103.472656 79.179688 C 103.398438 79.644531 102.890625 80.023438 102.339844 80.023438 " fill-opacity="1" fill-rule="nonzero"/><path fill="#ffffff" d="M 160.742188 57.261719 C 161.867188 57.261719 162.660156 58.175781 162.507812 59.304688 L 160.601562 73.359375 C 160.449219 74.488281 159.410156 75.402344 158.28125 75.402344 L 116.613281 75.402344 C 115.484375 75.402344 114.695312 74.488281 114.847656 73.359375 L 116.75 59.304688 C 116.902344 58.175781 117.941406 57.261719 119.070312 57.261719 L 160.742188 57.261719 " fill-opacity="1" fill-rule="nonzero"/><path fill="#14697d" d="M 154.902344 63.351562 L 127.035156 63.351562 C 126.507812 63.351562 126.136719 62.921875 126.207031 62.394531 C 126.28125 61.867188 126.765625 61.4375 127.292969 61.4375 L 155.164062 61.4375 C 155.691406 61.4375 156.0625 61.867188 155.988281 62.394531 C 155.917969 62.921875 155.433594 63.351562 154.902344 63.351562 " fill-opacity="1" fill-rule="nonzero"/><path fill="#14697d" d="M 124.34375 62.394531 C 124.273438 62.921875 123.785156 63.351562 123.257812 63.351562 C 122.730469 63.351562 122.359375 62.921875 122.429688 62.394531 C 122.503906 61.867188 122.988281 61.4375 123.515625 61.4375 C 124.046875 61.4375 124.414062 61.867188 124.34375 62.394531 " fill-opacity="1" fill-rule="nonzero"/><path fill="#14697d" d="M 154.347656 67.46875 L 126.476562 67.46875 C 125.949219 67.46875 125.578125 67.042969 125.652344 66.511719 C 125.722656 65.984375 126.207031 65.558594 126.738281 65.558594 L 154.605469 65.558594 C 155.132812 65.558594 155.503906 65.984375 155.429688 66.511719 C 155.359375 67.042969 154.875 67.46875 154.347656 67.46875 " fill-opacity="1" fill-rule="nonzero"/><path fill="#14697d" d="M 123.785156 66.511719 C 123.714844 67.042969 123.226562 67.46875 122.699219 67.46875 C 122.171875 67.46875 121.800781 67.042969 121.875 66.511719 C 121.945312 65.984375 122.429688 65.558594 122.957031 65.558594 C 123.488281 65.558594 123.855469 65.984375 123.785156 66.511719 " fill-opacity="1" fill-rule="nonzero"/><path fill="#14697d" d="M 153.789062 71.585938 L 125.917969 71.585938 C 125.390625 71.585938 125.023438 71.160156 125.09375 70.632812 C 125.164062 70.101562 125.652344 69.675781 126.179688 69.675781 L 154.046875 69.675781 C 154.574219 69.675781 154.945312 70.101562 154.875 70.632812 C 154.800781 71.160156 154.316406 71.585938 153.789062 71.585938 " fill-opacity="1" fill-rule="nonzero"/><path fill="#14697d" d="M 123.226562 70.632812 C 123.15625 71.160156 122.671875 71.585938 122.140625 71.585938 C 121.613281 71.585938 121.246094 71.160156 121.316406 70.632812 C 121.386719 70.101562 121.871094 69.675781 122.402344 69.675781 C 122.929688 69.675781 123.296875 70.101562 123.226562 70.632812 " fill-opacity="1" fill-rule="nonzero"/><path fill="#000000" d="M 158.28125 75.597656 L 116.613281 75.597656 C 116.011719 75.597656 115.480469 75.363281 115.109375 74.941406 C 114.734375 74.511719 114.570312 73.941406 114.652344 73.332031 L 115.769531 65.101562 C 115.78125 64.992188 115.882812 64.917969 115.988281 64.933594 C 116.097656 64.945312 116.171875 65.046875 116.15625 65.152344 L 115.039062 73.386719 C 114.976562 73.878906 115.101562 74.339844 115.402344 74.683594 C 115.699219 75.019531 116.128906 75.207031 116.613281 75.207031 L 158.28125 75.207031 C 159.316406 75.207031 160.269531 74.367188 160.40625 73.332031 L 162.3125 59.277344 C 162.378906 58.785156 162.25 58.324219 161.949219 57.980469 C 161.65625 57.640625 161.226562 57.457031 160.742188 57.457031 L 119.070312 57.457031 C 118.039062 57.457031 117.085938 58.296875 116.945312 59.328125 L 116.84375 60.078125 C 116.828125 60.1875 116.730469 60.261719 116.625 60.246094 C 116.515625 60.234375 116.441406 60.132812 116.457031 60.027344 L 116.558594 59.277344 C 116.722656 58.054688 117.851562 57.0625 119.070312 57.0625 L 160.742188 57.0625 C 161.339844 57.0625 161.875 57.296875 162.246094 57.722656 C 162.621094 58.152344 162.78125 58.722656 162.699219 59.328125 L 160.796875 73.386719 C 160.632812 74.605469 159.503906 75.597656 158.28125 75.597656 " fill-opacity="1" fill-rule="nonzero"/><path fill="#000000" d="M 145.332031 119.304688 C 145.292969 121.542969 144.917969 124.566406 143.390625 126.480469 C 142.511719 127.585938 141.367188 128.21875 139.988281 128.363281 C 133.792969 129.011719 130.390625 121.488281 130.25 121.167969 C 129.996094 120.589844 130.257812 119.917969 130.835938 119.660156 C 131.414062 119.40625 132.085938 119.667969 132.34375 120.242188 C 132.371094 120.304688 135.210938 126.566406 139.75 126.089844 C 140.507812 126.007812 141.113281 125.671875 141.601562 125.058594 C 143.277344 122.953125 143.136719 118.289062 142.9375 116.671875 C 142.863281 116.046875 143.308594 115.476562 143.9375 115.398438 C 144.5625 115.324219 145.132812 115.769531 145.207031 116.394531 C 145.222656 116.511719 145.363281 117.707031 145.332031 119.304688 " fill-opacity="1" fill-rule="nonzero"/><path fill="#000000" d="M 146.695312 111.429688 L 146.65625 113.628906 C 146.632812 114.828125 145.714844 115.804688 144.519531 115.902344 L 143.753906 115.964844 C 143.097656 116.015625 142.449219 115.789062 141.972656 115.339844 C 141.496094 114.890625 141.226562 114.257812 141.238281 113.601562 L 141.304688 110.101562 C 141.316406 109.46875 141.835938 108.96875 142.46875 108.980469 C 143.101562 108.992188 143.601562 109.511719 143.589844 110.144531 L 143.527344 113.644531 C 143.523438 113.652344 143.523438 113.664062 143.539062 113.675781 C 143.550781 113.6875 143.5625 113.683594 143.566406 113.683594 L 144.332031 113.621094 C 144.351562 113.621094 144.367188 113.605469 144.367188 113.585938 L 144.410156 111.390625 C 144.421875 110.757812 144.941406 110.253906 145.574219 110.269531 C 146.203125 110.28125 146.707031 110.800781 146.695312 111.429688 " fill-opacity="1" fill-rule="nonzero"/><path fill="#000000" d="M 106.601562 131.710938 C 106.609375 131.710938 106.613281 131.707031 106.621094 131.707031 C 108.585938 131.304688 110.367188 129.714844 111.917969 126.980469 C 113.007812 125.0625 113.585938 123.265625 113.609375 123.191406 C 113.800781 122.589844 113.46875 121.945312 112.867188 121.753906 C 112.265625 121.566406 111.621094 121.898438 111.429688 122.5 C 110.867188 124.253906 108.828125 128.921875 106.164062 129.46875 C 106.160156 129.46875 106.15625 129.46875 106.148438 129.46875 C 105.304688 129.640625 104.597656 129.511719 103.988281 129.074219 C 102.535156 128.03125 101.929688 125.476562 101.816406 124.582031 C 101.738281 123.957031 101.167969 123.511719 100.542969 123.589844 C 99.914062 123.664062 99.46875 124.238281 99.546875 124.863281 C 99.570312 125.035156 100.097656 129.097656 102.65625 130.933594 C 103.792969 131.75 105.121094 132.011719 106.601562 131.710938 " fill-opacity="1" fill-rule="nonzero"/><path fill="#000000" d="M 103.261719 120.300781 L 103.21875 122.492188 C 103.199219 123.695312 102.277344 124.671875 101.082031 124.769531 L 100.316406 124.832031 C 99.664062 124.882812 99.015625 124.65625 98.539062 124.207031 C 98.058594 123.757812 97.792969 123.125 97.804688 122.46875 L 97.871094 118.96875 C 97.882812 118.335938 98.402344 117.835938 99.035156 117.847656 C 99.664062 117.859375 100.167969 118.378906 100.15625 119.011719 L 100.089844 122.511719 C 100.089844 122.519531 100.089844 122.53125 100.101562 122.542969 C 100.113281 122.554688 100.125 122.550781 100.132812 122.550781 L 100.898438 122.488281 C 100.917969 122.488281 100.933594 122.472656 100.933594 122.453125 L 100.972656 120.257812 C 100.984375 119.625 101.507812 119.121094 102.136719 119.132812 C 102.769531 119.144531 103.273438 119.667969 103.261719 120.300781 " fill-opacity="1" fill-rule="nonzero"/><path fill="#ffffff" d="M 103.785156 105.449219 L 106.199219 105.449219 L 106.199219 98.6875 L 103.785156 98.6875 C 103.203125 98.6875 102.730469 99.160156 102.730469 99.742188 L 102.730469 104.398438 C 102.730469 104.980469 103.203125 105.449219 103.785156 105.449219 " fill-opacity="1" fill-rule="nonzero"/><path fill="#000000" d="M 106.003906 98.886719 C 104.296875 98.945312 102.925781 100.351562 102.925781 102.070312 C 102.925781 103.789062 104.296875 105.195312 106.003906 105.253906 Z M 106.203125 105.644531 L 106.113281 105.644531 C 104.140625 105.644531 102.535156 104.042969 102.535156 102.070312 C 102.535156 100.097656 104.140625 98.492188 106.113281 98.492188 L 106.203125 98.492188 C 106.308594 98.492188 106.398438 98.582031 106.398438 98.6875 L 106.398438 105.449219 C 106.398438 105.558594 106.308594 105.644531 106.203125 105.644531 " fill-opacity="1" fill-rule="nonzero"/><path fill="#ffffff" d="M 139.144531 105.449219 L 136.726562 105.449219 L 136.726562 98.6875 L 139.144531 98.6875 C 139.726562 98.6875 140.195312 99.160156 140.195312 99.742188 L 140.195312 104.398438 C 140.195312 104.980469 139.726562 105.449219 139.144531 105.449219 " fill-opacity="1" fill-rule="nonzero"/><path fill="#000000" d="M 136.925781 98.886719 L 136.925781 105.253906 C 138.632812 105.195312 140 103.789062 140 102.070312 C 140 100.347656 138.632812 98.941406 136.925781 98.886719 Z M 136.816406 105.644531 L 136.726562 105.644531 C 136.621094 105.644531 136.53125 105.558594 136.53125 105.449219 L 136.53125 98.6875 C 136.53125 98.582031 136.621094 98.492188 136.726562 98.492188 L 136.816406 98.492188 C 138.789062 98.492188 140.394531 100.097656 140.394531 102.070312 C 140.394531 104.042969 138.789062 105.644531 136.816406 105.644531 " fill-opacity="1" fill-rule="nonzero"/><path fill="#ffffff" d="M 137.820312 101.789062 C 137.820312 94.523438 130.496094 87.011719 121.464844 87.011719 C 112.429688 87.011719 105.109375 94.523438 105.109375 101.789062 C 105.109375 109.054688 112.429688 113.320312 121.464844 113.320312 C 130.496094 113.320312 137.820312 109.054688 137.820312 101.789062 " fill-opacity="1" fill-rule="nonzero"/><path fill="#000000" d="M 121.464844 87.207031 C 112.214844 87.207031 105.304688 94.90625 105.304688 101.789062 C 105.304688 105.183594 106.929688 108.0625 110.007812 110.117188 C 112.914062 112.054688 116.984375 113.125 121.464844 113.125 C 125.945312 113.125 130.015625 112.054688 132.921875 110.117188 C 136 108.0625 137.625 105.183594 137.625 101.789062 C 137.625 94.90625 130.714844 87.207031 121.464844 87.207031 Z M 121.464844 113.515625 C 116.90625 113.515625 112.761719 112.425781 109.789062 110.441406 C 106.597656 108.3125 104.914062 105.324219 104.914062 101.789062 C 104.914062 98.175781 106.679688 94.4375 109.765625 91.535156 C 112.996094 88.492188 117.152344 86.8125 121.464844 86.8125 C 125.777344 86.8125 129.933594 88.492188 133.164062 91.535156 C 136.25 94.4375 138.015625 98.175781 138.015625 101.789062 C 138.015625 105.324219 136.328125 108.3125 133.140625 110.441406 C 130.167969 112.425781 126.023438 113.515625 121.464844 113.515625 " fill-opacity="1" fill-rule="nonzero"/><path fill="#ffffff" d="M 117.367188 115.503906 L 125.5625 115.503906 C 129.152344 115.503906 132.0625 118.414062 132.0625 122.003906 C 132.0625 124.378906 131.832031 126.746094 131.375 129.074219 L 130.195312 135.039062 C 129.371094 139.207031 125.714844 142.214844 121.464844 142.214844 C 117.214844 142.214844 113.558594 139.207031 112.734375 135.039062 L 111.554688 129.074219 C 111.097656 126.746094 110.863281 124.378906 110.863281 122.003906 C 110.863281 118.414062 113.777344 115.503906 117.367188 115.503906 " fill-opacity="1" fill-rule="nonzero"/><path fill="#000000" d="M 117.367188 115.699219 C 113.890625 115.699219 111.0625 118.527344 111.0625 122.003906 C 111.0625 124.359375 111.292969 126.726562 111.75 129.035156 L 112.925781 135 C 113.730469 139.066406 117.320312 142.019531 121.464844 142.019531 C 125.609375 142.019531 129.199219 139.066406 130.003906 135 L 131.179688 129.035156 C 131.636719 126.726562 131.867188 124.359375 131.867188 122.003906 C 131.867188 118.527344 129.039062 115.699219 125.5625 115.699219 Z M 121.464844 142.410156 C 117.132812 142.410156 113.382812 139.324219 112.542969 135.078125 L 111.363281 129.109375 C 110.902344 126.777344 110.667969 124.386719 110.667969 122.003906 C 110.667969 118.3125 113.675781 115.304688 117.367188 115.304688 L 125.5625 115.304688 C 129.253906 115.304688 132.261719 118.3125 132.261719 122.003906 C 132.261719 124.386719 132.027344 126.777344 131.566406 129.109375 L 130.386719 135.078125 C 129.546875 139.324219 125.796875 142.410156 121.464844 142.410156 " fill-opacity="1" fill-rule="nonzero"/><path fill="#ffbf23" d="M 121.464844 129.910156 C 123.929688 129.910156 125.925781 127.914062 125.925781 125.449219 L 125.925781 115.503906 L 117.003906 115.503906 L 117.003906 125.449219 C 117.003906 127.914062 119 129.910156 121.464844 129.910156 " fill-opacity="1" fill-rule="nonzero"/><path fill="#000000" d="M 125.925781 115.699219 L 117.003906 115.699219 C 116.898438 115.699219 116.808594 115.609375 116.808594 115.503906 C 116.808594 115.394531 116.898438 115.304688 117.003906 115.304688 L 125.925781 115.304688 C 126.03125 115.304688 126.121094 115.394531 126.121094 115.503906 C 126.121094 115.609375 126.03125 115.699219 125.925781 115.699219 " fill-opacity="1" fill-rule="nonzero"/><path fill="#000000" d="M 110.46875 99.609375 L 126.21875 99.609375 C 127.855469 99.609375 129.183594 101.039062 129.183594 102.800781 L 129.183594 104.886719 C 129.183594 106.230469 128.464844 107.65625 127.226562 107.886719 C 122.863281 108.707031 113.824219 108.707031 109.460938 107.886719 C 108.222656 107.65625 107.503906 106.230469 107.503906 104.886719 L 107.503906 102.800781 C 107.503906 101.039062 108.832031 99.609375 110.46875 99.609375 " fill-opacity="1" fill-rule="nonzero"/><path fill="#ffbf23" d="M 122.042969 103.800781 C 122.042969 104.394531 122.488281 104.871094 123.039062 104.871094 C 123.585938 104.871094 124.03125 104.394531 124.03125 103.800781 C 124.03125 103.210938 123.585938 102.730469 123.039062 102.730469 C 122.488281 102.730469 122.042969 103.210938 122.042969 103.800781 " fill-opacity="1" fill-rule="nonzero"/><path fill="#ffbf23" d="M 111.484375 103.800781 C 111.484375 104.394531 111.929688 104.871094 112.476562 104.871094 C 113.023438 104.871094 113.46875 104.394531 113.46875 103.800781 C 113.46875 103.210938 113.023438 102.730469 112.476562 102.730469 C 111.929688 102.730469 111.484375 103.210938 111.484375 103.800781 " fill-opacity="1" fill-rule="nonzero"/><path fill="#ffffff" d="M 73.984375 156.59375 L 73.863281 161.082031 L 72.277344 161.253906 L 71.492188 156.421875 L 73.984375 156.59375 " fill-opacity="1" fill-rule="nonzero"/><path fill="#000000" d="M 71.726562 156.632812 L 72.441406 161.039062 L 73.671875 160.90625 L 73.78125 156.773438 Z M 72.277344 161.449219 C 72.183594 161.449219 72.101562 161.378906 72.085938 161.285156 L 71.300781 156.453125 C 71.289062 156.394531 71.308594 156.335938 71.347656 156.289062 C 71.386719 156.246094 71.445312 156.222656 71.507812 156.226562 L 73.996094 156.398438 C 74.101562 156.40625 74.183594 156.492188 74.179688 156.597656 L 74.058594 161.085938 C 74.054688 161.183594 73.980469 161.265625 73.882812 161.277344 L 72.296875 161.445312 C 72.292969 161.449219 72.285156 161.449219 72.277344 161.449219 " fill-opacity="1" fill-rule="nonzero"/><path fill="#ffffff" d="M 82.980469 158.066406 L 83.230469 161.640625 L 81.136719 161.8125 L 80.390625 158.066406 L 82.980469 158.066406 " fill-opacity="1" fill-rule="nonzero"/><path fill="#000000" d="M 80.628906 158.261719 L 81.296875 161.605469 L 83.023438 161.460938 L 82.796875 158.261719 Z M 81.136719 162.007812 C 81.042969 162.007812 80.964844 161.941406 80.945312 161.851562 L 80.195312 158.105469 C 80.1875 158.046875 80.199219 157.988281 80.238281 157.941406 C 80.273438 157.898438 80.332031 157.871094 80.390625 157.871094 L 82.980469 157.871094 C 83.082031 157.871094 83.167969 157.949219 83.175781 158.050781 L 83.425781 161.628906 C 83.433594 161.734375 83.355469 161.828125 83.25 161.835938 L 81.152344 162.007812 C 81.148438 162.007812 81.140625 162.007812 81.136719 162.007812 " fill-opacity="1" fill-rule="nonzero"/><path fill="#ffbf23" d="M 80.578125 163.351562 C 80.433594 163.253906 80.34375 163.09375 80.339844 162.917969 C 80.324219 162.394531 80.324219 161.277344 80.535156 160.855469 C 80.816406 160.300781 81.972656 161.074219 81.972656 161.074219 C 81.972656 161.074219 82.652344 160.136719 83.050781 159.9375 C 83.253906 159.835938 84.457031 160.636719 85.667969 161.726562 C 86.996094 162.921875 87.597656 163.304688 87.882812 164.335938 C 88.015625 164.820312 87.660156 165.304688 87.160156 165.34375 C 85.941406 165.429688 83.480469 165.285156 80.578125 163.351562 " fill-opacity="1" fill-rule="nonzero"/><path fill="#000000" d="M 80.90625 160.851562 C 80.871094 160.851562 80.84375 160.855469 80.8125 160.863281 C 80.765625 160.875 80.734375 160.898438 80.710938 160.945312 C 80.574219 161.210938 80.507812 161.949219 80.535156 162.914062 C 80.539062 163.023438 80.59375 163.128906 80.6875 163.1875 C 83.542969 165.089844 85.960938 165.230469 87.148438 165.144531 C 87.332031 165.132812 87.496094 165.039062 87.605469 164.886719 C 87.707031 164.738281 87.742188 164.558594 87.695312 164.386719 C 87.46875 163.578125 87.042969 163.203125 86.113281 162.386719 C 85.941406 162.230469 85.746094 162.0625 85.539062 161.875 C 84.3125 160.769531 83.332031 160.167969 83.109375 160.128906 C 82.847656 160.28125 82.375 160.855469 82.132812 161.191406 C 82.070312 161.277344 81.953125 161.296875 81.863281 161.238281 C 81.625 161.078125 81.179688 160.851562 80.90625 160.851562 Z M 86.625 165.554688 C 85.269531 165.554688 83.035156 165.222656 80.46875 163.515625 C 80.269531 163.382812 80.148438 163.164062 80.144531 162.925781 C 80.125 162.175781 80.144531 161.195312 80.359375 160.769531 C 80.433594 160.625 80.554688 160.523438 80.714844 160.484375 C 81.105469 160.378906 81.652344 160.65625 81.925781 160.816406 C 82.140625 160.527344 82.621094 159.933594 82.960938 159.761719 C 83.484375 159.503906 85.703125 161.496094 85.800781 161.582031 C 86.007812 161.769531 86.199219 161.9375 86.375 162.09375 C 87.300781 162.910156 87.8125 163.359375 88.070312 164.285156 C 88.148438 164.566406 88.097656 164.867188 87.925781 165.113281 C 87.75 165.359375 87.476562 165.515625 87.175781 165.535156 C 87.011719 165.546875 86.828125 165.554688 86.625 165.554688 " fill-opacity="1" fill-rule="nonzero"/><path fill="#000000" d="M 86.019531 164.597656 C 84.738281 164.597656 82.683594 164.289062 80.65625 162.671875 C 80.574219 162.601562 80.558594 162.480469 80.628906 162.394531 C 80.695312 162.3125 80.816406 162.296875 80.902344 162.363281 C 83.96875 164.8125 87.1875 164.105469 87.21875 164.097656 C 87.324219 164.074219 87.429688 164.136719 87.457031 164.242188 C 87.480469 164.347656 87.414062 164.453125 87.308594 164.476562 C 87.257812 164.492188 86.773438 164.597656 86.019531 164.597656 " fill-opacity="1" fill-rule="nonzero"/><path fill="#ffbf23" d="M 74.609375 162.171875 L 74.585938 159.714844 C 74.585938 159.714844 74.09375 158.96875 73.417969 159.574219 C 73.417969 159.574219 72.792969 158.699219 71.632812 159.792969 C 71.632812 159.792969 70.003906 162.832031 69.28125 164.640625 C 69.085938 165.125 69.433594 165.65625 69.953125 165.667969 C 70.703125 165.6875 71.671875 165.644531 72.09375 165.359375 C 72.75 164.914062 73.878906 163.507812 74.371094 162.875 C 74.527344 162.675781 74.613281 162.429688 74.609375 162.171875 " fill-opacity="1" fill-rule="nonzero"/><path fill="#000000" d="M 71.792969 159.914062 C 71.625 160.226562 70.136719 163.027344 69.460938 164.714844 C 69.394531 164.886719 69.414062 165.074219 69.515625 165.226562 C 69.613281 165.378906 69.777344 165.46875 69.957031 165.472656 C 70.96875 165.496094 71.6875 165.398438 71.984375 165.199219 C 72.625 164.765625 73.757812 163.347656 74.21875 162.757812 C 74.347656 162.589844 74.414062 162.382812 74.414062 162.175781 L 74.390625 159.78125 C 74.332031 159.707031 74.1875 159.558594 74 159.535156 C 73.855469 159.519531 73.703125 159.582031 73.550781 159.722656 C 73.507812 159.757812 73.453125 159.777344 73.398438 159.769531 C 73.339844 159.765625 73.289062 159.734375 73.257812 159.6875 C 73.253906 159.683594 73.09375 159.46875 72.789062 159.441406 C 72.496094 159.417969 72.152344 159.578125 71.792969 159.914062 Z M 70.253906 165.867188 C 70.152344 165.867188 70.054688 165.867188 69.949219 165.863281 C 69.640625 165.855469 69.355469 165.699219 69.1875 165.441406 C 69.015625 165.183594 68.984375 164.855469 69.097656 164.570312 C 69.816406 162.769531 71.445312 159.730469 71.460938 159.699219 C 71.472656 159.679688 71.484375 159.664062 71.5 159.648438 C 71.964844 159.210938 72.414062 159.011719 72.835938 159.054688 C 73.113281 159.078125 73.3125 159.207031 73.4375 159.3125 C 73.636719 159.175781 73.84375 159.121094 74.050781 159.148438 C 74.480469 159.203125 74.738281 159.589844 74.75 159.605469 C 74.769531 159.640625 74.78125 159.675781 74.78125 159.714844 L 74.804688 162.171875 C 74.808594 162.46875 74.710938 162.761719 74.527344 162.996094 C 73.941406 163.746094 72.867188 165.074219 72.203125 165.523438 C 71.863281 165.753906 71.207031 165.867188 70.253906 165.867188 " fill-opacity="1" fill-rule="nonzero"/><path fill="#000000" d="M 73.417969 161.097656 C 73.3125 161.097656 73.222656 161.007812 73.222656 160.902344 L 73.222656 159.574219 C 73.222656 159.46875 73.308594 159.378906 73.417969 159.378906 C 73.527344 159.378906 73.613281 159.46875 73.613281 159.574219 L 73.613281 160.898438 C 73.613281 161.007812 73.527344 161.097656 73.417969 161.097656 " fill-opacity="1" fill-rule="nonzero"/><path fill="#000000" d="M 83.617188 158.269531 C 83.617188 158.269531 84.214844 149.246094 83.230469 141.125 C 82.25 133.007812 78.601562 121.417969 78.601562 121.417969 C 78.601562 121.417969 74.675781 121.238281 71.820312 121.625 C 68.964844 122.007812 67.832031 121.613281 67.832031 121.613281 C 67.832031 121.613281 65.699219 124.054688 65.875 128.648438 C 66.046875 133.238281 71.023438 152.605469 70.835938 157.152344 C 70.835938 157.152344 72.507812 157.992188 74.679688 157.574219 L 73.78125 131.472656 C 73.78125 131.472656 75.640625 136.847656 76.511719 140.527344 C 77.222656 143.527344 78.457031 145.46875 78.457031 145.46875 C 78.457031 145.46875 78.40625 152.445312 80.007812 158.238281 C 80.007812 158.238281 81.898438 158.828125 83.617188 158.269531 " fill-opacity="1" fill-rule="nonzero"/><path fill="#ffffff" d="M 80.476562 148.660156 C 80.414062 148.660156 80.351562 148.628906 80.316406 148.574219 L 78.945312 146.582031 C 78.882812 146.492188 78.90625 146.371094 78.996094 146.308594 C 79.085938 146.246094 79.207031 146.269531 79.265625 146.359375 L 80.636719 148.355469 C 80.699219 148.441406 80.675781 148.566406 80.585938 148.625 C 80.554688 148.648438 80.515625 148.660156 80.476562 148.660156 " fill-opacity="1" fill-rule="nonzero"/><path fill="#ffffff" d="M 71.257812 143.808594 C 70.769531 143.808594 70.148438 143.714844 69.628906 143.328125 C 69.542969 143.265625 69.523438 143.140625 69.589844 143.054688 C 69.652344 142.96875 69.777344 142.949219 69.863281 143.015625 C 70.71875 143.652344 71.980469 143.34375 71.992188 143.339844 C 72.097656 143.3125 72.207031 143.375 72.230469 143.480469 C 72.257812 143.585938 72.195312 143.691406 72.089844 143.71875 C 72.0625 143.726562 71.71875 143.808594 71.257812 143.808594 " fill-opacity="1" fill-rule="nonzero"/><path fill="#ffffff" d="M 93.175781 98.371094 L 94.382812 97.210938 C 94.382812 97.210938 94.949219 97.65625 94.082031 98.707031 C 94.316406 98.714844 94.5625 98.730469 94.960938 98.757812 C 95.277344 98.78125 95.59375 98.699219 95.835938 98.484375 C 96.117188 98.234375 96.46875 97.929688 96.601562 97.847656 C 96.832031 97.703125 97.132812 97.472656 97.441406 97.476562 C 97.515625 97.476562 97.589844 97.492188 97.65625 97.511719 C 97.882812 97.582031 97.964844 97.855469 97.824219 98.039062 L 96.972656 99.15625 C 96.523438 99.746094 95.902344 100.167969 95.203125 100.367188 L 94.089844 100.683594 C 93.453125 100.867188 92.984375 101.425781 92.90625 102.105469 L 91.757812 111.304688 C 91.636719 112.273438 90.6875 112.921875 89.738281 112.675781 L 80.269531 110.484375 L 80.636719 104.746094 L 87.09375 107.96875 C 87.902344 108.34375 88.855469 107.941406 89.15625 107.101562 C 89.792969 105.304688 90.859375 102.371094 91.640625 100.570312 C 92 99.742188 92.523438 98.996094 93.175781 98.371094 " fill-opacity="1" fill-rule="nonzero"/><path fill="#000000" d="M 80.476562 110.332031 L 89.785156 112.484375 C 90.1875 112.589844 90.609375 112.515625 90.949219 112.285156 C 91.289062 112.054688 91.511719 111.6875 91.5625 111.277344 L 92.710938 102.082031 C 92.800781 101.324219 93.320312 100.699219 94.035156 100.496094 L 95.148438 100.179688 C 95.8125 99.992188 96.390625 99.597656 96.816406 99.035156 L 97.667969 97.921875 C 97.707031 97.867188 97.695312 97.808594 97.6875 97.789062 C 97.679688 97.761719 97.660156 97.714844 97.601562 97.699219 C 97.542969 97.679688 97.488281 97.671875 97.441406 97.671875 C 97.230469 97.667969 97.007812 97.816406 96.808594 97.945312 C 96.773438 97.96875 96.738281 97.992188 96.703125 98.011719 C 96.648438 98.046875 96.484375 98.171875 95.964844 98.628906 C 95.699219 98.867188 95.335938 98.980469 94.945312 98.953125 C 94.546875 98.925781 94.304688 98.910156 94.074219 98.902344 C 94 98.898438 93.933594 98.855469 93.902344 98.785156 C 93.871094 98.71875 93.882812 98.640625 93.929688 98.582031 C 94.382812 98.03125 94.398438 97.695312 94.347656 97.515625 L 93.3125 98.511719 C 92.671875 99.128906 92.171875 99.847656 91.820312 100.648438 C 91.027344 102.476562 89.925781 105.519531 89.339844 107.167969 C 89.179688 107.621094 88.832031 107.988281 88.390625 108.171875 C 87.949219 108.359375 87.445312 108.347656 87.011719 108.148438 L 80.8125 105.054688 Z M 90.144531 112.921875 C 89.992188 112.921875 89.839844 112.90625 89.691406 112.867188 L 80.226562 110.675781 C 80.132812 110.65625 80.066406 110.570312 80.074219 110.472656 L 80.441406 104.734375 C 80.445312 104.667969 80.480469 104.609375 80.539062 104.578125 C 80.59375 104.542969 80.664062 104.542969 80.722656 104.570312 L 87.179688 107.796875 C 87.515625 107.949219 87.894531 107.957031 88.238281 107.8125 C 88.585938 107.664062 88.84375 107.390625 88.96875 107.039062 C 89.558594 105.382812 90.664062 102.332031 91.460938 100.492188 C 91.832031 99.640625 92.363281 98.878906 93.039062 98.230469 L 94.246094 97.070312 C 94.316406 97.003906 94.425781 96.996094 94.503906 97.058594 C 94.523438 97.074219 94.71875 97.238281 94.753906 97.566406 C 94.785156 97.855469 94.683594 98.179688 94.457031 98.527344 C 94.601562 98.535156 94.765625 98.546875 94.972656 98.5625 C 95.257812 98.582031 95.519531 98.503906 95.707031 98.335938 C 96.324219 97.789062 96.453125 97.707031 96.496094 97.679688 C 96.527344 97.660156 96.558594 97.640625 96.59375 97.617188 C 96.828125 97.464844 97.113281 97.273438 97.445312 97.277344 C 97.53125 97.28125 97.621094 97.296875 97.714844 97.324219 C 97.878906 97.375 98.011719 97.503906 98.0625 97.667969 C 98.117188 97.835938 98.085938 98.019531 97.976562 98.160156 L 97.125 99.273438 C 96.648438 99.902344 96.003906 100.34375 95.257812 100.554688 L 94.144531 100.875 C 93.578125 101.035156 93.171875 101.527344 93.101562 102.128906 L 91.949219 111.328125 C 91.886719 111.847656 91.601562 112.3125 91.167969 112.609375 C 90.863281 112.816406 90.503906 112.921875 90.144531 112.921875 " fill-opacity="1" fill-rule="nonzero"/><path fill="#ffbf23" d="M 66.289062 107.988281 C 66.683594 105.832031 67.496094 104.371094 70.261719 103.195312 C 71.777344 102.554688 73.625 102.417969 76.417969 102.6875 C 78.460938 102.882812 83.675781 104.703125 85.753906 106.648438 C 85.886719 106.773438 83.125 111.847656 83.125 111.847656 L 81.445312 111.628906 L 81.8125 122.234375 C 81.832031 122.851562 81.472656 123.414062 80.90625 123.648438 C 79.574219 124.203125 76.511719 124.6875 69.832031 123.03125 C 69.832031 123.03125 66.851562 121.839844 65.824219 126.457031 C 65.824219 126.457031 63.695312 126.195312 63.71875 123.878906 C 63.734375 122.164062 65.417969 112.75 66.289062 107.988281 " fill-opacity="1" fill-rule="nonzero"/><path fill="#14697d" d="M 69.128906 112.535156 L 68.40625 112.535156 C 68.296875 112.535156 68.210938 112.449219 68.210938 112.339844 C 68.210938 112.230469 68.296875 112.144531 68.40625 112.144531 L 68.992188 112.144531 L 70.066406 109.261719 C 70.101562 109.160156 70.214844 109.109375 70.316406 109.148438 C 70.417969 109.183594 70.46875 109.296875 70.433594 109.398438 L 69.3125 112.40625 C 69.285156 112.484375 69.210938 112.535156 69.128906 112.535156 " fill-opacity="1" fill-rule="nonzero"/><path fill="#ffbf23" d="M 67.652344 112.222656 C 67.652344 112.222656 62.714844 112.203125 62.710938 112.148438 C 62.707031 111.972656 64.550781 104.675781 71.394531 102.839844 L 67.652344 112.222656 " fill-opacity="1" fill-rule="nonzero"/><path fill="#ffffff" d="M 68.0625 112.195312 C 68.0625 112.195312 64.9375 119.980469 64.683594 120.519531 C 64.683594 120.519531 63.398438 123.324219 63.699219 124.617188 C 63.886719 125.433594 63.820312 127.011719 62.742188 128.070312 C 62.515625 128.292969 62.136719 128.074219 62.21875 127.769531 C 62.21875 127.761719 62.21875 127.757812 62.222656 127.753906 C 62.34375 127.320312 62.597656 126.753906 62.597656 126.753906 C 62.597656 126.753906 61.933594 126.871094 61.328125 127.539062 C 60.722656 128.203125 59.402344 129.4375 59.042969 129.15625 C 58.421875 128.675781 58.335938 126.222656 60.773438 124.242188 C 61.378906 123.753906 61.59375 123.40625 61.734375 122.738281 C 61.734375 122.738281 62.464844 118.136719 63.082031 115.226562 C 63.246094 114.457031 63.421875 113.660156 63.597656 112.125 L 68.0625 112.195312 " fill-opacity="1" fill-rule="nonzero"/><path fill="#000000" d="M 63.773438 112.320312 C 63.609375 113.699219 63.449219 114.453125 63.292969 115.183594 L 63.273438 115.265625 C 62.664062 118.140625 61.9375 122.722656 61.929688 122.769531 C 61.773438 123.503906 61.53125 123.878906 60.898438 124.394531 C 58.992188 125.941406 58.863281 127.589844 58.867188 128.058594 C 58.875 128.589844 59.03125 128.898438 59.160156 129 C 59.351562 129.074219 60.296875 128.378906 61.183594 127.40625 C 61.824219 126.699219 62.535156 126.570312 62.5625 126.5625 C 62.636719 126.550781 62.707031 126.578125 62.753906 126.636719 C 62.796875 126.691406 62.808594 126.769531 62.777344 126.835938 C 62.773438 126.839844 62.527344 127.394531 62.410156 127.808594 C 62.386719 127.894531 62.4375 127.933594 62.460938 127.945312 C 62.484375 127.960938 62.546875 127.988281 62.605469 127.929688 C 63.675781 126.878906 63.664062 125.332031 63.507812 124.660156 C 63.195312 123.316406 64.449219 120.554688 64.503906 120.4375 C 64.726562 119.964844 67.226562 113.753906 67.773438 112.386719 Z M 59.164062 129.386719 C 59.070312 129.386719 58.988281 129.363281 58.921875 129.3125 C 58.648438 129.101562 58.484375 128.632812 58.476562 128.0625 C 58.472656 127.546875 58.609375 125.746094 60.652344 124.089844 C 61.210938 123.636719 61.410156 123.324219 61.542969 122.695312 C 61.546875 122.660156 62.277344 118.066406 62.890625 115.183594 L 62.910156 115.101562 C 63.070312 114.351562 63.234375 113.574219 63.402344 112.101562 C 63.414062 112 63.5 111.921875 63.601562 111.925781 L 68.066406 112 C 68.128906 112.003906 68.191406 112.035156 68.226562 112.085938 C 68.261719 112.140625 68.269531 112.210938 68.242188 112.269531 C 68.117188 112.585938 65.113281 120.066406 64.859375 120.601562 C 64.847656 120.628906 63.605469 123.359375 63.886719 124.574219 C 64.0625 125.320312 64.074219 127.039062 62.878906 128.210938 C 62.714844 128.371094 62.46875 128.402344 62.265625 128.285156 C 62.066406 128.167969 61.96875 127.941406 62.027344 127.71875 C 62.027344 127.71875 62.03125 127.707031 62.03125 127.707031 C 62.089844 127.503906 62.171875 127.277344 62.246094 127.089844 C 62.027344 127.195312 61.742188 127.375 61.472656 127.671875 C 61.1875 127.984375 59.871094 129.386719 59.164062 129.386719 " fill-opacity="1" fill-rule="nonzero"/><path fill="#000000" d="M 73.378906 91.921875 C 72.34375 92.664062 72.871094 93.394531 71.488281 95.171875 C 70.472656 96.476562 69.667969 96.753906 69.632812 97.652344 C 69.601562 98.460938 70.222656 99.085938 70.636719 99.496094 C 72.5 101.371094 75.25 101.371094 76.9375 101.375 C 78.304688 101.375 80.175781 101.375 80.488281 100.542969 C 80.800781 99.71875 79.230469 99.03125 79.203125 97.363281 C 79.179688 96.019531 80.179688 95.710938 80.042969 94.515625 C 79.867188 92.964844 78.023438 92.054688 77.730469 91.910156 C 76.546875 91.324219 74.652344 91.003906 73.378906 91.921875 " fill-opacity="1" fill-rule="nonzero"/><path fill="#000000" d="M 74.515625 91.855469 C 74.515625 91.855469 75.347656 89.367188 73.203125 89.027344 C 71.0625 88.691406 71.828125 91.503906 73.125 92.371094 C 74.421875 93.238281 74.515625 91.855469 74.515625 91.855469 " fill-opacity="1" fill-rule="nonzero"/><path fill="#ffffff" d="M 73.195312 102.554688 L 74.855469 98.234375 C 74.855469 98.234375 74.949219 97.992188 74.855469 97.898438 C 74.609375 97.652344 74.21875 97.15625 74.328125 96.585938 C 74.382812 96.300781 74.585938 95.882812 74.863281 95.871094 C 75.058594 95.859375 75.28125 96.054688 75.421875 96.386719 C 75.5 96.5625 75.742188 96.585938 75.847656 96.425781 C 75.851562 96.425781 75.851562 96.421875 75.851562 96.421875 C 75.957031 96.261719 76.058594 96.082031 76.101562 95.933594 C 76.132812 95.832031 76.222656 95.761719 76.328125 95.761719 C 78.457031 95.722656 77.363281 93.164062 78.742188 93.53125 C 78.792969 93.542969 78.859375 93.59375 78.890625 93.636719 C 79.078125 93.917969 79.214844 94.046875 79.363281 94.328125 C 79.675781 94.921875 79.664062 96.316406 80.277344 96.929688 C 80.347656 97 80.378906 97.105469 80.339844 97.199219 C 80.242188 97.433594 80.027344 97.464844 79.847656 97.558594 C 79.773438 97.597656 79.730469 97.675781 79.730469 97.757812 C 79.71875 98.09375 79.609375 98.875 79.566406 99.476562 C 79.539062 99.851562 79.226562 100.140625 78.847656 100.140625 C 78.550781 100.140625 78.234375 100.105469 77.90625 100.03125 C 77.84375 100.019531 77.773438 100.027344 77.71875 100.066406 C 77.46875 100.230469 77.210938 102.101562 77.085938 103.121094 C 77.035156 103.546875 76.703125 103.890625 76.277344 103.953125 C 76.140625 103.972656 75.546875 104.082031 75.011719 104.097656 C 73.328125 104.148438 72.957031 103.164062 73.195312 102.554688 " fill-opacity="1" fill-rule="nonzero"/><path fill="#000000" d="M 73.195312 102.554688 Z M 74.875 96.066406 C 74.875 96.066406 74.871094 96.066406 74.871094 96.066406 C 74.746094 96.070312 74.570312 96.347656 74.519531 96.621094 C 74.425781 97.105469 74.777344 97.539062 74.992188 97.757812 C 75.160156 97.925781 75.070312 98.21875 75.039062 98.304688 L 73.375 102.625 C 73.28125 102.871094 73.320312 103.152344 73.476562 103.378906 C 73.734375 103.738281 74.273438 103.925781 75.007812 103.902344 C 75.449219 103.890625 75.945312 103.808594 76.15625 103.773438 C 76.195312 103.765625 76.230469 103.761719 76.25 103.757812 C 76.585938 103.710938 76.851562 103.4375 76.890625 103.097656 C 77.25 100.140625 77.492188 99.980469 77.609375 99.902344 C 77.710938 99.835938 77.832031 99.816406 77.949219 99.84375 C 78.257812 99.910156 78.558594 99.945312 78.847656 99.945312 C 78.847656 99.945312 78.847656 99.945312 78.851562 99.945312 C 79.121094 99.945312 79.351562 99.734375 79.371094 99.464844 C 79.390625 99.171875 79.429688 98.835938 79.460938 98.535156 C 79.496094 98.21875 79.527344 97.917969 79.53125 97.75 C 79.539062 97.597656 79.621094 97.457031 79.753906 97.386719 C 79.800781 97.359375 79.851562 97.339844 79.902344 97.316406 C 80.042969 97.257812 80.117188 97.222656 80.160156 97.121094 C 80.164062 97.109375 80.15625 97.085938 80.140625 97.070312 C 79.722656 96.652344 79.574219 95.945312 79.445312 95.320312 C 79.367188 94.960938 79.296875 94.625 79.191406 94.421875 C 79.105469 94.261719 79.023438 94.152344 78.933594 94.03125 C 78.871094 93.949219 78.800781 93.859375 78.726562 93.746094 C 78.722656 93.738281 78.699219 93.722656 78.6875 93.71875 C 78.535156 93.679688 78.421875 93.679688 78.347656 93.726562 C 78.199219 93.8125 78.125 94.089844 78.046875 94.382812 C 77.875 95.035156 77.640625 95.933594 76.328125 95.957031 C 76.3125 95.957031 76.296875 95.96875 76.289062 95.988281 C 76.246094 96.136719 76.15625 96.316406 76.015625 96.527344 C 75.921875 96.667969 75.769531 96.742188 75.605469 96.726562 C 75.445312 96.714844 75.308594 96.613281 75.242188 96.464844 C 75.132812 96.203125 74.972656 96.066406 74.875 96.066406 Z M 74.890625 104.296875 C 73.867188 104.296875 73.382812 103.925781 73.15625 103.605469 C 72.921875 103.273438 72.867188 102.855469 73.011719 102.484375 L 74.675781 98.164062 C 74.691406 98.117188 74.703125 98.050781 74.699219 98.019531 C 74.429688 97.742188 74.011719 97.195312 74.132812 96.550781 C 74.199219 96.207031 74.445312 95.691406 74.855469 95.675781 C 75.144531 95.660156 75.429688 95.90625 75.605469 96.308594 C 75.613281 96.332031 75.628906 96.335938 75.644531 96.339844 C 75.65625 96.339844 75.671875 96.335938 75.683594 96.316406 C 75.835938 96.089844 75.890625 95.953125 75.914062 95.878906 C 75.964844 95.699219 76.132812 95.570312 76.324219 95.566406 C 77.335938 95.546875 77.503906 94.902344 77.667969 94.28125 C 77.769531 93.90625 77.863281 93.554688 78.148438 93.386719 C 78.320312 93.285156 78.53125 93.273438 78.789062 93.339844 C 78.890625 93.367188 78.996094 93.445312 79.054688 93.527344 C 79.121094 93.632812 79.183594 93.714844 79.246094 93.792969 C 79.34375 93.925781 79.4375 94.050781 79.535156 94.238281 C 79.671875 94.492188 79.746094 94.855469 79.828125 95.238281 C 79.945312 95.808594 80.082031 96.457031 80.414062 96.792969 C 80.546875 96.921875 80.585938 97.113281 80.519531 97.273438 C 80.414062 97.523438 80.207031 97.613281 80.058594 97.679688 C 80.015625 97.695312 79.976562 97.710938 79.9375 97.730469 C 79.929688 97.738281 79.925781 97.75 79.925781 97.761719 C 79.917969 97.945312 79.886719 98.238281 79.851562 98.578125 C 79.816406 98.875 79.78125 99.207031 79.761719 99.492188 C 79.726562 99.964844 79.328125 100.335938 78.851562 100.335938 C 78.847656 100.335938 78.847656 100.335938 78.847656 100.335938 C 78.53125 100.335938 78.199219 100.300781 77.863281 100.222656 C 77.859375 100.222656 77.84375 100.21875 77.832031 100.226562 C 77.722656 100.367188 77.515625 101.207031 77.28125 103.144531 C 77.21875 103.660156 76.816406 104.070312 76.308594 104.148438 C 76.289062 104.148438 76.257812 104.15625 76.21875 104.160156 C 76 104.195312 75.484375 104.28125 75.019531 104.292969 C 74.972656 104.296875 74.933594 104.296875 74.890625 104.296875 " fill-opacity="1" fill-rule="nonzero"/><path fill="#000000" d="M 77.90625 100.226562 C 77.894531 100.226562 77.882812 100.226562 77.867188 100.222656 C 76.765625 100 76.097656 99.1875 76.070312 99.152344 C 76 99.066406 76.011719 98.945312 76.097656 98.875 C 76.179688 98.808594 76.304688 98.820312 76.371094 98.90625 C 76.378906 98.910156 76.988281 99.644531 77.945312 99.839844 C 78.050781 99.863281 78.121094 99.964844 78.097656 100.070312 C 78.082031 100.164062 78 100.226562 77.90625 100.226562 " fill-opacity="1" fill-rule="nonzero"/><path fill="#000000" d="M 66.6875 149.917969 C 66.632812 149.917969 66.578125 149.894531 66.539062 149.847656 C 64.082031 146.949219 62.503906 143.519531 61.851562 139.65625 C 61.832031 139.550781 61.90625 139.449219 62.011719 139.429688 C 62.117188 139.410156 62.21875 139.484375 62.238281 139.589844 C 62.878906 143.382812 64.425781 146.75 66.835938 149.597656 C 66.90625 149.679688 66.898438 149.800781 66.816406 149.871094 C 66.777344 149.902344 66.734375 149.917969 66.6875 149.917969 " fill-opacity="1" fill-rule="nonzero"/><path fill="#000000" d="M 65.675781 152.117188 C 65.625 152.117188 65.574219 152.09375 65.535156 152.054688 C 62.839844 149.21875 59.613281 144.503906 59.546875 138.167969 C 59.546875 138.0625 59.632812 137.972656 59.742188 137.972656 C 59.84375 137.96875 59.9375 138.054688 59.9375 138.164062 C 60.003906 144.375 63.171875 149 65.820312 151.785156 C 65.894531 151.863281 65.890625 151.988281 65.8125 152.0625 C 65.773438 152.097656 65.726562 152.117188 65.675781 152.117188 " fill-opacity="1" fill-rule="nonzero"/><path fill="#000000" d="M 157.222656 118.21875 C 157.199219 118.21875 157.183594 118.21875 157.164062 118.210938 C 157.058594 118.179688 157 118.070312 157.035156 117.96875 C 159.0625 111.363281 159.09375 105.007812 157.121094 99.078125 C 157.085938 98.972656 157.140625 98.863281 157.242188 98.828125 C 157.34375 98.796875 157.457031 98.851562 157.492188 98.953125 C 159.488281 104.960938 159.460938 111.398438 157.40625 118.082031 C 157.382812 118.167969 157.304688 118.21875 157.222656 118.21875 " fill-opacity="1" fill-rule="nonzero"/><path fill="#000000" d="M 157.949219 120.859375 C 157.921875 120.859375 157.894531 120.855469 157.867188 120.84375 C 157.769531 120.796875 157.726562 120.679688 157.773438 120.582031 C 160.644531 114.289062 160.734375 108.328125 160.308594 104.429688 C 159.84375 100.207031 158.683594 97.433594 158.667969 97.40625 C 158.628906 97.308594 158.675781 97.191406 158.773438 97.148438 C 158.875 97.109375 158.988281 97.152344 159.03125 97.253906 C 159.042969 97.28125 160.222656 100.09375 160.695312 104.375 C 161.132812 108.320312 161.039062 114.367188 158.128906 120.746094 C 158.09375 120.816406 158.023438 120.859375 157.949219 120.859375 " fill-opacity="1" fill-rule="nonzero"/><path fill="#000000" d="M 103.738281 112.039062 C 103.632812 112.039062 103.542969 111.949219 103.542969 111.84375 L 103.542969 110.828125 C 103.542969 110.722656 103.632812 110.632812 103.738281 110.632812 C 103.847656 110.632812 103.933594 110.722656 103.933594 110.828125 L 103.933594 111.84375 C 103.933594 111.949219 103.847656 112.039062 103.738281 112.039062 " fill-opacity="1" fill-rule="nonzero"/><path fill="#000000" d="M 103.738281 114.398438 C 103.632812 114.398438 103.542969 114.308594 103.542969 114.203125 L 103.542969 113.191406 C 103.542969 113.082031 103.632812 112.992188 103.738281 112.992188 C 103.847656 112.992188 103.933594 113.082031 103.933594 113.191406 L 103.933594 114.203125 C 103.933594 114.308594 103.847656 114.398438 103.738281 114.398438 " fill-opacity="1" fill-rule="nonzero"/><path fill="#000000" d="M 103.066406 112.710938 L 102.054688 112.710938 C 101.945312 112.710938 101.859375 112.625 101.859375 112.515625 C 101.859375 112.40625 101.945312 112.320312 102.054688 112.320312 L 103.066406 112.320312 C 103.175781 112.320312 103.261719 112.40625 103.261719 112.515625 C 103.261719 112.625 103.175781 112.710938 103.066406 112.710938 " fill-opacity="1" fill-rule="nonzero"/><path fill="#000000" d="M 105.425781 112.710938 L 104.414062 112.710938 C 104.304688 112.710938 104.214844 112.625 104.214844 112.515625 C 104.214844 112.40625 104.304688 112.320312 104.414062 112.320312 L 105.425781 112.320312 C 105.535156 112.320312 105.621094 112.40625 105.621094 112.515625 C 105.621094 112.625 105.535156 112.710938 105.425781 112.710938 " fill-opacity="1" fill-rule="nonzero"/><path fill="#000000" d="M 66.953125 89.882812 C 66.847656 89.882812 66.757812 89.796875 66.757812 89.6875 L 66.757812 88.675781 C 66.757812 88.566406 66.847656 88.476562 66.953125 88.476562 C 67.0625 88.476562 67.152344 88.566406 67.152344 88.675781 L 67.152344 89.6875 C 67.152344 89.796875 67.0625 89.882812 66.953125 89.882812 " fill-opacity="1" fill-rule="nonzero"/><path fill="#000000" d="M 66.953125 92.242188 C 66.847656 92.242188 66.757812 92.15625 66.757812 92.046875 L 66.757812 91.035156 C 66.757812 90.925781 66.847656 90.839844 66.953125 90.839844 C 67.0625 90.839844 67.152344 90.925781 67.152344 91.035156 L 67.152344 92.046875 C 67.152344 92.15625 67.0625 92.242188 66.953125 92.242188 " fill-opacity="1" fill-rule="nonzero"/><path fill="#000000" d="M 66.28125 90.554688 L 65.269531 90.554688 C 65.160156 90.554688 65.074219 90.46875 65.074219 90.359375 C 65.074219 90.25 65.160156 90.164062 65.269531 90.164062 L 66.28125 90.164062 C 66.390625 90.164062 66.476562 90.25 66.476562 90.359375 C 66.476562 90.46875 66.390625 90.554688 66.28125 90.554688 " fill-opacity="1" fill-rule="nonzero"/><path fill="#000000" d="M 68.640625 90.554688 L 67.628906 90.554688 C 67.519531 90.554688 67.433594 90.46875 67.433594 90.359375 C 67.433594 90.25 67.519531 90.164062 67.628906 90.164062 L 68.640625 90.164062 C 68.75 90.164062 68.835938 90.25 68.835938 90.359375 C 68.835938 90.46875 68.75 90.554688 68.640625 90.554688 " fill-opacity="1" fill-rule="nonzero"/><path fill="#000000" d="M 145.78125 98.296875 C 145.671875 98.296875 145.585938 98.210938 145.585938 98.101562 L 145.585938 97.089844 C 145.585938 96.980469 145.671875 96.894531 145.78125 96.894531 C 145.890625 96.894531 145.976562 96.980469 145.976562 97.089844 L 145.976562 98.101562 C 145.976562 98.210938 145.890625 98.296875 145.78125 98.296875 " fill-opacity="1" fill-rule="nonzero"/><path fill="#000000" d="M 145.78125 100.65625 C 145.671875 100.65625 145.585938 100.570312 145.585938 100.460938 L 145.585938 99.449219 C 145.585938 99.339844 145.671875 99.253906 145.78125 99.253906 C 145.890625 99.253906 145.976562 99.339844 145.976562 99.449219 L 145.976562 100.460938 C 145.976562 100.570312 145.890625 100.65625 145.78125 100.65625 " fill-opacity="1" fill-rule="nonzero"/><path fill="#000000" d="M 145.109375 98.96875 L 144.09375 98.96875 C 143.988281 98.96875 143.898438 98.882812 143.898438 98.773438 C 143.898438 98.667969 143.988281 98.578125 144.09375 98.578125 L 145.109375 98.578125 C 145.214844 98.578125 145.304688 98.667969 145.304688 98.773438 C 145.304688 98.882812 145.214844 98.96875 145.109375 98.96875 " fill-opacity="1" fill-rule="nonzero"/><path fill="#000000" d="M 147.46875 98.972656 L 146.453125 98.972656 C 146.347656 98.972656 146.257812 98.882812 146.257812 98.777344 C 146.257812 98.667969 146.347656 98.578125 146.453125 98.578125 L 147.46875 98.578125 C 147.574219 98.578125 147.664062 98.667969 147.664062 98.777344 C 147.664062 98.882812 147.574219 98.972656 147.46875 98.972656 " fill-opacity="1" fill-rule="nonzero"/><path fill="#ffffff" d="M 138.292969 133.386719 C 137.691406 133.65625 137.417969 134.378906 137.683594 134.992188 C 137.8125 135.292969 138.050781 135.523438 138.347656 135.640625 C 138.644531 135.753906 138.960938 135.746094 139.25 135.617188 C 139.851562 135.34375 140.125 134.625 139.859375 134.011719 C 139.730469 133.710938 139.492188 133.480469 139.191406 133.363281 C 138.902344 133.25 138.582031 133.257812 138.292969 133.386719 Z M 138.773438 136.109375 C 138.582031 136.109375 138.390625 136.074219 138.207031 136.003906 C 137.808594 135.847656 137.496094 135.546875 137.324219 135.148438 C 136.976562 134.335938 137.335938 133.386719 138.132812 133.03125 C 138.515625 132.859375 138.945312 132.847656 139.335938 133 C 139.734375 133.152344 140.046875 133.457031 140.21875 133.855469 C 140.566406 134.664062 140.203125 135.617188 139.410156 135.972656 C 139.203125 136.066406 138.988281 136.109375 138.773438 136.109375 " fill-opacity="1" fill-rule="nonzero"/><path fill="#000000" d="M 85.808594 95.769531 C 85.726562 95.769531 85.652344 95.722656 85.625 95.640625 C 85.585938 95.539062 85.640625 95.425781 85.742188 95.390625 L 93.539062 92.59375 C 93.640625 92.558594 93.753906 92.609375 93.789062 92.710938 C 93.824219 92.8125 93.773438 92.925781 93.671875 92.960938 L 85.875 95.757812 C 85.851562 95.765625 85.832031 95.769531 85.808594 95.769531 " fill-opacity="1" fill-rule="nonzero"/><path fill="#000000" d="M 85.285156 94.203125 C 85.21875 94.203125 85.15625 94.171875 85.117188 94.109375 C 85.0625 94.019531 85.09375 93.898438 85.183594 93.839844 L 94.601562 88.097656 C 94.691406 88.039062 94.8125 88.070312 94.871094 88.160156 C 94.925781 88.253906 94.898438 88.375 94.804688 88.429688 L 85.386719 94.175781 C 85.355469 94.195312 85.320312 94.203125 85.285156 94.203125 " fill-opacity="1" fill-rule="nonzero"/></svg>