<svg xmlns="http://www.w3.org/2000/svg" xmlns:xlink="http://www.w3.org/1999/xlink" width="300" zoomAndPan="magnify" viewBox="0 0 224.87999 225" height="300" preserveAspectRatio="xMidYMid meet" version="1.0"><path fill="#14697d" d="M 77.597656 146.484375 C 66.316406 135.054688 65 121.449219 62.515625 95.757812 C 60.492188 74.863281 64.558594 71.5 65.78125 70.640625 C 75.875 63.566406 99.839844 81.765625 103.242188 77.289062 C 105.207031 74.707031 97.417969 68.394531 99.21875 65.222656 C 102.449219 59.539062 137.285156 62.503906 153.019531 84.183594 C 168.222656 105.128906 164.941406 142.65625 139.296875 157.246094 C 118.261719 169.214844 91.433594 160.492188 77.597656 146.484375 " fill-opacity="1" fill-rule="nonzero"/><path fill="#000000" d="M 108.125 69.265625 L 65.976562 66.648438 C 64.210938 66.648438 62.859375 68.078125 62.960938 69.839844 L 67.691406 153.785156 C 67.792969 155.546875 69.300781 156.980469 71.066406 156.980469 L 113.011719 154.261719 C 114.777344 154.261719 117.34375 155.546875 117.242188 153.785156 L 112.511719 69.839844 C 112.410156 68.078125 109.890625 69.265625 108.125 69.265625 " fill-opacity="1" fill-rule="nonzero"/><path fill="#000000" d="M 65.964844 66.828125 C 65.171875 66.828125 64.4375 67.140625 63.902344 67.707031 C 63.367188 68.273438 63.097656 69.027344 63.140625 69.832031 L 67.871094 153.773438 C 67.96875 155.441406 69.398438 156.796875 71.066406 156.796875 L 113 154.082031 C 113.003906 154.082031 113.003906 154.082031 113.003906 154.082031 C 113.578125 154.082031 114.203125 154.207031 114.808594 154.324219 C 115.667969 154.496094 116.554688 154.667969 116.894531 154.375 C 117.023438 154.261719 117.078125 154.070312 117.0625 153.792969 L 112.332031 69.851562 C 112.316406 69.570312 112.230469 69.371094 112.074219 69.246094 C 111.660156 68.917969 110.730469 69.082031 109.832031 69.242188 C 109.253906 69.34375 108.660156 69.449219 108.125 69.449219 C 108.121094 69.449219 108.117188 69.449219 108.113281 69.445312 Z M 71.078125 157.160156 C 69.210938 157.160156 67.617188 155.648438 67.511719 153.792969 L 62.78125 69.851562 C 62.730469 68.949219 63.035156 68.097656 63.640625 67.457031 C 64.242188 66.816406 65.070312 66.464844 65.976562 66.464844 L 108.128906 69.085938 C 108.632812 69.085938 109.210938 68.984375 109.769531 68.882812 C 110.792969 68.703125 111.757812 68.535156 112.296875 68.960938 C 112.539062 69.152344 112.671875 69.445312 112.691406 69.832031 L 117.421875 153.773438 C 117.445312 154.164062 117.347656 154.457031 117.132812 154.648438 C 116.65625 155.058594 115.726562 154.875 114.738281 154.679688 C 114.148438 154.566406 113.539062 154.445312 113.011719 154.445312 L 71.078125 157.160156 " fill-opacity="1" fill-rule="nonzero"/><path fill="#a6201e" d="M 111.277344 66.648438 L 68.113281 66.648438 C 66.347656 66.648438 65 68.078125 65.097656 69.839844 L 69.832031 153.785156 C 69.929688 155.546875 71.441406 156.980469 73.207031 156.980469 L 116.367188 156.980469 C 118.132812 156.980469 119.480469 155.546875 119.382812 153.785156 L 114.652344 69.839844 C 114.550781 68.078125 113.039062 66.648438 111.277344 66.648438 " fill-opacity="1" fill-rule="nonzero"/><path fill="#000000" d="M 68.113281 66.828125 C 67.3125 66.828125 66.574219 67.140625 66.039062 67.707031 C 65.503906 68.273438 65.234375 69.027344 65.28125 69.832031 L 70.011719 153.773438 C 70.105469 155.441406 71.539062 156.796875 73.207031 156.796875 L 116.367188 156.796875 C 117.167969 156.796875 117.90625 156.484375 118.441406 155.921875 C 118.976562 155.351562 119.246094 154.597656 119.203125 153.792969 L 114.46875 69.851562 C 114.375 68.183594 112.941406 66.828125 111.277344 66.828125 Z M 116.367188 157.160156 L 73.207031 157.160156 C 71.351562 157.160156 69.753906 155.648438 69.648438 153.792969 L 64.917969 69.851562 C 64.867188 68.949219 65.171875 68.097656 65.777344 67.457031 C 66.382812 66.816406 67.210938 66.464844 68.113281 66.464844 L 111.277344 66.464844 C 113.132812 66.464844 114.726562 67.976562 114.832031 69.832031 L 119.5625 153.773438 C 119.613281 154.679688 119.308594 155.527344 118.703125 156.167969 C 118.101562 156.808594 117.269531 157.160156 116.367188 157.160156 " fill-opacity="1" fill-rule="nonzero"/><path fill="#000000" d="M 77.175781 66.648438 L 77.277344 68.4375 C 77.382812 70.34375 79.015625 71.886719 80.917969 71.886719 L 99.0625 71.886719 C 100.964844 71.886719 102.421875 70.34375 102.316406 68.4375 L 102.214844 66.648438 L 77.175781 66.648438 " fill-opacity="1" fill-rule="nonzero"/><path fill="#a6201e" d="M 89.898438 70.269531 C 89.207031 70.269531 88.613281 69.707031 88.574219 69.015625 C 88.535156 68.324219 89.066406 67.761719 89.757812 67.761719 C 90.449219 67.761719 91.042969 68.324219 91.082031 69.015625 C 91.121094 69.707031 90.589844 70.269531 89.898438 70.269531 " fill-opacity="1" fill-rule="nonzero"/><path fill="#000000" d="M 89.757812 67.945312 C 89.472656 67.945312 89.214844 68.054688 89.023438 68.253906 C 88.835938 68.453125 88.738281 68.71875 88.757812 69.003906 C 88.789062 69.601562 89.300781 70.085938 89.898438 70.085938 C 90.183594 70.085938 90.441406 69.976562 90.632812 69.777344 C 90.820312 69.578125 90.917969 69.308594 90.898438 69.023438 C 90.867188 68.429688 90.355469 67.945312 89.757812 67.945312 Z M 89.898438 70.449219 C 89.113281 70.449219 88.4375 69.808594 88.394531 69.023438 C 88.371094 68.640625 88.503906 68.277344 88.761719 68.003906 C 89.019531 67.730469 89.371094 67.582031 89.757812 67.582031 C 90.542969 67.582031 91.21875 68.21875 91.261719 69.003906 C 91.285156 69.390625 91.152344 69.753906 90.894531 70.027344 C 90.636719 70.296875 90.28125 70.449219 89.898438 70.449219 " fill-opacity="1" fill-rule="nonzero"/><path fill="#ffffff" d="M 73.90625 105.589844 C 73.859375 105.589844 73.8125 105.570312 73.777344 105.535156 C 73.707031 105.464844 73.707031 105.351562 73.777344 105.28125 L 108.679688 70.378906 C 108.75 70.308594 108.863281 70.308594 108.933594 70.378906 C 109.003906 70.449219 109.003906 70.566406 108.933594 70.636719 L 74.035156 105.535156 C 74 105.570312 73.953125 105.589844 73.90625 105.589844 " fill-opacity="1" fill-rule="nonzero"/><path fill="#ffffff" d="M 72.378906 115.558594 C 72.332031 115.558594 72.285156 115.542969 72.25 115.507812 C 72.179688 115.4375 72.179688 115.320312 72.25 115.25 L 76.105469 111.394531 C 76.175781 111.324219 76.289062 111.324219 76.363281 111.394531 C 76.433594 111.464844 76.433594 111.582031 76.363281 111.652344 L 72.507812 115.507812 C 72.472656 115.542969 72.425781 115.558594 72.378906 115.558594 " fill-opacity="1" fill-rule="nonzero"/><path fill="#ffffff" d="M 82.921875 105.015625 C 82.875 105.015625 82.828125 105 82.792969 104.964844 C 82.722656 104.894531 82.722656 104.777344 82.792969 104.707031 L 107.148438 80.351562 C 107.21875 80.28125 107.335938 80.28125 107.40625 80.351562 C 107.476562 80.421875 107.476562 80.535156 107.40625 80.605469 L 83.050781 104.964844 C 83.011719 105 82.96875 105.015625 82.921875 105.015625 " fill-opacity="1" fill-rule="nonzero"/><path fill="#a6201e" d="M 118.738281 154.390625 C 118.1875 154.039062 119.730469 152.152344 119.089844 149.363281 C 118.753906 147.894531 118.164062 147.71875 118.117188 146.355469 C 118.050781 144.410156 119.179688 142.980469 119.34375 142.777344 C 120.167969 141.761719 120.542969 142.089844 121.90625 140.917969 C 122.644531 140.285156 124.320312 138.839844 124.570312 136.796875 C 124.691406 135.773438 124.316406 135.632812 124.570312 134.785156 C 125.03125 133.242188 126.710938 131.875 127.683594 132.273438 C 128.332031 132.535156 128.621094 133.570312 128.589844 134.382812 C 128.515625 136.160156 126.75 136.460938 126.378906 138.304688 C 126.027344 140.042969 127.453125 140.542969 127.082031 142.023438 C 126.578125 144.03125 123.808594 143.742188 122.859375 146.046875 C 122.230469 147.566406 123.253906 148.160156 122.757812 150.167969 C 122.082031 152.90625 119.351562 154.78125 118.738281 154.390625 " fill-opacity="1" fill-rule="nonzero"/><path fill="#ffffff" d="M 126.21875 134.703125 C 126.183594 135.542969 126.085938 136.378906 125.898438 137.199219 C 125.714844 138.019531 125.441406 138.820312 125.066406 139.578125 C 124.695312 140.335938 124.222656 141.042969 123.664062 141.675781 C 123.386719 141.992188 123.089844 142.292969 122.777344 142.578125 C 122.464844 142.859375 122.136719 143.125 121.808594 143.390625 C 121.484375 143.652344 121.15625 143.910156 120.851562 144.191406 C 120.550781 144.472656 120.273438 144.78125 120.089844 145.140625 C 120 145.320312 119.933594 145.507812 119.890625 145.703125 C 119.851562 145.902344 119.839844 146.101562 119.847656 146.304688 C 119.859375 146.707031 119.964844 147.101562 120.113281 147.488281 C 120.257812 147.875 120.433594 148.257812 120.566406 148.664062 C 120.703125 149.070312 120.789062 149.503906 120.777344 149.941406 C 120.78125 150.054688 120.765625 150.160156 120.753906 150.269531 C 120.746094 150.324219 120.742188 150.378906 120.734375 150.433594 L 120.699219 150.59375 C 120.660156 150.804688 120.59375 151.015625 120.511719 151.214844 C 120.351562 151.621094 120.128906 151.996094 119.855469 152.332031 C 119.804688 152.398438 119.710938 152.410156 119.644531 152.355469 C 119.578125 152.304688 119.570312 152.210938 119.621094 152.144531 C 119.878906 151.832031 120.09375 151.480469 120.246094 151.109375 C 120.324219 150.921875 120.386719 150.730469 120.429688 150.53125 L 120.460938 150.382812 C 120.472656 150.335938 120.476562 150.285156 120.480469 150.234375 C 120.496094 150.136719 120.511719 150.035156 120.507812 149.9375 C 120.523438 149.535156 120.449219 149.132812 120.324219 148.742188 C 120.203125 148.351562 120.03125 147.972656 119.886719 147.570312 C 119.742188 147.171875 119.632812 146.746094 119.625 146.308594 C 119.617188 146.09375 119.636719 145.875 119.683594 145.660156 C 119.726562 145.445312 119.804688 145.238281 119.90625 145.046875 C 120.109375 144.65625 120.410156 144.335938 120.722656 144.050781 C 121.039062 143.765625 121.371094 143.511719 121.699219 143.25 C 122.03125 142.992188 122.355469 142.734375 122.667969 142.457031 C 122.980469 142.179688 123.277344 141.890625 123.558594 141.582031 C 124.113281 140.960938 124.589844 140.269531 124.964844 139.527344 C 125.34375 138.785156 125.625 137.992188 125.820312 137.179688 C 126.015625 136.367188 126.121094 135.535156 126.171875 134.699219 C 126.171875 134.6875 126.183594 134.675781 126.195312 134.675781 C 126.210938 134.675781 126.21875 134.6875 126.21875 134.703125 " fill-opacity="1" fill-rule="nonzero"/><path fill="#ffffff" d="M 120.445312 122.21875 C 121.320312 122.042969 122.488281 124.449219 123.160156 125.835938 C 124.347656 128.285156 125.167969 129.976562 124.769531 131.871094 C 124.207031 134.535156 121.917969 134.277344 120.949219 137.097656 C 119.914062 140.109375 122.292969 141.070312 121.25 144.4375 C 120.523438 146.789062 118.789062 148.183594 119.441406 149.964844 C 119.683594 150.628906 120.039062 150.746094 120.144531 151.472656 C 120.382812 153.097656 118.984375 155.011719 118.035156 154.890625 C 117.683594 154.847656 117.46875 154.539062 116.625 152.882812 C 115.601562 150.871094 115.089844 149.863281 115.019531 149.5625 C 114.332031 146.761719 117.15625 145.671875 117.230469 142.425781 C 117.296875 139.339844 114.769531 139.042969 114.816406 136.09375 C 114.863281 133.152344 117.378906 132.867188 118.9375 128.453125 C 120.171875 124.957031 119.5625 122.394531 120.445312 122.21875 " fill-opacity="1" fill-rule="nonzero"/><path fill="#14697d" d="M 120.054688 131.636719 C 119.476562 132.382812 118.976562 133.191406 118.617188 134.0625 C 118.257812 134.929688 118.03125 135.859375 117.996094 136.796875 C 117.992188 136.914062 117.984375 137.03125 117.984375 137.148438 L 117.996094 137.5 C 118 137.558594 118 137.617188 118.007812 137.675781 L 118.027344 137.847656 C 118.042969 137.964844 118.050781 138.082031 118.070312 138.195312 C 118.148438 138.660156 118.277344 139.109375 118.429688 139.554688 C 118.582031 140 118.765625 140.4375 118.917969 140.886719 C 119.074219 141.335938 119.210938 141.800781 119.257812 142.28125 C 119.28125 142.398438 119.277344 142.519531 119.285156 142.640625 L 119.292969 142.820312 C 119.296875 142.878906 119.289062 142.941406 119.289062 143 L 119.269531 143.359375 L 119.214844 143.71875 C 119.136719 144.191406 119.011719 144.660156 118.816406 145.101562 C 118.625 145.542969 118.378906 145.957031 118.117188 146.355469 C 117.855469 146.75 117.585938 147.136719 117.375 147.546875 C 116.9375 148.363281 116.851562 149.320312 117.03125 150.222656 C 117.210938 151.128906 117.648438 151.96875 118.207031 152.707031 C 118.257812 152.773438 118.242188 152.867188 118.175781 152.917969 C 118.109375 152.96875 118.015625 152.957031 117.964844 152.890625 L 117.964844 152.886719 C 117.394531 152.117188 116.941406 151.230469 116.765625 150.273438 C 116.726562 150.035156 116.691406 149.792969 116.683594 149.550781 C 116.675781 149.429688 116.6875 149.304688 116.6875 149.183594 L 116.695312 149.003906 L 116.71875 148.820312 C 116.773438 148.335938 116.933594 147.863281 117.160156 147.4375 C 117.386719 147.007812 117.667969 146.621094 117.929688 146.230469 C 118.191406 145.839844 118.433594 145.441406 118.621094 145.015625 C 118.816406 144.59375 118.941406 144.140625 119.023438 143.683594 L 119.078125 143.339844 L 119.097656 142.992188 C 119.101562 142.9375 119.109375 142.878906 119.105469 142.820312 L 119.101562 142.644531 C 119.09375 142.53125 119.097656 142.414062 119.078125 142.300781 C 118.988281 141.367188 118.589844 140.503906 118.285156 139.605469 C 118.136719 139.152344 118.011719 138.691406 117.9375 138.21875 C 117.917969 138.101562 117.910156 137.980469 117.894531 137.863281 L 117.875 137.683594 C 117.871094 137.625 117.871094 137.566406 117.871094 137.503906 L 117.859375 137.148438 C 117.859375 137.027344 117.871094 136.910156 117.878906 136.789062 C 117.921875 135.835938 118.164062 134.902344 118.535156 134.027344 C 118.90625 133.152344 119.417969 132.34375 120.003906 131.601562 C 120.015625 131.585938 120.035156 131.585938 120.046875 131.59375 C 120.0625 131.605469 120.0625 131.625 120.054688 131.636719 " fill-opacity="1" fill-rule="nonzero"/><path fill="#ffbf23" d="M 118.65625 159.515625 L 118.011719 159.515625 C 116.523438 159.515625 115.320312 158.308594 115.320312 156.824219 L 115.320312 153.484375 L 121.351562 153.484375 L 121.351562 156.824219 C 121.351562 158.308594 120.144531 159.515625 118.65625 159.515625 " fill-opacity="1" fill-rule="nonzero"/><path fill="#ffffff" d="M 72.105469 73.289062 C 71.332031 73.734375 70.34375 73.472656 69.898438 72.699219 C 69.449219 71.925781 69.714844 70.9375 70.488281 70.492188 C 71.257812 70.042969 72.25 70.308594 72.695312 71.078125 C 73.140625 71.851562 72.878906 72.839844 72.105469 73.289062 Z M 74.265625 70.535156 L 73.949219 69.992188 L 73.296875 70.195312 C 73.199219 70.082031 73.097656 69.980469 72.988281 69.886719 L 73.1875 69.230469 L 72.644531 68.917969 L 72.179688 69.421875 C 72.042969 69.375 71.902344 69.335938 71.757812 69.308594 L 71.605469 68.640625 L 70.980469 68.640625 L 70.828125 69.308594 C 70.6875 69.335938 70.546875 69.375 70.40625 69.425781 L 69.941406 68.921875 L 69.398438 69.234375 L 69.601562 69.890625 C 69.488281 69.984375 69.386719 70.089844 69.292969 70.199219 L 68.640625 69.996094 L 68.324219 70.539062 L 68.828125 71.003906 C 68.78125 71.140625 68.742188 71.285156 68.71875 71.425781 L 68.046875 71.578125 L 68.050781 72.207031 L 68.71875 72.355469 C 68.742188 72.5 68.78125 72.640625 68.832031 72.777344 L 68.328125 73.246094 L 68.644531 73.789062 L 69.296875 73.582031 C 69.394531 73.695312 69.496094 73.800781 69.605469 73.894531 L 69.402344 74.546875 L 69.949219 74.859375 L 70.414062 74.355469 C 70.550781 74.40625 70.691406 74.441406 70.835938 74.46875 L 70.984375 75.136719 L 71.613281 75.136719 L 71.765625 74.46875 C 71.90625 74.441406 72.046875 74.402344 72.1875 74.355469 L 72.652344 74.855469 L 73.195312 74.542969 L 72.992188 73.886719 C 73.101562 73.792969 73.207031 73.691406 73.300781 73.578125 L 73.953125 73.78125 L 74.265625 73.238281 L 73.761719 72.773438 C 73.8125 72.636719 73.851562 72.496094 73.875 72.351562 L 74.542969 72.199219 L 74.542969 71.570312 L 73.875 71.421875 C 73.851562 71.28125 73.8125 71.136719 73.761719 71 L 74.265625 70.535156 " fill-opacity="1" fill-rule="nonzero"/><path fill="#ffffff" d="M 79.542969 84.441406 C 77.902344 85.390625 75.800781 84.832031 74.851562 83.191406 C 73.902344 81.546875 74.464844 79.449219 76.105469 78.5 C 77.746094 77.550781 79.847656 78.109375 80.796875 79.75 C 81.746094 81.390625 81.183594 83.492188 79.542969 84.441406 Z M 84.128906 78.59375 L 83.460938 77.4375 L 82.070312 77.871094 C 81.867188 77.632812 81.648438 77.410156 81.414062 77.214844 L 81.84375 75.824219 L 80.691406 75.160156 L 79.703125 76.230469 C 79.410156 76.125 79.109375 76.046875 78.804688 75.992188 L 78.484375 74.570312 L 77.148438 74.570312 L 76.832031 75.992188 C 76.53125 76.046875 76.230469 76.128906 75.933594 76.234375 L 74.945312 75.164062 L 73.792969 75.832031 L 74.226562 77.222656 C 73.984375 77.425781 73.765625 77.644531 73.566406 77.878906 L 72.179688 77.449219 L 71.511719 78.605469 L 72.585938 79.589844 C 72.480469 79.882812 72.398438 80.183594 72.34375 80.488281 L 70.925781 80.8125 L 70.925781 82.144531 L 72.34375 82.464844 C 72.398438 82.765625 72.480469 83.066406 72.589844 83.359375 L 71.519531 84.347656 L 72.1875 85.503906 L 73.578125 85.070312 C 73.78125 85.308594 74 85.527344 74.234375 85.726562 L 73.804688 87.117188 L 74.957031 87.78125 L 75.945312 86.710938 C 76.238281 86.816406 76.539062 86.894531 76.84375 86.949219 L 77.164062 88.371094 L 78.5 88.367188 L 78.816406 86.949219 C 79.121094 86.894531 79.417969 86.8125 79.714844 86.707031 L 80.703125 87.773438 L 81.855469 87.105469 L 81.421875 85.71875 C 81.664062 85.515625 81.882812 85.296875 82.082031 85.058594 L 83.46875 85.492188 L 84.136719 84.335938 L 83.0625 83.347656 C 83.167969 83.054688 83.25 82.757812 83.304688 82.453125 L 84.722656 82.128906 L 84.722656 80.796875 L 83.304688 80.476562 C 83.25 80.175781 83.167969 79.875 83.058594 79.582031 L 84.128906 78.59375 " fill-opacity="1" fill-rule="nonzero"/><path fill="#000000" d="M 78.910156 84.273438 Z M 77.183594 78.046875 C 76.621094 78.046875 76.0625 78.195312 75.5625 78.488281 C 74.007812 79.386719 73.476562 81.378906 74.375 82.929688 C 75.273438 84.484375 77.265625 85.015625 78.820312 84.117188 C 80.371094 83.21875 80.902344 81.226562 80.003906 79.671875 C 79.570312 78.921875 78.867188 78.382812 78.027344 78.160156 C 77.75 78.085938 77.464844 78.046875 77.183594 78.046875 Z M 77.195312 84.914062 C 75.949219 84.914062 74.730469 84.269531 74.0625 83.113281 C 73.0625 81.386719 73.65625 79.171875 75.378906 78.175781 C 76.214844 77.691406 77.1875 77.5625 78.121094 77.808594 C 79.054688 78.058594 79.835938 78.65625 80.316406 79.492188 C 81.316406 81.214844 80.726562 83.429688 79 84.429688 C 78.433594 84.757812 77.808594 84.914062 77.195312 84.914062 Z M 75.3125 86.359375 C 75.332031 86.359375 75.351562 86.363281 75.371094 86.371094 C 75.65625 86.472656 75.945312 86.550781 76.242188 86.601562 C 76.3125 86.617188 76.371094 86.667969 76.386719 86.742188 L 76.675781 88.019531 L 77.71875 88.019531 L 78.007812 86.742188 C 78.023438 86.667969 78.078125 86.617188 78.152344 86.601562 C 78.441406 86.550781 78.734375 86.472656 79.019531 86.367188 C 79.085938 86.34375 79.164062 86.359375 79.210938 86.414062 L 80.105469 87.378906 L 81.007812 86.855469 L 80.617188 85.601562 C 80.59375 85.53125 80.617188 85.457031 80.671875 85.410156 C 80.902344 85.214844 81.117188 85 81.308594 84.773438 C 81.355469 84.71875 81.429688 84.695312 81.5 84.71875 L 82.75 85.105469 L 83.273438 84.203125 L 82.308594 83.3125 C 82.253906 83.261719 82.234375 83.1875 82.257812 83.117188 C 82.359375 82.835938 82.4375 82.546875 82.492188 82.25 C 82.503906 82.179688 82.558594 82.121094 82.628906 82.105469 L 83.910156 81.816406 L 83.90625 80.773438 L 82.628906 80.484375 C 82.558594 80.46875 82.503906 80.414062 82.492188 80.339844 C 82.4375 80.050781 82.359375 79.757812 82.253906 79.472656 C 82.230469 79.40625 82.25 79.328125 82.304688 79.277344 L 83.265625 78.386719 L 82.742188 77.484375 L 81.492188 77.875 C 81.421875 77.898438 81.34375 77.875 81.296875 77.820312 C 81.101562 77.589844 80.890625 77.375 80.664062 77.183594 C 80.609375 77.136719 80.585938 77.0625 80.605469 76.992188 L 80.996094 75.742188 L 80.089844 75.21875 L 79.203125 76.183594 C 79.152344 76.238281 79.074219 76.257812 79.007812 76.230469 C 78.726562 76.132812 78.433594 76.054688 78.140625 76 C 78.066406 75.988281 78.011719 75.933594 77.996094 75.863281 L 77.703125 74.582031 L 76.660156 74.585938 L 76.375 75.863281 C 76.359375 75.933594 76.300781 75.988281 76.230469 76 C 75.941406 76.054688 75.648438 76.132812 75.363281 76.234375 C 75.292969 76.261719 75.21875 76.242188 75.167969 76.1875 L 74.277344 75.226562 L 73.375 75.75 L 73.765625 77 C 73.785156 77.070312 73.765625 77.144531 73.707031 77.195312 C 73.476562 77.390625 73.261719 77.601562 73.074219 77.828125 C 73.027344 77.882812 72.949219 77.90625 72.878906 77.882812 L 71.628906 77.496094 L 71.109375 78.402344 L 72.074219 79.289062 C 72.125 79.339844 72.144531 79.417969 72.121094 79.484375 C 72.019531 79.765625 71.941406 80.058594 71.890625 80.351562 C 71.875 80.421875 71.824219 80.480469 71.75 80.496094 L 70.472656 80.785156 L 70.472656 81.832031 L 71.75 82.117188 C 71.820312 82.132812 71.875 82.191406 71.890625 82.261719 C 71.941406 82.550781 72.019531 82.84375 72.125 83.128906 C 72.148438 83.199219 72.132812 83.273438 72.078125 83.324219 L 71.113281 84.214844 L 71.636719 85.117188 L 72.890625 84.726562 C 72.960938 84.707031 73.035156 84.726562 73.082031 84.78125 C 73.277344 85.015625 73.492188 85.230469 73.71875 85.417969 C 73.773438 85.464844 73.792969 85.542969 73.773438 85.609375 L 73.386719 86.863281 L 74.289062 87.382812 L 75.179688 86.417969 C 75.214844 86.378906 75.261719 86.359375 75.3125 86.359375 Z M 76.53125 88.382812 C 76.445312 88.382812 76.371094 88.324219 76.355469 88.242188 L 76.058594 86.9375 C 75.824219 86.890625 75.589844 86.828125 75.363281 86.75 L 74.457031 87.734375 C 74.402344 87.796875 74.308594 87.8125 74.234375 87.769531 L 73.078125 87.105469 C 73.003906 87.0625 72.972656 86.972656 72.996094 86.894531 L 73.390625 85.617188 C 73.214844 85.460938 73.042969 85.289062 72.882812 85.109375 L 71.605469 85.507812 C 71.527344 85.53125 71.4375 85.5 71.398438 85.425781 L 70.730469 84.269531 C 70.6875 84.199219 70.699219 84.105469 70.761719 84.046875 L 71.746094 83.140625 C 71.667969 82.910156 71.605469 82.675781 71.554688 82.445312 L 70.253906 82.152344 C 70.167969 82.132812 70.109375 82.0625 70.109375 81.976562 L 70.109375 80.640625 C 70.109375 80.558594 70.167969 80.484375 70.25 80.464844 L 71.554688 80.171875 C 71.601562 79.9375 71.664062 79.703125 71.742188 79.476562 L 70.757812 78.570312 C 70.695312 78.511719 70.679688 78.417969 70.722656 78.347656 L 71.386719 77.191406 C 71.429688 77.117188 71.515625 77.082031 71.597656 77.109375 L 72.875 77.503906 C 73.03125 77.328125 73.203125 77.15625 73.382812 76.996094 L 72.984375 75.71875 C 72.960938 75.636719 72.992188 75.550781 73.066406 75.507812 L 74.222656 74.839844 C 74.292969 74.796875 74.386719 74.8125 74.445312 74.875 L 75.351562 75.855469 C 75.582031 75.777344 75.816406 75.714844 76.046875 75.667969 L 76.339844 74.363281 C 76.359375 74.28125 76.429688 74.222656 76.515625 74.222656 L 77.847656 74.222656 C 77.933594 74.222656 78.007812 74.28125 78.027344 74.363281 L 78.320312 75.667969 C 78.554688 75.714844 78.789062 75.777344 79.015625 75.851562 L 79.921875 74.867188 C 79.980469 74.804688 80.070312 74.792969 80.144531 74.832031 L 81.300781 75.5 C 81.375 75.542969 81.410156 75.628906 81.382812 75.710938 L 80.988281 76.984375 C 81.164062 77.144531 81.335938 77.3125 81.496094 77.496094 L 82.773438 77.097656 C 82.855469 77.070312 82.941406 77.105469 82.984375 77.179688 L 83.652344 78.332031 C 83.695312 78.40625 83.679688 78.5 83.617188 78.554688 L 82.636719 79.464844 C 82.714844 79.695312 82.777344 79.925781 82.824219 80.160156 L 84.128906 80.449219 C 84.210938 80.46875 84.269531 80.542969 84.269531 80.628906 L 84.269531 81.960938 C 84.269531 82.046875 84.210938 82.117188 84.128906 82.136719 L 82.824219 82.433594 C 82.777344 82.667969 82.714844 82.898438 82.640625 83.125 L 83.625 84.035156 C 83.6875 84.089844 83.699219 84.183594 83.65625 84.257812 L 82.992188 85.414062 C 82.949219 85.484375 82.863281 85.519531 82.78125 85.496094 L 81.503906 85.097656 C 81.347656 85.277344 81.179688 85.449219 80.996094 85.609375 L 81.394531 86.882812 C 81.421875 86.964844 81.386719 87.054688 81.3125 87.09375 L 80.160156 87.761719 C 80.085938 87.804688 79.992188 87.792969 79.9375 87.730469 L 79.027344 86.746094 C 78.796875 86.824219 78.566406 86.886719 78.332031 86.9375 L 78.042969 88.238281 C 78.023438 88.320312 77.949219 88.378906 77.863281 88.382812 L 76.53125 88.382812 " fill-opacity="1" fill-rule="nonzero"/><path fill="#ffffff" d="M 123.898438 93.460938 L 121.140625 93.460938 L 121.140625 85.742188 L 123.898438 85.742188 C 124.5625 85.742188 125.101562 86.277344 125.101562 86.941406 L 125.101562 92.257812 C 125.101562 92.921875 124.5625 93.460938 123.898438 93.460938 " fill-opacity="1" fill-rule="nonzero"/><path fill="#000000" d="M 121.320312 93.277344 L 121.570312 93.277344 C 123.417969 93.277344 124.921875 91.777344 124.921875 89.929688 L 124.921875 89.269531 C 124.921875 87.421875 123.417969 85.921875 121.570312 85.921875 L 121.320312 85.921875 Z M 121.570312 93.640625 L 121.140625 93.640625 C 121.039062 93.640625 120.960938 93.558594 120.960938 93.460938 L 120.960938 85.742188 C 120.960938 85.640625 121.039062 85.558594 121.140625 85.558594 L 121.570312 85.558594 C 123.617188 85.558594 125.28125 87.222656 125.28125 89.269531 L 125.28125 89.929688 C 125.28125 91.976562 123.617188 93.640625 121.570312 93.640625 " fill-opacity="1" fill-rule="nonzero"/><path fill="#ffffff" d="M 83.53125 93.460938 L 86.289062 93.460938 L 86.289062 85.742188 L 83.53125 85.742188 C 82.867188 85.742188 82.328125 86.277344 82.328125 86.941406 L 82.328125 92.257812 C 82.328125 92.921875 82.867188 93.460938 83.53125 93.460938 " fill-opacity="1" fill-rule="nonzero"/><path fill="#000000" d="M 85.859375 85.921875 C 84.011719 85.921875 82.511719 87.421875 82.511719 89.269531 L 82.511719 89.929688 C 82.511719 91.777344 84.011719 93.277344 85.859375 93.277344 L 86.109375 93.277344 L 86.109375 85.921875 Z M 86.289062 93.640625 L 85.859375 93.640625 C 83.8125 93.640625 82.148438 91.976562 82.148438 89.929688 L 82.148438 89.269531 C 82.148438 87.222656 83.8125 85.558594 85.859375 85.558594 L 86.289062 85.558594 C 86.390625 85.558594 86.46875 85.640625 86.46875 85.742188 L 86.46875 93.460938 C 86.46875 93.558594 86.390625 93.640625 86.289062 93.640625 " fill-opacity="1" fill-rule="nonzero"/><path fill="#ffffff" d="M 85.042969 89.28125 C 85.042969 80.988281 93.402344 72.40625 103.714844 72.40625 C 114.027344 72.40625 122.386719 80.988281 122.386719 89.28125 C 122.386719 97.574219 114.027344 102.445312 103.714844 102.445312 C 93.402344 102.445312 85.042969 97.574219 85.042969 89.28125 " fill-opacity="1" fill-rule="nonzero"/><path fill="#000000" d="M 103.714844 72.589844 C 93.132812 72.589844 85.222656 81.402344 85.222656 89.28125 C 85.222656 93.171875 87.085938 96.472656 90.613281 98.820312 C 93.9375 101.039062 98.589844 102.261719 103.714844 102.261719 C 108.839844 102.261719 113.492188 101.039062 116.816406 98.820312 C 120.34375 96.472656 122.207031 93.171875 122.207031 89.28125 C 122.207031 81.402344 114.296875 72.589844 103.714844 72.589844 Z M 103.714844 102.625 C 98.519531 102.625 93.796875 101.382812 90.410156 99.125 C 86.78125 96.703125 84.859375 93.296875 84.859375 89.28125 C 84.859375 85.164062 86.875 80.910156 90.386719 77.601562 C 94.070312 74.136719 98.800781 72.226562 103.714844 72.226562 C 108.628906 72.226562 113.359375 74.136719 117.042969 77.601562 C 120.554688 80.910156 122.570312 85.164062 122.570312 89.28125 C 122.570312 93.296875 120.648438 96.703125 117.019531 99.125 C 113.632812 101.382812 108.910156 102.625 103.714844 102.625 " fill-opacity="1" fill-rule="nonzero"/><path fill="#ffffff" d="M 108.390625 104.933594 L 99.039062 104.933594 C 94.9375 104.933594 91.613281 108.257812 91.613281 112.359375 C 91.613281 115.066406 91.878906 117.769531 92.402344 120.425781 L 93.746094 127.238281 C 94.6875 132 98.863281 135.429688 103.714844 135.429688 C 108.566406 135.429688 112.742188 132 113.683594 127.238281 L 115.027344 120.425781 C 115.550781 117.769531 115.816406 115.066406 115.816406 112.359375 C 115.816406 108.257812 112.492188 104.933594 108.390625 104.933594 " fill-opacity="1" fill-rule="nonzero"/><path fill="#000000" d="M 99.039062 105.117188 C 95.042969 105.117188 91.796875 108.367188 91.796875 112.359375 C 91.796875 115.050781 92.058594 117.753906 92.582031 120.390625 L 93.925781 127.203125 C 94.847656 131.867188 98.960938 135.25 103.714844 135.25 C 108.46875 135.25 112.582031 131.867188 113.503906 127.203125 L 114.847656 120.390625 C 115.371094 117.753906 115.636719 115.050781 115.636719 112.359375 C 115.636719 108.367188 112.386719 105.117188 108.390625 105.117188 Z M 103.714844 135.613281 C 98.789062 135.613281 94.523438 132.105469 93.570312 127.273438 L 92.226562 120.460938 C 91.699219 117.800781 91.433594 115.074219 91.433594 112.359375 C 91.433594 108.164062 94.84375 104.753906 99.039062 104.753906 L 108.390625 104.753906 C 112.585938 104.753906 115.996094 108.164062 115.996094 112.359375 C 115.996094 115.074219 115.730469 117.800781 115.203125 120.460938 L 113.859375 127.273438 C 112.90625 132.105469 108.640625 135.613281 103.714844 135.613281 " fill-opacity="1" fill-rule="nonzero"/><path fill="#ffbf23" d="M 104.152344 121.382812 L 103.277344 121.382812 C 100.707031 121.382812 98.625 119.300781 98.625 116.726562 L 98.625 104.933594 L 108.808594 104.933594 L 108.808594 116.726562 C 108.808594 119.300781 106.722656 121.382812 104.152344 121.382812 " fill-opacity="1" fill-rule="nonzero"/><path fill="#000000" d="M 108.808594 105.117188 L 98.625 105.117188 C 98.523438 105.117188 98.441406 105.035156 98.441406 104.933594 C 98.441406 104.835938 98.523438 104.753906 98.625 104.753906 L 108.808594 104.753906 C 108.90625 104.753906 108.988281 104.835938 108.988281 104.933594 C 108.988281 105.035156 108.90625 105.117188 108.808594 105.117188 " fill-opacity="1" fill-rule="nonzero"/><path fill="#000000" d="M 116.269531 86.792969 L 98.289062 86.792969 C 96.417969 86.792969 94.90625 88.425781 94.90625 90.4375 L 94.90625 92.816406 C 94.90625 94.351562 95.722656 95.976562 97.136719 96.242188 C 102.121094 97.179688 112.433594 97.179688 117.417969 96.242188 C 118.832031 95.976562 119.652344 94.351562 119.652344 92.816406 L 119.652344 90.4375 C 119.652344 88.425781 118.136719 86.792969 116.269531 86.792969 " fill-opacity="1" fill-rule="nonzero"/><path fill="#ffbf23" d="M 103.160156 91.578125 C 103.160156 92.253906 102.65625 92.796875 102.027344 92.796875 C 101.402344 92.796875 100.894531 92.253906 100.894531 91.578125 C 100.894531 90.902344 101.402344 90.355469 102.027344 90.355469 C 102.65625 90.355469 103.160156 90.902344 103.160156 91.578125 " fill-opacity="1" fill-rule="nonzero"/><path fill="#ffbf23" d="M 114.625 91.578125 C 114.625 92.253906 114.117188 92.796875 113.492188 92.796875 C 112.867188 92.796875 112.359375 92.253906 112.359375 91.578125 C 112.359375 90.902344 112.867188 90.355469 113.492188 90.355469 C 114.117188 90.355469 114.625 90.902344 114.625 91.578125 " fill-opacity="1" fill-rule="nonzero"/><path fill="#ffffff" d="M 100.324219 114.988281 C 100.277344 114.988281 100.230469 114.96875 100.195312 114.933594 C 100.125 114.863281 100.125 114.75 100.195312 114.679688 L 106.976562 107.894531 C 107.046875 107.824219 107.164062 107.824219 107.234375 107.894531 C 107.304688 107.96875 107.304688 108.082031 107.234375 108.152344 L 100.453125 114.933594 C 100.417969 114.96875 100.371094 114.988281 100.324219 114.988281 " fill-opacity="1" fill-rule="nonzero"/><path fill="#ffffff" d="M 101.808594 117.820312 C 101.761719 117.820312 101.714844 117.804688 101.679688 117.769531 C 101.609375 117.699219 101.609375 117.582031 101.679688 117.511719 L 105.492188 113.699219 C 105.566406 113.628906 105.679688 113.628906 105.75 113.699219 C 105.820312 113.769531 105.820312 113.882812 105.75 113.953125 L 101.9375 117.769531 C 101.902344 117.804688 101.855469 117.820312 101.808594 117.820312 " fill-opacity="1" fill-rule="nonzero"/><path fill="#000000" d="M 136.6875 92.289062 C 136.085938 92.253906 135.378906 92.414062 133.96875 92.734375 C 132.695312 93.023438 132.34375 93.214844 132.1875 93.550781 C 131.933594 94.09375 132.316406 94.765625 132.429688 94.96875 C 133.082031 96.109375 134.269531 96.257812 135.054688 96.777344 C 137.59375 98.460938 136.300781 101.324219 138.40625 103.113281 C 140.410156 104.820312 142.28125 102.816406 145.886719 104.441406 C 148.726562 105.722656 148.460938 107.367188 150.777344 108.09375 C 153.605469 108.980469 158.035156 107.789062 159.828125 104.230469 C 161.539062 100.847656 160.355469 96.332031 158.050781 95.179688 C 155.953125 94.128906 154.332031 96.445312 151.53125 95.359375 C 148.769531 94.289062 148.554688 91.324219 146.402344 91.359375 C 145.886719 91.371094 145.992188 91.539062 142.601562 92.765625 C 141.027344 93.332031 140.839844 93.355469 140.667969 93.367188 C 138.976562 93.480469 138.625 92.394531 136.6875 92.289062 " fill-opacity="1" fill-rule="nonzero"/><path fill="#ffbf23" d="M 130.621094 109.65625 C 129.414062 117.050781 129.273438 117.160156 129.109375 117.933594 C 129.109375 117.933594 128.632812 120.113281 128.5 122.210938 C 128.382812 124.03125 128.726562 134.960938 134.378906 137.371094 C 136.417969 138.238281 137.007812 136.640625 141.355469 136.816406 C 145.808594 136.992188 146.710938 138.578125 148.652344 138.023438 C 152.855469 136.820312 154.230469 127.800781 154 122.222656 C 153.8125 117.683594 151.550781 113.398438 147.03125 104.820312 C 146.34375 103.515625 145.242188 101.519531 143.46875 101.265625 C 142.652344 101.152344 142.328125 101.277344 139.0625 102.171875 C 135.507812 103.148438 134.605469 102.109375 133.082031 103.070312 C 131.503906 104.066406 131.226562 105.953125 130.621094 109.65625 " fill-opacity="1" fill-rule="nonzero"/><path fill="#ffffff" d="M 137.109375 152.476562 L 137.109375 156.050781 L 138.828125 155.945312 L 139.167969 152.476562 L 137.109375 152.476562 " fill-opacity="1" fill-rule="nonzero"/><path fill="#000000" d="M 137.289062 152.65625 L 137.289062 155.859375 L 138.664062 155.773438 L 138.96875 152.65625 Z M 137.109375 156.234375 C 137.0625 156.234375 137.015625 156.214844 136.984375 156.183594 C 136.949219 156.148438 136.925781 156.101562 136.925781 156.050781 L 136.925781 152.476562 C 136.925781 152.375 137.007812 152.292969 137.109375 152.292969 L 139.167969 152.292969 C 139.21875 152.292969 139.269531 152.316406 139.300781 152.351562 C 139.335938 152.390625 139.351562 152.441406 139.347656 152.492188 L 139.007812 155.964844 C 139 156.050781 138.929688 156.121094 138.839844 156.125 L 137.121094 156.230469 C 137.113281 156.230469 137.113281 156.234375 137.109375 156.234375 " fill-opacity="1" fill-rule="nonzero"/><path fill="#ffffff" d="M 139.085938 160.511719 C 138.386719 160.585938 137.242188 160.632812 135.902344 160.402344 C 135.464844 160.328125 135.1875 159.890625 135.308594 159.464844 C 135.644531 158.273438 136.304688 156.050781 136.832031 154.988281 L 137.152344 155.566406 L 137.402344 154.953125 C 137.445312 154.882812 137.523438 154.835938 137.605469 154.828125 L 138.265625 154.765625 C 138.40625 154.753906 138.570312 154.886719 138.59375 155.023438 L 139.027344 155.566406 L 139.277344 154.921875 L 139.75 159.695312 C 139.789062 160.101562 139.492188 160.464844 139.085938 160.511719 " fill-opacity="1" fill-rule="nonzero"/><path fill="#000000" d="M 136.84375 155.390625 C 136.328125 156.582031 135.730469 158.628906 135.480469 159.511719 C 135.4375 159.667969 135.460938 159.832031 135.546875 159.96875 C 135.632812 160.105469 135.773438 160.199219 135.933594 160.226562 C 137.238281 160.449219 138.355469 160.40625 139.066406 160.332031 C 139.375 160.296875 139.597656 160.019531 139.566406 159.710938 L 139.171875 155.679688 C 139.144531 155.714844 139.101562 155.738281 139.054688 155.746094 C 138.992188 155.757812 138.925781 155.730469 138.886719 155.679688 L 138.453125 155.136719 C 138.433594 155.113281 138.417969 155.085938 138.414062 155.054688 C 138.40625 155.007812 138.320312 154.941406 138.285156 154.945312 L 137.625 155.007812 C 137.601562 155.007812 137.578125 155.019531 137.5625 155.039062 L 137.316406 155.636719 C 137.289062 155.699219 137.230469 155.746094 137.160156 155.75 C 137.085938 155.75 137.023438 155.714844 136.992188 155.65625 Z M 139.085938 160.511719 Z M 137.890625 160.753906 C 137.300781 160.753906 136.617188 160.710938 135.871094 160.582031 C 135.613281 160.539062 135.382812 160.382812 135.242188 160.160156 C 135.101562 159.941406 135.0625 159.667969 135.132812 159.414062 C 135.410156 158.4375 136.109375 156.035156 136.667969 154.90625 C 136.699219 154.847656 136.761719 154.808594 136.828125 154.804688 C 136.898438 154.800781 136.957031 154.839844 136.992188 154.902344 L 137.125 155.148438 L 137.234375 154.886719 C 137.238281 154.878906 137.242188 154.871094 137.25 154.863281 C 137.320312 154.742188 137.449219 154.660156 137.589844 154.648438 L 138.25 154.585938 C 138.464844 154.566406 138.691406 154.734375 138.757812 154.941406 L 138.972656 155.210938 L 139.109375 154.855469 C 139.140625 154.777344 139.21875 154.734375 139.304688 154.742188 C 139.386719 154.753906 139.449219 154.820312 139.457031 154.90625 L 139.929688 159.675781 C 139.976562 160.179688 139.609375 160.636719 139.105469 160.691406 C 138.777344 160.726562 138.367188 160.753906 137.890625 160.753906 " fill-opacity="1" fill-rule="nonzero"/><path fill="#000000" d="M 137.421875 159.945312 C 136.902344 159.945312 136.320312 159.894531 135.742188 159.742188 C 135.644531 159.714844 135.585938 159.617188 135.613281 159.519531 C 135.636719 159.421875 135.738281 159.367188 135.832031 159.390625 C 137.441406 159.8125 139.152344 159.394531 139.167969 159.390625 C 139.265625 159.367188 139.363281 159.425781 139.386719 159.523438 C 139.410156 159.617188 139.351562 159.71875 139.257812 159.742188 C 139.207031 159.753906 138.433594 159.945312 137.421875 159.945312 " fill-opacity="1" fill-rule="nonzero"/><path fill="#000000" d="M 138.402344 158.085938 L 136.832031 158.085938 C 136.730469 158.085938 136.652344 158.003906 136.652344 157.90625 C 136.652344 157.804688 136.730469 157.722656 136.832031 157.722656 L 138.402344 157.722656 C 138.503906 157.722656 138.582031 157.804688 138.582031 157.90625 C 138.582031 158.003906 138.503906 158.085938 138.402344 158.085938 " fill-opacity="1" fill-rule="nonzero"/><path fill="#ffffff" d="M 149.765625 150.582031 L 150.273438 154.894531 L 151.886719 154.839844 L 151.886719 150.582031 L 149.765625 150.582031 " fill-opacity="1" fill-rule="nonzero"/><path fill="#000000" d="M 149.96875 150.765625 L 150.433594 154.707031 L 151.707031 154.664062 L 151.707031 150.765625 Z M 150.273438 155.074219 C 150.183594 155.074219 150.105469 155.007812 150.09375 154.914062 L 149.585938 150.605469 C 149.578125 150.550781 149.59375 150.5 149.628906 150.460938 C 149.664062 150.425781 149.714844 150.402344 149.765625 150.402344 L 151.886719 150.402344 C 151.988281 150.402344 152.066406 150.484375 152.066406 150.582031 L 152.066406 154.839844 C 152.066406 154.9375 151.992188 155.015625 151.894531 155.019531 L 150.28125 155.074219 C 150.277344 155.074219 150.277344 155.074219 150.273438 155.074219 " fill-opacity="1" fill-rule="nonzero"/><path fill="#ffffff" d="M 149.890625 153.867188 C 149.890625 153.867188 149.683594 155.78125 149.746094 156.550781 C 149.792969 157.101562 150.546875 158.765625 150.976562 159.667969 C 151.152344 160.039062 151.484375 160.277344 151.855469 160.292969 C 152.308594 160.3125 152.9375 160.335938 153.445312 160.335938 C 154.144531 160.335938 154.625 159.542969 154.375 158.804688 C 154.144531 158.121094 153.78125 157.265625 153.203125 156.355469 C 152.773438 155.667969 152.140625 153.804688 152.140625 153.804688 L 150.824219 153.804688 L 150.566406 154.894531 L 149.890625 153.867188 " fill-opacity="1" fill-rule="nonzero"/><path fill="#000000" d="M 150.019531 154.390625 C 149.964844 155.011719 149.886719 156.035156 149.925781 156.535156 C 149.957031 156.914062 150.402344 158.027344 151.140625 159.59375 C 151.285156 159.902344 151.5625 160.101562 151.863281 160.113281 C 152.304688 160.132812 152.9375 160.15625 153.445312 160.15625 C 153.691406 160.15625 153.910156 160.035156 154.070312 159.816406 C 154.261719 159.546875 154.3125 159.191406 154.203125 158.863281 C 153.921875 158.027344 153.535156 157.21875 153.050781 156.449219 C 152.671875 155.851562 152.160156 154.417969 152.011719 153.984375 L 150.96875 153.984375 L 150.742188 154.9375 C 150.726562 155.007812 150.671875 155.058594 150.597656 155.074219 C 150.527344 155.085938 150.457031 155.054688 150.417969 154.992188 Z M 153.445312 160.519531 C 152.929688 160.515625 152.292969 160.496094 151.847656 160.476562 C 151.410156 160.457031 151.015625 160.175781 150.8125 159.746094 C 150.269531 158.597656 149.609375 157.113281 149.566406 156.566406 C 149.5 155.789062 149.699219 153.925781 149.710938 153.847656 C 149.71875 153.769531 149.773438 153.707031 149.847656 153.691406 C 149.921875 153.671875 150 153.703125 150.042969 153.765625 L 150.488281 154.445312 L 150.648438 153.761719 C 150.667969 153.679688 150.742188 153.621094 150.824219 153.621094 L 152.140625 153.621094 C 152.21875 153.621094 152.285156 153.671875 152.3125 153.746094 C 152.316406 153.761719 152.941406 155.597656 153.359375 156.257812 C 153.855469 157.046875 154.257812 157.886719 154.546875 158.746094 C 154.695312 159.183594 154.625 159.664062 154.363281 160.03125 C 154.140625 160.339844 153.804688 160.519531 153.445312 160.519531 " fill-opacity="1" fill-rule="nonzero"/><path fill="#000000" d="M 150.34375 157.425781 C 150.347656 157.425781 150.347656 157.425781 150.347656 157.425781 C 150.347656 157.425781 150.347656 157.425781 150.34375 157.425781 Z M 152.441406 159.699219 C 151.851562 159.699219 151.316406 159.355469 151.042969 158.804688 C 150.472656 157.65625 150.351562 157.445312 150.324219 157.40625 C 150.265625 157.339844 150.261719 157.242188 150.320312 157.171875 C 150.382812 157.09375 150.496094 157.082031 150.574219 157.144531 C 150.617188 157.179688 150.65625 157.210938 151.367188 158.644531 C 151.578125 159.070312 151.992188 159.335938 152.441406 159.335938 C 152.441406 159.335938 152.445312 159.335938 152.445312 159.335938 L 153.941406 159.335938 C 154.039062 159.335938 154.121094 159.414062 154.121094 159.515625 C 154.121094 159.613281 154.042969 159.695312 153.941406 159.695312 L 152.445312 159.699219 C 152.445312 159.699219 152.441406 159.699219 152.441406 159.699219 " fill-opacity="1" fill-rule="nonzero"/><path fill="#000000" d="M 153.25 158.140625 L 151.8125 158.140625 C 151.710938 158.140625 151.628906 158.058594 151.628906 157.957031 C 151.628906 157.859375 151.710938 157.777344 151.8125 157.777344 L 153.25 157.777344 C 153.351562 157.777344 153.429688 157.859375 153.429688 157.957031 C 153.429688 158.058594 153.351562 158.140625 153.25 158.140625 " fill-opacity="1" fill-rule="nonzero"/><path fill="#000000" d="M 134.34375 116.722656 C 134.34375 116.722656 134.515625 129.878906 135.066406 138.449219 C 135.621094 147.015625 136.710938 153.566406 136.710938 153.566406 C 136.710938 153.566406 138.585938 154.238281 139.820312 153.886719 C 139.820312 153.886719 140.839844 146.371094 141.070312 143.832031 C 141.304688 141.292969 140.6875 140.03125 140.636719 137.953125 C 140.585938 135.871094 141.53125 126.695312 141.53125 126.695312 C 141.53125 126.695312 148.605469 147.445312 149.417969 152.027344 C 149.417969 152.027344 151.128906 152.316406 152.335938 151.65625 C 152.335938 151.65625 152.375 143.496094 152.203125 142.238281 C 151.886719 139.902344 150.0625 137.601562 149.734375 135.121094 C 149.40625 132.640625 149.214844 126.410156 148.3125 122.675781 C 147.410156 118.941406 145.640625 114.746094 145.640625 114.746094 L 134.34375 116.722656 " fill-opacity="1" fill-rule="nonzero"/><path fill="#ffffff" d="M 146.394531 121.660156 C 146.375 121.660156 146.351562 121.65625 146.328125 121.644531 C 143.894531 120.648438 143.195312 118.335938 143.167969 118.238281 C 143.140625 118.144531 143.195312 118.042969 143.292969 118.015625 C 143.386719 117.984375 143.488281 118.042969 143.515625 118.136719 C 143.523438 118.160156 144.199219 120.382812 146.464844 121.3125 C 146.558594 121.347656 146.601562 121.453125 146.5625 121.546875 C 146.535156 121.617188 146.46875 121.660156 146.394531 121.660156 " fill-opacity="1" fill-rule="nonzero"/><path fill="#ffffff" d="M 148.535156 127.789062 C 148.445312 127.789062 148.367188 127.722656 148.355469 127.632812 C 147.546875 121.4375 145.132812 117.300781 145.109375 117.261719 C 145.058594 117.175781 145.085938 117.0625 145.171875 117.011719 C 145.257812 116.960938 145.371094 116.988281 145.421875 117.074219 C 145.445312 117.117188 147.898438 121.3125 148.714844 127.585938 C 148.726562 127.683594 148.65625 127.777344 148.558594 127.789062 C 148.550781 127.789062 148.542969 127.789062 148.535156 127.789062 " fill-opacity="1" fill-rule="nonzero"/><path fill="#ffffff" d="M 112.394531 102.972656 L 115.476562 104.253906 L 116.605469 106.675781 C 117.277344 107.125 117.949219 107.488281 118.617188 107.785156 C 118.496094 108.042969 118.375 108.304688 118.261719 108.566406 C 118.074219 108.992188 117.898438 109.421875 117.71875 109.851562 C 116.371094 108.511719 115.855469 107.253906 115.855469 107.253906 C 113.953125 107.144531 113.90625 105.675781 114 105.296875 C 114.09375 104.917969 113.917969 104.484375 113.046875 103.910156 C 112.089844 103.28125 112.394531 102.972656 112.394531 102.972656 " fill-opacity="1" fill-rule="nonzero"/><path fill="#000000" d="M 112.574219 103.242188 C 112.640625 103.355469 112.796875 103.53125 113.144531 103.757812 C 113.980469 104.308594 114.304688 104.808594 114.175781 105.339844 C 114.136719 105.484375 114.109375 105.996094 114.429688 106.433594 C 114.714844 106.820312 115.199219 107.035156 115.863281 107.074219 C 115.933594 107.078125 115.996094 107.121094 116.023438 107.1875 C 116.027344 107.195312 116.496094 108.308594 117.65625 109.527344 C 117.796875 109.191406 117.941406 108.84375 118.09375 108.492188 C 118.1875 108.28125 118.28125 108.070312 118.375 107.875 C 117.738281 107.582031 117.109375 107.226562 116.503906 106.824219 C 116.476562 106.808594 116.453125 106.78125 116.4375 106.75 L 115.34375 104.394531 Z M 117.71875 110.03125 C 117.671875 110.03125 117.628906 110.011719 117.59375 109.980469 C 116.441406 108.835938 115.886719 107.761719 115.734375 107.425781 C 115.007812 107.363281 114.472656 107.101562 114.136719 106.648438 C 113.773438 106.15625 113.75 105.542969 113.824219 105.253906 C 113.878906 105.027344 113.851562 104.65625 112.945312 104.0625 C 112.460938 103.742188 112.199219 103.441406 112.167969 103.164062 C 112.148438 102.972656 112.246094 102.863281 112.265625 102.84375 C 112.316406 102.789062 112.394531 102.773438 112.464844 102.804688 L 115.546875 104.085938 C 115.589844 104.101562 115.621094 104.136719 115.640625 104.175781 L 116.746094 106.550781 C 117.375 106.96875 118.027344 107.324219 118.691406 107.617188 C 118.734375 107.636719 118.769531 107.675781 118.785156 107.71875 C 118.804688 107.765625 118.800781 107.816406 118.78125 107.859375 C 118.667969 108.105469 118.542969 108.367188 118.425781 108.636719 C 118.238281 109.074219 118.058594 109.511719 117.886719 109.921875 C 117.863281 109.976562 117.816406 110.015625 117.757812 110.027344 C 117.746094 110.03125 117.734375 110.03125 117.71875 110.03125 " fill-opacity="1" fill-rule="nonzero"/><path fill="#ffffff" d="M 133.054688 102.179688 C 133.054688 102.179688 137.277344 101.574219 141.433594 101.457031 C 141.433594 101.457031 146.648438 115.054688 146.648438 115.96875 C 146.644531 116.886719 144.421875 118.0625 141.433594 117.3125 C 138.449219 116.5625 134.652344 116.492188 132.519531 116.988281 C 129.324219 117.734375 133.054688 102.179688 133.054688 102.179688 " fill-opacity="1" fill-rule="nonzero"/><path fill="#000000" d="M 135.875 116.492188 C 137.734375 116.492188 139.785156 116.710938 141.480469 117.136719 C 143.511719 117.648438 145.234375 117.242188 146.035156 116.617188 C 146.308594 116.402344 146.464844 116.167969 146.464844 115.96875 C 146.464844 115.328125 143.402344 107.09375 141.3125 101.640625 C 137.644531 101.753906 133.917969 102.246094 133.203125 102.34375 C 132.34375 105.964844 130.515625 115.25 131.925781 116.671875 C 132.074219 116.820312 132.25 116.863281 132.480469 116.8125 C 133.40625 116.59375 134.59375 116.492188 135.875 116.492188 Z M 143.3125 117.734375 C 142.726562 117.734375 142.082031 117.664062 141.390625 117.488281 C 138.582031 116.785156 134.785156 116.644531 132.5625 117.164062 C 132.214844 117.246094 131.90625 117.164062 131.671875 116.925781 C 129.808594 115.050781 132.753906 102.664062 132.878906 102.136719 C 132.898438 102.066406 132.957031 102.011719 133.03125 102 C 133.074219 101.996094 137.3125 101.394531 141.429688 101.273438 C 141.507812 101.273438 141.574219 101.320312 141.605469 101.390625 C 142.136719 102.785156 146.828125 115.046875 146.828125 115.96875 C 146.828125 116.285156 146.625 116.617188 146.257812 116.902344 C 145.695312 117.34375 144.664062 117.734375 143.3125 117.734375 " fill-opacity="1" fill-rule="nonzero"/><path fill="#ffbf23" d="M 117.429688 106.730469 L 115.484375 107.964844 C 115.484375 107.964844 117.535156 112.710938 122 114.160156 C 126.46875 115.613281 130.6875 111.503906 130.6875 111.503906 L 130.304688 120.3125 C 130.304688 120.3125 132.460938 121.589844 132.460938 121.476562 C 132.460938 121.363281 133.40625 101.828125 133.40625 101.828125 C 133.40625 101.828125 131.664062 101.855469 130.886719 102.960938 C 130.109375 104.066406 127.171875 108.632812 123.792969 108.6875 C 120.414062 108.742188 117.429688 106.730469 117.429688 106.730469 " fill-opacity="1" fill-rule="nonzero"/><path fill="#000000" d="M 128.164062 105.839844 L 135.839844 105.046875 C 136.097656 105.046875 136.339844 105.261719 136.382812 105.53125 L 138.238281 116.96875 C 138.28125 117.234375 138.105469 117.453125 137.847656 117.453125 L 129.710938 117.050781 C 129.453125 117.050781 129.183594 117.234375 129.140625 116.96875 L 127.285156 105.53125 C 127.242188 105.261719 127.90625 105.839844 128.164062 105.839844 " fill-opacity="1" fill-rule="nonzero"/><path fill="#000000" d="M 129.710938 116.871094 L 137.859375 117.269531 C 137.914062 117.269531 137.972656 117.246094 138.011719 117.199219 C 138.054688 117.148438 138.070312 117.078125 138.058594 116.996094 L 136.203125 105.558594 C 136.175781 105.382812 136.011719 105.234375 135.847656 105.230469 L 128.183594 106.019531 C 128.175781 106.019531 128.171875 106.019531 128.164062 106.019531 C 128.011719 106.019531 127.839844 105.925781 127.59375 105.78125 C 127.566406 105.765625 127.535156 105.746094 127.5 105.730469 L 129.316406 116.929688 C 129.351562 116.929688 129.398438 116.917969 129.433594 116.910156 C 129.519531 116.890625 129.609375 116.871094 129.710938 116.871094 Z M 137.847656 117.632812 L 129.703125 117.234375 C 129.648438 117.234375 129.578125 117.25 129.511719 117.261719 C 129.378906 117.292969 129.226562 117.324219 129.101562 117.238281 C 129.023438 117.1875 128.976562 117.105469 128.960938 116.996094 L 127.109375 105.558594 C 127.085938 105.414062 127.164062 105.34375 127.199219 105.316406 C 127.34375 105.21875 127.515625 105.316406 127.773438 105.46875 C 127.882812 105.53125 128.085938 105.648438 128.160156 105.65625 L 135.820312 104.867188 C 135.828125 104.867188 135.832031 104.867188 135.839844 104.867188 C 136.1875 104.867188 136.503906 105.144531 136.5625 105.5 L 138.414062 116.941406 C 138.445312 117.125 138.398438 117.304688 138.285156 117.4375 C 138.179688 117.5625 138.023438 117.632812 137.847656 117.632812 " fill-opacity="1" fill-rule="nonzero"/><path fill="#ffffff" d="M 127.417969 105.046875 L 135.585938 105.046875 C 135.84375 105.046875 136.085938 105.265625 136.128906 105.53125 L 137.980469 116.96875 C 138.023438 117.234375 137.851562 117.453125 137.59375 117.453125 L 129.429688 117.453125 C 129.171875 117.453125 128.929688 117.234375 128.886719 116.96875 L 127.03125 105.53125 C 126.988281 105.265625 127.164062 105.046875 127.417969 105.046875 " fill-opacity="1" fill-rule="nonzero"/><path fill="#000000" d="M 127.421875 105.226562 C 127.351562 105.226562 127.296875 105.253906 127.257812 105.296875 C 127.214844 105.347656 127.199219 105.421875 127.210938 105.5 L 129.0625 116.941406 C 129.09375 117.121094 129.261719 117.269531 129.429688 117.269531 L 137.59375 117.269531 C 137.660156 117.269531 137.71875 117.246094 137.757812 117.199219 C 137.800781 117.148438 137.816406 117.078125 137.804688 116.996094 L 135.953125 105.558594 C 135.921875 105.378906 135.753906 105.226562 135.585938 105.226562 Z M 137.59375 117.632812 L 129.429688 117.632812 C 129.082031 117.632812 128.765625 117.355469 128.707031 116.996094 L 126.855469 105.558594 C 126.824219 105.375 126.871094 105.195312 126.984375 105.0625 C 127.089844 104.9375 127.246094 104.867188 127.421875 104.867188 L 135.585938 104.867188 C 135.933594 104.867188 136.25 105.144531 136.308594 105.5 L 138.160156 116.941406 C 138.191406 117.125 138.144531 117.304688 138.03125 117.433594 C 137.925781 117.5625 137.769531 117.632812 137.59375 117.632812 " fill-opacity="1" fill-rule="nonzero"/><path fill="#ffffff" d="M 137.402344 110.226562 L 137.3125 111.304688 L 134.042969 110.707031 C 134.042969 110.707031 133.96875 110.816406 133.921875 110.992188 C 133.859375 111.226562 133.855469 111.578125 134.152344 111.953125 C 134.296875 112.128906 134.863281 112.132812 134.816406 112.488281 C 134.777344 112.796875 136.058594 113.035156 137.164062 113.238281 C 138.402344 113.46875 138.292969 111.707031 137.988281 110.804688 C 137.75 110.097656 137.402344 110.226562 137.402344 110.226562 " fill-opacity="1" fill-rule="nonzero"/><path fill="#000000" d="M 135 112.484375 C 135.175781 112.6875 136.484375 112.929688 137.195312 113.0625 C 137.457031 113.109375 137.644531 113.058594 137.777344 112.910156 C 138.101562 112.53125 138.050781 111.550781 137.816406 110.863281 C 137.730469 110.597656 137.632812 110.484375 137.566406 110.4375 L 137.492188 111.316406 C 137.488281 111.367188 137.464844 111.414062 137.421875 111.445312 C 137.382812 111.476562 137.332031 111.488281 137.28125 111.480469 L 134.140625 110.910156 C 134.125 110.945312 134.109375 110.988281 134.097656 111.035156 C 134.027344 111.316406 134.09375 111.585938 134.296875 111.839844 C 134.316406 111.867188 134.429688 111.910156 134.496094 111.933594 C 134.695312 112.011719 135.027344 112.140625 135 112.484375 Z M 137.371094 113.441406 C 137.296875 113.441406 137.21875 113.433594 137.128906 113.417969 C 135.355469 113.089844 134.582031 112.898438 134.636719 112.464844 C 134.648438 112.398438 134.585938 112.359375 134.363281 112.273438 C 134.230469 112.21875 134.09375 112.167969 134.011719 112.066406 C 133.664062 111.632812 133.675781 111.21875 133.746094 110.945312 C 133.800781 110.746094 133.886719 110.617188 133.894531 110.605469 C 133.933594 110.546875 134.003906 110.515625 134.074219 110.53125 L 137.148438 111.089844 L 137.21875 110.210938 C 137.226562 110.140625 137.273438 110.082031 137.339844 110.054688 C 137.367188 110.046875 137.507812 110.003906 137.683594 110.085938 C 137.886719 110.183594 138.046875 110.40625 138.160156 110.746094 C 138.382812 111.402344 138.535156 112.582031 138.050781 113.144531 C 137.925781 113.289062 137.710938 113.441406 137.371094 113.441406 " fill-opacity="1" fill-rule="nonzero"/><path fill="#ffbf23" d="M 137.808594 113.199219 L 138.464844 112.203125 C 138.464844 112.203125 141.71875 112.859375 143.21875 112.203125 C 145.839844 111.050781 145.34375 107.023438 144.898438 105.023438 C 144.453125 103.019531 143.464844 101.269531 143.464844 101.269531 C 143.464844 101.269531 145.875 102.628906 147.507812 105.621094 C 149.140625 108.613281 149.675781 115.308594 144.210938 116.519531 C 140.636719 117.3125 137.808594 113.199219 137.808594 113.199219 " fill-opacity="1" fill-rule="nonzero"/><path fill="#ffffff" d="M 147.003906 115.265625 C 146.953125 115.265625 146.902344 115.242188 146.867188 115.199219 C 146.800781 115.125 146.8125 115.007812 146.886719 114.945312 C 148.527344 113.566406 148.417969 110.535156 148.414062 110.507812 C 148.410156 110.40625 148.488281 110.320312 148.589844 110.316406 C 148.691406 110.3125 148.773438 110.390625 148.777344 110.492188 C 148.785156 110.621094 148.898438 113.730469 147.121094 115.222656 C 147.085938 115.25 147.046875 115.265625 147.003906 115.265625 " fill-opacity="1" fill-rule="nonzero"/><path fill="#ffffff" d="M 136.921875 96.429688 C 136.839844 96.480469 136.738281 96.445312 136.703125 96.355469 C 136.53125 95.941406 136.261719 95.132812 135.707031 95.007812 C 134.992188 94.839844 133.839844 94.628906 133.738281 95.191406 C 133.652344 95.6875 133.753906 96.539062 133.234375 97.15625 C 133.1875 97.214844 133.226562 97.308594 133.289062 97.355469 L 133.617188 97.632812 C 133.6875 97.683594 133.746094 97.859375 133.753906 97.945312 C 133.78125 98.214844 133.8125 98.785156 133.90625 98.859375 C 134.085938 99 134.988281 98.945312 134.988281 98.945312 L 135.710938 101.429688 C 135.738281 101.523438 135.683594 101.625 135.585938 101.648438 L 134.726562 101.941406 C 134.726562 101.941406 135.417969 102.90625 137.574219 102.761719 C 138.953125 102.667969 139.960938 101.695312 139.960938 101.695312 C 139.960938 101.695312 137.28125 101.316406 136.921875 98.148438 C 136.914062 98.078125 136.941406 98.007812 137 97.96875 C 137.210938 97.804688 137.789062 97.332031 137.6875 96.851562 C 137.582031 96.34375 137.199219 96.265625 136.921875 96.429688 " fill-opacity="1" fill-rule="nonzero"/><path fill="#000000" d="M 136.921875 96.429688 Z M 134.042969 98.742188 Z M 135.066406 102.015625 C 135.386719 102.265625 136.140625 102.675781 137.5625 102.582031 C 138.457031 102.519531 139.195312 102.0625 139.570312 101.785156 C 138.792969 101.542969 137.03125 100.714844 136.742188 98.167969 C 136.726562 98.035156 136.78125 97.902344 136.890625 97.820312 C 137.054688 97.699219 137.589844 97.261719 137.511719 96.890625 C 137.472656 96.714844 137.398438 96.601562 137.296875 96.554688 C 137.214844 96.519531 137.109375 96.53125 137.015625 96.585938 C 136.929688 96.636719 136.828125 96.648438 136.738281 96.617188 C 136.644531 96.585938 136.570312 96.515625 136.535156 96.425781 L 136.488281 96.308594 C 136.335938 95.921875 136.078125 95.277344 135.664062 95.183594 C 134.785156 94.980469 134.226562 94.953125 134.003906 95.101562 C 133.953125 95.132812 133.929688 95.171875 133.917969 95.222656 C 133.898438 95.339844 133.886719 95.480469 133.878906 95.632812 C 133.84375 96.121094 133.804688 96.726562 133.414062 97.222656 L 133.734375 97.492188 C 133.859375 97.585938 133.925781 97.832031 133.933594 97.929688 C 133.9375 97.972656 133.941406 98.019531 133.945312 98.074219 C 133.960938 98.238281 133.992188 98.613281 134.035156 98.722656 C 134.148438 98.769531 134.574219 98.789062 134.976562 98.765625 C 135.058594 98.761719 135.136719 98.8125 135.160156 98.894531 L 135.882812 101.378906 C 135.910156 101.472656 135.898438 101.574219 135.851562 101.65625 C 135.804688 101.738281 135.730469 101.796875 135.640625 101.820312 Z M 137.140625 102.957031 C 135.253906 102.957031 134.609375 102.085938 134.582031 102.042969 C 134.546875 102 134.539062 101.9375 134.554688 101.882812 C 134.574219 101.828125 134.617188 101.785156 134.667969 101.769531 L 135.53125 101.476562 C 135.535156 101.472656 135.539062 101.472656 135.542969 101.472656 L 134.855469 99.132812 C 134.519531 99.148438 133.976562 99.144531 133.792969 99 C 133.675781 98.90625 133.636719 98.695312 133.585938 98.105469 C 133.582031 98.054688 133.578125 98.003906 133.574219 97.964844 C 133.566406 97.910156 133.527344 97.800781 133.503906 97.769531 L 133.171875 97.496094 C 133.101562 97.4375 133.046875 97.347656 133.035156 97.25 C 133.027344 97.171875 133.046875 97.097656 133.097656 97.039062 C 133.449219 96.621094 133.484375 96.0625 133.515625 95.609375 C 133.527344 95.449219 133.539062 95.292969 133.5625 95.160156 C 133.589844 95.007812 133.671875 94.882812 133.800781 94.796875 C 134.125 94.585938 134.722656 94.59375 135.746094 94.828125 C 136.347656 94.96875 136.632812 95.695312 136.824219 96.175781 L 136.859375 96.257812 C 137.046875 96.15625 137.257812 96.144531 137.441406 96.222656 C 137.652344 96.316406 137.804688 96.527344 137.863281 96.816406 C 137.980469 97.363281 137.4375 97.863281 137.105469 98.113281 C 137.101562 98.113281 137.101562 98.121094 137.101562 98.125 C 137.441406 101.113281 139.886719 101.503906 139.988281 101.515625 C 140.058594 101.527344 140.113281 101.574219 140.136719 101.640625 C 140.15625 101.707031 140.136719 101.777344 140.089844 101.828125 C 140.046875 101.867188 139.015625 102.84375 137.585938 102.941406 C 137.433594 102.953125 137.28125 102.957031 137.140625 102.957031 " fill-opacity="1" fill-rule="nonzero"/><path fill="#ffbf23" d="M 68.214844 153.070312 C 62.71875 148.003906 65.5625 144.734375 65.5625 144.734375 C 65.5625 144.734375 68.019531 140.757812 76.632812 145.957031 C 85.25 151.15625 93.589844 149.222656 95.476562 148.445312 C 97.363281 147.664062 103.953125 142.765625 107.667969 142.488281 C 109.734375 142.335938 112.207031 143.890625 110.039062 148.089844 C 105.550781 156.777344 93.363281 157.765625 93.363281 157.765625 C 93.363281 157.765625 87.457031 158.875 81.386719 157.800781 C 81.386719 157.800781 73.710938 158.136719 68.214844 153.070312 " fill-opacity="1" fill-rule="nonzero"/><path fill="#ffffff" d="M 82.476562 154.105469 L 84.425781 155.195312 L 83.453125 157.214844 L 81.839844 156.183594 L 82.476562 154.105469 " fill-opacity="1" fill-rule="nonzero"/><path fill="#000000" d="M 82.054688 156.105469 L 83.378906 156.953125 L 84.1875 155.269531 L 82.585938 154.375 Z M 83.453125 157.394531 C 83.417969 157.394531 83.382812 157.386719 83.355469 157.367188 L 81.742188 156.335938 C 81.675781 156.292969 81.644531 156.207031 81.667969 156.128906 L 82.304688 154.054688 C 82.320312 154 82.359375 153.960938 82.410156 153.9375 C 82.460938 153.917969 82.519531 153.921875 82.566406 153.949219 L 84.511719 155.039062 C 84.597656 155.085938 84.628906 155.1875 84.585938 155.273438 L 83.617188 157.292969 C 83.59375 157.339844 83.550781 157.375 83.5 157.390625 C 83.484375 157.394531 83.46875 157.394531 83.453125 157.394531 " fill-opacity="1" fill-rule="nonzero"/><path fill="#000000" d="M 83.660156 154.9375 C 83.886719 154.648438 84.324219 154.652344 84.542969 154.949219 L 85.488281 156.230469 L 84.210938 157.875 L 82.523438 157.097656 C 82.636719 156.367188 83.230469 155.496094 83.660156 154.9375 " fill-opacity="1" fill-rule="nonzero"/><path fill="#ffffff" d="M 83.464844 156.304688 L 83.980469 155.78125 C 84.164062 155.59375 84.457031 155.558594 84.683594 155.695312 L 85.050781 155.917969 L 85.128906 155.746094 C 85.214844 155.5625 85.421875 155.46875 85.617188 155.535156 C 86.792969 155.925781 90.703125 157.273438 92.011719 158.242188 C 93.558594 159.390625 92.460938 161.9375 89.761719 161.679688 C 87.625 161.472656 84.703125 159.089844 83.582031 158.109375 C 83.359375 157.914062 83.417969 157.558594 83.683594 157.441406 L 83.6875 157.441406 L 83.402344 157.03125 C 83.246094 156.804688 83.269531 156.5 83.464844 156.304688 " fill-opacity="1" fill-rule="nonzero"/><path fill="#000000" d="M 83.59375 156.429688 C 83.460938 156.5625 83.441406 156.773438 83.550781 156.925781 L 83.835938 157.335938 C 83.867188 157.382812 83.875 157.4375 83.859375 157.492188 C 83.847656 157.542969 83.808594 157.585938 83.757812 157.605469 C 83.6875 157.640625 83.640625 157.699219 83.628906 157.773438 C 83.617188 157.851562 83.644531 157.921875 83.699219 157.972656 C 84.835938 158.964844 87.703125 161.296875 89.777344 161.5 C 91.300781 161.644531 92.15625 160.875 92.429688 160.171875 C 92.683594 159.5 92.484375 158.820312 91.902344 158.386719 C 90.617188 157.4375 86.722656 156.09375 85.558594 155.707031 C 85.453125 155.671875 85.339844 155.71875 85.292969 155.820312 L 85.214844 155.992188 C 85.191406 156.039062 85.152344 156.074219 85.101562 156.089844 C 85.050781 156.105469 85 156.097656 84.953125 156.070312 L 84.589844 155.847656 C 84.433594 155.753906 84.238281 155.777344 84.109375 155.90625 Z M 90.152344 161.878906 C 90.019531 161.878906 89.886719 161.875 89.746094 161.859375 C 87.5625 161.648438 84.625 159.261719 83.460938 158.246094 C 83.3125 158.113281 83.238281 157.917969 83.269531 157.71875 C 83.289062 157.59375 83.347656 157.480469 83.433594 157.394531 L 83.253906 157.132812 C 83.046875 156.835938 83.082031 156.433594 83.335938 156.175781 L 83.851562 155.652344 C 84.097656 155.40625 84.476562 155.359375 84.777344 155.539062 L 84.96875 155.65625 C 85.097656 155.398438 85.398438 155.269531 85.675781 155.363281 C 86.851562 155.753906 90.789062 157.113281 92.121094 158.097656 C 92.824219 158.621094 93.078125 159.484375 92.765625 160.300781 C 92.476562 161.054688 91.625 161.878906 90.152344 161.878906 " fill-opacity="1" fill-rule="nonzero"/><path fill="#000000" d="M 86.820312 159.269531 C 86.792969 159.269531 86.765625 159.265625 86.742188 159.253906 C 86.652344 159.210938 86.613281 159.101562 86.65625 159.011719 L 87.53125 157.171875 C 87.574219 157.082031 87.679688 157.046875 87.773438 157.085938 C 87.863281 157.132812 87.898438 157.238281 87.855469 157.328125 L 86.984375 159.167969 C 86.953125 159.230469 86.886719 159.269531 86.820312 159.269531 " fill-opacity="1" fill-rule="nonzero"/><path fill="#000000" d="M 90.871094 154.125 C 90.820312 154.125 90.769531 154.105469 90.734375 154.066406 L 90.449219 153.742188 C 90.414062 153.703125 90.398438 153.652344 90.402344 153.605469 C 90.410156 153.554688 90.433594 153.507812 90.472656 153.476562 L 99.558594 146.46875 C 99.636719 146.40625 99.753906 146.421875 99.8125 146.5 C 99.875 146.578125 99.859375 146.691406 99.78125 146.753906 L 90.847656 153.644531 L 91.003906 153.824219 C 91.070312 153.898438 91.0625 154.015625 90.988281 154.082031 C 90.953125 154.113281 90.914062 154.125 90.871094 154.125 " fill-opacity="1" fill-rule="nonzero"/><path fill="#ffffff" d="M 91.183594 154.511719 L 87.226562 155.933594 L 87.851562 158.082031 L 92.628906 156.78125 L 91.183594 154.511719 " fill-opacity="1" fill-rule="nonzero"/><path fill="#000000" d="M 87.449219 156.042969 L 87.976562 157.863281 L 92.34375 156.671875 L 91.109375 154.730469 Z M 87.851562 158.265625 C 87.773438 158.265625 87.703125 158.214844 87.679688 158.132812 L 87.054688 155.984375 C 87.027344 155.890625 87.074219 155.792969 87.164062 155.761719 L 91.121094 154.34375 C 91.199219 154.3125 91.289062 154.34375 91.335938 154.414062 L 92.78125 156.683594 C 92.8125 156.734375 92.816406 156.792969 92.796875 156.847656 C 92.777344 156.902344 92.730469 156.941406 92.675781 156.957031 L 87.902344 158.257812 C 87.886719 158.261719 87.867188 158.265625 87.851562 158.265625 " fill-opacity="1" fill-rule="nonzero"/><path fill="#000000" d="M 88.023438 155.804688 C 87.847656 155.480469 87.414062 155.410156 87.148438 155.667969 L 86.007812 156.777344 L 86.996094 158.609375 L 88.789062 158.121094 C 88.796875 157.382812 88.355469 156.421875 88.023438 155.804688 " fill-opacity="1" fill-rule="nonzero"/><path fill="#ffffff" d="M 87.992188 157.183594 L 87.570312 156.582031 C 87.417969 156.367188 87.136719 156.28125 86.890625 156.378906 L 86.492188 156.539062 L 86.441406 156.359375 C 86.390625 156.160156 86.195312 156.039062 85.996094 156.070312 C 84.769531 156.261719 80.691406 156.949219 79.242188 157.6875 C 77.527344 158.5625 78.191406 161.261719 80.894531 161.449219 C 83.039062 161.597656 86.3125 159.726562 87.578125 158.945312 C 87.828125 158.789062 87.832031 158.429688 87.585938 158.269531 L 87.585938 158.265625 L 87.933594 157.910156 C 88.125 157.710938 88.148438 157.40625 87.992188 157.183594 " fill-opacity="1" fill-rule="nonzero"/><path fill="#000000" d="M 86.058594 156.246094 C 86.046875 156.246094 86.035156 156.246094 86.023438 156.246094 C 84.8125 156.441406 80.75 157.121094 79.324219 157.851562 C 78.679688 158.179688 78.371094 158.820312 78.511719 159.519531 C 78.664062 160.261719 79.382812 161.160156 80.90625 161.265625 C 80.984375 161.273438 81.066406 161.277344 81.148438 161.277344 C 83.230469 161.277344 86.25 159.550781 87.484375 158.789062 C 87.550781 158.75 87.585938 158.683594 87.585938 158.605469 C 87.589844 158.53125 87.550781 158.460938 87.488281 158.421875 C 87.441406 158.390625 87.410156 158.34375 87.40625 158.289062 C 87.398438 158.234375 87.417969 158.179688 87.457031 158.140625 L 87.804688 157.78125 C 87.9375 157.648438 87.953125 157.441406 87.84375 157.285156 L 87.421875 156.6875 C 87.316406 156.539062 87.125 156.480469 86.957031 156.546875 L 86.558594 156.707031 C 86.511719 156.726562 86.457031 156.726562 86.410156 156.703125 C 86.367188 156.679688 86.332031 156.636719 86.316406 156.585938 L 86.269531 156.40625 C 86.242188 156.308594 86.15625 156.246094 86.058594 156.246094 Z M 81.140625 161.636719 C 81.054688 161.636719 80.96875 161.632812 80.882812 161.628906 C 79.152344 161.507812 78.335938 160.457031 78.15625 159.59375 C 77.984375 158.738281 78.375 157.925781 79.160156 157.527344 C 80.632812 156.773438 84.742188 156.085938 85.96875 155.890625 C 86.253906 155.84375 86.53125 156.019531 86.613281 156.296875 L 86.824219 156.210938 C 87.148438 156.082031 87.515625 156.191406 87.714844 156.476562 L 88.140625 157.078125 C 88.347656 157.375 88.316406 157.777344 88.0625 158.035156 L 87.839844 158.265625 C 87.914062 158.363281 87.953125 158.484375 87.949219 158.609375 C 87.949219 158.8125 87.84375 158.992188 87.675781 159.097656 C 86.410156 159.878906 83.320312 161.636719 81.140625 161.636719 " fill-opacity="1" fill-rule="nonzero"/><path fill="#000000" d="M 84.222656 159.558594 C 84.144531 159.558594 84.070312 159.507812 84.050781 159.425781 L 83.488281 157.472656 C 83.460938 157.375 83.519531 157.273438 83.613281 157.246094 C 83.710938 157.21875 83.808594 157.273438 83.835938 157.371094 L 84.398438 159.328125 C 84.425781 159.425781 84.367188 159.523438 84.273438 159.550781 C 84.257812 159.554688 84.238281 159.558594 84.222656 159.558594 " fill-opacity="1" fill-rule="nonzero"/><path fill="#000000" d="M 81.046875 161.066406 C 81.015625 161.066406 80.984375 161.058594 80.953125 161.039062 C 78.738281 159.652344 79.621094 157.847656 79.632812 157.828125 C 79.675781 157.738281 79.785156 157.703125 79.875 157.75 C 79.964844 157.792969 80 157.902344 79.953125 157.992188 C 79.921875 158.058594 79.222656 159.527344 81.144531 160.730469 C 81.230469 160.785156 81.253906 160.894531 81.203125 160.980469 C 81.167969 161.035156 81.109375 161.066406 81.046875 161.066406 " fill-opacity="1" fill-rule="nonzero"/><path fill="#000000" d="M 82.601562 153.800781 C 82.589844 153.800781 82.578125 153.800781 82.5625 153.800781 C 82.464844 153.777344 82.402344 153.683594 82.421875 153.585938 L 82.539062 153.019531 C 82.097656 152.667969 79.980469 150.992188 76.648438 148.542969 C 72.90625 145.792969 72.085938 145.226562 72.078125 145.222656 C 71.996094 145.167969 71.976562 145.054688 72.03125 144.972656 C 72.089844 144.886719 72.203125 144.867188 72.285156 144.925781 C 72.292969 144.929688 73.113281 145.492188 76.863281 148.25 C 80.613281 151.011719 82.828125 152.785156 82.851562 152.804688 C 82.902344 152.847656 82.929688 152.914062 82.914062 152.980469 L 82.777344 153.65625 C 82.761719 153.742188 82.683594 153.800781 82.601562 153.800781 " fill-opacity="1" fill-rule="nonzero"/><path fill="#000000" d="M 102.050781 140.550781 C 101.769531 139.289062 99.964844 134.625 98.605469 131.1875 C 97.519531 128.449219 94.894531 126.46875 91.769531 126.074219 C 89.445312 125.777344 86.921875 125.71875 84.5 125.910156 C 80.457031 126.226562 76.984375 128.699219 75.648438 132.246094 C 74.445312 135.441406 73.132812 139.363281 73.101562 141.351562 C 73.070312 143.46875 74.347656 145.488281 75.746094 147.0625 C 77.503906 149.042969 80.015625 150.277344 82.730469 150.527344 C 86.601562 150.886719 92.648438 151.246094 95.394531 150.347656 C 99.605469 148.972656 102.734375 143.613281 102.050781 140.550781 " fill-opacity="1" fill-rule="nonzero"/><path fill="#ffffff" d="M 96.597656 134.367188 L 78.289062 134.367188 C 77.460938 134.367188 76.785156 135.039062 76.785156 135.871094 L 76.785156 147.976562 C 76.785156 148.804688 77.460938 149.480469 78.289062 149.480469 L 96.597656 149.480469 C 97.429688 149.480469 98.101562 148.804688 98.101562 147.976562 L 98.101562 135.871094 C 98.101562 135.039062 97.429688 134.367188 96.597656 134.367188 " fill-opacity="1" fill-rule="nonzero"/><path fill="#000000" d="M 78.289062 134.546875 C 77.558594 134.546875 76.964844 135.140625 76.964844 135.871094 L 76.964844 147.976562 C 76.964844 148.703125 77.558594 149.296875 78.289062 149.296875 L 96.597656 149.296875 C 97.328125 149.296875 97.921875 148.703125 97.921875 147.976562 L 97.921875 135.871094 C 97.921875 135.140625 97.328125 134.546875 96.597656 134.546875 Z M 96.597656 149.660156 L 78.289062 149.660156 C 77.359375 149.660156 76.605469 148.902344 76.605469 147.976562 L 76.605469 135.871094 C 76.605469 134.941406 77.359375 134.183594 78.289062 134.183594 L 96.597656 134.183594 C 97.527344 134.183594 98.28125 134.941406 98.28125 135.871094 L 98.28125 147.976562 C 98.28125 148.902344 97.527344 149.660156 96.597656 149.660156 " fill-opacity="1" fill-rule="nonzero"/><path fill="#14697d" d="M 97.808594 149.550781 L 76.765625 149.550781 C 76.242188 149.550781 75.816406 149.976562 75.816406 150.5 C 75.816406 151.023438 76.242188 151.445312 76.765625 151.445312 L 97.808594 151.445312 C 98.332031 151.445312 98.757812 151.023438 98.757812 150.5 C 98.757812 149.976562 98.332031 149.550781 97.808594 149.550781 " fill-opacity="1" fill-rule="nonzero"/><path fill="#000000" d="M 76.765625 149.734375 C 76.34375 149.734375 76 150.078125 76 150.5 C 76 150.921875 76.34375 151.265625 76.765625 151.265625 L 97.808594 151.265625 C 98.234375 151.265625 98.574219 150.921875 98.574219 150.5 C 98.574219 150.078125 98.234375 149.734375 97.808594 149.734375 Z M 97.808594 151.628906 L 76.765625 151.628906 C 76.144531 151.628906 75.636719 151.121094 75.636719 150.5 C 75.636719 149.878906 76.144531 149.371094 76.765625 149.371094 L 97.808594 149.371094 C 98.433594 149.371094 98.9375 149.878906 98.9375 150.5 C 98.9375 151.121094 98.433594 151.628906 97.808594 151.628906 " fill-opacity="1" fill-rule="nonzero"/><path fill="#a6201e" d="M 88.238281 137.820312 C 88.238281 138.425781 87.746094 138.917969 87.140625 138.917969 C 86.535156 138.917969 86.042969 138.425781 86.042969 137.820312 C 86.042969 137.214844 86.535156 136.726562 87.140625 136.726562 C 87.746094 136.726562 88.238281 137.214844 88.238281 137.820312 " fill-opacity="1" fill-rule="nonzero"/><path fill="#ffffff" d="M 89.0625 126 L 89.261719 123.207031 C 89.394531 123.195312 89.484375 123.191406 89.511719 123.191406 C 90.292969 123.183594 90.546875 122.929688 90.613281 122.289062 C 90.65625 121.886719 90.667969 121.292969 90.472656 120.550781 C 90.453125 120.46875 90.457031 120.386719 90.492188 120.308594 L 90.625 119.996094 C 90.652344 119.894531 90.617188 119.785156 90.535156 119.71875 L 90.460938 119.660156 C 90.207031 119.449219 89.996094 119.195312 89.828125 118.910156 C 89.671875 118.648438 89.40625 118.15625 89.226562 118.070312 C 88.710938 117.824219 86.632812 116.738281 85.472656 118.636719 C 84.566406 120.121094 86.046875 122.160156 86.585938 122.828125 C 86.714844 122.988281 85.707031 126.15625 85.707031 126.15625 L 84.402344 126.46875 C 84.402344 126.46875 85.410156 128.257812 88.464844 127.515625 C 90.640625 126.992188 90.292969 126.183594 90.292969 126.183594 L 89.0625 126 " fill-opacity="1" fill-rule="nonzero"/><path fill="#000000" d="M 84.707031 126.582031 C 85.070312 127.003906 86.140625 127.894531 88.421875 127.339844 C 89.644531 127.046875 89.988281 126.671875 90.089844 126.476562 C 90.113281 126.425781 90.125 126.378906 90.128906 126.339844 L 89.035156 126.179688 C 88.941406 126.164062 88.875 126.082031 88.882812 125.988281 L 89.078125 123.191406 C 89.085938 123.101562 89.15625 123.03125 89.246094 123.023438 C 89.386719 123.015625 89.484375 123.011719 89.511719 123.011719 C 90.238281 123 90.378906 122.785156 90.433594 122.269531 C 90.492188 121.710938 90.449219 121.160156 90.300781 120.59375 C 90.269531 120.476562 90.277344 120.347656 90.324219 120.238281 L 90.449219 119.941406 C 90.457031 119.910156 90.445312 119.878906 90.417969 119.859375 L 90.347656 119.800781 C 90.085938 119.585938 89.859375 119.316406 89.671875 119.003906 C 89.648438 118.964844 89.625 118.925781 89.601562 118.882812 C 89.496094 118.703125 89.253906 118.285156 89.148438 118.234375 L 89.089844 118.207031 C 88.492188 117.917969 86.664062 117.035156 85.625 118.734375 C 84.804688 120.074219 86.121094 121.964844 86.726562 122.714844 C 86.792969 122.796875 86.917969 122.949219 85.878906 126.210938 C 85.859375 126.269531 85.808594 126.316406 85.75 126.332031 Z M 87.054688 127.878906 C 85.015625 127.878906 84.28125 126.625 84.246094 126.558594 C 84.21875 126.507812 84.214844 126.449219 84.238281 126.398438 C 84.257812 126.34375 84.304688 126.308594 84.359375 126.292969 L 85.566406 126.003906 C 85.988281 124.660156 86.40625 123.191406 86.414062 122.90625 C 85.753906 122.074219 84.390625 120.058594 85.316406 118.542969 C 86.121094 117.230469 87.441406 117.007812 89.25 117.878906 L 89.300781 117.90625 C 89.496094 118 89.683594 118.308594 89.914062 118.699219 C 89.9375 118.742188 89.960938 118.78125 89.984375 118.816406 C 90.148438 119.097656 90.347656 119.332031 90.578125 119.519531 L 90.648438 119.578125 C 90.785156 119.691406 90.84375 119.875 90.796875 120.046875 C 90.796875 120.054688 90.792969 120.0625 90.789062 120.070312 L 90.65625 120.382812 C 90.640625 120.417969 90.640625 120.460938 90.648438 120.503906 C 90.808594 121.113281 90.855469 121.703125 90.792969 122.308594 C 90.714844 123.0625 90.355469 123.363281 89.515625 123.371094 C 89.5 123.371094 89.472656 123.375 89.429688 123.375 L 89.253906 125.847656 L 90.320312 126.003906 C 90.382812 126.011719 90.433594 126.050781 90.460938 126.109375 C 90.46875 126.132812 90.554688 126.351562 90.410156 126.640625 C 90.1875 127.085938 89.546875 127.441406 88.507812 127.695312 C 87.960938 127.824219 87.480469 127.878906 87.054688 127.878906 " fill-opacity="1" fill-rule="nonzero"/><path fill="#000000" d="M 86.113281 116.222656 C 86.675781 116.101562 87.324219 116.1875 87.597656 116.085938 C 88.039062 115.925781 88.050781 115.398438 88.660156 115.25 C 89.398438 115.070312 89.707031 115.382812 89.996094 115.824219 C 90.042969 115.898438 90.085938 115.980469 90.121094 116.070312 C 90.585938 117.316406 90 117.925781 89.738281 118.121094 C 89.738281 118.121094 88.078125 118.980469 87.792969 119.226562 C 87.527344 119.453125 87.21875 119.996094 87.410156 120.777344 C 87.4375 120.878906 87.394531 120.984375 87.308594 121.035156 C 87.207031 121.09375 87.078125 121.066406 87.011719 120.96875 C 86.792969 120.652344 86.320312 120.046875 85.988281 120.191406 C 85.566406 120.371094 85.695312 121.636719 86.625 121.78125 C 86.914062 121.828125 87.144531 122.121094 87.117188 122.417969 C 87.097656 122.613281 86.914062 122.851562 86.640625 122.914062 C 86.472656 122.953125 86.308594 122.882812 86.160156 122.789062 C 85.554688 122.402344 83.839844 120.757812 83.628906 119.285156 C 83.371094 117.507812 85.363281 116.382812 86.113281 116.222656 " fill-opacity="1" fill-rule="nonzero"/><path fill="#000000" d="M 89.46875 123.347656 C 89.46875 123.347656 89.464844 123.347656 89.464844 123.347656 C 89.433594 123.34375 88.753906 123.316406 88.257812 122.898438 C 88.1875 122.835938 88.179688 122.730469 88.238281 122.660156 C 88.300781 122.589844 88.40625 122.582031 88.476562 122.640625 C 88.882812 122.984375 89.46875 123.007812 89.476562 123.011719 C 89.570312 123.011719 89.640625 123.089844 89.636719 123.183594 C 89.632812 123.273438 89.558594 123.347656 89.46875 123.347656 " fill-opacity="1" fill-rule="nonzero"/><path fill="#a6201e" d="M 120.5 79.550781 C 120.339844 77.507812 120.496094 74.59375 122.253906 72.164062 C 127.105469 65.4375 141.273438 66.421875 144.023438 71.914062 C 145.421875 74.699219 143.910156 78.707031 141.652344 80.914062 C 138.3125 84.175781 132.683594 84.144531 129.246094 82.183594 C 125.972656 80.316406 124.957031 76.851562 122.878906 77.171875 C 121.722656 77.351562 120.953125 78.589844 120.5 79.550781 " fill-opacity="1" fill-rule="nonzero"/><path fill="#ffffff" d="M 139.210938 74.066406 L 127.285156 74.066406 C 127.183594 74.066406 127.101562 73.984375 127.101562 73.882812 C 127.101562 73.785156 127.183594 73.703125 127.285156 73.703125 L 139.210938 73.703125 C 139.3125 73.703125 139.390625 73.785156 139.390625 73.882812 C 139.390625 73.984375 139.3125 74.066406 139.210938 74.066406 " fill-opacity="1" fill-rule="nonzero"/><path fill="#ffffff" d="M 136.039062 76.160156 L 130.039062 76.160156 C 129.9375 76.160156 129.855469 76.078125 129.855469 75.980469 C 129.855469 75.878906 129.9375 75.796875 130.039062 75.796875 L 136.039062 75.796875 C 136.136719 75.796875 136.21875 75.878906 136.21875 75.980469 C 136.21875 76.078125 136.136719 76.160156 136.039062 76.160156 " fill-opacity="1" fill-rule="nonzero"/><path fill="#ffffff" d="M 151.773438 92.597656 C 152.078125 92.171875 155.496094 87.191406 153.351562 81.507812 C 151.84375 77.519531 148.007812 74.285156 143.558594 74.113281 C 142.804688 74.082031 138.070312 73.898438 135.527344 77.683594 C 133.816406 80.230469 133.628906 83.789062 135.292969 86.378906 C 137.269531 89.457031 141.046875 89.898438 141.605469 89.953125 C 145.527344 90.347656 147.691406 87.832031 149.828125 89.046875 C 151.140625 89.789062 151.589844 91.449219 151.773438 92.597656 " fill-opacity="1" fill-rule="nonzero"/><path fill="#000000" d="M 148.546875 88.53125 C 149.011719 88.53125 149.464844 88.632812 149.917969 88.890625 C 150.886719 89.4375 151.542969 90.527344 151.871094 92.125 C 152.710938 90.796875 155.027344 86.457031 153.179688 81.570312 C 151.597656 77.382812 147.726562 74.457031 143.550781 74.292969 C 141.929688 74.230469 137.921875 74.445312 135.675781 77.785156 C 133.964844 80.335938 133.867188 83.828125 135.445312 86.28125 C 137.320312 89.203125 140.921875 89.703125 141.625 89.773438 C 143.484375 89.960938 144.929688 89.484375 146.203125 89.0625 C 147.039062 88.785156 147.808594 88.53125 148.546875 88.53125 Z M 151.773438 92.777344 C 151.761719 92.777344 151.746094 92.777344 151.734375 92.773438 C 151.660156 92.757812 151.609375 92.699219 151.59375 92.628906 C 151.316406 90.898438 150.695312 89.746094 149.742188 89.203125 C 148.707031 88.617188 147.652344 88.964844 146.316406 89.40625 C 145.007812 89.839844 143.523438 90.328125 141.585938 90.132812 C 140.558594 90.03125 137.054688 89.460938 135.140625 86.480469 C 133.488281 83.90625 133.585938 80.25 135.375 77.582031 C 137.722656 74.089844 141.882812 73.867188 143.5625 73.933594 C 145.730469 74.015625 147.84375 74.8125 149.667969 76.238281 C 151.390625 77.578125 152.757812 79.429688 153.519531 81.445312 C 155.683594 87.167969 152.3125 92.152344 151.921875 92.703125 C 151.886719 92.75 151.832031 92.777344 151.773438 92.777344 " fill-opacity="1" fill-rule="nonzero"/><path fill="#000000" d="M 149.621094 81.390625 L 138.40625 81.390625 C 138.304688 81.390625 138.226562 81.308594 138.226562 81.210938 C 138.226562 81.109375 138.304688 81.027344 138.40625 81.027344 L 149.621094 81.027344 C 149.71875 81.027344 149.800781 81.109375 149.800781 81.210938 C 149.800781 81.308594 149.71875 81.390625 149.621094 81.390625 " fill-opacity="1" fill-rule="nonzero"/><path fill="#000000" d="M 145.9375 82.851562 L 141.925781 82.851562 C 141.824219 82.851562 141.742188 82.769531 141.742188 82.671875 C 141.742188 82.570312 141.824219 82.488281 141.925781 82.488281 L 145.9375 82.488281 C 146.035156 82.488281 146.117188 82.570312 146.117188 82.671875 C 146.117188 82.769531 146.035156 82.851562 145.9375 82.851562 " fill-opacity="1" fill-rule="nonzero"/><path fill="#ffffff" d="M 116.472656 158.75 C 116.378906 158.75 116.300781 158.675781 116.292969 158.582031 C 116.289062 158.480469 116.363281 158.394531 116.460938 158.386719 C 123.417969 157.898438 130.152344 155.792969 135.945312 152.304688 C 136.027344 152.253906 136.140625 152.28125 136.191406 152.367188 C 136.246094 152.453125 136.214844 152.5625 136.132812 152.613281 C 130.292969 156.132812 123.5 158.253906 116.488281 158.75 C 116.484375 158.75 116.480469 158.75 116.472656 158.75 " fill-opacity="1" fill-rule="nonzero"/><path fill="#ffffff" d="M 113.082031 160.128906 C 112.980469 160.128906 112.875 160.128906 112.773438 160.125 C 112.671875 160.125 112.589844 160.042969 112.59375 159.945312 C 112.59375 159.84375 112.675781 159.765625 112.773438 159.765625 C 120.089844 159.808594 127.308594 158.15625 133.648438 154.96875 C 133.734375 154.925781 133.84375 154.960938 133.890625 155.050781 C 133.933594 155.140625 133.898438 155.25 133.808594 155.292969 C 127.507812 158.457031 120.347656 160.128906 113.082031 160.128906 " fill-opacity="1" fill-rule="nonzero"/><path fill="#ffffff" d="M 133.253906 156.652344 C 133.214844 156.652344 133.171875 156.65625 133.132812 156.664062 C 132.957031 156.699219 132.804688 156.796875 132.703125 156.945312 C 132.601562 157.089844 132.5625 157.269531 132.597656 157.445312 C 132.628906 157.621094 132.726562 157.773438 132.875 157.875 C 133.019531 157.972656 133.199219 158.011719 133.375 157.980469 C 133.550781 157.945312 133.703125 157.847656 133.804688 157.699219 C 133.90625 157.554688 133.941406 157.375 133.910156 157.199219 C 133.878906 157.023438 133.777344 156.871094 133.632812 156.773438 C 133.519531 156.695312 133.386719 156.652344 133.253906 156.652344 Z M 133.25 158.351562 C 133.046875 158.351562 132.84375 158.292969 132.667969 158.171875 C 132.441406 158.015625 132.289062 157.78125 132.238281 157.511719 C 132.191406 157.238281 132.246094 156.964844 132.402344 156.738281 C 132.558594 156.511719 132.792969 156.359375 133.066406 156.308594 C 133.335938 156.257812 133.609375 156.316406 133.835938 156.472656 C 134.0625 156.628906 134.214844 156.863281 134.265625 157.132812 C 134.316406 157.40625 134.257812 157.679688 134.101562 157.90625 C 133.945312 158.132812 133.710938 158.285156 133.441406 158.335938 C 133.378906 158.347656 133.3125 158.351562 133.25 158.351562 " fill-opacity="1" fill-rule="nonzero"/><path fill="#ffffff" d="M 128.527344 158.675781 L 130.125 160.015625 L 130.335938 157.960938 C 129.941406 158.148438 129.222656 158.472656 128.527344 158.675781 Z M 130.269531 160.554688 C 130.230469 160.554688 130.1875 160.539062 130.15625 160.511719 L 128.027344 158.730469 C 127.976562 158.6875 127.953125 158.617188 127.96875 158.550781 C 127.984375 158.480469 128.035156 158.429688 128.101562 158.414062 C 129.144531 158.175781 130.453125 157.5 130.464844 157.496094 C 130.523438 157.464844 130.59375 157.46875 130.648438 157.503906 C 130.703125 157.542969 130.734375 157.605469 130.726562 157.671875 L 130.453125 160.390625 C 130.445312 160.457031 130.402344 160.515625 130.339844 160.542969 C 130.316406 160.550781 130.292969 160.554688 130.269531 160.554688 " fill-opacity="1" fill-rule="nonzero"/><path fill="#000000" d="M 153.25 134.605469 C 153.21875 134.605469 153.1875 134.597656 153.15625 134.582031 C 153.070312 134.53125 153.042969 134.417969 153.09375 134.332031 C 153.753906 133.21875 154.339844 132.042969 154.835938 130.839844 C 156.679688 126.351562 157.277344 121.417969 156.570312 116.574219 C 156.554688 116.476562 156.625 116.382812 156.722656 116.371094 C 156.820312 116.355469 156.914062 116.421875 156.929688 116.523438 C 157.644531 121.429688 157.039062 126.429688 155.167969 130.976562 C 154.667969 132.195312 154.074219 133.386719 153.40625 134.515625 C 153.371094 134.574219 153.3125 134.605469 153.25 134.605469 " fill-opacity="1" fill-rule="nonzero"/><path fill="#000000" d="M 153.960938 137.09375 C 153.925781 137.09375 153.894531 137.085938 153.867188 137.070312 C 153.78125 137.019531 153.753906 136.90625 153.804688 136.820312 C 154.625 135.433594 155.355469 133.96875 155.96875 132.472656 C 158.265625 126.882812 159.015625 120.742188 158.132812 114.710938 C 158.117188 114.613281 158.1875 114.519531 158.285156 114.503906 C 158.382812 114.492188 158.476562 114.558594 158.488281 114.65625 C 159.382812 120.753906 158.625 126.960938 156.304688 132.609375 C 155.683594 134.125 154.945312 135.601562 154.117188 137.007812 C 154.082031 137.0625 154.019531 137.09375 153.960938 137.09375 " fill-opacity="1" fill-rule="nonzero"/><path fill="#000000" d="M 160.648438 117.289062 Z M 160.035156 116.554688 C 159.84375 116.554688 159.664062 116.667969 159.585938 116.855469 C 159.535156 116.972656 159.539062 117.105469 159.585938 117.222656 C 159.636719 117.34375 159.730469 117.4375 159.847656 117.484375 C 160.097656 117.585938 160.378906 117.46875 160.480469 117.222656 C 160.582031 116.976562 160.464844 116.691406 160.21875 116.589844 C 160.15625 116.566406 160.097656 116.554688 160.035156 116.554688 Z M 160.03125 117.882812 C 159.925781 117.882812 159.816406 117.863281 159.710938 117.820312 C 159.503906 117.734375 159.339844 117.570312 159.253906 117.363281 C 159.167969 117.15625 159.164062 116.925781 159.253906 116.714844 C 159.429688 116.285156 159.925781 116.078125 160.355469 116.257812 C 160.785156 116.433594 160.992188 116.929688 160.816406 117.359375 C 160.683594 117.6875 160.367188 117.882812 160.03125 117.882812 " fill-opacity="1" fill-rule="nonzero"/><path fill="#000000" d="M 159.742188 119.777344 L 159.695312 120.484375 L 160.296875 120.132812 C 160.152344 120.035156 159.957031 119.90625 159.742188 119.777344 Z M 159.492188 120.992188 C 159.460938 120.992188 159.425781 120.984375 159.398438 120.96875 C 159.339844 120.933594 159.308594 120.867188 159.3125 120.800781 L 159.398438 119.457031 C 159.402344 119.394531 159.441406 119.339844 159.496094 119.3125 C 159.550781 119.28125 159.617188 119.28125 159.671875 119.3125 C 160.214844 119.628906 160.71875 119.980469 160.738281 119.992188 C 160.789062 120.03125 160.820312 120.089844 160.816406 120.148438 C 160.8125 120.210938 160.78125 120.265625 160.726562 120.296875 L 159.585938 120.96875 C 159.558594 120.984375 159.527344 120.992188 159.492188 120.992188 " fill-opacity="1" fill-rule="nonzero"/><path fill="#000000" d="M 159.242188 127.140625 C 159.148438 127.140625 159.066406 127.070312 159.0625 126.972656 C 159.058594 126.929688 158.996094 126.816406 158.953125 126.730469 C 158.839844 126.519531 158.699219 126.257812 158.765625 126 C 158.820312 125.78125 159.035156 125.628906 159.238281 125.476562 C 159.382812 125.371094 159.5625 125.242188 159.578125 125.152344 C 159.609375 124.992188 159.503906 124.773438 159.398438 124.5625 C 159.277344 124.324219 159.15625 124.078125 159.191406 123.835938 C 159.230469 123.5625 159.414062 123.335938 159.578125 123.132812 C 159.6875 122.996094 159.804688 122.855469 159.8125 122.757812 C 159.859375 122.363281 159.488281 122.058594 159.484375 122.054688 C 159.40625 121.992188 159.394531 121.878906 159.457031 121.800781 C 159.519531 121.722656 159.632812 121.710938 159.710938 121.773438 C 159.730469 121.789062 160.242188 122.203125 160.171875 122.800781 C 160.152344 123 160.011719 123.175781 159.859375 123.363281 C 159.71875 123.535156 159.574219 123.714844 159.550781 123.890625 C 159.527344 124.019531 159.625 124.210938 159.722656 124.402344 C 159.847656 124.652344 159.992188 124.9375 159.933594 125.222656 C 159.886719 125.453125 159.667969 125.613281 159.453125 125.769531 C 159.3125 125.871094 159.140625 126 159.117188 126.089844 C 159.085938 126.210938 159.1875 126.40625 159.273438 126.5625 C 159.347656 126.703125 159.414062 126.828125 159.421875 126.949219 C 159.429688 127.050781 159.351562 127.136719 159.253906 127.140625 C 159.25 127.140625 159.246094 127.140625 159.242188 127.140625 " fill-opacity="1" fill-rule="nonzero"/><path fill="#000000" d="M 149.929688 73.015625 C 149.851562 73.015625 149.78125 72.96875 149.753906 72.894531 C 149.746094 72.859375 149.496094 72.089844 149.972656 71.519531 C 150.125 71.332031 150.394531 71.246094 150.679688 71.15625 C 150.957031 71.066406 151.242188 70.972656 151.402344 70.792969 C 151.523438 70.65625 151.558594 70.371094 151.589844 70.097656 C 151.632812 69.730469 151.675781 69.351562 151.921875 69.101562 C 152.121094 68.902344 152.460938 68.882812 152.785156 68.867188 C 153.027344 68.855469 153.300781 68.839844 153.402344 68.75 C 153.535156 68.625 153.5625 68.347656 153.582031 68.101562 C 153.601562 67.902344 153.617188 67.730469 153.6875 67.601562 C 153.738281 67.515625 153.847656 67.484375 153.933594 67.535156 C 154.023438 67.582031 154.054688 67.691406 154.003906 67.78125 C 153.972656 67.839844 153.957031 67.996094 153.945312 68.132812 C 153.917969 68.429688 153.882812 68.800781 153.644531 69.015625 C 153.449219 69.195312 153.121094 69.214844 152.804688 69.230469 C 152.558594 69.242188 152.277344 69.253906 152.183594 69.355469 C 152.023438 69.515625 151.984375 69.832031 151.949219 70.140625 C 151.910156 70.46875 151.871094 70.8125 151.671875 71.035156 C 151.445312 71.289062 151.097656 71.398438 150.789062 71.5 C 150.566406 71.570312 150.335938 71.644531 150.25 71.75 C 149.902344 72.167969 150.097656 72.773438 150.101562 72.78125 C 150.132812 72.875 150.078125 72.976562 149.984375 73.007812 C 149.964844 73.015625 149.945312 73.015625 149.929688 73.015625 " fill-opacity="1" fill-rule="nonzero"/><path fill="#000000" d="M 152.003906 73.132812 L 152.007812 73.132812 Z M 152.707031 72.941406 C 152.667969 72.941406 152.625 72.945312 152.582031 72.953125 C 152.40625 72.984375 152.253906 73.085938 152.15625 73.234375 C 151.949219 73.539062 152.027344 73.953125 152.332031 74.160156 C 152.636719 74.367188 153.050781 74.289062 153.257812 73.984375 C 153.359375 73.839844 153.398438 73.660156 153.363281 73.484375 C 153.332031 73.308594 153.230469 73.15625 153.082031 73.058594 C 152.972656 72.980469 152.839844 72.941406 152.707031 72.941406 Z M 152.707031 74.640625 C 152.503906 74.640625 152.304688 74.582031 152.125 74.460938 C 151.65625 74.140625 151.535156 73.5 151.855469 73.03125 C 152.011719 72.800781 152.246094 72.648438 152.515625 72.597656 C 152.785156 72.546875 153.058594 72.601562 153.289062 72.757812 C 153.515625 72.914062 153.667969 73.148438 153.71875 73.417969 C 153.769531 73.6875 153.714844 73.960938 153.558594 74.191406 C 153.359375 74.480469 153.035156 74.640625 152.707031 74.640625 " fill-opacity="1" fill-rule="nonzero"/></svg>