<svg xmlns="http://www.w3.org/2000/svg" xmlns:xlink="http://www.w3.org/1999/xlink" width="300" zoomAndPan="magnify" viewBox="0 0 224.87999 225" height="300" preserveAspectRatio="xMidYMid meet" version="1.0"><path fill="#ffbf23" d="M 81.394531 85.054688 C 93.332031 73.042969 89.914062 65.515625 98.082031 59.953125 C 110.644531 51.394531 134.097656 58.757812 147.933594 70.527344 C 164.878906 84.941406 173.621094 111.265625 163.660156 135.078125 C 153.054688 160.4375 125.148438 173.601562 100.246094 169.632812 C 78.007812 166.089844 56.148438 148.566406 53.960938 127.546875 C 53.722656 125.265625 52.675781 112.953125 60.023438 102.332031 C 66.101562 93.554688 71.9375 94.574219 81.394531 85.054688 " fill-opacity="1" fill-rule="nonzero"/><path fill="#a6201e" d="M 71.742188 72.144531 C 79.660156 70.6875 86.96875 74.355469 88.070312 80.335938 C 88.5625 83.015625 87.730469 85.699219 85.949219 87.984375 L 89.507812 93.460938 L 82.027344 91.425781 C 80.214844 92.542969 78.078125 93.375 75.730469 93.808594 C 67.816406 95.265625 60.503906 91.597656 59.40625 85.613281 C 58.304688 79.628906 63.828125 73.601562 71.742188 72.144531 " fill-opacity="1" fill-rule="nonzero"/><path fill="#000000" d="M 66.039062 73.222656 C 65.972656 73.222656 65.90625 73.191406 65.867188 73.132812 C 65.804688 73.035156 65.828125 72.910156 65.925781 72.84375 C 66.101562 72.726562 66.28125 72.609375 66.460938 72.5 C 66.554688 72.441406 66.683594 72.46875 66.746094 72.566406 C 66.804688 72.664062 66.773438 72.792969 66.675781 72.851562 C 66.5 72.960938 66.328125 73.074219 66.15625 73.1875 C 66.121094 73.210938 66.078125 73.222656 66.039062 73.222656 " fill-opacity="1" fill-rule="nonzero"/><path fill="#000000" d="M 73.449219 92.460938 C 66.863281 92.460938 61.316406 88.96875 60.363281 83.78125 C 59.722656 80.308594 61.21875 76.726562 64.46875 73.949219 C 64.554688 73.875 64.6875 73.886719 64.761719 73.972656 C 64.835938 74.058594 64.824219 74.1875 64.738281 74.261719 C 61.605469 76.941406 60.15625 80.382812 60.769531 83.703125 C 61.847656 89.566406 69.0625 93.167969 76.855469 91.734375 C 77.4375 91.625 78.019531 91.492188 78.585938 91.332031 C 78.695312 91.300781 78.808594 91.363281 78.839844 91.476562 C 78.871094 91.585938 78.804688 91.699219 78.695312 91.730469 C 78.121094 91.890625 77.527344 92.03125 76.929688 92.140625 C 75.75 92.355469 74.582031 92.460938 73.449219 92.460938 " fill-opacity="1" fill-rule="nonzero"/><path fill="#000000" d="M 90.671875 91.796875 C 90.652344 91.796875 90.632812 91.792969 90.617188 91.789062 L 83.222656 89.777344 C 82.683594 90.105469 82.121094 90.40625 81.539062 90.675781 C 81.433594 90.726562 81.3125 90.679688 81.265625 90.578125 C 81.214844 90.472656 81.261719 90.351562 81.363281 90.304688 C 81.957031 90.027344 82.535156 89.714844 83.082031 89.378906 C 83.132812 89.351562 83.1875 89.339844 83.246094 89.355469 L 90.203125 91.246094 L 86.933594 86.222656 C 86.886719 86.148438 86.890625 86.054688 86.945312 85.984375 C 88.75 83.671875 89.492188 81.015625 89.027344 78.503906 C 88.507812 75.675781 86.554688 73.28125 83.53125 71.765625 C 80.488281 70.234375 76.726562 69.777344 72.941406 70.476562 C 72.050781 70.640625 71.167969 70.867188 70.324219 71.152344 C 70.214844 71.1875 70.097656 71.128906 70.0625 71.019531 C 70.023438 70.914062 70.082031 70.796875 70.191406 70.757812 C 71.054688 70.46875 71.957031 70.234375 72.867188 70.070312 C 76.738281 69.355469 80.59375 69.828125 83.71875 71.394531 C 86.859375 72.972656 88.890625 75.46875 89.433594 78.429688 C 89.910156 81.015625 89.175781 83.742188 87.363281 86.121094 L 90.84375 91.476562 C 90.890625 91.546875 90.886719 91.640625 90.839844 91.710938 C 90.796875 91.765625 90.734375 91.796875 90.671875 91.796875 " fill-opacity="1" fill-rule="nonzero"/><path fill="#14697d" d="M 75.257812 80.132812 C 75.144531 80.132812 75.050781 80.039062 75.050781 79.925781 C 75.050781 79.8125 75.144531 79.71875 75.257812 79.71875 L 85.214844 79.695312 C 85.332031 79.695312 85.421875 79.785156 85.421875 79.902344 C 85.421875 80.015625 85.332031 80.105469 85.21875 80.109375 L 75.257812 80.132812 " fill-opacity="1" fill-rule="nonzero"/><path fill="#14697d" d="M 63.84375 79.84375 C 63.730469 79.84375 63.636719 79.753906 63.636719 79.640625 C 63.636719 79.523438 63.726562 79.429688 63.839844 79.429688 L 73.355469 79.378906 C 73.46875 79.378906 73.5625 79.46875 73.5625 79.582031 C 73.566406 79.699219 73.472656 79.789062 73.359375 79.792969 L 63.84375 79.84375 " fill-opacity="1" fill-rule="nonzero"/><path fill="#14697d" d="M 84.785156 82.722656 L 71.773438 82.558594 C 71.660156 82.558594 71.566406 82.464844 71.570312 82.351562 C 71.570312 82.238281 71.664062 82.148438 71.777344 82.148438 L 84.789062 82.308594 C 84.902344 82.308594 84.992188 82.402344 84.992188 82.515625 C 84.992188 82.628906 84.898438 82.722656 84.785156 82.722656 " fill-opacity="1" fill-rule="nonzero"/><path fill="#14697d" d="M 69.253906 82.53125 C 69.253906 82.53125 69.25 82.53125 69.25 82.53125 L 63.410156 82.457031 C 63.296875 82.457031 63.203125 82.363281 63.203125 82.246094 C 63.207031 82.136719 63.300781 82.042969 63.410156 82.042969 C 63.414062 82.042969 63.414062 82.042969 63.414062 82.042969 L 69.253906 82.117188 C 69.371094 82.117188 69.460938 82.210938 69.460938 82.324219 C 69.457031 82.4375 69.367188 82.53125 69.253906 82.53125 " fill-opacity="1" fill-rule="nonzero"/><path fill="#14697d" d="M 85.15625 84.929688 L 80.390625 84.902344 C 80.273438 84.898438 80.183594 84.808594 80.183594 84.691406 C 80.183594 84.578125 80.277344 84.488281 80.390625 84.488281 L 85.15625 84.515625 C 85.273438 84.515625 85.363281 84.609375 85.363281 84.726562 C 85.363281 84.839844 85.269531 84.929688 85.15625 84.929688 " fill-opacity="1" fill-rule="nonzero"/><path fill="#14697d" d="M 79.253906 84.917969 C 79.253906 84.917969 79.25 84.917969 79.25 84.917969 L 63.78125 84.667969 C 63.664062 84.664062 63.574219 84.570312 63.578125 84.457031 C 63.578125 84.34375 63.671875 84.25 63.785156 84.253906 L 79.257812 84.503906 C 79.371094 84.507812 79.460938 84.601562 79.460938 84.714844 C 79.457031 84.828125 79.367188 84.917969 79.253906 84.917969 " fill-opacity="1" fill-rule="nonzero"/><path fill="#14697d" d="M 150.5 164.347656 L 99.242188 164.347656 C 97.03125 164.347656 95.46875 162.566406 95.746094 160.367188 L 108.367188 60.847656 C 108.644531 58.648438 110.664062 56.867188 112.871094 56.867188 L 161.558594 56.300781 C 167.148438 56.300781 167.90625 58.648438 167.625 60.847656 L 155.003906 160.367188 C 154.726562 162.566406 152.710938 164.347656 150.5 164.347656 " fill-opacity="1" fill-rule="nonzero"/><path fill="#ffffff" d="M 147.414062 164.347656 L 96.15625 164.347656 C 93.949219 164.347656 92.382812 162.558594 92.660156 160.347656 L 105.28125 60.320312 C 105.5625 58.109375 107.578125 56.320312 109.789062 56.320312 L 161.046875 56.320312 C 163.257812 56.320312 164.820312 58.109375 164.542969 60.320312 L 151.921875 160.347656 C 151.640625 162.558594 149.625 164.347656 147.414062 164.347656 " fill-opacity="1" fill-rule="nonzero"/><path fill="#ffbf23" d="M 95.582031 160.484375 L 107.632812 64.976562 C 107.699219 64.464844 108.164062 64.050781 108.671875 64.050781 L 160.210938 64.050781 C 160.71875 64.050781 161.082031 64.464844 161.015625 64.976562 L 148.964844 160.484375 C 148.902344 160.996094 148.433594 161.410156 147.925781 161.410156 L 96.390625 161.410156 C 95.878906 161.410156 95.519531 160.996094 95.582031 160.484375 " fill-opacity="1" fill-rule="nonzero"/><path fill="#ffbf23" d="M 134.777344 61.40625 C 133.949219 61.40625 133.363281 60.734375 133.464844 59.90625 C 133.570312 59.082031 134.324219 58.410156 135.152344 58.410156 C 135.980469 58.410156 136.566406 59.082031 136.464844 59.90625 C 136.359375 60.734375 135.601562 61.40625 134.777344 61.40625 " fill-opacity="1" fill-rule="nonzero"/><path fill="#000000" d="M 147.417969 164.554688 L 105.105469 164.554688 C 104.992188 164.554688 104.898438 164.460938 104.898438 164.347656 C 104.898438 164.234375 104.992188 164.140625 105.105469 164.140625 L 147.417969 164.140625 C 149.519531 164.140625 151.449219 162.429688 151.714844 160.324219 L 164.335938 60.292969 C 164.464844 59.28125 164.191406 58.328125 163.5625 57.617188 C 162.941406 56.914062 162.050781 56.527344 161.046875 56.527344 L 109.789062 56.527344 C 107.683594 56.527344 105.753906 58.238281 105.488281 60.34375 L 97.183594 126.164062 C 97.167969 126.277344 97.066406 126.359375 96.953125 126.34375 C 96.839844 126.328125 96.757812 126.226562 96.773438 126.113281 L 105.078125 60.292969 C 105.367188 57.988281 107.480469 56.113281 109.789062 56.113281 L 161.046875 56.113281 C 162.167969 56.113281 163.171875 56.550781 163.871094 57.34375 C 164.578125 58.144531 164.890625 59.210938 164.746094 60.34375 L 152.125 160.375 C 151.835938 162.679688 149.722656 164.554688 147.417969 164.554688 " fill-opacity="1" fill-rule="nonzero"/><path fill="#000000" d="M 147.925781 161.617188 L 131.148438 161.617188 C 131.035156 161.617188 130.941406 161.523438 130.941406 161.410156 C 130.941406 161.296875 131.035156 161.203125 131.148438 161.203125 L 147.925781 161.203125 C 148.332031 161.203125 148.707031 160.871094 148.761719 160.460938 L 160.8125 64.949219 C 160.835938 64.761719 160.785156 64.585938 160.671875 64.457031 C 160.558594 64.328125 160.394531 64.257812 160.210938 64.257812 L 108.675781 64.257812 C 108.265625 64.257812 107.890625 64.589844 107.839844 65 L 99.5 131.105469 C 99.484375 131.21875 99.378906 131.296875 99.265625 131.285156 C 99.15625 131.269531 99.074219 131.164062 99.089844 131.050781 L 107.429688 64.949219 C 107.507812 64.339844 108.066406 63.84375 108.675781 63.84375 L 160.210938 63.84375 C 160.515625 63.84375 160.789062 63.964844 160.980469 64.183594 C 161.175781 64.402344 161.261719 64.691406 161.222656 65 L 149.167969 160.511719 C 149.09375 161.121094 148.535156 161.617188 147.925781 161.617188 " fill-opacity="1" fill-rule="nonzero"/><path fill="#000000" d="M 102.265625 121.429688 C 102.265625 121.421875 102.265625 121.414062 102.265625 121.402344 C 102.316406 118.695312 103.992188 115.9375 107.246094 113.203125 C 109.527344 111.285156 111.769531 110.078125 111.867188 110.027344 C 112.617188 109.625 113.554688 109.910156 113.957031 110.660156 C 114.359375 111.414062 114.074219 112.351562 113.320312 112.753906 C 111.128906 113.929688 105.425781 117.785156 105.355469 121.464844 C 105.355469 121.46875 105.355469 121.476562 105.355469 121.480469 C 105.335938 122.644531 105.679688 123.554688 106.410156 124.253906 C 108.15625 125.933594 111.699219 126.109375 112.914062 126.039062 C 113.765625 125.988281 114.496094 126.636719 114.546875 127.488281 C 114.597656 128.339844 113.949219 129.070312 113.097656 129.121094 C 112.867188 129.136719 107.339844 129.429688 104.269531 126.484375 C 102.90625 125.175781 102.230469 123.472656 102.265625 121.429688 " fill-opacity="1" fill-rule="nonzero"/><path fill="#14697d" d="M 113.21875 132.460938 L 113.367188 123.308594 C 113.382812 122.457031 114.085938 121.777344 114.9375 121.789062 C 115.792969 121.804688 116.472656 122.507812 116.457031 123.359375 L 116.308594 132.511719 C 116.292969 133.363281 115.589844 134.042969 114.738281 134.03125 C 113.886719 134.015625 113.203125 133.3125 113.21875 132.460938 " fill-opacity="1" fill-rule="nonzero"/><path fill="#14697d" d="M 100.742188 93.8125 L 103.96875 93.8125 C 104.097656 93.8125 104.203125 93.710938 104.203125 93.582031 L 104.203125 83.929688 C 104.203125 83.804688 104.097656 83.699219 103.96875 83.699219 L 100.742188 83.699219 C 100.0625 83.699219 99.511719 84.25 99.511719 84.925781 L 99.511719 92.585938 C 99.511719 93.261719 100.0625 93.8125 100.742188 93.8125 " fill-opacity="1" fill-rule="nonzero"/><path fill="#ffffff" d="M 148.722656 93.8125 L 145.453125 93.8125 L 145.453125 84.675781 L 148.722656 84.675781 C 149.507812 84.675781 150.140625 85.3125 150.140625 86.097656 L 150.140625 92.390625 C 150.140625 93.175781 149.507812 93.8125 148.722656 93.8125 " fill-opacity="1" fill-rule="nonzero"/><path fill="#000000" d="M 145.660156 93.605469 L 146.113281 93.605469 C 148.222656 93.605469 149.9375 91.890625 149.9375 89.785156 L 149.9375 88.703125 C 149.9375 86.597656 148.222656 84.882812 146.113281 84.882812 L 145.660156 84.882812 Z M 146.113281 94.019531 L 145.453125 94.019531 C 145.339844 94.019531 145.25 93.925781 145.25 93.8125 L 145.25 84.675781 C 145.25 84.5625 145.339844 84.46875 145.453125 84.46875 L 146.113281 84.46875 C 148.449219 84.46875 150.351562 86.371094 150.351562 88.703125 L 150.351562 89.785156 C 150.351562 92.121094 148.449219 94.019531 146.113281 94.019531 " fill-opacity="1" fill-rule="nonzero"/><path fill="#ffffff" d="M 146.933594 88.867188 C 146.933594 79.050781 137.035156 68.894531 124.828125 68.894531 C 112.621094 68.894531 102.722656 79.050781 102.722656 88.867188 C 102.722656 98.683594 112.621094 104.445312 124.828125 104.445312 C 137.035156 104.445312 146.933594 98.683594 146.933594 88.867188 " fill-opacity="1" fill-rule="nonzero"/><path fill="#000000" d="M 124.828125 69.101562 C 112.296875 69.101562 102.933594 79.535156 102.933594 88.867188 C 102.933594 93.476562 105.136719 97.382812 109.3125 100.167969 C 113.253906 102.792969 118.761719 104.238281 124.828125 104.238281 C 130.894531 104.238281 136.402344 102.792969 140.34375 100.167969 C 144.519531 97.382812 146.726562 93.476562 146.726562 88.867188 C 146.726562 79.535156 137.359375 69.101562 124.828125 69.101562 Z M 124.828125 104.652344 C 118.679688 104.652344 113.089844 103.183594 109.085938 100.511719 C 104.789062 97.644531 102.519531 93.621094 102.519531 88.867188 C 102.519531 83.996094 104.902344 78.960938 109.054688 75.046875 C 113.414062 70.945312 119.015625 68.6875 124.828125 68.6875 C 130.640625 68.6875 136.242188 70.945312 140.597656 75.046875 C 144.753906 78.960938 147.136719 83.996094 147.136719 88.867188 C 147.136719 93.621094 144.867188 97.644531 140.570312 100.511719 C 136.566406 103.183594 130.976562 104.652344 124.828125 104.652344 " fill-opacity="1" fill-rule="nonzero"/><path fill="#ffffff" d="M 119.292969 107.398438 L 130.367188 107.398438 C 135.21875 107.398438 139.152344 111.332031 139.152344 116.183594 C 139.152344 119.390625 138.839844 122.589844 138.21875 125.734375 L 136.625 133.796875 C 135.515625 139.433594 130.570312 143.492188 124.828125 143.492188 C 119.085938 143.492188 114.144531 139.433594 113.03125 133.796875 L 111.4375 125.734375 C 110.816406 122.589844 110.503906 119.390625 110.503906 116.183594 C 110.503906 111.332031 114.4375 107.398438 119.292969 107.398438 " fill-opacity="1" fill-rule="nonzero"/><path fill="#000000" d="M 119.292969 107.601562 C 114.5625 107.601562 110.710938 111.453125 110.710938 116.183594 C 110.710938 119.371094 111.023438 122.570312 111.640625 125.695312 L 113.234375 133.757812 C 114.324219 139.277344 119.199219 143.285156 124.828125 143.285156 C 130.457031 143.285156 135.332031 139.277344 136.421875 133.757812 L 138.015625 125.695312 C 138.632812 122.570312 138.945312 119.371094 138.945312 116.183594 C 138.945312 111.453125 135.097656 107.601562 130.363281 107.601562 Z M 124.828125 143.699219 C 119.003906 143.699219 113.957031 139.550781 112.828125 133.835938 L 111.234375 125.773438 C 110.613281 122.625 110.296875 119.398438 110.296875 116.183594 C 110.296875 111.226562 114.332031 107.191406 119.292969 107.191406 L 130.363281 107.191406 C 135.324219 107.191406 139.359375 111.226562 139.359375 116.183594 C 139.359375 119.398438 139.042969 122.625 138.421875 125.773438 L 136.828125 133.835938 C 135.699219 139.550781 130.652344 143.699219 124.828125 143.699219 " fill-opacity="1" fill-rule="nonzero"/><path fill="#ffbf23" d="M 124.117188 126.867188 L 125.539062 126.867188 C 128.476562 126.867188 130.855469 124.488281 130.855469 121.550781 L 130.855469 107.394531 L 118.800781 107.394531 L 118.800781 121.550781 C 118.800781 124.488281 121.179688 126.867188 124.117188 126.867188 " fill-opacity="1" fill-rule="nonzero"/><path fill="#000000" d="M 130.855469 107.601562 L 118.800781 107.601562 C 118.6875 107.601562 118.59375 107.511719 118.59375 107.394531 C 118.59375 107.28125 118.6875 107.191406 118.800781 107.191406 L 130.855469 107.191406 C 130.96875 107.191406 131.0625 107.28125 131.0625 107.394531 C 131.0625 107.511719 130.96875 107.601562 130.855469 107.601562 " fill-opacity="1" fill-rule="nonzero"/><path fill="#000000" d="M 109.96875 85.921875 L 131.253906 85.921875 C 133.464844 85.921875 135.257812 87.851562 135.257812 90.234375 L 135.257812 93.050781 C 135.257812 94.867188 134.285156 96.792969 132.613281 97.105469 C 126.714844 98.214844 114.503906 98.214844 108.605469 97.105469 C 106.933594 96.792969 105.964844 94.867188 105.964844 93.050781 L 105.964844 90.234375 C 105.964844 87.851562 107.757812 85.921875 109.96875 85.921875 " fill-opacity="1" fill-rule="nonzero"/><path fill="#14697d" d="M 125.613281 91.585938 C 125.613281 92.382812 126.210938 93.03125 126.953125 93.03125 C 127.695312 93.03125 128.296875 92.382812 128.296875 91.585938 C 128.296875 90.785156 127.695312 90.140625 126.953125 90.140625 C 126.210938 90.140625 125.613281 90.785156 125.613281 91.585938 " fill-opacity="1" fill-rule="nonzero"/><path fill="#14697d" d="M 111.339844 91.585938 C 111.339844 92.382812 111.941406 93.03125 112.683594 93.03125 C 113.421875 93.03125 114.023438 92.382812 114.023438 91.585938 C 114.023438 90.785156 113.421875 90.140625 112.683594 90.140625 C 111.941406 90.140625 111.339844 90.785156 111.339844 91.585938 " fill-opacity="1" fill-rule="nonzero"/><path fill="#14697d" d="M 133.609375 100.082031 C 133.523438 100.082031 133.441406 100.027344 133.414062 99.941406 C 133.378906 99.832031 133.4375 99.714844 133.546875 99.679688 L 140.34375 97.441406 C 143.441406 96.421875 145.332031 93.34375 144.835938 90.117188 L 144.347656 86.921875 C 144.332031 86.808594 144.40625 86.703125 144.519531 86.6875 C 144.636719 86.667969 144.738281 86.746094 144.757812 86.859375 L 145.246094 90.054688 C 145.769531 93.480469 143.761719 96.75 140.472656 97.835938 L 133.675781 100.070312 C 133.65625 100.078125 133.632812 100.082031 133.609375 100.082031 " fill-opacity="1" fill-rule="nonzero"/><path fill="#14697d" d="M 147.75 85.546875 C 147.660156 85.546875 147.574219 85.484375 147.550781 85.394531 C 147.539062 85.351562 146.402344 81.132812 143.40625 77.042969 C 140.652344 73.28125 135.722656 68.855469 127.847656 69.136719 C 127.738281 69.140625 127.636719 69.050781 127.636719 68.9375 C 127.628906 68.824219 127.71875 68.726562 127.832031 68.722656 C 131.390625 68.597656 134.664062 69.390625 137.5625 71.085938 C 139.878906 72.4375 141.960938 74.363281 143.746094 76.808594 C 146.785156 80.960938 147.941406 85.242188 147.949219 85.285156 C 147.980469 85.398438 147.914062 85.511719 147.804688 85.539062 C 147.785156 85.542969 147.769531 85.546875 147.75 85.546875 " fill-opacity="1" fill-rule="nonzero"/><path fill="#a6201e" d="M 141.957031 90.320312 C 141.589844 87.441406 143.433594 84.835938 146.074219 84.503906 C 146.363281 84.46875 147.433594 84.4375 147.714844 84.457031 C 150.003906 84.613281 151.1875 86.546875 151.511719 89.109375 C 151.859375 91.871094 150.808594 94.453125 148.335938 94.945312 C 148.234375 94.964844 147.503906 95.023438 147.394531 95.023438 C 144.503906 95.035156 142.320312 93.195312 141.957031 90.320312 " fill-opacity="1" fill-rule="nonzero"/><path fill="#14697d" d="M 143.09375 90.226562 C 142.789062 87.339844 144.683594 84.773438 147.328125 84.492188 C 149.972656 84.210938 152.363281 86.320312 152.671875 89.203125 C 152.980469 92.089844 151.085938 94.65625 148.441406 94.9375 C 145.796875 95.21875 143.402344 93.109375 143.09375 90.226562 " fill-opacity="1" fill-rule="nonzero"/><path fill="#14697d" d="M 135.144531 100.882812 L 129.851562 101.386719 C 129.648438 101.40625 129.464844 101.253906 129.445312 101.050781 L 129.292969 99.425781 C 129.273438 99.222656 129.421875 99.039062 129.625 99.023438 L 134.917969 98.519531 C 135.121094 98.5 135.300781 98.648438 135.320312 98.851562 L 135.476562 100.480469 C 135.496094 100.683594 135.34375 100.863281 135.144531 100.882812 " fill-opacity="1" fill-rule="nonzero"/><path fill="#a6201e" d="M 113.441406 138.601562 L 134.050781 138.601562 L 126.042969 116.953125 L 105.4375 116.953125 L 113.441406 138.601562 " fill-opacity="1" fill-rule="nonzero"/><path fill="#000000" d="M 113.585938 138.394531 L 133.753906 138.394531 L 125.902344 117.160156 L 105.734375 117.160156 Z M 134.050781 138.808594 L 113.441406 138.808594 C 113.355469 138.808594 113.277344 138.753906 113.246094 138.671875 L 105.242188 117.027344 C 105.21875 116.960938 105.226562 116.890625 105.265625 116.835938 C 105.304688 116.78125 105.367188 116.746094 105.4375 116.746094 L 126.042969 116.746094 C 126.132812 116.746094 126.207031 116.800781 126.238281 116.882812 L 134.246094 138.53125 C 134.265625 138.59375 134.257812 138.664062 134.21875 138.71875 C 134.179688 138.773438 134.117188 138.808594 134.050781 138.808594 " fill-opacity="1" fill-rule="nonzero"/><path fill="#000000" d="M 138.96875 133.226562 C 141.992188 133.226562 146.089844 132.796875 148.714844 130.78125 C 150.226562 129.621094 151.113281 128.089844 151.34375 126.230469 C 152.375 117.875 142.292969 113.09375 141.867188 112.894531 C 141.089844 112.535156 140.171875 112.871094 139.8125 113.648438 C 139.453125 114.421875 139.789062 115.335938 140.5625 115.699219 C 140.648438 115.738281 149.03125 119.734375 148.273438 125.851562 C 148.148438 126.871094 147.679688 127.683594 146.835938 128.332031 C 143.949219 130.542969 136.335938 130.488281 134.152344 130.179688 C 133.308594 130.0625 132.894531 130.621094 132.777344 131.46875 C 132.65625 132.3125 133.304688 133.121094 134.152344 133.210938 C 135.375 133.347656 136.8125 133.226562 138.96875 133.226562 " fill-opacity="1" fill-rule="nonzero"/><path fill="#000000" d="M 127.5625 135.328125 L 130.53125 135.328125 C 132.152344 135.328125 133.496094 134.113281 133.65625 132.5 L 133.761719 131.46875 C 133.847656 130.585938 133.558594 129.703125 132.964844 129.046875 C 132.367188 128.390625 131.519531 128.011719 130.632812 128.011719 L 125.898438 128.011719 C 125.046875 128.011719 124.355469 128.703125 124.355469 129.558594 C 124.355469 130.410156 125.046875 131.101562 125.898438 131.101562 L 130.632812 131.101562 C 130.640625 131.101562 130.65625 131.101562 130.671875 131.121094 C 130.6875 131.136719 130.6875 131.152344 130.683594 131.160156 L 130.582031 132.191406 C 130.578125 132.21875 130.558594 132.238281 130.53125 132.238281 L 127.5625 132.238281 C 126.710938 132.238281 126.015625 132.929688 126.015625 133.785156 C 126.015625 134.636719 126.710938 135.328125 127.5625 135.328125 " fill-opacity="1" fill-rule="nonzero"/><path fill="#a6201e" d="M 93.746094 60.335938 C 95.601562 59.753906 97.578125 60.789062 98.160156 62.644531 C 98.742188 64.5 97.707031 66.476562 95.851562 67.058594 C 93.996094 67.640625 92.019531 66.605469 91.441406 64.75 C 90.859375 62.894531 91.890625 60.917969 93.746094 60.335938 Z M 87.84375 65.160156 L 88.253906 66.464844 L 89.742188 66.34375 C 89.890625 66.628906 90.058594 66.898438 90.25 67.148438 L 89.507812 68.441406 L 90.515625 69.367188 L 91.742188 68.519531 C 92.011719 68.6875 92.292969 68.835938 92.585938 68.960938 L 92.589844 70.453125 L 93.921875 70.75 L 94.5625 69.402344 C 94.875 69.414062 95.195312 69.402344 95.511719 69.359375 L 96.261719 70.652344 L 97.566406 70.242188 L 97.445312 68.753906 C 97.730469 68.605469 98 68.4375 98.25 68.246094 L 99.546875 68.988281 L 100.46875 67.984375 L 99.621094 66.753906 C 99.789062 66.484375 99.9375 66.203125 100.0625 65.910156 L 101.554688 65.90625 L 101.855469 64.574219 L 100.503906 63.933594 C 100.519531 63.621094 100.503906 63.300781 100.464844 62.984375 L 101.753906 62.234375 L 101.347656 60.929688 L 99.859375 61.050781 C 99.710938 60.765625 99.539062 60.496094 99.347656 60.246094 L 100.09375 58.953125 L 99.085938 58.027344 L 97.855469 58.875 C 97.589844 58.707031 97.304688 58.558594 97.011719 58.433594 L 97.011719 56.941406 L 95.675781 56.644531 L 95.039062 57.992188 C 94.722656 57.976562 94.40625 57.992188 94.085938 58.035156 L 93.335938 56.742188 L 92.03125 57.152344 L 92.152344 58.640625 C 91.867188 58.789062 91.597656 58.957031 91.347656 59.148438 L 90.054688 58.40625 L 89.128906 59.410156 L 89.980469 60.640625 C 89.808594 60.910156 89.660156 61.191406 89.539062 61.484375 L 88.042969 61.488281 L 87.746094 62.820312 L 89.09375 63.457031 C 89.082031 63.773438 89.09375 64.089844 89.136719 64.410156 L 87.84375 65.160156 " fill-opacity="1" fill-rule="nonzero"/><path fill="#ffbf23" d="M 80.136719 59.234375 C 81.367188 58.851562 82.679688 59.535156 83.066406 60.765625 C 83.449219 61.996094 82.765625 63.308594 81.535156 63.691406 C 80.304688 64.078125 78.996094 63.394531 78.609375 62.164062 C 78.222656 60.933594 78.90625 59.621094 80.136719 59.234375 Z M 76.222656 62.433594 L 76.496094 63.300781 L 77.480469 63.21875 C 77.582031 63.410156 77.695312 63.585938 77.820312 63.753906 L 77.328125 64.613281 L 77.996094 65.226562 L 78.808594 64.660156 C 78.988281 64.773438 79.175781 64.871094 79.367188 64.953125 L 79.371094 65.945312 L 80.253906 66.144531 L 80.679688 65.25 C 80.886719 65.257812 81.097656 65.246094 81.308594 65.222656 L 81.808594 66.078125 L 82.671875 65.804688 L 82.589844 64.820312 C 82.78125 64.722656 82.960938 64.609375 83.125 64.480469 L 83.984375 64.972656 L 84.597656 64.304688 L 84.035156 63.492188 C 84.144531 63.3125 84.246094 63.128906 84.324219 62.933594 L 85.316406 62.929688 L 85.515625 62.046875 L 84.621094 61.621094 C 84.628906 61.414062 84.621094 61.203125 84.59375 60.992188 L 85.449219 60.492188 L 85.179688 59.628906 L 84.191406 59.710938 C 84.09375 59.519531 83.980469 59.339844 83.851562 59.175781 L 84.347656 58.316406 L 83.679688 57.703125 L 82.863281 58.269531 C 82.6875 58.15625 82.5 58.058594 82.304688 57.976562 L 82.304688 56.984375 L 81.417969 56.785156 L 80.996094 57.679688 C 80.785156 57.671875 80.574219 57.679688 80.363281 57.707031 L 79.867188 56.851562 L 79 57.121094 L 79.082031 58.109375 C 78.894531 58.207031 78.714844 58.320312 78.546875 58.449219 L 77.691406 57.953125 L 77.074219 58.621094 L 77.640625 59.4375 C 77.527344 59.613281 77.429688 59.800781 77.347656 59.996094 L 76.355469 60 L 76.160156 60.882812 L 77.054688 61.308594 C 77.042969 61.515625 77.054688 61.726562 77.082031 61.9375 L 76.222656 62.433594 " fill-opacity="1" fill-rule="nonzero"/><path fill="#000000" d="M 148.71875 69.683594 C 148.707031 69.683594 148.695312 69.683594 148.683594 69.683594 C 148.574219 69.664062 148.496094 69.558594 148.511719 69.445312 L 148.679688 68.386719 C 148.699219 68.273438 148.804688 68.199219 148.914062 68.214844 C 149.027344 68.234375 149.105469 68.339844 149.089844 68.453125 L 148.921875 69.511719 C 148.90625 69.613281 148.816406 69.683594 148.71875 69.683594 " fill-opacity="1" fill-rule="nonzero"/><path fill="#000000" d="M 148.132812 73.390625 C 148.121094 73.390625 148.109375 73.390625 148.101562 73.386719 C 147.988281 73.367188 147.910156 73.265625 147.929688 73.152344 L 148.09375 72.09375 C 148.113281 71.980469 148.21875 71.902344 148.332031 71.921875 C 148.445312 71.9375 148.523438 72.042969 148.503906 72.15625 L 148.335938 73.214844 C 148.320312 73.316406 148.234375 73.390625 148.132812 73.390625 " fill-opacity="1" fill-rule="nonzero"/><path fill="#000000" d="M 147.207031 70.78125 C 147.195312 70.78125 147.183594 70.78125 147.171875 70.78125 L 146.132812 70.601562 C 146.019531 70.582031 145.945312 70.472656 145.964844 70.359375 C 145.984375 70.25 146.089844 70.171875 146.203125 70.191406 L 147.242188 70.371094 C 147.355469 70.390625 147.429688 70.5 147.414062 70.613281 C 147.394531 70.710938 147.308594 70.78125 147.207031 70.78125 " fill-opacity="1" fill-rule="nonzero"/><path fill="#000000" d="M 150.851562 71.410156 C 150.839844 71.410156 150.828125 71.410156 150.8125 71.410156 L 149.773438 71.230469 C 149.660156 71.210938 149.585938 71.101562 149.605469 70.992188 C 149.625 70.878906 149.730469 70.804688 149.84375 70.820312 L 150.886719 71 C 150.996094 71.019531 151.074219 71.128906 151.054688 71.242188 C 151.035156 71.339844 150.949219 71.410156 150.851562 71.410156 " fill-opacity="1" fill-rule="nonzero"/><path fill="#000000" d="M 143.347656 142.929688 C 143.335938 142.929688 143.324219 142.929688 143.316406 142.925781 C 143.203125 142.910156 143.125 142.804688 143.140625 142.691406 L 143.308594 141.632812 C 143.328125 141.519531 143.433594 141.441406 143.546875 141.460938 C 143.660156 141.476562 143.734375 141.582031 143.71875 141.695312 L 143.550781 142.753906 C 143.535156 142.855469 143.445312 142.929688 143.347656 142.929688 " fill-opacity="1" fill-rule="nonzero"/><path fill="#000000" d="M 142.761719 146.632812 C 142.75 146.632812 142.738281 146.632812 142.730469 146.632812 C 142.617188 146.613281 142.539062 146.507812 142.558594 146.394531 L 142.726562 145.335938 C 142.742188 145.222656 142.847656 145.148438 142.960938 145.164062 C 143.074219 145.183594 143.152344 145.289062 143.132812 145.402344 L 142.964844 146.460938 C 142.949219 146.5625 142.863281 146.632812 142.761719 146.632812 " fill-opacity="1" fill-rule="nonzero"/><path fill="#000000" d="M 141.839844 144.027344 C 141.824219 144.027344 141.8125 144.027344 141.800781 144.023438 L 140.761719 143.84375 C 140.648438 143.824219 140.574219 143.71875 140.59375 143.605469 C 140.613281 143.492188 140.71875 143.417969 140.832031 143.4375 L 141.871094 143.617188 C 141.984375 143.636719 142.0625 143.742188 142.042969 143.855469 C 142.023438 143.957031 141.9375 144.027344 141.839844 144.027344 " fill-opacity="1" fill-rule="nonzero"/><path fill="#000000" d="M 145.480469 144.65625 C 145.46875 144.65625 145.457031 144.65625 145.445312 144.652344 L 144.402344 144.472656 C 144.292969 144.453125 144.214844 144.347656 144.234375 144.234375 C 144.253906 144.121094 144.359375 144.046875 144.472656 144.066406 L 145.515625 144.246094 C 145.625 144.265625 145.703125 144.371094 145.683594 144.484375 C 145.664062 144.585938 145.578125 144.65625 145.480469 144.65625 " fill-opacity="1" fill-rule="nonzero"/><path fill="#ffffff" d="M 131.394531 148.351562 C 131.734375 148.304688 132.109375 148.332031 132.519531 148.46875 L 137.410156 149.546875 C 137.410156 149.546875 136.332031 150.871094 135.203125 150.949219 C 135.8125 151.894531 136.164062 152.738281 136.164062 152.738281 C 136.164062 152.738281 138.332031 153.277344 138.777344 153.472656 C 139.222656 153.671875 139.867188 153.890625 140.179688 154.355469 C 140.492188 154.824219 140.457031 155.527344 140.457031 155.527344 L 135.265625 155.199219 L 130.605469 151.300781 L 122.058594 155.539062 L 122.441406 150.273438 L 131.394531 148.351562 " fill-opacity="1" fill-rule="nonzero"/><path fill="#000000" d="M 135.347656 154.996094 L 140.246094 155.304688 C 140.230469 155.082031 140.179688 154.730469 140.007812 154.472656 C 139.773438 154.121094 139.285156 153.914062 138.894531 153.75 C 138.824219 153.71875 138.757812 153.691406 138.695312 153.664062 C 138.339844 153.503906 136.710938 153.085938 136.113281 152.9375 C 136.050781 152.921875 135.996094 152.878906 135.972656 152.816406 C 135.96875 152.808594 135.621094 151.980469 135.03125 151.0625 C 134.992188 151 134.988281 150.921875 135.019531 150.855469 C 135.054688 150.789062 135.117188 150.746094 135.191406 150.742188 C 135.921875 150.691406 136.65625 150.042969 137.015625 149.671875 L 132.476562 148.671875 C 132.46875 148.671875 132.460938 148.667969 132.453125 148.667969 C 132.101562 148.550781 131.757812 148.511719 131.433594 148.558594 L 122.632812 150.445312 L 122.292969 155.195312 L 130.515625 151.113281 C 130.589844 151.078125 130.675781 151.089844 130.738281 151.140625 Z M 122.058594 155.746094 C 122.019531 155.746094 121.976562 155.734375 121.945312 155.710938 C 121.882812 155.671875 121.847656 155.597656 121.851562 155.527344 L 122.234375 150.257812 C 122.238281 150.167969 122.304688 150.089844 122.394531 150.070312 L 131.351562 148.152344 C 131.355469 148.148438 131.363281 148.148438 131.367188 148.148438 C 131.757812 148.09375 132.164062 148.132812 132.574219 148.269531 L 137.453125 149.34375 C 137.523438 149.359375 137.582031 149.410156 137.605469 149.476562 C 137.628906 149.546875 137.617188 149.621094 137.570312 149.675781 C 137.527344 149.726562 136.613281 150.839844 135.542969 151.101562 C 135.949219 151.769531 136.214844 152.339844 136.3125 152.5625 C 136.75 152.671875 138.453125 153.105469 138.859375 153.285156 C 138.921875 153.3125 138.988281 153.339844 139.054688 153.367188 C 139.496094 153.554688 140.046875 153.789062 140.351562 154.242188 C 140.699219 154.757812 140.664062 155.503906 140.660156 155.539062 C 140.660156 155.59375 140.636719 155.644531 140.59375 155.679688 C 140.550781 155.71875 140.5 155.734375 140.441406 155.730469 L 135.253906 155.40625 C 135.207031 155.402344 135.167969 155.386719 135.132812 155.359375 L 130.578125 151.542969 L 122.152344 155.726562 C 122.121094 155.738281 122.089844 155.746094 122.058594 155.746094 " fill-opacity="1" fill-rule="nonzero"/><path fill="#14697d" d="M 131.148438 152.808594 C 131.148438 152.808594 128.050781 147.988281 128.042969 147.980469 C 127.800781 147.601562 125.761719 148.207031 125.386719 148.226562 C 124.035156 148.304688 122.628906 148.085938 121.28125 147.9375 C 118.402344 147.617188 115.542969 147.15625 112.710938 146.550781 C 110.398438 146.054688 108.074219 145.453125 106.027344 144.273438 C 103.328125 142.722656 101.914062 140.300781 100.835938 137.476562 C 100.019531 135.34375 99.042969 133.558594 97.828125 131.605469 C 96.023438 128.714844 93.03125 126.339844 90.546875 125.109375 C 86.6875 123.195312 82.203125 122.269531 77.925781 123.121094 C 69.675781 124.769531 64.03125 129.578125 64.03125 129.578125 C 59.542969 133.160156 51.25 145.660156 54.207031 151.675781 C 57.832031 159.054688 67.605469 154.738281 67.605469 154.738281 C 67.605469 154.738281 68.554688 156.285156 66.515625 160.996094 C 64.039062 166.722656 67.628906 167.488281 67.628906 167.488281 C 75.972656 171.566406 98.074219 170.652344 96.1875 166.097656 C 94.171875 161.222656 94.136719 155.042969 94.136719 155.042969 C 96.925781 157.800781 102.964844 158.382812 102.964844 158.382812 C 102.964844 158.382812 108.0625 158.863281 111.300781 158.3125 C 129.421875 155.625 131.148438 152.808594 131.148438 152.808594 " fill-opacity="1" fill-rule="nonzero"/><path fill="#000000" d="M 67.730469 151.136719 C 67.644531 151.136719 67.566406 151.085938 67.535156 151 C 64.773438 143.007812 66.058594 136.550781 66.070312 136.488281 C 66.09375 136.375 66.203125 136.304688 66.316406 136.328125 C 66.425781 136.351562 66.5 136.460938 66.476562 136.570312 C 66.460938 136.632812 65.203125 142.984375 67.925781 150.863281 C 67.964844 150.972656 67.90625 151.089844 67.800781 151.125 C 67.777344 151.132812 67.753906 151.136719 67.730469 151.136719 " fill-opacity="1" fill-rule="nonzero"/><path fill="#000000" d="M 93.972656 155.292969 C 93.921875 155.292969 93.871094 155.273438 93.828125 155.234375 C 89.511719 151.015625 86.503906 141.222656 86.378906 140.808594 C 86.347656 140.699219 86.410156 140.582031 86.519531 140.550781 C 86.628906 140.515625 86.742188 140.578125 86.773438 140.6875 C 86.804688 140.789062 89.875 150.796875 94.117188 154.9375 C 94.199219 155.019531 94.203125 155.148438 94.121094 155.230469 C 94.082031 155.273438 94.027344 155.292969 93.972656 155.292969 " fill-opacity="1" fill-rule="nonzero"/><path fill="#ffffff" d="M 82.636719 103.582031 C 84.304688 103.585938 85.839844 104.488281 86.679688 105.929688 C 87.066406 106.597656 87.417969 107.222656 87.488281 107.398438 C 87.652344 107.800781 88.011719 109.144531 89.320312 110.441406 C 89.449219 110.570312 89.46875 110.773438 89.355469 110.914062 L 88.515625 111.988281 C 88.457031 112.0625 88.433594 112.15625 88.449219 112.25 C 88.550781 112.824219 89.050781 114.902344 88.902344 115.277344 C 88.589844 116.070312 86.6875 116.289062 86.125 116.335938 C 86.019531 116.34375 85.925781 116.402344 85.875 116.496094 C 85.691406 116.824219 85.210938 117.769531 84.8125 120.125 C 84.210938 123.714844 87.632812 124.269531 86.9375 124.621094 C 82.074219 127.074219 73.125 126.519531 73.644531 125.496094 C 74.070312 124.660156 78.980469 122.484375 79.4375 116.582031 C 79.722656 112.902344 74.570312 112.597656 78.285156 105.589844 C 79.144531 103.960938 81.015625 103.574219 82.636719 103.582031 " fill-opacity="1" fill-rule="nonzero"/><path fill="#000000" d="M 73.835938 125.578125 C 73.855469 125.605469 73.933594 125.675781 74.1875 125.765625 C 75.933594 126.375 82.625 126.511719 86.746094 124.484375 C 86.679688 124.433594 86.589844 124.367188 86.507812 124.3125 C 85.75 123.78125 84.175781 122.679688 84.609375 120.089844 C 84.886719 118.433594 85.253906 117.191406 85.691406 116.394531 C 85.777344 116.242188 85.933594 116.140625 86.109375 116.128906 C 87.175781 116.039062 88.496094 115.742188 88.710938 115.199219 C 88.800781 114.964844 88.496094 113.503906 88.367188 112.878906 C 88.316406 112.632812 88.269531 112.417969 88.246094 112.285156 C 88.222656 112.136719 88.257812 111.980469 88.355469 111.863281 L 89.191406 110.789062 C 89.238281 110.730469 89.230469 110.644531 89.175781 110.589844 C 88 109.425781 87.574219 108.238281 87.371094 107.667969 C 87.34375 107.589844 87.320312 107.523438 87.296875 107.476562 C 87.265625 107.394531 87.121094 107.101562 86.5 106.035156 C 85.699219 104.65625 84.21875 103.792969 82.636719 103.785156 C 82.621094 103.785156 82.609375 103.785156 82.59375 103.785156 C 81.160156 103.785156 79.296875 104.121094 78.464844 105.6875 C 76.167969 110.023438 77.324219 111.683594 78.441406 113.292969 C 79.085938 114.21875 79.753906 115.179688 79.644531 116.597656 C 79.285156 121.222656 76.289062 123.570312 74.679688 124.832031 C 74.273438 125.148438 73.921875 125.421875 73.835938 125.578125 Z M 77.933594 126.570312 C 75.707031 126.570312 73.953125 126.285156 73.550781 125.882812 C 73.410156 125.742188 73.375 125.566406 73.460938 125.402344 C 73.578125 125.167969 73.914062 124.90625 74.425781 124.507812 C 75.984375 123.285156 78.890625 121.011719 79.234375 116.566406 C 79.332031 115.296875 78.734375 114.4375 78.101562 113.527344 C 76.96875 111.898438 75.683594 110.054688 78.101562 105.496094 C 78.835938 104.105469 80.390625 103.371094 82.59375 103.371094 C 82.609375 103.371094 82.621094 103.371094 82.636719 103.371094 C 84.367188 103.382812 85.984375 104.320312 86.859375 105.828125 C 87.582031 107.078125 87.65625 107.261719 87.683594 107.320312 C 87.703125 107.375 87.730469 107.445312 87.757812 107.527344 C 87.953125 108.070312 88.359375 109.199219 89.464844 110.292969 C 89.671875 110.496094 89.695312 110.820312 89.519531 111.042969 L 88.679688 112.117188 C 88.65625 112.144531 88.648438 112.179688 88.652344 112.214844 C 88.675781 112.34375 88.71875 112.550781 88.769531 112.796875 C 89.078125 114.261719 89.210938 115.058594 89.09375 115.351562 C 88.75 116.230469 86.914062 116.476562 86.140625 116.539062 C 86.105469 116.542969 86.070312 116.5625 86.054688 116.59375 C 85.535156 117.535156 85.203125 119.050781 85.019531 120.15625 C 84.625 122.492188 86.003906 123.457031 86.746094 123.972656 C 87.0625 124.195312 87.25 124.328125 87.234375 124.535156 C 87.230469 124.617188 87.191406 124.726562 87.027344 124.808594 C 84.472656 126.097656 80.808594 126.570312 77.933594 126.570312 " fill-opacity="1" fill-rule="nonzero"/><path fill="#000000" d="M 85.472656 109.253906 L 87.414062 106.820312 C 88.414062 105.574219 88.066406 103.734375 86.683594 102.929688 C 86.300781 102.703125 85.851562 102.472656 85.347656 102.253906 C 80.355469 100.105469 74.632812 103.652344 74.628906 109.089844 C 74.625 111.316406 76.113281 113.894531 79.277344 116.1875 C 79.277344 116.1875 81.5 114.4375 81.46875 112.542969 C 81.46875 112.542969 79.859375 110.628906 82.128906 109.660156 C 82.5625 109.472656 83.0625 109.488281 83.484375 109.699219 C 84.167969 110.035156 84.996094 109.851562 85.472656 109.253906 " fill-opacity="1" fill-rule="nonzero"/><path fill="#000000" d="M 82.507812 113.617188 C 81.863281 113.617188 81.039062 113.34375 80.425781 112.183594 C 80.371094 112.082031 80.410156 111.957031 80.511719 111.902344 C 80.609375 111.851562 80.734375 111.890625 80.789062 111.988281 C 81.757812 113.820312 83.277344 113.058594 83.339844 113.027344 C 83.441406 112.972656 83.566406 113.011719 83.621094 113.113281 C 83.671875 113.214844 83.636719 113.339844 83.535156 113.390625 C 83.523438 113.398438 83.089844 113.617188 82.507812 113.617188 " fill-opacity="1" fill-rule="nonzero"/><path fill="#000000" d="M 77.230469 103.929688 C 77.230469 103.929688 75.542969 98.09375 69.390625 99.195312 C 65.550781 99.878906 62.195312 102.460938 60.355469 106.671875 C 58.992188 109.789062 59.046875 112.546875 58.746094 115.8125 C 58.480469 118.734375 55.875 120.6875 55.289062 123.464844 C 54.566406 126.859375 57.871094 129.304688 61.050781 128.675781 C 64.605469 127.96875 67.902344 124.253906 69.355469 121.144531 C 70.859375 117.925781 71.109375 114.351562 71.867188 110.929688 C 72.199219 109.445312 72.445312 107.398438 73.628906 106.371094 C 74.234375 105.84375 76.226562 105.785156 76.570312 105.148438 C 76.574219 105.148438 77.230469 103.929688 77.230469 103.929688 " fill-opacity="1" fill-rule="nonzero"/></svg>