<svg xmlns="http://www.w3.org/2000/svg" xmlns:xlink="http://www.w3.org/1999/xlink" width="300" zoomAndPan="magnify" viewBox="0 0 224.87999 225" height="300" preserveAspectRatio="xMidYMid meet" version="1.0"><path fill="#378297" d="M 157 114.574219 C 147.792969 121.816406 161.074219 139.289062 155.808594 149.96875 C 148.71875 164.347656 105.367188 171.804688 79.464844 151.757812 C 57.773438 134.96875 53.652344 103.019531 65.542969 91.878906 C 69.105469 88.542969 73.054688 88.050781 78.585938 84.800781 C 83.726562 81.773438 84.375 80.914062 84.792969 80.328125 C 88.929688 74.519531 82.664062 68.128906 84.765625 62.960938 C 88.09375 54.792969 110.890625 53.183594 129.085938 58.472656 C 133.992188 59.898438 158.78125 67.703125 165.679688 87.574219 C 166.210938 89.109375 171.226562 103.941406 163.78125 110.855469 C 161.199219 113.253906 159.453125 112.640625 157 114.574219 " fill-opacity="1" fill-rule="nonzero"/><path fill="#000000" d="M 64.800781 123.039062 C 64.714844 123.039062 64.636719 122.980469 64.613281 122.894531 C 61.457031 111.945312 64.027344 103.160156 64.054688 103.074219 C 64.085938 102.96875 64.195312 102.910156 64.296875 102.941406 C 64.402344 102.972656 64.460938 103.082031 64.429688 103.1875 C 64.402344 103.273438 61.871094 111.953125 64.988281 122.789062 C 65.019531 122.890625 64.960938 123 64.855469 123.03125 C 64.835938 123.035156 64.820312 123.039062 64.800781 123.039062 " fill-opacity="1" fill-rule="nonzero"/><path fill="#000000" d="M 61.539062 115.914062 C 61.449219 115.914062 61.367188 115.851562 61.347656 115.757812 C 61.34375 115.730469 60.785156 113.039062 60.929688 109.253906 C 61.0625 105.753906 61.835938 100.574219 64.769531 95.761719 C 64.828125 95.667969 64.945312 95.640625 65.039062 95.695312 C 65.132812 95.75 65.164062 95.875 65.105469 95.964844 C 59.578125 105.039062 61.710938 115.570312 61.734375 115.679688 C 61.753906 115.785156 61.6875 115.886719 61.582031 115.910156 C 61.566406 115.914062 61.554688 115.914062 61.539062 115.914062 " fill-opacity="1" fill-rule="nonzero"/><path fill="#000000" d="M 164.03125 88.578125 C 163.996094 88.578125 163.960938 88.566406 163.929688 88.546875 C 163.835938 88.488281 163.808594 88.367188 163.867188 88.273438 L 164.410156 87.414062 C 164.46875 87.324219 164.589844 87.296875 164.683594 87.355469 C 164.773438 87.414062 164.800781 87.535156 164.742188 87.625 L 164.199219 88.484375 C 164.160156 88.542969 164.097656 88.578125 164.03125 88.578125 " fill-opacity="1" fill-rule="nonzero"/><path fill="#000000" d="M 162.765625 90.582031 C 162.730469 90.582031 162.695312 90.570312 162.664062 90.550781 C 162.570312 90.492188 162.542969 90.371094 162.601562 90.277344 L 163.144531 89.417969 C 163.203125 89.328125 163.324219 89.300781 163.414062 89.355469 C 163.507812 89.414062 163.535156 89.535156 163.476562 89.628906 L 162.933594 90.488281 C 162.898438 90.546875 162.832031 90.582031 162.765625 90.582031 " fill-opacity="1" fill-rule="nonzero"/><path fill="#000000" d="M 163.101562 88.789062 C 163.0625 88.789062 163.027344 88.777344 162.996094 88.757812 L 162.136719 88.214844 C 162.042969 88.15625 162.015625 88.035156 162.074219 87.941406 C 162.132812 87.851562 162.253906 87.824219 162.34375 87.882812 L 163.203125 88.425781 C 163.296875 88.484375 163.324219 88.605469 163.265625 88.695312 C 163.226562 88.753906 163.164062 88.789062 163.101562 88.789062 " fill-opacity="1" fill-rule="nonzero"/><path fill="#000000" d="M 165.105469 90.054688 C 165.066406 90.054688 165.03125 90.042969 165 90.023438 L 164.140625 89.480469 C 164.046875 89.421875 164.019531 89.300781 164.078125 89.207031 C 164.136719 89.117188 164.257812 89.089844 164.347656 89.148438 L 165.207031 89.691406 C 165.300781 89.75 165.328125 89.871094 165.269531 89.960938 C 165.234375 90.019531 165.167969 90.054688 165.105469 90.054688 " fill-opacity="1" fill-rule="nonzero"/><path fill="#000000" d="M 81.59375 59.09375 C 81.542969 59.09375 81.496094 59.074219 81.457031 59.039062 C 81.378906 58.964844 81.375 58.839844 81.449219 58.761719 L 82.070312 58.113281 C 82.144531 58.035156 82.269531 58.03125 82.347656 58.105469 C 82.425781 58.183594 82.429688 58.308594 82.355469 58.386719 L 81.734375 59.03125 C 81.695312 59.074219 81.644531 59.09375 81.59375 59.09375 " fill-opacity="1" fill-rule="nonzero"/><path fill="#000000" d="M 79.425781 61.359375 C 79.375 61.359375 79.328125 61.339844 79.289062 61.304688 C 79.210938 61.226562 79.207031 61.105469 79.285156 61.023438 L 79.902344 60.378906 C 79.976562 60.300781 80.101562 60.296875 80.179688 60.371094 C 80.257812 60.445312 80.261719 60.570312 80.1875 60.648438 L 79.566406 61.296875 C 79.527344 61.335938 79.476562 61.359375 79.425781 61.359375 " fill-opacity="1" fill-rule="nonzero"/><path fill="#000000" d="M 80.035156 59.128906 C 79.984375 59.128906 79.933594 59.109375 79.894531 59.070312 L 79.265625 58.453125 C 79.191406 58.375 79.1875 58.25 79.265625 58.175781 C 79.339844 58.097656 79.464844 58.09375 79.542969 58.171875 L 80.171875 58.789062 C 80.25 58.867188 80.25 58.992188 80.171875 59.070312 C 80.136719 59.109375 80.085938 59.128906 80.035156 59.128906 " fill-opacity="1" fill-rule="nonzero"/><path fill="#000000" d="M 82.230469 61.296875 C 82.183594 61.296875 82.132812 61.277344 82.09375 61.238281 L 81.464844 60.621094 C 81.386719 60.542969 81.386719 60.417969 81.464844 60.339844 C 81.539062 60.265625 81.664062 60.261719 81.742188 60.339844 L 82.371094 60.957031 C 82.449219 61.035156 82.449219 61.160156 82.371094 61.234375 C 82.332031 61.277344 82.28125 61.296875 82.230469 61.296875 " fill-opacity="1" fill-rule="nonzero"/><path fill="#000000" d="M 160.53125 81.539062 C 160.394531 81.539062 160.257812 81.566406 160.128906 81.625 C 159.617188 81.855469 159.386719 82.46875 159.609375 82.988281 C 159.71875 83.246094 159.921875 83.441406 160.175781 83.539062 C 160.421875 83.636719 160.695312 83.628906 160.9375 83.519531 C 161.449219 83.289062 161.679688 82.675781 161.453125 82.152344 C 161.34375 81.898438 161.144531 81.703125 160.890625 81.605469 C 160.773438 81.5625 160.652344 81.539062 160.53125 81.539062 Z M 160.53125 84 C 160.363281 84 160.195312 83.96875 160.03125 83.90625 C 159.679688 83.769531 159.402344 83.5 159.25 83.144531 C 158.941406 82.425781 159.261719 81.585938 159.964844 81.265625 C 160.304688 81.113281 160.683594 81.105469 161.03125 81.238281 C 161.386719 81.375 161.664062 81.648438 161.816406 82 C 162.125 82.71875 161.804688 83.5625 161.097656 83.878906 C 160.917969 83.960938 160.726562 84 160.53125 84 " fill-opacity="1" fill-rule="nonzero"/><path fill="#ffbf23" d="M 152.367188 162.214844 L 149.804688 162.402344 L 101.792969 162.214844 C 99.613281 162.214844 97.855469 160.449219 97.863281 158.277344 L 98.226562 59.789062 C 98.234375 57.617188 100.007812 55.855469 102.1875 55.855469 L 150.152344 55.292969 C 155.667969 55.292969 156.699219 57.617188 156.691406 59.789062 L 156.328125 158.277344 C 156.320312 160.449219 154.546875 162.214844 152.367188 162.214844 " fill-opacity="1" fill-rule="nonzero"/><path fill="#ffffff" d="M 149.324219 162.214844 L 98.75 162.214844 C 96.570312 162.214844 94.8125 160.445312 94.816406 158.261719 L 95.144531 59.464844 C 95.152344 57.28125 96.921875 55.515625 99.101562 55.515625 L 149.675781 55.515625 C 151.855469 55.515625 153.617188 57.28125 153.609375 59.464844 L 153.285156 158.261719 C 153.277344 160.445312 151.503906 162.214844 149.324219 162.214844 " fill-opacity="1" fill-rule="nonzero"/><path fill="#ffbf23" d="M 97.714844 158.398438 L 98.027344 64.066406 C 98.027344 63.5625 98.4375 63.152344 98.941406 63.152344 L 149.785156 63.152344 C 150.289062 63.152344 150.695312 63.5625 150.695312 64.066406 L 150.382812 158.398438 C 150.382812 158.902344 149.972656 159.3125 149.46875 159.3125 L 98.625 159.3125 C 98.121094 159.3125 97.714844 158.902344 97.714844 158.398438 " fill-opacity="1" fill-rule="nonzero"/><path fill="#378297" d="M 124.371094 60.539062 C 123.554688 60.539062 122.894531 59.878906 122.898438 59.058594 C 122.902344 58.242188 123.566406 57.578125 124.382812 57.578125 C 125.199219 57.578125 125.859375 58.242188 125.855469 59.058594 C 125.851562 59.878906 125.191406 60.539062 124.371094 60.539062 " fill-opacity="1" fill-rule="nonzero"/><path fill="#000000" d="M 153.453125 106.96875 C 153.34375 106.96875 153.257812 106.878906 153.257812 106.769531 L 153.414062 59.464844 C 153.414062 58.460938 153.027344 57.519531 152.320312 56.808594 C 151.617188 56.101562 150.675781 55.710938 149.675781 55.710938 L 99.101562 55.710938 C 97.035156 55.710938 95.347656 57.394531 95.339844 59.464844 L 95.214844 97.296875 C 95.214844 97.40625 95.128906 97.492188 95.019531 97.492188 C 94.910156 97.492188 94.820312 97.402344 94.824219 97.296875 L 94.945312 59.464844 C 94.953125 57.175781 96.820312 55.316406 99.101562 55.316406 L 149.675781 55.316406 C 150.78125 55.316406 151.820312 55.75 152.601562 56.53125 C 153.382812 57.316406 153.808594 58.355469 153.804688 59.464844 L 153.648438 106.773438 C 153.648438 106.878906 153.5625 106.96875 153.453125 106.96875 " fill-opacity="1" fill-rule="nonzero"/><path fill="#000000" d="M 149.324219 162.410156 L 109.453125 162.222656 C 109.34375 162.222656 109.257812 162.132812 109.257812 162.027344 C 109.257812 161.917969 109.347656 161.828125 109.453125 161.828125 L 149.324219 162.015625 C 149.433594 162.015625 149.523438 162.105469 149.519531 162.214844 C 149.519531 162.324219 149.433594 162.410156 149.324219 162.410156 " fill-opacity="1" fill-rule="nonzero"/><path fill="#ffffff" d="M 105.796875 88.324219 L 105.914062 88.324219 L 105.832031 80.289062 L 105.714844 80.289062 C 103.496094 80.289062 101.71875 82.082031 101.742188 84.292969 L 101.742188 84.316406 C 101.765625 86.53125 103.582031 88.324219 105.796875 88.324219 " fill-opacity="1" fill-rule="nonzero"/><path fill="#000000" d="M 105.636719 80.484375 C 104.644531 80.503906 103.71875 80.898438 103.023438 81.601562 C 102.3125 82.320312 101.925781 83.277344 101.9375 84.289062 L 101.9375 84.316406 C 101.960938 86.390625 103.648438 88.082031 105.714844 88.125 Z M 105.917969 88.519531 L 105.796875 88.519531 C 103.476562 88.519531 101.570312 86.636719 101.542969 84.320312 L 101.542969 84.292969 C 101.53125 83.171875 101.960938 82.121094 102.746094 81.324219 C 103.53125 80.527344 104.585938 80.089844 105.714844 80.089844 L 105.832031 80.089844 C 105.941406 80.089844 106.027344 80.175781 106.027344 80.285156 L 106.113281 88.320312 C 106.113281 88.375 106.09375 88.425781 106.054688 88.460938 C 106.019531 88.5 105.96875 88.519531 105.917969 88.519531 " fill-opacity="1" fill-rule="nonzero"/><path fill="#ffffff" d="M 142.394531 88.324219 L 142.277344 88.324219 L 142.191406 80.289062 L 142.3125 80.289062 C 144.527344 80.289062 146.34375 82.082031 146.367188 84.292969 L 146.367188 84.320312 C 146.390625 86.53125 144.613281 88.324219 142.394531 88.324219 " fill-opacity="1" fill-rule="nonzero"/><path fill="#000000" d="M 142.390625 80.484375 L 142.472656 88.125 C 143.464844 88.105469 144.390625 87.710938 145.085938 87.007812 C 145.796875 86.289062 146.179688 85.335938 146.171875 84.320312 L 146.171875 84.296875 C 146.148438 82.21875 144.460938 80.527344 142.390625 80.484375 Z M 142.394531 88.519531 L 142.277344 88.519531 C 142.167969 88.519531 142.082031 88.433594 142.082031 88.324219 L 141.996094 80.289062 C 141.996094 80.238281 142.015625 80.1875 142.054688 80.148438 C 142.089844 80.109375 142.140625 80.089844 142.191406 80.089844 L 142.3125 80.089844 C 144.632812 80.089844 146.539062 81.972656 146.5625 84.289062 L 146.5625 84.316406 C 146.574219 85.4375 146.148438 86.492188 145.363281 87.285156 C 144.578125 88.082031 143.523438 88.519531 142.394531 88.519531 " fill-opacity="1" fill-rule="nonzero"/><path fill="#ffffff" d="M 143.535156 83.972656 C 143.441406 75.335938 134.628906 66.40625 123.867188 66.40625 C 113.105469 66.40625 104.476562 75.335938 104.570312 83.972656 C 104.660156 92.609375 113.433594 97.675781 124.195312 97.675781 C 134.953125 97.675781 143.625 92.609375 143.535156 83.972656 " fill-opacity="1" fill-rule="nonzero"/><path fill="#000000" d="M 123.867188 66.601562 C 118.679688 66.601562 113.566406 68.765625 109.835938 72.53125 C 106.570312 75.832031 104.722656 80 104.765625 83.972656 C 104.808594 88.019531 106.785156 91.453125 110.488281 93.898438 C 113.984375 96.207031 118.851562 97.480469 124.195312 97.480469 C 130.867188 97.480469 136.640625 95.515625 140.03125 92.089844 C 142.257812 89.839844 143.371094 87.109375 143.335938 83.976562 C 143.25 75.773438 134.90625 66.601562 123.867188 66.601562 Z M 124.195312 97.875 C 118.773438 97.875 113.828125 96.578125 110.273438 94.226562 C 106.457031 91.707031 104.414062 88.160156 104.371094 83.976562 C 104.328125 79.902344 106.21875 75.628906 109.554688 72.257812 C 113.359375 68.414062 118.574219 66.207031 123.867188 66.207031 C 128.996094 66.207031 133.953125 68.195312 137.835938 71.808594 C 141.535156 75.25 143.683594 79.683594 143.730469 83.972656 C 143.761719 87.167969 142.582031 90.070312 140.3125 92.363281 C 136.847656 95.867188 130.972656 97.875 124.195312 97.875 " fill-opacity="1" fill-rule="nonzero"/><path fill="#ffffff" d="M 119.339844 100.273438 L 129.101562 100.273438 C 133.378906 100.273438 136.882812 103.730469 136.925781 108 C 136.957031 110.820312 136.710938 113.632812 136.191406 116.402344 L 134.863281 123.492188 C 133.933594 128.449219 129.617188 132.023438 124.554688 132.023438 C 119.492188 132.023438 115.097656 128.449219 114.066406 123.492188 L 112.585938 116.402344 C 112.011719 113.632812 111.707031 110.820312 111.675781 108 C 111.632812 103.730469 115.0625 100.273438 119.339844 100.273438 " fill-opacity="1" fill-rule="nonzero"/><path fill="#000000" d="M 119.339844 100.46875 C 117.324219 100.46875 115.433594 101.253906 114.023438 102.679688 C 112.617188 104.101562 111.851562 105.992188 111.875 108 C 111.902344 110.800781 112.207031 113.613281 112.78125 116.359375 L 114.257812 123.453125 C 115.269531 128.304688 119.597656 131.824219 124.554688 131.824219 C 129.507812 131.824219 133.761719 128.304688 134.667969 123.457031 L 136 116.367188 C 136.515625 113.617188 136.761719 110.804688 136.730469 108.003906 C 136.6875 103.847656 133.265625 100.46875 129.101562 100.46875 Z M 124.554688 132.21875 C 119.414062 132.21875 114.921875 128.566406 113.871094 123.535156 L 112.394531 116.441406 C 111.816406 113.667969 111.507812 110.828125 111.480469 108.003906 C 111.457031 105.886719 112.261719 103.898438 113.742188 102.402344 C 115.226562 100.902344 117.214844 100.074219 119.339844 100.074219 L 129.101562 100.074219 C 133.480469 100.074219 137.078125 103.628906 137.125 108 C 137.152344 110.824219 136.90625 113.664062 136.386719 116.4375 L 135.054688 123.53125 C 134.113281 128.5625 129.695312 132.21875 124.554688 132.21875 " fill-opacity="1" fill-rule="nonzero"/><path fill="#000000" d="M 129.535156 100.46875 L 118.910156 100.46875 C 118.800781 100.46875 118.710938 100.378906 118.710938 100.269531 C 118.710938 100.164062 118.800781 100.074219 118.910156 100.074219 L 129.535156 100.074219 C 129.644531 100.074219 129.730469 100.164062 129.730469 100.269531 C 129.730469 100.378906 129.644531 100.46875 129.535156 100.46875 " fill-opacity="1" fill-rule="nonzero"/><path fill="#000000" d="M 110.925781 81.382812 L 129.6875 81.382812 C 131.632812 81.382812 133.234375 83.082031 133.253906 85.175781 L 133.28125 87.652344 C 133.296875 89.25 132.460938 90.945312 130.988281 91.222656 C 125.800781 92.195312 115.039062 92.195312 109.828125 91.222656 C 108.351562 90.945312 107.480469 89.25 107.460938 87.652344 L 107.4375 85.175781 C 107.414062 83.082031 108.976562 81.382812 110.925781 81.382812 " fill-opacity="1" fill-rule="nonzero"/><path fill="#a6201e" d="M 124.765625 86.363281 C 124.773438 87.066406 125.308594 87.636719 125.960938 87.636719 C 126.613281 87.636719 127.136719 87.066406 127.132812 86.363281 C 127.125 85.664062 126.589844 85.09375 125.933594 85.09375 C 125.28125 85.09375 124.757812 85.664062 124.765625 86.363281 " fill-opacity="1" fill-rule="nonzero"/><path fill="#a6201e" d="M 112.1875 86.363281 C 112.195312 87.066406 112.730469 87.636719 113.382812 87.636719 C 114.035156 87.636719 114.558594 87.066406 114.550781 86.363281 C 114.546875 85.664062 114.011719 85.09375 113.355469 85.09375 C 112.703125 85.09375 112.179688 85.664062 112.1875 86.363281 " fill-opacity="1" fill-rule="nonzero"/><path fill="#a6201e" d="M 123.746094 119.359375 C 121.835938 119.359375 120.273438 117.808594 120.253906 115.894531 L 120.1875 109.539062 C 120.167969 107.628906 121.699219 106.078125 123.605469 106.078125 C 125.515625 106.078125 127.078125 107.628906 127.097656 109.539062 L 127.164062 115.894531 C 127.183594 117.808594 125.652344 119.359375 123.746094 119.359375 " fill-opacity="1" fill-rule="nonzero"/><path fill="#a6201e" d="M 124.304688 121.066406 L 123.601562 121.066406 C 120.890625 121.066406 118.660156 118.851562 118.628906 116.132812 L 118.566406 109.9375 C 118.566406 109.828125 118.652344 109.738281 118.761719 109.738281 C 118.871094 109.738281 118.957031 109.824219 118.960938 109.933594 L 119.023438 116.128906 C 119.050781 118.632812 121.101562 120.671875 123.601562 120.671875 L 124.304688 120.671875 C 125.433594 120.671875 126.492188 120.230469 127.285156 119.429688 C 128.078125 118.628906 128.511719 117.558594 128.5 116.417969 L 128.429688 109.832031 C 128.429688 109.726562 128.515625 109.636719 128.625 109.632812 C 128.738281 109.632812 128.824219 109.71875 128.824219 109.828125 L 128.890625 116.414062 C 128.90625 117.660156 128.433594 118.828125 127.5625 119.707031 C 126.699219 120.582031 125.539062 121.066406 124.304688 121.066406 " fill-opacity="1" fill-rule="nonzero"/><path fill="#a6201e" d="M 127.539062 124.074219 L 120.148438 124.074219 C 119.800781 124.074219 119.519531 123.792969 119.515625 123.449219 C 119.511719 123.101562 119.789062 122.824219 120.132812 122.824219 L 127.523438 122.824219 C 127.867188 122.824219 128.152344 123.101562 128.15625 123.449219 C 128.15625 123.792969 127.882812 124.074219 127.539062 124.074219 " fill-opacity="1" fill-rule="nonzero"/><path fill="#a6201e" d="M 124.273438 124.027344 L 123.3125 124.027344 L 123.261719 118.972656 L 124.222656 118.972656 L 124.273438 124.027344 " fill-opacity="1" fill-rule="nonzero"/><path fill="#a6201e" d="M 142.976562 107.476562 C 142.5625 107.464844 142.230469 107.773438 142.230469 108.171875 L 142.238281 117.398438 C 142.238281 117.796875 142.570312 118.132812 142.984375 118.144531 C 143.394531 118.160156 143.730469 117.847656 143.730469 117.449219 L 143.71875 108.222656 C 143.71875 107.824219 143.386719 107.492188 142.976562 107.476562 " fill-opacity="1" fill-rule="nonzero"/><path fill="#a6201e" d="M 146.339844 104.511719 C 145.929688 104.496094 145.59375 104.808594 145.59375 105.203125 L 145.609375 120.597656 C 145.609375 120.992188 145.945312 121.328125 146.355469 121.339844 C 146.765625 121.355469 147.101562 121.042969 147.101562 120.648438 L 147.085938 105.253906 C 147.085938 104.855469 146.753906 104.523438 146.339844 104.511719 " fill-opacity="1" fill-rule="nonzero"/><path fill="#a6201e" d="M 149.710938 107.378906 C 149.300781 107.363281 148.96875 107.675781 148.96875 108.074219 L 148.976562 117.957031 C 148.976562 118.351562 149.3125 118.6875 149.722656 118.699219 C 150.132812 118.714844 150.46875 118.402344 150.46875 118.003906 L 150.457031 108.121094 C 150.457031 107.726562 150.125 107.390625 149.710938 107.378906 " fill-opacity="1" fill-rule="nonzero"/><path fill="#a6201e" d="M 153.082031 108.523438 C 152.671875 108.511719 152.335938 108.820312 152.335938 109.21875 L 152.34375 117.035156 C 152.34375 117.433594 152.679688 117.765625 153.089844 117.78125 C 153.5 117.792969 153.835938 117.484375 153.835938 117.085938 L 153.828125 109.269531 C 153.828125 108.871094 153.492188 108.539062 153.082031 108.523438 " fill-opacity="1" fill-rule="nonzero"/><path fill="#a6201e" d="M 139.863281 109.699219 C 139.453125 109.6875 139.121094 109.941406 139.125 110.269531 L 139.179688 116.746094 C 139.179688 117.078125 139.515625 117.355469 139.929688 117.371094 C 140.339844 117.382812 140.671875 117.128906 140.667969 116.796875 L 140.613281 110.320312 C 140.609375 109.992188 140.277344 109.714844 139.863281 109.699219 " fill-opacity="1" fill-rule="nonzero"/><path fill="#a6201e" d="M 162.503906 109.203125 C 162.09375 109.1875 161.757812 109.5 161.757812 109.894531 L 161.765625 117.714844 C 161.765625 118.109375 162.101562 118.445312 162.511719 118.457031 C 162.921875 118.472656 163.257812 118.160156 163.257812 117.761719 L 163.25 109.945312 C 163.25 109.550781 162.917969 109.214844 162.503906 109.203125 " fill-opacity="1" fill-rule="nonzero"/><path fill="#a6201e" d="M 165.46875 110.984375 C 165.058594 110.957031 164.722656 111.136719 164.722656 111.386719 L 164.691406 116.269531 C 164.691406 116.519531 165.023438 116.738281 165.433594 116.765625 C 165.84375 116.792969 166.179688 116.613281 166.179688 116.363281 L 166.210938 111.480469 C 166.210938 111.234375 165.878906 111.011719 165.46875 110.984375 " fill-opacity="1" fill-rule="nonzero"/><path fill="#a6201e" d="M 156.453125 110.105469 C 156.039062 110.09375 155.707031 110.40625 155.707031 110.800781 L 155.710938 115.679688 C 155.710938 116.078125 156.046875 116.410156 156.457031 116.425781 C 156.867188 116.441406 157.203125 116.128906 157.203125 115.730469 L 157.199219 110.851562 C 157.195312 110.453125 156.863281 110.121094 156.453125 110.105469 " fill-opacity="1" fill-rule="nonzero"/><path fill="#a6201e" d="M 159.554688 107.21875 C 159.144531 107.203125 158.8125 107.515625 158.8125 107.914062 L 158.820312 118.804688 C 158.820312 119.203125 159.15625 119.535156 159.566406 119.550781 C 159.976562 119.5625 160.3125 119.253906 160.3125 118.855469 L 160.300781 107.960938 C 160.300781 107.566406 159.96875 107.230469 159.554688 107.21875 " fill-opacity="1" fill-rule="nonzero"/><path fill="#a6201e" d="M 105.449219 107.503906 C 105.039062 107.492188 104.707031 107.796875 104.710938 108.183594 L 104.832031 118.738281 C 104.839844 119.125 105.175781 119.445312 105.585938 119.453125 C 105.996094 119.464844 106.328125 119.160156 106.324219 118.773438 L 106.203125 108.21875 C 106.195312 107.832031 105.859375 107.511719 105.449219 107.503906 " fill-opacity="1" fill-rule="nonzero"/><path fill="#a6201e" d="M 98.730469 108.828125 C 98.320312 108.816406 97.992188 109.121094 97.996094 109.507812 L 98.082031 117.082031 C 98.085938 117.464844 98.425781 117.785156 98.835938 117.796875 C 99.246094 117.804688 99.578125 117.503906 99.570312 117.117188 L 99.484375 109.542969 C 99.480469 109.15625 99.144531 108.835938 98.730469 108.828125 " fill-opacity="1" fill-rule="nonzero"/><path fill="#a6201e" d="M 95.382812 110.167969 C 94.96875 110.15625 94.640625 110.460938 94.644531 110.84375 L 94.699219 115.574219 C 94.703125 115.960938 95.039062 116.28125 95.453125 116.289062 C 95.863281 116.300781 96.191406 115.996094 96.1875 115.609375 L 96.132812 110.882812 C 96.128906 110.496094 95.792969 110.175781 95.382812 110.167969 " fill-opacity="1" fill-rule="nonzero"/><path fill="#a6201e" d="M 102.070312 109.902344 C 101.65625 109.894531 101.328125 110.199219 101.332031 110.582031 L 101.386719 115.3125 C 101.390625 115.695312 101.726562 116.015625 102.140625 116.027344 C 102.550781 116.039062 102.878906 115.734375 102.875 115.347656 L 102.820312 110.621094 C 102.816406 110.234375 102.480469 109.914062 102.070312 109.902344 " fill-opacity="1" fill-rule="nonzero"/><path fill="#a6201e" d="M 108.589844 108.859375 C 108.179688 108.847656 107.847656 109.257812 107.847656 109.773438 L 107.863281 116.09375 C 107.863281 116.609375 108.199219 117.03125 108.609375 117.042969 C 109.019531 117.054688 109.351562 116.644531 109.351562 116.128906 L 109.335938 109.808594 C 109.335938 109.296875 109.003906 108.871094 108.589844 108.859375 " fill-opacity="1" fill-rule="nonzero"/><path fill="#ffbf23" d="M 91.980469 107.167969 C 91.570312 107.160156 91.238281 107.464844 91.242188 107.847656 L 91.367188 118.402344 C 91.371094 118.789062 91.707031 119.109375 92.117188 119.121094 C 92.53125 119.128906 92.859375 118.824219 92.855469 118.441406 L 92.734375 107.886719 C 92.730469 107.5 92.390625 107.179688 91.980469 107.167969 " fill-opacity="1" fill-rule="nonzero"/><path fill="#ffbf23" d="M 88.628906 108.480469 C 88.21875 108.472656 87.886719 108.773438 87.894531 109.160156 L 87.984375 116.925781 C 87.988281 117.308594 88.324219 117.632812 88.734375 117.640625 C 89.148438 117.652344 89.476562 117.347656 89.472656 116.960938 L 89.382812 109.195312 C 89.378906 108.8125 89.042969 108.492188 88.628906 108.480469 " fill-opacity="1" fill-rule="nonzero"/><path fill="#ffbf23" d="M 88 66.375 L 63.738281 66.421875 C 62.566406 66.421875 61.621094 67.371094 61.625 68.542969 L 61.644531 78.582031 C 61.644531 79.753906 62.597656 80.699219 63.765625 80.699219 L 81.929688 80.664062 L 87.234375 84.71875 L 87.226562 80.652344 L 88.027344 80.652344 C 89.195312 80.648438 90.140625 79.699219 90.140625 78.527344 L 90.121094 68.488281 C 90.117188 67.316406 89.167969 66.371094 88 66.375 " fill-opacity="1" fill-rule="nonzero"/><path fill="#000000" d="M 87.175781 85.273438 C 87.132812 85.273438 87.085938 85.257812 87.050781 85.230469 L 81.910156 81.078125 L 74.617188 80.898438 C 74.511719 80.894531 74.425781 80.804688 74.425781 80.695312 C 74.429688 80.585938 74.515625 80.503906 74.628906 80.503906 L 81.984375 80.683594 C 82.03125 80.683594 82.070312 80.699219 82.105469 80.726562 L 86.988281 84.671875 L 87.078125 81.007812 C 87.078125 80.953125 87.101562 80.90625 87.140625 80.871094 C 87.175781 80.832031 87.226562 80.8125 87.28125 80.816406 L 88.078125 80.835938 C 88.09375 80.835938 88.113281 80.835938 88.128906 80.835938 C 89.164062 80.835938 90.019531 80.003906 90.046875 78.960938 L 90.292969 68.921875 C 90.308594 68.410156 90.117188 67.921875 89.765625 67.550781 C 89.410156 67.179688 88.933594 66.964844 88.421875 66.953125 L 64.167969 66.359375 C 63.65625 66.34375 63.167969 66.535156 62.796875 66.886719 C 62.425781 67.242188 62.210938 67.71875 62.199219 68.230469 L 61.953125 78.269531 C 61.941406 78.78125 62.128906 79.269531 62.480469 79.640625 C 62.835938 80.015625 63.3125 80.226562 63.824219 80.238281 L 66.746094 80.308594 C 66.855469 80.3125 66.9375 80.402344 66.9375 80.511719 C 66.933594 80.621094 66.84375 80.703125 66.734375 80.703125 L 63.816406 80.632812 C 63.199219 80.617188 62.621094 80.359375 62.195312 79.914062 C 61.769531 79.464844 61.542969 78.878906 61.558594 78.261719 L 61.804688 68.222656 C 61.820312 67.601562 62.078125 67.027344 62.523438 66.601562 C 62.972656 66.175781 63.558594 65.953125 64.175781 65.964844 L 88.429688 66.5625 C 89.046875 66.578125 89.625 66.832031 90.050781 67.28125 C 90.476562 67.726562 90.703125 68.3125 90.6875 68.933594 L 90.441406 78.972656 C 90.410156 80.226562 89.378906 81.226562 88.128906 81.226562 C 88.109375 81.226562 88.089844 81.226562 88.070312 81.226562 L 87.46875 81.214844 L 87.371094 85.082031 C 87.371094 85.15625 87.324219 85.222656 87.257812 85.257812 C 87.230469 85.269531 87.203125 85.273438 87.175781 85.273438 " fill-opacity="1" fill-rule="nonzero"/><path fill="#000000" d="M 72.457031 80.855469 C 72.457031 80.855469 72.453125 80.855469 72.453125 80.855469 L 70.140625 80.785156 C 70.03125 80.78125 69.949219 80.691406 69.949219 80.582031 C 69.953125 80.476562 70.046875 80.386719 70.152344 80.394531 L 72.464844 80.460938 C 72.574219 80.464844 72.65625 80.554688 72.65625 80.664062 C 72.652344 80.769531 72.5625 80.855469 72.457031 80.855469 " fill-opacity="1" fill-rule="nonzero"/><path fill="#a6201e" d="M 74.914062 71.445312 C 74.914062 71.445312 74.910156 71.445312 74.910156 71.445312 L 65.476562 71.214844 C 65.371094 71.210938 65.285156 71.121094 65.285156 71.011719 C 65.289062 70.902344 65.375 70.816406 65.488281 70.820312 L 74.921875 71.054688 C 75.027344 71.054688 75.113281 71.144531 75.113281 71.253906 C 75.109375 71.363281 75.023438 71.445312 74.914062 71.445312 " fill-opacity="1" fill-rule="nonzero"/><path fill="#a6201e" d="M 86.683594 71.738281 C 86.683594 71.738281 86.679688 71.738281 86.679688 71.738281 L 76.683594 71.492188 C 76.578125 71.488281 76.492188 71.398438 76.492188 71.292969 C 76.496094 71.183594 76.582031 71.097656 76.691406 71.097656 C 76.691406 71.097656 76.695312 71.097656 76.695312 71.097656 L 86.6875 71.34375 C 86.796875 71.347656 86.882812 71.4375 86.882812 71.546875 C 86.878906 71.652344 86.789062 71.738281 86.683594 71.738281 " fill-opacity="1" fill-rule="nonzero"/><path fill="#a6201e" d="M 79.304688 76.261719 C 79.300781 76.261719 79.300781 76.261719 79.296875 76.261719 L 65.476562 75.90625 C 65.367188 75.90625 65.28125 75.8125 65.285156 75.707031 C 65.289062 75.597656 65.375 75.515625 65.480469 75.515625 C 65.484375 75.515625 65.484375 75.515625 65.488281 75.515625 L 79.308594 75.867188 C 79.417969 75.871094 79.503906 75.960938 79.5 76.070312 C 79.496094 76.175781 79.410156 76.261719 79.304688 76.261719 " fill-opacity="1" fill-rule="nonzero"/><path fill="#a6201e" d="M 86.683594 76.433594 C 86.683594 76.433594 86.679688 76.433594 86.679688 76.433594 L 81.074219 76.308594 C 80.964844 76.308594 80.878906 76.214844 80.882812 76.109375 C 80.882812 76 80.972656 75.917969 81.082031 75.914062 L 86.6875 76.039062 C 86.796875 76.042969 86.882812 76.132812 86.878906 76.238281 C 86.878906 76.347656 86.789062 76.433594 86.683594 76.433594 " fill-opacity="1" fill-rule="nonzero"/><path fill="#a6201e" d="M 71.226562 73.675781 C 71.226562 73.675781 71.226562 73.675781 71.222656 73.675781 L 65.476562 73.5625 C 65.371094 73.558594 65.285156 73.46875 65.285156 73.359375 C 65.289062 73.25 65.378906 73.167969 65.484375 73.167969 L 71.230469 73.285156 C 71.339844 73.285156 71.425781 73.375 71.425781 73.484375 C 71.421875 73.589844 71.335938 73.675781 71.226562 73.675781 " fill-opacity="1" fill-rule="nonzero"/><path fill="#a6201e" d="M 86.683594 74.085938 C 86.683594 74.085938 86.679688 74.085938 86.679688 74.085938 L 72.996094 73.722656 C 72.890625 73.71875 72.804688 73.628906 72.804688 73.519531 C 72.808594 73.410156 72.902344 73.324219 73.007812 73.328125 L 86.691406 73.691406 C 86.796875 73.695312 86.882812 73.785156 86.882812 73.894531 C 86.878906 74 86.789062 74.085938 86.683594 74.085938 " fill-opacity="1" fill-rule="nonzero"/><path fill="#a6201e" d="M 94.871094 153.621094 C 94.871094 153.621094 89.289062 141.390625 92.492188 125.527344 C 92.492188 125.527344 101.140625 132.777344 98.023438 153.621094 L 94.871094 153.621094 " fill-opacity="1" fill-rule="nonzero"/><path fill="#ffffff" d="M 96.238281 152.542969 C 96.234375 152.542969 96.230469 152.542969 96.226562 152.542969 C 96.117188 152.539062 96.035156 152.445312 96.039062 152.335938 C 96.464844 144.519531 92.941406 127.828125 92.90625 127.660156 C 92.882812 127.554688 92.949219 127.449219 93.058594 127.425781 C 93.164062 127.40625 93.265625 127.472656 93.289062 127.578125 C 93.324219 127.746094 96.863281 144.488281 96.433594 152.359375 C 96.425781 152.460938 96.339844 152.542969 96.238281 152.542969 " fill-opacity="1" fill-rule="nonzero"/><path fill="#378297" d="M 100.484375 133.734375 C 100.484375 133.734375 93.296875 146.726562 97.621094 152.347656 L 99.933594 152.347656 C 99.933594 152.347656 104.558594 142.191406 100.484375 133.734375 " fill-opacity="1" fill-rule="nonzero"/><path fill="#ffffff" d="M 98.699219 152.886719 C 98.597656 152.886719 98.507812 152.804688 98.503906 152.699219 C 98.296875 147.332031 100.273438 133.839844 100.292969 133.703125 C 100.308594 133.597656 100.40625 133.523438 100.515625 133.539062 C 100.621094 133.554688 100.695312 133.652344 100.679688 133.761719 C 100.660156 133.894531 98.691406 147.355469 98.898438 152.683594 C 98.902344 152.792969 98.816406 152.882812 98.710938 152.886719 C 98.707031 152.886719 98.703125 152.886719 98.699219 152.886719 " fill-opacity="1" fill-rule="nonzero"/><path fill="#ffbf23" d="M 86.757812 138.578125 C 86.757812 138.578125 92.882812 140.667969 95.101562 153.039062 L 92.691406 153.039062 C 92.691406 153.039062 87.664062 146.246094 86.757812 138.578125 " fill-opacity="1" fill-rule="nonzero"/><path fill="#378297" d="M 93.785156 152.886719 C 93.691406 152.886719 93.605469 152.820312 93.589844 152.722656 C 92.679688 147.21875 88.738281 141.679688 88.699219 141.621094 C 88.636719 141.535156 88.65625 141.410156 88.742188 141.347656 C 88.832031 141.285156 88.957031 141.304688 89.019531 141.394531 C 89.058594 141.449219 93.050781 147.066406 93.976562 152.660156 C 93.996094 152.765625 93.921875 152.867188 93.816406 152.886719 C 93.804688 152.886719 93.792969 152.886719 93.785156 152.886719 " fill-opacity="1" fill-rule="nonzero"/><path fill="#ffffff" d="M 89.121094 152.058594 L 104.234375 152.058594 L 104.574219 159.207031 C 104.65625 160.960938 103.257812 162.425781 101.503906 162.425781 L 92.871094 162.425781 C 90.792969 162.425781 89.113281 160.742188 89.113281 158.664062 L 89.121094 152.058594 " fill-opacity="1" fill-rule="nonzero"/><path fill="#a6201e" d="M 89.316406 152.253906 L 89.3125 158.664062 C 89.308594 159.617188 89.679688 160.511719 90.351562 161.183594 C 91.023438 161.859375 91.917969 162.230469 92.871094 162.230469 L 101.503906 162.230469 C 102.296875 162.230469 103.035156 161.914062 103.582031 161.335938 C 104.132812 160.761719 104.414062 160.007812 104.375 159.214844 L 104.046875 152.253906 Z M 101.503906 162.621094 L 92.871094 162.621094 C 91.8125 162.621094 90.820312 162.210938 90.074219 161.464844 C 89.328125 160.714844 88.917969 159.722656 88.917969 158.664062 L 88.921875 152.058594 C 88.921875 151.949219 89.011719 151.863281 89.121094 151.863281 L 104.234375 151.863281 C 104.339844 151.863281 104.425781 151.945312 104.429688 152.046875 L 104.769531 159.195312 C 104.8125 160.097656 104.492188 160.957031 103.867188 161.609375 C 103.246094 162.261719 102.40625 162.621094 101.503906 162.621094 " fill-opacity="1" fill-rule="nonzero"/><path fill="#378297" d="M 161.476562 154.101562 L 125.6875 154.101562 C 124.761719 154.101562 124.007812 153.347656 124.007812 152.421875 L 124.007812 138.320312 C 124.007812 137.398438 124.761719 136.640625 125.6875 136.640625 L 134.097656 136.640625 C 134.210938 136.640625 134.304688 136.554688 134.308594 136.441406 L 135.5 131.882812 L 139.9375 136.59375 C 139.976562 136.625 140.023438 136.640625 140.074219 136.640625 L 161.476562 136.640625 C 162.398438 136.640625 163.15625 137.398438 163.15625 138.320312 L 163.15625 152.421875 C 163.15625 153.347656 162.398438 154.101562 161.476562 154.101562 " fill-opacity="1" fill-rule="nonzero"/><path fill="#a6201e" d="M 159.144531 142.597656 L 150.570312 142.597656 C 150.460938 142.597656 150.375 142.511719 150.375 142.402344 C 150.375 142.292969 150.460938 142.203125 150.570312 142.203125 L 159.144531 142.203125 C 159.253906 142.203125 159.34375 142.292969 159.34375 142.402344 C 159.34375 142.511719 159.253906 142.597656 159.144531 142.597656 " fill-opacity="1" fill-rule="nonzero"/><path fill="#a6201e" d="M 146.894531 142.597656 L 127.996094 142.597656 C 127.886719 142.597656 127.796875 142.511719 127.796875 142.402344 C 127.796875 142.292969 127.886719 142.203125 127.996094 142.203125 L 146.894531 142.203125 C 147.003906 142.203125 147.089844 142.292969 147.089844 142.402344 C 147.089844 142.511719 147.003906 142.597656 146.894531 142.597656 " fill-opacity="1" fill-rule="nonzero"/><path fill="#a6201e" d="M 159.144531 146.398438 L 139.542969 146.398438 C 139.433594 146.398438 139.347656 146.308594 139.347656 146.199219 C 139.347656 146.09375 139.433594 146.003906 139.542969 146.003906 L 159.144531 146.003906 C 159.253906 146.003906 159.34375 146.09375 159.34375 146.199219 C 159.34375 146.308594 159.253906 146.398438 159.144531 146.398438 " fill-opacity="1" fill-rule="nonzero"/><path fill="#a6201e" d="M 135.742188 146.398438 L 127.996094 146.398438 C 127.886719 146.398438 127.796875 146.308594 127.796875 146.199219 C 127.796875 146.09375 127.886719 146.003906 127.996094 146.003906 L 135.742188 146.003906 C 135.851562 146.003906 135.941406 146.09375 135.941406 146.199219 C 135.941406 146.308594 135.851562 146.398438 135.742188 146.398438 " fill-opacity="1" fill-rule="nonzero"/><path fill="#a6201e" d="M 159.144531 149.707031 L 147.15625 149.707031 C 147.046875 149.707031 146.957031 149.617188 146.957031 149.507812 C 146.957031 149.402344 147.046875 149.3125 147.15625 149.3125 L 159.144531 149.3125 C 159.253906 149.3125 159.34375 149.402344 159.34375 149.507812 C 159.34375 149.617188 159.253906 149.707031 159.144531 149.707031 " fill-opacity="1" fill-rule="nonzero"/><path fill="#a6201e" d="M 143.332031 149.707031 L 127.996094 149.707031 C 127.886719 149.707031 127.796875 149.617188 127.796875 149.507812 C 127.796875 149.402344 127.886719 149.3125 127.996094 149.3125 L 143.332031 149.3125 C 143.441406 149.3125 143.53125 149.402344 143.53125 149.507812 C 143.53125 149.617188 143.441406 149.707031 143.332031 149.707031 " fill-opacity="1" fill-rule="nonzero"/><path fill="#000000" d="M 161.535156 154.578125 C 161.53125 154.578125 161.527344 154.578125 161.523438 154.578125 L 125.316406 154.28125 C 124.875 154.277344 124.457031 154.101562 124.144531 153.78125 C 123.832031 153.464844 123.660156 153.042969 123.664062 152.601562 L 123.78125 138.082031 C 123.789062 137.167969 124.535156 136.429688 125.449219 136.429688 C 125.453125 136.429688 125.457031 136.429688 125.460938 136.429688 L 133.050781 136.488281 L 134.183594 136.558594 L 135.308594 131.839844 C 135.324219 131.769531 135.378906 131.710938 135.449219 131.695312 C 135.519531 131.675781 135.59375 131.699219 135.644531 131.75 L 140.066406 136.546875 L 146.894531 136.601562 C 147.003906 136.605469 147.089844 136.691406 147.089844 136.800781 C 147.089844 136.910156 147.003906 137.003906 146.894531 136.996094 L 139.976562 136.941406 C 139.925781 136.941406 139.871094 136.917969 139.835938 136.875 L 135.605469 132.289062 L 134.527344 136.8125 C 134.503906 136.902344 134.417969 136.964844 134.324219 136.960938 L 133.035156 136.882812 L 125.460938 136.820312 C 124.757812 136.8125 124.179688 137.382812 124.175781 138.085938 L 124.058594 152.605469 C 124.054688 152.941406 124.183594 153.261719 124.421875 153.507812 C 124.664062 153.75 124.980469 153.886719 125.320312 153.886719 L 161.527344 154.183594 C 161.527344 154.183594 161.53125 154.183594 161.535156 154.183594 C 162.234375 154.183594 162.804688 153.617188 162.808594 152.921875 L 162.929688 138.402344 C 162.933594 137.699219 162.367188 137.121094 161.664062 137.117188 L 148.609375 137.011719 C 148.5 137.011719 148.414062 136.921875 148.414062 136.8125 C 148.414062 136.703125 148.507812 136.617188 148.613281 136.617188 L 161.667969 136.722656 C 162.585938 136.730469 163.328125 137.484375 163.320312 138.402344 L 163.203125 152.921875 C 163.195312 153.835938 162.449219 154.578125 161.535156 154.578125 " fill-opacity="1" fill-rule="nonzero"/><path fill="#ffffff" d="M 72.859375 155.429688 L 73.171875 158.402344 L 75.183594 158.640625 L 75.183594 155.113281 L 72.859375 155.429688 " fill-opacity="1" fill-rule="nonzero"/><path fill="#000000" d="M 73.351562 158.226562 L 74.988281 158.417969 L 74.988281 155.339844 L 73.078125 155.601562 Z M 75.183594 158.835938 C 75.175781 158.835938 75.167969 158.835938 75.160156 158.835938 L 73.148438 158.597656 C 73.058594 158.589844 72.988281 158.515625 72.976562 158.425781 L 72.664062 155.449219 C 72.652344 155.347656 72.730469 155.25 72.835938 155.234375 L 75.15625 154.917969 C 75.214844 154.910156 75.269531 154.929688 75.3125 154.964844 C 75.355469 155.003906 75.378906 155.058594 75.378906 155.113281 L 75.378906 158.640625 C 75.378906 158.695312 75.355469 158.75 75.3125 158.785156 C 75.277344 158.816406 75.230469 158.835938 75.183594 158.835938 " fill-opacity="1" fill-rule="nonzero"/><path fill="#a6201e" d="M 75.5 163.8125 C 74.660156 163.933594 73.289062 164.035156 71.675781 163.8125 C 71.148438 163.738281 70.796875 163.226562 70.925781 162.707031 C 71.28125 161.265625 71.890625 158.527344 72.941406 157.257812 L 73.203125 157.949219 L 73.5625 157.300781 C 73.613281 157.210938 73.699219 157.152344 73.800781 157.136719 L 74.589844 157.039062 C 74.753906 157.015625 74.910156 157.125 74.941406 157.289062 L 75.066406 157.886719 L 75.34375 157.101562 L 76.261719 162.808594 C 76.324219 163.296875 75.988281 163.746094 75.5 163.8125 " fill-opacity="1" fill-rule="nonzero"/><path fill="#000000" d="M 72.882812 157.664062 C 72.054688 158.894531 71.519531 161.089844 71.191406 162.445312 L 71.117188 162.753906 C 71.066406 162.949219 71.101562 163.148438 71.214844 163.316406 C 71.328125 163.480469 71.503906 163.589844 71.703125 163.617188 C 73.277344 163.835938 74.621094 163.738281 75.472656 163.621094 C 75.851562 163.566406 76.117188 163.214844 76.066406 162.835938 L 75.273438 157.898438 L 75.253906 157.949219 C 75.222656 158.035156 75.144531 158.085938 75.054688 158.082031 C 74.96875 158.078125 74.894531 158.011719 74.875 157.925781 L 74.75 157.328125 C 74.738281 157.269531 74.675781 157.226562 74.613281 157.234375 L 73.824219 157.332031 C 73.789062 157.339844 73.753906 157.363281 73.734375 157.394531 L 73.375 158.042969 C 73.335938 158.109375 73.265625 158.148438 73.1875 158.144531 C 73.113281 158.136719 73.046875 158.089844 73.019531 158.015625 Z M 73.597656 164.140625 C 73.007812 164.140625 72.351562 164.105469 71.648438 164.007812 C 71.339844 163.964844 71.0625 163.792969 70.890625 163.535156 C 70.71875 163.28125 70.660156 162.960938 70.734375 162.660156 L 70.808594 162.351562 C 71.171875 160.855469 71.78125 158.351562 72.789062 157.132812 C 72.835938 157.078125 72.902344 157.054688 72.972656 157.066406 C 73.042969 157.078125 73.101562 157.125 73.125 157.191406 L 73.234375 157.480469 L 73.390625 157.203125 C 73.46875 157.0625 73.613281 156.964844 73.777344 156.941406 L 74.566406 156.84375 C 74.800781 156.8125 75.027344 156.953125 75.109375 157.167969 L 75.15625 157.035156 C 75.1875 156.953125 75.273438 156.898438 75.359375 156.90625 C 75.449219 156.914062 75.523438 156.980469 75.539062 157.070312 L 76.457031 162.777344 C 76.535156 163.375 76.117188 163.925781 75.527344 164.007812 C 75.03125 164.078125 74.371094 164.140625 73.597656 164.140625 " fill-opacity="1" fill-rule="nonzero"/><path fill="#000000" d="M 73.171875 163.183594 C 72.628906 163.183594 72.042969 163.136719 71.460938 163.003906 C 71.351562 162.980469 71.289062 162.875 71.3125 162.769531 C 71.335938 162.664062 71.441406 162.597656 71.546875 162.621094 C 73.496094 163.066406 75.539062 162.492188 75.558594 162.488281 C 75.664062 162.457031 75.769531 162.515625 75.800781 162.621094 C 75.832031 162.726562 75.769531 162.835938 75.667969 162.863281 C 75.605469 162.882812 74.527344 163.183594 73.171875 163.183594 " fill-opacity="1" fill-rule="nonzero"/><path fill="#000000" d="M 72.691406 160.972656 C 72.585938 160.972656 72.5 160.890625 72.496094 160.785156 C 72.492188 160.675781 72.578125 160.585938 72.683594 160.582031 L 74.570312 160.519531 C 74.675781 160.511719 74.769531 160.601562 74.773438 160.707031 C 74.777344 160.816406 74.691406 160.90625 74.582031 160.910156 L 72.699219 160.972656 C 72.695312 160.972656 72.695312 160.972656 72.691406 160.972656 " fill-opacity="1" fill-rule="nonzero"/><path fill="#ffffff" d="M 82.277344 153.847656 L 82.578125 158.1875 L 84.996094 158.1875 L 85.109375 153.847656 L 82.277344 153.847656 " fill-opacity="1" fill-rule="nonzero"/><path fill="#000000" d="M 82.761719 157.988281 L 84.804688 157.988281 L 84.90625 154.042969 L 82.488281 154.042969 Z M 84.996094 158.382812 L 82.578125 158.382812 C 82.472656 158.382812 82.386719 158.304688 82.378906 158.199219 L 82.078125 153.859375 C 82.074219 153.808594 82.09375 153.753906 82.132812 153.714844 C 82.167969 153.675781 82.222656 153.652344 82.277344 153.652344 L 85.109375 153.652344 C 85.160156 153.652344 85.210938 153.671875 85.25 153.710938 C 85.285156 153.75 85.304688 153.800781 85.304688 153.851562 L 85.191406 158.191406 C 85.191406 158.296875 85.101562 158.382812 84.996094 158.382812 " fill-opacity="1" fill-rule="nonzero"/><path fill="#a6201e" d="M 81.945312 160.636719 C 81.9375 161.046875 82.21875 161.40625 82.617188 161.5 C 84.007812 161.824219 87.140625 162.542969 88.035156 162.675781 C 89.195312 162.847656 90.621094 162.492188 91.234375 161.816406 C 91.847656 161.136719 89.859375 159.519531 88.917969 158.929688 C 87.519531 158.050781 86.175781 156.324219 85.613281 156.246094 C 85.046875 156.167969 83.996094 157.800781 83.996094 157.800781 L 82.277344 157.078125 C 82.277344 157.078125 81.976562 158.554688 81.945312 160.636719 " fill-opacity="1" fill-rule="nonzero"/><path fill="#000000" d="M 82.140625 160.636719 C 82.136719 160.953125 82.355469 161.234375 82.664062 161.308594 C 83.992188 161.617188 87.175781 162.347656 88.066406 162.480469 C 89.183594 162.648438 90.539062 162.289062 91.085938 161.683594 C 91.121094 161.644531 91.164062 161.578125 91.148438 161.449219 C 91.058594 160.808594 89.734375 159.671875 88.816406 159.09375 C 88.101562 158.648438 87.421875 158.003906 86.820312 157.433594 C 86.320312 156.960938 85.804688 156.46875 85.585938 156.441406 C 85.320312 156.398438 84.636719 157.171875 84.160156 157.910156 C 84.109375 157.988281 84.007812 158.019531 83.917969 157.984375 L 82.425781 157.355469 C 82.34375 157.851562 82.164062 159.078125 82.140625 160.636719 Z M 88.640625 162.917969 C 88.425781 162.917969 88.210938 162.902344 88.007812 162.871094 C 87.136719 162.742188 84.230469 162.074219 82.574219 161.691406 C 82.089844 161.578125 81.742188 161.132812 81.75 160.632812 C 81.777344 158.554688 82.082031 157.054688 82.082031 157.039062 C 82.09375 156.984375 82.132812 156.933594 82.183594 156.90625 C 82.234375 156.878906 82.296875 156.875 82.351562 156.898438 L 83.921875 157.558594 C 84.261719 157.050781 85.058594 155.972656 85.636719 156.050781 C 85.96875 156.09375 86.382812 156.476562 87.09375 157.148438 C 87.679688 157.703125 88.34375 158.335938 89.023438 158.761719 C 89.632812 159.144531 91.40625 160.445312 91.535156 161.394531 C 91.566406 161.609375 91.511719 161.800781 91.378906 161.945312 C 90.847656 162.535156 89.726562 162.917969 88.640625 162.917969 " fill-opacity="1" fill-rule="nonzero"/><path fill="#000000" d="M 88.617188 162.117188 C 86.078125 162.117188 82.695312 160.75 82.503906 160.671875 C 82.402344 160.628906 82.355469 160.515625 82.394531 160.414062 C 82.4375 160.316406 82.550781 160.265625 82.652344 160.308594 C 82.710938 160.332031 88.789062 162.789062 90.554688 161.195312 C 90.636719 161.121094 90.757812 161.128906 90.832031 161.210938 C 90.90625 161.289062 90.898438 161.414062 90.816406 161.488281 C 90.308594 161.945312 89.515625 162.117188 88.617188 162.117188 " fill-opacity="1" fill-rule="nonzero"/><path fill="#000000" d="M 85.9375 159.492188 C 85.882812 159.492188 85.828125 159.472656 85.792969 159.425781 C 85.71875 159.347656 85.726562 159.222656 85.804688 159.148438 L 87.035156 158.039062 C 87.117188 157.96875 87.242188 157.972656 87.3125 158.054688 C 87.386719 158.136719 87.378906 158.257812 87.300781 158.332031 L 86.070312 159.441406 C 86.03125 159.476562 85.984375 159.492188 85.9375 159.492188 " fill-opacity="1" fill-rule="nonzero"/><path fill="#000000" d="M 72.175781 125.566406 C 72.175781 125.566406 71.425781 139.128906 71.035156 143.808594 C 70.640625 148.492188 71.949219 156.015625 71.949219 156.015625 L 75.683594 155.820312 C 75.683594 155.820312 75.941406 146.671875 76.21875 144.128906 C 76.21875 144.128906 77.792969 140.683594 78.261719 137.613281 C 78.730469 134.542969 80.320312 129.6875 80.320312 129.6875 C 80.320312 129.6875 81.613281 153.910156 81.738281 155.8125 C 81.738281 155.8125 84.667969 155.941406 85.714844 155.28125 C 85.714844 155.28125 87.574219 146.449219 87.308594 141.644531 C 87.042969 136.839844 87.335938 124.902344 87.335938 124.902344 L 72.175781 125.566406 " fill-opacity="1" fill-rule="nonzero"/><path fill="#ffffff" d="M 75.53125 144.324219 L 74.386719 144.324219 C 74.28125 144.324219 74.191406 144.238281 74.191406 144.128906 C 74.191406 144.019531 74.28125 143.933594 74.386719 143.933594 L 75.53125 143.933594 C 75.636719 143.933594 75.726562 144.019531 75.726562 144.128906 C 75.726562 144.238281 75.636719 144.324219 75.53125 144.324219 " fill-opacity="1" fill-rule="nonzero"/><path fill="#ffffff" d="M 83.660156 151.371094 C 83.65625 151.371094 83.65625 151.371094 83.65625 151.371094 C 83.546875 151.367188 83.460938 151.277344 83.460938 151.167969 C 83.503906 148.910156 85.972656 144.875 86.078125 144.707031 C 86.132812 144.613281 86.253906 144.585938 86.347656 144.640625 C 86.441406 144.699219 86.46875 144.820312 86.414062 144.910156 C 86.386719 144.953125 83.894531 149.023438 83.855469 151.175781 C 83.855469 151.285156 83.765625 151.371094 83.660156 151.371094 " fill-opacity="1" fill-rule="nonzero"/><path fill="#ffffff" d="M 88.515625 103.878906 C 88.789062 103.855469 90.121094 106.585938 94.296875 106.472656 C 98.472656 106.359375 101.820312 101.6875 101.820312 101.6875 C 101.820312 101.6875 103.261719 99.253906 104.359375 98.375 C 105.453125 97.496094 105.625 97.382812 105.625 97.382812 C 105.625 97.382812 105.964844 97.839844 105.625 98.375 C 105.28125 98.914062 104.332031 99.921875 104.332031 99.921875 C 104.332031 99.921875 105.375 100.492188 104.90625 101.6875 C 104.363281 103.058594 102.839844 102.949219 102.839844 102.949219 C 102.839844 102.949219 99.746094 116.652344 86.953125 110.140625 L 88.515625 103.878906 " fill-opacity="1" fill-rule="nonzero"/><path fill="#000000" d="M 87.179688 110.035156 C 90.886719 111.890625 94.113281 112.195312 96.773438 110.945312 C 101.261719 108.839844 102.632812 102.964844 102.648438 102.90625 C 102.667969 102.8125 102.757812 102.746094 102.855469 102.753906 C 102.910156 102.757812 104.242188 102.832031 104.722656 101.613281 C 105.121094 100.601562 104.273438 100.113281 104.238281 100.09375 C 104.183594 100.0625 104.148438 100.011719 104.140625 99.949219 C 104.128906 99.890625 104.148438 99.832031 104.191406 99.785156 C 104.199219 99.777344 105.128906 98.789062 105.457031 98.269531 C 105.605469 98.039062 105.59375 97.824219 105.550781 97.683594 C 105.378906 97.8125 105.0625 98.0625 104.480469 98.53125 C 103.425781 99.378906 102.003906 101.761719 101.992188 101.789062 C 101.988281 101.792969 101.984375 101.796875 101.980469 101.800781 C 101.84375 101.996094 98.527344 106.554688 94.300781 106.667969 C 90.898438 106.761719 89.351562 105.035156 88.691406 104.296875 C 88.671875 104.277344 88.652344 104.253906 88.628906 104.230469 Z M 93.296875 112.09375 C 91.339844 112.09375 89.1875 111.5 86.863281 110.316406 C 86.78125 110.273438 86.738281 110.183594 86.761719 110.09375 L 88.324219 103.828125 C 88.347656 103.746094 88.417969 103.6875 88.5 103.679688 C 88.652344 103.667969 88.757812 103.785156 88.984375 104.035156 C 89.609375 104.734375 91.074219 106.367188 94.292969 106.277344 C 98.253906 106.167969 101.515625 101.773438 101.65625 101.578125 C 101.765625 101.398438 103.144531 99.097656 104.234375 98.222656 C 105.320312 97.347656 105.507812 97.222656 105.511719 97.21875 C 105.601562 97.160156 105.71875 97.179688 105.78125 97.265625 C 105.796875 97.285156 106.199219 97.835938 105.789062 98.484375 C 105.523438 98.902344 104.917969 99.574219 104.632812 99.886719 C 105.023438 100.203125 105.445312 100.851562 105.089844 101.757812 C 104.613281 102.96875 103.433594 103.128906 102.992188 103.144531 C 102.738281 104.105469 101.183594 109.308594 96.941406 111.300781 C 95.816406 111.832031 94.597656 112.09375 93.296875 112.09375 " fill-opacity="1" fill-rule="nonzero"/><path fill="#a6201e" d="M 67.824219 110.140625 C 67.824219 110.140625 69.078125 102.054688 73.503906 100.066406 C 77.929688 98.074219 83.917969 98.351562 85.570312 99.347656 C 87.222656 100.339844 91.523438 104.832031 91.523438 104.832031 L 87.722656 110.140625 C 87.722656 110.140625 88.589844 124.433594 87.902344 128.207031 C 87.902344 128.207031 83.671875 128.699219 81.878906 127.992188 C 80.082031 127.289062 74.183594 126.296875 71.363281 127.59375 L 71.875 109.496094 L 67.824219 110.140625 " fill-opacity="1" fill-rule="nonzero"/><path fill="#000000" d="M 75.195312 126.765625 C 77.886719 126.765625 80.785156 127.351562 81.949219 127.8125 C 83.492188 128.417969 86.980469 128.105469 87.734375 128.027344 C 88.363281 124.109375 87.535156 110.292969 87.523438 110.152344 C 87.523438 110.109375 87.535156 110.0625 87.5625 110.027344 L 91.269531 104.851562 C 90.578125 104.136719 86.929688 100.394531 85.46875 99.515625 C 83.925781 98.585938 77.988281 98.265625 73.585938 100.246094 C 69.753906 101.964844 68.332031 108.496094 68.066406 109.902344 L 71.84375 109.304688 C 71.902344 109.292969 71.960938 109.3125 72.003906 109.351562 C 72.050781 109.386719 72.074219 109.445312 72.074219 109.503906 L 71.570312 127.292969 C 72.5625 126.910156 73.851562 126.765625 75.195312 126.765625 Z M 84.921875 128.574219 C 83.789062 128.574219 82.585938 128.484375 81.804688 128.175781 C 79.957031 127.449219 74.125 126.539062 71.445312 127.769531 C 71.382812 127.800781 71.3125 127.792969 71.253906 127.757812 C 71.199219 127.71875 71.164062 127.65625 71.167969 127.585938 L 71.671875 109.730469 L 67.855469 110.335938 C 67.792969 110.34375 67.730469 110.324219 67.6875 110.28125 C 67.640625 110.234375 67.621094 110.171875 67.628906 110.109375 C 67.683594 109.777344 68.949219 101.894531 73.421875 99.886719 C 77.808594 97.914062 83.875 98.097656 85.671875 99.175781 C 87.324219 100.171875 91.492188 104.511719 91.667969 104.695312 C 91.730469 104.765625 91.738281 104.871094 91.683594 104.945312 L 87.921875 110.199219 C 87.996094 111.40625 88.761719 124.582031 88.097656 128.242188 C 88.082031 128.328125 88.011719 128.390625 87.925781 128.402344 C 87.828125 128.414062 86.433594 128.574219 84.921875 128.574219 " fill-opacity="1" fill-rule="nonzero"/><path fill="#000000" d="M 75.25 124.058594 C 75.15625 124.058594 75.074219 123.992188 75.058594 123.898438 C 75.039062 123.789062 75.109375 123.6875 75.21875 123.671875 C 81.90625 122.488281 83.84375 117.875 83.863281 117.828125 C 83.90625 117.726562 84.019531 117.679688 84.121094 117.71875 C 84.222656 117.757812 84.269531 117.875 84.230469 117.972656 C 84.210938 118.023438 82.1875 122.835938 75.285156 124.058594 C 75.273438 124.058594 75.261719 124.058594 75.25 124.058594 " fill-opacity="1" fill-rule="nonzero"/><path fill="#000000" d="M 87.402344 115.792969 L 78.789062 115.792969 L 81.484375 106.171875 L 90.097656 106.171875 L 87.402344 115.792969 " fill-opacity="1" fill-rule="nonzero"/><path fill="#ffffff" d="M 68.585938 110.171875 L 72.945312 108.222656 C 72.945312 108.222656 72.328125 115.609375 81.148438 112.199219 C 81.148438 112.199219 80.824219 111.25 80.871094 110.140625 C 80.914062 109.03125 81.578125 110.105469 81.671875 111.007812 C 81.765625 111.90625 83.835938 111.542969 85.078125 111.1875 C 86.324219 110.832031 87.957031 111.0625 85.078125 112.652344 C 82.203125 114.238281 81.570312 113.53125 81.570312 113.53125 C 81.570312 113.53125 77.894531 118.671875 73.324219 117.582031 C 67.699219 116.238281 68.585938 110.171875 68.585938 110.171875 " fill-opacity="1" fill-rule="nonzero"/><path fill="#000000" d="M 68.765625 110.304688 C 68.730469 110.675781 68.640625 111.953125 69.039062 113.332031 C 69.660156 115.484375 71.117188 116.851562 73.371094 117.390625 C 73.789062 117.488281 74.199219 117.535156 74.601562 117.535156 C 78.414062 117.535156 81.378906 113.460938 81.410156 113.417969 C 81.445312 113.367188 81.5 113.335938 81.5625 113.335938 C 81.621094 113.332031 81.679688 113.355469 81.71875 113.398438 C 81.71875 113.398438 82.363281 113.925781 84.984375 112.480469 C 86.507812 111.636719 86.484375 111.332031 86.484375 111.328125 C 86.425781 111.230469 85.851562 111.171875 85.132812 111.375 C 84.542969 111.542969 82.550781 112.054688 81.789062 111.542969 C 81.605469 111.417969 81.496094 111.238281 81.476562 111.027344 C 81.429688 110.558594 81.222656 110.097656 81.089844 109.925781 C 81.078125 109.976562 81.070312 110.046875 81.066406 110.148438 C 81.023438 111.210938 81.332031 112.125 81.335938 112.136719 C 81.367188 112.234375 81.320312 112.34375 81.21875 112.382812 C 78.175781 113.558594 75.890625 113.597656 74.425781 112.503906 C 72.890625 111.355469 72.734375 109.324219 72.738281 108.53125 Z M 74.597656 117.925781 C 74.167969 117.925781 73.726562 117.878906 73.277344 117.773438 C 67.546875 116.402344 68.378906 110.207031 68.390625 110.144531 C 68.398438 110.078125 68.441406 110.019531 68.503906 109.992188 L 72.863281 108.042969 C 72.925781 108.015625 73 108.023438 73.058594 108.0625 C 73.113281 108.101562 73.144531 108.171875 73.140625 108.238281 C 73.136719 108.265625 72.941406 110.90625 74.664062 112.1875 C 75.988281 113.179688 78.085938 113.140625 80.90625 112.082031 C 80.8125 111.746094 80.636719 110.988281 80.671875 110.132812 C 80.679688 109.972656 80.699219 109.484375 81.039062 109.472656 C 81.042969 109.472656 81.046875 109.472656 81.050781 109.472656 C 81.484375 109.472656 81.8125 110.453125 81.867188 110.984375 C 81.878906 111.082031 81.921875 111.15625 82.007812 111.214844 C 82.472656 111.527344 83.855469 111.332031 85.027344 110.996094 C 85.566406 110.84375 86.644531 110.683594 86.847656 111.179688 C 87.015625 111.585938 86.5 112.09375 85.175781 112.824219 C 82.960938 114.046875 81.992188 113.945312 81.621094 113.789062 C 81.039062 114.539062 78.195312 117.925781 74.597656 117.925781 " fill-opacity="1" fill-rule="nonzero"/><path fill="#000000" d="M 80.21875 96.378906 C 79.84375 96.726562 79.105469 97.144531 78.53125 96.855469 C 78.101562 96.640625 77.863281 96.078125 77.878906 95.4375 C 77.679688 95.453125 77.417969 95.441406 77.234375 95.277344 C 76.945312 95.023438 77 94.558594 77.011719 94.253906 C 77.0625 92.84375 76.242188 92.625 76.445312 91.667969 C 76.601562 90.914062 77.191406 90.46875 77.304688 90.382812 C 77.859375 89.960938 78.238281 90.097656 79.175781 89.851562 C 80.757812 89.4375 80.804688 88.757812 81.847656 88.753906 C 81.90625 88.753906 83.324219 88.769531 83.804688 89.746094 C 84.195312 90.542969 83.738281 91.507812 83.265625 92.015625 C 82.652344 92.675781 82.214844 92.347656 81.601562 92.902344 C 80.527344 93.871094 81.339844 95.355469 80.21875 96.378906 " fill-opacity="1" fill-rule="nonzero"/><path fill="#ffffff" d="M 83.371094 93.863281 L 83.308594 93.808594 C 82.996094 93.539062 82.671875 93.226562 82.585938 92.824219 C 82.234375 91.105469 80.660156 90.480469 80.589844 92.058594 C 80.570312 92.457031 79.117188 92.4375 79.289062 92.855469 C 79.738281 93.941406 79.75 93.648438 79.113281 94.050781 C 79.042969 94.054688 78.972656 94.070312 78.90625 94.101562 C 78.578125 94.253906 78.464844 94.695312 78.648438 95.089844 C 78.757812 95.328125 78.953125 95.492188 79.164062 95.550781 L 79.164062 97.269531 C 79.164062 97.917969 78.773438 98.496094 78.175781 98.742188 L 77.59375 98.980469 C 77.59375 98.980469 80.304688 100.746094 83.054688 98.804688 L 82.6875 98.640625 C 82.042969 98.351562 81.617188 97.71875 81.59375 97.011719 L 81.59375 96.671875 C 81.777344 96.691406 81.957031 96.679688 82.121094 96.628906 C 82.890625 96.40625 83.144531 95.519531 83.015625 94.417969 L 83.328125 94.25 C 83.472656 94.171875 83.496094 93.96875 83.371094 93.863281 " fill-opacity="1" fill-rule="nonzero"/><path fill="#000000" d="M 78.050781 99.003906 C 78.808594 99.375 80.679688 100.042969 82.648438 98.839844 L 82.605469 98.820312 C 81.898438 98.503906 81.421875 97.792969 81.398438 97.015625 L 81.394531 96.675781 C 81.394531 96.621094 81.417969 96.566406 81.457031 96.527344 C 81.5 96.492188 81.554688 96.472656 81.609375 96.476562 C 81.777344 96.492188 81.929688 96.480469 82.066406 96.441406 C 82.929688 96.1875 82.882812 94.957031 82.820312 94.441406 C 82.808594 94.359375 82.851562 94.28125 82.921875 94.246094 L 83.234375 94.078125 C 83.25 94.070312 83.253906 94.054688 83.253906 94.046875 C 83.257812 94.035156 83.253906 94.023438 83.242188 94.011719 L 83.179688 93.957031 C 82.851562 93.671875 82.492188 93.332031 82.394531 92.863281 C 82.1875 91.84375 81.546875 91.320312 81.1875 91.347656 C 80.855469 91.375 80.796875 91.859375 80.785156 92.066406 C 80.769531 92.398438 80.363281 92.515625 79.964844 92.625 C 79.808594 92.667969 79.558594 92.738281 79.480469 92.800781 C 79.542969 92.949219 79.59375 93.066406 79.636719 93.167969 C 79.851562 93.664062 79.925781 93.832031 79.488281 94.066406 C 79.414062 94.101562 79.328125 94.148438 79.21875 94.21875 C 79.191406 94.234375 79.15625 94.246094 79.125 94.246094 C 79.074219 94.25 79.027344 94.261719 78.988281 94.28125 C 78.761719 94.386719 78.6875 94.710938 78.824219 95.003906 C 78.90625 95.183594 79.054688 95.316406 79.21875 95.363281 C 79.300781 95.386719 79.359375 95.464844 79.359375 95.550781 L 79.359375 97.269531 C 79.359375 98 78.925781 98.648438 78.25 98.921875 Z M 80.277344 99.90625 C 78.683594 99.90625 77.507812 99.15625 77.488281 99.144531 C 77.425781 99.105469 77.394531 99.035156 77.398438 98.960938 C 77.40625 98.886719 77.453125 98.824219 77.519531 98.796875 L 78.101562 98.558594 C 78.628906 98.34375 78.96875 97.839844 78.96875 97.269531 L 78.96875 95.6875 C 78.753906 95.585938 78.578125 95.402344 78.46875 95.171875 C 78.242188 94.679688 78.398438 94.121094 78.820312 93.921875 C 78.894531 93.890625 78.972656 93.867188 79.050781 93.859375 C 79.152344 93.796875 79.234375 93.753906 79.300781 93.71875 C 79.339844 93.695312 79.382812 93.671875 79.410156 93.65625 C 79.394531 93.59375 79.335938 93.460938 79.277344 93.324219 C 79.230469 93.21875 79.175781 93.085938 79.109375 92.929688 C 79.066406 92.832031 79.070312 92.730469 79.113281 92.640625 C 79.21875 92.425781 79.515625 92.34375 79.859375 92.246094 C 80.027344 92.199219 80.339844 92.113281 80.394531 92.039062 C 80.441406 91.085938 80.988281 90.96875 81.15625 90.957031 C 81.746094 90.910156 82.535156 91.597656 82.78125 92.78125 C 82.851562 93.132812 83.15625 93.417969 83.4375 93.660156 L 83.5 93.714844 C 83.605469 93.804688 83.664062 93.945312 83.648438 94.089844 C 83.632812 94.230469 83.546875 94.355469 83.421875 94.421875 L 83.222656 94.527344 C 83.339844 95.757812 82.960938 96.589844 82.175781 96.820312 C 82.054688 96.855469 81.925781 96.871094 81.789062 96.875 L 81.792969 97.007812 C 81.8125 97.632812 82.195312 98.203125 82.769531 98.460938 L 83.136719 98.625 C 83.199219 98.65625 83.242188 98.714844 83.25 98.785156 C 83.257812 98.855469 83.226562 98.925781 83.167969 98.964844 C 82.164062 99.675781 81.15625 99.90625 80.277344 99.90625 " fill-opacity="1" fill-rule="nonzero"/><path fill="#000000" d="M 81.59375 96.871094 C 81.582031 96.871094 81.570312 96.871094 81.5625 96.867188 C 80.414062 96.691406 79.894531 95.8125 79.875 95.773438 C 79.820312 95.679688 79.851562 95.5625 79.945312 95.507812 C 80.042969 95.453125 80.160156 95.484375 80.214844 95.578125 C 80.222656 95.589844 80.667969 96.332031 81.621094 96.480469 C 81.730469 96.496094 81.800781 96.597656 81.785156 96.703125 C 81.769531 96.800781 81.6875 96.871094 81.59375 96.871094 " fill-opacity="1" fill-rule="nonzero"/></svg>