<svg xmlns="http://www.w3.org/2000/svg" xmlns:xlink="http://www.w3.org/1999/xlink" width="300" zoomAndPan="magnify" viewBox="0 0 224.87999 225" height="300" preserveAspectRatio="xMidYMid meet" version="1.0"><path fill="#14697d" d="M 79.996094 84.484375 C 92.191406 72.222656 88.699219 64.535156 97.042969 58.859375 C 109.882812 50.121094 133.84375 57.636719 147.980469 69.65625 C 165.296875 84.371094 174.226562 111.242188 164.050781 135.550781 C 153.214844 161.441406 124.699219 174.878906 99.253906 170.832031 C 76.535156 167.214844 54.199219 149.324219 51.960938 127.863281 C 51.71875 125.539062 50.648438 112.964844 58.15625 102.125 C 64.367188 93.164062 70.328125 94.203125 79.996094 84.484375 " fill-opacity="1" fill-rule="nonzero"/><path fill="#ffbf23" d="M 156.628906 151.546875 C 153.582031 151.851562 150.867188 149.640625 150.5625 146.609375 C 150.253906 143.578125 152.472656 140.871094 155.515625 140.566406 C 158.5625 140.261719 161.277344 142.46875 161.582031 145.5 C 161.890625 148.535156 159.671875 151.238281 156.628906 151.546875 Z M 167.253906 146.007812 L 167.039062 143.875 L 164.707031 143.59375 C 164.566406 143.109375 164.390625 142.640625 164.179688 142.195312 L 165.734375 140.445312 L 164.476562 138.707031 L 162.3125 139.621094 C 161.953125 139.277344 161.566406 138.960938 161.15625 138.679688 L 161.625 136.386719 L 159.664062 135.503906 L 158.25 137.375 C 157.769531 137.253906 157.277344 137.175781 156.773438 137.136719 L 156.027344 134.917969 L 153.886719 135.132812 L 153.601562 137.457031 C 153.117188 137.59375 152.644531 137.769531 152.199219 137.980469 L 150.441406 136.433594 L 148.695312 137.683594 L 149.617188 139.839844 C 149.269531 140.199219 148.953125 140.585938 148.667969 140.996094 L 146.367188 140.527344 L 145.484375 142.480469 L 147.359375 143.886719 C 147.238281 144.367188 147.160156 144.859375 147.117188 145.359375 L 144.890625 146.101562 L 145.105469 148.234375 L 147.4375 148.519531 C 147.578125 149.003906 147.753906 149.472656 147.96875 149.917969 L 146.410156 151.667969 L 147.667969 153.40625 L 149.832031 152.488281 C 150.191406 152.835938 150.578125 153.148438 150.992188 153.433594 L 150.519531 155.726562 L 152.480469 156.605469 L 153.894531 154.738281 C 154.375 154.859375 154.871094 154.9375 155.375 154.976562 L 156.117188 157.195312 L 158.257812 156.980469 L 158.542969 154.65625 C 159.03125 154.519531 159.5 154.34375 159.945312 154.128906 L 161.703125 155.679688 L 163.449219 154.425781 L 162.527344 152.273438 C 162.875 151.914062 163.191406 151.527344 163.476562 151.117188 L 165.777344 151.585938 L 166.664062 149.628906 L 164.789062 148.226562 C 164.90625 147.746094 164.988281 147.253906 165.027344 146.75 L 167.253906 146.007812 " fill-opacity="1" fill-rule="nonzero"/><path fill="#ffbf23" d="M 130.386719 147.183594 C 126.585938 148.222656 122.65625 145.992188 121.617188 142.199219 C 120.574219 138.410156 122.8125 134.5 126.617188 133.460938 C 130.421875 132.421875 134.347656 134.652344 135.390625 138.441406 C 136.433594 142.234375 134.191406 146.144531 130.386719 147.183594 Z M 142.710938 137.878906 L 141.976562 135.214844 L 138.949219 135.351562 C 138.671875 134.765625 138.34375 134.207031 137.976562 133.6875 L 139.578125 131.128906 L 137.609375 129.1875 L 135.054688 130.8125 C 134.523438 130.449219 133.960938 130.132812 133.378906 129.863281 L 133.484375 126.84375 L 130.800781 126.144531 L 129.40625 128.820312 C 128.769531 128.769531 128.125 128.773438 127.476562 128.832031 L 126.050781 126.167969 L 123.375 126.898438 L 123.515625 129.914062 C 122.925781 130.195312 122.367188 130.515625 121.84375 130.882812 L 119.277344 129.285156 L 117.324219 131.25 L 118.957031 133.792969 C 118.59375 134.324219 118.273438 134.882812 118.003906 135.464844 L 114.972656 135.363281 L 114.273438 138.035156 L 116.957031 139.421875 C 116.90625 140.054688 116.914062 140.699219 116.972656 141.347656 L 114.296875 142.765625 L 115.03125 145.429688 L 118.054688 145.292969 C 118.335938 145.878906 118.660156 146.4375 119.027344 146.957031 L 117.425781 149.515625 L 119.398438 151.457031 L 121.953125 149.832031 C 122.480469 150.195312 123.042969 150.511719 123.628906 150.78125 L 123.523438 153.800781 L 126.207031 154.5 L 127.597656 151.824219 C 128.234375 151.875 128.882812 151.867188 129.53125 151.808594 L 130.953125 154.472656 L 133.628906 153.746094 L 133.492188 150.730469 C 134.082031 150.449219 134.640625 150.128906 135.164062 149.761719 L 137.730469 151.359375 L 139.679688 149.394531 L 138.046875 146.851562 C 138.414062 146.320312 138.730469 145.761719 139.003906 145.179688 L 142.03125 145.28125 L 142.734375 142.609375 L 140.050781 141.222656 C 140.097656 140.589844 140.09375 139.945312 140.035156 139.296875 L 142.710938 137.878906 " fill-opacity="1" fill-rule="nonzero"/><path fill="#a6201e" d="M 73.410156 163.484375 L 123.796875 163.484375 C 125.964844 163.484375 127.503906 161.738281 127.230469 159.582031 L 114.824219 62.007812 C 114.550781 59.855469 112.566406 58.109375 110.394531 58.109375 L 62.539062 57.550781 C 57.046875 57.550781 56.300781 59.855469 56.574219 62.007812 L 68.980469 159.582031 C 69.253906 161.738281 71.238281 163.484375 73.410156 163.484375 " fill-opacity="1" fill-rule="nonzero"/><path fill="#ffffff" d="M 76.441406 163.484375 L 126.828125 163.484375 C 128.996094 163.484375 130.535156 161.734375 130.261719 159.570312 L 117.855469 61.6875 C 117.582031 59.523438 115.597656 57.773438 113.425781 57.773438 L 63.042969 57.773438 C 60.871094 57.773438 59.332031 59.523438 59.605469 61.6875 L 72.011719 159.570312 C 72.285156 161.734375 74.269531 163.484375 76.441406 163.484375 " fill-opacity="1" fill-rule="nonzero"/><path fill="#000000" d="M 64.785156 104.648438 C 64.679688 104.648438 64.589844 104.566406 64.578125 104.460938 L 59.398438 61.710938 C 59.257812 60.605469 59.558594 59.558594 60.253906 58.773438 C 60.941406 57.992188 61.933594 57.5625 63.042969 57.5625 L 68.890625 57.5625 C 69.003906 57.5625 69.101562 57.65625 69.101562 57.773438 C 69.101562 57.886719 69.003906 57.984375 68.890625 57.984375 L 63.042969 57.984375 C 62.054688 57.984375 61.175781 58.363281 60.570312 59.054688 C 59.957031 59.746094 59.691406 60.671875 59.816406 61.660156 L 64.996094 104.410156 C 65.011719 104.527344 64.929688 104.632812 64.8125 104.644531 C 64.804688 104.644531 64.792969 104.648438 64.785156 104.648438 " fill-opacity="1" fill-rule="nonzero"/><path fill="#000000" d="M 105.667969 58.054688 C 105.664062 58.054688 105.664062 58.054688 105.664062 58.054688 L 72.476562 57.984375 C 72.359375 57.984375 72.261719 57.886719 72.265625 57.773438 C 72.265625 57.65625 72.359375 57.5625 72.476562 57.5625 L 105.667969 57.632812 C 105.78125 57.632812 105.878906 57.730469 105.878906 57.84375 C 105.878906 57.960938 105.78125 58.054688 105.667969 58.054688 " fill-opacity="1" fill-rule="nonzero"/><path fill="#000000" d="M 126.828125 163.695312 L 110.910156 163.695312 C 110.796875 163.695312 110.699219 163.601562 110.699219 163.484375 C 110.699219 163.367188 110.796875 163.273438 110.910156 163.273438 L 126.828125 163.273438 C 127.8125 163.273438 128.691406 162.894531 129.296875 162.203125 C 129.910156 161.507812 130.175781 160.582031 130.050781 159.597656 L 129.011719 151.378906 C 128.996094 151.261719 129.078125 151.15625 129.191406 151.140625 C 129.308594 151.128906 129.414062 151.207031 129.429688 151.324219 L 130.472656 159.542969 C 130.613281 160.652344 130.308594 161.695312 129.617188 162.480469 C 128.925781 163.265625 127.933594 163.695312 126.828125 163.695312 " fill-opacity="1" fill-rule="nonzero"/><path fill="#000000" d="M 107.492188 163.695312 L 90.164062 163.695312 C 90.046875 163.695312 89.953125 163.601562 89.953125 163.484375 C 89.953125 163.367188 90.046875 163.273438 90.164062 163.273438 L 107.492188 163.273438 C 107.609375 163.273438 107.703125 163.367188 107.703125 163.484375 C 107.703125 163.601562 107.609375 163.695312 107.492188 163.695312 " fill-opacity="1" fill-rule="nonzero"/><path fill="#000000" d="M 81.546875 163.695312 L 76.441406 163.695312 C 74.167969 163.695312 72.089844 161.855469 71.804688 159.597656 L 69.90625 144.617188 C 69.890625 144.503906 69.972656 144.398438 70.085938 144.382812 C 70.203125 144.371094 70.308594 144.449219 70.324219 144.566406 L 72.222656 159.542969 C 72.484375 161.601562 74.375 163.273438 76.441406 163.273438 L 81.546875 163.273438 C 81.664062 163.273438 81.757812 163.367188 81.757812 163.484375 C 81.757812 163.601562 81.664062 163.695312 81.546875 163.695312 " fill-opacity="1" fill-rule="nonzero"/><path fill="#ffbf23" d="M 127.390625 159.707031 L 115.542969 66.242188 C 115.480469 65.742188 115.023438 65.339844 114.523438 65.339844 L 63.863281 65.339844 C 63.363281 65.339844 63.007812 65.742188 63.070312 66.242188 L 74.917969 159.707031 C 74.980469 160.203125 75.4375 160.609375 75.941406 160.609375 L 126.597656 160.609375 C 127.097656 160.609375 127.453125 160.203125 127.390625 159.707031 " fill-opacity="1" fill-rule="nonzero"/><path fill="#14697d" d="M 88.867188 62.75 C 89.679688 62.75 90.253906 62.09375 90.152344 61.285156 C 90.050781 60.476562 89.308594 59.816406 88.492188 59.816406 C 87.679688 59.816406 87.105469 60.476562 87.207031 61.285156 C 87.308594 62.09375 88.050781 62.75 88.867188 62.75 " fill-opacity="1" fill-rule="nonzero"/><path fill="#ffffff" d="M 121.707031 94.511719 L 118.664062 94.511719 L 118.664062 84.734375 L 121.707031 84.734375 C 122.808594 84.734375 123.703125 85.628906 123.703125 86.730469 L 123.703125 92.515625 C 123.703125 93.617188 122.808594 94.511719 121.707031 94.511719 " fill-opacity="1" fill-rule="nonzero"/><path fill="#000000" d="M 118.875 94.300781 L 121.710938 94.300781 C 122.691406 94.300781 123.492188 93.5 123.492188 92.515625 L 123.492188 86.726562 C 123.492188 85.746094 122.691406 84.945312 121.710938 84.945312 L 118.875 84.945312 Z M 121.710938 94.71875 L 118.664062 94.71875 C 118.546875 94.71875 118.453125 94.625 118.453125 94.507812 L 118.453125 84.734375 C 118.453125 84.617188 118.546875 84.523438 118.664062 84.523438 L 121.710938 84.523438 C 122.925781 84.523438 123.914062 85.511719 123.914062 86.726562 L 123.914062 92.515625 C 123.914062 93.730469 122.925781 94.71875 121.710938 94.71875 " fill-opacity="1" fill-rule="nonzero"/><path fill="#ffffff" d="M 71.285156 94.511719 L 74.328125 94.511719 L 74.328125 84.734375 L 71.285156 84.734375 C 70.183594 84.734375 69.289062 85.628906 69.289062 86.730469 L 69.289062 92.515625 C 69.289062 93.617188 70.183594 94.511719 71.285156 94.511719 " fill-opacity="1" fill-rule="nonzero"/><path fill="#000000" d="M 71.285156 84.945312 C 70.300781 84.945312 69.5 85.746094 69.5 86.726562 L 69.5 92.515625 C 69.5 93.5 70.300781 94.300781 71.285156 94.300781 L 74.117188 94.300781 L 74.117188 84.945312 Z M 74.328125 94.71875 L 71.285156 94.71875 C 70.070312 94.71875 69.078125 93.730469 69.078125 92.515625 L 69.078125 86.726562 C 69.078125 85.511719 70.070312 84.523438 71.285156 84.523438 L 74.328125 84.523438 C 74.445312 84.523438 74.539062 84.617188 74.539062 84.734375 L 74.539062 94.507812 C 74.539062 94.625 74.445312 94.71875 74.328125 94.71875 " fill-opacity="1" fill-rule="nonzero"/><path fill="#ffffff" d="M 72.742188 89.21875 C 72.742188 78.714844 83.375 67.847656 96.496094 67.847656 C 109.617188 67.847656 120.25 78.714844 120.25 89.21875 C 120.25 99.722656 109.617188 105.886719 96.496094 105.886719 C 83.375 105.886719 72.742188 99.722656 72.742188 89.21875 " fill-opacity="1" fill-rule="nonzero"/><path fill="#000000" d="M 96.496094 68.058594 C 83.019531 68.058594 72.953125 79.230469 72.953125 89.21875 C 72.953125 94.152344 75.324219 98.335938 79.816406 101.316406 C 84.050781 104.128906 89.976562 105.675781 96.496094 105.675781 C 103.019531 105.675781 108.941406 104.128906 113.175781 101.316406 C 117.667969 98.335938 120.039062 94.152344 120.039062 89.21875 C 120.039062 79.230469 109.972656 68.058594 96.496094 68.058594 Z M 96.496094 106.097656 C 89.894531 106.097656 83.886719 104.523438 79.582031 101.667969 C 74.96875 98.605469 72.53125 94.300781 72.53125 89.21875 C 72.53125 84.011719 75.089844 78.625 79.554688 74.441406 C 84.234375 70.054688 90.25 67.636719 96.496094 67.636719 C 102.742188 67.636719 108.757812 70.054688 113.4375 74.441406 C 117.902344 78.625 120.460938 84.011719 120.460938 89.21875 C 120.460938 94.300781 118.023438 98.605469 113.410156 101.667969 C 109.105469 104.523438 103.101562 106.097656 96.496094 106.097656 " fill-opacity="1" fill-rule="nonzero"/><path fill="#ffffff" d="M 102.445312 109.042969 L 90.546875 109.042969 C 85.332031 109.042969 81.101562 113.253906 81.101562 118.445312 C 81.101562 121.875 81.4375 125.296875 82.105469 128.664062 L 83.816406 137.289062 C 85.011719 143.320312 90.324219 147.664062 96.496094 147.664062 C 102.667969 147.664062 107.980469 143.320312 109.175781 137.289062 L 110.886719 128.664062 C 111.554688 125.296875 111.890625 121.875 111.890625 118.445312 C 111.890625 113.253906 107.664062 109.042969 102.445312 109.042969 " fill-opacity="1" fill-rule="nonzero"/><path fill="#000000" d="M 90.546875 109.253906 C 85.457031 109.253906 81.3125 113.378906 81.3125 118.445312 C 81.3125 121.855469 81.648438 125.277344 82.3125 128.621094 L 84.023438 137.25 C 85.195312 143.160156 90.441406 147.453125 96.496094 147.453125 C 102.550781 147.453125 107.796875 143.160156 108.96875 137.25 L 110.679688 128.621094 C 111.34375 125.277344 111.679688 121.855469 111.679688 118.445312 C 111.679688 113.378906 107.539062 109.253906 102.445312 109.253906 Z M 96.496094 147.875 C 90.242188 147.875 84.820312 143.441406 83.609375 137.332031 L 81.898438 128.703125 C 81.230469 125.332031 80.890625 121.882812 80.890625 118.445312 C 80.890625 113.144531 85.222656 108.832031 90.546875 108.832031 L 102.445312 108.832031 C 107.769531 108.832031 112.101562 113.144531 112.101562 118.445312 C 112.101562 121.882812 111.761719 125.332031 111.09375 128.703125 L 109.382812 137.332031 C 108.171875 143.441406 102.75 147.875 96.496094 147.875 " fill-opacity="1" fill-rule="nonzero"/><path fill="#ffbf23" d="M 100.34375 127.636719 L 92.648438 127.636719 C 91.195312 127.636719 90.019531 126.457031 90.019531 125.007812 L 90.019531 109.042969 L 102.972656 109.042969 L 102.972656 125.007812 C 102.972656 126.457031 101.796875 127.636719 100.34375 127.636719 " fill-opacity="1" fill-rule="nonzero"/><path fill="#000000" d="M 102.972656 109.253906 L 90.019531 109.253906 C 89.902344 109.253906 89.808594 109.160156 89.808594 109.042969 C 89.808594 108.925781 89.902344 108.832031 90.019531 108.832031 L 102.972656 108.832031 C 103.089844 108.832031 103.183594 108.925781 103.183594 109.042969 C 103.183594 109.160156 103.089844 109.253906 102.972656 109.253906 " fill-opacity="1" fill-rule="nonzero"/><path fill="#000000" d="M 112.46875 86.066406 L 89.589844 86.066406 C 87.214844 86.066406 85.289062 88.132812 85.289062 90.683594 L 85.289062 93.695312 C 85.289062 95.636719 86.332031 97.699219 88.128906 98.035156 C 94.46875 99.21875 107.589844 99.21875 113.929688 98.035156 C 115.726562 97.699219 116.769531 95.636719 116.769531 93.695312 L 116.769531 90.683594 C 116.769531 88.132812 114.84375 86.066406 112.46875 86.066406 " fill-opacity="1" fill-rule="nonzero"/><path fill="#a6201e" d="M 95.652344 92.125 C 95.652344 92.980469 95.007812 93.671875 94.210938 93.671875 C 93.417969 93.671875 92.769531 92.980469 92.769531 92.125 C 92.769531 91.273438 93.417969 90.578125 94.210938 90.578125 C 95.007812 90.578125 95.652344 91.273438 95.652344 92.125 " fill-opacity="1" fill-rule="nonzero"/><path fill="#a6201e" d="M 110.992188 92.125 C 110.992188 92.980469 110.347656 93.671875 109.550781 93.671875 C 108.753906 93.671875 108.109375 92.980469 108.109375 92.125 C 108.109375 91.273438 108.753906 90.578125 109.550781 90.578125 C 110.347656 90.578125 110.992188 91.273438 110.992188 92.125 " fill-opacity="1" fill-rule="nonzero"/><path fill="#000000" d="M 152.226562 117.34375 C 151.800781 117.34375 151.398438 117.082031 151.242188 116.660156 C 151.035156 116.113281 151.3125 115.503906 151.855469 115.300781 C 153.976562 114.503906 155.136719 113.183594 154.886719 111.851562 C 154.53125 109.941406 151.449219 107.914062 145.535156 107.914062 C 145.433594 107.914062 145.328125 107.917969 145.226562 107.917969 C 145.21875 107.917969 145.214844 107.917969 145.210938 107.917969 C 144.636719 107.917969 144.164062 107.453125 144.15625 106.875 C 144.148438 106.292969 144.617188 105.8125 145.199219 105.808594 C 148.445312 105.769531 151.269531 106.304688 153.363281 107.351562 C 155.375 108.363281 156.65625 109.820312 156.960938 111.460938 C 157.414062 113.867188 155.742188 116.09375 152.597656 117.277344 C 152.476562 117.320312 152.351562 117.34375 152.226562 117.34375 " fill-opacity="1" fill-rule="nonzero"/><path fill="#a6201e" d="M 133.664062 114.847656 L 119.003906 114.847656 C 116.597656 114.847656 114.59375 112.953125 114.53125 110.558594 C 114.527344 110.507812 114.527344 110.457031 114.527344 110.410156 C 114.527344 107.316406 116.996094 104.796875 120.074219 104.691406 C 121.621094 98.027344 127.617188 93.058594 134.78125 93.058594 C 142.199219 93.058594 148.367188 98.382812 149.636719 105.402344 C 153.332031 105.523438 155.726562 108.03125 155.523438 111.082031 C 155.363281 113.539062 153.269531 114.847656 151.28125 114.847656 L 133.664062 114.847656 " fill-opacity="1" fill-rule="nonzero"/><path fill="#000000" d="M 151.28125 115.054688 L 144.375 115.054688 C 144.261719 115.054688 144.167969 114.960938 144.167969 114.847656 C 144.167969 114.730469 144.261719 114.632812 144.375 114.632812 L 151.28125 114.632812 C 153.167969 114.632812 155.160156 113.410156 155.3125 111.066406 C 155.402344 109.734375 154.964844 108.464844 154.082031 107.492188 C 153.039062 106.339844 151.457031 105.671875 149.628906 105.613281 C 149.527344 105.609375 149.445312 105.535156 149.425781 105.4375 C 148.152344 98.386719 141.992188 93.269531 134.78125 93.269531 C 127.808594 93.269531 121.847656 97.984375 120.28125 104.738281 C 120.257812 104.832031 120.179688 104.898438 120.082031 104.902344 C 117.085938 105.003906 114.738281 107.425781 114.738281 110.410156 C 114.738281 110.457031 114.742188 110.503906 114.742188 110.550781 C 114.800781 112.804688 116.710938 114.632812 119.003906 114.632812 L 133.664062 114.632812 C 133.78125 114.632812 133.875 114.730469 133.875 114.847656 C 133.875 114.960938 133.78125 115.054688 133.664062 115.054688 L 119.003906 115.054688 C 116.484375 115.054688 114.382812 113.042969 114.320312 110.5625 C 114.316406 110.511719 114.316406 110.460938 114.316406 110.410156 C 114.316406 107.25 116.757812 104.675781 119.90625 104.488281 C 120.695312 101.25 122.566406 98.3125 125.1875 96.210938 C 127.894531 94.039062 131.300781 92.84375 134.78125 92.84375 C 142.140625 92.84375 148.433594 98.03125 149.8125 105.199219 C 151.683594 105.296875 153.308594 106.007812 154.394531 107.207031 C 155.355469 108.265625 155.828125 109.648438 155.734375 111.09375 C 155.5625 113.695312 153.363281 115.054688 151.28125 115.054688 " fill-opacity="1" fill-rule="nonzero"/><path fill="#ffffff" d="M 145.210938 109.496094 L 139.511719 103.328125 C 139.355469 103.160156 139.089844 103.160156 138.933594 103.328125 L 133.265625 109.496094 C 133.035156 109.746094 133.214844 110.148438 133.554688 110.148438 L 135.640625 110.148438 C 135.859375 110.148438 136.035156 110.324219 136.035156 110.539062 L 136.035156 120.261719 C 136.035156 121.097656 136.710938 121.773438 137.550781 121.773438 L 140.894531 121.773438 C 141.734375 121.773438 142.414062 121.097656 142.414062 120.261719 L 142.414062 110.539062 C 142.414062 110.324219 142.589844 110.148438 142.804688 110.148438 L 144.925781 110.148438 C 145.265625 110.148438 145.445312 109.746094 145.210938 109.496094 " fill-opacity="1" fill-rule="nonzero"/><path fill="#000000" d="M 139.222656 103.414062 C 139.171875 103.414062 139.125 103.433594 139.089844 103.472656 L 133.421875 109.640625 C 133.351562 109.714844 133.375 109.800781 133.390625 109.832031 C 133.402344 109.855469 133.445312 109.9375 133.554688 109.9375 L 135.640625 109.9375 C 135.972656 109.9375 136.246094 110.207031 136.246094 110.539062 L 136.246094 120.261719 C 136.246094 120.980469 136.832031 121.5625 137.550781 121.5625 L 140.894531 121.5625 C 141.617188 121.5625 142.203125 120.980469 142.203125 120.261719 L 142.203125 110.539062 C 142.203125 110.207031 142.472656 109.9375 142.804688 109.9375 L 144.925781 109.9375 C 145.035156 109.9375 145.078125 109.855469 145.089844 109.832031 C 145.101562 109.804688 145.128906 109.71875 145.058594 109.640625 L 139.355469 103.472656 C 139.324219 103.433594 139.273438 103.414062 139.222656 103.414062 Z M 140.894531 121.984375 L 137.550781 121.984375 C 136.597656 121.984375 135.820312 121.210938 135.820312 120.261719 L 135.820312 110.539062 C 135.820312 110.441406 135.742188 110.359375 135.640625 110.359375 L 133.554688 110.359375 C 133.3125 110.359375 133.101562 110.222656 133.003906 110 C 132.90625 109.777344 132.949219 109.53125 133.113281 109.351562 L 138.777344 103.1875 C 138.894531 103.0625 139.054688 102.992188 139.222656 102.992188 C 139.390625 102.992188 139.554688 103.0625 139.667969 103.183594 L 145.367188 109.351562 C 145.53125 109.53125 145.574219 109.777344 145.476562 110 C 145.378906 110.222656 145.167969 110.359375 144.925781 110.359375 L 142.804688 110.359375 C 142.703125 110.359375 142.625 110.441406 142.625 110.539062 L 142.625 120.261719 C 142.625 121.210938 141.847656 121.984375 140.894531 121.984375 " fill-opacity="1" fill-rule="nonzero"/><path fill="#000000" d="M 81.488281 124.164062 C 80.824219 124.164062 80.15625 124.152344 79.480469 124.136719 C 74.289062 124.003906 71.960938 120.75 71.992188 117.78125 C 72.027344 114.589844 74.671875 111.351562 79.65625 111.332031 C 79.65625 111.332031 79.65625 111.332031 79.660156 111.332031 C 80.238281 111.332031 80.710938 111.800781 80.714844 112.382812 C 80.714844 112.964844 80.246094 113.4375 79.664062 113.441406 C 76.042969 113.457031 74.128906 115.648438 74.105469 117.804688 C 74.082031 119.835938 75.753906 121.929688 79.535156 122.027344 C 80.191406 122.042969 80.84375 122.050781 81.488281 122.050781 C 94.242188 122.050781 104.714844 118.84375 111.382812 116.070312 C 118.984375 112.910156 123.414062 109.625 123.457031 109.589844 C 123.921875 109.242188 124.585938 109.335938 124.933594 109.800781 C 125.285156 110.269531 125.1875 110.929688 124.722656 111.277344 C 124.539062 111.417969 120.085938 114.730469 112.261719 117.992188 C 105.402344 120.851562 94.621094 124.164062 81.488281 124.164062 " fill-opacity="1" fill-rule="nonzero"/><path fill="#000000" d="M 161.035156 118.398438 C 160.917969 118.398438 160.824219 118.304688 160.824219 118.1875 L 160.824219 117.097656 C 160.824219 116.980469 160.917969 116.886719 161.035156 116.886719 C 161.148438 116.886719 161.246094 116.980469 161.246094 117.097656 L 161.246094 118.1875 C 161.246094 118.304688 161.148438 118.398438 161.035156 118.398438 " fill-opacity="1" fill-rule="nonzero"/><path fill="#000000" d="M 161.035156 120.933594 C 160.917969 120.933594 160.824219 120.839844 160.824219 120.722656 L 160.824219 119.632812 C 160.824219 119.519531 160.917969 119.421875 161.035156 119.421875 C 161.148438 119.421875 161.246094 119.519531 161.246094 119.632812 L 161.246094 120.722656 C 161.246094 120.839844 161.148438 120.933594 161.035156 120.933594 " fill-opacity="1" fill-rule="nonzero"/><path fill="#000000" d="M 160.308594 119.121094 L 159.214844 119.121094 C 159.097656 119.121094 159.003906 119.027344 159.003906 118.910156 C 159.003906 118.792969 159.097656 118.699219 159.214844 118.699219 L 160.308594 118.699219 C 160.421875 118.699219 160.519531 118.792969 160.519531 118.910156 C 160.519531 119.027344 160.421875 119.121094 160.308594 119.121094 " fill-opacity="1" fill-rule="nonzero"/><path fill="#000000" d="M 162.855469 119.121094 L 161.761719 119.121094 C 161.644531 119.121094 161.550781 119.027344 161.550781 118.910156 C 161.550781 118.792969 161.644531 118.699219 161.761719 118.699219 L 162.855469 118.699219 C 162.96875 118.699219 163.066406 118.792969 163.066406 118.910156 C 163.066406 119.027344 162.96875 119.121094 162.855469 119.121094 " fill-opacity="1" fill-rule="nonzero"/><path fill="#000000" d="M 155.65625 122.945312 C 155.539062 122.945312 155.445312 122.851562 155.445312 122.734375 L 155.445312 121.648438 C 155.445312 121.53125 155.539062 121.4375 155.65625 121.4375 C 155.773438 121.4375 155.867188 121.53125 155.867188 121.648438 L 155.867188 122.734375 C 155.867188 122.851562 155.773438 122.945312 155.65625 122.945312 " fill-opacity="1" fill-rule="nonzero"/><path fill="#000000" d="M 155.65625 125.484375 C 155.539062 125.484375 155.445312 125.386719 155.445312 125.269531 L 155.445312 124.183594 C 155.445312 124.066406 155.539062 123.972656 155.65625 123.972656 C 155.773438 123.972656 155.867188 124.066406 155.867188 124.183594 L 155.867188 125.269531 C 155.867188 125.386719 155.773438 125.484375 155.65625 125.484375 " fill-opacity="1" fill-rule="nonzero"/><path fill="#000000" d="M 154.925781 123.671875 L 153.835938 123.671875 C 153.71875 123.671875 153.625 123.574219 153.625 123.457031 C 153.625 123.34375 153.71875 123.25 153.835938 123.25 L 154.925781 123.25 C 155.042969 123.25 155.140625 123.34375 155.140625 123.457031 C 155.140625 123.574219 155.042969 123.671875 154.925781 123.671875 " fill-opacity="1" fill-rule="nonzero"/><path fill="#000000" d="M 157.476562 123.671875 L 156.382812 123.671875 C 156.265625 123.671875 156.171875 123.574219 156.171875 123.460938 C 156.171875 123.34375 156.265625 123.25 156.382812 123.25 L 157.476562 123.25 C 157.589844 123.25 157.6875 123.34375 157.6875 123.460938 C 157.6875 123.574219 157.589844 123.671875 157.476562 123.671875 " fill-opacity="1" fill-rule="nonzero"/><path fill="#000000" d="M 144.054688 78.566406 C 143.992188 78.566406 143.933594 78.539062 143.890625 78.488281 C 140.027344 73.585938 134.710938 70.121094 128.085938 68.179688 C 127.972656 68.144531 127.910156 68.03125 127.941406 67.917969 C 127.976562 67.804688 128.09375 67.742188 128.203125 67.773438 C 134.917969 69.738281 140.304688 73.257812 144.222656 78.226562 C 144.292969 78.316406 144.277344 78.449219 144.1875 78.523438 C 144.148438 78.554688 144.101562 78.566406 144.054688 78.566406 " fill-opacity="1" fill-rule="nonzero"/><path fill="#000000" d="M 148.792969 86.074219 C 148.707031 86.074219 148.628906 86.023438 148.59375 85.9375 C 148.585938 85.910156 147.648438 83.375 145.191406 80.316406 C 145.117188 80.226562 145.132812 80.09375 145.222656 80.019531 C 145.3125 79.949219 145.445312 79.964844 145.519531 80.054688 C 148.023438 83.167969 148.953125 85.6875 148.992188 85.792969 C 149.03125 85.902344 148.976562 86.023438 148.867188 86.0625 C 148.84375 86.070312 148.816406 86.074219 148.792969 86.074219 " fill-opacity="1" fill-rule="nonzero"/><path fill="#000000" d="M 146.34375 77.9375 C 146.273438 77.9375 146.203125 77.902344 146.164062 77.839844 C 146.148438 77.8125 144.554688 75.273438 141.371094 72.460938 C 138.441406 69.871094 133.519531 66.511719 126.730469 65.230469 C 126.617188 65.207031 126.542969 65.097656 126.5625 64.984375 C 126.585938 64.867188 126.695312 64.792969 126.808594 64.816406 C 133.699219 66.117188 138.691406 69.523438 141.664062 72.15625 C 144.886719 75.007812 146.507812 77.589844 146.523438 77.617188 C 146.585938 77.714844 146.554688 77.84375 146.453125 77.90625 C 146.421875 77.925781 146.382812 77.9375 146.34375 77.9375 " fill-opacity="1" fill-rule="nonzero"/><path fill="#000000" d="M 58.253906 132.433594 C 58.167969 132.433594 58.085938 132.378906 58.054688 132.289062 C 56.039062 126.300781 56.046875 119.882812 58.085938 113.222656 C 58.121094 113.113281 58.238281 113.050781 58.351562 113.082031 C 58.464844 113.117188 58.527344 113.234375 58.492188 113.347656 C 56.476562 119.921875 56.464844 126.25 58.457031 132.152344 C 58.492188 132.265625 58.433594 132.386719 58.324219 132.421875 C 58.300781 132.429688 58.277344 132.433594 58.253906 132.433594 " fill-opacity="1" fill-rule="nonzero"/><path fill="#000000" d="M 56.46875 133.988281 C 56.390625 133.988281 56.3125 133.945312 56.277344 133.867188 C 56.265625 133.839844 54.988281 131.074219 54.367188 126.824219 C 53.792969 122.90625 53.675781 116.882812 56.371094 110.4375 C 56.417969 110.328125 56.539062 110.277344 56.648438 110.324219 C 56.753906 110.367188 56.804688 110.492188 56.761719 110.597656 C 54.105469 116.957031 54.21875 122.898438 54.785156 126.765625 C 55.394531 130.953125 56.648438 133.660156 56.660156 133.6875 C 56.710938 133.792969 56.664062 133.921875 56.558594 133.96875 C 56.53125 133.984375 56.5 133.988281 56.46875 133.988281 " fill-opacity="1" fill-rule="nonzero"/><path fill="#000000" d="M 60.222656 138.023438 C 60.171875 138.023438 60.117188 138.003906 60.078125 137.964844 C 59.992188 137.882812 59.988281 137.75 60.070312 137.667969 L 60.589844 137.128906 C 60.671875 137.042969 60.804688 137.042969 60.886719 137.121094 C 60.972656 137.203125 60.972656 137.335938 60.894531 137.421875 L 60.375 137.960938 C 60.332031 138.003906 60.277344 138.023438 60.222656 138.023438 " fill-opacity="1" fill-rule="nonzero"/><path fill="#000000" d="M 58.40625 139.910156 C 58.355469 139.910156 58.300781 139.890625 58.261719 139.851562 C 58.175781 139.769531 58.175781 139.636719 58.253906 139.554688 L 58.773438 139.015625 C 58.855469 138.929688 58.988281 138.929688 59.074219 139.007812 C 59.15625 139.089844 59.160156 139.222656 59.078125 139.308594 L 58.558594 139.847656 C 58.519531 139.890625 58.460938 139.910156 58.40625 139.910156 " fill-opacity="1" fill-rule="nonzero"/><path fill="#000000" d="M 58.917969 138.054688 C 58.863281 138.054688 58.808594 138.035156 58.769531 137.992188 L 58.242188 137.476562 C 58.160156 137.394531 58.15625 137.261719 58.238281 137.179688 C 58.320312 137.097656 58.453125 137.09375 58.539062 137.175781 L 59.0625 137.691406 C 59.148438 137.773438 59.148438 137.90625 59.066406 137.988281 C 59.027344 138.03125 58.972656 138.054688 58.917969 138.054688 " fill-opacity="1" fill-rule="nonzero"/><path fill="#000000" d="M 60.757812 139.859375 C 60.707031 139.859375 60.652344 139.839844 60.609375 139.796875 L 60.085938 139.28125 C 60 139.199219 60 139.066406 60.082031 138.984375 C 60.164062 138.902344 60.296875 138.898438 60.378906 138.980469 L 60.90625 139.496094 C 60.988281 139.578125 60.992188 139.710938 60.910156 139.796875 C 60.867188 139.839844 60.8125 139.859375 60.757812 139.859375 " fill-opacity="1" fill-rule="nonzero"/><path fill="#000000" d="M 152.15625 90.738281 L 152.160156 90.738281 Z M 152.757812 90.820312 C 152.582031 90.820312 152.410156 90.855469 152.242188 90.929688 C 151.59375 91.21875 151.296875 91.992188 151.585938 92.65625 C 151.722656 92.976562 151.980469 93.222656 152.300781 93.347656 C 152.617188 93.472656 152.964844 93.460938 153.277344 93.324219 C 153.925781 93.03125 154.21875 92.261719 153.933594 91.597656 C 153.792969 91.277344 153.539062 91.03125 153.21875 90.90625 C 153.066406 90.847656 152.914062 90.820312 152.757812 90.820312 Z M 152.761719 93.855469 C 152.554688 93.855469 152.347656 93.820312 152.148438 93.742188 C 151.71875 93.574219 151.382812 93.246094 151.199219 92.824219 C 150.820312 91.949219 151.210938 90.929688 152.070312 90.542969 C 152.484375 90.359375 152.945312 90.347656 153.371094 90.511719 C 153.800781 90.679688 154.136719 91.003906 154.320312 91.429688 C 154.699219 92.300781 154.308594 93.324219 153.449219 93.710938 C 153.226562 93.808594 152.992188 93.855469 152.761719 93.855469 " fill-opacity="1" fill-rule="nonzero"/></svg>