<svg xmlns="http://www.w3.org/2000/svg" xmlns:xlink="http://www.w3.org/1999/xlink" width="300" zoomAndPan="magnify" viewBox="0 0 224.87999 225" height="300" preserveAspectRatio="xMidYMid meet" version="1.0"><path fill="#14697d" d="M 164.90625 95.589844 C 158.722656 71.289062 137.097656 53.914062 114.40625 51.792969 C 90.046875 49.511719 69.488281 65.273438 65.632812 73.207031 C 64.351562 75.839844 63.695312 78.421875 63.695312 78.421875 C 62.246094 85.480469 65.902344 91.210938 62.28125 110.3125 C 58.4375 130.617188 51.703125 137.890625 55.972656 148.238281 C 59.460938 156.703125 67.613281 160.703125 72.824219 163.261719 C 91.425781 172.390625 124.242188 175.480469 147.03125 153.769531 C 148.625 152.253906 173.164062 128.046875 164.90625 95.589844 " fill-opacity="1" fill-rule="nonzero"/><path fill="#a6201e" d="M 75.125 92.195312 L 70.117188 92.886719 C 69.5 92.96875 68.988281 93.40625 68.808594 94.003906 L 67.890625 97.035156 L 65.859375 94.304688 C 65.511719 93.839844 64.9375 93.597656 64.363281 93.679688 L 59.757812 94.3125 C 58.882812 94.433594 58.078125 93.824219 57.960938 92.949219 L 56.613281 83.167969 C 56.492188 82.292969 57.101562 81.488281 57.972656 81.367188 L 73.339844 79.25 C 74.214844 79.128906 75.019531 79.738281 75.140625 80.613281 L 76.484375 90.394531 C 76.605469 91.269531 75.996094 92.074219 75.125 92.195312 " fill-opacity="1" fill-rule="nonzero"/><path fill="#ffffff" d="M 68.777344 84.515625 C 68.386719 84.1875 67.890625 84.042969 67.378906 84.109375 C 66.996094 84.15625 66.660156 84.324219 66.382812 84.601562 C 66.242188 84.742188 66.117188 84.90625 66.015625 85.097656 C 65.871094 84.941406 65.710938 84.808594 65.539062 84.710938 C 65.199219 84.511719 64.832031 84.433594 64.449219 84.484375 C 63.9375 84.550781 63.492188 84.816406 63.199219 85.230469 C 62.90625 85.644531 62.78125 86.171875 62.851562 86.714844 C 62.925781 87.277344 63.199219 87.765625 63.71875 88.25 C 64.183594 88.683594 64.824219 89.101562 65.5625 89.585938 C 65.816406 89.75 66.105469 89.9375 66.402344 90.140625 C 66.480469 90.191406 66.578125 90.214844 66.671875 90.203125 C 66.765625 90.191406 66.851562 90.144531 66.914062 90.074219 C 67.152344 89.804688 67.382812 89.550781 67.589844 89.324219 C 68.183594 88.667969 68.695312 88.101562 69.035156 87.566406 C 69.414062 86.96875 69.558594 86.425781 69.488281 85.863281 C 69.417969 85.320312 69.164062 84.839844 68.777344 84.515625 " fill-opacity="1" fill-rule="nonzero"/><path fill="#000000" d="M 129.09375 169.363281 L 78.152344 169.363281 C 75.957031 169.363281 74.402344 167.589844 74.675781 165.402344 L 87.222656 66.304688 C 87.5 64.113281 89.503906 62.339844 91.699219 62.339844 L 140.085938 61.773438 C 145.640625 61.773438 146.394531 64.113281 146.117188 66.304688 L 133.570312 165.402344 C 133.296875 167.589844 131.289062 169.363281 129.09375 169.363281 " fill-opacity="1" fill-rule="nonzero"/><path fill="#ffffff" d="M 126.027344 169.363281 L 75.085938 169.363281 C 72.890625 169.363281 71.335938 167.582031 71.613281 165.386719 L 84.15625 65.976562 C 84.433594 63.78125 86.4375 62 88.632812 62 L 139.574219 62 C 141.769531 62 143.328125 63.78125 143.050781 65.976562 L 130.503906 165.386719 C 130.226562 167.582031 128.222656 169.363281 126.027344 169.363281 " fill-opacity="1" fill-rule="nonzero"/><path fill="#ffbf23" d="M 74.515625 165.523438 L 86.492188 70.601562 C 86.558594 70.09375 87.019531 69.683594 87.527344 69.683594 L 138.742188 69.683594 C 139.25 69.683594 139.609375 70.09375 139.546875 70.601562 L 127.570312 165.523438 C 127.503906 166.03125 127.042969 166.441406 126.535156 166.441406 L 75.316406 166.441406 C 74.808594 166.441406 74.453125 166.03125 74.515625 165.523438 " fill-opacity="1" fill-rule="nonzero"/><path fill="#14697d" d="M 113.464844 67.054688 C 112.644531 67.054688 112.0625 66.390625 112.164062 65.566406 C 112.269531 64.746094 113.019531 64.078125 113.84375 64.078125 C 114.664062 64.078125 115.246094 64.746094 115.144531 65.566406 C 115.039062 66.390625 114.289062 67.054688 113.464844 67.054688 " fill-opacity="1" fill-rule="nonzero"/><path fill="#000000" d="M 126.03125 169.578125 L 75.085938 169.578125 C 73.96875 169.578125 72.96875 169.140625 72.269531 168.351562 C 71.566406 167.550781 71.257812 166.492188 71.398438 165.363281 L 71.5625 164.082031 C 71.574219 163.964844 71.683594 163.882812 71.800781 163.898438 C 71.917969 163.910156 72 164.019531 71.984375 164.136719 L 71.824219 165.414062 C 71.699219 166.421875 71.96875 167.363281 72.59375 168.066406 C 73.207031 168.765625 74.09375 169.148438 75.085938 169.148438 L 126.03125 169.148438 C 128.117188 169.148438 130.03125 167.449219 130.292969 165.363281 L 142.839844 65.949219 C 142.964844 64.941406 142.691406 64 142.070312 63.292969 C 141.457031 62.597656 140.570312 62.214844 139.578125 62.214844 L 88.632812 62.214844 C 86.546875 62.214844 84.632812 63.914062 84.367188 66 L 79.878906 101.597656 C 79.863281 101.714844 79.753906 101.796875 79.636719 101.78125 C 79.519531 101.765625 79.4375 101.660156 79.453125 101.542969 L 83.945312 65.949219 C 84.234375 63.652344 86.335938 61.785156 88.632812 61.785156 L 139.578125 61.785156 C 140.695312 61.785156 141.695312 62.21875 142.390625 63.011719 C 143.09375 63.808594 143.40625 64.871094 143.261719 66 L 130.71875 165.414062 C 130.429688 167.710938 128.324219 169.578125 126.03125 169.578125 " fill-opacity="1" fill-rule="nonzero"/><path fill="#ffffff" d="M 131.152344 103.945312 C 132.390625 103.945312 133.253906 104.949219 133.085938 106.183594 L 131.003906 121.578125 C 130.835938 122.8125 129.699219 123.816406 128.460938 123.816406 L 92.957031 123.816406 C 91.71875 123.816406 90.855469 122.8125 91.019531 121.578125 L 93.105469 106.183594 C 93.273438 104.949219 94.410156 103.945312 95.648438 103.945312 L 131.152344 103.945312 " fill-opacity="1" fill-rule="nonzero"/><path fill="#000000" d="M 99.824219 124.027344 L 92.957031 124.027344 C 92.300781 124.027344 91.714844 123.773438 91.308594 123.308594 C 90.894531 122.835938 90.71875 122.210938 90.808594 121.550781 L 92.894531 106.15625 C 93.074219 104.820312 94.308594 103.730469 95.648438 103.730469 L 104.019531 103.730469 C 104.136719 103.730469 104.234375 103.828125 104.234375 103.945312 C 104.234375 104.0625 104.136719 104.160156 104.019531 104.160156 L 95.648438 104.160156 C 94.515625 104.160156 93.472656 105.082031 93.320312 106.210938 L 91.234375 121.605469 C 91.160156 122.144531 91.300781 122.648438 91.628906 123.027344 C 91.953125 123.394531 92.425781 123.601562 92.957031 123.601562 L 99.824219 123.601562 C 99.941406 123.601562 100.035156 123.695312 100.035156 123.816406 C 100.035156 123.933594 99.941406 124.027344 99.824219 124.027344 " fill-opacity="1" fill-rule="nonzero"/><path fill="#000000" d="M 128.460938 124.027344 L 109.757812 124.027344 C 109.636719 124.027344 109.542969 123.933594 109.542969 123.816406 C 109.542969 123.695312 109.636719 123.601562 109.757812 123.601562 L 128.460938 123.601562 C 129.59375 123.601562 130.636719 122.679688 130.789062 121.550781 L 132.875 106.15625 C 132.949219 105.617188 132.808594 105.109375 132.480469 104.734375 C 132.15625 104.363281 131.683594 104.160156 131.152344 104.160156 L 124.195312 104.160156 C 124.078125 104.160156 123.980469 104.0625 123.980469 103.945312 C 123.980469 103.828125 124.078125 103.730469 124.195312 103.730469 L 131.152344 103.730469 C 131.808594 103.730469 132.394531 103.988281 132.800781 104.453125 C 133.210938 104.921875 133.390625 105.546875 133.300781 106.210938 L 131.214844 121.605469 C 131.035156 122.941406 129.796875 124.027344 128.460938 124.027344 " fill-opacity="1" fill-rule="nonzero"/><path fill="#ffbf23" d="M 126.5625 110.480469 L 97.871094 110.746094 C 97.054688 110.753906 96.480469 110.289062 96.585938 109.710938 C 96.691406 109.128906 97.433594 108.65625 98.25 108.648438 L 126.941406 108.382812 C 127.753906 108.375 128.328125 108.839844 128.222656 109.417969 C 128.117188 109.996094 127.375 110.472656 126.5625 110.480469 " fill-opacity="1" fill-rule="nonzero"/><path fill="#14697d" d="M 119.316406 115.058594 L 96.882812 115.265625 C 96.246094 115.269531 95.796875 114.804688 95.875 114.226562 C 95.957031 113.648438 96.539062 113.171875 97.175781 113.167969 L 119.609375 112.960938 C 120.246094 112.953125 120.695312 113.417969 120.617188 113.996094 C 120.535156 114.578125 119.953125 115.050781 119.316406 115.058594 " fill-opacity="1" fill-rule="nonzero"/><path fill="#14697d" d="M 123.335938 119.53125 L 96.511719 119.777344 C 95.75 119.785156 95.210938 119.320312 95.308594 118.742188 C 95.40625 118.164062 96.101562 117.6875 96.863281 117.679688 L 123.6875 117.433594 C 124.449219 117.425781 124.988281 117.890625 124.890625 118.46875 C 124.792969 119.046875 124.097656 119.523438 123.335938 119.53125 " fill-opacity="1" fill-rule="nonzero"/><path fill="#ffffff" d="M 146.65625 81.28125 C 147.675781 81.28125 148.394531 82.109375 148.253906 83.132812 L 146.527344 95.875 C 146.390625 96.898438 145.449219 97.730469 144.425781 97.730469 L 102.125 97.730469 C 101.101562 97.730469 100.386719 96.898438 100.523438 95.875 L 102.25 83.132812 C 102.390625 82.109375 103.332031 81.28125 104.351562 81.28125 L 146.65625 81.28125 " fill-opacity="1" fill-rule="nonzero"/><path fill="#000000" d="M 144.425781 97.941406 L 110.691406 97.941406 C 110.570312 97.941406 110.476562 97.847656 110.476562 97.730469 C 110.476562 97.609375 110.570312 97.515625 110.691406 97.515625 L 144.425781 97.515625 C 145.34375 97.515625 146.191406 96.769531 146.316406 95.847656 L 148.042969 83.105469 C 148.101562 82.671875 147.988281 82.261719 147.722656 81.960938 C 147.460938 81.660156 147.082031 81.496094 146.65625 81.496094 L 145.304688 81.496094 C 145.1875 81.496094 145.089844 81.402344 145.089844 81.28125 C 145.089844 81.164062 145.1875 81.066406 145.304688 81.066406 L 146.65625 81.066406 C 147.207031 81.066406 147.703125 81.285156 148.046875 81.675781 C 148.394531 82.074219 148.542969 82.601562 148.464844 83.164062 L 146.742188 95.90625 C 146.589844 97.03125 145.550781 97.941406 144.425781 97.941406 " fill-opacity="1" fill-rule="nonzero"/><path fill="#ffbf23" d="M 142.777344 86.472656 L 107.667969 86.472656 C 107.113281 86.472656 106.726562 86.066406 106.800781 85.566406 C 106.875 85.066406 107.386719 84.660156 107.941406 84.660156 L 143.050781 84.660156 C 143.605469 84.660156 143.992188 85.066406 143.917969 85.566406 C 143.84375 86.066406 143.332031 86.472656 142.777344 86.472656 " fill-opacity="1" fill-rule="nonzero"/><path fill="#14697d" d="M 136.160156 90.371094 L 106.988281 90.371094 C 106.519531 90.371094 106.191406 89.964844 106.253906 89.464844 C 106.316406 88.964844 106.75 88.558594 107.21875 88.558594 L 136.390625 88.558594 C 136.863281 88.558594 137.191406 88.964844 137.125 89.464844 C 137.0625 89.964844 136.628906 90.371094 136.160156 90.371094 " fill-opacity="1" fill-rule="nonzero"/><path fill="#14697d" d="M 134.441406 94.269531 L 106.417969 94.269531 C 105.964844 94.269531 105.644531 93.863281 105.707031 93.367188 C 105.769531 92.867188 106.1875 92.460938 106.640625 92.460938 L 134.664062 92.460938 C 135.117188 92.460938 135.433594 92.867188 135.371094 93.367188 C 135.3125 93.863281 134.894531 94.269531 134.441406 94.269531 " fill-opacity="1" fill-rule="nonzero"/><path fill="#ffffff" d="M 138.648438 133.421875 C 139.773438 133.421875 140.5625 134.488281 140.410156 135.804688 L 138.511719 152.203125 C 138.359375 153.519531 137.324219 154.585938 136.199219 154.585938 L 96.054688 154.585938 C 94.929688 154.585938 94.140625 153.519531 94.292969 152.203125 L 96.191406 135.804688 C 96.34375 134.488281 97.378906 133.421875 98.503906 133.421875 L 138.648438 133.421875 " fill-opacity="1" fill-rule="nonzero"/><path fill="#14697d" d="M 121.792969 138.585938 L 101.089844 138.585938 C 100.699219 138.585938 100.425781 138.117188 100.476562 137.539062 C 100.53125 136.960938 100.890625 136.492188 101.285156 136.492188 L 121.984375 136.492188 C 122.378906 136.492188 122.652344 136.960938 122.601562 137.539062 C 122.546875 138.117188 122.1875 138.585938 121.792969 138.585938 " fill-opacity="1" fill-rule="nonzero"/><path fill="#14697d" d="M 133.722656 143.09375 L 100.554688 143.09375 C 99.953125 143.09375 99.53125 142.625 99.613281 142.050781 C 99.695312 141.46875 100.25 141 100.851562 141 L 134.019531 141 C 134.621094 141 135.042969 141.46875 134.960938 142.050781 C 134.878906 142.625 134.324219 143.09375 133.722656 143.09375 " fill-opacity="1" fill-rule="nonzero"/><path fill="#14697d" d="M 130.03125 147.605469 L 99.820312 147.605469 C 99.222656 147.605469 98.800781 147.136719 98.882812 146.558594 C 98.964844 145.980469 99.515625 145.511719 100.113281 145.511719 L 130.324219 145.511719 C 130.925781 145.511719 131.34375 145.980469 131.265625 146.558594 C 131.183594 147.136719 130.628906 147.605469 130.03125 147.605469 " fill-opacity="1" fill-rule="nonzero"/><path fill="#14697d" d="M 132.734375 151.707031 L 99.5 151.707031 C 98.84375 151.707031 98.382812 151.238281 98.472656 150.660156 C 98.5625 150.082031 99.167969 149.613281 99.824219 149.613281 L 133.058594 149.613281 C 133.714844 149.613281 134.175781 150.082031 134.085938 150.660156 C 133.996094 151.238281 133.394531 151.707031 132.734375 151.707031 " fill-opacity="1" fill-rule="nonzero"/><path fill="#ffffff" d="M 99.433594 89.125 C 99.433594 92.863281 96.402344 95.894531 92.664062 95.894531 C 88.925781 95.894531 85.894531 92.863281 85.894531 89.125 C 85.894531 85.386719 88.925781 82.355469 92.664062 82.355469 C 96.402344 82.355469 99.433594 85.386719 99.433594 89.125 " fill-opacity="1" fill-rule="nonzero"/><path fill="#a6201e" d="M 96.695312 94.558594 L 96.695312 93.292969 C 96.695312 92.394531 95.957031 91.65625 95.054688 91.65625 L 90.273438 91.65625 C 89.371094 91.65625 88.628906 92.394531 88.628906 93.292969 L 88.628906 94.601562 C 88.628906 95.273438 92.664062 95.894531 92.664062 95.894531 C 92.664062 95.894531 96.695312 95.3125 96.695312 94.558594 " fill-opacity="1" fill-rule="nonzero"/><path fill="#000000" d="M 92.664062 82.570312 C 89.050781 82.570312 86.109375 85.511719 86.109375 89.125 C 86.109375 92.738281 89.050781 95.679688 92.664062 95.679688 C 96.277344 95.679688 99.21875 92.738281 99.21875 89.125 C 99.21875 85.511719 96.277344 82.570312 92.664062 82.570312 Z M 92.664062 96.109375 C 88.8125 96.109375 85.679688 92.976562 85.679688 89.125 C 85.679688 85.277344 88.8125 82.144531 92.664062 82.144531 C 96.511719 82.144531 99.644531 85.277344 99.644531 89.125 C 99.644531 92.976562 96.511719 96.109375 92.664062 96.109375 " fill-opacity="1" fill-rule="nonzero"/><path fill="#ffbf23" d="M 94.722656 86.53125 C 94.605469 86.53125 94.507812 86.433594 94.507812 86.316406 L 94.507812 85.398438 C 94.507812 85.28125 94.605469 85.183594 94.722656 85.183594 C 94.839844 85.183594 94.9375 85.28125 94.9375 85.398438 L 94.9375 86.316406 C 94.9375 86.433594 94.839844 86.53125 94.722656 86.53125 " fill-opacity="1" fill-rule="nonzero"/><path fill="#ffbf23" d="M 94.738281 84.789062 C 94.644531 84.789062 94.566406 84.867188 94.566406 84.960938 C 94.566406 85.058594 94.644531 85.136719 94.738281 85.136719 C 94.835938 85.136719 94.914062 85.058594 94.914062 84.960938 C 94.914062 84.867188 94.835938 84.789062 94.738281 84.789062 Z M 94.738281 85.566406 C 94.40625 85.566406 94.136719 85.292969 94.136719 84.960938 C 94.136719 84.628906 94.40625 84.359375 94.738281 84.359375 C 95.070312 84.359375 95.339844 84.628906 95.339844 84.960938 C 95.339844 85.292969 95.070312 85.566406 94.738281 85.566406 " fill-opacity="1" fill-rule="nonzero"/><path fill="#ffbf23" d="M 90.570312 86.53125 C 90.453125 86.53125 90.359375 86.433594 90.359375 86.316406 L 90.359375 85.398438 C 90.359375 85.28125 90.453125 85.183594 90.570312 85.183594 C 90.691406 85.183594 90.785156 85.28125 90.785156 85.398438 L 90.785156 86.316406 C 90.785156 86.433594 90.691406 86.53125 90.570312 86.53125 " fill-opacity="1" fill-rule="nonzero"/><path fill="#ffbf23" d="M 90.589844 84.789062 C 90.492188 84.789062 90.414062 84.867188 90.414062 84.960938 C 90.414062 85.058594 90.492188 85.136719 90.589844 85.136719 C 90.683594 85.136719 90.761719 85.058594 90.761719 84.960938 C 90.761719 84.867188 90.683594 84.789062 90.589844 84.789062 Z M 90.589844 85.566406 C 90.257812 85.566406 89.984375 85.292969 89.984375 84.960938 C 89.984375 84.628906 90.257812 84.359375 90.589844 84.359375 C 90.921875 84.359375 91.191406 84.628906 91.191406 84.960938 C 91.191406 85.292969 90.921875 85.566406 90.589844 85.566406 " fill-opacity="1" fill-rule="nonzero"/><path fill="#a6201e" d="M 95.953125 90.96875 L 89.375 90.96875 C 88.964844 90.96875 88.628906 90.636719 88.628906 90.226562 L 88.628906 86.910156 C 88.628906 86.5 88.964844 86.167969 89.375 86.167969 L 95.953125 86.167969 C 96.363281 86.167969 96.695312 86.5 96.695312 86.910156 L 96.695312 90.226562 C 96.695312 90.636719 96.363281 90.96875 95.953125 90.96875 " fill-opacity="1" fill-rule="nonzero"/><path fill="#000000" d="M 95.371094 89.261719 L 89.957031 89.261719 C 89.820312 89.261719 89.707031 89.152344 89.707031 89.015625 L 89.707031 87.480469 C 89.707031 87.34375 89.820312 87.234375 89.957031 87.234375 L 95.371094 87.234375 C 95.507812 87.234375 95.617188 87.34375 95.617188 87.480469 L 95.617188 89.015625 C 95.617188 89.152344 95.507812 89.261719 95.371094 89.261719 " fill-opacity="1" fill-rule="nonzero"/><path fill="#a6201e" d="M 91.617188 88.25 C 91.617188 88.488281 91.425781 88.679688 91.1875 88.679688 C 90.953125 88.679688 90.757812 88.488281 90.757812 88.25 C 90.757812 88.011719 90.953125 87.820312 91.1875 87.820312 C 91.425781 87.820312 91.617188 88.011719 91.617188 88.25 " fill-opacity="1" fill-rule="nonzero"/><path fill="#a6201e" d="M 94.570312 88.25 C 94.570312 88.488281 94.375 88.679688 94.140625 88.679688 C 93.902344 88.679688 93.710938 88.488281 93.710938 88.25 C 93.710938 88.011719 93.902344 87.820312 94.140625 87.820312 C 94.375 87.820312 94.570312 88.011719 94.570312 88.25 " fill-opacity="1" fill-rule="nonzero"/><path fill="#ffffff" d="M 93.582031 143 C 93.582031 146.738281 90.550781 149.769531 86.8125 149.769531 C 83.074219 149.769531 80.042969 146.738281 80.042969 143 C 80.042969 139.261719 83.074219 136.234375 86.8125 136.234375 C 90.550781 136.234375 93.582031 139.261719 93.582031 143 " fill-opacity="1" fill-rule="nonzero"/><path fill="#a6201e" d="M 90.84375 148.4375 L 90.84375 147.171875 C 90.84375 146.269531 90.105469 145.53125 89.203125 145.53125 L 84.421875 145.53125 C 83.515625 145.53125 82.777344 146.269531 82.777344 147.171875 L 82.777344 148.476562 C 82.777344 149.148438 86.8125 149.769531 86.8125 149.769531 C 86.8125 149.769531 90.84375 149.1875 90.84375 148.4375 " fill-opacity="1" fill-rule="nonzero"/><path fill="#000000" d="M 86.8125 136.445312 C 83.199219 136.445312 80.257812 139.386719 80.257812 143 C 80.257812 146.613281 83.199219 149.554688 86.8125 149.554688 C 90.425781 149.554688 93.367188 146.613281 93.367188 143 C 93.367188 139.386719 90.425781 136.445312 86.8125 136.445312 Z M 86.8125 149.984375 C 82.960938 149.984375 79.832031 146.851562 79.832031 143 C 79.832031 139.148438 82.960938 136.019531 86.8125 136.019531 C 90.664062 136.019531 93.792969 139.148438 93.792969 143 C 93.792969 146.851562 90.664062 149.984375 86.8125 149.984375 " fill-opacity="1" fill-rule="nonzero"/><path fill="#ffbf23" d="M 88.871094 140.40625 C 88.753906 140.40625 88.65625 140.308594 88.65625 140.191406 L 88.65625 139.273438 C 88.65625 139.15625 88.753906 139.058594 88.871094 139.058594 C 88.988281 139.058594 89.085938 139.15625 89.085938 139.273438 L 89.085938 140.191406 C 89.085938 140.308594 88.988281 140.40625 88.871094 140.40625 " fill-opacity="1" fill-rule="nonzero"/><path fill="#ffbf23" d="M 88.886719 138.664062 C 88.792969 138.664062 88.714844 138.742188 88.714844 138.835938 C 88.714844 138.933594 88.792969 139.011719 88.886719 139.011719 C 88.984375 139.011719 89.0625 138.933594 89.0625 138.835938 C 89.0625 138.742188 88.984375 138.664062 88.886719 138.664062 Z M 88.886719 139.441406 C 88.554688 139.441406 88.285156 139.171875 88.285156 138.835938 C 88.285156 138.503906 88.554688 138.234375 88.886719 138.234375 C 89.21875 138.234375 89.488281 138.503906 89.488281 138.835938 C 89.488281 139.171875 89.21875 139.441406 88.886719 139.441406 " fill-opacity="1" fill-rule="nonzero"/><path fill="#ffbf23" d="M 84.71875 140.40625 C 84.601562 140.40625 84.507812 140.308594 84.507812 140.191406 L 84.507812 139.273438 C 84.507812 139.15625 84.601562 139.058594 84.71875 139.058594 C 84.839844 139.058594 84.933594 139.15625 84.933594 139.273438 L 84.933594 140.191406 C 84.933594 140.308594 84.839844 140.40625 84.71875 140.40625 " fill-opacity="1" fill-rule="nonzero"/><path fill="#ffbf23" d="M 84.738281 138.664062 C 84.640625 138.664062 84.5625 138.742188 84.5625 138.835938 C 84.5625 138.933594 84.640625 139.011719 84.738281 139.011719 C 84.832031 139.011719 84.910156 138.933594 84.910156 138.835938 C 84.910156 138.742188 84.832031 138.664062 84.738281 138.664062 Z M 84.738281 139.441406 C 84.40625 139.441406 84.132812 139.171875 84.132812 138.835938 C 84.132812 138.503906 84.40625 138.234375 84.738281 138.234375 C 85.070312 138.234375 85.339844 138.503906 85.339844 138.835938 C 85.339844 139.171875 85.070312 139.441406 84.738281 139.441406 " fill-opacity="1" fill-rule="nonzero"/><path fill="#a6201e" d="M 90.101562 144.84375 L 83.523438 144.84375 C 83.113281 144.84375 82.777344 144.511719 82.777344 144.101562 L 82.777344 140.785156 C 82.777344 140.375 83.113281 140.042969 83.523438 140.042969 L 90.101562 140.042969 C 90.511719 140.042969 90.84375 140.375 90.84375 140.785156 L 90.84375 144.101562 C 90.84375 144.511719 90.511719 144.84375 90.101562 144.84375 " fill-opacity="1" fill-rule="nonzero"/><path fill="#000000" d="M 89.519531 143.136719 L 84.105469 143.136719 C 83.96875 143.136719 83.855469 143.027344 83.855469 142.890625 L 83.855469 141.355469 C 83.855469 141.21875 83.96875 141.109375 84.105469 141.109375 L 89.519531 141.109375 C 89.65625 141.109375 89.765625 141.21875 89.765625 141.355469 L 89.765625 142.890625 C 89.765625 143.027344 89.65625 143.136719 89.519531 143.136719 " fill-opacity="1" fill-rule="nonzero"/><path fill="#a6201e" d="M 85.765625 142.125 C 85.765625 142.363281 85.574219 142.554688 85.335938 142.554688 C 85.097656 142.554688 84.90625 142.363281 84.90625 142.125 C 84.90625 141.890625 85.097656 141.695312 85.335938 141.695312 C 85.574219 141.695312 85.765625 141.890625 85.765625 142.125 " fill-opacity="1" fill-rule="nonzero"/><path fill="#a6201e" d="M 88.71875 142.125 C 88.71875 142.363281 88.523438 142.554688 88.289062 142.554688 C 88.050781 142.554688 87.859375 142.363281 87.859375 142.125 C 87.859375 141.890625 88.050781 141.695312 88.289062 141.695312 C 88.523438 141.695312 88.71875 141.890625 88.71875 142.125 " fill-opacity="1" fill-rule="nonzero"/><path fill="#000000" d="M 136.199219 154.800781 L 103.15625 154.800781 C 103.039062 154.800781 102.941406 154.707031 102.941406 154.585938 C 102.941406 154.46875 103.039062 154.375 103.15625 154.375 L 136.199219 154.375 C 137.214844 154.375 138.160156 153.390625 138.300781 152.179688 L 140.199219 135.777344 C 140.273438 135.136719 140.105469 134.535156 139.742188 134.128906 C 139.453125 133.804688 139.078125 133.632812 138.648438 133.632812 L 138.203125 133.632812 C 138.082031 133.632812 137.988281 133.539062 137.988281 133.421875 C 137.988281 133.300781 138.082031 133.207031 138.203125 133.207031 L 138.648438 133.207031 C 139.195312 133.207031 139.695312 133.433594 140.0625 133.84375 C 140.507812 134.34375 140.714844 135.066406 140.625 135.828125 L 138.722656 152.230469 C 138.558594 153.648438 137.425781 154.800781 136.199219 154.800781 " fill-opacity="1" fill-rule="nonzero"/><path fill="#ffffff" d="M 71.433594 161.957031 L 70.574219 167.582031 L 68.5 166.527344 L 69.09375 160.914062 L 71.433594 161.957031 " fill-opacity="1" fill-rule="nonzero"/><path fill="#000000" d="M 68.730469 166.402344 L 70.410156 167.257812 L 71.199219 162.085938 L 69.273438 161.230469 Z M 70.574219 167.796875 C 70.542969 167.796875 70.507812 167.789062 70.480469 167.773438 L 68.402344 166.714844 C 68.324219 166.675781 68.277344 166.589844 68.289062 166.503906 L 68.878906 160.894531 C 68.886719 160.824219 68.925781 160.765625 68.988281 160.730469 C 69.046875 160.695312 69.117188 160.691406 69.179688 160.71875 L 71.519531 161.761719 C 71.609375 161.800781 71.660156 161.894531 71.644531 161.992188 L 70.789062 167.613281 C 70.777344 167.683594 70.734375 167.742188 70.675781 167.769531 C 70.644531 167.789062 70.609375 167.796875 70.574219 167.796875 " fill-opacity="1" fill-rule="nonzero"/><path fill="#a6201e" d="M 71.109375 165.453125 C 71.347656 165.996094 71.574219 167.019531 71.800781 168.355469 C 71.910156 168.988281 71.410156 169.566406 70.761719 169.566406 L 63.125 169.566406 C 62.597656 169.566406 62.351562 168.925781 62.742188 168.578125 C 64.261719 167.238281 66.589844 165.75 68.597656 164.875 L 69.367188 165.957031 C 69.367188 165.957031 71.042969 165.300781 71.109375 165.453125 " fill-opacity="1" fill-rule="nonzero"/><path fill="#000000" d="M 68.527344 165.140625 C 66.617188 165.996094 64.371094 167.429688 62.886719 168.738281 C 62.773438 168.839844 62.734375 168.984375 62.789062 169.125 C 62.832031 169.234375 62.941406 169.351562 63.125 169.351562 L 70.761719 169.351562 C 71.011719 169.351562 71.246094 169.242188 71.410156 169.054688 C 71.5625 168.871094 71.628906 168.628906 71.589844 168.394531 C 71.363281 167.054688 71.15625 166.15625 70.960938 165.652344 C 70.699219 165.699219 70.015625 165.933594 69.445312 166.15625 C 69.351562 166.191406 69.246094 166.160156 69.191406 166.078125 Z M 70.761719 169.78125 L 63.125 169.78125 C 62.792969 169.78125 62.503906 169.582031 62.386719 169.273438 C 62.273438 168.972656 62.355469 168.636719 62.601562 168.417969 C 64.15625 167.042969 66.535156 165.539062 68.515625 164.675781 C 68.605469 164.636719 68.714844 164.667969 68.773438 164.75 L 69.445312 165.695312 C 71.164062 165.039062 71.230469 165.191406 71.308594 165.367188 C 71.53125 165.882812 71.757812 166.820312 72.011719 168.320312 C 72.074219 168.679688 71.972656 169.046875 71.734375 169.332031 C 71.492188 169.617188 71.136719 169.78125 70.761719 169.78125 " fill-opacity="1" fill-rule="nonzero"/><path fill="#000000" d="M 70.679688 168.910156 L 63.851562 168.910156 C 63.730469 168.910156 63.636719 168.816406 63.636719 168.699219 C 63.636719 168.578125 63.730469 168.484375 63.851562 168.484375 L 70.679688 168.484375 C 70.796875 168.484375 70.890625 168.578125 70.890625 168.699219 C 70.890625 168.816406 70.796875 168.910156 70.679688 168.910156 " fill-opacity="1" fill-rule="nonzero"/><path fill="#000000" d="M 67.652344 167.511719 C 67.582031 167.511719 67.507812 167.472656 67.46875 167.402344 L 66.683594 166.074219 C 66.625 165.972656 66.660156 165.84375 66.761719 165.78125 C 66.863281 165.722656 66.992188 165.757812 67.054688 165.859375 L 67.835938 167.1875 C 67.898438 167.289062 67.863281 167.417969 67.761719 167.480469 C 67.726562 167.5 67.691406 167.511719 67.652344 167.511719 " fill-opacity="1" fill-rule="nonzero"/><path fill="#000000" d="M 66.503906 167.703125 C 66.429688 167.703125 66.355469 167.664062 66.316406 167.59375 L 65.808594 166.683594 C 65.75 166.582031 65.789062 166.449219 65.890625 166.394531 C 65.996094 166.335938 66.125 166.371094 66.183594 166.476562 L 66.691406 167.382812 C 66.75 167.488281 66.710938 167.617188 66.609375 167.675781 C 66.574219 167.695312 66.539062 167.703125 66.503906 167.703125 " fill-opacity="1" fill-rule="nonzero"/><path fill="#a6201e" d="M 72.289062 149.960938 C 72.855469 149.789062 73.902344 149.691406 75.253906 149.625 C 75.894531 149.59375 76.410156 150.15625 76.332031 150.804688 L 75.410156 158.382812 C 75.347656 158.90625 74.683594 159.074219 74.386719 158.644531 C 73.234375 156.972656 72.039062 154.484375 71.410156 152.382812 L 72.578125 151.753906 C 72.578125 151.753906 72.132812 150.007812 72.289062 149.960938 " fill-opacity="1" fill-rule="nonzero"/><path fill="#000000" d="M 72.289062 149.960938 L 72.292969 149.960938 Z M 71.667969 152.488281 C 72.285156 154.488281 73.4375 156.890625 74.5625 158.523438 C 74.648438 158.648438 74.785156 158.699219 74.929688 158.664062 C 75.046875 158.636719 75.175781 158.539062 75.199219 158.359375 L 76.117188 150.777344 C 76.148438 150.527344 76.070312 150.28125 75.898438 150.097656 C 75.734375 149.921875 75.503906 149.832031 75.265625 149.839844 C 73.910156 149.90625 72.992188 150 72.46875 150.132812 C 72.484375 150.398438 72.632812 151.105469 72.785156 151.699219 C 72.808594 151.796875 72.765625 151.894531 72.679688 151.941406 Z M 74.84375 159.101562 C 74.59375 159.101562 74.355469 158.980469 74.207031 158.765625 C 73.03125 157.054688 71.824219 154.515625 71.207031 152.445312 C 71.175781 152.347656 71.21875 152.246094 71.308594 152.195312 L 72.328125 151.644531 C 71.882812 149.859375 72.042969 149.8125 72.226562 149.753906 C 72.765625 149.59375 73.726562 149.484375 75.246094 149.410156 C 75.609375 149.394531 75.960938 149.539062 76.210938 149.808594 C 76.46875 150.082031 76.589844 150.453125 76.542969 150.828125 L 75.625 158.410156 C 75.582031 158.738281 75.351562 159 75.03125 159.082031 C 74.96875 159.09375 74.90625 159.101562 74.84375 159.101562 " fill-opacity="1" fill-rule="nonzero"/><path fill="#000000" d="M 74.636719 157.773438 C 74.625 157.773438 74.617188 157.773438 74.609375 157.773438 C 74.492188 157.757812 74.40625 157.652344 74.421875 157.535156 L 75.246094 150.753906 C 75.257812 150.636719 75.367188 150.554688 75.484375 150.566406 C 75.601562 150.582031 75.683594 150.6875 75.671875 150.808594 L 74.847656 157.585938 C 74.835938 157.695312 74.742188 157.773438 74.636719 157.773438 " fill-opacity="1" fill-rule="nonzero"/><path fill="#000000" d="M 72.289062 154.445312 C 72.207031 154.445312 72.128906 154.398438 72.09375 154.316406 C 72.042969 154.210938 72.09375 154.082031 72.203125 154.035156 L 73.617188 153.417969 C 73.722656 153.371094 73.851562 153.421875 73.898438 153.527344 C 73.945312 153.636719 73.894531 153.761719 73.789062 153.8125 L 72.375 154.429688 C 72.347656 154.441406 72.316406 154.445312 72.289062 154.445312 " fill-opacity="1" fill-rule="nonzero"/><path fill="#000000" d="M 72.792969 155.386719 C 72.707031 155.386719 72.625 155.335938 72.59375 155.253906 C 72.546875 155.144531 72.601562 155.019531 72.710938 154.976562 L 73.675781 154.582031 C 73.785156 154.535156 73.910156 154.589844 73.953125 154.699219 C 74 154.808594 73.945312 154.933594 73.835938 154.976562 L 72.871094 155.371094 C 72.84375 155.382812 72.816406 155.386719 72.792969 155.386719 " fill-opacity="1" fill-rule="nonzero"/><path fill="#000000" d="M 66.777344 126.039062 C 66.777344 126.039062 60.507812 134.503906 58.53125 140.070312 C 58.15625 141.128906 58.445312 142.308594 59.269531 143.070312 C 61.566406 145.199219 66.480469 149.695312 69.632812 152.207031 L 70.574219 149.816406 C 70.574219 149.816406 69.4375 144.277344 65.167969 141.78125 L 70.464844 133.878906 L 71.632812 127.730469 L 66.777344 126.039062 " fill-opacity="1" fill-rule="nonzero"/><path fill="#000000" d="M 72.742188 127.503906 C 74.617188 127.84375 75.886719 129.601562 75.617188 131.488281 C 75.027344 135.605469 74.089844 142.300781 73.914062 144.554688 C 73.652344 147.902344 74.328125 151.621094 74.457031 154.351562 C 74.585938 157.085938 71.488281 163.433594 71.488281 163.433594 L 68.5 163.230469 L 67.945312 132.140625 L 67.144531 126.449219 L 72.742188 127.503906 " fill-opacity="1" fill-rule="nonzero"/><path fill="#14697d" d="M 68.144531 152.035156 C 68.03125 152.035156 67.933594 151.941406 67.933594 151.824219 L 67.851562 146.90625 C 67.851562 146.789062 67.945312 146.691406 68.0625 146.6875 C 68.175781 146.683594 68.28125 146.78125 68.28125 146.898438 L 68.359375 151.820312 C 68.363281 151.9375 68.269531 152.035156 68.148438 152.035156 C 68.148438 152.035156 68.148438 152.035156 68.144531 152.035156 " fill-opacity="1" fill-rule="nonzero"/><path fill="#14697d" d="M 67.902344 138.457031 C 67.785156 138.457031 67.691406 138.363281 67.6875 138.246094 L 67.675781 136.003906 C 67.671875 135.164062 67.261719 134.371094 66.578125 133.878906 L 66.425781 133.769531 C 66.328125 133.699219 66.304688 133.566406 66.375 133.46875 C 66.445312 133.375 66.578125 133.351562 66.675781 133.421875 L 66.828125 133.53125 C 67.621094 134.101562 68.097656 135.027344 68.105469 136.003906 L 68.117188 138.242188 C 68.117188 138.359375 68.023438 138.457031 67.90625 138.457031 C 67.902344 138.457031 67.902344 138.457031 67.902344 138.457031 " fill-opacity="1" fill-rule="nonzero"/><path fill="#000000" d="M 67.25 104.300781 C 68.355469 103.105469 69.996094 102.855469 71.230469 103.191406 C 72.792969 103.621094 73.578125 104.972656 74.136719 105.925781 C 75.117188 107.609375 74.644531 108.21875 75.414062 109.195312 C 76.78125 110.929688 78.925781 109.847656 80.589844 111.113281 C 83.132812 113.042969 83.476562 119.597656 80.039062 122.09375 C 77.746094 123.757812 74.625 122.796875 73.777344 122.535156 C 71.203125 121.738281 67.996094 119.523438 67.535156 116.515625 C 67.15625 114.027344 68.796875 111.960938 67.425781 109.875 C 67.074219 109.34375 66.785156 109.199219 66.527344 108.535156 C 66.105469 107.457031 66.011719 105.644531 67.25 104.300781 " fill-opacity="1" fill-rule="nonzero"/><path fill="#000000" d="M 70.582031 104.597656 C 69.992188 104.121094 70.363281 102.71875 70.742188 101.960938 C 70.882812 101.675781 71.511719 100.40625 72.339844 100.453125 C 73.191406 100.507812 74.003906 101.933594 73.699219 103.066406 C 73.320312 104.480469 71.269531 105.15625 70.582031 104.597656 " fill-opacity="1" fill-rule="nonzero"/><path fill="#ffbf23" d="M 59.847656 116.304688 L 57.660156 116.316406 L 55.007812 111.664062 L 57.160156 111.644531 L 59.847656 116.304688 " fill-opacity="1" fill-rule="nonzero"/><path fill="#000000" d="M 55.375 111.875 L 57.78125 116.101562 L 59.476562 116.09375 L 57.039062 111.859375 Z M 57.660156 116.53125 C 57.582031 116.53125 57.511719 116.492188 57.472656 116.425781 L 54.824219 111.769531 C 54.785156 111.703125 54.785156 111.621094 54.824219 111.554688 C 54.863281 111.492188 54.929688 111.449219 55.007812 111.449219 L 57.160156 111.429688 C 57.238281 111.429688 57.308594 111.472656 57.347656 111.539062 L 60.03125 116.195312 C 60.070312 116.261719 60.070312 116.34375 60.03125 116.410156 C 59.996094 116.476562 59.925781 116.515625 59.847656 116.519531 L 57.660156 116.53125 " fill-opacity="1" fill-rule="nonzero"/><path fill="#ffffff" d="M 68.214844 113.484375 C 66.804688 113.527344 65.296875 116.953125 61.9375 119.164062 C 61.589844 119.394531 61.199219 119.535156 60.875 119.273438 C 59.792969 118.390625 57.578125 116.476562 57.21875 115.257812 C 57.148438 115.011719 57.023438 113.542969 56.523438 112.933594 C 56.210938 112.550781 55.9375 113 55.9375 113 C 55.9375 113 54.46875 115 56.074219 116.242188 C 56.316406 116.429688 56.507812 116.671875 56.640625 116.945312 C 57.238281 118.171875 59.148438 121.40625 60.007812 122.410156 C 61.128906 123.71875 61.542969 123.675781 62.667969 123.078125 L 67.8125 120.046875 C 67.8125 120.046875 69.164062 113.460938 68.214844 113.484375 " fill-opacity="1" fill-rule="nonzero"/><path fill="#000000" d="M 68.214844 113.484375 Z M 56.261719 112.992188 C 56.222656 112.996094 56.152344 113.058594 56.121094 113.113281 C 56.117188 113.117188 56.113281 113.125 56.109375 113.128906 C 56.054688 113.203125 54.785156 114.972656 56.207031 116.074219 C 56.46875 116.277344 56.683594 116.546875 56.832031 116.851562 C 57.398438 118.011719 59.300781 121.253906 60.167969 122.269531 C 61.238281 123.519531 61.546875 123.429688 62.566406 122.886719 L 67.621094 119.910156 C 68.1875 117.121094 68.554688 114.003906 68.210938 113.699219 C 67.613281 113.726562 66.910156 114.550781 66.015625 115.59375 C 65.023438 116.757812 63.789062 118.203125 62.054688 119.34375 C 61.53125 119.691406 61.089844 119.722656 60.742188 119.4375 C 59.503906 118.433594 57.378906 116.566406 57.011719 115.316406 C 56.992188 115.25 56.976562 115.140625 56.949219 114.972656 C 56.871094 114.492188 56.710938 113.5 56.359375 113.066406 C 56.3125 113.011719 56.277344 112.992188 56.261719 112.992188 Z M 61.515625 123.691406 C 60.996094 123.691406 60.535156 123.359375 59.84375 122.550781 C 58.953125 121.511719 57.019531 118.214844 56.449219 117.039062 C 56.328125 116.792969 56.152344 116.574219 55.941406 116.414062 C 54.546875 115.328125 55.210938 113.632812 55.761719 112.878906 C 55.796875 112.824219 55.96875 112.585938 56.230469 112.566406 C 56.347656 112.558594 56.523438 112.589844 56.691406 112.796875 C 57.113281 113.316406 57.28125 114.347656 57.371094 114.902344 C 57.394531 115.03125 57.414062 115.15625 57.425781 115.195312 C 57.769531 116.375 60.046875 118.324219 61.011719 119.105469 C 61.132812 119.203125 61.347656 119.296875 61.820312 118.984375 C 63.503906 117.878906 64.714844 116.457031 65.691406 115.316406 C 66.695312 114.140625 67.421875 113.292969 68.207031 113.273438 C 68.335938 113.269531 68.453125 113.324219 68.539062 113.425781 C 69.191406 114.203125 68.222656 119.113281 68.019531 120.089844 C 68.007812 120.148438 67.972656 120.199219 67.917969 120.230469 L 62.777344 123.261719 C 62.261719 123.535156 61.875 123.691406 61.515625 123.691406 " fill-opacity="1" fill-rule="nonzero"/><path fill="#a6201e" d="M 76.359375 113.332031 C 76.359375 113.332031 72.527344 111.234375 68.089844 113.019531 C 67.796875 113.136719 67.617188 113.425781 67.644531 113.738281 C 67.683594 114.15625 67.628906 114.804688 67.140625 115.488281 C 65.25 118.125 66.382812 119.226562 66.058594 120.539062 C 65.398438 123.203125 64.75 124.878906 63.367188 128.417969 C 62.847656 129.75 64.96875 129.75 66.769531 129.464844 C 68.570312 129.175781 72.996094 129.179688 74.851562 130.199219 C 76.703125 131.21875 76.894531 128.722656 76.6875 127.058594 C 76.476562 125.394531 76.359375 113.332031 76.359375 113.332031 " fill-opacity="1" fill-rule="nonzero"/><path fill="#ffffff" d="M 75.277344 123.28125 L 71.039062 120.757812 C 70.519531 120.445312 69.886719 120.390625 69.316406 120.601562 L 67.332031 121.335938 C 67.011719 121.457031 67.078125 121.921875 67.414062 121.953125 C 67.53125 121.964844 67.671875 121.953125 67.828125 121.914062 C 68.285156 121.796875 68.902344 121.808594 69.351562 122.171875 C 69.589844 122.367188 69.878906 122.355469 70.09375 122.296875 C 70.296875 122.246094 70.507812 122.324219 70.632812 122.496094 C 71.480469 123.664062 74.554688 127.628906 77.316406 127.726562 C 79.949219 127.816406 79.097656 119.179688 78.230469 115.109375 C 78.0625 114.316406 77.183594 113.648438 76.425781 113.363281 L 75.457031 112.992188 L 75.953125 122.875 C 75.972656 123.234375 75.582031 123.464844 75.277344 123.28125 " fill-opacity="1" fill-rule="nonzero"/><path fill="#000000" d="M 70.21875 122.066406 C 70.449219 122.066406 70.664062 122.175781 70.804688 122.367188 C 71.664062 123.550781 74.671875 127.421875 77.324219 127.511719 C 77.605469 127.519531 77.847656 127.40625 78.054688 127.160156 C 79.425781 125.523438 78.847656 119.027344 78.019531 115.152344 C 77.867188 114.4375 77.046875 113.828125 76.351562 113.5625 L 75.6875 113.308594 L 76.167969 122.863281 C 76.179688 123.109375 76.058594 123.339844 75.847656 123.464844 C 75.636719 123.589844 75.378906 123.59375 75.167969 123.464844 L 70.929688 120.941406 C 70.464844 120.664062 69.902344 120.609375 69.390625 120.800781 L 67.40625 121.539062 C 67.339844 121.5625 67.335938 121.617188 67.339844 121.648438 C 67.34375 121.671875 67.359375 121.730469 67.433594 121.738281 C 67.539062 121.75 67.652344 121.738281 67.773438 121.707031 C 68.015625 121.644531 68.847656 121.484375 69.484375 122.007812 C 69.625 122.121094 69.8125 122.148438 70.039062 122.089844 C 70.097656 122.074219 70.160156 122.066406 70.21875 122.066406 Z M 77.355469 127.941406 C 77.339844 127.941406 77.324219 127.941406 77.308594 127.941406 C 74.460938 127.839844 71.34375 123.84375 70.457031 122.621094 C 70.386719 122.519531 70.261719 122.476562 70.148438 122.503906 C 69.785156 122.597656 69.464844 122.542969 69.214844 122.339844 C 68.730469 121.945312 68.070312 122.074219 67.882812 122.121094 C 67.710938 122.164062 67.546875 122.179688 67.394531 122.164062 C 67.140625 122.140625 66.949219 121.957031 66.914062 121.703125 C 66.882812 121.453125 67.019531 121.226562 67.257812 121.136719 L 69.242188 120.398438 C 69.875 120.164062 70.570312 120.226562 71.148438 120.574219 L 75.386719 123.097656 C 75.460938 123.144531 75.550781 123.144531 75.625 123.097656 C 75.703125 123.054688 75.742188 122.972656 75.738281 122.886719 L 75.242188 113.003906 C 75.238281 112.929688 75.273438 112.863281 75.332031 112.820312 C 75.390625 112.777344 75.464844 112.765625 75.535156 112.792969 L 76.503906 113.160156 C 77.332031 113.476562 78.253906 114.1875 78.441406 115.0625 C 79.121094 118.265625 80.003906 125.5 78.382812 127.433594 C 78.101562 127.769531 77.753906 127.941406 77.355469 127.941406 " fill-opacity="1" fill-rule="nonzero"/><path fill="#ffffff" d="M 69.558594 110.410156 C 69.300781 110.539062 68.984375 110.496094 68.777344 110.292969 C 68.535156 110.050781 68.339844 109.792969 68.179688 109.53125 L 67.878906 109.539062 C 67.78125 109.539062 67.703125 109.464844 67.699219 109.367188 L 67.648438 108.191406 C 66.953125 107.0625 67.5 106.457031 67.5 106.457031 C 67.84375 105.859375 69.023438 105.523438 69.832031 106.648438 C 70.113281 107.039062 70.554688 106.75 70.792969 106.539062 C 70.890625 106.453125 70.96875 106.347656 71.03125 106.234375 C 71.195312 105.9375 71.597656 105.320312 71.921875 105.902344 C 72.609375 107.148438 71.617188 108.128906 71.617188 108.128906 L 72.339844 111.222656 C 72.507812 111.933594 73.019531 112.519531 73.703125 112.78125 L 74.398438 113.046875 C 74.398438 113.046875 73.3125 116.613281 70.226562 116.546875 C 67.875 116.496094 68.890625 113.316406 68.890625 113.316406 L 69.199219 113.179688 C 70.007812 112.824219 70.449219 111.945312 70.253906 111.082031 L 70.046875 110.164062 L 69.558594 110.410156 " fill-opacity="1" fill-rule="nonzero"/><path fill="#000000" d="M 69.726562 110.75 C 69.644531 110.75 69.570312 110.707031 69.53125 110.628906 C 69.480469 110.523438 69.523438 110.394531 69.632812 110.34375 C 70.382812 109.976562 70.480469 108.988281 70.480469 108.976562 C 70.492188 108.859375 70.597656 108.773438 70.714844 108.785156 C 70.832031 108.792969 70.917969 108.898438 70.90625 109.015625 C 70.902344 109.066406 70.785156 110.257812 69.820312 110.730469 C 69.789062 110.742188 69.757812 110.75 69.726562 110.75 " fill-opacity="1" fill-rule="nonzero"/><path fill="#000000" d="M 58.675781 109.726562 C 58.632812 109.726562 58.585938 109.710938 58.546875 109.683594 C 58.453125 109.613281 58.433594 109.480469 58.503906 109.382812 L 64.710938 101.054688 C 64.78125 100.960938 64.914062 100.941406 65.007812 101.011719 C 65.105469 101.082031 65.125 101.21875 65.054688 101.3125 L 58.847656 109.640625 C 58.804688 109.695312 58.742188 109.726562 58.675781 109.726562 " fill-opacity="1" fill-rule="nonzero"/><path fill="#000000" d="M 56.867188 109.058594 C 56.84375 109.058594 56.816406 109.054688 56.792969 109.046875 C 56.683594 109.007812 56.625 108.886719 56.664062 108.777344 L 58.4375 103.71875 C 58.476562 103.609375 58.597656 103.550781 58.707031 103.589844 C 58.820312 103.628906 58.878906 103.75 58.839844 103.863281 L 57.066406 108.917969 C 57.035156 109.003906 56.953125 109.058594 56.867188 109.058594 " fill-opacity="1" fill-rule="nonzero"/><path fill="#000000" d="M 59.671875 111.097656 C 59.601562 111.097656 59.53125 111.0625 59.492188 110.996094 C 59.429688 110.898438 59.460938 110.765625 59.558594 110.703125 L 64.09375 107.847656 C 64.191406 107.785156 64.324219 107.816406 64.386719 107.914062 C 64.453125 108.015625 64.421875 108.148438 64.320312 108.210938 L 59.789062 111.0625 C 59.753906 111.085938 59.710938 111.097656 59.671875 111.097656 " fill-opacity="1" fill-rule="nonzero"/><path fill="#000000" d="M 109.410156 68.550781 C 109.292969 68.550781 109.195312 68.457031 109.195312 68.335938 L 109.195312 67.230469 C 109.195312 67.113281 109.292969 67.015625 109.410156 67.015625 C 109.527344 67.015625 109.625 67.113281 109.625 67.230469 L 109.625 68.335938 C 109.625 68.457031 109.527344 68.550781 109.410156 68.550781 " fill-opacity="1" fill-rule="nonzero"/><path fill="#000000" d="M 109.410156 71.132812 C 109.292969 71.132812 109.195312 71.035156 109.195312 70.917969 L 109.195312 69.808594 C 109.195312 69.691406 109.292969 69.597656 109.410156 69.597656 C 109.527344 69.597656 109.625 69.691406 109.625 69.808594 L 109.625 70.917969 C 109.625 71.035156 109.527344 71.132812 109.410156 71.132812 " fill-opacity="1" fill-rule="nonzero"/><path fill="#000000" d="M 108.671875 69.289062 L 107.566406 69.289062 C 107.449219 69.289062 107.351562 69.191406 107.351562 69.074219 C 107.351562 68.957031 107.449219 68.859375 107.566406 68.859375 L 108.671875 68.859375 C 108.792969 68.859375 108.886719 68.957031 108.886719 69.074219 C 108.886719 69.191406 108.792969 69.289062 108.671875 69.289062 " fill-opacity="1" fill-rule="nonzero"/><path fill="#000000" d="M 111.253906 69.289062 L 110.144531 69.289062 C 110.027344 69.289062 109.929688 69.191406 109.929688 69.074219 C 109.929688 68.957031 110.027344 68.859375 110.144531 68.859375 L 111.253906 68.859375 C 111.371094 68.859375 111.46875 68.957031 111.46875 69.074219 C 111.46875 69.191406 111.371094 69.289062 111.253906 69.289062 " fill-opacity="1" fill-rule="nonzero"/><path fill="#000000" d="M 101.867188 124.667969 C 101.75 124.667969 101.652344 124.574219 101.652344 124.453125 L 101.652344 123.347656 C 101.652344 123.230469 101.75 123.132812 101.867188 123.132812 C 101.984375 123.132812 102.082031 123.230469 102.082031 123.347656 L 102.082031 124.453125 C 102.082031 124.574219 101.984375 124.667969 101.867188 124.667969 " fill-opacity="1" fill-rule="nonzero"/><path fill="#000000" d="M 101.867188 127.25 C 101.75 127.25 101.652344 127.152344 101.652344 127.035156 L 101.652344 125.925781 C 101.652344 125.808594 101.75 125.710938 101.867188 125.710938 C 101.984375 125.710938 102.082031 125.808594 102.082031 125.925781 L 102.082031 127.035156 C 102.082031 127.152344 101.984375 127.25 101.867188 127.25 " fill-opacity="1" fill-rule="nonzero"/><path fill="#000000" d="M 101.128906 125.40625 L 100.023438 125.40625 C 99.90625 125.40625 99.808594 125.308594 99.808594 125.191406 C 99.808594 125.074219 99.90625 124.976562 100.023438 124.976562 L 101.128906 124.976562 C 101.25 124.976562 101.34375 125.074219 101.34375 125.191406 C 101.34375 125.308594 101.25 125.40625 101.128906 125.40625 " fill-opacity="1" fill-rule="nonzero"/><path fill="#000000" d="M 103.710938 125.40625 L 102.601562 125.40625 C 102.484375 125.40625 102.390625 125.308594 102.390625 125.191406 C 102.390625 125.074219 102.484375 124.976562 102.601562 124.976562 L 103.710938 124.976562 C 103.828125 124.976562 103.925781 125.074219 103.925781 125.191406 C 103.925781 125.308594 103.828125 125.40625 103.710938 125.40625 " fill-opacity="1" fill-rule="nonzero"/><path fill="#000000" d="M 158.539062 62.441406 C 158.421875 62.441406 158.328125 62.34375 158.328125 62.226562 L 158.328125 61.121094 C 158.328125 61 158.421875 60.90625 158.539062 60.90625 C 158.660156 60.90625 158.753906 61 158.753906 61.121094 L 158.753906 62.226562 C 158.753906 62.34375 158.660156 62.441406 158.539062 62.441406 " fill-opacity="1" fill-rule="nonzero"/><path fill="#000000" d="M 158.542969 65.019531 C 158.421875 65.019531 158.328125 64.925781 158.328125 64.804688 L 158.328125 63.699219 C 158.328125 63.582031 158.421875 63.484375 158.542969 63.484375 C 158.660156 63.484375 158.753906 63.582031 158.753906 63.699219 L 158.753906 64.804688 C 158.753906 64.925781 158.660156 65.019531 158.542969 65.019531 " fill-opacity="1" fill-rule="nonzero"/><path fill="#000000" d="M 157.804688 63.175781 L 156.699219 63.175781 C 156.578125 63.175781 156.484375 63.082031 156.484375 62.960938 C 156.484375 62.84375 156.578125 62.75 156.699219 62.75 L 157.804688 62.75 C 157.921875 62.75 158.019531 62.84375 158.019531 62.960938 C 158.019531 63.082031 157.921875 63.175781 157.804688 63.175781 " fill-opacity="1" fill-rule="nonzero"/><path fill="#000000" d="M 160.386719 63.175781 L 159.277344 63.175781 C 159.160156 63.175781 159.0625 63.082031 159.0625 62.960938 C 159.0625 62.84375 159.160156 62.75 159.277344 62.75 L 160.386719 62.75 C 160.503906 62.75 160.597656 62.84375 160.597656 62.960938 C 160.597656 63.082031 160.503906 63.175781 160.386719 63.175781 " fill-opacity="1" fill-rule="nonzero"/><path fill="#ffffff" d="M 59.273438 141.945312 Z M 59.882812 142.027344 C 59.703125 142.027344 59.527344 142.066406 59.359375 142.140625 C 58.703125 142.4375 58.402344 143.222656 58.695312 143.894531 C 58.835938 144.222656 59.09375 144.472656 59.421875 144.601562 C 59.742188 144.726562 60.089844 144.71875 60.402344 144.578125 C 61.0625 144.28125 61.359375 143.492188 61.070312 142.820312 C 60.929688 142.492188 60.671875 142.242188 60.34375 142.113281 C 60.195312 142.058594 60.039062 142.027344 59.882812 142.027344 Z M 59.882812 145.117188 C 59.675781 145.117188 59.464844 145.078125 59.265625 145 C 58.832031 144.832031 58.488281 144.5 58.300781 144.066406 C 57.917969 143.179688 58.316406 142.140625 59.183594 141.75 C 59.605469 141.5625 60.070312 141.550781 60.5 141.714844 C 60.933594 141.886719 61.277344 142.21875 61.464844 142.652344 C 61.847656 143.539062 61.449219 144.578125 60.578125 144.96875 C 60.355469 145.066406 60.121094 145.117188 59.882812 145.117188 " fill-opacity="1" fill-rule="nonzero"/><path fill="#000000" d="M 62.609375 71.898438 C 62.585938 71.898438 62.558594 71.894531 62.539062 71.886719 C 62.425781 71.847656 62.367188 71.726562 62.40625 71.613281 C 63.089844 69.648438 64.519531 66.695312 67.433594 63.792969 C 70.296875 60.945312 73.871094 58.878906 78.054688 57.644531 C 78.167969 57.609375 78.285156 57.675781 78.320312 57.789062 C 78.351562 57.902344 78.289062 58.019531 78.175781 58.054688 C 67.222656 61.285156 63.644531 69.355469 62.808594 71.753906 C 62.777344 71.84375 62.695312 71.898438 62.609375 71.898438 " fill-opacity="1" fill-rule="nonzero"/><path fill="#000000" d="M 59.628906 71.34375 C 59.609375 71.34375 59.585938 71.339844 59.566406 71.332031 C 59.453125 71.296875 59.390625 71.179688 59.425781 71.066406 C 59.433594 71.035156 60.460938 67.800781 63.402344 64.175781 C 66.113281 60.832031 71.054688 56.457031 79.199219 54.585938 C 79.316406 54.558594 79.429688 54.632812 79.457031 54.746094 C 79.484375 54.863281 79.410156 54.976562 79.296875 55.003906 C 71.277344 56.84375 66.414062 61.148438 63.746094 64.429688 C 60.851562 67.992188 59.84375 71.160156 59.835938 71.195312 C 59.804688 71.285156 59.722656 71.34375 59.628906 71.34375 " fill-opacity="1" fill-rule="nonzero"/><path fill="#000000" d="M 145.644531 160.050781 C 145.578125 160.050781 145.507812 160.019531 145.46875 159.957031 C 145.402344 159.859375 145.429688 159.726562 145.527344 159.660156 C 149.957031 156.726562 155.417969 150.59375 158.804688 144.746094 C 158.863281 144.644531 158.996094 144.609375 159.097656 144.667969 C 159.199219 144.726562 159.234375 144.855469 159.175781 144.960938 C 155.757812 150.859375 150.242188 157.050781 145.765625 160.015625 C 145.726562 160.042969 145.6875 160.050781 145.644531 160.050781 " fill-opacity="1" fill-rule="nonzero"/><path fill="#000000" d="M 142.308594 165.445312 C 142.230469 165.445312 142.152344 165.398438 142.117188 165.324219 C 142.066406 165.214844 142.113281 165.089844 142.21875 165.039062 C 149.542969 161.535156 154.703125 155.667969 157.738281 151.367188 C 161.03125 146.703125 162.605469 142.824219 162.621094 142.785156 C 162.664062 142.675781 162.789062 142.625 162.898438 142.667969 C 163.007812 142.710938 163.0625 142.835938 163.019531 142.945312 C 163.003906 142.984375 161.410156 146.910156 158.089844 151.613281 C 155.023438 155.957031 149.8125 161.878906 142.402344 165.425781 C 142.371094 165.4375 142.339844 165.445312 142.308594 165.445312 " fill-opacity="1" fill-rule="nonzero"/><path fill="#a6201e" d="M 139.472656 65.6875 C 138.382812 63.382812 139.367188 60.632812 141.667969 59.542969 C 143.972656 58.453125 146.722656 59.4375 147.816406 61.738281 C 148.90625 64.042969 147.921875 66.792969 145.617188 67.882812 C 143.3125 68.976562 140.5625 67.992188 139.472656 65.6875 Z M 149.207031 70.898438 C 149.300781 70.839844 149.335938 70.726562 149.296875 70.625 L 148.742188 69.148438 C 148.707031 69.0625 148.730469 68.96875 148.796875 68.902344 C 149.015625 68.683594 149.222656 68.457031 149.410156 68.214844 C 149.464844 68.144531 149.558594 68.109375 149.648438 68.132812 L 151.175781 68.511719 C 151.28125 68.535156 151.390625 68.488281 151.441406 68.390625 L 152.058594 67.15625 C 152.109375 67.058594 152.082031 66.941406 152 66.871094 L 150.777344 65.871094 C 150.707031 65.8125 150.679688 65.71875 150.703125 65.632812 C 150.785156 65.335938 150.84375 65.035156 150.886719 64.730469 C 150.902344 64.640625 150.964844 64.566406 151.050781 64.539062 L 152.566406 64.101562 C 152.671875 64.074219 152.742188 63.972656 152.738281 63.867188 L 152.65625 62.488281 C 152.648438 62.378906 152.566406 62.289062 152.460938 62.273438 L 150.90625 62.015625 C 150.816406 62.003906 150.742188 61.9375 150.722656 61.847656 C 150.644531 61.554688 150.546875 61.261719 150.429688 60.976562 C 150.394531 60.890625 150.410156 60.792969 150.476562 60.726562 L 151.570312 59.589844 C 151.644531 59.511719 151.65625 59.390625 151.59375 59.300781 L 150.835938 58.148438 C 150.777344 58.058594 150.664062 58.019531 150.558594 58.058594 L 149.085938 58.617188 C 149 58.648438 148.902344 58.625 148.839844 58.5625 C 148.621094 58.34375 148.390625 58.136719 148.152344 57.949219 C 148.078125 57.894531 148.046875 57.800781 148.066406 57.710938 L 148.445312 56.183594 C 148.472656 56.078125 148.421875 55.96875 148.324219 55.917969 L 147.089844 55.300781 C 146.992188 55.253906 146.875 55.277344 146.808594 55.363281 L 145.804688 56.582031 C 145.746094 56.652344 145.652344 56.683594 145.566406 56.65625 C 145.269531 56.578125 144.96875 56.515625 144.664062 56.472656 C 144.574219 56.460938 144.5 56.398438 144.472656 56.308594 L 144.035156 54.792969 C 144.007812 54.6875 143.90625 54.621094 143.800781 54.625 L 142.421875 54.707031 C 142.3125 54.714844 142.222656 54.796875 142.207031 54.902344 L 141.949219 56.457031 C 141.933594 56.546875 141.867188 56.617188 141.78125 56.640625 C 141.484375 56.71875 141.195312 56.816406 140.90625 56.933594 C 140.820312 56.96875 140.722656 56.949219 140.65625 56.886719 L 139.523438 55.792969 C 139.445312 55.71875 139.324219 55.707031 139.234375 55.765625 L 138.078125 56.527344 C 137.988281 56.585938 137.953125 56.703125 137.988281 56.804688 L 138.546875 58.277344 C 138.578125 58.363281 138.554688 58.460938 138.492188 58.523438 C 138.269531 58.742188 138.066406 58.972656 137.878906 59.210938 C 137.820312 59.285156 137.730469 59.316406 137.640625 59.292969 L 136.109375 58.917969 C 136.007812 58.890625 135.894531 58.941406 135.847656 59.039062 L 135.226562 60.273438 C 135.179688 60.367188 135.207031 60.488281 135.289062 60.554688 L 136.507812 61.554688 C 136.582031 61.613281 136.609375 61.707031 136.585938 61.796875 C 136.503906 62.09375 136.441406 62.390625 136.398438 62.695312 C 136.386719 62.785156 136.324219 62.859375 136.234375 62.886719 L 134.71875 63.324219 C 134.613281 63.355469 134.546875 63.453125 134.550781 63.5625 L 134.632812 64.9375 C 134.640625 65.046875 134.71875 65.136719 134.828125 65.15625 L 136.382812 65.410156 C 136.472656 65.425781 136.542969 65.492188 136.566406 65.578125 C 136.644531 65.875 136.742188 66.164062 136.859375 66.453125 C 136.894531 66.539062 136.875 66.632812 136.8125 66.699219 L 135.71875 67.835938 C 135.644531 67.914062 135.632812 68.035156 135.691406 68.125 L 136.449219 69.277344 C 136.511719 69.367188 136.625 69.40625 136.726562 69.367188 L 138.203125 68.8125 C 138.289062 68.777344 138.386719 68.800781 138.449219 68.867188 C 138.667969 69.085938 138.898438 69.289062 139.136719 69.476562 C 139.207031 69.535156 139.242188 69.625 139.21875 69.714844 L 138.839844 71.242188 C 138.816406 71.347656 138.867188 71.457031 138.960938 71.507812 L 140.199219 72.125 C 140.292969 72.175781 140.410156 72.148438 140.480469 72.066406 L 141.480469 70.84375 C 141.539062 70.773438 141.632812 70.746094 141.722656 70.769531 C 142.019531 70.847656 142.320312 70.910156 142.621094 70.953125 C 142.710938 70.96875 142.789062 71.03125 142.8125 71.117188 L 143.25 72.632812 C 143.28125 72.738281 143.378906 72.808594 143.488281 72.800781 L 144.867188 72.71875 C 144.976562 72.714844 145.066406 72.632812 145.082031 72.523438 L 145.335938 70.972656 C 145.351562 70.878906 145.417969 70.808594 145.507812 70.785156 C 145.800781 70.707031 146.09375 70.609375 146.382812 70.492188 C 146.464844 70.460938 146.5625 70.476562 146.628906 70.539062 L 147.765625 71.632812 C 147.84375 71.707031 147.964844 71.71875 148.054688 71.660156 L 149.207031 70.898438 " fill-opacity="1" fill-rule="nonzero"/><path fill="#a6201e" d="M 152.148438 76.984375 C 151.144531 75.363281 151.640625 73.234375 153.261719 72.226562 C 154.886719 71.222656 157.015625 71.722656 158.019531 73.34375 C 159.027344 74.964844 158.527344 77.09375 156.90625 78.101562 C 155.285156 79.105469 153.15625 78.609375 152.148438 76.984375 Z M 159.832031 80.039062 C 159.894531 79.988281 159.914062 79.898438 159.875 79.828125 L 159.339844 78.777344 C 159.304688 78.714844 159.316406 78.644531 159.359375 78.589844 C 159.503906 78.40625 159.636719 78.222656 159.753906 78.027344 C 159.792969 77.96875 159.859375 77.933594 159.925781 77.945312 L 161.09375 78.097656 C 161.175781 78.105469 161.253906 78.058594 161.28125 77.984375 L 161.636719 77.011719 C 161.664062 76.9375 161.636719 76.851562 161.570312 76.808594 L 160.574219 76.167969 C 160.519531 76.128906 160.488281 76.0625 160.5 75.996094 C 160.535156 75.765625 160.554688 75.539062 160.5625 75.308594 C 160.5625 75.242188 160.605469 75.179688 160.667969 75.152344 L 161.757812 74.699219 C 161.832031 74.667969 161.878906 74.589844 161.863281 74.507812 L 161.6875 73.492188 C 161.671875 73.410156 161.605469 73.351562 161.523438 73.347656 L 160.34375 73.289062 C 160.277344 73.285156 160.21875 73.242188 160.195312 73.175781 C 160.109375 72.964844 160.011719 72.757812 159.902344 72.554688 C 159.871094 72.492188 159.875 72.417969 159.914062 72.363281 L 160.632812 71.425781 C 160.683594 71.363281 160.679688 71.269531 160.628906 71.207031 L 159.964844 70.414062 C 159.914062 70.351562 159.824219 70.335938 159.753906 70.371094 L 158.703125 70.910156 C 158.640625 70.941406 158.566406 70.933594 158.515625 70.890625 C 158.332031 70.746094 158.144531 70.613281 157.953125 70.492188 C 157.894531 70.457031 157.859375 70.394531 157.871094 70.324219 L 158.023438 69.15625 C 158.03125 69.074219 157.984375 68.996094 157.910156 68.96875 L 156.9375 68.613281 C 156.863281 68.585938 156.777344 68.613281 156.734375 68.683594 L 156.089844 69.675781 C 156.054688 69.734375 155.988281 69.761719 155.917969 69.75 C 155.691406 69.714844 155.464844 69.695312 155.234375 69.691406 C 155.164062 69.6875 155.101562 69.648438 155.078125 69.585938 L 154.625 68.492188 C 154.59375 68.417969 154.511719 68.375 154.433594 68.390625 L 153.414062 68.566406 C 153.332031 68.582031 153.273438 68.648438 153.269531 68.730469 L 153.210938 69.90625 C 153.207031 69.976562 153.164062 70.035156 153.101562 70.058594 C 152.886719 70.144531 152.679688 70.238281 152.476562 70.351562 C 152.414062 70.382812 152.339844 70.378906 152.285156 70.335938 L 151.347656 69.621094 C 151.285156 69.570312 151.195312 69.574219 151.132812 69.625 L 150.335938 70.289062 C 150.273438 70.339844 150.257812 70.429688 150.292969 70.5 L 150.832031 71.550781 C 150.863281 71.613281 150.855469 71.6875 150.8125 71.738281 C 150.667969 71.917969 150.535156 72.105469 150.414062 72.300781 C 150.378906 72.359375 150.3125 72.390625 150.246094 72.382812 L 149.074219 72.230469 C 148.996094 72.222656 148.917969 72.269531 148.886719 72.34375 L 148.53125 73.316406 C 148.503906 73.390625 148.535156 73.476562 148.601562 73.519531 L 149.59375 74.160156 C 149.652344 74.199219 149.679688 74.265625 149.671875 74.335938 C 149.636719 74.5625 149.617188 74.789062 149.609375 75.019531 C 149.605469 75.089844 149.566406 75.148438 149.503906 75.175781 L 148.410156 75.628906 C 148.335938 75.660156 148.292969 75.738281 148.304688 75.820312 L 148.484375 76.835938 C 148.5 76.917969 148.566406 76.976562 148.648438 76.980469 L 149.824219 77.039062 C 149.894531 77.042969 149.953125 77.085938 149.976562 77.152344 C 150.0625 77.363281 150.15625 77.570312 150.269531 77.773438 C 150.300781 77.835938 150.296875 77.910156 150.253906 77.964844 L 149.535156 78.902344 C 149.488281 78.964844 149.488281 79.058594 149.542969 79.121094 L 150.203125 79.914062 C 150.257812 79.976562 150.34375 79.992188 150.417969 79.957031 L 151.46875 79.417969 C 151.53125 79.386719 151.601562 79.394531 151.65625 79.4375 C 151.835938 79.582031 152.023438 79.714844 152.21875 79.835938 C 152.277344 79.871094 152.308594 79.9375 152.300781 80.003906 L 152.148438 81.171875 C 152.136719 81.253906 152.183594 81.332031 152.261719 81.359375 L 153.230469 81.714844 C 153.308594 81.742188 153.394531 81.714844 153.4375 81.644531 L 154.078125 80.652344 C 154.117188 80.59375 154.183594 80.566406 154.253906 80.578125 C 154.480469 80.613281 154.707031 80.632812 154.9375 80.636719 C 155.003906 80.640625 155.066406 80.679688 155.09375 80.746094 L 155.546875 81.835938 C 155.578125 81.910156 155.65625 81.953125 155.738281 81.9375 L 156.757812 81.761719 C 156.835938 81.746094 156.894531 81.679688 156.898438 81.597656 L 156.960938 80.421875 C 156.960938 80.351562 157.007812 80.292969 157.070312 80.269531 C 157.285156 80.183594 157.492188 80.089844 157.695312 79.976562 C 157.757812 79.945312 157.828125 79.949219 157.882812 79.992188 L 158.820312 80.707031 C 158.886719 80.757812 158.976562 80.753906 159.039062 80.703125 L 159.832031 80.039062 " fill-opacity="1" fill-rule="nonzero"/><path fill="#a6201e" d="M 152.507812 90.605469 C 152.449219 90.605469 152.390625 90.578125 152.347656 90.53125 C 152.027344 90.171875 151.738281 89.859375 151.480469 89.601562 C 151.394531 89.519531 151.394531 89.382812 151.476562 89.300781 C 151.558594 89.214844 151.695312 89.214844 151.78125 89.296875 C 152.046875 89.5625 152.34375 89.878906 152.667969 90.25 C 152.746094 90.339844 152.738281 90.472656 152.648438 90.550781 C 152.609375 90.585938 152.558594 90.605469 152.507812 90.605469 Z M 154.300781 92.828125 C 154.234375 92.828125 154.167969 92.800781 154.128906 92.742188 C 153.871094 92.398438 153.605469 92.054688 153.347656 91.730469 C 153.273438 91.636719 153.289062 91.503906 153.382812 91.429688 C 153.472656 91.355469 153.609375 91.371094 153.683594 91.464844 C 153.945312 91.792969 154.210938 92.136719 154.472656 92.488281 C 154.542969 92.582031 154.523438 92.714844 154.425781 92.789062 C 154.390625 92.816406 154.34375 92.828125 154.300781 92.828125 Z M 155.933594 95.171875 C 155.863281 95.171875 155.792969 95.140625 155.753906 95.078125 C 155.519531 94.71875 155.28125 94.363281 155.039062 94.015625 C 154.972656 93.914062 154.996094 93.785156 155.09375 93.714844 C 155.191406 93.648438 155.324219 93.671875 155.390625 93.769531 C 155.636719 94.125 155.878906 94.484375 156.113281 94.84375 C 156.175781 94.941406 156.148438 95.074219 156.050781 95.140625 C 156.015625 95.160156 155.972656 95.171875 155.933594 95.171875 Z M 157.414062 97.617188 C 157.339844 97.617188 157.265625 97.578125 157.226562 97.507812 C 157.019531 97.140625 156.804688 96.765625 156.582031 96.402344 C 156.523438 96.300781 156.554688 96.167969 156.65625 96.109375 C 156.757812 96.046875 156.886719 96.078125 156.949219 96.179688 C 157.171875 96.550781 157.390625 96.925781 157.597656 97.296875 C 157.65625 97.402344 157.621094 97.53125 157.515625 97.589844 C 157.484375 97.609375 157.449219 97.617188 157.414062 97.617188 Z M 158.722656 100.152344 C 158.644531 100.152344 158.566406 100.109375 158.527344 100.03125 C 158.351562 99.652344 158.160156 99.265625 157.964844 98.882812 C 157.910156 98.777344 157.953125 98.648438 158.058594 98.597656 C 158.164062 98.542969 158.292969 98.582031 158.347656 98.6875 C 158.542969 99.074219 158.734375 99.464844 158.917969 99.847656 C 158.96875 99.953125 158.921875 100.082031 158.8125 100.132812 C 158.785156 100.148438 158.753906 100.152344 158.722656 100.152344 Z M 159.835938 102.78125 C 159.75 102.78125 159.667969 102.730469 159.636719 102.644531 C 159.488281 102.25 159.332031 101.851562 159.164062 101.457031 C 159.121094 101.347656 159.171875 101.222656 159.28125 101.175781 C 159.390625 101.132812 159.515625 101.183594 159.558594 101.292969 C 159.726562 101.691406 159.886719 102.097656 160.035156 102.492188 C 160.078125 102.605469 160.023438 102.726562 159.910156 102.769531 C 159.886719 102.777344 159.859375 102.78125 159.835938 102.78125 Z M 160.707031 105.5 C 160.609375 105.5 160.523438 105.4375 160.5 105.339844 C 160.394531 104.9375 160.273438 104.527344 160.144531 104.117188 C 160.109375 104.003906 160.167969 103.882812 160.28125 103.847656 C 160.394531 103.8125 160.515625 103.875 160.550781 103.988281 C 160.683594 104.402344 160.804688 104.824219 160.914062 105.230469 C 160.941406 105.347656 160.875 105.464844 160.761719 105.492188 C 160.742188 105.5 160.722656 105.5 160.707031 105.5 Z M 161.273438 108.296875 C 161.171875 108.296875 161.078125 108.21875 161.0625 108.113281 L 161.046875 108.007812 C 160.992188 107.628906 160.925781 107.242188 160.851562 106.855469 C 160.828125 106.742188 160.902344 106.628906 161.019531 106.605469 C 161.136719 106.582031 161.246094 106.65625 161.269531 106.773438 C 161.347656 107.167969 161.414062 107.5625 161.472656 107.945312 L 161.488281 108.050781 C 161.503906 108.167969 161.421875 108.277344 161.304688 108.292969 C 161.296875 108.296875 161.285156 108.296875 161.273438 108.296875 Z M 161.542969 111.136719 C 161.429688 111.136719 161.335938 111.046875 161.328125 110.933594 C 161.308594 110.507812 161.277344 110.078125 161.242188 109.660156 C 161.230469 109.542969 161.316406 109.4375 161.4375 109.429688 C 161.554688 109.417969 161.65625 109.503906 161.667969 109.621094 C 161.707031 110.046875 161.734375 110.480469 161.757812 110.914062 C 161.761719 111.03125 161.671875 111.132812 161.554688 111.136719 C 161.550781 111.136719 161.546875 111.136719 161.542969 111.136719 Z M 161.5625 113.992188 C 161.558594 113.992188 161.558594 113.992188 161.554688 113.992188 C 161.4375 113.988281 161.34375 113.886719 161.347656 113.769531 C 161.363281 113.371094 161.371094 112.96875 161.371094 112.574219 L 161.371094 112.492188 C 161.371094 112.375 161.464844 112.277344 161.585938 112.277344 C 161.703125 112.277344 161.796875 112.375 161.796875 112.492188 L 161.796875 112.574219 C 161.796875 112.976562 161.789062 113.382812 161.777344 113.785156 C 161.773438 113.898438 161.679688 113.992188 161.5625 113.992188 Z M 161.351562 116.835938 C 161.34375 116.835938 161.335938 116.835938 161.328125 116.835938 C 161.210938 116.824219 161.125 116.714844 161.136719 116.597656 C 161.1875 116.179688 161.226562 115.75 161.261719 115.328125 C 161.269531 115.210938 161.375 115.121094 161.492188 115.132812 C 161.609375 115.140625 161.695312 115.242188 161.6875 115.363281 C 161.652344 115.789062 161.613281 116.222656 161.5625 116.648438 C 161.550781 116.757812 161.457031 116.835938 161.351562 116.835938 Z M 160.921875 119.660156 C 160.910156 119.660156 160.894531 119.660156 160.882812 119.65625 C 160.765625 119.632812 160.6875 119.523438 160.710938 119.40625 C 160.789062 118.988281 160.863281 118.566406 160.929688 118.148438 C 160.949219 118.03125 161.058594 117.949219 161.175781 117.96875 C 161.292969 117.984375 161.371094 118.09375 161.351562 118.210938 C 161.285156 118.636719 161.210938 119.066406 161.132812 119.484375 C 161.113281 119.589844 161.023438 119.660156 160.921875 119.660156 Z M 160.285156 122.441406 C 160.269531 122.441406 160.25 122.4375 160.234375 122.433594 C 160.117188 122.402344 160.050781 122.285156 160.082031 122.171875 C 160.191406 121.761719 160.292969 121.34375 160.390625 120.933594 C 160.414062 120.816406 160.53125 120.746094 160.644531 120.773438 C 160.761719 120.800781 160.832031 120.914062 160.804688 121.03125 C 160.710938 121.445312 160.605469 121.867188 160.496094 122.28125 C 160.46875 122.375 160.382812 122.441406 160.285156 122.441406 Z M 159.457031 125.167969 C 159.433594 125.167969 159.410156 125.164062 159.386719 125.15625 C 159.277344 125.117188 159.21875 124.996094 159.253906 124.882812 C 159.394531 124.480469 159.527344 124.074219 159.648438 123.667969 C 159.683594 123.554688 159.804688 123.492188 159.917969 123.527344 C 160.03125 123.5625 160.09375 123.683594 160.058594 123.796875 C 159.933594 124.203125 159.796875 124.617188 159.660156 125.019531 C 159.628906 125.109375 159.546875 125.167969 159.457031 125.167969 Z M 158.441406 127.828125 C 158.414062 127.828125 158.382812 127.824219 158.355469 127.8125 C 158.246094 127.765625 158.195312 127.640625 158.242188 127.53125 C 158.40625 127.140625 158.570312 126.742188 158.722656 126.347656 C 158.765625 126.238281 158.886719 126.183594 159 126.226562 C 159.109375 126.269531 159.164062 126.390625 159.121094 126.503906 C 158.96875 126.898438 158.804688 127.300781 158.636719 127.695312 C 158.601562 127.777344 158.523438 127.828125 158.441406 127.828125 Z M 157.238281 130.414062 C 157.207031 130.414062 157.171875 130.40625 157.140625 130.390625 C 157.035156 130.335938 156.992188 130.207031 157.046875 130.101562 C 157.238281 129.726562 157.425781 129.339844 157.605469 128.957031 C 157.65625 128.847656 157.785156 128.800781 157.890625 128.851562 C 158 128.902344 158.046875 129.03125 157.996094 129.136719 C 157.8125 129.527344 157.621094 129.917969 157.429688 130.296875 C 157.390625 130.371094 157.316406 130.414062 157.238281 130.414062 Z M 155.859375 132.910156 C 155.820312 132.910156 155.78125 132.898438 155.746094 132.878906 C 155.644531 132.816406 155.613281 132.6875 155.675781 132.585938 C 155.890625 132.222656 156.105469 131.851562 156.3125 131.480469 C 156.371094 131.375 156.503906 131.339844 156.605469 131.398438 C 156.707031 131.457031 156.746094 131.585938 156.6875 131.6875 C 156.476562 132.066406 156.261719 132.441406 156.042969 132.804688 C 156 132.871094 155.929688 132.910156 155.859375 132.910156 Z M 154.304688 135.300781 C 154.261719 135.300781 154.21875 135.285156 154.179688 135.261719 C 154.082031 135.191406 154.0625 135.058594 154.128906 134.964844 C 154.371094 134.617188 154.613281 134.261719 154.84375 133.90625 C 154.910156 133.808594 155.042969 133.78125 155.140625 133.84375 C 155.238281 133.910156 155.269531 134.042969 155.203125 134.140625 C 154.96875 134.5 154.726562 134.859375 154.480469 135.207031 C 154.4375 135.269531 154.371094 135.300781 154.304688 135.300781 Z M 152.578125 137.570312 C 152.53125 137.570312 152.484375 137.554688 152.441406 137.523438 C 152.351562 137.445312 152.335938 137.3125 152.414062 137.222656 C 152.683594 136.894531 152.949219 136.558594 153.207031 136.222656 C 153.277344 136.125 153.410156 136.109375 153.503906 136.179688 C 153.597656 136.253906 153.617188 136.386719 153.546875 136.480469 C 153.285156 136.820312 153.015625 137.160156 152.742188 137.492188 C 152.703125 137.542969 152.640625 137.570312 152.578125 137.570312 Z M 150.6875 139.707031 C 150.636719 139.707031 150.582031 139.6875 150.539062 139.648438 C 150.457031 139.566406 150.453125 139.429688 150.535156 139.34375 C 150.828125 139.039062 151.117188 138.722656 151.398438 138.40625 C 151.476562 138.316406 151.613281 138.308594 151.703125 138.390625 C 151.789062 138.46875 151.796875 138.601562 151.71875 138.691406 C 151.433594 139.011719 151.140625 139.332031 150.84375 139.640625 C 150.800781 139.683594 150.746094 139.707031 150.6875 139.707031 Z M 148.640625 141.6875 C 148.582031 141.6875 148.523438 141.664062 148.480469 141.617188 C 148.402344 141.527344 148.410156 141.390625 148.496094 141.3125 C 148.8125 141.03125 149.125 140.742188 149.433594 140.449219 C 149.515625 140.367188 149.652344 140.367188 149.734375 140.453125 C 149.816406 140.539062 149.816406 140.675781 149.730469 140.753906 C 149.417969 141.054688 149.101562 141.347656 148.78125 141.632812 C 148.742188 141.667969 148.691406 141.6875 148.640625 141.6875 Z M 146.441406 143.5 C 146.375 143.5 146.3125 143.46875 146.269531 143.414062 C 146.199219 143.320312 146.214844 143.183594 146.3125 143.113281 C 146.648438 142.859375 146.984375 142.59375 147.3125 142.328125 C 147.402344 142.25 147.539062 142.265625 147.613281 142.355469 C 147.6875 142.449219 147.675781 142.582031 147.582031 142.65625 C 147.253906 142.925781 146.910156 143.195312 146.570312 143.457031 C 146.53125 143.484375 146.484375 143.5 146.441406 143.5 Z M 144.101562 145.121094 C 144.03125 145.121094 143.960938 145.085938 143.921875 145.023438 C 143.855469 144.921875 143.886719 144.789062 143.988281 144.726562 C 144.34375 144.503906 144.699219 144.265625 145.046875 144.027344 C 145.144531 143.957031 145.277344 143.984375 145.347656 144.082031 C 145.414062 144.179688 145.390625 144.3125 145.292969 144.378906 C 144.9375 144.621094 144.578125 144.859375 144.214844 145.089844 C 144.179688 145.113281 144.140625 145.121094 144.101562 145.121094 " fill-opacity="1" fill-rule="nonzero"/><path fill="#ffffff" d="M 172.640625 113.910156 C 172.640625 120.867188 167 126.507812 160.042969 126.507812 C 153.082031 126.507812 147.441406 120.867188 147.441406 113.910156 C 147.441406 106.953125 153.082031 101.308594 160.042969 101.308594 C 167 101.308594 172.640625 106.953125 172.640625 113.910156 " fill-opacity="1" fill-rule="nonzero"/><path fill="#000000" d="M 160.042969 101.523438 C 153.210938 101.523438 147.65625 107.082031 147.65625 113.910156 C 147.65625 120.738281 153.210938 126.296875 160.042969 126.296875 C 166.871094 126.296875 172.425781 120.738281 172.425781 113.910156 C 172.425781 107.082031 166.871094 101.523438 160.042969 101.523438 Z M 160.042969 126.722656 C 152.976562 126.722656 147.226562 120.976562 147.226562 113.910156 C 147.226562 106.84375 152.976562 101.097656 160.042969 101.097656 C 167.105469 101.097656 172.855469 106.84375 172.855469 113.910156 C 172.855469 120.976562 167.105469 126.722656 160.042969 126.722656 " fill-opacity="1" fill-rule="nonzero"/><path fill="#000000" d="M 160.296875 116.34375 C 160.207031 116.34375 160.121094 116.285156 160.09375 116.191406 C 160.058594 116.078125 160.125 115.960938 160.234375 115.925781 L 166.824219 113.910156 L 160.238281 111.917969 C 160.125 111.886719 160.058594 111.765625 160.09375 111.652344 C 160.128906 111.539062 160.246094 111.476562 160.359375 111.511719 L 167.625 113.707031 C 167.714844 113.730469 167.773438 113.816406 167.777344 113.910156 C 167.777344 114.003906 167.714844 114.085938 167.625 114.113281 L 160.363281 116.335938 C 160.339844 116.339844 160.320312 116.34375 160.296875 116.34375 " fill-opacity="1" fill-rule="nonzero"/><path fill="#000000" d="M 160.296875 120.75 C 160.242188 120.75 160.183594 120.726562 160.140625 120.679688 C 160.058594 120.59375 160.066406 120.457031 160.152344 120.378906 L 167.246094 113.910156 L 160.152344 107.316406 C 160.066406 107.238281 160.0625 107.101562 160.140625 107.015625 C 160.222656 106.929688 160.355469 106.925781 160.445312 107.003906 L 167.707031 113.753906 C 167.75 113.792969 167.777344 113.851562 167.777344 113.910156 C 167.773438 113.96875 167.75 114.027344 167.707031 114.066406 L 160.441406 120.691406 C 160.402344 120.730469 160.351562 120.75 160.296875 120.75 " fill-opacity="1" fill-rule="nonzero"/><path fill="#000000" d="M 158.085938 115.171875 C 158.046875 115.171875 158.003906 115.160156 157.96875 115.136719 L 152.921875 111.746094 C 152.824219 111.679688 152.800781 111.542969 152.863281 111.445312 C 152.929688 111.347656 153.0625 111.324219 153.160156 111.390625 L 158.207031 114.78125 C 158.304688 114.847656 158.328125 114.980469 158.265625 115.078125 C 158.222656 115.140625 158.15625 115.171875 158.085938 115.171875 " fill-opacity="1" fill-rule="nonzero"/><path fill="#000000" d="M 153.464844 111.898438 C 153.398438 111.898438 153.332031 111.867188 153.292969 111.808594 C 153.222656 111.714844 153.242188 111.578125 153.339844 111.511719 L 158.769531 107.585938 C 158.863281 107.515625 158.996094 107.535156 159.066406 107.632812 C 159.136719 107.726562 159.113281 107.863281 159.019531 107.933594 L 153.589844 111.859375 C 153.550781 111.886719 153.507812 111.898438 153.464844 111.898438 " fill-opacity="1" fill-rule="nonzero"/><path fill="#000000" d="M 158.953125 120.34375 C 158.910156 120.34375 158.867188 120.332031 158.828125 120.304688 L 153.339844 116.378906 C 153.265625 116.328125 153.230469 116.230469 153.261719 116.140625 C 153.289062 116.050781 153.371094 115.992188 153.464844 115.992188 L 158.894531 115.992188 C 159.011719 115.992188 159.109375 116.089844 159.109375 116.207031 C 159.109375 116.324219 159.011719 116.421875 158.894531 116.421875 L 154.132812 116.421875 L 159.078125 119.957031 C 159.175781 120.023438 159.195312 120.15625 159.128906 120.253906 C 159.085938 120.3125 159.019531 120.34375 158.953125 120.34375 " fill-opacity="1" fill-rule="nonzero"/><path fill="#000000" d="M 158.894531 111.929688 L 153.152344 111.929688 C 153.03125 111.929688 152.9375 111.832031 152.9375 111.714844 C 152.9375 111.597656 153.03125 111.5 153.152344 111.5 L 158.894531 111.5 C 159.011719 111.5 159.109375 111.597656 159.109375 111.714844 C 159.109375 111.832031 159.011719 111.929688 158.894531 111.929688 " fill-opacity="1" fill-rule="nonzero"/><path fill="#a6201e" d="M 151.746094 111.714844 C 151.746094 110.941406 152.375 110.308594 153.152344 110.308594 C 153.925781 110.308594 154.554688 110.941406 154.554688 111.714844 C 154.554688 112.492188 153.925781 113.121094 153.152344 113.121094 C 152.375 113.121094 151.746094 112.492188 151.746094 111.714844 " fill-opacity="1" fill-rule="nonzero"/><path fill="#000000" d="M 153.148438 110.523438 C 152.492188 110.523438 151.960938 111.058594 151.960938 111.714844 C 151.960938 112.371094 152.492188 112.90625 153.148438 112.90625 C 153.804688 112.90625 154.339844 112.371094 154.339844 111.714844 C 154.339844 111.058594 153.804688 110.523438 153.148438 110.523438 Z M 153.148438 113.335938 C 152.257812 113.335938 151.53125 112.609375 151.53125 111.714844 C 151.53125 110.824219 152.257812 110.097656 153.148438 110.097656 C 154.042969 110.097656 154.769531 110.824219 154.769531 111.714844 C 154.769531 112.609375 154.042969 113.335938 153.148438 113.335938 " fill-opacity="1" fill-rule="nonzero"/><path fill="#14697d" d="M 158.894531 111.714844 C 158.894531 110.941406 159.523438 110.3125 160.296875 110.3125 C 161.074219 110.3125 161.703125 110.941406 161.703125 111.714844 C 161.703125 112.492188 161.074219 113.121094 160.296875 113.121094 C 159.523438 113.121094 158.894531 112.492188 158.894531 111.714844 " fill-opacity="1" fill-rule="nonzero"/><path fill="#000000" d="M 160.296875 110.523438 C 159.640625 110.523438 159.109375 111.058594 159.109375 111.714844 C 159.109375 112.371094 159.640625 112.90625 160.296875 112.90625 C 160.953125 112.90625 161.488281 112.371094 161.488281 111.714844 C 161.488281 111.058594 160.953125 110.523438 160.296875 110.523438 Z M 160.296875 113.332031 C 159.40625 113.332031 158.679688 112.605469 158.679688 111.714844 C 158.679688 110.820312 159.40625 110.097656 160.296875 110.097656 C 161.191406 110.097656 161.917969 110.820312 161.917969 111.714844 C 161.917969 112.605469 161.191406 113.332031 160.296875 113.332031 " fill-opacity="1" fill-rule="nonzero"/><path fill="#14697d" d="M 158.894531 107.160156 C 158.894531 106.386719 159.523438 105.757812 160.296875 105.757812 C 161.074219 105.757812 161.703125 106.386719 161.703125 107.160156 C 161.703125 107.9375 161.074219 108.566406 160.296875 108.566406 C 159.523438 108.566406 158.894531 107.9375 158.894531 107.160156 " fill-opacity="1" fill-rule="nonzero"/><path fill="#000000" d="M 160.296875 105.96875 C 159.640625 105.96875 159.109375 106.503906 159.109375 107.160156 C 159.109375 107.816406 159.640625 108.351562 160.296875 108.351562 C 160.953125 108.351562 161.488281 107.816406 161.488281 107.160156 C 161.488281 106.503906 160.953125 105.96875 160.296875 105.96875 Z M 160.296875 108.78125 C 159.40625 108.78125 158.679688 108.054688 158.679688 107.160156 C 158.679688 106.269531 159.40625 105.542969 160.296875 105.542969 C 161.191406 105.542969 161.917969 106.269531 161.917969 107.160156 C 161.917969 108.054688 161.191406 108.78125 160.296875 108.78125 " fill-opacity="1" fill-rule="nonzero"/><path fill="#14697d" d="M 158.894531 120.535156 C 158.894531 119.757812 159.523438 119.128906 160.296875 119.128906 C 161.074219 119.128906 161.703125 119.757812 161.703125 120.535156 C 161.703125 121.3125 161.074219 121.941406 160.296875 121.941406 C 159.523438 121.941406 158.894531 121.3125 158.894531 120.535156 " fill-opacity="1" fill-rule="nonzero"/><path fill="#000000" d="M 160.296875 119.34375 C 159.640625 119.34375 159.109375 119.878906 159.109375 120.535156 C 159.109375 121.191406 159.640625 121.726562 160.296875 121.726562 C 160.953125 121.726562 161.488281 121.191406 161.488281 120.535156 C 161.488281 119.878906 160.953125 119.34375 160.296875 119.34375 Z M 160.296875 122.152344 C 159.40625 122.152344 158.679688 121.429688 158.679688 120.535156 C 158.679688 119.640625 159.40625 118.917969 160.296875 118.917969 C 161.191406 118.917969 161.917969 119.640625 161.917969 120.535156 C 161.917969 121.429688 161.191406 122.152344 160.296875 122.152344 " fill-opacity="1" fill-rule="nonzero"/><path fill="#000000" d="M 153.042969 116.402344 C 152.976562 116.402344 152.910156 116.367188 152.867188 116.308594 C 152.800781 116.214844 152.824219 116.078125 152.917969 116.011719 L 157.964844 112.429688 C 158.058594 112.363281 158.191406 112.382812 158.261719 112.480469 C 158.328125 112.578125 158.308594 112.710938 158.210938 112.78125 L 153.167969 116.359375 C 153.128906 116.386719 153.085938 116.402344 153.042969 116.402344 " fill-opacity="1" fill-rule="nonzero"/><path fill="#14697d" d="M 158.894531 116.128906 C 158.894531 115.355469 159.523438 114.726562 160.296875 114.726562 C 161.074219 114.726562 161.703125 115.355469 161.703125 116.128906 C 161.703125 116.90625 161.074219 117.535156 160.296875 117.535156 C 159.523438 117.535156 158.894531 116.90625 158.894531 116.128906 " fill-opacity="1" fill-rule="nonzero"/><path fill="#000000" d="M 160.296875 114.941406 C 159.640625 114.941406 159.109375 115.472656 159.109375 116.128906 C 159.109375 116.785156 159.640625 117.320312 160.296875 117.320312 C 160.953125 117.320312 161.488281 116.785156 161.488281 116.128906 C 161.488281 115.472656 160.953125 114.941406 160.296875 114.941406 Z M 160.296875 117.75 C 159.40625 117.75 158.679688 117.023438 158.679688 116.128906 C 158.679688 115.238281 159.40625 114.511719 160.296875 114.511719 C 161.191406 114.511719 161.917969 115.238281 161.917969 116.128906 C 161.917969 117.023438 161.191406 117.75 160.296875 117.75 " fill-opacity="1" fill-rule="nonzero"/><path fill="#ffffff" d="M 166.15625 113.910156 C 166.15625 113.132812 166.785156 112.507812 167.5625 112.507812 C 168.335938 112.507812 168.964844 113.132812 168.964844 113.910156 C 168.964844 114.6875 168.335938 115.316406 167.5625 115.316406 C 166.785156 115.316406 166.15625 114.6875 166.15625 113.910156 " fill-opacity="1" fill-rule="nonzero"/><path fill="#000000" d="M 167.5625 112.71875 C 166.90625 112.71875 166.371094 113.253906 166.371094 113.910156 C 166.371094 114.566406 166.90625 115.101562 167.5625 115.101562 C 168.21875 115.101562 168.75 114.566406 168.75 113.910156 C 168.75 113.253906 168.21875 112.71875 167.5625 112.71875 Z M 167.5625 115.527344 C 166.667969 115.527344 165.941406 114.800781 165.941406 113.910156 C 165.941406 113.019531 166.667969 112.292969 167.5625 112.292969 C 168.453125 112.292969 169.179688 113.019531 169.179688 113.910156 C 169.179688 114.800781 168.453125 115.527344 167.5625 115.527344 " fill-opacity="1" fill-rule="nonzero"/><path fill="#a6201e" d="M 151.746094 116.128906 C 151.746094 115.355469 152.375 114.726562 153.152344 114.726562 C 153.925781 114.726562 154.554688 115.355469 154.554688 116.128906 C 154.554688 116.90625 153.925781 117.535156 153.152344 117.535156 C 152.375 117.535156 151.746094 116.90625 151.746094 116.128906 " fill-opacity="1" fill-rule="nonzero"/><path fill="#000000" d="M 153.148438 114.941406 C 152.492188 114.941406 151.960938 115.472656 151.960938 116.128906 C 151.960938 116.789062 152.492188 117.320312 153.148438 117.320312 C 153.804688 117.320312 154.339844 116.789062 154.339844 116.128906 C 154.339844 115.472656 153.804688 114.941406 153.148438 114.941406 Z M 153.148438 117.75 C 152.257812 117.75 151.53125 117.023438 151.53125 116.128906 C 151.53125 115.238281 152.257812 114.511719 153.148438 114.511719 C 154.042969 114.511719 154.769531 115.238281 154.769531 116.128906 C 154.769531 117.023438 154.042969 117.75 153.148438 117.75 " fill-opacity="1" fill-rule="nonzero"/></svg>