<svg xmlns="http://www.w3.org/2000/svg" xmlns:xlink="http://www.w3.org/1999/xlink" width="300" zoomAndPan="magnify" viewBox="0 0 224.87999 225" height="300" preserveAspectRatio="xMidYMid meet" version="1.0"><path fill="#ffbf23" d="M 83.234375 87.878906 C 95.824219 75.207031 92.21875 67.265625 100.832031 61.398438 C 114.085938 52.371094 138.820312 60.136719 153.414062 72.554688 C 171.289062 87.761719 180.511719 115.53125 170.007812 140.652344 C 158.816406 167.40625 129.382812 181.292969 103.117188 177.109375 C 79.660156 173.371094 56.605469 154.882812 54.292969 132.707031 C 54.042969 130.304688 52.9375 117.3125 60.691406 106.109375 C 67.101562 96.851562 73.253906 97.921875 83.234375 87.878906 " fill-opacity="1" fill-rule="nonzero"/><path fill="#ffffff" d="M 155.585938 157.144531 C 155.179688 157.195312 154.8125 156.90625 154.761719 156.5 C 154.710938 156.09375 154.996094 155.726562 155.402344 155.675781 C 155.808594 155.625 156.179688 155.914062 156.230469 156.316406 C 156.277344 156.722656 155.992188 157.09375 155.585938 157.144531 " fill-opacity="1" fill-rule="nonzero"/><path fill="#000000" d="M 156.933594 63.945312 C 156.902344 63.953125 156.875 63.960938 156.84375 63.972656 C 156.664062 64.046875 156.519531 64.183594 156.445312 64.363281 C 156.367188 64.542969 156.363281 64.742188 156.4375 64.921875 C 156.511719 65.105469 156.648438 65.246094 156.828125 65.324219 C 157.007812 65.398438 157.207031 65.402344 157.386719 65.332031 C 157.761719 65.179688 157.945312 64.753906 157.796875 64.378906 C 157.722656 64.199219 157.582031 64.054688 157.402344 63.980469 C 157.253906 63.914062 157.089844 63.902344 156.933594 63.945312 Z M 157.378906 65.65625 C 157.15625 65.714844 156.921875 65.695312 156.710938 65.605469 C 156.453125 65.496094 156.257812 65.292969 156.15625 65.039062 C 156.050781 64.78125 156.054688 64.5 156.164062 64.242188 C 156.273438 63.988281 156.476562 63.792969 156.730469 63.691406 C 156.988281 63.585938 157.269531 63.589844 157.523438 63.699219 C 157.777344 63.808594 157.976562 64.011719 158.078125 64.265625 C 158.289062 64.796875 158.03125 65.402344 157.5 65.613281 C 157.460938 65.628906 157.417969 65.644531 157.378906 65.65625 " fill-opacity="1" fill-rule="nonzero"/><path fill="#000000" d="M 150.679688 61.332031 C 150.679688 61.332031 150.679688 61.335938 150.679688 61.335938 C 150.570312 61.386719 150.441406 61.339844 150.390625 61.230469 L 150.082031 60.585938 C 150.03125 60.480469 150.078125 60.351562 150.183594 60.300781 C 150.183594 60.296875 150.1875 60.296875 150.1875 60.296875 C 150.296875 60.246094 150.425781 60.292969 150.476562 60.402344 L 150.78125 61.042969 C 150.835938 61.152344 150.789062 61.28125 150.679688 61.332031 " fill-opacity="1" fill-rule="nonzero"/><path fill="#000000" d="M 151.753906 63.585938 C 151.644531 63.640625 151.515625 63.59375 151.464844 63.484375 L 151.15625 62.839844 C 151.105469 62.734375 151.152344 62.605469 151.257812 62.550781 C 151.257812 62.550781 151.261719 62.550781 151.261719 62.550781 C 151.367188 62.5 151.5 62.546875 151.550781 62.652344 L 151.855469 63.296875 C 151.910156 63.40625 151.863281 63.535156 151.753906 63.585938 " fill-opacity="1" fill-rule="nonzero"/><path fill="#000000" d="M 150.261719 62.527344 L 149.621094 62.835938 C 149.511719 62.890625 149.382812 62.84375 149.332031 62.734375 C 149.277344 62.628906 149.324219 62.496094 149.429688 62.445312 L 150.074219 62.132812 C 150.179688 62.082031 150.3125 62.128906 150.363281 62.234375 C 150.414062 62.34375 150.371094 62.472656 150.261719 62.527344 " fill-opacity="1" fill-rule="nonzero"/><path fill="#000000" d="M 152.507812 61.441406 L 151.867188 61.75 C 151.757812 61.800781 151.628906 61.757812 151.578125 61.648438 C 151.523438 61.539062 151.570312 61.410156 151.675781 61.359375 L 152.320312 61.046875 C 152.425781 60.996094 152.558594 61.039062 152.609375 61.148438 C 152.664062 61.257812 152.617188 61.386719 152.507812 61.441406 " fill-opacity="1" fill-rule="nonzero"/><path fill="#000000" d="M 65.230469 89.460938 C 65.175781 89.460938 65.117188 89.4375 65.074219 89.394531 C 64.992188 89.308594 64.992188 89.171875 65.078125 89.085938 L 65.648438 88.527344 C 65.734375 88.441406 65.871094 88.441406 65.957031 88.527344 C 66.042969 88.613281 66.039062 88.75 65.953125 88.835938 L 65.382812 89.398438 C 65.339844 89.441406 65.285156 89.460938 65.230469 89.460938 " fill-opacity="1" fill-rule="nonzero"/><path fill="#000000" d="M 63.230469 91.429688 C 63.175781 91.429688 63.121094 91.410156 63.078125 91.367188 C 62.992188 91.28125 62.992188 91.144531 63.078125 91.058594 L 63.652344 90.496094 C 63.734375 90.410156 63.875 90.414062 63.957031 90.5 C 64.042969 90.582031 64.042969 90.722656 63.957031 90.804688 L 63.386719 91.367188 C 63.34375 91.410156 63.289062 91.429688 63.230469 91.429688 " fill-opacity="1" fill-rule="nonzero"/><path fill="#000000" d="M 63.808594 89.453125 C 63.753906 89.453125 63.699219 89.433594 63.65625 89.390625 L 63.089844 88.820312 C 63.003906 88.738281 63.003906 88.601562 63.089844 88.515625 C 63.175781 88.429688 63.3125 88.429688 63.398438 88.515625 L 63.964844 89.082031 C 64.046875 89.167969 64.046875 89.304688 63.964844 89.390625 C 63.921875 89.433594 63.863281 89.453125 63.808594 89.453125 " fill-opacity="1" fill-rule="nonzero"/><path fill="#000000" d="M 65.789062 91.441406 C 65.734375 91.441406 65.679688 91.421875 65.636719 91.378906 L 65.070312 90.808594 C 64.984375 90.726562 64.984375 90.585938 65.070312 90.503906 C 65.15625 90.417969 65.292969 90.417969 65.378906 90.503906 L 65.945312 91.070312 C 66.03125 91.15625 66.03125 91.292969 65.945312 91.378906 C 65.902344 91.421875 65.847656 91.441406 65.789062 91.441406 " fill-opacity="1" fill-rule="nonzero"/><path fill="#ffbf23" d="M 153.535156 159.460938 C 153.136719 159.96875 152.398438 160.0625 151.890625 159.664062 C 151.378906 159.265625 151.285156 158.53125 151.683594 158.019531 C 152.082031 157.507812 152.816406 157.417969 153.328125 157.816406 C 153.839844 158.210938 153.929688 158.949219 153.535156 159.460938 " fill-opacity="1" fill-rule="nonzero"/><path fill="#000000" d="M 59.519531 95.003906 C 59.484375 95.003906 59.453125 95.003906 59.417969 95.007812 C 59.207031 95.035156 59.019531 95.140625 58.890625 95.308594 C 58.761719 95.476562 58.703125 95.683594 58.730469 95.894531 C 58.753906 96.105469 58.863281 96.292969 59.027344 96.421875 C 59.195312 96.554688 59.40625 96.609375 59.613281 96.585938 C 59.824219 96.558594 60.011719 96.453125 60.140625 96.285156 C 60.273438 96.117188 60.328125 95.910156 60.304688 95.699219 C 60.277344 95.488281 60.171875 95.300781 60.003906 95.171875 C 59.863281 95.0625 59.695312 95.003906 59.519531 95.003906 Z M 59.515625 97.023438 C 59.242188 97.023438 58.980469 96.9375 58.761719 96.765625 C 58.503906 96.566406 58.339844 96.273438 58.296875 95.949219 C 58.257812 95.625 58.34375 95.300781 58.546875 95.042969 C 58.75 94.78125 59.039062 94.617188 59.363281 94.578125 C 59.691406 94.535156 60.011719 94.625 60.269531 94.828125 C 60.53125 95.027344 60.695312 95.320312 60.734375 95.644531 C 60.777344 95.972656 60.6875 96.292969 60.484375 96.550781 C 60.285156 96.808594 59.992188 96.976562 59.667969 97.015625 C 59.617188 97.023438 59.566406 97.023438 59.515625 97.023438 " fill-opacity="1" fill-rule="nonzero"/><path fill="#000000" d="M 122.207031 80.042969 C 122.148438 80.042969 122.09375 80.019531 122.050781 79.976562 C 121.964844 79.890625 121.96875 79.753906 122.054688 79.667969 L 122.625 79.105469 C 122.710938 79.023438 122.847656 79.023438 122.933594 79.109375 C 123.015625 79.195312 123.015625 79.332031 122.929688 79.414062 L 122.359375 79.976562 C 122.316406 80.019531 122.261719 80.042969 122.207031 80.042969 " fill-opacity="1" fill-rule="nonzero"/><path fill="#000000" d="M 120.207031 82.011719 C 120.148438 82.011719 120.09375 81.988281 120.050781 81.945312 C 119.96875 81.859375 119.96875 81.722656 120.054688 81.640625 L 120.625 81.078125 C 120.710938 80.992188 120.847656 80.992188 120.933594 81.078125 C 121.015625 81.164062 121.015625 81.300781 120.929688 81.386719 L 120.359375 81.949219 C 120.316406 81.992188 120.261719 82.011719 120.207031 82.011719 " fill-opacity="1" fill-rule="nonzero"/><path fill="#000000" d="M 120.785156 80.035156 C 120.726562 80.035156 120.671875 80.011719 120.628906 79.972656 L 120.0625 79.402344 C 119.980469 79.316406 119.980469 79.179688 120.0625 79.09375 C 120.148438 79.011719 120.285156 79.011719 120.371094 79.097656 L 120.9375 79.664062 C 121.023438 79.75 121.023438 79.886719 120.9375 79.972656 C 120.894531 80.015625 120.839844 80.035156 120.785156 80.035156 " fill-opacity="1" fill-rule="nonzero"/><path fill="#000000" d="M 122.765625 82.023438 C 122.710938 82.023438 122.652344 82 122.613281 81.960938 L 122.046875 81.390625 C 121.960938 81.304688 121.960938 81.167969 122.046875 81.082031 C 122.128906 81 122.269531 81 122.351562 81.085938 L 122.917969 81.652344 C 123.003906 81.738281 123.003906 81.875 122.917969 81.960938 C 122.875 82 122.820312 82.023438 122.765625 82.023438 " fill-opacity="1" fill-rule="nonzero"/><path fill="#ffffff" d="M 164.554688 136.324219 L 73.65625 136.324219 C 71.648438 136.324219 70.023438 134.730469 70.023438 132.765625 L 70.023438 71.703125 C 70.023438 69.738281 71.648438 68.144531 73.65625 68.144531 L 164.554688 68.144531 C 166.5625 68.144531 168.1875 69.738281 168.1875 71.703125 L 168.1875 132.765625 C 168.1875 134.730469 166.5625 136.324219 164.554688 136.324219 " fill-opacity="1" fill-rule="nonzero"/><path fill="#000000" d="M 73.65625 68.359375 C 71.773438 68.359375 70.238281 69.859375 70.238281 71.703125 L 70.238281 132.765625 C 70.238281 134.605469 71.773438 136.105469 73.65625 136.105469 L 164.554688 136.105469 C 166.4375 136.105469 167.972656 134.605469 167.972656 132.765625 L 167.972656 71.703125 C 167.972656 69.859375 166.4375 68.359375 164.554688 68.359375 Z M 164.554688 136.539062 L 73.65625 136.539062 C 71.53125 136.539062 69.804688 134.847656 69.804688 132.765625 L 69.804688 71.703125 C 69.804688 69.621094 71.53125 67.925781 73.65625 67.925781 L 164.554688 67.925781 C 166.679688 67.925781 168.40625 69.621094 168.40625 71.703125 L 168.40625 132.765625 C 168.40625 134.847656 166.679688 136.539062 164.554688 136.539062 " fill-opacity="1" fill-rule="nonzero"/><path fill="#ffbf23" d="M 73.65625 69.535156 C 72.433594 69.535156 71.441406 70.507812 71.441406 71.703125 L 71.441406 132.765625 C 71.441406 133.957031 72.433594 134.933594 73.65625 134.933594 L 164.554688 134.933594 C 165.777344 134.933594 166.769531 133.957031 166.769531 132.765625 L 166.769531 71.703125 C 166.769531 70.507812 165.777344 69.535156 164.554688 69.535156 L 73.65625 69.535156 " fill-opacity="1" fill-rule="nonzero"/><path fill="#000000" d="M 73.25 91.996094 C 73.132812 91.996094 73.035156 91.898438 73.035156 91.777344 L 73.035156 73.078125 C 73.035156 71.980469 73.941406 71.089844 75.058594 71.089844 L 78.519531 71.089844 C 78.640625 71.089844 78.734375 71.1875 78.734375 71.304688 C 78.734375 71.425781 78.640625 71.523438 78.519531 71.523438 L 75.058594 71.523438 C 74.179688 71.523438 73.46875 72.222656 73.46875 73.078125 L 73.46875 91.777344 C 73.46875 91.898438 73.371094 91.996094 73.25 91.996094 " fill-opacity="1" fill-rule="nonzero"/><path fill="#000000" d="M 73.25 119.0625 C 73.132812 119.0625 73.035156 118.964844 73.035156 118.84375 L 73.035156 110.09375 C 73.035156 109.972656 73.132812 109.875 73.25 109.875 C 73.371094 109.875 73.46875 109.972656 73.46875 110.09375 L 73.46875 118.84375 C 73.46875 118.964844 73.371094 119.0625 73.25 119.0625 " fill-opacity="1" fill-rule="nonzero"/><path fill="#000000" d="M 73.25 128.628906 C 73.132812 128.628906 73.035156 128.53125 73.035156 128.410156 L 73.035156 124.65625 C 73.035156 124.535156 73.132812 124.4375 73.25 124.4375 C 73.371094 124.4375 73.46875 124.535156 73.46875 124.65625 L 73.46875 128.410156 C 73.46875 128.53125 73.371094 128.628906 73.25 128.628906 " fill-opacity="1" fill-rule="nonzero"/><path fill="#000000" d="M 80.296875 133.375 L 75.058594 133.375 C 73.941406 133.375 73.035156 132.484375 73.035156 131.390625 C 73.035156 131.269531 73.132812 131.171875 73.25 131.171875 C 73.371094 131.171875 73.46875 131.269531 73.46875 131.390625 C 73.46875 132.246094 74.179688 132.941406 75.058594 132.941406 L 80.296875 132.941406 C 80.417969 132.941406 80.515625 133.039062 80.515625 133.160156 C 80.515625 133.28125 80.417969 133.375 80.296875 133.375 " fill-opacity="1" fill-rule="nonzero"/><path fill="#000000" d="M 163.53125 133.375 L 159.679688 133.375 C 159.558594 133.375 159.460938 133.28125 159.460938 133.160156 C 159.460938 133.039062 159.558594 132.941406 159.679688 132.941406 L 163.53125 132.941406 C 164.199219 132.941406 164.742188 132.398438 164.742188 131.730469 L 164.742188 73.078125 C 164.742188 72.222656 164.03125 71.523438 163.152344 71.523438 L 155.246094 71.523438 C 155.125 71.523438 155.027344 71.425781 155.027344 71.304688 C 155.027344 71.1875 155.125 71.089844 155.246094 71.089844 L 163.152344 71.089844 C 164.269531 71.089844 165.175781 71.980469 165.175781 73.078125 L 165.175781 131.730469 C 165.175781 132.636719 164.4375 133.375 163.53125 133.375 " fill-opacity="1" fill-rule="nonzero"/><path fill="#000000" d="M 131.21875 71.523438 L 122.738281 71.523438 C 122.617188 71.523438 122.519531 71.425781 122.519531 71.304688 C 122.519531 71.1875 122.617188 71.089844 122.738281 71.089844 L 131.21875 71.089844 C 131.339844 71.089844 131.4375 71.1875 131.4375 71.304688 C 131.4375 71.425781 131.339844 71.523438 131.21875 71.523438 " fill-opacity="1" fill-rule="nonzero"/><path fill="#14697d" d="M 117.285156 60.0625 C 117.285156 58.9375 116.375 58.023438 115.246094 58.023438 L 83.503906 58.023438 C 82.378906 58.023438 81.464844 58.9375 81.464844 60.0625 L 81.464844 81.074219 C 81.464844 82.203125 82.378906 83.113281 83.503906 83.113281 L 115.246094 83.113281 C 116.375 83.113281 117.285156 82.203125 117.285156 81.074219 L 117.285156 60.0625 " fill-opacity="1" fill-rule="nonzero"/><path fill="#ffffff" d="M 113.5 71.792969 C 113.5 72.1875 113.179688 72.507812 112.785156 72.507812 L 85.964844 72.507812 C 85.570312 72.507812 85.25 72.1875 85.25 71.792969 L 85.25 61.363281 C 85.25 60.96875 85.570312 60.648438 85.964844 60.648438 L 112.785156 60.648438 C 113.179688 60.648438 113.5 60.96875 113.5 61.363281 L 113.5 71.792969 " fill-opacity="1" fill-rule="nonzero"/><path fill="#000000" d="M 88.101562 67.542969 C 88.054688 67.542969 88.003906 67.523438 87.96875 67.488281 L 86.835938 66.355469 C 86.765625 66.285156 86.765625 66.164062 86.835938 66.09375 L 87.96875 64.960938 C 88.042969 64.886719 88.160156 64.886719 88.234375 64.960938 C 88.304688 65.03125 88.304688 65.152344 88.234375 65.222656 L 87.230469 66.226562 L 88.234375 67.226562 C 88.304688 67.296875 88.304688 67.417969 88.234375 67.488281 C 88.195312 67.523438 88.148438 67.542969 88.101562 67.542969 " fill-opacity="1" fill-rule="nonzero"/><path fill="#000000" d="M 110.648438 67.542969 C 110.601562 67.542969 110.554688 67.523438 110.519531 67.488281 C 110.445312 67.417969 110.445312 67.296875 110.519531 67.226562 L 111.519531 66.226562 L 110.519531 65.222656 C 110.445312 65.152344 110.445312 65.03125 110.519531 64.960938 C 110.589844 64.886719 110.707031 64.886719 110.78125 64.960938 L 111.914062 66.09375 C 111.984375 66.164062 111.984375 66.285156 111.914062 66.355469 L 110.78125 67.488281 C 110.746094 67.523438 110.695312 67.542969 110.648438 67.542969 " fill-opacity="1" fill-rule="nonzero"/><path fill="#000000" d="M 96.886719 74.808594 C 96.886719 75.078125 96.667969 75.296875 96.398438 75.296875 C 96.128906 75.296875 95.914062 75.078125 95.914062 74.808594 C 95.914062 74.539062 96.128906 74.320312 96.398438 74.320312 C 96.667969 74.320312 96.886719 74.539062 96.886719 74.808594 " fill-opacity="1" fill-rule="nonzero"/><path fill="#000000" d="M 99.863281 74.808594 C 99.863281 75.078125 99.644531 75.296875 99.375 75.296875 C 99.105469 75.296875 98.886719 75.078125 98.886719 74.808594 C 98.886719 74.539062 99.105469 74.320312 99.375 74.320312 C 99.644531 74.320312 99.863281 74.539062 99.863281 74.808594 " fill-opacity="1" fill-rule="nonzero"/><path fill="#000000" d="M 102.839844 74.808594 C 102.839844 75.078125 102.621094 75.296875 102.351562 75.296875 C 102.082031 75.296875 101.863281 75.078125 101.863281 74.808594 C 101.863281 74.539062 102.082031 74.320312 102.351562 74.320312 C 102.621094 74.320312 102.839844 74.539062 102.839844 74.808594 " fill-opacity="1" fill-rule="nonzero"/><path fill="#ffbf23" d="M 97.890625 79.601562 C 97.890625 80 97.570312 80.320312 97.171875 80.320312 L 85.964844 80.320312 C 85.570312 80.320312 85.25 80 85.25 79.601562 L 85.25 77.902344 C 85.25 77.503906 85.570312 77.183594 85.964844 77.183594 L 97.171875 77.183594 C 97.570312 77.183594 97.890625 77.503906 97.890625 77.902344 L 97.890625 79.601562 " fill-opacity="1" fill-rule="nonzero"/><path fill="#ffbf23" d="M 113.5 79.601562 C 113.5 80 113.179688 80.320312 112.785156 80.320312 L 101.578125 80.320312 C 101.183594 80.320312 100.859375 80 100.859375 79.601562 L 100.859375 77.902344 C 100.859375 77.503906 101.183594 77.183594 101.578125 77.183594 L 112.785156 77.183594 C 113.179688 77.183594 113.5 77.503906 113.5 77.902344 L 113.5 79.601562 " fill-opacity="1" fill-rule="nonzero"/><path fill="#14697d" d="M 117.03125 93.480469 C 117.03125 92.355469 116.117188 91.441406 114.992188 91.441406 L 83.246094 91.441406 C 82.121094 91.441406 81.207031 92.355469 81.207031 93.480469 L 81.207031 114.496094 C 81.207031 115.621094 82.121094 116.535156 83.246094 116.535156 L 114.992188 116.535156 C 116.117188 116.535156 117.03125 115.621094 117.03125 114.496094 L 117.03125 93.480469 " fill-opacity="1" fill-rule="nonzero"/><path fill="#ffbf23" d="M 93.566406 101.976562 C 93.566406 102.375 93.246094 102.695312 92.851562 102.695312 L 85.710938 102.695312 C 85.3125 102.695312 84.992188 102.375 84.992188 101.976562 L 84.992188 94.914062 C 84.992188 94.515625 85.3125 94.195312 85.710938 94.195312 L 92.851562 94.195312 C 93.246094 94.195312 93.566406 94.515625 93.566406 94.914062 L 93.566406 101.976562 " fill-opacity="1" fill-rule="nonzero"/><path fill="#ffffff" d="M 103.40625 101.976562 C 103.40625 102.375 103.085938 102.695312 102.6875 102.695312 L 95.546875 102.695312 C 95.152344 102.695312 94.832031 102.375 94.832031 101.976562 L 94.832031 94.914062 C 94.832031 94.515625 95.152344 94.195312 95.546875 94.195312 L 102.6875 94.195312 C 103.085938 94.195312 103.40625 94.515625 103.40625 94.914062 L 103.40625 101.976562 " fill-opacity="1" fill-rule="nonzero"/><path fill="#ffbf23" d="M 113.246094 101.976562 C 113.246094 102.375 112.925781 102.695312 112.527344 102.695312 L 105.386719 102.695312 C 104.992188 102.695312 104.671875 102.375 104.671875 101.976562 L 104.671875 94.914062 C 104.671875 94.515625 104.992188 94.195312 105.386719 94.195312 L 112.527344 94.195312 C 112.925781 94.195312 113.246094 94.515625 113.246094 94.914062 L 113.246094 101.976562 " fill-opacity="1" fill-rule="nonzero"/><path fill="#ffbf23" d="M 93.566406 105.355469 C 93.566406 105.75 93.246094 106.070312 92.851562 106.070312 L 85.710938 106.070312 C 85.3125 106.070312 84.992188 105.75 84.992188 105.355469 L 84.992188 105.289062 C 84.992188 104.890625 85.3125 104.570312 85.710938 104.570312 L 92.851562 104.570312 C 93.246094 104.570312 93.566406 104.890625 93.566406 105.289062 L 93.566406 105.355469 " fill-opacity="1" fill-rule="nonzero"/><path fill="#ffffff" d="M 102.6875 106.070312 L 95.546875 106.070312 C 95.152344 106.070312 94.832031 105.75 94.832031 105.355469 L 94.832031 105.289062 C 94.832031 104.890625 95.152344 104.570312 95.546875 104.570312 L 102.6875 104.570312 C 103.085938 104.570312 103.40625 104.890625 103.40625 105.289062 L 103.40625 105.355469 C 103.40625 105.75 103.085938 106.070312 102.6875 106.070312 " fill-opacity="1" fill-rule="nonzero"/><path fill="#ffbf23" d="M 113.246094 105.355469 C 113.246094 105.75 112.925781 106.070312 112.527344 106.070312 L 105.386719 106.070312 C 104.992188 106.070312 104.671875 105.75 104.671875 105.355469 L 104.671875 105.289062 C 104.671875 104.890625 104.992188 104.570312 105.386719 104.570312 L 112.527344 104.570312 C 112.925781 104.570312 113.246094 104.890625 113.246094 105.289062 L 113.246094 105.355469 " fill-opacity="1" fill-rule="nonzero"/><path fill="#ffbf23" d="M 92.671875 108.117188 L 90.878906 108.117188 C 90.777344 108.117188 90.695312 108.035156 90.695312 107.929688 C 90.695312 107.828125 90.777344 107.746094 90.878906 107.746094 L 92.671875 107.746094 C 92.773438 107.746094 92.855469 107.828125 92.855469 107.929688 C 92.855469 108.035156 92.773438 108.117188 92.671875 108.117188 " fill-opacity="1" fill-rule="nonzero"/><path fill="#ffbf23" d="M 89.898438 108.117188 L 85.890625 108.117188 C 85.789062 108.117188 85.703125 108.035156 85.703125 107.929688 C 85.703125 107.828125 85.789062 107.746094 85.890625 107.746094 L 89.898438 107.746094 C 90 107.746094 90.085938 107.828125 90.085938 107.929688 C 90.085938 108.035156 90 108.117188 89.898438 108.117188 " fill-opacity="1" fill-rule="nonzero"/><path fill="#ffbf23" d="M 92.671875 109.183594 L 88.359375 109.183594 C 88.253906 109.183594 88.171875 109.101562 88.171875 108.996094 C 88.171875 108.894531 88.253906 108.8125 88.359375 108.8125 L 92.671875 108.8125 C 92.773438 108.8125 92.855469 108.894531 92.855469 108.996094 C 92.855469 109.101562 92.773438 109.183594 92.671875 109.183594 " fill-opacity="1" fill-rule="nonzero"/><path fill="#ffbf23" d="M 87.359375 109.183594 L 85.890625 109.183594 C 85.789062 109.183594 85.703125 109.101562 85.703125 108.996094 C 85.703125 108.894531 85.789062 108.8125 85.890625 108.8125 L 87.359375 108.8125 C 87.460938 108.8125 87.542969 108.894531 87.542969 108.996094 C 87.542969 109.101562 87.460938 109.183594 87.359375 109.183594 " fill-opacity="1" fill-rule="nonzero"/><path fill="#ffbf23" d="M 92.671875 110.25 L 85.890625 110.25 C 85.789062 110.25 85.703125 110.167969 85.703125 110.0625 C 85.703125 109.960938 85.789062 109.878906 85.890625 109.878906 L 92.671875 109.878906 C 92.773438 109.878906 92.855469 109.960938 92.855469 110.0625 C 92.855469 110.167969 92.773438 110.25 92.671875 110.25 " fill-opacity="1" fill-rule="nonzero"/><path fill="#ffbf23" d="M 102.507812 108.117188 L 98.652344 108.117188 C 98.546875 108.117188 98.464844 108.035156 98.464844 107.929688 C 98.464844 107.828125 98.546875 107.746094 98.652344 107.746094 L 102.507812 107.746094 C 102.613281 107.746094 102.695312 107.828125 102.695312 107.929688 C 102.695312 108.035156 102.613281 108.117188 102.507812 108.117188 " fill-opacity="1" fill-rule="nonzero"/><path fill="#ffbf23" d="M 97.632812 108.117188 L 95.730469 108.117188 C 95.625 108.117188 95.542969 108.035156 95.542969 107.929688 C 95.542969 107.828125 95.625 107.746094 95.730469 107.746094 L 97.632812 107.746094 C 97.734375 107.746094 97.820312 107.828125 97.820312 107.929688 C 97.820312 108.035156 97.734375 108.117188 97.632812 108.117188 " fill-opacity="1" fill-rule="nonzero"/><path fill="#ffbf23" d="M 102.507812 109.183594 L 95.730469 109.183594 C 95.625 109.183594 95.542969 109.101562 95.542969 108.996094 C 95.542969 108.894531 95.625 108.8125 95.730469 108.8125 L 102.507812 108.8125 C 102.613281 108.8125 102.695312 108.894531 102.695312 108.996094 C 102.695312 109.101562 102.613281 109.183594 102.507812 109.183594 " fill-opacity="1" fill-rule="nonzero"/><path fill="#ffbf23" d="M 102.507812 110.25 L 101.265625 110.25 C 101.164062 110.25 101.082031 110.167969 101.082031 110.0625 C 101.082031 109.960938 101.164062 109.878906 101.265625 109.878906 L 102.507812 109.878906 C 102.613281 109.878906 102.695312 109.960938 102.695312 110.0625 C 102.695312 110.167969 102.613281 110.25 102.507812 110.25 " fill-opacity="1" fill-rule="nonzero"/><path fill="#ffbf23" d="M 100.277344 110.25 L 95.730469 110.25 C 95.625 110.25 95.542969 110.167969 95.542969 110.0625 C 95.542969 109.960938 95.625 109.878906 95.730469 109.878906 L 100.277344 109.878906 C 100.382812 109.878906 100.464844 109.960938 100.464844 110.0625 C 100.464844 110.167969 100.382812 110.25 100.277344 110.25 " fill-opacity="1" fill-rule="nonzero"/><path fill="#ffbf23" d="M 112.347656 108.117188 L 108.242188 108.117188 C 108.136719 108.117188 108.054688 108.035156 108.054688 107.929688 C 108.054688 107.828125 108.136719 107.746094 108.242188 107.746094 L 112.347656 107.746094 C 112.449219 107.746094 112.535156 107.828125 112.535156 107.929688 C 112.535156 108.035156 112.449219 108.117188 112.347656 108.117188 " fill-opacity="1" fill-rule="nonzero"/><path fill="#ffbf23" d="M 107.148438 108.117188 L 105.566406 108.117188 C 105.464844 108.117188 105.382812 108.035156 105.382812 107.929688 C 105.382812 107.828125 105.464844 107.746094 105.566406 107.746094 L 107.148438 107.746094 C 107.253906 107.746094 107.335938 107.828125 107.335938 107.929688 C 107.335938 108.035156 107.253906 108.117188 107.148438 108.117188 " fill-opacity="1" fill-rule="nonzero"/><path fill="#ffbf23" d="M 112.347656 109.183594 L 111.066406 109.183594 C 110.964844 109.183594 110.882812 109.101562 110.882812 108.996094 C 110.882812 108.894531 110.964844 108.8125 111.066406 108.8125 L 112.347656 108.8125 C 112.449219 108.8125 112.535156 108.894531 112.535156 108.996094 C 112.535156 109.101562 112.449219 109.183594 112.347656 109.183594 " fill-opacity="1" fill-rule="nonzero"/><path fill="#ffbf23" d="M 110 109.183594 L 105.566406 109.183594 C 105.464844 109.183594 105.382812 109.101562 105.382812 108.996094 C 105.382812 108.894531 105.464844 108.8125 105.566406 108.8125 L 110 108.8125 C 110.105469 108.8125 110.1875 108.894531 110.1875 108.996094 C 110.1875 109.101562 110.105469 109.183594 110 109.183594 " fill-opacity="1" fill-rule="nonzero"/><path fill="#ffbf23" d="M 112.347656 110.25 L 108.8125 110.25 C 108.707031 110.25 108.625 110.167969 108.625 110.0625 C 108.625 109.960938 108.707031 109.878906 108.8125 109.878906 L 112.347656 109.878906 C 112.449219 109.878906 112.535156 109.960938 112.535156 110.0625 C 112.535156 110.167969 112.449219 110.25 112.347656 110.25 " fill-opacity="1" fill-rule="nonzero"/><path fill="#ffbf23" d="M 107.785156 110.25 L 105.566406 110.25 C 105.464844 110.25 105.382812 110.167969 105.382812 110.0625 C 105.382812 109.960938 105.464844 109.878906 105.566406 109.878906 L 107.785156 109.878906 C 107.886719 109.878906 107.972656 109.960938 107.972656 110.0625 C 107.972656 110.167969 107.886719 110.25 107.785156 110.25 " fill-opacity="1" fill-rule="nonzero"/><path fill="#000000" d="M 96.628906 113.117188 C 96.628906 113.386719 96.414062 113.605469 96.144531 113.605469 C 95.875 113.605469 95.65625 113.386719 95.65625 113.117188 C 95.65625 112.851562 95.875 112.632812 96.144531 112.632812 C 96.414062 112.632812 96.628906 112.851562 96.628906 113.117188 " fill-opacity="1" fill-rule="nonzero"/><path fill="#000000" d="M 99.605469 113.117188 C 99.605469 113.386719 99.386719 113.605469 99.121094 113.605469 C 98.847656 113.605469 98.632812 113.386719 98.632812 113.117188 C 98.632812 112.851562 98.847656 112.632812 99.121094 112.632812 C 99.386719 112.632812 99.605469 112.851562 99.605469 113.117188 " fill-opacity="1" fill-rule="nonzero"/><path fill="#000000" d="M 102.582031 113.117188 C 102.582031 113.386719 102.363281 113.605469 102.09375 113.605469 C 101.824219 113.605469 101.605469 113.386719 101.605469 113.117188 C 101.605469 112.851562 101.824219 112.632812 102.09375 112.632812 C 102.363281 112.632812 102.582031 112.851562 102.582031 113.117188 " fill-opacity="1" fill-rule="nonzero"/><path fill="#14697d" d="M 158.152344 93.480469 C 158.152344 92.355469 157.238281 91.441406 156.113281 91.441406 L 124.367188 91.441406 C 123.242188 91.441406 122.328125 92.355469 122.328125 93.480469 L 122.328125 114.496094 C 122.328125 115.621094 123.242188 116.535156 124.367188 116.535156 L 156.113281 116.535156 C 157.238281 116.535156 158.152344 115.621094 158.152344 114.496094 L 158.152344 93.480469 " fill-opacity="1" fill-rule="nonzero"/><path fill="#ffbf23" d="M 142.125 109.347656 C 142.125 109.742188 141.804688 110.0625 141.410156 110.0625 L 126.832031 110.0625 C 126.4375 110.0625 126.117188 109.742188 126.117188 109.347656 L 126.117188 94.914062 C 126.117188 94.515625 126.4375 94.195312 126.832031 94.195312 L 141.410156 94.195312 C 141.804688 94.195312 142.125 94.515625 142.125 94.914062 L 142.125 109.347656 " fill-opacity="1" fill-rule="nonzero"/><path fill="#000000" d="M 153.648438 94.195312 L 146.507812 94.195312 C 146.113281 94.195312 145.792969 94.515625 145.792969 94.914062 L 145.792969 101.976562 C 145.792969 102.375 146.113281 102.695312 146.507812 102.695312 L 153.648438 102.695312 C 154.046875 102.695312 154.367188 102.375 154.367188 101.976562 L 154.367188 94.914062 C 154.367188 94.515625 154.046875 94.195312 153.648438 94.195312 Z M 153.648438 94.566406 C 153.839844 94.566406 153.996094 94.722656 153.996094 94.914062 L 153.996094 101.976562 C 153.996094 102.167969 153.839844 102.320312 153.648438 102.320312 L 146.507812 102.320312 C 146.320312 102.320312 146.164062 102.167969 146.164062 101.976562 L 146.164062 94.914062 C 146.164062 94.722656 146.320312 94.566406 146.507812 94.566406 L 153.648438 94.566406 " fill-opacity="1" fill-rule="nonzero"/><path fill="#ffffff" d="M 153.46875 105.191406 L 151.679688 105.191406 C 151.578125 105.191406 151.492188 105.109375 151.492188 105.003906 C 151.492188 104.902344 151.578125 104.820312 151.679688 104.820312 L 153.46875 104.820312 C 153.574219 104.820312 153.65625 104.902344 153.65625 105.003906 C 153.65625 105.109375 153.574219 105.191406 153.46875 105.191406 " fill-opacity="1" fill-rule="nonzero"/><path fill="#ffffff" d="M 150.699219 105.191406 L 146.6875 105.191406 C 146.585938 105.191406 146.503906 105.109375 146.503906 105.003906 C 146.503906 104.902344 146.585938 104.820312 146.6875 104.820312 L 150.699219 104.820312 C 150.800781 104.820312 150.882812 104.902344 150.882812 105.003906 C 150.882812 105.109375 150.800781 105.191406 150.699219 105.191406 " fill-opacity="1" fill-rule="nonzero"/><path fill="#ffffff" d="M 153.46875 106.257812 L 149.15625 106.257812 C 149.054688 106.257812 148.972656 106.175781 148.972656 106.070312 C 148.972656 105.96875 149.054688 105.886719 149.15625 105.886719 L 153.46875 105.886719 C 153.574219 105.886719 153.65625 105.96875 153.65625 106.070312 C 153.65625 106.175781 153.574219 106.257812 153.46875 106.257812 " fill-opacity="1" fill-rule="nonzero"/><path fill="#ffffff" d="M 148.15625 106.257812 L 146.6875 106.257812 C 146.585938 106.257812 146.503906 106.175781 146.503906 106.070312 C 146.503906 105.96875 146.585938 105.886719 146.6875 105.886719 L 148.15625 105.886719 C 148.261719 105.886719 148.34375 105.96875 148.34375 106.070312 C 148.34375 106.175781 148.261719 106.257812 148.15625 106.257812 " fill-opacity="1" fill-rule="nonzero"/><path fill="#ffffff" d="M 153.46875 108.355469 L 151.679688 108.355469 C 151.578125 108.355469 151.492188 108.273438 151.492188 108.171875 C 151.492188 108.066406 151.578125 107.984375 151.679688 107.984375 L 153.46875 107.984375 C 153.574219 107.984375 153.65625 108.066406 153.65625 108.171875 C 153.65625 108.273438 153.574219 108.355469 153.46875 108.355469 " fill-opacity="1" fill-rule="nonzero"/><path fill="#ffffff" d="M 150.699219 108.355469 L 146.6875 108.355469 C 146.585938 108.355469 146.503906 108.273438 146.503906 108.171875 C 146.503906 108.066406 146.585938 107.984375 146.6875 107.984375 L 150.699219 107.984375 C 150.800781 107.984375 150.882812 108.066406 150.882812 108.171875 C 150.882812 108.273438 150.800781 108.355469 150.699219 108.355469 " fill-opacity="1" fill-rule="nonzero"/><path fill="#ffffff" d="M 153.46875 109.421875 L 149.15625 109.421875 C 149.054688 109.421875 148.972656 109.339844 148.972656 109.238281 C 148.972656 109.132812 149.054688 109.050781 149.15625 109.050781 L 153.46875 109.050781 C 153.574219 109.050781 153.65625 109.132812 153.65625 109.238281 C 153.65625 109.339844 153.574219 109.421875 153.46875 109.421875 " fill-opacity="1" fill-rule="nonzero"/><path fill="#ffffff" d="M 148.15625 109.421875 L 146.6875 109.421875 C 146.585938 109.421875 146.503906 109.339844 146.503906 109.238281 C 146.503906 109.132812 146.585938 109.050781 146.6875 109.050781 L 148.15625 109.050781 C 148.261719 109.050781 148.34375 109.132812 148.34375 109.238281 C 148.34375 109.339844 148.261719 109.421875 148.15625 109.421875 " fill-opacity="1" fill-rule="nonzero"/><path fill="#ffffff" d="M 153.46875 107.324219 L 146.6875 107.324219 C 146.585938 107.324219 146.503906 107.242188 146.503906 107.136719 C 146.503906 107.035156 146.585938 106.953125 146.6875 106.953125 L 153.46875 106.953125 C 153.574219 106.953125 153.65625 107.035156 153.65625 107.136719 C 153.65625 107.242188 153.574219 107.324219 153.46875 107.324219 " fill-opacity="1" fill-rule="nonzero"/><path fill="#000000" d="M 137.753906 113.117188 C 137.753906 113.386719 137.535156 113.605469 137.265625 113.605469 C 136.996094 113.605469 136.777344 113.386719 136.777344 113.117188 C 136.777344 112.851562 136.996094 112.632812 137.265625 112.632812 C 137.535156 112.632812 137.753906 112.851562 137.753906 113.117188 " fill-opacity="1" fill-rule="nonzero"/><path fill="#000000" d="M 140.726562 113.117188 C 140.726562 113.386719 140.511719 113.605469 140.242188 113.605469 C 139.972656 113.605469 139.753906 113.386719 139.753906 113.117188 C 139.753906 112.851562 139.972656 112.632812 140.242188 112.632812 C 140.511719 112.632812 140.726562 112.851562 140.726562 113.117188 " fill-opacity="1" fill-rule="nonzero"/><path fill="#000000" d="M 143.703125 113.117188 C 143.703125 113.386719 143.484375 113.605469 143.214844 113.605469 C 142.949219 113.605469 142.730469 113.386719 142.730469 113.117188 C 142.730469 112.851562 142.949219 112.632812 143.214844 112.632812 C 143.484375 112.632812 143.703125 112.851562 143.703125 113.117188 " fill-opacity="1" fill-rule="nonzero"/><path fill="#14697d" d="M 158.152344 124.09375 C 158.152344 122.96875 157.238281 122.054688 156.113281 122.054688 L 124.367188 122.054688 C 123.242188 122.054688 122.328125 122.96875 122.328125 124.09375 L 122.328125 145.105469 C 122.328125 146.234375 123.242188 147.148438 124.367188 147.148438 L 156.113281 147.148438 C 157.238281 147.148438 158.152344 146.234375 158.152344 145.105469 L 158.152344 124.09375 " fill-opacity="1" fill-rule="nonzero"/><path fill="#ffffff" d="M 145.664062 134.753906 C 145.664062 135.226562 145.277344 135.613281 144.800781 135.613281 L 136.210938 135.613281 C 135.734375 135.613281 135.347656 135.226562 135.347656 134.753906 L 135.347656 126.253906 C 135.347656 125.777344 135.734375 125.390625 136.210938 125.390625 L 144.800781 125.390625 C 145.277344 125.390625 145.664062 125.777344 145.664062 126.253906 L 145.664062 134.753906 " fill-opacity="1" fill-rule="nonzero"/><path fill="#ffffff" d="M 144.582031 138.617188 L 142.429688 138.617188 C 142.304688 138.617188 142.207031 138.519531 142.207031 138.394531 C 142.207031 138.269531 142.304688 138.171875 142.429688 138.171875 L 144.582031 138.171875 C 144.707031 138.171875 144.808594 138.269531 144.808594 138.394531 C 144.808594 138.519531 144.707031 138.617188 144.582031 138.617188 " fill-opacity="1" fill-rule="nonzero"/><path fill="#ffffff" d="M 141.25 138.617188 L 136.425781 138.617188 C 136.304688 138.617188 136.203125 138.519531 136.203125 138.394531 C 136.203125 138.269531 136.304688 138.171875 136.425781 138.171875 L 141.25 138.171875 C 141.375 138.171875 141.472656 138.269531 141.472656 138.394531 C 141.472656 138.519531 141.375 138.617188 141.25 138.617188 " fill-opacity="1" fill-rule="nonzero"/><path fill="#ffbf23" d="M 144.621094 142.859375 C 144.621094 143.382812 144.199219 143.808594 143.675781 143.808594 L 137.925781 143.808594 C 137.402344 143.808594 136.976562 143.382812 136.976562 142.859375 C 136.976562 142.335938 137.402344 141.914062 137.925781 141.914062 L 143.675781 141.914062 C 144.199219 141.914062 144.621094 142.335938 144.621094 142.859375 " fill-opacity="1" fill-rule="nonzero"/><path fill="#14697d" d="M 138.484375 142.859375 C 138.484375 143.050781 138.332031 143.203125 138.140625 143.203125 C 137.953125 143.203125 137.800781 143.050781 137.800781 142.859375 C 137.800781 142.671875 137.953125 142.519531 138.140625 142.519531 C 138.332031 142.519531 138.484375 142.671875 138.484375 142.859375 " fill-opacity="1" fill-rule="nonzero"/><path fill="#14697d" d="M 139.761719 142.859375 C 139.761719 143.050781 139.605469 143.203125 139.417969 143.203125 C 139.230469 143.203125 139.074219 143.050781 139.074219 142.859375 C 139.074219 142.671875 139.230469 142.519531 139.417969 142.519531 C 139.605469 142.519531 139.761719 142.671875 139.761719 142.859375 " fill-opacity="1" fill-rule="nonzero"/><path fill="#14697d" d="M 141.035156 142.859375 C 141.035156 143.050781 140.882812 143.203125 140.695312 143.203125 C 140.503906 143.203125 140.351562 143.050781 140.351562 142.859375 C 140.351562 142.671875 140.503906 142.519531 140.695312 142.519531 C 140.882812 142.519531 141.035156 142.671875 141.035156 142.859375 " fill-opacity="1" fill-rule="nonzero"/><path fill="#000000" d="M 142.3125 142.859375 C 142.3125 143.050781 142.15625 143.203125 141.96875 143.203125 C 141.78125 143.203125 141.625 143.050781 141.625 142.859375 C 141.625 142.671875 141.78125 142.519531 141.96875 142.519531 C 142.15625 142.519531 142.3125 142.671875 142.3125 142.859375 " fill-opacity="1" fill-rule="nonzero"/><path fill="#14697d" d="M 143.585938 142.859375 C 143.585938 143.050781 143.433594 143.203125 143.246094 143.203125 C 143.054688 143.203125 142.902344 143.050781 142.902344 142.859375 C 142.902344 142.671875 143.054688 142.519531 143.246094 142.519531 C 143.433594 142.519531 143.585938 142.671875 143.585938 142.859375 " fill-opacity="1" fill-rule="nonzero"/><path fill="#000000" d="M 154.664062 127.554688 L 151.332031 127.554688 C 151.230469 127.554688 151.148438 127.472656 151.148438 127.371094 C 151.148438 127.265625 151.230469 127.183594 151.332031 127.183594 L 154.664062 127.183594 C 154.765625 127.183594 154.851562 127.265625 154.851562 127.371094 C 154.851562 127.472656 154.765625 127.554688 154.664062 127.554688 " fill-opacity="1" fill-rule="nonzero"/><path fill="#000000" d="M 150.351562 127.554688 L 147.882812 127.554688 C 147.78125 127.554688 147.695312 127.472656 147.695312 127.371094 C 147.695312 127.265625 147.78125 127.183594 147.882812 127.183594 L 150.351562 127.183594 C 150.453125 127.183594 150.539062 127.265625 150.539062 127.371094 C 150.539062 127.472656 150.453125 127.554688 150.351562 127.554688 " fill-opacity="1" fill-rule="nonzero"/><path fill="#000000" d="M 154.664062 128.621094 L 153.007812 128.621094 C 152.90625 128.621094 152.820312 128.539062 152.820312 128.4375 C 152.820312 128.332031 152.90625 128.25 153.007812 128.25 L 154.664062 128.25 C 154.765625 128.25 154.851562 128.332031 154.851562 128.4375 C 154.851562 128.539062 154.765625 128.621094 154.664062 128.621094 " fill-opacity="1" fill-rule="nonzero"/><path fill="#000000" d="M 152.007812 128.621094 L 147.882812 128.621094 C 147.78125 128.621094 147.695312 128.539062 147.695312 128.4375 C 147.695312 128.332031 147.78125 128.25 147.882812 128.25 L 152.007812 128.25 C 152.109375 128.25 152.195312 128.332031 152.195312 128.4375 C 152.195312 128.539062 152.109375 128.621094 152.007812 128.621094 " fill-opacity="1" fill-rule="nonzero"/><path fill="#000000" d="M 154.664062 129.6875 L 147.882812 129.6875 C 147.78125 129.6875 147.695312 129.605469 147.695312 129.503906 C 147.695312 129.398438 147.78125 129.316406 147.882812 129.316406 L 154.664062 129.316406 C 154.765625 129.316406 154.851562 129.398438 154.851562 129.503906 C 154.851562 129.605469 154.765625 129.6875 154.664062 129.6875 " fill-opacity="1" fill-rule="nonzero"/><path fill="#000000" d="M 133.390625 127.554688 L 130.0625 127.554688 C 129.957031 127.554688 129.875 127.472656 129.875 127.371094 C 129.875 127.265625 129.957031 127.183594 130.0625 127.183594 L 133.390625 127.183594 C 133.496094 127.183594 133.578125 127.265625 133.578125 127.371094 C 133.578125 127.472656 133.496094 127.554688 133.390625 127.554688 " fill-opacity="1" fill-rule="nonzero"/><path fill="#000000" d="M 129.078125 127.554688 L 126.609375 127.554688 C 126.507812 127.554688 126.425781 127.472656 126.425781 127.371094 C 126.425781 127.265625 126.507812 127.183594 126.609375 127.183594 L 129.078125 127.183594 C 129.183594 127.183594 129.265625 127.265625 129.265625 127.371094 C 129.265625 127.472656 129.183594 127.554688 129.078125 127.554688 " fill-opacity="1" fill-rule="nonzero"/><path fill="#000000" d="M 133.390625 128.621094 L 131.363281 128.621094 C 131.261719 128.621094 131.175781 128.539062 131.175781 128.4375 C 131.175781 128.332031 131.261719 128.25 131.363281 128.25 L 133.390625 128.25 C 133.496094 128.25 133.578125 128.332031 133.578125 128.4375 C 133.578125 128.539062 133.496094 128.621094 133.390625 128.621094 " fill-opacity="1" fill-rule="nonzero"/><path fill="#000000" d="M 130.363281 128.621094 L 126.609375 128.621094 C 126.507812 128.621094 126.425781 128.539062 126.425781 128.4375 C 126.425781 128.332031 126.507812 128.25 126.609375 128.25 L 130.363281 128.25 C 130.464844 128.25 130.550781 128.332031 130.550781 128.4375 C 130.550781 128.539062 130.464844 128.621094 130.363281 128.621094 " fill-opacity="1" fill-rule="nonzero"/><path fill="#000000" d="M 99.128906 91.628906 C 99.027344 91.628906 98.945312 91.546875 98.945312 91.441406 L 98.945312 83.113281 C 98.945312 83.011719 99.027344 82.929688 99.128906 82.929688 C 99.234375 82.929688 99.316406 83.011719 99.316406 83.113281 L 99.316406 91.441406 C 99.316406 91.546875 99.234375 91.628906 99.128906 91.628906 " fill-opacity="1" fill-rule="nonzero"/><path fill="#000000" d="M 99.539062 83.113281 C 99.539062 83.339844 99.355469 83.523438 99.128906 83.523438 C 98.902344 83.523438 98.722656 83.339844 98.722656 83.113281 C 98.722656 82.890625 98.902344 82.707031 99.128906 82.707031 C 99.355469 82.707031 99.539062 82.890625 99.539062 83.113281 " fill-opacity="1" fill-rule="nonzero"/><path fill="#000000" d="M 99.539062 91.441406 C 99.539062 91.667969 99.355469 91.851562 99.128906 91.851562 C 98.902344 91.851562 98.722656 91.667969 98.722656 91.441406 C 98.722656 91.214844 98.902344 91.035156 99.128906 91.035156 C 99.355469 91.035156 99.539062 91.214844 99.539062 91.441406 " fill-opacity="1" fill-rule="nonzero"/><path fill="#000000" d="M 122.328125 104.175781 L 116.757812 104.175781 C 116.652344 104.175781 116.570312 104.09375 116.570312 103.988281 C 116.570312 103.886719 116.652344 103.804688 116.757812 103.804688 L 122.328125 103.804688 C 122.433594 103.804688 122.515625 103.886719 122.515625 103.988281 C 122.515625 104.09375 122.433594 104.175781 122.328125 104.175781 " fill-opacity="1" fill-rule="nonzero"/><path fill="#000000" d="M 116.757812 103.578125 C 116.984375 103.578125 117.167969 103.761719 117.167969 103.988281 C 117.167969 104.214844 116.984375 104.398438 116.757812 104.398438 C 116.53125 104.398438 116.347656 104.214844 116.347656 103.988281 C 116.347656 103.761719 116.53125 103.578125 116.757812 103.578125 " fill-opacity="1" fill-rule="nonzero"/><path fill="#000000" d="M 122.328125 103.578125 C 122.554688 103.578125 122.738281 103.761719 122.738281 103.988281 C 122.738281 104.214844 122.554688 104.398438 122.328125 104.398438 C 122.105469 104.398438 121.921875 104.214844 121.921875 103.988281 C 121.921875 103.761719 122.105469 103.578125 122.328125 103.578125 " fill-opacity="1" fill-rule="nonzero"/><path fill="#000000" d="M 140.320312 122.207031 C 140.214844 122.207031 140.132812 122.125 140.132812 122.019531 L 140.132812 116.449219 C 140.132812 116.34375 140.214844 116.261719 140.320312 116.261719 C 140.421875 116.261719 140.503906 116.34375 140.503906 116.449219 L 140.503906 122.019531 C 140.503906 122.125 140.421875 122.207031 140.320312 122.207031 " fill-opacity="1" fill-rule="nonzero"/><path fill="#000000" d="M 139.910156 122.019531 C 139.910156 121.796875 140.09375 121.613281 140.320312 121.613281 C 140.546875 121.613281 140.726562 121.796875 140.726562 122.019531 C 140.726562 122.246094 140.546875 122.429688 140.320312 122.429688 C 140.09375 122.429688 139.910156 122.246094 139.910156 122.019531 " fill-opacity="1" fill-rule="nonzero"/><path fill="#000000" d="M 139.910156 116.449219 C 139.910156 116.222656 140.09375 116.039062 140.320312 116.039062 C 140.546875 116.039062 140.726562 116.222656 140.726562 116.449219 C 140.726562 116.675781 140.546875 116.855469 140.320312 116.855469 C 140.09375 116.855469 139.910156 116.675781 139.910156 116.449219 " fill-opacity="1" fill-rule="nonzero"/><path fill="#000000" d="M 72.066406 152.640625 C 69.46875 156.242188 66.179688 167.144531 64.695312 174.375 C 76.664062 177.964844 87.226562 177.257812 96.722656 176.515625 C 97.503906 176.453125 98.089844 175.765625 98.015625 174.980469 C 97.171875 165.902344 95.644531 157.597656 95.644531 157.597656 L 72.066406 152.640625 " fill-opacity="1" fill-rule="nonzero"/><path fill="#ffffff" d="M 98.902344 126.597656 C 98.902344 126.597656 104.710938 130.507812 107.425781 129.769531 C 111.246094 128.734375 112.925781 119.003906 113.089844 118.136719 C 113.253906 117.273438 113.992188 112.894531 114.753906 111.257812 C 115.472656 109.722656 115.910156 108.152344 116.140625 107.183594 C 116.277344 106.601562 116.675781 106.320312 117.066406 106.378906 C 117.414062 106.429688 117.640625 106.703125 117.449219 107.570312 C 117.222656 108.578125 117.023438 109.585938 116.839844 110.445312 C 116.78125 110.71875 116.671875 110.972656 116.863281 110.78125 C 117.304688 110.332031 117.886719 109.894531 118.339844 110.058594 C 119.191406 110.367188 120.097656 113.242188 119.183594 115.515625 C 118.269531 117.792969 116.804688 117.535156 116.550781 118.609375 C 116.300781 119.679688 114.980469 133.273438 113.921875 135.761719 C 112.402344 139.34375 97.839844 136.730469 97.839844 136.730469 L 98.902344 126.597656 " fill-opacity="1" fill-rule="nonzero"/><path fill="#000000" d="M 98.074219 136.550781 C 102.222656 137.273438 112.550781 138.4375 113.722656 135.679688 C 114.460938 133.9375 115.351562 126.511719 115.882812 122.074219 C 116.105469 120.21875 116.265625 118.878906 116.339844 118.558594 C 116.46875 118.019531 116.839844 117.773438 117.273438 117.484375 C 117.808594 117.128906 118.480469 116.683594 118.980469 115.433594 C 119.585938 113.933594 119.355469 112.117188 118.886719 111.066406 C 118.695312 110.636719 118.460938 110.332031 118.265625 110.261719 C 117.992188 110.164062 117.539062 110.410156 117.015625 110.933594 C 116.964844 110.988281 116.824219 111.128906 116.65625 111.035156 C 116.488281 110.9375 116.535156 110.761719 116.585938 110.574219 C 116.597656 110.519531 116.613281 110.460938 116.625 110.402344 C 116.695312 110.085938 116.765625 109.746094 116.835938 109.394531 C 116.964844 108.789062 117.09375 108.160156 117.234375 107.523438 C 117.355469 106.988281 117.285156 106.777344 117.230469 106.699219 C 117.203125 106.660156 117.15625 106.613281 117.035156 106.59375 C 116.726562 106.550781 116.453125 106.804688 116.351562 107.234375 C 116.101562 108.277344 115.65625 109.839844 114.949219 111.351562 C 114.285156 112.777344 113.628906 116.394531 113.382812 117.757812 C 113.347656 117.9375 113.324219 118.082031 113.304688 118.179688 L 113.28125 118.292969 C 112.6875 121.496094 110.933594 129.042969 107.480469 129.980469 C 105.03125 130.644531 100.328125 127.773438 99.082031 126.972656 Z M 107.378906 137.867188 C 103.023438 137.867188 98.148438 137.007812 97.800781 136.945312 L 97.601562 136.910156 L 98.726562 126.214844 L 99.023438 126.417969 C 99.078125 126.453125 103.859375 129.644531 106.652344 129.648438 C 106.910156 129.648438 107.148438 129.621094 107.367188 129.5625 C 110.671875 128.664062 112.402344 120.648438 112.855469 118.210938 L 112.875 118.097656 C 112.894531 118 112.921875 117.859375 112.953125 117.679688 C 113.203125 116.300781 113.867188 112.640625 114.558594 111.167969 C 115.246094 109.691406 115.683594 108.15625 115.925781 107.132812 C 116.082031 106.480469 116.566406 106.082031 117.101562 106.164062 C 117.316406 106.195312 117.480469 106.292969 117.589844 106.453125 C 117.757812 106.699219 117.78125 107.082031 117.660156 107.617188 C 117.519531 108.25 117.390625 108.878906 117.261719 109.484375 C 117.207031 109.753906 117.152344 110.019531 117.101562 110.269531 C 117.605469 109.859375 118.046875 109.71875 118.414062 109.855469 C 118.816406 110 119.109375 110.496094 119.285156 110.890625 C 119.808594 112.058594 120.039062 113.96875 119.386719 115.597656 C 118.832031 116.972656 118.070312 117.476562 117.511719 117.847656 C 117.113281 118.113281 116.851562 118.289062 116.765625 118.660156 C 116.695312 118.957031 116.527344 120.355469 116.3125 122.125 C 115.78125 126.585938 114.886719 134.050781 114.121094 135.847656 C 113.460938 137.40625 110.558594 137.867188 107.378906 137.867188 " fill-opacity="1" fill-rule="nonzero"/><path fill="#ffffff" d="M 64.578125 131.21875 L 60.433594 140.886719 C 60.371094 141.027344 60.304688 141.164062 60.234375 141.304688 C 58.910156 143.96875 60.316406 147.222656 63.214844 148.054688 L 75.71875 151.636719 L 76.046875 146.332031 L 69.351562 144.238281 C 68.058594 143.832031 67.476562 142.328125 68.160156 141.15625 L 69.324219 139.175781 L 64.578125 131.21875 " fill-opacity="1" fill-rule="nonzero"/><path fill="#000000" d="M 64.609375 131.699219 L 60.632812 140.972656 C 60.574219 141.109375 60.511719 141.238281 60.445312 141.367188 L 60.429688 141.402344 C 59.824219 142.621094 59.792969 144.035156 60.34375 145.289062 C 60.894531 146.535156 61.964844 147.46875 63.277344 147.84375 L 75.515625 151.351562 L 75.820312 146.488281 L 69.289062 144.445312 C 68.605469 144.234375 68.070312 143.730469 67.8125 143.0625 C 67.554688 142.398438 67.613281 141.664062 67.972656 141.046875 L 69.070312 139.175781 Z M 75.917969 151.917969 L 63.15625 148.261719 C 61.71875 147.851562 60.546875 146.832031 59.945312 145.464844 C 59.34375 144.09375 59.375 142.542969 60.039062 141.207031 L 60.058594 141.171875 C 60.121094 141.046875 60.179688 140.925781 60.234375 140.800781 L 64.546875 130.742188 L 69.574219 139.175781 L 68.347656 141.265625 C 68.054688 141.765625 68.007812 142.363281 68.21875 142.90625 C 68.425781 143.445312 68.863281 143.855469 69.417969 144.03125 L 76.277344 146.175781 L 75.917969 151.917969 " fill-opacity="1" fill-rule="nonzero"/><path fill="#14697d" d="M 74.460938 121.308594 C 81.460938 118.183594 94.992188 118.832031 104.484375 129.019531 C 105.597656 130.21875 102.375 139.253906 99.5 138.632812 C 97.371094 138.171875 95.570312 137.648438 94.929688 138.359375 C 94.753906 138.554688 94.714844 138.785156 94.695312 138.917969 C 93.894531 144.027344 95.457031 150.429688 95.457031 150.429688 C 96.394531 154.257812 97.40625 158.398438 95.964844 161.542969 C 92.0625 170.042969 72.109375 167.378906 67.441406 164.8125 C 65.519531 163.753906 67.539062 160.847656 68.949219 151.367188 C 70 144.300781 70.613281 138.449219 69.3125 140.707031 C 68.671875 141.816406 61.984375 135.152344 62.683594 133.160156 C 64.214844 128.796875 66.90625 124.679688 74.460938 121.308594 " fill-opacity="1" fill-rule="nonzero"/><path fill="#000000" d="M 69.769531 139.996094 C 69.804688 139.996094 69.84375 140.003906 69.878906 140.015625 C 70.207031 140.128906 70.8125 140.339844 69.164062 151.398438 C 68.625 155.015625 67.996094 157.691406 67.535156 159.644531 C 66.804688 162.757812 66.5 164.046875 67.546875 164.621094 C 71.035156 166.539062 82.640625 168.378906 89.992188 165.953125 C 92.894531 164.996094 94.835938 163.480469 95.765625 161.453125 C 97.179688 158.375 96.195312 154.363281 95.246094 150.480469 C 95.230469 150.417969 93.679688 143.980469 94.480469 138.882812 C 94.503906 138.746094 94.546875 138.460938 94.769531 138.214844 C 95.414062 137.496094 96.902344 137.828125 98.785156 138.25 C 99.035156 138.304688 99.289062 138.363281 99.546875 138.417969 C 100.433594 138.609375 101.539062 137.671875 102.578125 135.84375 C 104.105469 133.160156 104.867188 129.75 104.324219 129.167969 C 98.9375 123.386719 92.746094 121.199219 88.496094 120.382812 C 83.492188 119.425781 78.277344 119.84375 74.550781 121.507812 C 66.664062 125.027344 64.230469 129.410156 62.886719 133.234375 C 62.375 134.695312 66.820312 139.640625 68.714844 140.507812 C 68.992188 140.636719 69.113281 140.617188 69.125 140.597656 C 69.289062 140.3125 69.507812 139.996094 69.769531 139.996094 Z M 81.492188 167.539062 C 75.59375 167.539062 69.675781 166.289062 67.335938 165.003906 C 66 164.269531 66.351562 162.789062 67.113281 159.546875 C 67.570312 157.597656 68.199219 154.933594 68.734375 151.332031 C 70.023438 142.683594 69.902344 140.835938 69.742188 140.46875 C 69.695312 140.515625 69.617188 140.613281 69.5 140.816406 C 69.390625 141.007812 69.132812 141.179688 68.535156 140.90625 C 66.785156 140.101562 61.800781 135.015625 62.476562 133.089844 C 63.847656 129.175781 66.335938 124.695312 74.371094 121.109375 C 78.179688 119.410156 83.488281 118.980469 88.578125 119.957031 C 92.890625 120.785156 99.175781 123.003906 104.644531 128.871094 C 105.445312 129.730469 104.386719 133.542969 102.957031 136.058594 C 101.800781 138.09375 100.554688 139.082031 99.457031 138.84375 C 99.195312 138.789062 98.941406 138.730469 98.691406 138.675781 C 97.015625 138.300781 95.570312 137.976562 95.09375 138.503906 C 94.957031 138.65625 94.929688 138.839844 94.910156 138.949219 C 94.125 143.960938 95.652344 150.3125 95.667969 150.378906 C 96.59375 154.148438 97.636719 158.421875 96.160156 161.636719 C 95.179688 163.777344 93.148438 165.367188 90.128906 166.367188 C 87.585938 167.207031 84.539062 167.539062 81.492188 167.539062 " fill-opacity="1" fill-rule="nonzero"/><path fill="#000000" d="M 81.375 113.257812 C 81.375 113.257812 76.378906 111.011719 75.792969 106.925781 C 75.378906 104.050781 77.09375 101.363281 79.808594 100.335938 C 81.183594 99.8125 83.335938 99.59375 84.75 100.15625 C 87.765625 101.359375 88.296875 103.695312 88.296875 103.695312 C 88.296875 103.695312 85.789062 115.957031 81.375 113.257812 " fill-opacity="1" fill-rule="nonzero"/><path fill="#000000" d="M 82.898438 99.957031 C 83.277344 99.375 84.308594 96.441406 81.625 95.246094 C 78.941406 94.046875 75.117188 94.144531 73.234375 96.328125 C 71.355469 98.515625 69.5625 102.234375 71.761719 104.570312 C 74.515625 107.496094 80.546875 102.6875 80.546875 102.6875 L 82.898438 99.957031 " fill-opacity="1" fill-rule="nonzero"/><path fill="#ffffff" d="M 88.132812 103.910156 C 88.132812 103.910156 88.460938 104.757812 88.613281 105.128906 C 88.757812 105.476562 89.078125 106.664062 90.222656 107.792969 C 90.332031 107.902344 90.339844 108.078125 90.25 108.203125 L 89.539062 109.148438 C 89.488281 109.214844 89.46875 109.296875 89.484375 109.378906 C 89.578125 109.878906 89.90625 111.722656 89.914062 112.074219 C 89.917969 112.484375 89.675781 112.898438 89.535156 113.011719 C 89.167969 113.316406 87.351562 113.429688 87.351562 113.429688 C 87.351562 113.429688 86.886719 113.566406 86.441406 116.316406 C 86.128906 118.25 88.957031 120.964844 88.957031 120.964844 C 88.957031 120.964844 82.835938 123 77.382812 121.003906 C 77.046875 120.882812 77.003906 120.402344 77.277344 120.171875 C 78.371094 119.253906 80.808594 116.234375 81.652344 113.453125 C 81.703125 113.289062 81.816406 113.148438 81.972656 113.070312 C 82.601562 112.761719 84.238281 112.96875 83.773438 109.972656 C 83.761719 109.898438 83.730469 109.824219 83.683594 109.761719 C 83.28125 109.253906 81.441406 106.746094 84.398438 106.96875 C 86.347656 107.117188 86.867188 105.652344 87.003906 104.984375 C 87.046875 104.765625 87.175781 104.574219 87.359375 104.449219 L 88.132812 103.910156 " fill-opacity="1" fill-rule="nonzero"/><path fill="#000000" d="M 84.050781 107.171875 C 83.621094 107.171875 83.179688 107.25 83.027344 107.527344 C 82.78125 107.996094 83.320312 108.949219 83.855469 109.628906 C 83.925781 109.71875 83.972656 109.828125 83.988281 109.941406 C 84.402344 112.609375 83.167969 112.945312 82.429688 113.148438 C 82.289062 113.1875 82.15625 113.222656 82.066406 113.269531 C 81.96875 113.316406 81.894531 113.40625 81.859375 113.515625 C 80.984375 116.40625 78.496094 119.433594 77.417969 120.335938 C 77.339844 120.40625 77.300781 120.515625 77.320312 120.625 C 77.328125 120.675781 77.359375 120.765625 77.457031 120.800781 C 82.054688 122.480469 87.195312 121.242188 88.546875 120.859375 C 87.839844 120.117188 85.957031 117.964844 86.226562 116.28125 C 86.648438 113.675781 87.113281 113.273438 87.292969 113.21875 C 87.308594 113.214844 87.324219 113.210938 87.339844 113.210938 C 88.066406 113.167969 89.179688 113.023438 89.394531 112.84375 C 89.488281 112.769531 89.699219 112.414062 89.695312 112.078125 C 89.691406 111.8125 89.472656 110.53125 89.273438 109.417969 C 89.246094 109.277344 89.28125 109.132812 89.367188 109.019531 L 90.074219 108.070312 C 90.101562 108.035156 90.101562 107.980469 90.070312 107.949219 C 89.039062 106.929688 88.65625 105.878906 88.476562 105.375 C 88.449219 105.308594 88.429688 105.253906 88.414062 105.210938 C 88.316406 104.96875 88.140625 104.527344 88.03125 104.246094 L 87.484375 104.625 C 87.34375 104.722656 87.25 104.867188 87.214844 105.027344 C 87.074219 105.730469 86.515625 107.34375 84.382812 107.1875 C 84.277344 107.179688 84.164062 107.171875 84.050781 107.171875 Z M 82.71875 122.09375 C 81 122.09375 79.113281 121.871094 77.308594 121.210938 C 77.089844 121.128906 76.933594 120.9375 76.890625 120.699219 C 76.84375 120.4375 76.941406 120.171875 77.140625 120.003906 C 78.246094 119.070312 80.632812 116.0625 81.445312 113.390625 C 81.511719 113.164062 81.667969 112.976562 81.875 112.878906 C 82.003906 112.816406 82.15625 112.773438 82.316406 112.730469 C 83.027344 112.535156 83.914062 112.292969 83.558594 110.007812 C 83.554688 109.96875 83.535156 109.929688 83.511719 109.898438 C 83.109375 109.390625 82.222656 108.121094 82.644531 107.324219 C 82.882812 106.875 83.480469 106.683594 84.414062 106.75 C 86.136719 106.882812 86.640625 105.671875 86.789062 104.941406 C 86.84375 104.667969 87.003906 104.429688 87.234375 104.269531 L 88.007812 103.730469 C 88.0625 103.691406 88.132812 103.683594 88.195312 103.699219 C 88.257812 103.71875 88.3125 103.769531 88.335938 103.828125 C 88.339844 103.839844 88.667969 104.679688 88.816406 105.046875 C 88.835938 105.09375 88.855469 105.152344 88.882812 105.226562 C 89.054688 105.703125 89.414062 106.6875 90.375 107.640625 C 90.558594 107.824219 90.582031 108.121094 90.421875 108.332031 L 89.714844 109.28125 C 89.699219 109.296875 89.695312 109.320312 89.699219 109.339844 C 89.828125 110.042969 90.125 111.714844 90.128906 112.070312 C 90.136719 112.539062 89.871094 113.015625 89.675781 113.179688 C 89.296875 113.496094 87.855469 113.613281 87.429688 113.640625 C 87.339844 113.742188 86.996094 114.238281 86.65625 116.351562 C 86.367188 118.152344 89.078125 120.78125 89.105469 120.808594 C 89.160156 120.859375 89.183594 120.9375 89.167969 121.011719 C 89.152344 121.085938 89.097656 121.148438 89.023438 121.171875 C 88.984375 121.183594 86.195312 122.09375 82.71875 122.09375 " fill-opacity="1" fill-rule="nonzero"/><path fill="#000000" d="M 84.839844 109.324219 Z M 84.832031 109.347656 Z M 84.230469 110.046875 C 83.925781 110.046875 83.515625 109.925781 83.152344 109.402344 C 83.082031 109.300781 83.105469 109.167969 83.207031 109.097656 C 83.304688 109.03125 83.441406 109.054688 83.507812 109.152344 C 83.730469 109.472656 83.984375 109.625 84.261719 109.609375 C 84.558594 109.59375 84.792969 109.398438 84.835938 109.328125 C 84.867188 109.222656 84.976562 109.15625 85.085938 109.179688 C 85.203125 109.203125 85.28125 109.316406 85.257812 109.4375 C 85.214844 109.644531 84.863281 109.9375 84.460938 110.019531 C 84.394531 110.035156 84.316406 110.046875 84.230469 110.046875 " fill-opacity="1" fill-rule="nonzero"/><path fill="#000000" d="M 89.996094 107.660156 C 89.894531 107.660156 89.800781 107.589844 89.78125 107.484375 C 89.757812 107.367188 89.835938 107.253906 89.953125 107.230469 C 90.308594 107.160156 90.550781 106.992188 90.695312 106.71875 C 91.03125 106.058594 90.707031 104.910156 90.484375 104.339844 L 84.425781 106.511719 C 84.3125 106.554688 84.1875 106.496094 84.148438 106.382812 C 84.109375 106.269531 84.167969 106.144531 84.28125 106.105469 L 90.53125 103.859375 C 90.636719 103.820312 90.753906 103.871094 90.800781 103.972656 C 90.835938 104.050781 91.632812 105.839844 91.082031 106.917969 C 90.878906 107.3125 90.527344 107.558594 90.039062 107.65625 C 90.023438 107.660156 90.007812 107.660156 89.996094 107.660156 " fill-opacity="1" fill-rule="nonzero"/><path fill="#ffffff" d="M 117.53125 155.3125 C 119.601562 155.046875 121.496094 156.511719 121.761719 158.582031 C 122.027344 160.652344 120.5625 162.546875 118.492188 162.8125 C 116.421875 163.078125 114.527344 161.613281 114.261719 159.542969 C 114 157.472656 115.460938 155.578125 117.53125 155.3125 Z M 110.382812 159.300781 L 110.570312 160.753906 L 112.167969 160.90625 C 112.273438 161.238281 112.402344 161.554688 112.554688 161.855469 L 111.523438 163.082031 L 112.414062 164.25 L 113.875 163.582031 C 114.125 163.8125 114.394531 164.019531 114.683594 164.207031 L 114.402344 165.789062 L 115.757812 166.355469 L 116.6875 165.046875 C 117.015625 165.121094 117.355469 165.167969 117.699219 165.183594 L 118.25 166.691406 L 119.707031 166.503906 L 119.855469 164.90625 C 120.1875 164.804688 120.503906 164.675781 120.804688 164.519531 L 122.03125 165.550781 L 123.199219 164.660156 L 122.53125 163.199219 C 122.761719 162.949219 122.972656 162.679688 123.15625 162.394531 L 124.738281 162.671875 L 125.304688 161.316406 L 123.996094 160.386719 C 124.070312 160.058594 124.117188 159.71875 124.132812 159.375 L 125.640625 158.824219 L 125.453125 157.367188 L 123.855469 157.214844 C 123.753906 156.886719 123.625 156.570312 123.46875 156.269531 L 124.5 155.042969 L 123.609375 153.875 L 122.152344 154.539062 C 121.898438 154.3125 121.628906 154.101562 121.34375 153.917969 L 121.621094 152.335938 L 120.265625 151.769531 L 119.339844 153.074219 C 119.007812 153 118.667969 152.957031 118.324219 152.941406 L 117.773438 151.433594 L 116.320312 151.621094 L 116.167969 153.214844 C 115.839844 153.320312 115.519531 153.449219 115.222656 153.601562 L 113.992188 152.574219 L 112.824219 153.460938 L 113.492188 154.921875 C 113.261719 155.171875 113.054688 155.445312 112.867188 155.730469 L 111.289062 155.453125 L 110.722656 156.808594 L 112.027344 157.734375 C 111.953125 158.066406 111.910156 158.40625 111.890625 158.75 L 110.382812 159.300781 " fill-opacity="1" fill-rule="nonzero"/><path fill="#14697d" d="M 117.53125 155.3125 L 117.535156 155.3125 Z M 118.019531 155.5 C 117.867188 155.5 117.714844 155.507812 117.558594 155.527344 C 116.617188 155.648438 115.777344 156.128906 115.195312 156.882812 C 114.613281 157.636719 114.359375 158.570312 114.480469 159.515625 C 114.601562 160.457031 115.082031 161.300781 115.832031 161.882812 C 116.585938 162.460938 117.523438 162.71875 118.464844 162.59375 C 120.414062 162.347656 121.796875 160.558594 121.546875 158.609375 C 121.425781 157.664062 120.945312 156.824219 120.191406 156.242188 C 119.558594 155.753906 118.804688 155.5 118.019531 155.5 Z M 118.003906 163.0625 C 117.125 163.0625 116.273438 162.773438 115.566406 162.226562 C 114.722656 161.574219 114.183594 160.628906 114.046875 159.570312 C 113.910156 158.511719 114.195312 157.460938 114.847656 156.617188 C 115.503906 155.773438 116.445312 155.230469 117.503906 155.097656 C 118.5625 154.960938 119.613281 155.246094 120.457031 155.898438 C 121.300781 156.550781 121.84375 157.492188 121.976562 158.554688 C 122.257812 160.742188 120.707031 162.746094 118.519531 163.027344 C 118.347656 163.050781 118.175781 163.0625 118.003906 163.0625 Z M 116.6875 164.832031 C 116.703125 164.832031 116.71875 164.832031 116.734375 164.835938 C 117.050781 164.90625 117.378906 164.949219 117.710938 164.964844 C 117.800781 164.96875 117.875 165.027344 117.90625 165.109375 L 118.394531 166.453125 L 119.503906 166.308594 L 119.640625 164.886719 C 119.648438 164.800781 119.707031 164.726562 119.792969 164.699219 C 120.109375 164.601562 120.417969 164.472656 120.703125 164.328125 C 120.78125 164.285156 120.878906 164.296875 120.945312 164.355469 L 122.039062 165.273438 L 122.929688 164.59375 L 122.332031 163.292969 C 122.296875 163.210938 122.3125 163.117188 122.371094 163.054688 C 122.59375 162.8125 122.796875 162.550781 122.976562 162.273438 C 123.023438 162.199219 123.109375 162.164062 123.195312 162.179688 L 124.601562 162.425781 L 125.035156 161.390625 L 123.871094 160.566406 C 123.800781 160.515625 123.765625 160.425781 123.785156 160.339844 C 123.855469 160.023438 123.898438 159.695312 123.914062 159.363281 C 123.921875 159.273438 123.976562 159.199219 124.058594 159.167969 L 125.402344 158.679688 L 125.257812 157.566406 L 123.835938 157.433594 C 123.75 157.425781 123.675781 157.367188 123.648438 157.28125 C 123.550781 156.964844 123.421875 156.65625 123.277344 156.367188 C 123.238281 156.289062 123.246094 156.195312 123.304688 156.128906 L 124.222656 155.035156 L 123.542969 154.144531 L 122.242188 154.738281 C 122.164062 154.773438 122.070312 154.761719 122.003906 154.703125 C 121.761719 154.480469 121.5 154.277344 121.222656 154.097656 C 121.152344 154.050781 121.113281 153.964844 121.128906 153.878906 L 121.375 152.46875 L 120.34375 152.039062 L 119.515625 153.199219 C 119.464844 153.273438 119.378906 153.304688 119.292969 153.289062 C 118.976562 153.21875 118.644531 153.171875 118.3125 153.15625 C 118.226562 153.152344 118.148438 153.097656 118.121094 153.015625 L 117.628906 151.671875 L 116.519531 151.8125 L 116.382812 153.238281 C 116.375 153.324219 116.316406 153.398438 116.234375 153.421875 C 115.914062 153.523438 115.609375 153.648438 115.320312 153.796875 C 115.242188 153.835938 115.148438 153.824219 115.082031 153.769531 L 113.988281 152.851562 L 113.097656 153.53125 L 113.691406 154.832031 C 113.726562 154.910156 113.710938 155.003906 113.652344 155.070312 C 113.433594 155.3125 113.230469 155.574219 113.050781 155.847656 C 113.003906 155.921875 112.917969 155.960938 112.828125 155.945312 L 111.421875 155.695312 L 110.988281 156.730469 L 112.152344 157.558594 C 112.222656 157.609375 112.257812 157.695312 112.238281 157.78125 C 112.167969 158.097656 112.125 158.425781 112.109375 158.761719 C 112.105469 158.847656 112.046875 158.925781 111.964844 158.953125 L 110.621094 159.445312 L 110.765625 160.554688 L 112.1875 160.691406 C 112.277344 160.699219 112.347656 160.757812 112.375 160.839844 C 112.476562 161.160156 112.601562 161.46875 112.75 161.753906 C 112.789062 161.832031 112.777344 161.925781 112.722656 161.996094 L 111.804688 163.089844 L 112.484375 163.980469 L 113.78125 163.382812 C 113.863281 163.347656 113.957031 163.363281 114.019531 163.421875 C 114.261719 163.644531 114.523438 163.84375 114.800781 164.023438 C 114.875 164.070312 114.910156 164.160156 114.898438 164.246094 L 114.648438 165.652344 L 115.683594 166.085938 L 116.507812 164.921875 C 116.550781 164.863281 116.617188 164.832031 116.6875 164.832031 Z M 118.25 166.910156 C 118.160156 166.910156 118.078125 166.851562 118.046875 166.765625 L 117.546875 165.390625 C 117.285156 165.375 117.03125 165.339844 116.78125 165.289062 L 115.9375 166.480469 C 115.875 166.5625 115.769531 166.59375 115.675781 166.554688 L 114.320312 165.988281 C 114.226562 165.949219 114.171875 165.847656 114.191406 165.75 L 114.441406 164.308594 C 114.230469 164.164062 114.027344 164.007812 113.835938 163.839844 L 112.503906 164.449219 C 112.414062 164.488281 112.304688 164.460938 112.242188 164.382812 L 111.351562 163.214844 C 111.289062 163.132812 111.292969 163.019531 111.359375 162.941406 L 112.296875 161.824219 C 112.1875 161.59375 112.089844 161.355469 112.003906 161.109375 L 110.550781 160.972656 C 110.449219 160.964844 110.367188 160.882812 110.355469 160.785156 L 110.167969 159.328125 C 110.15625 159.226562 110.214844 159.128906 110.308594 159.09375 L 111.683594 158.59375 C 111.703125 158.335938 111.734375 158.078125 111.785156 157.828125 L 110.59375 156.984375 C 110.511719 156.925781 110.480469 156.816406 110.519531 156.722656 L 111.085938 155.367188 C 111.125 155.273438 111.226562 155.222656 111.324219 155.238281 L 112.765625 155.492188 C 112.910156 155.28125 113.066406 155.078125 113.234375 154.882812 L 112.628906 153.554688 C 112.585938 153.460938 112.613281 153.351562 112.691406 153.289062 L 113.859375 152.398438 C 113.941406 152.339844 114.054688 152.339844 114.132812 152.40625 L 115.25 153.34375 C 115.480469 153.234375 115.71875 153.136719 115.964844 153.054688 L 116.101562 151.597656 C 116.113281 151.496094 116.191406 151.414062 116.289062 151.402344 L 117.746094 151.21875 C 117.847656 151.203125 117.945312 151.261719 117.980469 151.359375 L 118.480469 152.730469 C 118.738281 152.75 118.996094 152.785156 119.242188 152.832031 L 120.089844 151.644531 C 120.148438 151.558594 120.257812 151.527344 120.351562 151.570312 L 121.707031 152.136719 C 121.796875 152.175781 121.851562 152.273438 121.835938 152.375 L 121.582031 153.8125 C 121.792969 153.957031 121.996094 154.113281 122.191406 154.285156 L 123.519531 153.675781 C 123.613281 153.632812 123.722656 153.660156 123.78125 153.742188 L 124.671875 154.910156 C 124.734375 154.992188 124.730469 155.105469 124.667969 155.179688 L 123.730469 156.300781 C 123.839844 156.527344 123.9375 156.769531 124.019531 157.011719 L 125.472656 157.152344 C 125.574219 157.160156 125.65625 157.238281 125.671875 157.339844 L 125.855469 158.796875 C 125.871094 158.898438 125.8125 158.996094 125.714844 159.027344 L 124.34375 159.527344 C 124.324219 159.789062 124.289062 160.042969 124.238281 160.292969 L 125.429688 161.136719 C 125.511719 161.199219 125.542969 161.304688 125.503906 161.398438 L 124.9375 162.753906 C 124.898438 162.847656 124.800781 162.902344 124.699219 162.886719 L 123.257812 162.632812 C 123.117188 162.84375 122.957031 163.046875 122.789062 163.238281 L 123.398438 164.570312 C 123.441406 164.660156 123.414062 164.773438 123.332031 164.832031 L 122.164062 165.722656 C 122.082031 165.785156 121.96875 165.78125 121.890625 165.714844 L 120.773438 164.777344 C 120.542969 164.890625 120.304688 164.988281 120.058594 165.070312 L 119.921875 166.523438 C 119.914062 166.625 119.835938 166.707031 119.734375 166.71875 L 118.277344 166.90625 C 118.269531 166.90625 118.257812 166.910156 118.25 166.910156 " fill-opacity="1" fill-rule="nonzero"/><path fill="#ffffff" d="M 127.867188 144.890625 C 129.664062 144.660156 131.304688 145.929688 131.535156 147.726562 C 131.765625 149.523438 130.496094 151.164062 128.699219 151.394531 C 126.902344 151.625 125.261719 150.355469 125.03125 148.558594 C 124.800781 146.761719 126.070312 145.121094 127.867188 144.890625 Z M 121.667969 148.347656 L 121.828125 149.613281 L 123.214844 149.742188 C 123.304688 150.027344 123.414062 150.304688 123.550781 150.566406 L 122.65625 151.628906 L 123.429688 152.644531 L 124.691406 152.0625 C 124.910156 152.265625 125.144531 152.445312 125.394531 152.605469 L 125.152344 153.976562 L 126.328125 154.46875 L 127.132812 153.335938 C 127.421875 153.398438 127.714844 153.4375 128.011719 153.453125 L 128.488281 154.761719 L 129.753906 154.597656 L 129.882812 153.214844 C 130.171875 153.125 130.445312 153.011719 130.707031 152.878906 L 131.769531 153.769531 L 132.78125 153 L 132.203125 151.734375 C 132.40625 151.515625 132.585938 151.28125 132.746094 151.03125 L 134.117188 151.273438 L 134.609375 150.097656 L 133.476562 149.292969 C 133.539062 149.007812 133.578125 148.714844 133.59375 148.414062 L 134.902344 147.9375 L 134.738281 146.671875 L 133.355469 146.542969 C 133.265625 146.257812 133.152344 145.980469 133.019531 145.71875 L 133.910156 144.65625 L 133.140625 143.640625 L 131.875 144.222656 C 131.65625 144.019531 131.421875 143.839844 131.171875 143.679688 L 131.414062 142.308594 L 130.238281 141.816406 L 129.433594 142.949219 C 129.148438 142.886719 128.851562 142.847656 128.554688 142.832031 L 128.078125 141.523438 L 126.8125 141.6875 L 126.683594 143.070312 C 126.398438 143.160156 126.125 143.273438 125.863281 143.40625 L 124.796875 142.515625 L 123.785156 143.285156 L 124.363281 144.550781 C 124.164062 144.769531 123.980469 145.003906 123.820312 145.253906 L 122.449219 145.011719 L 121.960938 146.1875 L 123.09375 146.992188 C 123.027344 147.277344 122.988281 147.574219 122.972656 147.871094 L 121.667969 148.347656 " fill-opacity="1" fill-rule="nonzero"/><path fill="#14697d" d="M 127.867188 144.890625 Z M 128.289062 145.082031 C 128.160156 145.082031 128.027344 145.089844 127.894531 145.105469 C 127.085938 145.210938 126.363281 145.625 125.863281 146.269531 C 125.363281 146.917969 125.144531 147.71875 125.246094 148.53125 C 125.460938 150.207031 127 151.394531 128.671875 151.179688 C 130.347656 150.964844 131.535156 149.429688 131.320312 147.753906 C 131.214844 146.941406 130.804688 146.21875 130.15625 145.71875 C 129.613281 145.300781 128.964844 145.082031 128.289062 145.082031 Z M 128.28125 151.640625 C 126.550781 151.640625 125.042969 150.351562 124.816406 148.585938 C 124.695312 147.660156 124.945312 146.742188 125.515625 146.003906 C 126.089844 145.265625 126.914062 144.792969 127.839844 144.675781 C 128.765625 144.554688 129.683594 144.804688 130.421875 145.375 C 131.160156 145.945312 131.632812 146.773438 131.75 147.699219 C 131.996094 149.613281 130.640625 151.367188 128.726562 151.613281 C 128.578125 151.632812 128.429688 151.640625 128.28125 151.640625 Z M 127.132812 153.117188 C 127.148438 153.117188 127.164062 153.121094 127.179688 153.125 C 127.453125 153.183594 127.738281 153.222656 128.023438 153.234375 C 128.113281 153.238281 128.1875 153.296875 128.21875 153.378906 L 128.632812 154.523438 L 129.550781 154.40625 L 129.667969 153.191406 C 129.675781 153.105469 129.734375 153.03125 129.820312 153.003906 C 130.09375 152.917969 130.359375 152.8125 130.605469 152.683594 C 130.683594 152.644531 130.777344 152.65625 130.84375 152.710938 L 131.777344 153.492188 L 132.511719 152.929688 L 132.007812 151.824219 C 131.96875 151.746094 131.984375 151.652344 132.042969 151.585938 C 132.234375 151.378906 132.410156 151.152344 132.5625 150.914062 C 132.613281 150.839844 132.699219 150.804688 132.785156 150.816406 L 133.984375 151.03125 L 134.339844 150.175781 L 133.351562 149.46875 C 133.277344 149.421875 133.246094 149.332031 133.261719 149.246094 C 133.324219 148.972656 133.359375 148.691406 133.375 148.402344 C 133.378906 148.316406 133.4375 148.238281 133.519531 148.210938 L 134.664062 147.792969 L 134.542969 146.875 L 133.332031 146.757812 C 133.246094 146.75 133.171875 146.691406 133.144531 146.609375 C 133.058594 146.332031 132.953125 146.066406 132.824219 145.820312 C 132.785156 145.742188 132.796875 145.648438 132.851562 145.582031 L 133.632812 144.648438 L 133.070312 143.914062 L 131.964844 144.417969 C 131.882812 144.457031 131.792969 144.441406 131.726562 144.382812 C 131.519531 144.191406 131.292969 144.015625 131.054688 143.863281 C 130.980469 143.8125 130.941406 143.726562 130.957031 143.640625 L 131.167969 142.441406 L 130.316406 142.085938 L 129.613281 143.074219 C 129.558594 143.148438 129.472656 143.179688 129.386719 143.164062 C 129.113281 143.101562 128.832031 143.0625 128.542969 143.050781 C 128.457031 143.046875 128.378906 142.988281 128.347656 142.90625 L 127.933594 141.761719 L 127.015625 141.878906 L 126.902344 143.09375 C 126.890625 143.179688 126.832031 143.253906 126.75 143.277344 C 126.472656 143.367188 126.210938 143.472656 125.960938 143.601562 C 125.882812 143.640625 125.789062 143.628906 125.722656 143.574219 L 124.789062 142.792969 L 124.054688 143.355469 L 124.5625 144.460938 C 124.597656 144.542969 124.582031 144.632812 124.523438 144.699219 C 124.332031 144.90625 124.15625 145.132812 124.003906 145.371094 C 123.957031 145.445312 123.871094 145.484375 123.78125 145.46875 L 122.585938 145.257812 L 122.226562 146.109375 L 123.21875 146.816406 C 123.289062 146.867188 123.324219 146.953125 123.304688 147.039062 C 123.242188 147.3125 123.207031 147.597656 123.191406 147.882812 C 123.1875 147.96875 123.132812 148.046875 123.046875 148.078125 L 121.90625 148.492188 L 122.023438 149.410156 L 123.234375 149.527344 C 123.320312 149.535156 123.394531 149.59375 123.421875 149.675781 C 123.507812 149.953125 123.617188 150.21875 123.742188 150.464844 C 123.78125 150.542969 123.773438 150.636719 123.714844 150.707031 L 122.933594 151.636719 L 123.496094 152.371094 L 124.601562 151.867188 C 124.683594 151.828125 124.777344 151.84375 124.839844 151.902344 C 125.050781 152.09375 125.277344 152.269531 125.511719 152.421875 C 125.585938 152.472656 125.625 152.558594 125.609375 152.644531 L 125.398438 153.84375 L 126.253906 154.199219 L 126.957031 153.210938 C 126.996094 153.152344 127.0625 153.117188 127.132812 153.117188 Z M 128.488281 154.980469 C 128.398438 154.980469 128.316406 154.921875 128.285156 154.835938 L 127.859375 153.660156 C 127.644531 153.644531 127.433594 153.617188 127.230469 153.578125 L 126.503906 154.59375 C 126.445312 154.675781 126.339844 154.707031 126.246094 154.667969 L 125.070312 154.179688 C 124.976562 154.136719 124.921875 154.039062 124.9375 153.9375 L 125.15625 152.707031 C 124.980469 152.589844 124.8125 152.460938 124.65625 152.320312 L 123.519531 152.839844 C 123.425781 152.882812 123.316406 152.855469 123.253906 152.777344 L 122.484375 151.761719 C 122.421875 151.679688 122.425781 151.566406 122.488281 151.488281 L 123.289062 150.535156 C 123.199219 150.34375 123.121094 150.148438 123.050781 149.945312 L 121.808594 149.828125 C 121.707031 149.820312 121.625 149.742188 121.613281 149.640625 L 121.449219 148.375 C 121.4375 148.273438 121.496094 148.179688 121.59375 148.144531 L 122.765625 147.714844 C 122.78125 147.503906 122.808594 147.292969 122.847656 147.085938 L 121.832031 146.363281 C 121.75 146.304688 121.71875 146.195312 121.757812 146.101562 L 122.25 144.925781 C 122.289062 144.835938 122.386719 144.78125 122.488281 144.796875 L 123.71875 145.015625 C 123.839844 144.839844 123.96875 144.671875 124.105469 144.511719 L 123.585938 143.375 C 123.542969 143.285156 123.570312 143.175781 123.652344 143.113281 L 124.664062 142.339844 C 124.746094 142.277344 124.859375 142.28125 124.9375 142.347656 L 125.894531 143.148438 C 126.082031 143.058594 126.277344 142.980469 126.480469 142.910156 L 126.597656 141.667969 C 126.609375 141.566406 126.6875 141.484375 126.785156 141.46875 L 128.050781 141.308594 C 128.152344 141.296875 128.246094 141.355469 128.285156 141.449219 L 128.710938 142.625 C 128.921875 142.640625 129.132812 142.667969 129.339844 142.707031 L 130.0625 141.691406 C 130.121094 141.609375 130.230469 141.578125 130.324219 141.617188 L 131.5 142.109375 C 131.59375 142.148438 131.644531 142.246094 131.628906 142.347656 L 131.410156 143.578125 C 131.585938 143.695312 131.753906 143.824219 131.914062 143.964844 L 133.050781 143.445312 C 133.140625 143.402344 133.25 143.429688 133.3125 143.511719 L 134.085938 144.523438 C 134.144531 144.605469 134.144531 144.71875 134.078125 144.796875 L 133.277344 145.75 C 133.367188 145.941406 133.445312 146.136719 133.515625 146.339844 L 134.757812 146.457031 C 134.859375 146.464844 134.941406 146.546875 134.953125 146.644531 L 135.117188 147.910156 C 135.128906 148.011719 135.070312 148.105469 134.976562 148.140625 L 133.800781 148.570312 C 133.785156 148.78125 133.757812 148.992188 133.71875 149.199219 L 134.734375 149.921875 C 134.816406 149.980469 134.847656 150.089844 134.808594 150.183594 L 134.316406 151.355469 C 134.277344 151.453125 134.179688 151.503906 134.078125 151.488281 L 132.847656 151.269531 C 132.730469 151.445312 132.601562 151.613281 132.460938 151.773438 L 132.980469 152.910156 C 133.023438 153 132.996094 153.109375 132.914062 153.171875 L 131.902344 153.945312 C 131.820312 154.007812 131.707031 154.003906 131.628906 153.9375 L 130.675781 153.136719 C 130.484375 153.226562 130.289062 153.308594 130.085938 153.375 L 129.96875 154.621094 C 129.960938 154.722656 129.882812 154.800781 129.78125 154.816406 L 128.515625 154.976562 C 128.507812 154.976562 128.5 154.980469 128.488281 154.980469 " fill-opacity="1" fill-rule="nonzero"/><path fill="#ffffff" d="M 135.601562 159.132812 C 138.496094 158.425781 141.414062 160.195312 142.121094 163.089844 C 142.828125 165.980469 141.058594 168.902344 138.164062 169.609375 C 135.273438 170.316406 132.355469 168.542969 131.648438 165.652344 C 130.941406 162.757812 132.710938 159.839844 135.601562 159.132812 Z M 126.109375 165.925781 L 126.609375 167.960938 L 128.894531 167.921875 C 129.09375 168.371094 129.328125 168.800781 129.59375 169.203125 L 128.332031 171.105469 L 129.78125 172.621094 L 131.742188 171.441406 C 132.136719 171.726562 132.550781 171.980469 132.988281 172.195312 L 132.84375 174.480469 L 134.855469 175.066406 L 135.960938 173.066406 C 136.441406 173.117188 136.929688 173.128906 137.421875 173.097656 L 138.441406 175.144531 L 140.476562 174.648438 L 140.433594 172.359375 C 140.882812 172.160156 141.3125 171.925781 141.714844 171.660156 L 143.617188 172.921875 L 145.132812 171.476562 L 143.953125 169.515625 C 144.238281 169.121094 144.492188 168.703125 144.707031 168.269531 L 146.992188 168.410156 L 147.578125 166.398438 L 145.578125 165.292969 C 145.628906 164.8125 145.640625 164.324219 145.609375 163.832031 L 147.65625 162.8125 L 147.160156 160.777344 L 144.871094 160.820312 C 144.671875 160.371094 144.4375 159.941406 144.171875 159.539062 L 145.433594 157.636719 L 143.988281 156.121094 L 142.027344 157.300781 C 141.632812 157.015625 141.214844 156.761719 140.78125 156.542969 L 140.921875 154.261719 L 138.910156 153.675781 L 137.804688 155.671875 C 137.324219 155.621094 136.839844 155.613281 136.347656 155.644531 L 135.328125 153.597656 L 133.292969 154.09375 L 133.335938 156.378906 C 132.882812 156.582031 132.457031 156.8125 132.054688 157.082031 L 130.148438 155.816406 L 128.636719 157.265625 L 129.816406 159.226562 C 129.53125 159.621094 129.277344 160.039062 129.058594 160.472656 L 126.777344 160.332031 L 126.191406 162.34375 L 128.1875 163.449219 C 128.136719 163.929688 128.128906 164.417969 128.160156 164.90625 L 126.109375 165.925781 " fill-opacity="1" fill-rule="nonzero"/><path fill="#14697d" d="M 135.601562 159.132812 L 135.65625 159.34375 C 132.882812 160.023438 131.179688 162.828125 131.859375 165.601562 C 132.1875 166.941406 133.019531 168.078125 134.199219 168.792969 C 135.382812 169.511719 136.769531 169.726562 138.113281 169.398438 C 140.882812 168.71875 142.585938 165.914062 141.910156 163.140625 C 141.582031 161.796875 140.75 160.664062 139.570312 159.945312 C 138.386719 159.230469 136.996094 159.015625 135.65625 159.34375 Z M 136.875 169.984375 C 135.859375 169.984375 134.863281 169.707031 133.972656 169.164062 C 132.691406 168.386719 131.792969 167.160156 131.4375 165.703125 C 130.699219 162.699219 132.546875 159.65625 135.550781 158.921875 C 137.007812 158.566406 138.515625 158.796875 139.792969 159.574219 C 141.074219 160.351562 141.976562 161.582031 142.332031 163.039062 C 143.066406 166.042969 141.222656 169.085938 138.214844 169.820312 C 137.769531 169.929688 137.320312 169.984375 136.875 169.984375 Z M 137.421875 172.878906 C 137.503906 172.878906 137.578125 172.925781 137.617188 173 L 138.558594 174.890625 L 140.253906 174.476562 L 140.214844 172.363281 C 140.214844 172.277344 140.265625 172.195312 140.34375 172.160156 C 140.785156 171.964844 141.207031 171.734375 141.59375 171.480469 C 141.667969 171.429688 141.761719 171.429688 141.835938 171.480469 L 143.59375 172.644531 L 144.855469 171.4375 L 143.765625 169.625 C 143.71875 169.550781 143.726562 169.457031 143.777344 169.386719 C 144.054688 169.003906 144.300781 168.59375 144.515625 168.171875 C 144.550781 168.09375 144.636719 168.046875 144.722656 168.050781 L 146.832031 168.179688 L 147.320312 166.503906 L 145.472656 165.480469 C 145.398438 165.441406 145.355469 165.355469 145.363281 165.269531 C 145.414062 164.804688 145.421875 164.328125 145.390625 163.847656 C 145.386719 163.757812 145.433594 163.675781 145.511719 163.636719 L 147.40625 162.695312 L 146.988281 161 L 144.875 161.039062 C 144.792969 161.042969 144.707031 160.988281 144.671875 160.910156 C 144.480469 160.46875 144.25 160.046875 143.992188 159.660156 C 143.941406 159.585938 143.941406 159.492188 143.992188 159.417969 L 145.15625 157.660156 L 143.949219 156.398438 L 142.140625 157.488281 C 142.0625 157.53125 141.96875 157.527344 141.898438 157.476562 C 141.515625 157.199219 141.105469 156.949219 140.683594 156.738281 C 140.605469 156.699219 140.558594 156.617188 140.5625 156.53125 L 140.695312 154.421875 L 139.019531 153.933594 L 137.996094 155.777344 C 137.953125 155.855469 137.867188 155.898438 137.78125 155.890625 C 137.316406 155.839844 136.839844 155.832031 136.359375 155.859375 C 136.273438 155.863281 136.191406 155.820312 136.152344 155.742188 L 135.210938 153.847656 L 133.515625 154.261719 L 133.550781 156.375 C 133.554688 156.464844 133.503906 156.542969 133.421875 156.578125 C 132.984375 156.773438 132.5625 157.003906 132.175781 157.261719 C 132.101562 157.308594 132.007812 157.308594 131.933594 157.261719 L 130.175781 156.09375 L 128.914062 157.300781 L 130.003906 159.113281 C 130.046875 159.191406 130.042969 159.285156 129.992188 159.355469 C 129.714844 159.738281 129.464844 160.144531 129.253906 160.570312 C 129.214844 160.648438 129.132812 160.695312 129.046875 160.691406 L 126.9375 160.558594 L 126.449219 162.234375 L 128.292969 163.257812 C 128.371094 163.300781 128.414062 163.382812 128.40625 163.472656 C 128.355469 163.9375 128.347656 164.414062 128.375 164.894531 C 128.382812 164.980469 128.335938 165.0625 128.257812 165.101562 L 126.363281 166.042969 L 126.777344 167.742188 L 128.890625 167.703125 C 128.980469 167.707031 129.058594 167.753906 129.09375 167.832031 C 129.289062 168.273438 129.519531 168.691406 129.777344 169.082031 C 129.824219 169.152344 129.824219 169.25 129.777344 169.320312 L 128.609375 171.082031 L 129.816406 172.34375 L 131.628906 171.253906 C 131.703125 171.207031 131.796875 171.210938 131.871094 171.261719 C 132.253906 171.542969 132.660156 171.789062 133.085938 172 C 133.164062 172.039062 133.210938 172.121094 133.203125 172.210938 L 133.074219 174.320312 L 134.75 174.808594 L 135.773438 172.960938 C 135.816406 172.886719 135.898438 172.839844 135.984375 172.851562 C 136.449219 172.898438 136.929688 172.910156 137.410156 172.878906 C 137.414062 172.878906 137.417969 172.878906 137.421875 172.878906 Z M 138.441406 175.363281 C 138.359375 175.363281 138.28125 175.316406 138.246094 175.242188 L 137.289062 173.320312 C 136.882812 173.339844 136.480469 173.332031 136.085938 173.296875 L 135.046875 175.171875 C 134.996094 175.261719 134.894531 175.304688 134.796875 175.277344 L 132.785156 174.6875 C 132.6875 174.660156 132.621094 174.570312 132.628906 174.464844 L 132.761719 172.324219 C 132.40625 172.140625 132.058594 171.929688 131.730469 171.699219 L 129.894531 172.804688 C 129.804688 172.859375 129.695312 172.84375 129.625 172.769531 L 128.175781 171.257812 C 128.105469 171.183594 128.09375 171.070312 128.152344 170.984375 L 129.335938 169.199219 C 129.121094 168.867188 128.925781 168.511719 128.757812 168.140625 L 126.613281 168.179688 C 126.515625 168.175781 126.421875 168.113281 126.398438 168.011719 L 125.898438 165.980469 C 125.875 165.878906 125.921875 165.777344 126.015625 165.730469 L 127.933594 164.777344 C 127.914062 164.371094 127.921875 163.964844 127.957031 163.570312 L 126.085938 162.53125 C 125.996094 162.484375 125.953125 162.378906 125.980469 162.28125 L 126.566406 160.269531 C 126.59375 160.171875 126.6875 160.105469 126.789062 160.113281 L 128.929688 160.246094 C 129.113281 159.890625 129.324219 159.542969 129.554688 159.214844 L 128.449219 157.378906 C 128.398438 157.289062 128.414062 157.179688 128.484375 157.109375 L 130 155.660156 C 130.070312 155.589844 130.183594 155.582031 130.269531 155.636719 L 132.054688 156.820312 C 132.390625 156.605469 132.746094 156.410156 133.113281 156.242188 L 133.074219 154.097656 C 133.074219 153.996094 133.140625 153.90625 133.242188 153.882812 L 135.273438 153.382812 C 135.375 153.359375 135.476562 153.40625 135.523438 153.5 L 136.476562 155.417969 C 136.882812 155.398438 137.289062 155.40625 137.683594 155.441406 L 138.722656 153.570312 C 138.769531 153.480469 138.875 153.4375 138.972656 153.464844 L 140.984375 154.050781 C 141.082031 154.078125 141.144531 154.171875 141.140625 154.273438 L 141.007812 156.414062 C 141.363281 156.601562 141.707031 156.808594 142.039062 157.039062 L 143.875 155.933594 C 143.960938 155.882812 144.074219 155.898438 144.144531 155.96875 L 145.59375 157.484375 C 145.664062 157.558594 145.671875 157.671875 145.617188 157.753906 L 144.433594 159.539062 C 144.648438 159.875 144.839844 160.230469 145.011719 160.601562 L 147.15625 160.5625 C 147.15625 160.5625 147.15625 160.5625 147.160156 160.5625 C 147.257812 160.5625 147.347656 160.628906 147.371094 160.726562 L 147.867188 162.761719 C 147.890625 162.859375 147.84375 162.964844 147.753906 163.007812 L 145.835938 163.964844 C 145.851562 164.371094 145.84375 164.773438 145.808594 165.171875 L 147.683594 166.207031 C 147.773438 166.257812 147.816406 166.363281 147.789062 166.460938 L 147.199219 168.46875 C 147.171875 168.566406 147.078125 168.632812 146.980469 168.625 L 144.839844 168.492188 C 144.652344 168.851562 144.441406 169.195312 144.210938 169.523438 L 145.316406 171.363281 C 145.371094 171.449219 145.355469 171.5625 145.28125 171.632812 L 143.769531 173.082031 C 143.695312 173.148438 143.582031 173.160156 143.5 173.105469 L 141.714844 171.921875 C 141.378906 172.136719 141.023438 172.328125 140.652344 172.5 L 140.691406 174.644531 C 140.695312 174.746094 140.625 174.835938 140.527344 174.859375 L 138.492188 175.355469 C 138.476562 175.359375 138.457031 175.363281 138.441406 175.363281 " fill-opacity="1" fill-rule="nonzero"/><path fill="#ffffff" d="M 153.824219 74.445312 C 153.824219 79.957031 149.359375 84.421875 143.847656 84.421875 C 138.339844 84.421875 133.871094 79.957031 133.871094 74.445312 C 133.871094 68.933594 138.339844 64.464844 143.847656 64.464844 C 149.359375 64.464844 153.824219 68.933594 153.824219 74.445312 " fill-opacity="1" fill-rule="nonzero"/><path fill="#000000" d="M 143.847656 64.683594 C 138.46875 64.683594 134.089844 69.0625 134.089844 74.445312 C 134.089844 79.828125 138.46875 84.207031 143.847656 84.207031 C 149.230469 84.207031 153.609375 79.828125 153.609375 74.445312 C 153.609375 69.0625 149.230469 64.683594 143.847656 64.683594 Z M 143.847656 84.640625 C 138.226562 84.640625 133.65625 80.066406 133.65625 74.445312 C 133.65625 68.824219 138.226562 64.25 143.847656 64.25 C 149.46875 64.25 154.042969 68.824219 154.042969 74.445312 C 154.042969 80.066406 149.46875 84.640625 143.847656 84.640625 " fill-opacity="1" fill-rule="nonzero"/><path fill="#14697d" d="M 137.480469 74.429688 L 140.875 75.71875 L 140.875 77.117188 L 136.054688 74.96875 L 136.054688 73.859375 L 140.875 71.714844 L 140.875 73.117188 L 137.480469 74.429688 " fill-opacity="1" fill-rule="nonzero"/><path fill="#14697d" d="M 142.800781 78.785156 L 141.699219 78.785156 L 145 69.675781 L 146.101562 69.675781 L 142.800781 78.785156 " fill-opacity="1" fill-rule="nonzero"/><path fill="#14697d" d="M 150.652344 74.398438 L 147.089844 73.09375 L 147.089844 71.714844 L 152.066406 73.859375 L 152.066406 74.96875 L 147.089844 77.113281 L 147.089844 75.734375 L 150.652344 74.398438 " fill-opacity="1" fill-rule="nonzero"/></svg>