<?xml version="1.0" standalone="no"?><svg xmlns="http://www.w3.org/2000/svg" viewBox="0 0 1440 320"><path fill="#000000" fill-opacity="1" d="M0,192L15,176C30,160,60,128,90,112C120,96,150,96,180,133.3C210,171,240,245,270,250.7C300,256,330,192,360,176C390,160,420,192,450,170.7C480,149,510,75,540,58.7C570,43,600,85,630,106.7C660,128,690,128,720,112C750,96,780,64,810,90.7C840,117,870,203,900,197.3C930,192,960,96,990,74.7C1020,53,1050,107,1080,133.3C1110,160,1140,160,1170,138.7C1200,117,1230,75,1260,96C1290,117,1320,203,1350,229.3C1380,256,1410,224,1425,208L1440,192L1440,0L1425,0C1410,0,1380,0,1350,0C1320,0,1290,0,1260,0C1230,0,1200,0,1170,0C1140,0,1110,0,1080,0C1050,0,1020,0,990,0C960,0,930,0,900,0C870,0,840,0,810,0C780,0,750,0,720,0C690,0,660,0,630,0C600,0,570,0,540,0C510,0,480,0,450,0C420,0,390,0,360,0C330,0,300,0,270,0C240,0,210,0,180,0C150,0,120,0,90,0C60,0,30,0,15,0L0,0Z"></path></svg>