<?xml version="1.0" standalone="no"?><svg xmlns="http://www.w3.org/2000/svg" viewBox="0 0 1440 320"><path fill="#000000" fill-opacity="1" d="M0,192L15,176C30,160,60,128,90,112C120,96,150,96,180,133.3C210,171,240,245,270,250.7C300,256,330,192,360,176C390,160,420,192,450,170.7C480,149,510,75,540,58.7C570,43,600,85,630,106.7C660,128,690,128,720,112C750,96,780,64,810,90.7C840,117,870,203,900,197.3C930,192,960,96,990,74.7C1020,53,1050,107,1080,133.3C1110,160,1140,160,1170,138.7C1200,117,1230,75,1260,96C1290,117,1320,203,1350,229.3C1380,256,1410,224,1425,208L1440,192L1440,320L1425,320C1410,320,1380,320,1350,320C1320,320,1290,320,1260,320C1230,320,1200,320,1170,320C1140,320,1110,320,1080,320C1050,320,1020,320,990,320C960,320,930,320,900,320C870,320,840,320,810,320C780,320,750,320,720,320C690,320,660,320,630,320C600,320,570,320,540,320C510,320,480,320,450,320C420,320,390,320,360,320C330,320,300,320,270,320C240,320,210,320,180,320C150,320,120,320,90,320C60,320,30,320,15,320L0,320Z"></path></svg>