<svg xmlns="http://www.w3.org/2000/svg" xmlns:xlink="http://www.w3.org/1999/xlink" width="300" zoomAndPan="magnify" viewBox="0 0 224.87999 225" height="300" preserveAspectRatio="xMidYMid meet" version="1.0"><path fill="#ffbf23" d="M 51.875 66.636719 C 63.632812 46.9375 92.574219 47.230469 100.714844 47.3125 C 130.761719 47.617188 150.722656 65.957031 155.601562 70.730469 C 162.554688 77.542969 174.71875 89.449219 176.71875 106.839844 C 180.527344 139.890625 145.921875 177.84375 109.738281 177.449219 C 93.101562 177.269531 70.253906 168.917969 63.960938 152.835938 C 58.914062 139.929688 67.949219 130.765625 60.175781 114.257812 C 55.457031 104.230469 50.132812 103.378906 47.722656 93.5 C 44.34375 79.648438 51.417969 67.398438 51.875 66.636719 " fill-opacity="1" fill-rule="nonzero"/><path fill="#000000" d="M 137.582031 174.019531 C 128.84375 174.019531 118.453125 172.757812 107.753906 170.367188 C 106.789062 170.152344 105.8125 169.925781 104.847656 169.691406 C 102.921875 169.226562 101.703125 167.277344 102.136719 165.34375 L 111.722656 122.382812 C 111.9375 121.433594 112.53125 120.59375 113.355469 120.078125 C 114.179688 119.5625 115.195312 119.398438 116.144531 119.625 C 117.066406 119.847656 118.003906 120.066406 118.933594 120.273438 C 131.648438 123.109375 143.914062 124.351562 153.472656 123.773438 C 158.109375 123.488281 161.851562 122.792969 164.59375 121.707031 C 167.378906 120.597656 168.992188 119.140625 169.390625 117.367188 C 169.417969 117.242188 169.542969 117.160156 169.671875 117.1875 C 169.796875 117.21875 169.878906 117.34375 169.847656 117.46875 C 169.003906 121.246094 163.199219 123.652344 153.503906 124.242188 C 143.902344 124.824219 131.585938 123.578125 118.832031 120.734375 C 117.898438 120.523438 116.957031 120.308594 116.03125 120.082031 C 115.210938 119.886719 114.324219 120.027344 113.605469 120.476562 C 112.886719 120.925781 112.367188 121.65625 112.183594 122.484375 L 102.59375 165.445312 C 102.21875 167.128906 103.28125 168.828125 104.960938 169.234375 C 105.917969 169.46875 106.894531 169.691406 107.855469 169.90625 C 120.570312 172.746094 132.835938 173.988281 142.398438 173.40625 C 147.03125 173.125 150.773438 172.429688 153.515625 171.339844 C 156.300781 170.234375 157.914062 168.773438 158.3125 167.003906 C 158.339844 166.875 158.464844 166.796875 158.589844 166.824219 C 158.71875 166.851562 158.796875 166.976562 158.769531 167.105469 C 157.925781 170.882812 152.121094 173.289062 142.425781 173.878906 C 140.878906 173.972656 139.261719 174.019531 137.582031 174.019531 " fill-opacity="1" fill-rule="nonzero"/><path fill="#ffffff" d="M 144 98.515625 C 142.0625 97.816406 139.949219 98.976562 139.5 100.988281 L 129.921875 143.898438 C 129.546875 145.585938 130.488281 147.289062 132.121094 147.863281 C 148.835938 153.773438 159.8125 161.355469 158.539062 167.054688 L 169.617188 117.417969 C 170.871094 111.8125 160.265625 104.382812 144 98.515625 " fill-opacity="1" fill-rule="nonzero"/><path fill="#14697d" d="M 142.839844 98.550781 C 142.308594 98.550781 141.777344 98.683594 141.304688 98.945312 C 140.503906 99.382812 139.929688 100.148438 139.730469 101.039062 L 130.152344 143.949219 C 129.804688 145.519531 130.679688 147.105469 132.199219 147.644531 C 140.546875 150.59375 147.464844 153.949219 152.214844 157.347656 C 155.996094 160.054688 158.214844 162.675781 158.75 165.039062 L 169.390625 117.367188 C 170.574219 112.058594 160.578125 104.746094 143.921875 98.738281 C 143.570312 98.613281 143.203125 98.550781 142.839844 98.550781 Z M 158.539062 167.289062 C 158.523438 167.289062 158.507812 167.289062 158.488281 167.285156 C 158.363281 167.253906 158.28125 167.128906 158.308594 167.003906 C 158.902344 164.34375 156.699219 161.136719 151.9375 157.730469 C 147.226562 154.355469 140.347656 151.023438 132.039062 148.085938 C 130.300781 147.472656 129.292969 145.648438 129.691406 143.847656 L 139.269531 100.9375 C 139.5 99.914062 140.15625 99.035156 141.078125 98.53125 C 141.996094 98.023438 143.09375 97.9375 144.078125 98.296875 C 152.207031 101.226562 158.925781 104.539062 163.515625 107.875 C 168.285156 111.339844 170.476562 114.660156 169.847656 117.46875 L 158.769531 167.105469 C 158.746094 167.214844 158.648438 167.289062 158.539062 167.289062 " fill-opacity="1" fill-rule="nonzero"/><path fill="#a6201e" d="M 140.585938 116.53125 C 140.265625 116.410156 139.910156 116.4375 139.613281 116.601562 C 139.3125 116.765625 139.097656 117.046875 139.023438 117.378906 C 137.613281 123.695312 135.746094 132.054688 133.277344 143.113281 C 133.148438 143.691406 133.46875 144.277344 134.023438 144.480469 C 143.824219 148.082031 151.550781 152.226562 155.890625 156.199219 C 156.203125 156.480469 156.644531 156.578125 157.042969 156.453125 C 157.449219 156.324219 157.75 155.992188 157.84375 155.582031 C 160.261719 144.746094 162.101562 136.492188 163.503906 130.21875 C 163.589844 129.832031 163.476562 129.429688 163.203125 129.144531 C 159.164062 124.914062 151.078125 120.410156 140.585938 116.53125 " fill-opacity="1" fill-rule="nonzero"/><path fill="#a6201e" d="M 143.707031 102.554688 C 143.386719 102.4375 143.03125 102.460938 142.730469 102.625 C 142.429688 102.789062 142.214844 103.074219 142.140625 103.40625 C 141.742188 105.195312 141.210938 107.582031 140.5 110.753906 C 140.371094 111.332031 140.691406 111.914062 141.246094 112.121094 C 151.0625 115.734375 158.789062 119.890625 163.101562 123.871094 C 163.414062 124.15625 163.851562 124.253906 164.253906 124.128906 C 164.660156 124.003906 164.964844 123.671875 165.058594 123.261719 C 165.71875 120.292969 166.230469 118.003906 166.621094 116.242188 C 166.707031 115.859375 166.597656 115.457031 166.324219 115.167969 C 162.28125 110.941406 154.199219 106.4375 143.707031 102.554688 " fill-opacity="1" fill-rule="nonzero"/><path fill="#ffffff" d="M 100.925781 137.109375 C 101.882812 137.324219 102.832031 137.542969 103.773438 137.769531 C 105.660156 138.226562 107.550781 137.042969 107.972656 135.148438 L 124.464844 61.691406 C 124.878906 59.839844 123.726562 58 121.878906 57.554688 C 120.90625 57.316406 119.925781 57.089844 118.933594 56.867188 C 92.160156 50.894531 69.0625 52.296875 67.34375 60.003906 L 49.339844 140.246094 C 51.058594 132.539062 74.15625 131.136719 100.925781 137.109375 " fill-opacity="1" fill-rule="nonzero"/><path fill="#14697d" d="M 88.65625 53.398438 C 86.957031 53.398438 85.324219 53.445312 83.757812 53.542969 C 79.042969 53.828125 75.242188 54.535156 72.453125 55.644531 C 69.617188 56.769531 67.976562 58.253906 67.574219 60.058594 L 50.011719 138.3125 C 52.148438 135.558594 57.589844 133.808594 65.722656 133.3125 C 75.488281 132.71875 88.007812 133.988281 100.976562 136.882812 C 101.925781 137.09375 102.886719 137.316406 103.824219 137.542969 C 104.675781 137.746094 105.550781 137.605469 106.292969 137.140625 C 107.039062 136.679688 107.550781 135.953125 107.742188 135.097656 L 124.234375 61.640625 C 124.617188 59.925781 123.535156 58.195312 121.824219 57.785156 C 120.851562 57.546875 119.859375 57.316406 118.878906 57.097656 C 108.035156 54.679688 97.507812 53.398438 88.65625 53.398438 Z M 49.339844 140.484375 C 49.320312 140.484375 49.304688 140.480469 49.285156 140.476562 C 49.160156 140.449219 49.078125 140.324219 49.109375 140.195312 C 49.109375 140.191406 49.109375 140.191406 49.109375 140.1875 L 67.113281 59.953125 C 67.96875 56.113281 73.871094 53.671875 83.730469 53.070312 C 93.496094 52.476562 106.015625 53.746094 118.984375 56.636719 C 119.964844 56.859375 120.957031 57.089844 121.9375 57.324219 C 123.894531 57.796875 125.132812 59.78125 124.691406 61.742188 L 108.203125 135.199219 C 107.984375 136.179688 107.394531 137.011719 106.542969 137.542969 C 105.691406 138.070312 104.6875 138.234375 103.714844 138 C 102.777344 137.773438 101.824219 137.554688 100.875 137.339844 C 87.949219 134.457031 75.476562 133.191406 65.753906 133.785156 C 61.039062 134.070312 57.234375 134.777344 54.445312 135.886719 C 51.613281 137.011719 49.96875 138.496094 49.566406 140.296875 L 49.566406 140.300781 C 49.542969 140.410156 49.445312 140.484375 49.339844 140.484375 " fill-opacity="1" fill-rule="nonzero"/><path fill="#a6201e" d="M 111.839844 78.921875 C 113.207031 79.226562 114.417969 79.515625 115.414062 79.765625 C 115.925781 79.890625 116.464844 79.804688 116.917969 79.527344 C 117.363281 79.25 117.683594 78.804688 117.796875 78.289062 L 118.042969 77.195312 L 119.625 70.425781 L 119.789062 69.691406 C 120.0625 68.472656 119.3125 67.261719 118.101562 66.964844 C 117.152344 66.730469 116.023438 66.460938 114.757812 66.179688 C 91.1875 60.917969 70.902344 62.769531 69.558594 67.59375 L 67.164062 78.441406 C 70.390625 75.945312 88.269531 73.660156 111.839844 78.921875 " fill-opacity="1" fill-rule="nonzero"/><path fill="#a6201e" d="M 103.566406 113.5 C 104.40625 113.6875 105.875 114.039062 107.140625 114.351562 C 107.652344 114.476562 108.195312 114.390625 108.640625 114.113281 C 109.089844 113.835938 109.410156 113.390625 109.523438 112.875 L 109.769531 111.773438 L 115.65625 86.296875 L 115.824219 85.5625 C 116.09375 84.347656 115.34375 83.136719 114.132812 82.835938 C 113.183594 82.601562 112.054688 82.335938 110.789062 82.050781 C 87.21875 76.792969 66.933594 78.644531 65.59375 83.464844 L 58.890625 113.019531 C 62.117188 110.523438 79.996094 108.238281 103.566406 113.5 " fill-opacity="1" fill-rule="nonzero"/><path fill="#a6201e" d="M 99.15625 132.421875 C 99.691406 132.539062 101.328125 132.929688 102.734375 133.277344 C 103.246094 133.402344 103.785156 133.3125 104.234375 133.035156 C 104.679688 132.757812 105 132.3125 105.113281 131.796875 L 105.359375 130.691406 L 107.617188 121.214844 L 107.78125 120.480469 C 108.054688 119.265625 107.304688 118.054688 106.089844 117.757812 C 105.144531 117.523438 104.015625 117.253906 102.746094 116.96875 C 79.179688 111.710938 58.894531 113.5625 57.550781 118.382812 L 54.480469 131.941406 C 57.707031 129.441406 75.585938 127.160156 99.15625 132.421875 " fill-opacity="1" fill-rule="nonzero"/><path fill="#14697d" d="M 120.863281 62.183594 C 120.863281 62.851562 120.320312 63.394531 119.652344 63.394531 C 118.980469 63.394531 118.441406 62.851562 118.441406 62.183594 C 118.441406 61.515625 118.980469 60.972656 119.652344 60.972656 C 120.320312 60.972656 120.863281 61.515625 120.863281 62.183594 " fill-opacity="1" fill-rule="nonzero"/><path fill="#a6201e" d="M 116.761719 61.285156 C 116.761719 61.953125 116.222656 62.496094 115.550781 62.496094 C 114.882812 62.496094 114.339844 61.953125 114.339844 61.285156 C 114.339844 60.613281 114.882812 60.074219 115.550781 60.074219 C 116.222656 60.074219 116.761719 60.613281 116.761719 61.285156 " fill-opacity="1" fill-rule="nonzero"/><path fill="#a6201e" d="M 112.542969 60.421875 C 112.542969 61.089844 112 61.632812 111.332031 61.632812 C 110.664062 61.632812 110.121094 61.089844 110.121094 60.421875 C 110.121094 59.753906 110.664062 59.210938 111.332031 59.210938 C 112 59.210938 112.542969 59.753906 112.542969 60.421875 " fill-opacity="1" fill-rule="nonzero"/><path fill="#ffffff" d="M 160.707031 121.800781 C 160.835938 121.695312 160.894531 121.53125 160.863281 121.371094 C 160.828125 121.183594 160.644531 121.074219 160.5625 121.027344 C 159.523438 120.421875 157.808594 120.855469 157.808594 120.855469 C 157.339844 120.972656 156.601562 121.160156 155.84375 121.742188 C 154.945312 122.433594 154.570312 123.261719 154.125 124.273438 C 153.753906 125.125 153.289062 126.433594 153.105469 128.140625 C 153.96875 127.441406 160.199219 122.226562 160.707031 121.800781 " fill-opacity="1" fill-rule="nonzero"/><path fill="#000000" d="M 160.707031 121.800781 Z M 159.109375 120.941406 C 158.449219 120.941406 157.878906 121.082031 157.867188 121.082031 C 157.40625 121.199219 156.703125 121.375 155.988281 121.929688 C 155.121094 122.597656 154.757812 123.417969 154.339844 124.367188 C 153.898438 125.378906 153.585938 126.457031 153.417969 127.578125 C 154.71875 126.503906 157.964844 123.785156 159.648438 122.378906 C 160.121094 121.984375 160.453125 121.703125 160.554688 121.621094 C 160.617188 121.570312 160.644531 121.492188 160.628906 121.414062 C 160.613281 121.332031 160.484375 121.253906 160.441406 121.230469 C 160.058594 121.007812 159.5625 120.941406 159.109375 120.941406 Z M 153.105469 128.375 C 153.070312 128.375 153.027344 128.367188 152.996094 128.347656 C 152.910156 128.300781 152.863281 128.210938 152.871094 128.113281 C 153.019531 126.734375 153.371094 125.410156 153.910156 124.179688 C 154.335938 123.210938 154.734375 122.296875 155.699219 121.554688 C 156.492188 120.945312 157.28125 120.746094 157.753906 120.625 C 157.824219 120.605469 159.570312 120.179688 160.679688 120.824219 C 160.765625 120.875 161.039062 121.03125 161.09375 121.328125 C 161.140625 121.570312 161.050781 121.824219 160.859375 121.980469 C 160.757812 122.066406 160.421875 122.347656 159.949219 122.742188 C 158 124.371094 153.945312 127.765625 153.253906 128.320312 C 153.210938 128.355469 153.160156 128.375 153.105469 128.375 " fill-opacity="1" fill-rule="nonzero"/><path fill="#14697d" d="M 123.96875 116.40625 C 126.933594 120.667969 130.164062 123.082031 132.167969 124.351562 C 133.441406 125.160156 143.976562 131.839844 150.449219 127.492188 C 152.050781 126.414062 152.953125 124.964844 153.433594 124.03125 C 154.203125 124.855469 154.976562 125.683594 155.746094 126.507812 C 155.59375 127.53125 154.101562 136.558594 146.914062 139.769531 C 143.242188 141.40625 139.488281 141.078125 137.101562 140.542969 C 133.75 139.792969 128.953125 138.46875 127.050781 136.617188 C 119.714844 129.46875 123.96875 116.40625 123.96875 116.40625 " fill-opacity="1" fill-rule="nonzero"/><path fill="#14697d" d="M 129.597656 144.507812 C 126.683594 129.277344 131.683594 123.183594 126.632812 118.261719 C 122.011719 113.757812 113.554688 114.703125 109.898438 115.113281 C 105.746094 115.578125 102.308594 115.964844 99.855469 118.457031 C 99.203125 119.117188 98.730469 119.820312 98.390625 120.578125 L 98.390625 120.574219 C 93.53125 128.6875 96.679688 137.484375 98.6875 141.578125 C 98.234375 157.546875 91.671875 162.015625 95.527344 168.136719 C 99.699219 174.765625 110.847656 175.015625 116.757812 174.042969 C 118.832031 173.703125 130.46875 171.527344 133.519531 163.378906 C 135.519531 158.035156 131.742188 155.695312 129.597656 144.507812 " fill-opacity="1" fill-rule="nonzero"/><path fill="#ffffff" d="M 122.253906 142.503906 C 122.253906 142.503906 132.292969 141.363281 136.65625 135.90625 L 143.929688 131.800781 C 143.929688 131.800781 143.199219 134.457031 141.167969 135.148438 C 141.167969 135.148438 141.945312 138.5625 139.203125 140.128906 C 139.203125 140.128906 137.207031 141.058594 136.203125 140.839844 C 136.203125 140.839844 130.960938 149.746094 122.375 150.703125 C 122.375 150.703125 120.96875 146.796875 122.253906 142.503906 " fill-opacity="1" fill-rule="nonzero"/><path fill="#000000" d="M 122.433594 142.71875 C 121.410156 146.320312 122.296875 149.65625 122.539062 150.445312 C 130.800781 149.402344 135.949219 140.808594 136 140.722656 C 136.054688 140.632812 136.152344 140.589844 136.253906 140.609375 C 137.007812 140.773438 138.554688 140.171875 139.097656 139.917969 C 141.648438 138.453125 140.945312 135.234375 140.9375 135.203125 C 140.910156 135.082031 140.976562 134.964844 141.089844 134.925781 C 142.417969 134.476562 143.160156 133.109375 143.492188 132.320312 L 136.808594 136.089844 C 132.667969 141.21875 123.773438 142.542969 122.433594 142.71875 Z M 122.375 150.9375 C 122.277344 150.9375 122.1875 150.878906 122.152344 150.785156 C 122.09375 150.621094 120.734375 146.753906 122.027344 142.433594 C 122.054688 142.34375 122.132812 142.277344 122.226562 142.269531 C 122.324219 142.257812 132.21875 141.074219 136.472656 135.757812 C 136.488281 135.734375 136.511719 135.714844 136.539062 135.699219 L 143.8125 131.597656 C 143.898438 131.550781 144 131.558594 144.074219 131.617188 C 144.148438 131.675781 144.183594 131.773438 144.15625 131.863281 C 144.125 131.972656 143.414062 134.488281 141.433594 135.300781 C 141.550781 136.085938 141.785156 138.925781 139.324219 140.335938 C 139.316406 140.335938 139.3125 140.339844 139.304688 140.34375 C 139.222656 140.378906 137.421875 141.210938 136.324219 141.097656 C 135.605469 142.234375 130.417969 150.042969 122.402344 150.9375 C 122.390625 150.9375 122.382812 150.9375 122.375 150.9375 " fill-opacity="1" fill-rule="nonzero"/><path fill="#a6201e" d="M 118.207031 151.136719 C 112.152344 151.136719 107.875 149.335938 105.242188 147.699219 C 101.785156 145.550781 100.269531 143.195312 100.257812 143.171875 C 100.214844 143.09375 100.214844 142.984375 100.269531 142.910156 C 100.347656 142.808594 100.492188 142.78125 100.597656 142.859375 C 100.632812 142.882812 100.65625 142.910156 100.671875 142.945312 C 100.828125 143.191406 106.648438 151.824219 121.03125 150.539062 C 121.160156 150.527344 121.273438 150.621094 121.285156 150.75 C 121.296875 150.882812 121.199219 150.996094 121.070312 151.007812 C 120.078125 151.097656 119.121094 151.136719 118.207031 151.136719 " fill-opacity="1" fill-rule="nonzero"/><path fill="#a6201e" d="M 120.535156 142.324219 C 120.523438 142.324219 120.515625 142.324219 120.503906 142.320312 C 112.453125 141.226562 109.042969 135.964844 107.601562 131.742188 C 106.042969 127.191406 106.386719 122.835938 106.390625 122.792969 C 106.402344 122.664062 106.519531 122.566406 106.644531 122.578125 C 106.773438 122.589844 106.871094 122.703125 106.859375 122.832031 C 106.855469 122.875 106.523438 127.144531 108.050781 131.605469 C 110.089844 137.554688 114.300781 141.003906 120.566406 141.855469 C 120.695312 141.871094 120.785156 141.992188 120.769531 142.121094 C 120.753906 142.238281 120.652344 142.324219 120.535156 142.324219 " fill-opacity="1" fill-rule="nonzero"/><path fill="#a6201e" d="M 127.160156 134.761719 C 127.144531 134.761719 127.128906 134.757812 127.113281 134.753906 C 126.984375 134.730469 126.902344 134.605469 126.925781 134.480469 C 128.605469 126.058594 124.964844 121.054688 124.929688 121.007812 C 124.851562 120.902344 124.875 120.753906 124.976562 120.675781 C 125.082031 120.597656 125.230469 120.621094 125.308594 120.722656 C 125.34375 120.773438 129.109375 125.933594 127.390625 134.570312 C 127.367188 134.683594 127.269531 134.761719 127.160156 134.761719 " fill-opacity="1" fill-rule="nonzero"/><path fill="#ffffff" d="M 125.992188 175.269531 L 127.039062 165.183594 C 127.042969 164.347656 126.988281 156.226562 122.101562 153.398438 C 116.824219 150.339844 107.234375 153.554688 101.859375 164.367188 C 100.984375 168.289062 101.28125 170.222656 101.269531 173.097656 C 101.265625 175.167969 101.238281 174.882812 101.195312 176.894531 C 104.929688 177.5625 110.105469 178.058594 116.164062 177.289062 C 119.980469 176.804688 123.328125 176.183594 125.992188 175.269531 " fill-opacity="1" fill-rule="nonzero"/><path fill="#000000" d="M 119.773438 95.183594 C 121.929688 96.730469 120.921875 98.539062 123.847656 103.332031 C 125.515625 106.0625 126.53125 106.601562 126.792969 107.515625 C 126.855469 107.742188 126.859375 107.90625 126.855469 108.125 C 126.816406 110.195312 124.023438 112.140625 121.640625 112.8125 C 117.214844 114.058594 114.984375 110.707031 111.996094 112.304688 C 109.832031 113.464844 110.054688 115.730469 108.183594 116.046875 C 106.300781 116.367188 104.289062 114.367188 103.355469 112.773438 C 101.328125 109.316406 102.828125 105.191406 103.542969 103.292969 C 104.714844 100.1875 106.484375 98.367188 107.042969 97.828125 C 107.652344 97.230469 108.789062 96.140625 110.535156 95.339844 C 110.894531 95.171875 116.355469 92.738281 119.773438 95.183594 " fill-opacity="1" fill-rule="nonzero"/><path fill="#ffffff" d="M 109.421875 114.664062 C 109.792969 114.484375 110.214844 114.246094 110.5625 113.777344 C 110.730469 113.550781 110.851562 113.269531 110.949219 112.882812 L 112.734375 105.429688 C 112.734375 105.429688 111.191406 105.039062 111.207031 103.054688 C 111.21875 101.511719 112.859375 101.96875 112.859375 101.96875 L 113.277344 99.179688 C 114.335938 99.980469 113.648438 101.671875 114.921875 101.292969 L 120.542969 99.628906 C 120.542969 99.628906 121.914062 99.582031 121.101562 103.6875 C 120.867188 105.101562 121.757812 105.777344 121.972656 106.195312 C 122.125 106.488281 121.980469 106.84375 121.664062 106.949219 L 121.230469 107.089844 C 119.507812 110.566406 118.5625 111.03125 117.320312 110.523438 L 116.953125 112.027344 C 116.855469 112.636719 116.816406 113.496094 117.328125 114.066406 C 117.726562 114.511719 118.246094 114.535156 119.292969 114.847656 C 119.859375 115.015625 120.683594 115.296875 121.660156 115.777344 C 120.898438 116.210938 120.039062 116.605469 119.082031 116.921875 C 113.691406 118.695312 108.664062 116.777344 106.542969 115.804688 C 107.285156 115.566406 108.347656 115.191406 109.421875 114.664062 " fill-opacity="1" fill-rule="nonzero"/><path fill="#000000" d="M 107.195312 115.835938 C 110.1875 117.109375 114.503906 118.179688 119.007812 116.695312 C 119.734375 116.457031 120.453125 116.152344 121.140625 115.792969 C 120.507812 115.503906 119.867188 115.261719 119.226562 115.074219 C 118.972656 114.996094 118.75 114.9375 118.550781 114.886719 C 117.917969 114.722656 117.5 114.613281 117.152344 114.222656 C 116.707031 113.722656 116.5625 112.972656 116.722656 111.988281 C 116.722656 111.980469 116.722656 111.976562 116.726562 111.96875 L 117.09375 110.46875 C 117.109375 110.402344 117.15625 110.347656 117.214844 110.316406 C 117.277344 110.285156 117.347656 110.28125 117.410156 110.308594 C 118.339844 110.683594 119.191406 110.679688 121.019531 106.984375 C 121.046875 106.929688 121.097656 106.886719 121.15625 106.867188 L 121.59375 106.722656 C 121.675781 106.695312 121.742188 106.632812 121.777344 106.550781 C 121.808594 106.46875 121.804688 106.378906 121.765625 106.300781 C 121.726562 106.230469 121.652344 106.132812 121.566406 106.019531 C 121.230469 105.585938 120.667969 104.851562 120.867188 103.648438 C 121.351562 101.199219 121.039062 100.339844 120.808594 100.042969 C 120.707031 99.914062 120.609375 99.875 120.566406 99.867188 L 114.988281 101.519531 C 114.671875 101.613281 114.425781 101.605469 114.230469 101.492188 C 113.925781 101.316406 113.839844 100.953125 113.75 100.566406 C 113.679688 100.28125 113.605469 99.96875 113.4375 99.699219 L 113.089844 102.003906 C 113.082031 102.070312 113.042969 102.128906 112.988281 102.164062 C 112.929688 102.203125 112.859375 102.210938 112.796875 102.195312 C 112.789062 102.191406 112.121094 102.015625 111.734375 102.308594 C 111.542969 102.453125 111.445312 102.703125 111.441406 103.054688 C 111.425781 104.835938 112.78125 105.199219 112.792969 105.199219 C 112.917969 105.230469 112.996094 105.359375 112.964844 105.484375 L 111.175781 112.9375 C 111.074219 113.347656 110.941406 113.660156 110.75 113.917969 C 110.386719 114.414062 109.945312 114.671875 109.527344 114.878906 C 108.820312 115.222656 108.039062 115.542969 107.195312 115.835938 Z M 114.453125 117.886719 C 111.328125 117.886719 108.515625 116.96875 106.445312 116.019531 C 106.355469 115.976562 106.300781 115.886719 106.308594 115.789062 C 106.3125 115.691406 106.378906 115.609375 106.46875 115.578125 C 107.515625 115.246094 108.472656 114.867188 109.320312 114.453125 C 109.660156 114.289062 110.050781 114.074219 110.371094 113.636719 C 110.523438 113.429688 110.632812 113.175781 110.71875 112.828125 L 112.457031 105.578125 C 111.992188 105.371094 110.957031 104.726562 110.96875 103.050781 C 110.972656 102.546875 111.136719 102.167969 111.453125 101.929688 C 111.839844 101.640625 112.355469 101.648438 112.660156 101.691406 L 113.042969 99.144531 C 113.054688 99.0625 113.109375 98.992188 113.1875 98.960938 C 113.261719 98.929688 113.351562 98.941406 113.417969 98.992188 C 113.953125 99.398438 114.09375 99.988281 114.207031 100.457031 C 114.273438 100.742188 114.339844 101.007812 114.464844 101.082031 C 114.5625 101.136719 114.730469 101.105469 114.855469 101.066406 L 120.476562 99.402344 C 120.496094 99.394531 120.515625 99.390625 120.535156 99.390625 C 120.570312 99.390625 120.871094 99.390625 121.148438 99.714844 C 121.675781 100.335938 121.738281 101.6875 121.332031 103.734375 C 121.167969 104.726562 121.613281 105.308594 121.941406 105.734375 C 122.039062 105.863281 122.125 105.976562 122.183594 106.085938 C 122.289062 106.285156 122.296875 106.519531 122.210938 106.730469 C 122.125 106.941406 121.953125 107.101562 121.738281 107.171875 L 121.398438 107.285156 C 119.890625 110.304688 118.867188 111.253906 117.488281 110.835938 L 117.183594 112.074219 C 117.050781 112.90625 117.15625 113.523438 117.503906 113.90625 C 117.757812 114.191406 118.082031 114.277344 118.671875 114.433594 C 118.871094 114.484375 119.097656 114.542969 119.359375 114.621094 C 120.167969 114.859375 120.976562 115.179688 121.765625 115.566406 C 121.84375 115.605469 121.894531 115.683594 121.898438 115.769531 C 121.898438 115.859375 121.851562 115.941406 121.777344 115.984375 C 120.9375 116.457031 120.054688 116.847656 119.152344 117.144531 C 117.546875 117.671875 115.964844 117.886719 114.453125 117.886719 " fill-opacity="1" fill-rule="nonzero"/><path fill="#000000" d="M 117.320312 110.761719 C 117.296875 110.761719 117.273438 110.757812 117.25 110.75 C 114.671875 109.933594 113.730469 108.335938 113.691406 108.269531 C 113.625 108.15625 113.664062 108.011719 113.777344 107.949219 C 113.890625 107.882812 114.03125 107.921875 114.097656 108.035156 C 114.109375 108.054688 115.007812 109.542969 117.394531 110.300781 C 117.519531 110.339844 117.585938 110.472656 117.546875 110.597656 C 117.515625 110.695312 117.421875 110.761719 117.320312 110.761719 " fill-opacity="1" fill-rule="nonzero"/><path fill="#000000" d="M 114.308594 95.230469 C 114.183594 95.074219 116.332031 90.355469 112.632812 89.238281 C 108.9375 88.121094 106.128906 94.925781 109.519531 96.835938 C 112.90625 98.75 114.308594 95.230469 114.308594 95.230469 " fill-opacity="1" fill-rule="nonzero"/><path fill="#000000" d="M 118.527344 103.199219 C 118.515625 103.199219 118.503906 103.199219 118.492188 103.199219 C 117.890625 103.21875 117.421875 103.722656 117.441406 104.320312 C 117.460938 104.921875 117.960938 105.394531 118.5625 105.371094 C 118.851562 105.363281 119.121094 105.242188 119.320312 105.03125 C 119.519531 104.816406 119.625 104.539062 119.613281 104.25 C 119.605469 103.960938 119.484375 103.691406 119.269531 103.492188 C 119.066406 103.300781 118.804688 103.199219 118.527344 103.199219 Z M 118.527344 105.84375 C 117.691406 105.84375 116.996094 105.179688 116.96875 104.335938 C 116.941406 103.476562 117.617188 102.753906 118.476562 102.726562 C 118.890625 102.714844 119.289062 102.863281 119.59375 103.148438 C 119.898438 103.433594 120.070312 103.816406 120.085938 104.234375 C 120.101562 104.652344 119.949219 105.046875 119.664062 105.351562 C 119.382812 105.65625 118.996094 105.832031 118.578125 105.84375 C 118.5625 105.84375 118.542969 105.84375 118.527344 105.84375 " fill-opacity="1" fill-rule="nonzero"/><path fill="#ffffff" d="M 121.496094 105.441406 C 121.433594 105.441406 121.367188 105.414062 121.320312 105.363281 C 121.234375 105.265625 121.242188 105.117188 121.339844 105.03125 C 121.582031 104.816406 121.714844 104.503906 121.707031 104.179688 C 121.695312 103.855469 121.542969 103.554688 121.28125 103.355469 C 121.179688 103.277344 121.160156 103.128906 121.242188 103.027344 C 121.320312 102.921875 121.46875 102.902344 121.570312 102.984375 C 121.941406 103.269531 122.160156 103.699219 122.175781 104.164062 C 122.191406 104.628906 122 105.074219 121.652344 105.382812 C 121.609375 105.421875 121.554688 105.441406 121.496094 105.441406 " fill-opacity="1" fill-rule="nonzero"/><path fill="#000000" d="M 117.183594 104.257812 C 117.144531 104.257812 117.109375 104.25 117.074219 104.234375 L 112.605469 101.988281 C 112.488281 101.929688 112.441406 101.789062 112.5 101.671875 C 112.558594 101.554688 112.699219 101.507812 112.816406 101.566406 L 117.285156 103.8125 C 117.402344 103.871094 117.449219 104.011719 117.390625 104.128906 C 117.351562 104.210938 117.269531 104.257812 117.183594 104.257812 " fill-opacity="1" fill-rule="nonzero"/><path fill="#000000" d="M 119.882812 104.488281 C 119.839844 104.488281 119.796875 104.476562 119.757812 104.453125 C 119.648438 104.386719 119.613281 104.242188 119.683594 104.132812 C 119.710938 104.085938 119.984375 103.664062 120.441406 103.570312 C 120.703125 103.515625 120.957031 103.582031 121.207031 103.757812 C 121.3125 103.832031 121.335938 103.980469 121.261719 104.085938 C 121.183594 104.191406 121.039062 104.21875 120.933594 104.140625 C 120.792969 104.042969 120.664062 104.003906 120.535156 104.03125 C 120.316406 104.074219 120.132812 104.296875 120.082031 104.378906 C 120.039062 104.449219 119.960938 104.488281 119.882812 104.488281 " fill-opacity="1" fill-rule="nonzero"/><path fill="#ffffff" d="M 64.886719 102.550781 C 64.828125 102.550781 64.769531 102.527344 64.722656 102.484375 C 64.359375 102.128906 64.011719 101.769531 63.699219 101.421875 C 63.613281 101.324219 63.621094 101.175781 63.71875 101.089844 C 63.816406 101.003906 63.964844 101.011719 64.050781 101.109375 C 64.355469 101.449219 64.695312 101.796875 65.054688 102.148438 C 65.144531 102.238281 65.148438 102.386719 65.058594 102.480469 C 65.011719 102.527344 64.949219 102.550781 64.886719 102.550781 Z M 67.75 105.003906 C 67.699219 105.003906 67.648438 104.988281 67.605469 104.953125 C 67.085938 104.554688 66.589844 104.152344 66.132812 103.761719 C 66.03125 103.679688 66.019531 103.527344 66.105469 103.429688 C 66.1875 103.332031 66.339844 103.320312 66.4375 103.402344 C 66.890625 103.789062 67.378906 104.1875 67.894531 104.582031 C 67.996094 104.660156 68.015625 104.808594 67.9375 104.910156 C 67.890625 104.972656 67.820312 105.003906 67.75 105.003906 Z M 70.824219 107.1875 C 70.777344 107.1875 70.734375 107.175781 70.695312 107.148438 C 70.15625 106.792969 69.628906 106.433594 69.128906 106.078125 C 69.023438 106.003906 69 105.855469 69.074219 105.75 C 69.148438 105.644531 69.296875 105.621094 69.402344 105.695312 C 69.898438 106.046875 70.417969 106.402344 70.953125 106.753906 C 71.0625 106.828125 71.09375 106.972656 71.019531 107.082031 C 70.976562 107.152344 70.898438 107.1875 70.824219 107.1875 Z M 74.027344 109.179688 C 73.984375 109.179688 73.945312 109.167969 73.90625 109.144531 C 73.355469 108.820312 72.808594 108.492188 72.289062 108.167969 C 72.175781 108.097656 72.144531 107.953125 72.210938 107.84375 C 72.28125 107.730469 72.425781 107.699219 72.535156 107.765625 C 73.054688 108.089844 73.597656 108.414062 74.144531 108.738281 C 74.257812 108.804688 74.296875 108.949219 74.230469 109.0625 C 74.1875 109.136719 74.109375 109.179688 74.027344 109.179688 Z M 77.316406 111.019531 C 77.28125 111.019531 77.242188 111.007812 77.207031 110.992188 C 76.640625 110.6875 76.085938 110.382812 75.546875 110.085938 C 75.433594 110.019531 75.394531 109.878906 75.457031 109.761719 C 75.519531 109.652344 75.664062 109.609375 75.777344 109.671875 C 76.3125 109.972656 76.867188 110.273438 77.429688 110.574219 C 77.542969 110.636719 77.585938 110.777344 77.527344 110.894531 C 77.484375 110.972656 77.402344 111.019531 77.316406 111.019531 Z M 80.675781 112.738281 C 80.640625 112.738281 80.605469 112.730469 80.570312 112.714844 C 80 112.433594 79.433594 112.148438 78.882812 111.867188 C 78.765625 111.808594 78.71875 111.664062 78.78125 111.546875 C 78.839844 111.433594 78.980469 111.386719 79.097656 111.445312 C 79.644531 111.726562 80.210938 112.011719 80.777344 112.289062 C 80.894531 112.347656 80.945312 112.488281 80.886719 112.605469 C 80.84375 112.6875 80.761719 112.738281 80.675781 112.738281 Z M 84.082031 114.351562 C 84.050781 114.351562 84.015625 114.34375 83.984375 114.328125 C 83.410156 114.066406 82.832031 113.800781 82.273438 113.535156 C 82.15625 113.480469 82.105469 113.335938 82.160156 113.21875 C 82.214844 113.101562 82.355469 113.050781 82.472656 113.109375 C 83.03125 113.371094 83.605469 113.640625 84.179688 113.902344 C 84.300781 113.957031 84.351562 114.09375 84.296875 114.214844 C 84.257812 114.300781 84.171875 114.351562 84.082031 114.351562 Z M 87.535156 115.875 C 87.503906 115.875 87.472656 115.867188 87.441406 115.855469 C 86.859375 115.605469 86.273438 115.351562 85.707031 115.101562 C 85.589844 115.050781 85.535156 114.910156 85.589844 114.792969 C 85.640625 114.675781 85.78125 114.621094 85.898438 114.671875 C 86.464844 114.921875 87.042969 115.171875 87.625 115.421875 C 87.746094 115.472656 87.800781 115.609375 87.75 115.730469 C 87.710938 115.820312 87.625 115.875 87.535156 115.875 Z M 91.019531 117.3125 C 90.992188 117.3125 90.960938 117.308594 90.933594 117.296875 C 90.347656 117.0625 89.761719 116.824219 89.183594 116.585938 C 89.0625 116.535156 89.003906 116.398438 89.054688 116.277344 C 89.105469 116.15625 89.242188 116.101562 89.363281 116.148438 C 89.9375 116.386719 90.527344 116.625 91.105469 116.859375 C 91.226562 116.90625 91.285156 117.042969 91.238281 117.164062 C 91.203125 117.257812 91.113281 117.3125 91.019531 117.3125 Z M 94.535156 118.675781 C 94.507812 118.675781 94.480469 118.671875 94.453125 118.660156 C 93.859375 118.4375 93.269531 118.214844 92.6875 117.988281 C 92.566406 117.941406 92.507812 117.804688 92.554688 117.683594 C 92.601562 117.5625 92.738281 117.5 92.859375 117.546875 C 93.441406 117.773438 94.027344 117.996094 94.617188 118.21875 C 94.742188 118.265625 94.800781 118.398438 94.757812 118.523438 C 94.722656 118.617188 94.632812 118.675781 94.535156 118.675781 Z M 98.078125 119.964844 C 98.054688 119.964844 98.027344 119.960938 98 119.953125 C 97.40625 119.742188 96.8125 119.527344 96.222656 119.3125 C 96.101562 119.269531 96.039062 119.136719 96.082031 119.011719 C 96.128906 118.890625 96.265625 118.828125 96.386719 118.871094 C 96.972656 119.085938 97.5625 119.296875 98.15625 119.507812 C 98.28125 119.550781 98.34375 119.683594 98.300781 119.808594 C 98.269531 119.90625 98.175781 119.964844 98.078125 119.964844 Z M 101.648438 121.1875 C 101.625 121.1875 101.597656 121.183594 101.574219 121.175781 C 100.972656 120.976562 100.375 120.773438 99.785156 120.570312 C 99.660156 120.53125 99.59375 120.394531 99.636719 120.273438 C 99.679688 120.148438 99.816406 120.082031 99.9375 120.125 C 100.527344 120.328125 101.121094 120.527344 101.722656 120.726562 C 101.847656 120.765625 101.914062 120.902344 101.871094 121.023438 C 101.839844 121.125 101.746094 121.1875 101.648438 121.1875 Z M 105.238281 122.339844 C 105.214844 122.339844 105.191406 122.339844 105.167969 122.332031 C 104.5625 122.140625 103.964844 121.953125 103.367188 121.761719 C 103.242188 121.722656 103.175781 121.589844 103.214844 121.464844 C 103.253906 121.339844 103.386719 121.273438 103.511719 121.3125 C 104.105469 121.503906 104.707031 121.691406 105.308594 121.878906 C 105.433594 121.917969 105.5 122.050781 105.460938 122.175781 C 105.429688 122.277344 105.339844 122.339844 105.238281 122.339844 Z M 108.847656 123.433594 C 108.824219 123.433594 108.804688 123.429688 108.78125 123.421875 C 108.175781 123.246094 107.570312 123.066406 106.972656 122.882812 C 106.847656 122.847656 106.777344 122.714844 106.816406 122.589844 C 106.851562 122.464844 106.984375 122.394531 107.109375 122.433594 C 107.707031 122.613281 108.308594 122.792969 108.914062 122.96875 C 109.039062 123.007812 109.109375 123.136719 109.074219 123.261719 C 109.042969 123.367188 108.949219 123.433594 108.847656 123.433594 Z M 112.476562 124.457031 C 112.453125 124.457031 112.433594 124.457031 112.414062 124.449219 C 111.808594 124.285156 111.203125 124.117188 110.59375 123.945312 C 110.46875 123.910156 110.394531 123.777344 110.433594 123.652344 C 110.46875 123.527344 110.597656 123.457031 110.722656 123.492188 C 111.328125 123.664062 111.933594 123.832031 112.539062 123.996094 C 112.664062 124.03125 112.738281 124.160156 112.703125 124.285156 C 112.675781 124.390625 112.578125 124.457031 112.476562 124.457031 Z M 116.121094 125.421875 C 116.101562 125.421875 116.082031 125.417969 116.0625 125.414062 C 115.457031 125.257812 114.847656 125.101562 114.234375 124.941406 C 114.109375 124.90625 114.035156 124.777344 114.066406 124.652344 C 114.101562 124.527344 114.230469 124.453125 114.355469 124.484375 C 114.964844 124.644531 115.574219 124.804688 116.179688 124.957031 C 116.304688 124.988281 116.382812 125.117188 116.351562 125.242188 C 116.324219 125.351562 116.226562 125.421875 116.121094 125.421875 Z M 119.785156 126.316406 C 119.765625 126.316406 119.75 126.316406 119.730469 126.3125 C 119.121094 126.167969 118.507812 126.023438 117.894531 125.871094 C 117.769531 125.839844 117.691406 125.714844 117.722656 125.585938 C 117.753906 125.460938 117.878906 125.382812 118.007812 125.414062 C 118.621094 125.5625 119.230469 125.710938 119.835938 125.851562 C 119.964844 125.882812 120.042969 126.007812 120.015625 126.136719 C 119.988281 126.246094 119.890625 126.316406 119.785156 126.316406 Z M 123.464844 127.144531 C 123.445312 127.144531 123.429688 127.144531 123.414062 127.140625 C 122.800781 127.007812 122.1875 126.875 121.570312 126.734375 C 121.441406 126.707031 121.363281 126.582031 121.390625 126.453125 C 121.417969 126.328125 121.546875 126.246094 121.671875 126.273438 C 122.289062 126.414062 122.902344 126.546875 123.511719 126.679688 C 123.640625 126.707031 123.722656 126.832031 123.695312 126.960938 C 123.667969 127.070312 123.570312 127.144531 123.464844 127.144531 Z M 127.15625 127.898438 C 127.144531 127.898438 127.128906 127.898438 127.113281 127.894531 C 126.5 127.777344 125.882812 127.65625 125.261719 127.527344 C 125.132812 127.5 125.050781 127.375 125.078125 127.25 C 125.101562 127.121094 125.230469 127.039062 125.355469 127.066406 C 125.976562 127.191406 126.589844 127.316406 127.203125 127.433594 C 127.332031 127.457031 127.414062 127.582031 127.386719 127.710938 C 127.367188 127.820312 127.269531 127.898438 127.15625 127.898438 Z M 130.867188 128.578125 C 130.855469 128.578125 130.839844 128.578125 130.828125 128.574219 C 130.214844 128.46875 129.589844 128.359375 128.96875 128.246094 C 128.839844 128.222656 128.753906 128.097656 128.777344 127.972656 C 128.800781 127.84375 128.925781 127.757812 129.054688 127.78125 C 129.671875 127.894531 130.296875 128.003906 130.90625 128.109375 C 131.035156 128.132812 131.121094 128.253906 131.097656 128.382812 C 131.082031 128.496094 130.980469 128.578125 130.867188 128.578125 Z M 134.589844 129.171875 C 134.582031 129.171875 134.566406 129.167969 134.558594 129.167969 C 133.941406 129.078125 133.3125 128.980469 132.691406 128.882812 C 132.5625 128.859375 132.472656 128.742188 132.496094 128.613281 C 132.515625 128.484375 132.636719 128.394531 132.765625 128.417969 C 133.382812 128.515625 134.011719 128.609375 134.625 128.699219 C 134.753906 128.71875 134.84375 128.839844 134.824219 128.96875 C 134.808594 129.085938 134.707031 129.171875 134.589844 129.171875 Z M 138.328125 129.667969 C 138.320312 129.667969 138.308594 129.667969 138.300781 129.667969 C 137.683594 129.59375 137.054688 129.511719 136.425781 129.429688 C 136.300781 129.414062 136.207031 129.292969 136.222656 129.164062 C 136.242188 129.035156 136.359375 128.945312 136.488281 128.960938 C 137.113281 129.046875 137.742188 129.125 138.355469 129.199219 C 138.488281 129.214844 138.578125 129.332031 138.5625 129.460938 C 138.546875 129.582031 138.445312 129.667969 138.328125 129.667969 Z M 158.988281 129.710938 C 158.878906 129.710938 158.78125 129.632812 158.757812 129.523438 C 158.734375 129.394531 158.816406 129.269531 158.941406 129.242188 C 159.585938 129.113281 160.195312 128.964844 160.753906 128.800781 C 160.878906 128.761719 161.007812 128.832031 161.046875 128.957031 C 161.082031 129.082031 161.011719 129.214844 160.886719 129.25 C 160.316406 129.417969 159.691406 129.570312 159.039062 129.707031 C 159.019531 129.707031 159.003906 129.710938 158.988281 129.710938 Z M 142.078125 130.0625 C 142.074219 130.0625 142.066406 130.0625 142.058594 130.058594 C 141.445312 130.003906 140.8125 129.945312 140.179688 129.878906 C 140.046875 129.863281 139.953125 129.746094 139.96875 129.617188 C 139.980469 129.488281 140.101562 129.394531 140.226562 129.410156 C 140.855469 129.476562 141.488281 129.535156 142.101562 129.589844 C 142.230469 129.601562 142.324219 129.714844 142.3125 129.847656 C 142.304688 129.96875 142.199219 130.0625 142.078125 130.0625 Z M 155.257812 130.238281 C 155.136719 130.238281 155.035156 130.144531 155.023438 130.023438 C 155.011719 129.894531 155.109375 129.78125 155.238281 129.769531 C 155.882812 129.710938 156.507812 129.636719 157.097656 129.558594 C 157.230469 129.539062 157.347656 129.628906 157.367188 129.757812 C 157.382812 129.886719 157.292969 130.003906 157.164062 130.023438 C 156.5625 130.105469 155.929688 130.179688 155.28125 130.238281 C 155.273438 130.238281 155.265625 130.238281 155.257812 130.238281 Z M 145.839844 130.328125 C 145.835938 130.328125 145.832031 130.328125 145.828125 130.328125 C 145.210938 130.296875 144.578125 130.257812 143.941406 130.210938 C 143.8125 130.203125 143.714844 130.089844 143.722656 129.960938 C 143.734375 129.828125 143.84375 129.734375 143.976562 129.742188 C 144.609375 129.789062 145.242188 129.824219 145.851562 129.859375 C 145.980469 129.863281 146.082031 129.976562 146.074219 130.105469 C 146.070312 130.230469 145.964844 130.328125 145.839844 130.328125 Z M 151.496094 130.4375 C 151.367188 130.4375 151.261719 130.335938 151.257812 130.207031 C 151.257812 130.074219 151.359375 129.96875 151.488281 129.964844 C 152.132812 129.953125 152.761719 129.929688 153.367188 129.898438 C 153.5 129.890625 153.605469 129.992188 153.613281 130.121094 C 153.621094 130.253906 153.519531 130.363281 153.390625 130.371094 C 152.78125 130.402344 152.144531 130.425781 151.5 130.4375 C 151.496094 130.4375 151.496094 130.4375 151.496094 130.4375 Z M 149.609375 130.445312 C 149.609375 130.445312 149.605469 130.445312 149.605469 130.445312 C 148.992188 130.441406 148.355469 130.429688 147.714844 130.410156 C 147.585938 130.40625 147.484375 130.296875 147.488281 130.164062 C 147.492188 130.035156 147.597656 129.933594 147.730469 129.9375 C 148.367188 129.957031 149 129.972656 149.613281 129.976562 C 149.742188 129.976562 149.847656 130.082031 149.84375 130.214844 C 149.84375 130.34375 149.738281 130.445312 149.609375 130.445312 " fill-opacity="1" fill-rule="nonzero"/><path fill="#ffffff" d="M 131.613281 101.425781 C 131.589844 101.425781 131.558594 101.421875 131.535156 101.410156 C 130.949219 101.195312 130.359375 100.984375 129.761719 100.773438 C 129.640625 100.726562 129.574219 100.59375 129.621094 100.46875 C 129.664062 100.347656 129.796875 100.285156 129.921875 100.328125 C 130.515625 100.539062 131.109375 100.753906 131.695312 100.96875 C 131.816406 101.011719 131.882812 101.148438 131.835938 101.273438 C 131.800781 101.367188 131.710938 101.425781 131.613281 101.425781 Z M 135.140625 102.757812 C 135.113281 102.757812 135.082031 102.753906 135.054688 102.742188 C 134.476562 102.515625 133.890625 102.292969 133.296875 102.070312 C 133.175781 102.023438 133.113281 101.886719 133.160156 101.765625 C 133.207031 101.644531 133.34375 101.582031 133.464844 101.628906 C 134.058594 101.851562 134.644531 102.078125 135.226562 102.304688 C 135.347656 102.351562 135.410156 102.488281 135.359375 102.609375 C 135.324219 102.703125 135.234375 102.757812 135.140625 102.757812 Z M 138.636719 104.167969 C 138.609375 104.167969 138.578125 104.164062 138.546875 104.148438 C 137.980469 103.914062 137.390625 103.671875 136.804688 103.4375 C 136.683594 103.386719 136.625 103.25 136.675781 103.128906 C 136.722656 103.007812 136.859375 102.949219 136.980469 103 C 137.570312 103.238281 138.15625 103.476562 138.730469 103.714844 C 138.851562 103.765625 138.90625 103.902344 138.855469 104.023438 C 138.820312 104.113281 138.730469 104.167969 138.636719 104.167969 Z M 142.105469 105.65625 C 142.070312 105.65625 142.039062 105.652344 142.007812 105.636719 C 141.441406 105.386719 140.863281 105.132812 140.28125 104.882812 C 140.164062 104.832031 140.109375 104.691406 140.160156 104.574219 C 140.210938 104.453125 140.347656 104.398438 140.46875 104.449219 C 141.050781 104.699219 141.632812 104.953125 142.199219 105.207031 C 142.316406 105.257812 142.371094 105.398438 142.320312 105.515625 C 142.28125 105.605469 142.191406 105.65625 142.105469 105.65625 Z M 145.527344 107.234375 C 145.492188 107.234375 145.460938 107.226562 145.425781 107.210938 C 144.871094 106.945312 144.296875 106.675781 143.722656 106.414062 C 143.605469 106.359375 143.550781 106.21875 143.609375 106.101562 C 143.660156 105.980469 143.800781 105.929688 143.917969 105.984375 C 144.496094 106.25 145.074219 106.519531 145.628906 106.785156 C 145.746094 106.84375 145.796875 106.984375 145.742188 107.101562 C 145.699219 107.183594 145.617188 107.234375 145.527344 107.234375 Z M 148.90625 108.910156 C 148.867188 108.910156 148.832031 108.902344 148.796875 108.886719 C 148.25 108.601562 147.683594 108.316406 147.117188 108.035156 C 147 107.976562 146.953125 107.835938 147.011719 107.71875 C 147.070312 107.601562 147.210938 107.554688 147.328125 107.613281 C 147.894531 107.894531 148.460938 108.183594 149.011719 108.464844 C 149.128906 108.527344 149.171875 108.667969 149.113281 108.785156 C 149.074219 108.863281 148.988281 108.910156 148.90625 108.910156 Z M 152.222656 110.703125 C 152.183594 110.703125 152.144531 110.691406 152.105469 110.671875 C 151.574219 110.371094 151.019531 110.066406 150.460938 109.761719 C 150.347656 109.703125 150.304688 109.558594 150.367188 109.445312 C 150.425781 109.328125 150.570312 109.285156 150.683594 109.347656 C 151.246094 109.652344 151.804688 109.957031 152.339844 110.261719 C 152.453125 110.324219 152.492188 110.46875 152.429688 110.582031 C 152.386719 110.660156 152.304688 110.703125 152.222656 110.703125 Z M 155.460938 112.632812 C 155.421875 112.632812 155.375 112.621094 155.335938 112.59375 C 154.820312 112.269531 154.28125 111.941406 153.734375 111.613281 C 153.621094 111.546875 153.585938 111.402344 153.652344 111.292969 C 153.71875 111.179688 153.863281 111.144531 153.976562 111.210938 C 154.527344 111.539062 155.070312 111.867188 155.589844 112.195312 C 155.699219 112.265625 155.730469 112.410156 155.664062 112.519531 C 155.617188 112.589844 155.542969 112.632812 155.460938 112.632812 Z M 157.078125 113.679688 C 157.035156 113.679688 156.988281 113.667969 156.949219 113.640625 L 156.914062 113.617188 C 156.804688 113.542969 156.777344 113.398438 156.847656 113.289062 C 156.921875 113.179688 157.066406 113.152344 157.175781 113.226562 L 157.210938 113.25 C 157.320312 113.320312 157.347656 113.46875 157.277344 113.578125 C 157.230469 113.644531 157.15625 113.679688 157.078125 113.679688 " fill-opacity="1" fill-rule="nonzero"/><path fill="#ffffff" d="M 85.925781 90.589844 C 85.917969 90.589844 85.910156 90.585938 85.902344 90.585938 C 85.273438 90.527344 84.644531 90.472656 84.027344 90.425781 C 83.898438 90.417969 83.800781 90.304688 83.8125 90.175781 C 83.820312 90.046875 83.9375 89.949219 84.066406 89.957031 C 84.679688 90.003906 85.316406 90.058594 85.945312 90.117188 C 86.078125 90.128906 86.171875 90.246094 86.160156 90.375 C 86.148438 90.496094 86.046875 90.589844 85.925781 90.589844 Z M 89.675781 90.996094 C 89.664062 90.996094 89.65625 90.996094 89.644531 90.992188 C 89.019531 90.917969 88.390625 90.84375 87.773438 90.777344 C 87.644531 90.761719 87.550781 90.648438 87.566406 90.515625 C 87.582031 90.386719 87.699219 90.292969 87.828125 90.308594 C 88.441406 90.375 89.074219 90.449219 89.703125 90.527344 C 89.832031 90.542969 89.921875 90.660156 89.90625 90.789062 C 89.894531 90.90625 89.792969 90.996094 89.675781 90.996094 Z M 93.410156 91.507812 C 93.398438 91.507812 93.386719 91.507812 93.375 91.503906 C 92.75 91.410156 92.125 91.320312 91.511719 91.238281 C 91.382812 91.21875 91.292969 91.101562 91.308594 90.972656 C 91.328125 90.84375 91.445312 90.753906 91.574219 90.769531 C 92.191406 90.855469 92.820312 90.945312 93.445312 91.039062 C 93.574219 91.058594 93.660156 91.179688 93.640625 91.308594 C 93.625 91.421875 93.523438 91.507812 93.410156 91.507812 Z M 97.128906 92.113281 C 97.117188 92.113281 97.105469 92.109375 97.089844 92.109375 C 96.472656 92 95.847656 91.894531 95.234375 91.796875 C 95.105469 91.773438 95.019531 91.652344 95.039062 91.523438 C 95.058594 91.394531 95.183594 91.308594 95.308594 91.332031 C 95.925781 91.429688 96.550781 91.535156 97.171875 91.644531 C 97.300781 91.667969 97.386719 91.789062 97.363281 91.917969 C 97.34375 92.03125 97.242188 92.113281 97.128906 92.113281 Z M 100.839844 92.796875 C 100.824219 92.796875 100.808594 92.796875 100.792969 92.792969 C 100.171875 92.671875 99.554688 92.554688 98.941406 92.441406 C 98.816406 92.417969 98.730469 92.292969 98.753906 92.167969 C 98.777344 92.039062 98.902344 91.953125 99.03125 91.976562 C 99.644531 92.09375 100.261719 92.210938 100.882812 92.332031 C 101.011719 92.355469 101.09375 92.480469 101.070312 92.609375 C 101.046875 92.722656 100.949219 92.796875 100.839844 92.796875 " fill-opacity="1" fill-rule="nonzero"/><path fill="#ffffff" d="M 64.648438 106.035156 C 64.59375 106.035156 64.535156 106.015625 64.488281 105.972656 C 64 105.523438 63.542969 105.074219 63.132812 104.640625 C 63.042969 104.542969 63.046875 104.394531 63.144531 104.304688 C 63.238281 104.21875 63.386719 104.222656 63.476562 104.316406 C 63.875 104.742188 64.324219 105.183594 64.808594 105.625 C 64.902344 105.710938 64.910156 105.863281 64.824219 105.957031 C 64.777344 106.007812 64.710938 106.035156 64.648438 106.035156 Z M 67.570312 108.417969 C 67.519531 108.417969 67.472656 108.402344 67.429688 108.371094 C 66.90625 107.984375 66.402344 107.59375 65.929688 107.210938 C 65.828125 107.128906 65.8125 106.980469 65.894531 106.878906 C 65.976562 106.777344 66.125 106.761719 66.226562 106.84375 C 66.691406 107.222656 67.191406 107.609375 67.710938 107.992188 C 67.816406 108.070312 67.835938 108.21875 67.757812 108.320312 C 67.710938 108.382812 67.640625 108.417969 67.570312 108.417969 Z M 70.679688 110.550781 C 70.632812 110.550781 70.589844 110.539062 70.550781 110.515625 C 70.007812 110.167969 69.476562 109.8125 68.972656 109.46875 C 68.863281 109.394531 68.839844 109.25 68.910156 109.140625 C 68.984375 109.035156 69.132812 109.007812 69.238281 109.082031 C 69.738281 109.421875 70.265625 109.773438 70.804688 110.117188 C 70.914062 110.1875 70.945312 110.332031 70.875 110.441406 C 70.832031 110.511719 70.753906 110.550781 70.679688 110.550781 Z M 73.902344 112.503906 C 73.863281 112.503906 73.824219 112.496094 73.785156 112.472656 C 73.230469 112.15625 72.683594 111.832031 72.15625 111.515625 C 72.046875 111.445312 72.007812 111.300781 72.078125 111.191406 C 72.144531 111.078125 72.289062 111.042969 72.402344 111.109375 C 72.925781 111.429688 73.46875 111.75 74.019531 112.066406 C 74.132812 112.128906 74.171875 112.273438 74.109375 112.386719 C 74.0625 112.460938 73.984375 112.503906 73.902344 112.503906 Z M 77.210938 114.316406 C 77.175781 114.316406 77.136719 114.308594 77.101562 114.289062 C 76.539062 113.996094 75.976562 113.695312 75.4375 113.398438 C 75.320312 113.335938 75.277344 113.191406 75.339844 113.078125 C 75.40625 112.964844 75.546875 112.921875 75.660156 112.984375 C 76.203125 113.28125 76.761719 113.578125 77.320312 113.871094 C 77.4375 113.933594 77.480469 114.074219 77.421875 114.191406 C 77.378906 114.269531 77.296875 114.316406 77.210938 114.316406 Z M 80.582031 116.011719 C 80.546875 116.011719 80.511719 116.003906 80.476562 115.988281 C 79.90625 115.710938 79.335938 115.429688 78.785156 115.152344 C 78.667969 115.09375 78.621094 114.953125 78.679688 114.835938 C 78.738281 114.71875 78.878906 114.671875 78.996094 114.730469 C 79.546875 115.007812 80.113281 115.285156 80.683594 115.5625 C 80.800781 115.621094 80.847656 115.761719 80.792969 115.878906 C 80.753906 115.960938 80.667969 116.011719 80.582031 116.011719 Z M 84 117.601562 C 83.96875 117.601562 83.933594 117.597656 83.902344 117.582031 C 83.324219 117.324219 82.746094 117.058594 82.183594 116.796875 C 82.066406 116.742188 82.015625 116.601562 82.070312 116.484375 C 82.125 116.367188 82.265625 116.3125 82.382812 116.371094 C 82.945312 116.628906 83.519531 116.894531 84.097656 117.152344 C 84.214844 117.207031 84.269531 117.34375 84.214844 117.464844 C 84.175781 117.550781 84.089844 117.601562 84 117.601562 Z M 87.457031 119.105469 C 87.425781 119.105469 87.394531 119.101562 87.367188 119.085938 C 86.785156 118.84375 86.199219 118.59375 85.628906 118.34375 C 85.511719 118.292969 85.457031 118.15625 85.507812 118.035156 C 85.558594 117.917969 85.699219 117.859375 85.816406 117.914062 C 86.386719 118.160156 86.96875 118.410156 87.550781 118.652344 C 87.667969 118.703125 87.726562 118.839844 87.675781 118.960938 C 87.636719 119.050781 87.550781 119.105469 87.457031 119.105469 Z M 90.949219 120.527344 C 90.921875 120.527344 90.894531 120.523438 90.863281 120.511719 C 90.273438 120.277344 89.691406 120.042969 89.113281 119.808594 C 88.992188 119.757812 88.933594 119.621094 88.980469 119.503906 C 89.03125 119.382812 89.167969 119.324219 89.289062 119.371094 C 89.867188 119.605469 90.449219 119.839844 91.039062 120.074219 C 91.160156 120.121094 91.21875 120.257812 91.171875 120.378906 C 91.132812 120.46875 91.046875 120.527344 90.949219 120.527344 Z M 94.472656 121.871094 C 94.445312 121.871094 94.417969 121.867188 94.390625 121.859375 C 93.796875 121.636719 93.207031 121.417969 92.625 121.195312 C 92.503906 121.148438 92.441406 121.011719 92.488281 120.890625 C 92.535156 120.769531 92.671875 120.707031 92.792969 120.753906 C 93.375 120.976562 93.960938 121.195312 94.554688 121.417969 C 94.679688 121.460938 94.738281 121.597656 94.695312 121.71875 C 94.660156 121.8125 94.570312 121.871094 94.472656 121.871094 Z M 98.023438 123.148438 C 97.996094 123.148438 97.972656 123.140625 97.945312 123.132812 C 97.347656 122.925781 96.753906 122.714844 96.167969 122.503906 C 96.042969 122.460938 95.980469 122.324219 96.023438 122.203125 C 96.066406 122.082031 96.203125 122.015625 96.324219 122.0625 C 96.910156 122.273438 97.503906 122.480469 98.101562 122.6875 C 98.222656 122.730469 98.289062 122.867188 98.246094 122.988281 C 98.210938 123.085938 98.121094 123.148438 98.023438 123.148438 Z M 101.597656 124.351562 C 101.574219 124.351562 101.546875 124.347656 101.523438 124.339844 C 100.921875 124.144531 100.324219 123.945312 99.730469 123.746094 C 99.609375 123.703125 99.542969 123.570312 99.582031 123.449219 C 99.625 123.324219 99.757812 123.257812 99.882812 123.300781 C 100.472656 123.5 101.070312 123.695312 101.667969 123.894531 C 101.792969 123.933594 101.859375 124.066406 101.820312 124.191406 C 101.789062 124.289062 101.695312 124.351562 101.597656 124.351562 Z M 105.191406 125.492188 C 105.167969 125.492188 105.144531 125.488281 105.121094 125.484375 C 104.515625 125.296875 103.917969 125.109375 103.320312 124.921875 C 103.195312 124.878906 103.128906 124.75 103.167969 124.625 C 103.207031 124.5 103.339844 124.433594 103.460938 124.472656 C 104.058594 124.660156 104.65625 124.847656 105.261719 125.03125 C 105.382812 125.070312 105.453125 125.203125 105.414062 125.328125 C 105.382812 125.429688 105.292969 125.492188 105.191406 125.492188 Z M 108.804688 126.570312 C 108.785156 126.570312 108.761719 126.566406 108.738281 126.558594 C 108.132812 126.386719 107.527344 126.207031 106.929688 126.03125 C 106.804688 125.992188 106.734375 125.859375 106.769531 125.738281 C 106.808594 125.613281 106.9375 125.539062 107.0625 125.578125 C 107.660156 125.757812 108.265625 125.933594 108.871094 126.105469 C 108.996094 126.144531 109.066406 126.273438 109.03125 126.398438 C 109.003906 126.503906 108.90625 126.570312 108.804688 126.570312 Z M 112.4375 127.582031 C 112.417969 127.582031 112.394531 127.578125 112.375 127.574219 C 111.769531 127.410156 111.164062 127.246094 110.554688 127.074219 C 110.429688 127.039062 110.355469 126.910156 110.390625 126.785156 C 110.425781 126.660156 110.558594 126.585938 110.683594 126.621094 C 111.289062 126.789062 111.894531 126.957031 112.496094 127.117188 C 112.625 127.152344 112.699219 127.28125 112.664062 127.40625 C 112.636719 127.511719 112.539062 127.582031 112.4375 127.582031 Z M 116.085938 128.53125 C 116.066406 128.53125 116.046875 128.527344 116.027344 128.523438 C 115.421875 128.371094 114.8125 128.214844 114.199219 128.058594 C 114.074219 128.023438 114 127.894531 114.03125 127.769531 C 114.0625 127.644531 114.191406 127.566406 114.316406 127.601562 C 114.929688 127.757812 115.539062 127.914062 116.144531 128.066406 C 116.269531 128.097656 116.347656 128.226562 116.316406 128.351562 C 116.289062 128.457031 116.191406 128.53125 116.085938 128.53125 Z M 119.753906 129.410156 C 119.734375 129.410156 119.714844 129.410156 119.699219 129.40625 C 119.089844 129.265625 118.476562 129.121094 117.863281 128.972656 C 117.734375 128.941406 117.65625 128.816406 117.6875 128.6875 C 117.71875 128.5625 117.84375 128.484375 117.972656 128.515625 C 118.585938 128.660156 119.195312 128.804688 119.804688 128.945312 C 119.933594 128.976562 120.011719 129.101562 119.980469 129.230469 C 119.957031 129.339844 119.859375 129.410156 119.753906 129.410156 Z M 123.433594 130.222656 C 123.417969 130.222656 123.402344 130.222656 123.386719 130.21875 C 122.773438 130.089844 122.160156 129.957031 121.539062 129.820312 C 121.414062 129.792969 121.332031 129.667969 121.359375 129.539062 C 121.390625 129.414062 121.511719 129.332031 121.640625 129.359375 C 122.257812 129.496094 122.871094 129.628906 123.484375 129.757812 C 123.609375 129.78125 123.691406 129.910156 123.664062 130.035156 C 123.640625 130.144531 123.542969 130.222656 123.433594 130.222656 Z M 127.132812 130.960938 C 127.117188 130.960938 127.101562 130.960938 127.089844 130.957031 C 126.472656 130.839844 125.855469 130.722656 125.234375 130.597656 C 125.105469 130.570312 125.023438 130.445312 125.050781 130.320312 C 125.074219 130.191406 125.199219 130.109375 125.328125 130.132812 C 125.949219 130.257812 126.5625 130.378906 127.175781 130.492188 C 127.304688 130.519531 127.386719 130.640625 127.363281 130.769531 C 127.34375 130.882812 127.242188 130.960938 127.132812 130.960938 Z M 130.84375 131.617188 C 130.832031 131.617188 130.820312 131.617188 130.804688 131.617188 C 130.191406 131.511719 129.566406 131.40625 128.945312 131.296875 C 128.816406 131.273438 128.730469 131.152344 128.753906 131.023438 C 128.777344 130.894531 128.898438 130.808594 129.027344 130.832031 C 129.644531 130.941406 130.269531 131.050781 130.882812 131.152344 C 131.011719 131.171875 131.097656 131.292969 131.078125 131.421875 C 131.058594 131.539062 130.957031 131.617188 130.84375 131.617188 Z M 134.570312 132.191406 C 134.5625 132.191406 134.550781 132.191406 134.539062 132.1875 C 133.921875 132.101562 133.292969 132.011719 132.671875 131.914062 C 132.542969 131.894531 132.453125 131.773438 132.472656 131.644531 C 132.492188 131.515625 132.613281 131.429688 132.742188 131.449219 C 133.363281 131.542969 133.992188 131.636719 134.605469 131.722656 C 134.734375 131.742188 134.824219 131.859375 134.804688 131.988281 C 134.789062 132.105469 134.6875 132.191406 134.570312 132.191406 Z M 138.3125 132.667969 C 138.304688 132.667969 138.292969 132.667969 138.285156 132.667969 C 137.667969 132.597656 137.035156 132.519531 136.410156 132.441406 C 136.28125 132.421875 136.191406 132.304688 136.207031 132.175781 C 136.222656 132.046875 136.339844 131.957031 136.46875 131.972656 C 137.09375 132.050781 137.722656 132.128906 138.339844 132.199219 C 138.46875 132.210938 138.558594 132.328125 138.546875 132.457031 C 138.53125 132.578125 138.429688 132.667969 138.3125 132.667969 " fill-opacity="1" fill-rule="nonzero"/><path fill="#ffffff" d="M 158.128906 132.613281 C 158.019531 132.613281 157.921875 132.535156 157.898438 132.421875 C 157.875 132.296875 157.957031 132.171875 158.082031 132.144531 C 158.726562 132.015625 159.335938 131.863281 159.894531 131.699219 C 160.019531 131.664062 160.148438 131.734375 160.1875 131.859375 C 160.222656 131.984375 160.152344 132.117188 160.027344 132.152344 C 159.457031 132.320312 158.832031 132.472656 158.179688 132.605469 C 158.160156 132.609375 158.144531 132.613281 158.128906 132.613281 Z M 154.398438 133.140625 C 154.277344 133.140625 154.175781 133.046875 154.164062 132.925781 C 154.152344 132.796875 154.25 132.679688 154.378906 132.667969 C 155.023438 132.609375 155.648438 132.539062 156.238281 132.457031 C 156.371094 132.441406 156.488281 132.53125 156.503906 132.660156 C 156.523438 132.789062 156.433594 132.90625 156.304688 132.925781 C 155.707031 133.007812 155.070312 133.078125 154.421875 133.136719 C 154.414062 133.140625 154.40625 133.140625 154.398438 133.140625 Z M 150.636719 133.335938 C 150.507812 133.335938 150.402344 133.234375 150.398438 133.105469 C 150.398438 132.976562 150.5 132.867188 150.628906 132.867188 C 151.269531 132.855469 151.902344 132.832031 152.507812 132.800781 C 152.640625 132.796875 152.746094 132.894531 152.753906 133.023438 C 152.761719 133.152344 152.660156 133.265625 152.53125 133.273438 C 151.921875 133.300781 151.285156 133.324219 150.640625 133.335938 C 150.636719 133.335938 150.636719 133.335938 150.636719 133.335938 Z M 148.75 133.347656 C 148.75 133.347656 148.746094 133.347656 148.746094 133.347656 C 148.132812 133.34375 147.5 133.332031 146.859375 133.308594 C 146.726562 133.304688 146.625 133.199219 146.628906 133.066406 C 146.632812 132.9375 146.742188 132.835938 146.871094 132.839844 C 147.507812 132.859375 148.140625 132.871094 148.753906 132.875 C 148.882812 132.878906 148.984375 132.984375 148.984375 133.113281 C 148.984375 133.242188 148.878906 133.347656 148.75 133.347656 " fill-opacity="1" fill-rule="nonzero"/><path fill="#ffffff" d="M 130.753906 104.328125 C 130.730469 104.328125 130.703125 104.320312 130.675781 104.3125 C 130.089844 104.097656 129.5 103.882812 128.902344 103.671875 C 128.78125 103.628906 128.71875 103.496094 128.761719 103.371094 C 128.804688 103.25 128.9375 103.183594 129.0625 103.230469 C 129.65625 103.441406 130.25 103.65625 130.835938 103.871094 C 130.960938 103.914062 131.023438 104.050781 130.976562 104.171875 C 130.941406 104.269531 130.851562 104.328125 130.753906 104.328125 Z M 134.28125 105.660156 C 134.253906 105.660156 134.226562 105.65625 134.195312 105.644531 C 133.617188 105.417969 133.03125 105.191406 132.4375 104.96875 C 132.316406 104.921875 132.257812 104.785156 132.300781 104.664062 C 132.347656 104.542969 132.484375 104.484375 132.605469 104.527344 C 133.199219 104.753906 133.785156 104.980469 134.367188 105.207031 C 134.488281 105.253906 134.550781 105.390625 134.503906 105.511719 C 134.464844 105.605469 134.378906 105.660156 134.28125 105.660156 Z M 137.78125 107.070312 C 137.75 107.070312 137.71875 107.0625 137.691406 107.050781 C 137.121094 106.8125 136.535156 106.574219 135.949219 106.335938 C 135.828125 106.289062 135.769531 106.152344 135.816406 106.03125 C 135.867188 105.910156 136.003906 105.851562 136.125 105.902344 C 136.710938 106.136719 137.300781 106.378906 137.871094 106.617188 C 137.992188 106.667969 138.046875 106.804688 137.996094 106.925781 C 137.960938 107.015625 137.871094 107.070312 137.78125 107.070312 Z M 141.242188 108.558594 C 141.210938 108.558594 141.179688 108.550781 141.148438 108.539062 C 140.585938 108.289062 140.003906 108.035156 139.425781 107.785156 C 139.304688 107.730469 139.25 107.59375 139.300781 107.472656 C 139.351562 107.355469 139.492188 107.300781 139.609375 107.351562 C 140.195312 107.601562 140.777344 107.855469 141.339844 108.105469 C 141.457031 108.160156 141.511719 108.300781 141.460938 108.417969 C 141.421875 108.507812 141.335938 108.558594 141.242188 108.558594 Z M 144.667969 110.136719 C 144.636719 110.136719 144.601562 110.128906 144.566406 110.113281 C 144.011719 109.847656 143.4375 109.578125 142.863281 109.3125 C 142.746094 109.257812 142.695312 109.121094 142.746094 109 C 142.800781 108.882812 142.941406 108.832031 143.0625 108.886719 C 143.640625 109.152344 144.214844 109.421875 144.769531 109.6875 C 144.886719 109.742188 144.9375 109.882812 144.882812 110 C 144.839844 110.085938 144.757812 110.136719 144.667969 110.136719 Z M 148.046875 111.8125 C 148.007812 111.8125 147.972656 111.804688 147.9375 111.785156 C 147.390625 111.503906 146.824219 111.21875 146.257812 110.9375 C 146.144531 110.878906 146.09375 110.738281 146.152344 110.621094 C 146.210938 110.503906 146.351562 110.457031 146.46875 110.511719 C 147.035156 110.796875 147.601562 111.082031 148.15625 111.367188 C 148.269531 111.425781 148.316406 111.570312 148.257812 111.683594 C 148.214844 111.765625 148.132812 111.8125 148.046875 111.8125 Z M 151.363281 113.605469 C 151.324219 113.605469 151.285156 113.59375 151.25 113.574219 C 150.714844 113.269531 150.160156 112.964844 149.601562 112.664062 C 149.488281 112.601562 149.445312 112.460938 149.507812 112.34375 C 149.570312 112.230469 149.710938 112.1875 149.824219 112.25 C 150.386719 112.550781 150.945312 112.859375 151.480469 113.164062 C 151.59375 113.226562 151.632812 113.371094 151.570312 113.484375 C 151.527344 113.558594 151.445312 113.605469 151.363281 113.605469 Z M 154.605469 115.53125 C 154.558594 115.53125 154.515625 115.519531 154.480469 115.496094 C 153.960938 115.171875 153.421875 114.839844 152.875 114.515625 C 152.761719 114.449219 152.726562 114.304688 152.792969 114.191406 C 152.859375 114.082031 153.003906 114.042969 153.117188 114.109375 C 153.667969 114.4375 154.210938 114.769531 154.730469 115.097656 C 154.839844 115.167969 154.871094 115.3125 154.804688 115.421875 C 154.757812 115.492188 154.683594 115.53125 154.605469 115.53125 Z M 156.222656 116.582031 C 156.175781 116.582031 156.128906 116.570312 156.089844 116.542969 L 156.054688 116.519531 C 155.945312 116.445312 155.917969 116.300781 155.988281 116.191406 C 156.0625 116.082031 156.210938 116.054688 156.316406 116.128906 L 156.351562 116.148438 C 156.460938 116.222656 156.488281 116.371094 156.417969 116.476562 C 156.371094 116.542969 156.296875 116.582031 156.222656 116.582031 " fill-opacity="1" fill-rule="nonzero"/><path fill="#ffffff" d="M 85.066406 93.488281 C 85.058594 93.488281 85.054688 93.488281 85.046875 93.488281 C 84.414062 93.429688 83.785156 93.375 83.171875 93.328125 C 83.039062 93.316406 82.945312 93.207031 82.953125 93.074219 C 82.964844 92.945312 83.078125 92.847656 83.207031 92.859375 C 83.824219 92.90625 84.457031 92.960938 85.089844 93.019531 C 85.21875 93.03125 85.3125 93.144531 85.300781 93.273438 C 85.289062 93.398438 85.1875 93.488281 85.066406 93.488281 Z M 88.816406 93.894531 C 88.804688 93.894531 88.796875 93.894531 88.785156 93.894531 C 88.160156 93.816406 87.53125 93.742188 86.917969 93.675781 C 86.789062 93.664062 86.695312 93.546875 86.707031 93.417969 C 86.722656 93.289062 86.839844 93.195312 86.96875 93.207031 C 87.585938 93.277344 88.214844 93.347656 88.84375 93.425781 C 88.972656 93.441406 89.066406 93.558594 89.050781 93.6875 C 89.035156 93.808594 88.933594 93.894531 88.816406 93.894531 Z M 92.550781 94.410156 C 92.539062 94.410156 92.527344 94.40625 92.515625 94.40625 C 91.894531 94.3125 91.265625 94.222656 90.652344 94.136719 C 90.523438 94.121094 90.433594 94 90.453125 93.871094 C 90.46875 93.742188 90.585938 93.652344 90.71875 93.671875 C 91.332031 93.753906 91.960938 93.847656 92.585938 93.9375 C 92.714844 93.960938 92.804688 94.078125 92.785156 94.207031 C 92.765625 94.324219 92.664062 94.410156 92.550781 94.410156 Z M 96.273438 95.011719 C 96.257812 95.011719 96.246094 95.011719 96.230469 95.007812 C 95.613281 94.902344 94.988281 94.796875 94.375 94.695312 C 94.246094 94.675781 94.160156 94.554688 94.179688 94.425781 C 94.203125 94.296875 94.324219 94.210938 94.453125 94.230469 C 95.066406 94.332031 95.691406 94.4375 96.3125 94.542969 C 96.441406 94.566406 96.527344 94.6875 96.503906 94.816406 C 96.484375 94.929688 96.386719 95.011719 96.273438 95.011719 Z M 99.980469 95.699219 C 99.964844 95.699219 99.949219 95.699219 99.933594 95.695312 C 99.3125 95.574219 98.695312 95.457031 98.085938 95.34375 C 97.957031 95.316406 97.871094 95.195312 97.898438 95.066406 C 97.921875 94.9375 98.042969 94.855469 98.171875 94.878906 C 98.785156 94.992188 99.402344 95.109375 100.023438 95.230469 C 100.152344 95.257812 100.238281 95.382812 100.210938 95.507812 C 100.1875 95.621094 100.089844 95.699219 99.980469 95.699219 " fill-opacity="1" fill-rule="nonzero"/><path fill="#000000" d="M 76.566406 159.910156 C 76.140625 159.910156 75.714844 159.835938 75.308594 159.6875 C 67.046875 156.710938 60.210938 153.339844 55.546875 149.949219 C 50.695312 146.425781 48.472656 143.050781 49.109375 140.195312 C 49.136719 140.070312 49.261719 139.988281 49.390625 140.015625 C 49.515625 140.046875 49.597656 140.171875 49.566406 140.300781 C 48.363281 145.699219 58.527344 153.136719 75.464844 159.246094 C 76.34375 159.5625 77.316406 159.484375 78.132812 159.035156 C 78.945312 158.589844 79.53125 157.8125 79.734375 156.902344 L 96.210938 83.5 C 96.566406 81.902344 95.671875 80.285156 94.128906 79.738281 C 85.644531 76.738281 78.605469 73.328125 73.78125 69.871094 C 68.769531 66.285156 66.464844 62.855469 67.113281 59.953125 C 67.140625 59.824219 67.265625 59.746094 67.394531 59.773438 C 67.519531 59.804688 67.601562 59.929688 67.574219 60.054688 C 66.96875 62.761719 69.210938 66.023438 74.054688 69.488281 C 78.84375 72.917969 85.839844 76.308594 94.289062 79.292969 C 96.054688 79.917969 97.078125 81.769531 96.671875 83.601562 L 80.191406 157.007812 C 79.960938 158.046875 79.292969 158.9375 78.359375 159.449219 C 77.804688 159.753906 77.1875 159.910156 76.566406 159.910156 " fill-opacity="1" fill-rule="nonzero"/><path fill="#000000" d="M 89.527344 95.011719 C 89.277344 95.011719 89.023438 94.96875 88.78125 94.886719 C 76.828125 90.726562 67.894531 85.707031 64.265625 81.117188 C 64.183594 81.015625 64.203125 80.867188 64.304688 80.785156 C 64.40625 80.703125 64.554688 80.722656 64.636719 80.824219 C 68.210938 85.34375 77.066406 90.308594 88.9375 94.441406 C 89.421875 94.609375 89.957031 94.5625 90.40625 94.3125 C 90.855469 94.0625 91.175781 93.632812 91.289062 93.132812 L 91.597656 91.746094 L 92.785156 85.195312 L 92.984375 84.304688 C 93.210938 83.289062 92.640625 82.269531 91.65625 81.929688 C 79.90625 77.863281 70.980469 72.933594 67.167969 68.402344 C 67.085938 68.304688 67.097656 68.15625 67.195312 68.070312 C 67.296875 67.988281 67.445312 68 67.527344 68.097656 C 71.285156 72.566406 80.136719 77.445312 91.8125 81.484375 C 93.019531 81.902344 93.722656 83.160156 93.445312 84.40625 L 93.25 85.289062 L 92.058594 91.839844 L 91.75 93.234375 C 91.609375 93.867188 91.203125 94.410156 90.632812 94.722656 C 90.292969 94.914062 89.910156 95.011719 89.527344 95.011719 " fill-opacity="1" fill-rule="nonzero"/><path fill="#000000" d="M 79.8125 135.785156 C 79.5625 135.785156 79.308594 135.746094 79.066406 135.660156 C 68.179688 131.871094 59.871094 127.429688 55.671875 123.152344 C 55.582031 123.058594 55.582031 122.910156 55.675781 122.820312 C 55.765625 122.726562 55.917969 122.730469 56.007812 122.820312 C 60.097656 126.984375 68.558594 131.503906 79.222656 135.214844 C 79.707031 135.382812 80.242188 135.335938 80.691406 135.085938 C 81.140625 134.835938 81.464844 134.40625 81.574219 133.90625 L 81.882812 132.523438 L 89.277344 101.839844 L 89.472656 100.960938 C 89.699219 99.945312 89.128906 98.925781 88.144531 98.585938 C 76.390625 94.519531 67.464844 89.589844 63.65625 85.058594 C 63.570312 84.960938 63.585938 84.808594 63.683594 84.726562 C 63.785156 84.644531 63.933594 84.65625 64.015625 84.753906 C 67.773438 89.222656 76.625 94.101562 88.296875 98.140625 C 89.507812 98.558594 90.210938 99.816406 89.933594 101.0625 L 89.734375 101.945312 L 82.34375 132.628906 L 82.035156 134.007812 C 81.894531 134.640625 81.488281 135.183594 80.921875 135.5 C 80.578125 135.6875 80.195312 135.785156 79.8125 135.785156 " fill-opacity="1" fill-rule="nonzero"/><path fill="#000000" d="M 75.539062 153.527344 C 75.289062 153.527344 75.035156 153.488281 74.792969 153.402344 C 65.191406 150.058594 57.40625 146.101562 52.878906 142.265625 C 52.78125 142.179688 52.769531 142.03125 52.851562 141.929688 C 52.9375 141.832031 53.085938 141.820312 53.183594 141.90625 C 57.667969 145.707031 65.398438 149.632812 74.949219 152.957031 C 75.433594 153.125 75.96875 153.078125 76.417969 152.828125 C 76.867188 152.578125 77.191406 152.148438 77.300781 151.648438 L 77.609375 150.265625 L 79.378906 142.511719 L 79.574219 141.632812 C 79.800781 140.617188 79.230469 139.597656 78.246094 139.257812 C 67.992188 135.710938 59.890625 131.519531 55.433594 127.457031 C 55.339844 127.371094 55.332031 127.21875 55.417969 127.125 C 55.507812 127.027344 55.65625 127.023438 55.75 127.109375 C 60.164062 131.128906 68.207031 135.285156 78.402344 138.8125 C 79.609375 139.230469 80.3125 140.488281 80.035156 141.734375 L 79.839844 142.617188 L 78.070312 150.367188 L 77.761719 151.75 C 77.621094 152.382812 77.214844 152.925781 76.648438 153.242188 C 76.304688 153.429688 75.921875 153.527344 75.539062 153.527344 " fill-opacity="1" fill-rule="nonzero"/><path fill="#000000" d="M 109.558594 154.402344 L 107.5 163.632812 C 107.40625 164.050781 107.671875 164.46875 108.089844 164.5625 C 111.792969 165.390625 115.511719 166.097656 119.148438 166.660156 C 119.714844 166.75 120.253906 166.378906 120.378906 165.824219 L 122.144531 157.914062 C 122.210938 157.621094 122.152344 157.308594 121.980469 157.0625 C 121.808594 156.8125 121.542969 156.644531 121.242188 156.597656 C 117.417969 156.019531 113.503906 155.28125 109.609375 154.410156 Z M 119.316406 167.144531 C 119.238281 167.144531 119.15625 167.140625 119.074219 167.128906 C 115.429688 166.558594 111.703125 165.851562 107.988281 165.023438 C 107.3125 164.875 106.890625 164.203125 107.039062 163.527344 L 109.109375 154.265625 C 109.132812 154.15625 109.203125 154.054688 109.300781 153.992188 C 109.398438 153.929688 109.519531 153.910156 109.632812 153.933594 L 109.710938 153.953125 C 113.59375 154.820312 117.5 155.554688 121.3125 156.132812 C 121.742188 156.199219 122.125 156.4375 122.371094 156.792969 C 122.613281 157.152344 122.699219 157.597656 122.605469 158.019531 L 120.839844 165.925781 C 120.679688 166.644531 120.035156 167.144531 119.316406 167.144531 " fill-opacity="1" fill-rule="nonzero"/><path fill="#000000" d="M 113.378906 139.449219 C 113.265625 139.449219 113.15625 139.484375 113.058594 139.542969 C 112.921875 139.632812 112.828125 139.765625 112.792969 139.921875 L 110.820312 148.761719 C 110.800781 148.835938 110.851562 148.910156 110.925781 148.929688 C 114.84375 149.804688 118.777344 150.539062 122.621094 151.125 C 123.183594 151.207031 123.722656 150.839844 123.847656 150.285156 L 125.496094 142.90625 C 125.5625 142.613281 125.5 142.300781 125.332031 142.054688 C 125.164062 141.804688 124.894531 141.636719 124.597656 141.589844 C 121.058594 141.03125 117.4375 140.34375 113.839844 139.539062 L 113.511719 139.464844 C 113.46875 139.457031 113.421875 139.449219 113.378906 139.449219 Z M 122.785156 151.605469 C 122.707031 151.605469 122.628906 151.601562 122.550781 151.589844 C 118.695312 151.003906 114.75 150.265625 110.824219 149.386719 C 110.496094 149.316406 110.285156 148.988281 110.359375 148.65625 L 112.332031 139.820312 C 112.394531 139.539062 112.5625 139.300781 112.804688 139.148438 C 113.046875 138.992188 113.335938 138.941406 113.617188 139.007812 L 113.941406 139.078125 C 117.53125 139.878906 121.140625 140.566406 124.671875 141.125 C 125.097656 141.191406 125.480469 141.433594 125.722656 141.789062 C 125.964844 142.144531 126.046875 142.589844 125.957031 143.007812 L 124.308594 150.386719 C 124.148438 151.105469 123.503906 151.605469 122.785156 151.605469 " fill-opacity="1" fill-rule="nonzero"/><path fill="#000000" d="M 117.175781 124.203125 C 116.96875 124.203125 116.769531 124.261719 116.589844 124.375 C 116.34375 124.53125 116.171875 124.773438 116.109375 125.058594 L 114.394531 132.742188 C 114.320312 133.066406 114.378906 133.402344 114.558594 133.683594 C 114.738281 133.964844 115.015625 134.160156 115.339844 134.230469 C 125.820312 136.570312 136.039062 137.871094 144.894531 137.992188 C 144.898438 137.992188 144.902344 137.992188 144.90625 137.992188 C 145.417969 137.992188 145.863281 137.636719 145.972656 137.140625 L 147.71875 129.324219 C 147.789062 129.003906 147.714844 128.671875 147.511719 128.414062 C 147.304688 128.15625 147 128.003906 146.671875 127.996094 C 137.878906 127.839844 127.761719 126.539062 117.417969 124.230469 C 117.335938 124.210938 117.253906 124.203125 117.175781 124.203125 Z M 144.90625 138.464844 C 144.898438 138.464844 144.894531 138.464844 144.886719 138.464844 C 136 138.34375 125.75 137.035156 115.238281 134.691406 C 114.789062 134.589844 114.40625 134.324219 114.160156 133.9375 C 113.914062 133.546875 113.835938 133.085938 113.933594 132.640625 L 115.648438 124.957031 C 115.738281 124.546875 115.984375 124.199219 116.339844 123.976562 C 116.691406 123.75 117.109375 123.679688 117.519531 123.769531 C 127.832031 126.070312 137.917969 127.371094 146.679688 127.527344 C 147.152344 127.535156 147.589844 127.75 147.878906 128.121094 C 148.171875 128.492188 148.28125 128.96875 148.179688 129.429688 L 146.433594 137.246094 C 146.273438 137.953125 145.636719 138.464844 144.90625 138.464844 " fill-opacity="1" fill-rule="nonzero"/><path fill="#000000" d="M 126.460938 157.3125 C 125.957031 157.3125 125.511719 157.660156 125.398438 158.164062 L 123.59375 166.253906 C 123.539062 166.511719 123.589844 166.78125 123.746094 167 C 123.898438 167.214844 124.136719 167.355469 124.398438 167.390625 C 138.433594 169.085938 149.984375 168.503906 156.09375 165.785156 C 156.410156 165.644531 156.640625 165.359375 156.71875 165.023438 L 158.695312 156.15625 C 158.738281 155.964844 158.671875 155.765625 158.515625 155.640625 C 158.363281 155.515625 158.15625 155.488281 157.972656 155.570312 C 151.914062 158.300781 140.476562 158.941406 126.589844 157.320312 C 126.546875 157.3125 126.503906 157.3125 126.460938 157.3125 Z M 139.019531 168.8125 C 134.578125 168.8125 129.636719 168.496094 124.34375 167.855469 C 123.949219 167.808594 123.589844 167.597656 123.359375 167.273438 C 123.128906 166.945312 123.046875 166.539062 123.136719 166.152344 L 124.941406 158.0625 C 125.113281 157.277344 125.847656 156.757812 126.644531 156.851562 C 140.445312 158.460938 151.796875 157.839844 157.78125 155.140625 C 158.125 154.988281 158.519531 155.039062 158.8125 155.277344 C 159.105469 155.515625 159.238281 155.890625 159.15625 156.261719 L 157.175781 165.128906 C 157.070312 165.609375 156.734375 166.015625 156.285156 166.214844 C 152.417969 167.933594 146.421875 168.8125 139.019531 168.8125 " fill-opacity="1" fill-rule="nonzero"/><path fill="#000000" d="M 129.804688 142.332031 C 129.300781 142.332031 128.855469 142.679688 128.742188 143.183594 L 126.996094 151.019531 C 126.953125 151.195312 126.992188 151.378906 127.097656 151.527344 C 127.199219 151.671875 127.363281 151.769531 127.539062 151.789062 C 141.964844 153.503906 153.996094 152.75 159.722656 149.765625 C 160.011719 149.617188 160.214844 149.351562 160.285156 149.035156 L 161.941406 141.613281 C 161.980469 141.441406 161.921875 141.265625 161.789062 141.152344 C 161.660156 141.039062 161.476562 141.007812 161.3125 141.070312 C 154.910156 143.539062 143.476562 144.003906 129.941406 142.339844 C 129.894531 142.335938 129.851562 142.332031 129.804688 142.332031 Z M 141.734375 153.160156 C 137.390625 153.160156 132.585938 152.863281 127.484375 152.257812 C 127.175781 152.21875 126.894531 152.054688 126.710938 151.796875 C 126.53125 151.542969 126.46875 151.222656 126.535156 150.917969 L 128.285156 143.082031 C 128.460938 142.292969 129.195312 141.773438 130 141.875 C 143.460938 143.527344 154.8125 143.074219 161.144531 140.632812 C 161.46875 140.507812 161.835938 140.570312 162.097656 140.796875 C 162.359375 141.023438 162.476562 141.375 162.402344 141.714844 L 160.746094 149.140625 C 160.644531 149.589844 160.351562 149.972656 159.941406 150.183594 C 156.175781 152.148438 149.746094 153.160156 141.734375 153.160156 " fill-opacity="1" fill-rule="nonzero"/><path fill="#000000" d="M 152.195312 127.695312 Z M 152.203125 127.929688 C 151.710938 127.953125 151.292969 128.300781 151.1875 128.78125 L 149.339844 137.066406 C 149.292969 137.277344 149.347656 137.503906 149.484375 137.671875 C 149.625 137.835938 149.839844 137.929688 150.054688 137.917969 C 155.34375 137.679688 159.746094 136.910156 162.777344 135.6875 C 163.113281 135.554688 163.359375 135.265625 163.4375 134.914062 L 165.347656 126.355469 C 165.382812 126.191406 165.328125 126.015625 165.199219 125.90625 C 165.070312 125.792969 164.890625 125.761719 164.730469 125.820312 C 161.621094 126.988281 157.410156 127.699219 152.203125 127.929688 Z M 150.023438 138.390625 C 149.679688 138.390625 149.347656 138.238281 149.125 137.972656 C 148.890625 137.695312 148.800781 137.320312 148.878906 136.964844 L 150.726562 128.679688 C 150.882812 127.992188 151.480469 127.492188 152.183594 127.460938 C 157.339844 127.230469 161.503906 126.53125 164.5625 125.378906 C 164.886719 125.261719 165.246094 125.324219 165.507812 125.550781 C 165.765625 125.777344 165.882812 126.125 165.808594 126.460938 L 163.898438 135.015625 C 163.785156 135.519531 163.433594 135.933594 162.953125 136.125 C 159.828125 137.382812 155.496094 138.144531 150.078125 138.390625 C 150.058594 138.390625 150.042969 138.390625 150.023438 138.390625 " fill-opacity="1" fill-rule="nonzero"/><path fill="#000000" d="M 137.582031 174.019531 C 128.84375 174.019531 118.453125 172.757812 107.753906 170.367188 C 106.789062 170.152344 105.8125 169.925781 104.847656 169.691406 C 102.921875 169.226562 101.703125 167.277344 102.136719 165.34375 L 111.722656 122.382812 C 111.9375 121.433594 112.53125 120.59375 113.355469 120.078125 C 114.179688 119.5625 115.195312 119.398438 116.144531 119.625 C 117.066406 119.847656 118.003906 120.066406 118.933594 120.273438 C 131.648438 123.109375 143.914062 124.351562 153.472656 123.773438 C 158.109375 123.488281 161.851562 122.792969 164.59375 121.707031 C 167.378906 120.597656 168.992188 119.140625 169.390625 117.367188 C 169.417969 117.242188 169.542969 117.160156 169.671875 117.1875 C 169.796875 117.21875 169.878906 117.34375 169.847656 117.46875 C 169.003906 121.246094 163.199219 123.652344 153.503906 124.242188 C 143.902344 124.824219 131.585938 123.578125 118.832031 120.734375 C 117.898438 120.523438 116.957031 120.308594 116.03125 120.082031 C 115.210938 119.886719 114.324219 120.027344 113.605469 120.476562 C 112.886719 120.925781 112.367188 121.65625 112.183594 122.484375 L 102.59375 165.445312 C 102.21875 167.128906 103.28125 168.828125 104.960938 169.234375 C 105.917969 169.46875 106.894531 169.691406 107.855469 169.90625 C 120.570312 172.746094 132.835938 173.988281 142.398438 173.40625 C 147.03125 173.125 150.773438 172.429688 153.515625 171.339844 C 156.300781 170.234375 157.914062 168.773438 158.3125 167.003906 C 158.339844 166.875 158.464844 166.796875 158.589844 166.824219 C 158.71875 166.851562 158.796875 166.976562 158.769531 167.105469 C 157.925781 170.882812 152.121094 173.289062 142.425781 173.878906 C 140.878906 173.972656 139.261719 174.019531 137.582031 174.019531 " fill-opacity="1" fill-rule="nonzero"/><path fill="#14697d" d="M 174.894531 94.457031 C 174.875 94.457031 174.859375 94.453125 174.84375 94.449219 C 174.714844 94.421875 174.632812 94.296875 174.664062 94.167969 C 175.714844 89.453125 167.785156 83.015625 153.960938 77.371094 C 153.839844 77.320312 153.785156 77.183594 153.832031 77.0625 C 153.882812 76.941406 154.019531 76.882812 154.140625 76.933594 C 168.402344 82.757812 176.246094 89.242188 175.125 94.273438 C 175.097656 94.382812 175.003906 94.457031 174.894531 94.457031 " fill-opacity="1" fill-rule="nonzero"/><path fill="#000000" d="M 148.878906 101.050781 C 148.871094 101.050781 148.867188 101.050781 148.863281 101.050781 C 144.628906 100.835938 140.113281 100.367188 135.441406 99.660156 C 135.3125 99.640625 135.222656 99.523438 135.242188 99.394531 C 135.261719 99.265625 135.382812 99.175781 135.511719 99.195312 C 140.167969 99.898438 144.667969 100.367188 148.886719 100.578125 C 149.019531 100.585938 149.117188 100.695312 149.113281 100.824219 C 149.105469 100.953125 149 101.050781 148.878906 101.050781 " fill-opacity="1" fill-rule="nonzero"/><path fill="#000000" d="M 156.707031 101.140625 C 156.582031 101.140625 156.476562 101.039062 156.472656 100.914062 C 156.46875 100.78125 156.570312 100.671875 156.703125 100.667969 C 163.304688 100.453125 168.421875 99.445312 171.496094 97.746094 C 171.609375 97.683594 171.753906 97.726562 171.816406 97.839844 C 171.878906 97.953125 171.835938 98.097656 171.722656 98.160156 C 168.582031 99.890625 163.394531 100.921875 156.71875 101.140625 C 156.714844 101.140625 156.710938 101.140625 156.707031 101.140625 " fill-opacity="1" fill-rule="nonzero"/><path fill="#14697d" d="M 176.59375 88.046875 C 176.578125 88.046875 176.558594 88.046875 176.542969 88.039062 C 176.414062 88.011719 176.335938 87.886719 176.363281 87.761719 C 177.550781 82.449219 167.550781 75.136719 150.898438 69.128906 C 150.773438 69.085938 150.710938 68.949219 150.753906 68.828125 C 150.800781 68.707031 150.933594 68.644531 151.054688 68.6875 C 159.183594 71.617188 165.902344 74.929688 170.492188 78.265625 C 175.261719 81.734375 177.453125 85.050781 176.824219 87.863281 C 176.800781 87.972656 176.703125 88.046875 176.59375 88.046875 " fill-opacity="1" fill-rule="nonzero"/><path fill="#000000" d="M 143.949219 94.121094 C 143.941406 94.121094 143.933594 94.121094 143.925781 94.121094 C 138.089844 93.515625 131.996094 92.507812 125.804688 91.125 C 125.679688 91.097656 125.597656 90.972656 125.628906 90.84375 C 125.65625 90.71875 125.78125 90.636719 125.910156 90.664062 C 132.078125 92.042969 138.15625 93.046875 143.972656 93.652344 C 144.105469 93.667969 144.195312 93.78125 144.183594 93.910156 C 144.171875 94.03125 144.070312 94.121094 143.949219 94.121094 " fill-opacity="1" fill-rule="nonzero"/><path fill="#000000" d="M 155.738281 94.773438 C 154.777344 94.773438 153.789062 94.757812 152.777344 94.730469 C 152.644531 94.726562 152.542969 94.617188 152.546875 94.488281 C 152.550781 94.355469 152.660156 94.253906 152.789062 94.257812 C 163.558594 94.578125 171.597656 93.101562 174.835938 90.199219 C 174.933594 90.113281 175.082031 90.121094 175.167969 90.21875 C 175.253906 90.3125 175.25 90.460938 175.148438 90.550781 C 172.082031 93.296875 165.246094 94.773438 155.738281 94.773438 " fill-opacity="1" fill-rule="nonzero"/><path fill="#000000" d="M 57.007812 58.605469 C 56.945312 58.605469 56.886719 58.582031 56.839844 58.535156 L 56.238281 57.933594 C 56.144531 57.84375 56.144531 57.695312 56.238281 57.601562 C 56.328125 57.507812 56.480469 57.507812 56.570312 57.601562 L 57.171875 58.203125 C 57.265625 58.292969 57.265625 58.441406 57.171875 58.535156 C 57.125 58.582031 57.066406 58.605469 57.007812 58.605469 " fill-opacity="1" fill-rule="nonzero"/><path fill="#000000" d="M 59.109375 60.707031 C 59.050781 60.707031 58.988281 60.683594 58.945312 60.636719 L 58.34375 60.039062 C 58.25 59.945312 58.25 59.796875 58.34375 59.703125 C 58.433594 59.613281 58.582031 59.613281 58.675781 59.703125 L 59.277344 60.304688 C 59.367188 60.394531 59.367188 60.546875 59.277344 60.636719 C 59.230469 60.683594 59.171875 60.707031 59.109375 60.707031 " fill-opacity="1" fill-rule="nonzero"/><path fill="#000000" d="M 56.40625 60.707031 C 56.34375 60.707031 56.285156 60.683594 56.238281 60.636719 C 56.144531 60.546875 56.144531 60.394531 56.238281 60.304688 L 56.839844 59.703125 C 56.929688 59.613281 57.082031 59.613281 57.171875 59.703125 C 57.265625 59.796875 57.265625 59.945312 57.171875 60.039062 L 56.570312 60.636719 C 56.527344 60.683594 56.464844 60.707031 56.40625 60.707031 " fill-opacity="1" fill-rule="nonzero"/><path fill="#000000" d="M 58.507812 58.605469 C 58.449219 58.605469 58.386719 58.582031 58.34375 58.535156 C 58.25 58.441406 58.25 58.292969 58.34375 58.203125 L 58.945312 57.601562 C 59.035156 57.507812 59.183594 57.507812 59.277344 57.601562 C 59.367188 57.695312 59.367188 57.84375 59.277344 57.933594 L 58.675781 58.535156 C 58.628906 58.582031 58.570312 58.605469 58.507812 58.605469 " fill-opacity="1" fill-rule="nonzero"/><path fill="#000000" d="M 125.761719 72.652344 C 125.699219 72.652344 125.640625 72.628906 125.59375 72.585938 L 125.113281 72.101562 C 125.019531 72.011719 125.019531 71.859375 125.113281 71.769531 C 125.203125 71.675781 125.351562 71.675781 125.445312 71.769531 L 125.925781 72.25 C 126.019531 72.34375 126.019531 72.492188 125.925781 72.585938 C 125.882812 72.628906 125.820312 72.652344 125.761719 72.652344 " fill-opacity="1" fill-rule="nonzero"/><path fill="#000000" d="M 127.449219 74.339844 C 127.390625 74.339844 127.332031 74.316406 127.285156 74.273438 L 126.800781 73.789062 C 126.710938 73.699219 126.710938 73.546875 126.800781 73.457031 C 126.894531 73.363281 127.042969 73.363281 127.132812 73.457031 L 127.617188 73.9375 C 127.710938 74.03125 127.710938 74.179688 127.617188 74.273438 C 127.570312 74.316406 127.511719 74.339844 127.449219 74.339844 " fill-opacity="1" fill-rule="nonzero"/><path fill="#000000" d="M 125.277344 74.339844 C 125.21875 74.339844 125.160156 74.316406 125.113281 74.273438 C 125.019531 74.179688 125.019531 74.03125 125.113281 73.9375 L 125.59375 73.457031 C 125.6875 73.363281 125.835938 73.363281 125.929688 73.457031 C 126.019531 73.546875 126.019531 73.699219 125.929688 73.789062 L 125.445312 74.273438 C 125.398438 74.316406 125.339844 74.339844 125.277344 74.339844 " fill-opacity="1" fill-rule="nonzero"/><path fill="#000000" d="M 126.96875 72.652344 C 126.90625 72.652344 126.847656 72.628906 126.800781 72.585938 C 126.710938 72.492188 126.710938 72.34375 126.800781 72.25 L 127.285156 71.769531 C 127.375 71.675781 127.523438 71.675781 127.617188 71.769531 C 127.707031 71.859375 127.707031 72.011719 127.617188 72.101562 L 127.132812 72.585938 C 127.089844 72.628906 127.027344 72.652344 126.96875 72.652344 " fill-opacity="1" fill-rule="nonzero"/><path fill="#a6201e" d="M 162.835938 63.007812 C 162.835938 62.425781 163.308594 61.957031 163.886719 61.957031 C 164.46875 61.957031 164.9375 62.425781 164.9375 63.007812 C 164.9375 63.585938 164.46875 64.058594 163.886719 64.058594 C 163.308594 64.058594 162.835938 63.585938 162.835938 63.007812 " fill-opacity="1" fill-rule="nonzero"/><path fill="#a6201e" d="M 66.113281 164.988281 C 66.113281 164.410156 66.582031 163.9375 67.164062 163.9375 C 67.742188 163.9375 68.214844 164.410156 68.214844 164.988281 C 68.214844 165.570312 67.742188 166.039062 67.164062 166.039062 C 66.582031 166.039062 66.113281 165.570312 66.113281 164.988281 " fill-opacity="1" fill-rule="nonzero"/><path fill="#000000" d="M 170.164062 66.785156 C 169.605469 66.785156 169.148438 67.242188 169.148438 67.800781 C 169.148438 68.359375 169.605469 68.816406 170.164062 68.816406 C 170.722656 68.816406 171.179688 68.359375 171.179688 67.800781 C 171.179688 67.242188 170.722656 66.785156 170.164062 66.785156 Z M 170.164062 69.285156 C 169.34375 69.285156 168.675781 68.621094 168.675781 67.800781 C 168.675781 66.980469 169.34375 66.3125 170.164062 66.3125 C 170.984375 66.3125 171.652344 66.980469 171.652344 67.800781 C 171.652344 68.621094 170.984375 69.285156 170.164062 69.285156 " fill-opacity="1" fill-rule="nonzero"/><path fill="#000000" d="M 53.839844 65.179688 C 53.269531 65.179688 52.804688 65.644531 52.804688 66.214844 C 52.804688 66.785156 53.269531 67.246094 53.839844 67.246094 C 54.410156 67.246094 54.875 66.785156 54.875 66.214844 C 54.875 65.644531 54.410156 65.179688 53.839844 65.179688 Z M 53.839844 67.71875 C 53.007812 67.71875 52.335938 67.042969 52.335938 66.214844 C 52.335938 65.386719 53.007812 64.710938 53.839844 64.710938 C 54.671875 64.710938 55.347656 65.386719 55.347656 66.214844 C 55.347656 67.042969 54.671875 67.71875 53.839844 67.71875 " fill-opacity="1" fill-rule="nonzero"/><path fill="#000000" d="M 54.210938 73.136719 C 53.882812 73.136719 53.613281 73.40625 53.613281 73.734375 C 53.613281 74.066406 53.882812 74.335938 54.210938 74.335938 C 54.542969 74.335938 54.8125 74.066406 54.8125 73.734375 C 54.8125 73.40625 54.542969 73.136719 54.210938 73.136719 Z M 54.210938 74.808594 C 53.621094 74.808594 53.140625 74.328125 53.140625 73.734375 C 53.140625 73.144531 53.621094 72.664062 54.210938 72.664062 C 54.804688 72.664062 55.285156 73.144531 55.285156 73.734375 C 55.285156 74.328125 54.804688 74.808594 54.210938 74.808594 " fill-opacity="1" fill-rule="nonzero"/><path fill="#000000" d="M 148.230469 85.066406 C 148.167969 85.066406 148.109375 85.042969 148.0625 84.996094 L 147.375 84.3125 C 147.285156 84.21875 147.285156 84.070312 147.375 83.980469 C 147.46875 83.886719 147.617188 83.886719 147.710938 83.980469 L 148.394531 84.664062 C 148.488281 84.757812 148.488281 84.90625 148.394531 84.996094 C 148.351562 85.042969 148.289062 85.066406 148.230469 85.066406 " fill-opacity="1" fill-rule="nonzero"/><path fill="#000000" d="M 150.628906 87.460938 C 150.566406 87.460938 150.507812 87.441406 150.460938 87.394531 L 149.777344 86.707031 C 149.683594 86.617188 149.683594 86.46875 149.777344 86.375 C 149.867188 86.285156 150.015625 86.285156 150.109375 86.375 L 150.792969 87.058594 C 150.886719 87.152344 150.886719 87.300781 150.792969 87.394531 C 150.75 87.441406 150.6875 87.460938 150.628906 87.460938 " fill-opacity="1" fill-rule="nonzero"/><path fill="#000000" d="M 147.542969 87.464844 C 147.484375 87.464844 147.421875 87.441406 147.375 87.394531 C 147.285156 87.300781 147.285156 87.152344 147.375 87.0625 L 148.0625 86.375 C 148.15625 86.285156 148.304688 86.285156 148.394531 86.375 C 148.488281 86.46875 148.488281 86.617188 148.394531 86.710938 L 147.710938 87.394531 C 147.664062 87.441406 147.605469 87.464844 147.542969 87.464844 " fill-opacity="1" fill-rule="nonzero"/><path fill="#000000" d="M 149.941406 85.066406 C 149.882812 85.066406 149.820312 85.042969 149.777344 84.996094 C 149.683594 84.90625 149.683594 84.753906 149.777344 84.664062 L 150.460938 83.980469 C 150.554688 83.886719 150.703125 83.886719 150.792969 83.980469 C 150.886719 84.070312 150.886719 84.21875 150.792969 84.3125 L 150.109375 84.996094 C 150.0625 85.042969 150.003906 85.066406 149.941406 85.066406 " fill-opacity="1" fill-rule="nonzero"/><path fill="#000000" d="M 136.769531 68.871094 C 136.746094 68.871094 136.726562 68.867188 136.703125 68.863281 C 136.578125 68.824219 136.507812 68.695312 136.542969 68.570312 L 140.785156 53.535156 C 140.816406 53.410156 140.949219 53.339844 141.074219 53.375 C 141.199219 53.410156 141.273438 53.539062 141.238281 53.664062 L 136.996094 68.699219 C 136.964844 68.800781 136.871094 68.871094 136.769531 68.871094 " fill-opacity="1" fill-rule="nonzero"/><path fill="#000000" d="M 138.589844 70.28125 C 138.53125 70.28125 138.46875 70.257812 138.421875 70.210938 C 138.332031 70.117188 138.335938 69.96875 138.425781 69.878906 L 146.949219 61.636719 C 147.042969 61.546875 147.191406 61.546875 147.28125 61.640625 C 147.375 61.734375 147.371094 61.886719 147.277344 61.976562 L 138.753906 70.214844 C 138.710938 70.261719 138.652344 70.28125 138.589844 70.28125 " fill-opacity="1" fill-rule="nonzero"/><path fill="#000000" d="M 134.21875 65.304688 C 134.089844 65.304688 133.988281 65.203125 133.984375 65.074219 L 133.792969 55.011719 C 133.789062 54.882812 133.894531 54.777344 134.023438 54.773438 C 134.148438 54.773438 134.261719 54.875 134.265625 55.003906 L 134.457031 65.066406 C 134.457031 65.195312 134.355469 65.300781 134.226562 65.304688 C 134.222656 65.304688 134.222656 65.304688 134.21875 65.304688 " fill-opacity="1" fill-rule="nonzero"/><path fill="#a6201e" d="M 65.101562 161.703125 C 65.101562 161.332031 65.402344 161.03125 65.773438 161.03125 C 66.144531 161.03125 66.445312 161.332031 66.445312 161.703125 C 66.445312 162.074219 66.144531 162.375 65.773438 162.375 C 65.402344 162.375 65.101562 162.074219 65.101562 161.703125 " fill-opacity="1" fill-rule="nonzero"/></svg>